<?xml version="1.0" encoding="utf-8"?>
<!-- Generator: Adobe Illustrator 24.1.2, SVG Export Plug-In . SVG Version: 6.00 Build 0)  -->
<svg version="1.1" id="Layer_1" xmlns="http://www.w3.org/2000/svg" xmlns:xlink="http://www.w3.org/1999/xlink" x="0px" y="0px"
	 viewBox="0 0 1500 321.8" style="enable-background:new 0 0 1500 321.8;" xml:space="preserve">
<style type="text/css">
	.st0{clip-path:url(#SVGID_2_);}
	.st1{fill:#94CED9;}
</style>
<g>
	<defs>
		<rect id="SVGID_1_" y="-373.4" width="1499.3" height="714"/>
	</defs>
	<clipPath id="SVGID_2_">
		<use xlink:href="#SVGID_1_"  style="overflow:visible;"/>
	</clipPath>
	<g class="st0">
		<path class="st1" d="M1588.6,199.4v-48.7l-109.9,0.1v-20l-7-4h-1.2V99l-6.5-5.1l-8.1,0.6l-6.2-5.7V89l-8.8,0.6l-6.2-5.9l-11.1,1.6
			v41.5h-15.2V94l-31.6,8.5v15.2l-1.9-1.5l-8.1,1.5V94l-11.2,6.7v31l-7.4,0.8v-7.1l-7-7.7l-4.4,8.3v7.8l-5.1,0.6v7.9l-2.7,0.5v-18.3
			l-17.5-4.2l-10.8,1.9V151h-18.8v-19.4l-11.6-2.1l-8.2,2.3v-16.6h-3.3V96.3h-2.1V84h-3.5V71.8h-0.5v12.3h-3.5v12.3h-2.1v18.8h-1.2
			V68.6l-17.5-3.2l-20.3,5.7l0.1,78.3h-2.8v-8.1h-3.9v-26.1h-1.9v-14.3h-9.8v14.3h-11v26.1h-4.5v8.1h-2.3v-2.5h1.1v-14.6l-2.7,2.5
			c-0.7-4.2-4.2-7.4-8.5-7.8l-2.9-0.3v-10.6v-13.1l-18.5-12.2l-22.9,11.4v16.5l-7.2-3.6l-10.9,6v10.7l-10,6.4v11.4h-6.6V133l0,0
			v-6.8l-8.2-4.7h-0.5V94.4l-1,0.3V89l-7.6-6h-0.2V70.7h-0.2V83l-5.7,0.4V72.5h-3.1V55.1h-1.9V43.9h-3.2V32.6h-0.4v11.3h-3.2v11.3
			h-1.9v17.3h-3.1v5.2l-4.1,0.3l-7.2-6.9l-13,1.9v21.6h-6.6v26.9h-11.2V83.1l-37,10v17.8l-2.2-1.7l-9.5,1.7V83.1l-13.1,7.8v36.3
			l-8.6,1V120l-8.2-9.1l-5.1,9.7v9.1l-6,0.7v9.3l-3.1,0.6v-21.4l-20.5-5l-12.6,2.2v33.8h-22V127l-13.5-2.5l-9.6,2.7v-19.4h-3.9v-22
			h-2.5V71.4h-4V57h-0.6v14.4h-4v14.4H812v22h-1.4l-0.1-54.5l-20.4-3.7l-23.8,6.7l0.1,93.6h-3.2v-11.5h-4.5v-30.6h-2.2V91.2H745
			v16.7h-12.8v30.5h-5.3v11.5h-2.6v-4.9h1.3V128l-3.2,2.9c-0.8-4.9-4.8-8.7-9.8-9.2l-3.4-0.3v-12.4V93.5l-21.8-14.2l-26.8,13.3V112
			l-8.4-4.2l-12.7,7v12.6l-11.7,7.5v15.2H620v-21.4l-10.2-6V83.6l-4.3,1.2V82h-3.2v-1h-0.5v-2.5h-1.2v-0.6h-1v-22h-0.3v22h-0.8v0.6
			h-1.2V81H597v1h-4.4v-24h-3.6V37.6h-2.3V24.4H583V11.3h-0.5v13.2h-3.7v13.2h-2.3V58h-3.6v25.8H539l-5-4.6v0.2l-10.3,0.7l-7.2-6.9
			l-13,1.9v48.5h-17.8V85.2l-37,9.9v17.8l-2.2-1.7L437,113V85.2L424,93v36.3l-8.7,1v-8.3l-8.2-9.1l-5.1,9.7v9.1l-6,0.6v9.2l-3.1,0.6
			v-21.4l-20.5-5l-12.6,2.2v33.7h-22v-22.8l-13.5-2.5l-9.6,2.6v-19.4h-3.9v-22h-2.5V73.4h-4V59h-0.6v14.4h-4v14.4h-2.5v22h-1.4V55.4
			l-20.4-3.8l-23.8,6.6v93.6h-3.2v-11.5h-4.5v-30.6h-2.2V93.1h-11.5v16.7h-12.8v30.6H212v11.5h-2.6v-5h1.3v-17.1l-3.2,2.9
			c-0.9-4.9-4.9-8.7-9.9-9.2l-3.3-0.3V95.3l-21.7-14.3l-26.9,13.3v19.3l-8.4-4.2l-12.7,7v12.6l-11.7,7.5v15.3h-7.7v-21.4l-10.2-6
			V85.2l-4.3,1.1v-2.7h-3.2v-1h-0.5v-2.5h-1.2v-0.6h-1v-22h-0.3v22h-0.8v0.6h-1.2v2.5h-0.5v1h-4.3v-24h-3.6V39.3h-2.3V26.2h-3.7V13
			h-0.5v13.2h-3.7v13.2h-2.3v20.3H58v25.8H21.9v66.3H-59v170.6h1647.6L1588.6,199.4L1588.6,199.4z"/>
	</g>
</g>
</svg>
