<svg id="Layer_1" data-name="Layer 1" xmlns="http://www.w3.org/2000/svg" xmlns:xlink="http://www.w3.org/1999/xlink" viewBox="0 0 1704.11 321.78"><defs><style>.cls-1{fill:none;}.cls-2{clip-path:url(#clip-path);}.cls-3{fill:#94ced9;}</style><clipPath id="clip-path" transform="translate(60.97 -209.62)"><rect class="cls-1" y="-188.25" width="1550.68" height="738.5"/></clipPath></defs><g class="cls-2"><path class="cls-3" d="M1643.06,404.17l0-50.39-113.69.13,0-20.71-7.28-4.13h-1.24l0-28.69-6.7-5.31-8.41.58-6.42-5.89v.2l-9.1.64-6.39-6.06-11.49,1.69,0,42.89-15.76,0,0-34-32.71,8.81,0,15.73-2-1.5-8.39,1.54,0-24.53-11.54,6.92,0,32.11-7.64.85v-7.3l-7.23-8-4.52,8.58v8.06l-5.26.58v8.17l-2.77.52,0-18.92-18.15-4.39-11.12,1.94,0,29.83-19.41,0,0-20.11-12-2.18-8.44,2.35,0-17.16h-3.46l0-19.48h-2.21l0-12.69h-3.57V272.19h-.5l0,12.7H1292v12.69h-2.21l0,19.48h-1.25l0-48.13-18.07-3.29-21,5.85.1,81h-2.85v-8.41h-4l0-27h-1.92V302.34h-10.14l0,14.78h-11.34l0,27h-4.67v8.41h-2.34V349.9h1.15l0-15.12-2.81,2.55a9.88,9.88,0,0,0-8.75-8.11l-3-.3V318l0-13.59-19.17-12.58L1156,303.58l0,17.06-7.41-3.68-11.25,6.16v11.1L1127,340.89l0,11.76h-6.86l0-17.2h0v-7l-8.52-4.84h-.48l0-28.05-1,.26V290l-7.83-6.22-.2,0,0-12.73h-.22v12.74l-5.91.41,0-11.32h-3.18l0-17.91h-2l0-11.67h-3.28V231.68h-.46v11.67h-3.28l0,11.67h-2l0,17.91h-3.19v5.34l-4.19.29-7.48-7.1-13.44,2,0,22.35h-6.86l0,27.85H1035l0-39.8-38.29,10.31,0,18.41-2.3-1.75-9.82,1.79,0-28.7L971,292l0,37.58-8.94,1v-8.53l-8.46-9.37-5.28,10v9.43l-6.16.68v9.57l-3.25.6,0-22.14-21.24-5.14-13,2.27,0,34.91-22.71,0,0-23.54-14-2.55-9.88,2.75,0-20.08H854l0-22.8h-2.6l0-14.85h-4.17l0-14.85h-.58l0,14.85h-4.18l0,14.85h-2.6l0,22.79h-1.46l-.06-56.32-21.14-3.86L792.6,256.2l.11,96.83h-3.33V341.18h-4.65l0-31.6h-2.24l0-17.29H770.57l0,17.29-13.27,0,0,31.59h-5.47l0,11.85h-2.74V348h1.34l0-17.69-3.29,3A11.57,11.57,0,0,0,737,323.76l-3.47-.35V310.58l0-15.91L711,280l-27.76,13.8,0,20-8.67-4.31-13.17,7.22,0,13-12.12,7.8v15.77h-8l0-22.13-10.54-6.22,0-40.52-4.4,1.19V282.7H623v-1h-.5v-2.62h-1.22v-.59h-1l0-22.79h-.26l0,22.79h-.78v.59h-1.22v2.62h-.5v1H613l0-24.84h-3.73l0-21h-2.38l0-13.66H603V209.62h-.54v13.66h-3.83v13.66h-2.38l0,21h-3.73l0,26.72-35,0-5.22-4.8v.24l-10.65.74-7.47-7.11-13.44,2v50.2H502.37V286.1l-38.29,10.25v18.41l-2.3-1.75L452,314.8V286.1l-13.5,8.07v37.58l-8.95,1V324.2l-8.45-9.39-5.29,10v9.44l-6.16.67,0,9.56-3.25.61V323l-21.23-5.16-13,2.26V355H349.37V331.44l-14-2.57-9.88,2.74V311.53h-4.06V288.74h-2.6V273.89h-4.17V259h-.58v14.85H309.9v14.85h-2.59v22.79h-1.46V255.21l-21.14-3.88-24.63,6.82V355h-3.32V343.13h-4.64v-31.6h-2.24V294.24H238v17.29H224.75v31.6h-5.47V355h-2.73v-5.12h1.34v-17.7l-3.29,3a11.58,11.58,0,0,0-10.23-9.51l-3.46-.35V296.54L178.48,281.8,150.7,295.58v20L142,311.22l-13.18,7.2v13l-12.13,7.8V355h-8V332.84l-10.53-6.23V286.1l-4.41,1.18v-2.82H90.42v-1h-.5v-2.62H88.7v-.59h-1V257.49h-.27v22.78H86.6v.59H85.38v2.62h-.5v1H80.46V259.62H76.73v-21H74.34V225H70.51V211.35H70V225H66.13v13.66H63.75v21H60v26.72H22.62V355H-61V531.4H1643.14V404.17Z" transform="translate(60.97 -209.62)"/></g></svg>