<svg xmlns="http://www.w3.org/2000/svg" viewBox="0 0 68.58 118.34"><defs><style>.cls-1{fill:#fff;}.cls-2{fill:#ffbfa1;}.cls-3{fill:#664032;}.cls-4{fill:#d69f8a;}.cls-5{fill:#351616;}.cls-6{fill:#ce7272;}.cls-7{fill:#631b18;}.cls-8{fill:#141414;}.cls-9{fill:#333030;}.cls-10{fill:#1c1918;}.cls-11{fill:#6d6d6d;}</style></defs><g id="Layer_2" data-name="Layer 2"><g id="objects"><path class="cls-1" d="M34.69,81.91S49,80,53.32,60L39.21,53.32s-8,14.74-20.1,17.85C19.11,71.17,29.84,83.64,34.69,81.91Z"/><path class="cls-2" d="M1.42,88.17s-2,5.94-1,4.86a8,8,0,0,0,1.29-1.69S.91,96.28,2.13,94l1.22-2.25s1.21,6.29,1.59.55l.2-1.14s3.05,3,.14-1.28C1.93,85,1.42,88.17,1.42,88.17Z"/><path class="cls-1" d="M1.17,71.53,0,89.76l4.64-1.07C5.25,83,6.5,75.17,6.5,75.17s12.55-.16,18.89.57l-.48-6.95C16.53,67.9,1.17,71.53,1.17,71.53Z"/><path class="cls-2" d="M19.48,115.18s-2.62,4.32-2.43,2.86a8.4,8.4,0,0,1,.48-2.08s-3.31,3.75-2.36,1.38l1-2.38s-5.61,3.09-1.44-.87l.75-.89s-4.08-2.46.89-.92c0,0,4.08-4,4.61-3.6C22.52,109.71,19.48,115.18,19.48,115.18Z"/><path class="cls-1" d="M40.25,76.51,20.63,114.16l-4.86-2.85c2.58-5.1,15.49-32.42,15.49-32.42Z"/><path class="cls-2" d="M33,64.19c4.28,2.43,3.21,5.55,3.21,5.55s-.37.24-1.33,3.11a1.59,1.59,0,0,1,2,.05c1.36,1.14-1.27,5.72-3.52,4.58a12.17,12.17,0,0,1-1.25,2.69c-1.09,1.2-4.67,2.46-7.37,2s-6.24-2.55-4.66-7.83C21,71.29,23.61,65,23.61,65S25.93,60.18,33,64.19Z"/><path class="cls-3" d="M36.49,72.61s1.33-3.12,1.69-3.59,1.67,0,1.67,0,1.26-5.88-4.27-7.82a4.46,4.46,0,0,1,3.55,2.22,8.22,8.22,0,0,0-7.81-5.47s-3.79-.19-4.86,1.67A4.91,4.91,0,0,1,30,57.39s-5.11.07-6.19,3.67c-.86,2.87,0,3.7,0,3.7s.8,1,3.59.39,6.06.4,6.84,1.43-.1,3.13-.1,3.13a1.61,1.61,0,0,0,.35,1.63l-1.08,3.23.85.22.55-1.47A1.47,1.47,0,0,1,36.49,72.61Z"/><path class="cls-4" d="M36.46,73.69c-.7-.66-1.81.44-2.26,1.83.69.1.57.91,0,1.35C35.48,77.54,37.19,74.39,36.46,73.69Z"/><path class="cls-1" d="M22.56,69.07a2.1,2.1,0,1,0,2.22-2A2.1,2.1,0,0,0,22.56,69.07Z"/><path class="cls-5" d="M24.11,69.16a.55.55,0,0,0,.52.58.53.53,0,0,0,.57-.52.55.55,0,0,0-.51-.58A.56.56,0,0,0,24.11,69.16Z"/><path class="cls-1" d="M28.17,71.18a2.1,2.1,0,1,0,2.22-2A2.1,2.1,0,0,0,28.17,71.18Z"/><path class="cls-5" d="M29.72,71.27a.55.55,0,1,0,.58-.52A.56.56,0,0,0,29.72,71.27Z"/><path class="cls-6" d="M30.38,78.65s-1.56,2.4-5.77.87-3.95-5.89-1.53-6,2.16,3,4.31,2.49S31.84,75.9,30.38,78.65Z"/><path class="cls-7" d="M27.39,76c-2.15.53-1.88-2.65-4.31-2.49s-2.68,4.52,1.53,6l.17,0a2.37,2.37,0,0,1,1.6-2,2.41,2.41,0,0,1,3,1.6c0,.11.05.21.07.32a3,3,0,0,0,.91-.8C31.84,75.9,29.53,75.43,27.39,76Z"/><polygon class="cls-8" points="32.16 22.66 25.62 18.57 26.76 15.85 34.02 19.94 32.16 22.66"/><path class="cls-9" d="M30.43,16.4a9.47,9.47,0,0,1-1.1-5c.27-2.66.36-5.42-1.13-5.84,0,0-3.29,3.06-3.75,9.55l-.6-.25-1.4,3.82,5,2.07,1.07-3.21.4.44Z"/><path class="cls-10" d="M25.48,11.67a12.86,12.86,0,0,1,3.08-6,1.22,1.22,0,0,0-.36-.18s-3.29,3.06-3.75,9.55l-.6-.25-1.4,3.82,1.26.52C24.18,17.78,24.59,15.34,25.48,11.67Z"/><polygon class="cls-8" points="57.63 14.73 56.06 7.18 58.82 6.11 60.88 14.19 57.63 14.73"/><path class="cls-9" d="M61,9.15a9.45,9.45,0,0,1,2.89-4.29C66,3.22,68,1.37,67.28,0c0,0-4.48-.26-9.5,3.9l-.23-.6L53.83,4.93l2,5,3-1.44,0,.59Z"/><path class="cls-10" d="M61,2.3A12.9,12.9,0,0,1,67.4.39,1.27,1.27,0,0,0,67.28,0s-4.48-.26-9.5,3.9l-.23-.6L53.83,4.93l.49,1.26C55.64,5.58,57.68,4.19,61,2.3Z"/><polygon class="cls-11" points="39.21 53.32 44.99 33.09 28.28 22.84 31.85 16.87 53.09 29.6 47.75 47.93 51.09 49.6 61.45 29.82 55.31 11.53 60.69 9.84 68.58 31.15 52.89 61.66 39.21 53.32"/></g></g></svg>