<?xml version="1.0" encoding="utf-8"?>
<!-- Generator: Adobe Illustrator 24.1.2, SVG Export Plug-In . SVG Version: 6.00 Build 0)  -->
<svg version="1.1" id="Layer_1" xmlns="http://www.w3.org/2000/svg" xmlns:xlink="http://www.w3.org/1999/xlink" x="0px" y="0px"
	 viewBox="0 0 1500 500" style="enable-background:new 0 0 1500 500;" xml:space="preserve">
<style type="text/css">
	.st0{clip-path:url(#SVGID_2_);}
	.st1{fill:none;}
	.st2{fill:#B1CBCD;}
	.st3{fill:#4F969D;}
</style>
<g>
	<defs>
		<rect id="SVGID_1_" x="1" y="-194.1" width="1504.5" height="716.5"/>
	</defs>
	<clipPath id="SVGID_2_">
		<use xlink:href="#SVGID_1_"  style="overflow:visible;"/>
	</clipPath>
	<g class="st0">
		<rect x="-35.1" y="-121.7" class="st1" width="922.5" height="592.4"/>
		<polygon class="st2" points="78.2,200.9 88.7,200.9 88.7,129.8 93.7,129.8 93.7,90.9 120.4,90.9 120.4,129.8 150.3,129.8 
			150.3,200.9 162.6,200.9 162.6,381.2 88.7,381.2 78.2,381.2 55,381.2 55,272.4 78.2,272.4 		"/>
		<polygon class="st2" points="1228,212.6 1238.4,212.6 1238.4,141.5 1243.4,141.5 1243.4,102.6 1270.1,102.6 1270.1,141.5 
			1300,141.5 1300,212.6 1312.3,212.6 1312.3,392.9 1238.4,392.9 1228,392.9 1204.7,392.9 1204.7,284.1 1228,284.1 		"/>
		<path class="st3" d="M1482.5,296.2V176.1l-18.3-3.7l-29.9,8.5v36.3l-14.8-3.2l0,0l0,0h-0.1v0.1l-1.9,2.1v0.3l-15.3-3.5v45.9l0,0
			v-45.9l-15.8,9.7v40.2l-7.2,6l0.1,27.4h-5.4V189.3h-10.7v-61.6h-25.9V94.1h-23.1v33.7h-4.4v61.6h-9v61.9h-20.1v44.9h-41.2v-97.2
			h-4.1v-22.8h-2.6v-14.8h-4.2v-14.9h-0.6v14.9h-4.2v14.8h-2.6v22.8h-4.1v82l-7-2.3V127.8h-7.9V83.4h-5V54.4h-8.1V25.5h-1.1v28.9
			h-8.1v28.9h-5.1v44.4h-7.9v39.1l-19.2-5.3l-27.3,5v68.4h-24.2v-33.6h-20.1v-56.9l-25.4-4.4l-41.4,10.1v43.2l-20.6-3.9l0,0l0,0
			h-0.2v0.2L986,192v0.3l-21.2-4.2v54.5l0,0v-54.6L943,199.6v47.9l-5.4,3.8v-38.4h-22.1v-28.8h-19.7v28.8h-3.7v35l-1.4-0.9h-12.1
			v49.1h-9.5v-39.4l-9.8-11.8h-28.6v-1.2H830v-3.4h-1.6v-0.8h-1v-29.4h-0.3v29.4h-1.4v0.8h-1.6v1.3h-1.5v-12.7h-0.5v12.7h-3.6v12.7
			h-2.2v19.5h-3.5v22.4h-6v-83.3h-6.8V175h-4.3v-24.7h-6.9v-24.7h-1v24.7H781V175h-4.3v37.9h-6.8v33.4l-16.5-4.6l-23.3,4.3v50.1
			h-2.8v-62.4h-4.1V211h-2.6v-14.8h-4.2v-14.8h-0.6v14.8h-4.2V140H679v6.7h-7.3v48h-3.6v-12.7h-0.5v12.7h-3.6v12.7h-2.2v18.2
			l-26.6,6.5v36.9l-17.6-3.3l0,0l0,0h-0.1v0.1l-2.3,2.1v0.3l-18.1-3.6v31.6l0,0v-31.7l-17.3,9.1v-37.3h-3.7v-1.1h-0.6v-2.9h-1.3
			v-0.7h-1.2v-25.1h-0.3v25.1H572v0.7h-1.3v2.9h-0.6v1.1h-24.5l-8.4,10.1v49.7h-8.1v-58.1h-10.3l-14.4,8.9l0,0v22.1l-9.3,0.7
			l9.3,10.3v16.1h-22l0.1-51.7l-8.5-6.1v-40.9l-18.6-9.8v46.6l0,0v-46.6l-18.1,3.6V191l-2.3-2.1v-0.2H435l0,0l0,0l-17.6,3.3v-36.9
			l-35.4-8.5l-21.7,3.8v73H353v72.8h-30.5V169.3l-23.3-4.3l-16.5,4.6v-33.4h-6.8v-38h-4.2V73.5h-7V48.7h-1v24.7h-6.9v24.7h-4.3v38
			h-6.8v128.9l-6,1.9v-70h-3.5v-19.5H234v-12.7h-3.6v-12.7H230v12.7h-3.6v12.7h-2.2V197h-3.5v95.5l-1.1,3.7h-34.1v-54.5h-17.2v-52.9
			h-7.8v-52.6h-3.7v-28.8h-19.7v28.8H115v52.6h-9.1v107.4h-7.5v-80.9h2.9V200h2.2v-29.5l-5.5,5c-1.5-8.5-8.4-15-17-15.8L64.6,158
			c-1.3-0.3-2.7-0.4-4-0.4c-11,0-20,8.9-20,20v118.6h-84V502h1888V296.2H1482.5z M1417.4,296.1L1417.4,296.1L1417.4,296.1
			L1417.4,296.1z M437.4,296.2L437.4,296.2l-0.1-23.9L437.4,296.2z"/>
	</g>
</g>
</svg>
