<svg id="Layer_1" data-name="Layer 1" xmlns="http://www.w3.org/2000/svg" xmlns:xlink="http://www.w3.org/1999/xlink" viewBox="0 0 1945.96 642.85"><defs><style>.cls-1{fill:none;}.cls-2{clip-path:url(#clip-path);}.cls-3{fill:#b1cbcd;}.cls-4{fill:#4f969d;}</style><clipPath id="clip-path" transform="translate(45.79 113.55)"><rect class="cls-1" y="-188.25" width="1550.68" height="738.5"/></clipPath></defs><g class="cls-2"><rect class="cls-1" x="8.56" width="950.82" height="610.55"/><polygon class="cls-3" points="125.4 332.5 136.17 332.5 136.17 259.18 141.37 259.18 141.37 219.06 168.88 219.06 168.88 259.18 199.68 259.18 199.68 332.5 212.36 332.5 212.36 518.32 136.17 518.32 125.4 518.32 101.48 518.32 101.48 406.2 125.4 406.2 125.4 332.5"/><polygon class="cls-3" points="1310.42 344.56 1321.19 344.56 1321.19 271.24 1326.38 271.24 1326.38 231.12 1353.9 231.12 1353.9 271.24 1384.7 271.24 1384.7 344.56 1397.38 344.56 1397.38 530.37 1321.19 530.37 1310.42 530.37 1286.49 530.37 1286.49 418.25 1310.42 418.25 1310.42 344.56"/><path class="cls-4" d="M1527,317.1V193.35l-18.9-3.81-30.81,8.72v37.39L1462,232.32v0l0,0-.12,0v.15l-2,2.16v.29l-15.76-3.65v47.28h0V231.24l-16.26,10v41.47l-7.38,6.14.06,28.27H1415V207h-11V143.52h-26.65V108.8h-23.81v34.72h-4.49V207h-9.32v63.77H1319V317.1h-42.5V216.87h-4.19V193.38h-2.67v-15.3h-4.3V162.77h-.6v15.31h-4.3v15.3h-2.68v23.49h-4.18v84.47l-7.24-2.32V143.52h-8.14V97.75H1233V67.92h-8.38V38.1h-1.17V67.92h-8.38V97.75h-5.21v45.77h-8.15v40.31l-19.84-5.49-28.12,5.16V254h-24.9V219.32h-20.71V160.66L1082,156.12l-42.63,10.38V211l-21.22-4v0l0,0-.17,0v.18l-2.73,2.57v.33l-21.81-4.33v56.22h0V205.72l-22.49,11.86V266.9l-5.52,3.94V231.29H942.61V201.62H922.26v29.67h-3.84v36.09l-1.49-.92H904.48V317.1h-9.76V276.48l-10.15-12.2H855.1V263h-.67v-3.49h-1.62v-.78h-1V228.39h-.35v30.32H850v.78H848.4v1.34h-1.5V247.75h-.51v13.08h-3.68v13.08h-2.28V294h-3.58V317.1h-6.18V231.29h-7V192.18h-4.45V166.69h-7.16V141.2h-1v25.49h-7.16v25.49h-4.45v39.11h-7v34.46l-17-4.7-24,4.41V317.1H748.6V252.75h-4.18V229.27h-2.68V214h-4.3v-15.3h-.6V214h-4.3V156.12H698.86V163h-7.53v49.43h-3.67V199.3h-.52v13.08h-3.67v13.08h-2.29v18.8l-27.42,6.67v38l-18.14-3.38v0l0,0-.13,0v.15l-2.34,2.2v.28l-18.64-3.7V317.1h0V284.45l-17.79,9.38V255.38h-3.81v-1.11h-.57v-3h-1.38v-.67h-1.19V224.71h-.31v25.91h-.88v.67h-1.39v3h-.57v1.11H561.41l-8.68,10.43V317.1h-8.34V257.24H533.75l-14.89,9.18h0v22.76l-9.6.71,9.6,10.66V317.1H496.23l.12-53.24-8.73-6.24V215.48L468.4,205.34v48h0v-48L449.76,209v-.29l-2.34-2.19v-.16l-.14,0,0,0v0l-18.14,3.39v-38L392.69,163l-22.35,3.88v75.24h-7.58v75h-31.4V186.35l-24-4.41-17,4.69V152.18h-7V113.06H279V87.57h-7.17V62.08h-1V87.57h-7.16v25.49h-4.46v39.12h-7V285.07l-6.18,2v-72.2h-3.58V194.79h-2.28V181.71h-3.68V168.63H236v13.08H232.3v13.08H230v20.07h-3.58v98.39l-1.18,3.85H190.12V260.91h-17.7V206.4h-8V152.18h-3.84V122.51H140.27v29.67H117.49V206.4h-9.38V317.1h-7.74V233.7h3V218h2.3V187.59l-5.65,5.12a19.86,19.86,0,0,0-17.55-16.32l-16.94-1.7a20.29,20.29,0,0,0-4.15-.42,20.59,20.59,0,0,0-20.59,20.59V317.1H-45.79V529.3h1946V317.1Zm-67.16-.08v.08h0Zm-1010,.08h-.08V292.51Z" transform="translate(45.79 113.55)"/></g></svg>