<svg xmlns="http://www.w3.org/2000/svg" xmlns:xlink="http://www.w3.org/1999/xlink" viewBox="0 0 1549.23 391.86"><defs><style>.cls-1{fill:none;}.cls-2{isolation:isolate;}.cls-3{clip-path:url(#clip-path);}.cls-4{fill:#aecbd5;opacity:0.13;mix-blend-mode:multiply;}</style><clipPath id="clip-path" transform="translate(-1.94 -21.19)"><rect class="cls-1" y="-188.25" width="1550.68" height="738.5"/></clipPath></defs><g class="cls-2"><g id="Layer_1" data-name="Layer 1"><g class="cls-3"><path class="cls-4" d="M1550.63,156.49A123.87,123.87,0,0,0,1341.06,56.14a77.24,77.24,0,0,0-128.23,58.63,48.45,48.45,0,0,0-22.65-2.93,66.84,66.84,0,0,0,1.55-9.16A65.49,65.49,0,0,0,1066.17,71a65.5,65.5,0,0,0-97.48,38.74,38.33,38.33,0,0,0-45.05-3.64,38.31,38.31,0,0,0-73.44,18.55,39.19,39.19,0,0,0,.91,5.36,28.21,28.21,0,0,0-13.25,1.71,45.23,45.23,0,0,0-49.54-45.35A45,45,0,0,0,762.86,97.4a72.47,72.47,0,0,0-96.68-3.78,78.2,78.2,0,0,0-119.07,41.24,78.3,78.3,0,0,0-65.9-1.21A57.76,57.76,0,0,0,367,125.87a92.35,92.35,0,0,0-84.22-8.67A147.93,147.93,0,0,0,1.94,182.08c0,1.47,0,2.93.07,4.39V413.05H1551.17V156.49Z" transform="translate(-1.94 -21.19)"/></g></g></g></svg>