<svg width="731" height="671" viewBox="0 0 731 671" fill="none" xmlns="http://www.w3.org/2000/svg">
<g filter="url(#filter0_d_1042_57)">
<path d="M166.227 619.36L159.369 613.911C161.292 611.772 163.497 610.269 165.983 609.4C168.454 608.52 171.057 608.368 173.792 608.944C176.512 609.509 179.24 610.878 181.978 613.053C184.118 614.754 185.746 616.646 186.86 618.729C187.962 620.827 188.564 623.051 188.667 625.403C188.754 627.742 188.327 630.147 187.387 632.618C186.446 635.089 185.004 637.548 183.06 639.994L181.219 642.311C179.275 644.758 177.199 646.712 174.989 648.175C172.752 649.64 170.476 650.589 168.163 651.02C165.834 651.44 163.523 651.35 161.23 650.751C158.937 650.151 156.743 649.019 154.648 647.355C151.865 645.143 149.919 642.774 148.809 640.246C147.684 637.705 147.299 635.129 147.653 632.517C147.992 629.893 148.954 627.364 150.538 624.931L157.42 630.398C156.427 631.805 155.789 633.156 155.507 634.454C155.212 635.766 155.343 637.03 155.899 638.245C156.428 639.464 157.457 640.68 158.986 641.896C160.133 642.807 161.305 643.389 162.501 643.641C163.698 643.893 164.933 643.814 166.207 643.404C167.48 642.994 168.791 642.24 170.138 641.14C171.459 640.044 172.823 638.608 174.233 636.835L176.11 634.472C177.483 632.744 178.562 631.119 179.347 629.598C180.12 628.091 180.597 626.674 180.779 625.347C180.933 624.022 180.764 622.791 180.272 621.652C179.753 620.515 178.881 619.461 177.658 618.489C176.221 617.347 174.853 616.635 173.556 616.353C172.259 616.07 171.007 616.186 169.801 616.699C168.579 617.2 167.388 618.087 166.227 619.36Z" fill="white"/>
</g>
<g filter="url(#filter1_d_1042_57)">
<path d="M124.755 583.926L124.27 584.305C122.438 585.736 120.549 586.79 118.6 587.469C116.637 588.16 114.695 588.45 112.775 588.339C110.854 588.228 109.007 587.687 107.234 586.718C105.446 585.76 103.812 584.335 102.333 582.442C100.855 580.548 99.8616 578.61 99.3541 576.627C98.8312 574.657 98.7486 572.726 99.1063 570.836C99.452 568.931 100.198 567.109 101.344 565.372C102.475 563.646 103.956 562.068 105.788 560.638L106.272 560.259C108.089 558.84 109.979 557.786 111.942 557.095C113.89 556.416 115.838 556.134 117.786 556.248C119.707 556.359 121.554 556.9 123.327 557.869C125.1 558.839 126.726 560.27 128.204 562.164C129.683 564.057 130.684 565.989 131.207 567.96C131.718 569.915 131.8 571.845 131.454 573.751C131.081 575.653 130.329 577.467 129.199 579.192C128.053 580.93 126.572 582.508 124.755 583.926ZM119.077 577.655L119.562 577.276C120.609 576.459 121.514 575.603 122.278 574.709C123.042 573.815 123.614 572.898 123.994 571.957C124.347 571.012 124.457 570.058 124.325 569.096C124.193 568.134 123.754 567.175 123.009 566.221C122.288 565.297 121.476 564.655 120.575 564.293C119.673 563.932 118.727 563.816 117.737 563.944C116.732 564.085 115.703 564.418 114.651 564.942C113.586 565.451 112.53 566.115 111.484 566.932L110.999 567.311C109.983 568.104 109.107 568.949 108.37 569.847C107.606 570.741 107.04 571.666 106.672 572.623C106.276 573.576 106.137 574.54 106.254 575.514C106.37 576.489 106.795 577.445 107.529 578.384C108.262 579.323 109.087 579.968 110.004 580.317C110.909 580.651 111.878 580.749 112.911 580.612C113.916 580.471 114.945 580.138 115.998 579.614C117.035 579.101 118.061 578.448 119.077 577.655Z" fill="white"/>
</g>
<g filter="url(#filter2_d_1042_57)">
<path d="M70.1385 521.359L92.67 510.686L96.2821 518.311L67.6344 531.882L64.2481 524.733L70.1385 521.359ZM77.8668 519.06L78.8451 521.125C76.727 522.128 74.6911 522.758 72.7374 523.013C70.766 523.277 68.9461 523.199 67.2776 522.779C65.5914 522.368 64.1087 521.633 62.8295 520.575C61.5242 519.507 60.4703 518.126 59.6676 516.432C59.0321 515.09 58.6452 513.772 58.5067 512.476C58.3683 511.18 58.5346 509.934 59.0056 508.738C59.4682 507.525 60.2964 506.376 61.4902 505.292C62.6756 504.19 64.2744 503.163 66.2866 502.21L84.5554 493.556L88.1926 501.234L69.8973 509.9C68.6264 510.502 67.7215 511.147 67.1827 511.835C66.6439 512.522 66.3963 513.277 66.44 514.099C66.4577 514.912 66.7006 515.813 67.1688 516.801C67.6538 517.825 68.279 518.62 69.0445 519.187C69.8017 519.736 70.6592 520.086 71.617 520.238C72.5488 520.38 73.5498 520.349 74.62 520.144C75.6902 519.94 76.7725 519.578 77.8668 519.06Z" fill="white"/>
</g>
<g filter="url(#filter3_d_1042_57)">
<path d="M59.8258 405.57C60.0898 408.016 59.9383 410.253 59.3711 412.278C58.7846 414.306 57.8656 416.075 56.6141 417.585C55.3606 419.076 53.8502 420.28 52.083 421.198C50.2964 422.117 48.3545 422.69 46.2573 422.917L45.0922 423.042C42.7037 423.3 40.4825 423.196 38.4284 422.73C36.3744 422.264 34.5511 421.479 32.9584 420.374C31.3637 419.25 30.0795 417.817 29.1058 416.075C28.1126 414.336 27.4924 412.32 27.2451 410.029C27.0041 407.796 27.1592 405.775 27.7106 403.967C28.262 402.16 29.1545 400.6 30.388 399.288C31.6195 397.957 33.1542 396.887 34.9922 396.08C36.8109 395.275 38.8756 394.747 41.1864 394.498L44.6817 394.121L47.3853 419.171L41.7927 419.774L39.9788 402.967L39.338 403.037C38.1729 403.162 37.1571 403.488 36.2905 404.014C35.4024 404.522 34.7316 405.223 34.278 406.117C33.8244 407.011 33.6678 408.108 33.8082 409.409C33.9277 410.516 34.2731 411.441 34.8445 412.185C35.4159 412.929 36.1658 413.506 37.0941 413.916C38.0203 414.308 39.0893 414.565 40.3011 414.69C41.4913 414.797 42.7855 414.775 44.1837 414.625L45.3488 414.499C46.611 414.363 47.7572 414.062 48.7875 413.597C49.8157 413.113 50.6825 412.499 51.388 411.755C52.0914 410.991 52.6054 410.111 52.9299 409.113C53.2523 408.096 53.3475 406.976 53.2155 405.753C53.052 404.238 52.6088 402.862 51.8858 401.623C51.1413 400.368 50.1157 399.329 48.8091 398.508L52.7964 393.952C53.8192 394.51 54.8293 395.314 55.8268 396.366C56.8222 397.397 57.6873 398.679 58.4223 400.211C59.1379 401.744 59.6057 403.531 59.8258 405.57Z" fill="white"/>
</g>
<g filter="url(#filter4_d_1042_57)">
<path d="M32.1411 343.627L56.9243 346.344L56.005 354.731L24.4945 351.277L25.3563 343.414L32.1411 343.627ZM39.9283 345.719L39.6793 347.99C37.3495 347.735 35.2857 347.204 33.4878 346.398C31.6705 345.59 30.1614 344.57 28.9603 343.338C27.7399 342.104 26.8621 340.701 26.327 339.129C25.7746 337.536 25.6006 335.808 25.8049 333.944C25.9666 332.468 26.3281 331.142 26.8893 329.966C27.4505 328.79 28.2449 327.816 29.2726 327.044C30.3024 326.253 31.6097 325.709 33.1946 325.411C34.7816 325.094 36.6817 325.056 38.895 325.299L58.9895 327.502L58.0638 335.947L37.9402 333.741C36.5423 333.588 35.4338 333.663 34.6147 333.966C33.7955 334.269 33.1891 334.783 32.7955 335.506C32.3846 336.207 32.1195 337.102 32.0003 338.189C31.8769 339.315 31.9927 340.32 32.3478 341.204C32.7049 342.068 33.2517 342.816 33.9882 343.447C34.7073 344.056 35.5762 344.554 36.5948 344.941C37.6134 345.327 38.7246 345.587 39.9283 345.719Z" fill="white"/>
</g>
<g filter="url(#filter5_d_1042_57)">
<path d="M69.4062 277.639L66.9094 285.76L33.9215 275.618C31.6253 274.912 29.8308 273.87 28.5381 272.492C27.2325 271.089 26.4309 269.443 26.1332 267.553C25.8226 265.639 26.0175 263.543 26.7177 261.266C26.9473 260.519 27.2243 259.818 27.5487 259.161C27.8544 258.499 28.1824 257.864 28.5326 257.257L34.5835 259.209C34.3811 259.535 34.2009 259.889 34.0431 260.269C33.8852 260.65 33.7259 261.101 33.5652 261.624C33.2667 262.595 33.1793 263.477 33.303 264.271C33.4137 265.041 33.7319 265.701 34.2576 266.251C34.7833 266.8 35.5035 267.216 36.4183 267.497L69.4062 277.639ZM40.9663 262.275L46.679 264.031L40.9364 282.71L35.2237 280.953L40.9663 262.275Z" fill="white"/>
</g>
<g filter="url(#filter6_d_1042_57)">
<path d="M67.5098 235.085L66.9662 234.797C64.9126 233.709 63.1785 232.414 61.7637 230.912C60.3318 229.402 59.2745 227.747 58.5921 225.949C57.9096 224.15 57.649 222.244 57.8104 220.229C57.9546 218.206 58.5892 216.132 59.7142 214.01C60.8393 211.887 62.2033 210.19 63.8061 208.917C65.3918 207.635 67.1204 206.772 68.9919 206.327C70.8726 205.865 72.84 205.803 74.8939 206.14C76.9306 206.468 78.9758 207.176 81.0294 208.264L81.573 208.553C83.6093 209.632 85.3434 210.927 86.7754 212.437C88.1901 213.939 89.2428 215.602 89.9334 217.427C90.6159 219.226 90.8764 221.132 90.715 223.146C90.5536 225.161 89.9104 227.229 88.7853 229.352C87.6603 231.475 86.3049 233.177 84.7193 234.459C83.1428 235.723 81.4142 236.586 79.5335 237.048C77.6447 237.484 75.6819 237.538 73.6452 237.21C71.5913 236.873 69.5461 236.165 67.5098 235.085ZM70.9176 227.342L71.4612 227.63C72.6347 228.252 73.7854 228.73 74.9133 229.062C76.0412 229.395 77.1124 229.542 78.1268 229.505C79.1331 229.442 80.0486 229.153 80.8733 228.64C81.698 228.127 82.394 227.335 82.9611 226.265C83.5099 225.23 83.7652 224.227 83.7271 223.256C83.689 222.285 83.4092 221.374 82.8877 220.523C82.3489 219.663 81.6253 218.859 80.7169 218.112C79.8177 217.348 78.7813 216.655 77.6078 216.034L77.0642 215.745C75.9253 215.142 74.7959 214.687 73.6761 214.381C72.5481 214.048 71.4724 213.909 70.4489 213.963C69.4172 213.991 68.4804 214.257 67.6384 214.762C66.7964 215.266 66.0964 216.044 65.5385 217.097C64.9805 218.15 64.7293 219.166 64.7846 220.146C64.8491 221.108 65.1548 222.033 65.7017 222.92C66.2405 223.78 66.964 224.583 67.8724 225.33C68.7636 226.068 69.7786 226.738 70.9176 227.342Z" fill="white"/>
</g>
<g filter="url(#filter7_d_1042_57)">
<path d="M137.338 175.883L108.917 151.553L104.704 146.519L109.524 140.889L142.863 169.429L137.338 175.883ZM103.252 173.082L102.785 172.682C100.945 171.107 99.447 169.478 98.2914 167.795C97.1337 166.084 96.3636 164.37 95.9812 162.655C95.584 160.926 95.5914 159.236 96.0035 157.583C96.4134 155.903 97.2725 154.299 98.5808 152.77C99.8383 151.301 101.221 150.287 102.729 149.727C104.237 149.167 105.844 148.986 107.549 149.187C109.267 149.372 111.051 149.871 112.901 150.683C114.751 151.496 116.653 152.532 118.607 153.794L119.631 154.67C121.117 156.328 122.383 158.003 123.428 159.695C124.486 161.372 125.24 163.045 125.688 164.714C126.148 166.369 126.219 167.998 125.9 169.601C125.579 171.178 124.784 172.708 123.514 174.192C122.231 175.69 120.783 176.765 119.172 177.416C117.558 178.04 115.859 178.283 114.075 178.144C112.291 178.005 110.48 177.509 108.64 176.654C106.799 175.772 105.003 174.581 103.252 173.082ZM108.272 166.273L108.739 166.673C109.733 167.524 110.738 168.242 111.753 168.829C112.753 169.402 113.739 169.797 114.712 170.012C115.697 170.213 116.63 170.189 117.511 169.94C118.378 169.679 119.173 169.126 119.897 168.28C120.9 167.108 121.455 165.95 121.56 164.806C121.663 163.634 121.415 162.497 120.817 161.393C120.232 160.275 119.393 159.198 118.302 158.16L115.386 155.664C114.413 154.909 113.467 154.317 112.547 153.89C111.626 153.435 110.726 153.179 109.849 153.122C108.985 153.051 108.145 153.206 107.329 153.588C106.512 153.942 105.729 154.557 104.979 155.432C104.268 156.263 103.844 157.134 103.707 158.045C103.569 158.956 103.676 159.883 104.026 160.826C104.374 161.741 104.909 162.662 105.632 163.589C106.368 164.502 107.248 165.396 108.272 166.273Z" fill="white"/>
</g>
<g filter="url(#filter8_d_1042_57)">
<path d="M172.503 114.764L158.062 95.4562L164.819 90.4027L183.804 115.787L177.446 120.543L172.503 114.764ZM169.358 108.995L171.317 107.456C172.581 109.145 173.561 110.864 174.258 112.611C174.943 114.342 175.292 116.032 175.306 117.68C175.307 119.313 174.936 120.871 174.192 122.355C173.436 123.822 172.253 125.159 170.642 126.364C169.406 127.288 168.136 127.97 166.83 128.409C165.529 128.822 164.222 128.933 162.91 128.744C161.602 128.527 160.292 127.983 158.981 127.11C157.673 126.21 156.388 124.915 155.124 123.226L142.859 106.827L149.616 101.773L161.916 118.219C162.478 118.97 163.038 119.539 163.596 119.926C164.169 120.302 164.743 120.531 165.317 120.614C165.892 120.697 166.45 120.645 166.993 120.458C167.552 120.26 168.105 119.956 168.653 119.546C170.045 118.505 170.929 117.405 171.306 116.245C171.698 115.074 171.696 113.881 171.299 112.665C170.906 111.423 170.259 110.199 169.358 108.995Z" fill="white"/>
</g>
<g filter="url(#filter9_d_1042_57)">
<path d="M231.507 87.895C229.265 88.9108 227.094 89.466 224.992 89.5606C222.883 89.6374 220.915 89.3175 219.089 88.601C217.281 87.8764 215.665 86.8182 214.241 85.4265C212.809 84.0169 211.658 82.3515 210.787 80.4302L210.303 79.3628C209.312 77.1747 208.716 75.0322 208.516 72.9355C208.317 70.8388 208.493 68.8613 209.045 67.0031C209.614 65.1367 210.574 63.4689 211.923 61.9995C213.265 60.5123 214.986 59.2931 217.085 58.3418C219.131 57.4147 221.098 56.9304 222.988 56.8889C224.878 56.8474 226.638 57.2074 228.27 57.969C229.92 58.7225 231.415 59.846 232.757 61.3395C234.09 62.8152 235.236 64.6116 236.196 66.7285L237.647 69.9307L214.698 80.3304L212.376 75.207L227.773 68.2295L227.507 67.6424C227.024 66.575 226.397 65.7119 225.626 65.0532C224.866 64.3686 223.99 63.9505 222.999 63.7991C222.009 63.6476 220.917 63.842 219.726 64.3821C218.712 64.8416 217.941 65.459 217.413 66.2343C216.885 67.0096 216.571 67.9023 216.471 68.9124C216.389 69.9145 216.479 71.0106 216.739 72.2005C217.009 73.3647 217.435 74.5872 218.015 75.868L218.499 76.9354C219.023 78.0918 219.667 79.0866 220.43 79.9199C221.212 80.7452 222.066 81.3766 222.993 81.8141C223.939 82.2435 224.936 82.4564 225.985 82.4527C227.052 82.441 228.145 82.1812 229.266 81.6733C230.654 81.0445 231.823 80.1932 232.773 79.1193C233.732 78.0196 234.398 76.7208 234.77 75.2228L240.344 77.5859C240.134 78.7317 239.686 79.9427 238.999 81.2189C238.33 82.487 237.383 83.7096 236.158 84.8865C234.925 86.0457 233.375 87.0486 231.507 87.895Z" fill="white"/>
</g>
<g filter="url(#filter10_d_1042_57)">
<path d="M332.419 51.6405L328.972 13.7108L337.433 12.942L341.505 57.7574L333.89 58.4493L332.419 51.6405ZM311.688 44.9342L311.632 44.3215C311.413 41.9095 311.486 39.6965 311.852 37.6825C312.217 35.649 312.86 33.8745 313.781 32.3592C314.702 30.8438 315.896 29.6273 317.362 28.7096C318.828 27.792 320.543 27.2439 322.508 27.0654C324.356 26.8975 326.005 27.1398 327.457 27.7924C328.928 28.4432 330.215 29.4441 331.319 30.7951C332.44 32.1249 333.39 33.7349 334.17 35.6253C334.948 37.4961 335.577 39.5668 336.058 41.8373L336.18 43.1794C336.108 45.4021 335.855 47.4843 335.424 49.4258C334.992 51.3674 334.345 53.0932 333.482 54.6033C332.637 56.0921 331.549 57.2892 330.219 58.1945C328.89 59.0998 327.291 59.6372 325.424 59.8069C323.459 59.9854 321.672 59.7457 320.063 59.0879C318.474 58.4282 317.088 57.4264 315.907 56.0825C314.745 54.7368 313.804 53.1161 313.083 51.2205C312.361 49.3248 311.896 47.2294 311.688 44.9342ZM320.035 43.558L320.091 44.1707C320.209 45.4739 320.417 46.6808 320.714 47.7913C321.03 48.9 321.462 49.8708 322.008 50.7037C322.572 51.5153 323.255 52.1298 324.058 52.5472C324.879 52.9433 325.843 53.091 326.952 52.9903C328.391 52.8595 329.549 52.4307 330.424 51.704C331.298 50.9578 331.925 49.9889 332.307 48.7971C332.709 47.6035 332.88 46.2543 332.822 44.7495L332.475 40.9274C332.305 39.7072 332.03 38.6242 331.65 37.6781C331.288 36.7108 330.802 35.9018 330.194 35.2511C329.605 34.5986 328.894 34.114 328.062 33.7975C327.248 33.4791 326.307 33.3686 325.237 33.4658C324.147 33.5647 323.237 33.9024 322.505 34.4789C321.771 35.0358 321.2 35.7643 320.791 36.6644C320.402 37.5626 320.144 38.6059 320.016 39.7942C319.907 40.9612 319.913 42.2158 320.035 43.558Z" fill="white"/>
</g>
<g filter="url(#filter11_d_1042_57)">
<path d="M392.923 26.3134L390.304 57.9042L381.866 57.2046L384.485 25.6138L392.923 26.3134ZM384.643 17.3367C384.744 16.1105 385.256 15.1338 386.179 14.4068C387.102 13.6798 388.283 13.376 389.724 13.4954C391.144 13.6132 392.25 14.1067 393.04 14.9757C393.85 15.8464 394.204 16.8949 394.102 18.1211C394.001 19.3474 393.479 20.3232 392.537 21.0487C391.614 21.7757 390.442 22.0803 389.021 21.9625C387.581 21.843 386.466 21.3488 385.675 20.4797C384.885 19.6106 384.541 18.563 384.643 17.3367Z" fill="white"/>
</g>
<g filter="url(#filter12_d_1042_57)">
<path d="M439.68 56.9738C439.829 56.3868 439.793 55.8135 439.572 55.2539C439.351 54.6942 438.827 54.098 438 53.4653C437.197 52.8185 435.977 52.1064 434.341 51.3289C432.875 50.5947 431.534 49.8017 430.32 48.9498C429.129 48.0839 428.135 47.1569 427.337 46.169C426.559 45.186 426.022 44.1231 425.727 42.9806C425.437 41.8191 425.458 40.5851 425.789 39.2788C426.115 37.9913 426.697 36.8492 427.534 35.8524C428.39 34.8604 429.449 34.0609 430.711 33.4538C431.996 32.8327 433.459 32.4679 435.098 32.3595C436.761 32.237 438.549 32.418 440.461 32.9026C443.131 33.5791 445.314 34.5857 447.01 35.9222C448.725 37.2636 449.904 38.8117 450.548 40.5665C451.215 42.3071 451.308 44.1241 450.829 46.0174L442.65 43.9446C442.851 43.1494 442.861 42.3963 442.678 41.6851C442.52 40.9598 442.136 40.3286 441.526 39.7913C440.941 39.2399 440.099 38.8251 439.001 38.5468C438.092 38.3165 437.265 38.2783 436.521 38.4322C435.782 38.5672 435.165 38.8542 434.671 39.2932C434.201 39.718 433.886 40.2428 433.728 40.8676C433.608 41.3409 433.595 41.7909 433.688 42.2175C433.805 42.63 434.052 43.0453 434.43 43.4634C434.808 43.8814 435.323 44.3142 435.975 44.7616C436.651 45.1948 437.502 45.6523 438.529 46.134C440.629 47.1498 442.456 48.2476 444.011 49.4274C445.57 50.5882 446.703 51.923 447.408 53.4317C448.119 54.9214 448.22 56.6697 447.711 58.6765C447.366 60.0397 446.746 61.2125 445.852 62.1949C444.959 63.1773 443.836 63.9506 442.484 64.5147C441.137 65.0599 439.608 65.3676 437.898 65.4379C436.211 65.494 434.384 65.2726 432.415 64.7736C429.556 64.0491 427.262 62.9237 425.533 61.3976C423.823 59.8762 422.656 58.2003 422.032 56.3698C421.432 54.5251 421.342 52.7698 421.765 51.1037L429.518 53.0685C429.272 54.1951 429.328 55.1664 429.686 55.9823C430.062 56.803 430.629 57.4704 431.385 57.9844C432.16 58.5033 433.04 58.8874 434.024 59.1369C435.085 59.4056 436.001 59.4868 436.773 59.3803C437.551 59.2549 438.182 58.9916 438.666 58.5906C439.174 58.1753 439.512 57.6364 439.68 56.9738Z" fill="white"/>
</g>
<g filter="url(#filter13_d_1042_57)">
<path d="M499.023 60.1096L488.704 82.6444L481.033 79.1315L494.231 50.3104L501.449 53.616L499.023 60.1096ZM510.671 57.6133L507.281 64.6644C506.933 64.4403 506.5 64.1886 505.984 63.9091C505.493 63.62 505.035 63.3779 504.608 63.1827C503.525 62.6867 502.519 62.3978 501.59 62.316C500.687 62.2245 499.846 62.3232 499.07 62.612C498.311 62.9089 497.623 63.3782 497.007 64.0198C496.409 64.6695 495.869 65.4746 495.386 66.435L494.06 65.2481C494.914 63.3835 495.885 61.7553 496.974 60.3633C498.071 58.9536 499.242 57.8254 500.489 56.9787C501.754 56.1401 503.057 55.641 504.397 55.4815C505.738 55.322 507.083 55.5512 508.432 56.1693C508.859 56.3644 509.277 56.5992 509.689 56.8735C510.108 57.1301 510.436 57.3767 510.671 57.6133Z" fill="white"/>
</g>
<g filter="url(#filter14_d_1042_57)">
<path d="M545.015 105.414L558.996 85.7702L565.87 90.6626L547.49 116.489L541.021 111.885L545.015 105.414ZM549.55 100.659L551.613 102.055C550.39 103.774 549.053 105.232 547.602 106.428C546.162 107.609 544.66 108.457 543.094 108.973C541.539 109.473 539.942 109.595 538.303 109.339C536.674 109.067 535.04 108.348 533.401 107.182C532.144 106.287 531.107 105.285 530.29 104.176C529.501 103.063 528.996 101.852 528.775 100.545C528.582 99.233 528.701 97.8194 529.132 96.3043C529.591 94.7845 530.431 93.1654 531.655 91.4468L543.529 74.7623L550.403 79.6547L538.495 96.3869C537.951 97.1507 537.58 97.8575 537.381 98.5072C537.199 99.1682 537.155 99.7847 537.252 100.357C537.348 100.929 537.568 101.445 537.912 101.905C538.271 102.377 538.73 102.811 539.287 103.207C540.703 104.215 542.02 104.721 543.24 104.726C544.475 104.742 545.611 104.376 546.647 103.627C547.71 102.874 548.678 101.884 549.55 100.659Z" fill="white"/>
</g>
<g filter="url(#filter15_d_1042_57)">
<path d="M604.058 131.362L575.937 156.612L570.3 150.334L602.955 121.013L608.181 126.833L604.058 131.362ZM610.468 152.578L610.01 152.989C608.295 154.529 606.521 155.754 604.688 156.665C602.868 157.591 601.067 158.157 599.285 158.366C597.518 158.561 595.814 158.359 594.173 157.759C592.559 157.16 591.087 156.12 589.756 154.638C588.464 153.199 587.633 151.688 587.262 150.105C586.89 148.522 586.902 146.898 587.296 145.232C587.717 143.567 588.43 141.89 589.433 140.202C590.437 138.513 591.634 136.835 593.024 135.167L594.223 134.09C596.146 132.783 598.016 131.708 599.832 130.865C601.662 130.01 603.42 129.468 605.106 129.241C606.819 129.015 608.436 129.164 609.957 129.688C611.491 130.227 612.897 131.209 614.176 132.633C615.52 134.13 616.417 135.7 616.868 137.342C617.332 138.999 617.38 140.689 617.01 142.412C616.654 144.149 615.918 145.873 614.803 147.583C613.7 149.308 612.255 150.973 610.468 152.578ZM604.353 146.689L604.811 146.278C605.814 145.378 606.658 144.462 607.345 143.531C608.059 142.601 608.572 141.667 608.885 140.73C609.212 139.807 609.288 138.898 609.115 138.004C608.97 137.111 608.531 136.257 607.801 135.443C607.031 134.586 606.234 133.976 605.41 133.614C604.599 133.266 603.762 133.138 602.899 133.229C602.037 133.321 601.157 133.599 600.261 134.063C599.365 134.526 598.439 135.147 597.485 135.926L594.455 138.646C593.444 139.684 592.661 140.756 592.103 141.86C591.561 142.951 591.355 144.067 591.488 145.208C591.62 146.35 592.195 147.487 593.213 148.62C593.956 149.449 594.764 149.983 595.637 150.224C596.523 150.451 597.45 150.446 598.417 150.208C599.398 149.984 600.382 149.559 601.37 148.935C602.371 148.325 603.365 147.576 604.353 146.689Z" fill="white"/>
</g>
<g filter="url(#filter16_d_1042_57)">
<path d="M657.279 191.003L652.173 194.109L642.581 178.34L647.687 175.234L657.279 191.003ZM656.745 175.074L661.13 182.282L635.524 197.858C634.74 198.335 634.2 198.8 633.905 199.254C633.62 199.725 633.52 200.22 633.607 200.738C633.711 201.247 633.955 201.818 634.341 202.452C634.615 202.903 634.875 203.293 635.122 203.623C635.395 203.96 635.633 204.238 635.836 204.458L630.544 207.711C629.969 207.215 629.404 206.644 628.851 205.998C628.298 205.351 627.757 204.594 627.229 203.726C626.265 202.141 625.681 200.599 625.478 199.099C625.301 197.606 625.604 196.188 626.387 194.843C627.169 193.498 628.511 192.248 630.414 191.091L656.745 175.074Z" fill="white"/>
</g>
<g filter="url(#filter17_d_1042_57)">
<path d="M677.2 229.873L648.11 242.467L644.746 234.697L673.836 222.103L677.2 229.873ZM681.208 218.336C682.337 217.848 683.44 217.838 684.516 218.309C685.593 218.779 686.418 219.678 686.992 221.004C687.559 222.312 687.645 223.52 687.252 224.627C686.866 225.752 686.109 226.558 684.98 227.047C683.85 227.536 682.744 227.536 681.66 227.048C680.583 226.578 679.762 225.688 679.196 224.38C678.621 223.053 678.531 221.837 678.924 220.73C679.318 219.623 680.079 218.825 681.208 218.336Z" fill="white"/>
</g>
<g filter="url(#filter18_d_1042_57)">
<path d="M668.165 280.021L694.653 280.696L696.776 289.255L663.435 286.507L662.151 281.332L668.165 280.021ZM691.797 269.18L668.672 282.19L662.765 283.806L661.474 278.602L689.667 260.592L691.797 269.18Z" fill="white"/>
</g>
<g filter="url(#filter19_d_1042_57)">
<path d="M688.285 331.233L688.9 331.214C691.223 331.144 693.371 331.411 695.343 332.015C697.335 332.619 699.073 333.533 700.556 334.758C702.039 335.983 703.209 337.511 704.066 339.341C704.942 341.171 705.417 343.287 705.49 345.688C705.563 348.089 705.218 350.239 704.455 352.138C703.711 354.037 702.637 355.642 701.231 356.955C699.825 358.288 698.147 359.316 696.195 360.039C694.263 360.762 692.135 361.159 689.812 361.23L689.197 361.248C686.894 361.318 684.746 361.052 682.754 360.448C680.782 359.843 679.044 358.919 677.54 357.675C676.057 356.45 674.887 354.922 674.03 353.092C673.174 351.262 672.709 349.146 672.636 346.745C672.563 344.344 672.898 342.194 673.642 340.295C674.386 338.416 675.46 336.811 676.866 335.478C678.291 334.165 679.97 333.147 681.902 332.424C683.854 331.7 685.982 331.303 688.285 331.233ZM689.156 339.648L688.541 339.667C687.214 339.707 685.978 339.862 684.833 340.131C683.688 340.4 682.685 340.802 681.821 341.336C680.979 341.89 680.326 342.593 679.863 343.448C679.401 344.302 679.188 345.334 679.225 346.545C679.26 347.716 679.535 348.714 680.048 349.539C680.562 350.363 681.256 351.016 682.13 351.498C683.024 351.979 684.051 352.319 685.21 352.518C686.369 352.737 687.613 352.826 688.94 352.786L689.555 352.767C690.844 352.728 692.05 352.564 693.175 352.276C694.319 352.007 695.323 351.595 696.185 351.041C697.068 350.506 697.75 349.812 698.232 348.957C698.714 348.102 698.937 347.079 698.901 345.888C698.865 344.697 698.58 343.69 698.047 342.866C697.515 342.061 696.792 341.409 695.877 340.909C694.984 340.428 693.957 340.088 692.798 339.889C691.659 339.689 690.445 339.609 689.156 339.648Z" fill="white"/>
</g>
<g filter="url(#filter20_d_1042_57)">
<path d="M687.347 452.624L685.978 456.922C685.539 458.299 685.41 459.509 685.591 460.55C685.79 461.598 686.249 462.472 686.969 463.173C687.701 463.898 688.645 464.444 689.798 464.812C690.84 465.144 691.827 465.233 692.757 465.078C693.701 464.948 694.526 464.545 695.234 463.869C695.96 463.198 696.522 462.239 696.919 460.992C697.233 460.006 697.328 459.032 697.204 458.07C697.08 457.108 696.745 456.263 696.198 455.535C695.65 454.808 694.874 454.284 693.87 453.964L696.44 445.896C698.673 446.608 700.428 447.823 701.705 449.542C702.976 451.279 703.753 453.31 704.037 455.635C704.322 457.96 704.075 460.341 703.299 462.779C702.421 465.533 701.207 467.801 699.655 469.582C698.122 471.369 696.316 472.567 694.237 473.175C692.157 473.783 689.852 473.684 687.321 472.878C686.037 472.469 684.885 471.774 683.865 470.793C682.863 469.818 682.057 468.618 681.445 467.193C680.846 465.793 680.51 464.21 680.437 462.444C680.382 460.684 680.669 458.818 681.298 456.846L683.077 451.263L687.347 452.624ZM681.234 450.676L685.393 452.001L683.615 457.584C682.909 459.798 682.038 461.663 681.002 463.178C679.966 464.693 678.793 465.866 677.482 466.699C676.19 467.538 674.81 468.041 673.342 468.209C671.893 468.383 670.396 468.224 668.851 467.731C666.953 467.127 665.375 466.224 664.118 465.024C662.879 463.83 661.958 462.409 661.355 460.762C660.747 459.133 660.452 457.358 660.469 455.437C660.505 453.521 660.853 451.531 661.511 449.465C662.056 447.753 662.825 446.143 663.818 444.635C664.824 443.152 666.015 441.891 667.391 440.854C668.779 439.841 670.327 439.165 672.034 438.828C673.753 438.514 675.617 438.678 677.627 439.318L675.057 447.386C674.015 447.054 673.001 447.018 672.016 447.278C671.032 447.538 670.161 448.05 669.405 448.814C668.644 449.596 668.082 450.555 667.72 451.69C667.311 452.974 667.194 454.146 667.369 455.206C667.556 456.291 668.001 457.211 668.703 457.968C669.417 458.749 670.351 459.323 671.505 459.691C672.994 460.165 674.271 460.275 675.336 460.02C676.42 459.771 677.336 459.212 678.084 458.343C678.832 457.475 679.426 456.352 679.865 454.975L681.234 450.676Z" fill="white"/>
</g>
<g filter="url(#filter21_d_1042_57)">
<path d="M669.447 541.483L668.826 542.545L663.009 539.144L663.26 538.714C664.384 536.792 665.098 534.913 665.402 533.077C665.706 531.241 665.632 529.49 665.181 527.824C664.737 526.184 663.936 524.652 662.777 523.228C661.609 521.821 660.106 520.581 658.268 519.506L652.148 515.928C650.832 515.159 649.595 514.605 648.436 514.267C647.283 513.955 646.227 513.846 645.266 513.941C644.313 514.062 643.471 514.361 642.739 514.839C642.024 515.326 641.421 515.991 640.928 516.834C640.464 517.626 640.214 518.442 640.177 519.28C640.129 520.134 640.276 520.967 640.617 521.777C640.965 522.614 641.483 523.392 642.171 524.111C642.866 524.857 643.711 525.52 644.706 526.102C645.701 526.683 646.694 527.094 647.685 527.334C648.666 527.591 649.598 527.661 650.481 527.544C651.381 527.436 652.196 527.144 652.928 526.667C653.659 526.189 654.272 525.529 654.765 524.686C655.435 523.54 655.757 522.37 655.73 521.178C655.71 520.013 655.43 518.944 654.889 517.972C654.349 517 653.633 516.231 652.743 515.665L655.445 514.292C656.714 515.102 657.787 516.091 658.665 517.261C659.532 518.447 660.157 519.739 660.538 521.138C660.926 522.564 661.008 524.049 660.784 525.593C660.578 527.146 660.016 528.707 659.099 530.275C658.094 531.994 656.882 533.311 655.466 534.225C654.039 535.156 652.497 535.724 650.837 535.931C649.178 536.137 647.47 536.021 645.713 535.582C643.956 535.143 642.226 534.426 640.523 533.43C638.736 532.385 637.248 531.119 636.059 529.632C634.859 528.162 634.007 526.543 633.501 524.777C632.985 523.028 632.851 521.207 633.097 519.315C633.344 517.423 634.019 515.532 635.123 513.644C636.267 511.688 637.661 510.116 639.305 508.929C640.957 507.767 642.767 506.993 644.736 506.606C646.704 506.218 648.765 506.235 650.917 506.656C653.059 507.094 655.192 507.934 657.317 509.176L660.149 510.832C663.117 512.567 665.58 514.584 667.539 516.883C669.505 519.209 670.912 521.717 671.76 524.408C672.625 527.108 672.879 529.904 672.524 532.795C672.168 535.687 671.142 538.583 669.447 541.483Z" fill="white"/>
</g>
<g filter="url(#filter22_d_1042_57)">
<path d="M605.61 596.606L600.207 591.575C597.862 589.393 596.072 587.259 594.837 585.175C593.616 583.105 592.902 581.092 592.694 579.137C592.487 577.209 592.725 575.363 593.408 573.597C594.091 571.832 595.164 570.163 596.628 568.59C597.8 567.332 599.048 566.306 600.374 565.513C601.714 564.732 603.133 564.226 604.631 563.992C606.116 563.774 607.673 563.835 609.302 564.178C610.932 564.548 612.629 565.247 614.394 566.276C616.158 567.305 617.983 568.698 619.87 570.454L625.274 575.485C627.618 577.668 629.394 579.788 630.6 581.845C631.808 583.93 632.516 585.936 632.723 587.864C632.916 589.805 632.665 591.652 631.967 593.405C631.284 595.17 630.21 596.839 628.746 598.412C627.575 599.67 626.326 600.682 624.999 601.448C623.673 602.241 622.268 602.762 620.785 603.008C619.301 603.255 617.744 603.193 616.114 602.823C614.498 602.466 612.808 601.773 611.044 600.744C609.294 599.729 607.483 598.349 605.61 596.606ZM605.161 584.62L612.216 591.188C613.345 592.239 614.391 593.093 615.355 593.75C616.304 594.42 617.186 594.907 617.998 595.21C618.825 595.526 619.59 595.678 620.294 595.667C620.999 595.655 621.65 595.501 622.247 595.203C622.845 594.905 623.403 594.478 623.922 593.92C624.574 593.22 625.017 592.471 625.251 591.675C625.472 590.894 625.455 590.037 625.201 589.107C624.961 588.189 624.441 587.172 623.641 586.053C622.842 584.962 621.742 583.765 620.341 582.461L613.286 575.893C612.157 574.841 611.11 573.974 610.146 573.289C609.168 572.619 608.259 572.12 607.418 571.791C606.578 571.489 605.806 571.33 605.1 571.314C604.396 571.325 603.745 571.48 603.148 571.777C602.537 572.089 601.972 572.524 601.453 573.082C600.814 573.768 600.384 574.502 600.164 575.284C599.944 576.093 599.961 576.963 600.215 577.894C600.471 578.852 601.005 579.883 601.818 580.987C602.632 582.091 603.746 583.302 605.161 584.62Z" fill="white"/>
</g>
<g filter="url(#filter23_d_1042_57)">
<path d="M578.845 634.944C579.705 636.129 580.199 637.424 580.326 638.828C580.464 640.249 580.256 641.607 579.7 642.903C579.145 644.199 578.283 645.272 577.113 646.121C575.96 646.959 574.689 647.436 573.3 647.551C571.911 647.666 570.571 647.433 569.279 646.85C567.998 646.284 566.928 645.408 566.067 644.222C565.206 643.037 564.705 641.748 564.562 640.355C564.431 638.978 564.641 637.655 565.192 636.386C565.743 635.117 566.595 634.063 567.749 633.225C568.918 632.376 570.199 631.88 571.592 631.738C572.985 631.595 574.324 631.794 575.609 632.333C576.905 632.888 577.984 633.758 578.845 634.944ZM575.431 637.423C574.811 636.569 573.995 636.076 572.981 635.943C571.967 635.81 571.049 636.042 570.228 636.639C569.406 637.236 568.925 638.02 568.785 638.99C568.645 639.961 568.885 640.873 569.504 641.726C570.136 642.595 570.94 643.122 571.918 643.305C572.896 643.488 573.795 643.281 574.617 642.684C575.439 642.087 575.938 641.279 576.114 640.258C576.29 639.237 576.062 638.292 575.431 637.423Z" fill="white"/>
</g>
<defs>
<filter id="filter0_d_1042_57" x="139.207" y="602.337" width="58.5563" height="62.0079" filterUnits="userSpaceOnUse" color-interpolation-filters="sRGB">
<feFlood flood-opacity="0" result="BackgroundImageFix"/>
<feColorMatrix in="SourceAlpha" type="matrix" values="0 0 0 0 0 0 0 0 0 0 0 0 0 0 0 0 0 0 127 0" result="hardAlpha"/>
<feOffset dy="4"/>
<feGaussianBlur stdDeviation="1"/>
<feComposite in2="hardAlpha" operator="out"/>
<feColorMatrix type="matrix" values="0 0 0 0 0 0 0 0 0 0 0 0 0 0 0 0 0 0 0.1 0"/>
<feBlend mode="normal" in2="BackgroundImageFix" result="effect1_dropShadow_1042_57"/>
<feBlend mode="normal" in="SourceGraphic" in2="effect1_dropShadow_1042_57" result="shape"/>
</filter>
<filter id="filter1_d_1042_57" x="91.0649" y="550.341" width="48.39" height="49.8994" filterUnits="userSpaceOnUse" color-interpolation-filters="sRGB">
<feFlood flood-opacity="0" result="BackgroundImageFix"/>
<feColorMatrix in="SourceAlpha" type="matrix" values="0 0 0 0 0 0 0 0 0 0 0 0 0 0 0 0 0 0 127 0" result="hardAlpha"/>
<feOffset dy="4"/>
<feGaussianBlur stdDeviation="1"/>
<feComposite in2="hardAlpha" operator="out"/>
<feColorMatrix type="matrix" values="0 0 0 0 0 0 0 0 0 0 0 0 0 0 0 0 0 0 0.1 0"/>
<feBlend mode="normal" in2="BackgroundImageFix" result="effect1_dropShadow_1042_57"/>
<feBlend mode="normal" in="SourceGraphic" in2="effect1_dropShadow_1042_57" result="shape"/>
</filter>
<filter id="filter2_d_1042_57" x="53.3782" y="493.556" width="44.9038" height="44.5767" filterUnits="userSpaceOnUse" color-interpolation-filters="sRGB">
<feFlood flood-opacity="0" result="BackgroundImageFix"/>
<feColorMatrix in="SourceAlpha" type="matrix" values="0 0 0 0 0 0 0 0 0 0 0 0 0 0 0 0 0 0 127 0" result="hardAlpha"/>
<feOffset dy="4"/>
<feGaussianBlur stdDeviation="1"/>
<feComposite in2="hardAlpha" operator="out"/>
<feColorMatrix type="matrix" values="0 0 0 0 0 0 0 0 0 0 0 0 0 0 0 0 0 0 0.1 0"/>
<feBlend mode="normal" in2="BackgroundImageFix" result="effect1_dropShadow_1042_57"/>
<feBlend mode="normal" in="SourceGraphic" in2="effect1_dropShadow_1042_57" result="shape"/>
</filter>
<filter id="filter3_d_1042_57" x="23.7487" y="392.637" width="39.7715" height="38.1597" filterUnits="userSpaceOnUse" color-interpolation-filters="sRGB">
<feFlood flood-opacity="0" result="BackgroundImageFix"/>
<feColorMatrix in="SourceAlpha" type="matrix" values="0 0 0 0 0 0 0 0 0 0 0 0 0 0 0 0 0 0 127 0" result="hardAlpha"/>
<feOffset dy="4"/>
<feGaussianBlur stdDeviation="1"/>
<feComposite in2="hardAlpha" operator="out"/>
<feColorMatrix type="matrix" values="0 0 0 0 0 0 0 0 0 0 0 0 0 0 0 0 0 0 0.1 0"/>
<feBlend mode="normal" in2="BackgroundImageFix" result="effect1_dropShadow_1042_57"/>
<feBlend mode="normal" in="SourceGraphic" in2="effect1_dropShadow_1042_57" result="shape"/>
</filter>
<filter id="filter4_d_1042_57" x="21.912" y="323.984" width="39.0775" height="36.7471" filterUnits="userSpaceOnUse" color-interpolation-filters="sRGB">
<feFlood flood-opacity="0" result="BackgroundImageFix"/>
<feColorMatrix in="SourceAlpha" type="matrix" values="0 0 0 0 0 0 0 0 0 0 0 0 0 0 0 0 0 0 127 0" result="hardAlpha"/>
<feOffset dy="4"/>
<feGaussianBlur stdDeviation="1"/>
<feComposite in2="hardAlpha" operator="out"/>
<feColorMatrix type="matrix" values="0 0 0 0 0 0 0 0 0 0 0 0 0 0 0 0 0 0 0.1 0"/>
<feBlend mode="normal" in2="BackgroundImageFix" result="effect1_dropShadow_1042_57"/>
<feBlend mode="normal" in="SourceGraphic" in2="effect1_dropShadow_1042_57" result="shape"/>
</filter>
<filter id="filter5_d_1042_57" x="19.9222" y="257.093" width="53.6794" height="39.1755" filterUnits="userSpaceOnUse" color-interpolation-filters="sRGB">
<feFlood flood-opacity="0" result="BackgroundImageFix"/>
<feColorMatrix in="SourceAlpha" type="matrix" values="0 0 0 0 0 0 0 0 0 0 0 0 0 0 0 0 0 0 127 0" result="hardAlpha"/>
<feOffset dy="4"/>
<feGaussianBlur stdDeviation="1"/>
<feComposite in2="hardAlpha" operator="out"/>
<feColorMatrix type="matrix" values="0 0 0 0 0 0 0 0 0 0 0 0 0 0 0 0 0 0 0.1 0"/>
<feBlend mode="normal" in2="BackgroundImageFix" result="effect1_dropShadow_1042_57"/>
<feBlend mode="normal" in="SourceGraphic" in2="effect1_dropShadow_1042_57" result="shape"/>
</filter>
<filter id="filter6_d_1042_57" x="50.7032" y="200.705" width="47.1068" height="47.9268" filterUnits="userSpaceOnUse" color-interpolation-filters="sRGB">
<feFlood flood-opacity="0" result="BackgroundImageFix"/>
<feColorMatrix in="SourceAlpha" type="matrix" values="0 0 0 0 0 0 0 0 0 0 0 0 0 0 0 0 0 0 127 0" result="hardAlpha"/>
<feOffset dy="4"/>
<feGaussianBlur stdDeviation="1"/>
<feComposite in2="hardAlpha" operator="out"/>
<feColorMatrix type="matrix" values="0 0 0 0 0 0 0 0 0 0 0 0 0 0 0 0 0 0 0.1 0"/>
<feBlend mode="normal" in2="BackgroundImageFix" result="effect1_dropShadow_1042_57"/>
<feBlend mode="normal" in="SourceGraphic" in2="effect1_dropShadow_1042_57" result="shape"/>
</filter>
<filter id="filter7_d_1042_57" x="88.5217" y="140.508" width="56.3411" height="56.5984" filterUnits="userSpaceOnUse" color-interpolation-filters="sRGB">
<feFlood flood-opacity="0" result="BackgroundImageFix"/>
<feColorMatrix in="SourceAlpha" type="matrix" values="0 0 0 0 0 0 0 0 0 0 0 0 0 0 0 0 0 0 127 0" result="hardAlpha"/>
<feOffset dy="4"/>
<feGaussianBlur stdDeviation="1"/>
<feComposite in2="hardAlpha" operator="out"/>
<feColorMatrix type="matrix" values="0 0 0 0 0 0 0 0 0 0 0 0 0 0 0 0 0 0 0.1 0"/>
<feBlend mode="normal" in2="BackgroundImageFix" result="effect1_dropShadow_1042_57"/>
<feBlend mode="normal" in="SourceGraphic" in2="effect1_dropShadow_1042_57" result="shape"/>
</filter>
<filter id="filter8_d_1042_57" x="140.859" y="90.4026" width="45.2961" height="48.2778" filterUnits="userSpaceOnUse" color-interpolation-filters="sRGB">
<feFlood flood-opacity="0" result="BackgroundImageFix"/>
<feColorMatrix in="SourceAlpha" type="matrix" values="0 0 0 0 0 0 0 0 0 0 0 0 0 0 0 0 0 0 127 0" result="hardAlpha"/>
<feOffset dy="4"/>
<feGaussianBlur stdDeviation="1"/>
<feComposite in2="hardAlpha" operator="out"/>
<feColorMatrix type="matrix" values="0 0 0 0 0 0 0 0 0 0 0 0 0 0 0 0 0 0 0.1 0"/>
<feBlend mode="normal" in2="BackgroundImageFix" result="effect1_dropShadow_1042_57"/>
<feBlend mode="normal" in="SourceGraphic" in2="effect1_dropShadow_1042_57" result="shape"/>
</filter>
<filter id="filter9_d_1042_57" x="201.556" y="52.5857" width="43.7991" height="47.8274" filterUnits="userSpaceOnUse" color-interpolation-filters="sRGB">
<feFlood flood-opacity="0" result="BackgroundImageFix"/>
<feColorMatrix in="SourceAlpha" type="matrix" values="0 0 0 0 0 0 0 0 0 0 0 0 0 0 0 0 0 0 127 0" result="hardAlpha"/>
<feOffset dy="4"/>
<feGaussianBlur stdDeviation="1"/>
<feComposite in2="hardAlpha" operator="out"/>
<feColorMatrix type="matrix" values="0 0 0 0 0 0 0 0 0 0 0 0 0 0 0 0 0 0 0.1 0"/>
<feBlend mode="normal" in2="BackgroundImageFix" result="effect1_dropShadow_1042_57"/>
<feBlend mode="normal" in="SourceGraphic" in2="effect1_dropShadow_1042_57" result="shape"/>
</filter>
<filter id="filter10_d_1042_57" x="307.015" y="12.9419" width="36.5431" height="53.9812" filterUnits="userSpaceOnUse" color-interpolation-filters="sRGB">
<feFlood flood-opacity="0" result="BackgroundImageFix"/>
<feColorMatrix in="SourceAlpha" type="matrix" values="0 0 0 0 0 0 0 0 0 0 0 0 0 0 0 0 0 0 127 0" result="hardAlpha"/>
<feOffset dy="4"/>
<feGaussianBlur stdDeviation="1"/>
<feComposite in2="hardAlpha" operator="out"/>
<feColorMatrix type="matrix" values="0 0 0 0 0 0 0 0 0 0 0 0 0 0 0 0 0 0 0.1 0"/>
<feBlend mode="normal" in2="BackgroundImageFix" result="effect1_dropShadow_1042_57"/>
<feBlend mode="normal" in="SourceGraphic" in2="effect1_dropShadow_1042_57" result="shape"/>
</filter>
<filter id="filter11_d_1042_57" x="379.34" y="13.1033" width="17.113" height="50.842" filterUnits="userSpaceOnUse" color-interpolation-filters="sRGB">
<feFlood flood-opacity="0" result="BackgroundImageFix"/>
<feColorMatrix in="SourceAlpha" type="matrix" values="0 0 0 0 0 0 0 0 0 0 0 0 0 0 0 0 0 0 127 0" result="hardAlpha"/>
<feOffset dy="4"/>
<feGaussianBlur stdDeviation="1"/>
<feComposite in2="hardAlpha" operator="out"/>
<feColorMatrix type="matrix" values="0 0 0 0 0 0 0 0 0 0 0 0 0 0 0 0 0 0 0.1 0"/>
<feBlend mode="normal" in2="BackgroundImageFix" result="effect1_dropShadow_1042_57"/>
<feBlend mode="normal" in="SourceGraphic" in2="effect1_dropShadow_1042_57" result="shape"/>
</filter>
<filter id="filter12_d_1042_57" x="417.152" y="29.5488" width="38.2592" height="44.4995" filterUnits="userSpaceOnUse" color-interpolation-filters="sRGB">
<feFlood flood-opacity="0" result="BackgroundImageFix"/>
<feColorMatrix in="SourceAlpha" type="matrix" values="0 0 0 0 0 0 0 0 0 0 0 0 0 0 0 0 0 0 127 0" result="hardAlpha"/>
<feOffset dy="4"/>
<feGaussianBlur stdDeviation="1"/>
<feComposite in2="hardAlpha" operator="out"/>
<feColorMatrix type="matrix" values="0 0 0 0 0 0 0 0 0 0 0 0 0 0 0 0 0 0 0.1 0"/>
<feBlend mode="normal" in2="BackgroundImageFix" result="effect1_dropShadow_1042_57"/>
<feBlend mode="normal" in="SourceGraphic" in2="effect1_dropShadow_1042_57" result="shape"/>
</filter>
<filter id="filter13_d_1042_57" x="479.033" y="49.7776" width="33.797" height="42.8433" filterUnits="userSpaceOnUse" color-interpolation-filters="sRGB">
<feFlood flood-opacity="0" result="BackgroundImageFix"/>
<feColorMatrix in="SourceAlpha" type="matrix" values="0 0 0 0 0 0 0 0 0 0 0 0 0 0 0 0 0 0 127 0" result="hardAlpha"/>
<feOffset dy="4"/>
<feGaussianBlur stdDeviation="1"/>
<feComposite in2="hardAlpha" operator="out"/>
<feColorMatrix type="matrix" values="0 0 0 0 0 0 0 0 0 0 0 0 0 0 0 0 0 0 0.1 0"/>
<feBlend mode="normal" in2="BackgroundImageFix" result="effect1_dropShadow_1042_57"/>
<feBlend mode="normal" in="SourceGraphic" in2="effect1_dropShadow_1042_57" result="shape"/>
</filter>
<filter id="filter14_d_1042_57" x="522.809" y="74.7622" width="45.0616" height="48.2041" filterUnits="userSpaceOnUse" color-interpolation-filters="sRGB">
<feFlood flood-opacity="0" result="BackgroundImageFix"/>
<feColorMatrix in="SourceAlpha" type="matrix" values="0 0 0 0 0 0 0 0 0 0 0 0 0 0 0 0 0 0 127 0" result="hardAlpha"/>
<feOffset dy="4"/>
<feGaussianBlur stdDeviation="1"/>
<feComposite in2="hardAlpha" operator="out"/>
<feColorMatrix type="matrix" values="0 0 0 0 0 0 0 0 0 0 0 0 0 0 0 0 0 0 0.1 0"/>
<feBlend mode="normal" in2="BackgroundImageFix" result="effect1_dropShadow_1042_57"/>
<feBlend mode="normal" in="SourceGraphic" in2="effect1_dropShadow_1042_57" result="shape"/>
</filter>
<filter id="filter15_d_1042_57" x="568.3" y="120.622" width="56.1357" height="56.9226" filterUnits="userSpaceOnUse" color-interpolation-filters="sRGB">
<feFlood flood-opacity="0" result="BackgroundImageFix"/>
<feColorMatrix in="SourceAlpha" type="matrix" values="0 0 0 0 0 0 0 0 0 0 0 0 0 0 0 0 0 0 127 0" result="hardAlpha"/>
<feOffset dy="4"/>
<feGaussianBlur stdDeviation="1"/>
<feComposite in2="hardAlpha" operator="out"/>
<feColorMatrix type="matrix" values="0 0 0 0 0 0 0 0 0 0 0 0 0 0 0 0 0 0 0.1 0"/>
<feBlend mode="normal" in2="BackgroundImageFix" result="effect1_dropShadow_1042_57"/>
<feBlend mode="normal" in="SourceGraphic" in2="effect1_dropShadow_1042_57" result="shape"/>
</filter>
<filter id="filter16_d_1042_57" x="618.104" y="171.169" width="48.0559" height="42.9373" filterUnits="userSpaceOnUse" color-interpolation-filters="sRGB">
<feFlood flood-opacity="0" result="BackgroundImageFix"/>
<feColorMatrix in="SourceAlpha" type="matrix" values="0 0 0 0 0 0 0 0 0 0 0 0 0 0 0 0 0 0 127 0" result="hardAlpha"/>
<feOffset dy="4"/>
<feGaussianBlur stdDeviation="1"/>
<feComposite in2="hardAlpha" operator="out"/>
<feColorMatrix type="matrix" values="0 0 0 0 0 0 0 0 0 0 0 0 0 0 0 0 0 0 0.1 0"/>
<feBlend mode="normal" in2="BackgroundImageFix" result="effect1_dropShadow_1042_57"/>
<feBlend mode="normal" in="SourceGraphic" in2="effect1_dropShadow_1042_57" result="shape"/>
</filter>
<filter id="filter17_d_1042_57" x="642.537" y="216.649" width="48.3412" height="32.2756" filterUnits="userSpaceOnUse" color-interpolation-filters="sRGB">
<feFlood flood-opacity="0" result="BackgroundImageFix"/>
<feColorMatrix in="SourceAlpha" type="matrix" values="0 0 0 0 0 0 0 0 0 0 0 0 0 0 0 0 0 0 127 0" result="hardAlpha"/>
<feOffset dy="4"/>
<feGaussianBlur stdDeviation="1"/>
<feComposite in2="hardAlpha" operator="out"/>
<feColorMatrix type="matrix" values="0 0 0 0 0 0 0 0 0 0 0 0 0 0 0 0 0 0 0.1 0"/>
<feBlend mode="normal" in2="BackgroundImageFix" result="effect1_dropShadow_1042_57"/>
<feBlend mode="normal" in="SourceGraphic" in2="effect1_dropShadow_1042_57" result="shape"/>
</filter>
<filter id="filter18_d_1042_57" x="656.9" y="260.592" width="41.8762" height="42.2937" filterUnits="userSpaceOnUse" color-interpolation-filters="sRGB">
<feFlood flood-opacity="0" result="BackgroundImageFix"/>
<feColorMatrix in="SourceAlpha" type="matrix" values="0 0 0 0 0 0 0 0 0 0 0 0 0 0 0 0 0 0 127 0" result="hardAlpha"/>
<feOffset dy="4"/>
<feGaussianBlur stdDeviation="1"/>
<feComposite in2="hardAlpha" operator="out"/>
<feColorMatrix type="matrix" values="0 0 0 0 0 0 0 0 0 0 0 0 0 0 0 0 0 0 0.1 0"/>
<feBlend mode="normal" in2="BackgroundImageFix" result="effect1_dropShadow_1042_57"/>
<feBlend mode="normal" in="SourceGraphic" in2="effect1_dropShadow_1042_57" result="shape"/>
</filter>
<filter id="filter19_d_1042_57" x="670.179" y="330.724" width="37.7681" height="37.0137" filterUnits="userSpaceOnUse" color-interpolation-filters="sRGB">
<feFlood flood-opacity="0" result="BackgroundImageFix"/>
<feColorMatrix in="SourceAlpha" type="matrix" values="0 0 0 0 0 0 0 0 0 0 0 0 0 0 0 0 0 0 127 0" result="hardAlpha"/>
<feOffset dy="4"/>
<feGaussianBlur stdDeviation="1"/>
<feComposite in2="hardAlpha" operator="out"/>
<feColorMatrix type="matrix" values="0 0 0 0 0 0 0 0 0 0 0 0 0 0 0 0 0 0 0.1 0"/>
<feBlend mode="normal" in2="BackgroundImageFix" result="effect1_dropShadow_1042_57"/>
<feBlend mode="normal" in="SourceGraphic" in2="effect1_dropShadow_1042_57" result="shape"/>
</filter>
<filter id="filter20_d_1042_57" x="654.904" y="435.592" width="54.8148" height="47.647" filterUnits="userSpaceOnUse" color-interpolation-filters="sRGB">
<feFlood flood-opacity="0" result="BackgroundImageFix"/>
<feColorMatrix in="SourceAlpha" type="matrix" values="0 0 0 0 0 0 0 0 0 0 0 0 0 0 0 0 0 0 127 0" result="hardAlpha"/>
<feOffset dy="4"/>
<feGaussianBlur stdDeviation="1"/>
<feComposite in2="hardAlpha" operator="out"/>
<feColorMatrix type="matrix" values="0 0 0 0 0 0 0 0 0 0 0 0 0 0 0 0 0 0 0.1 0"/>
<feBlend mode="normal" in2="BackgroundImageFix" result="effect1_dropShadow_1042_57"/>
<feBlend mode="normal" in="SourceGraphic" in2="effect1_dropShadow_1042_57" result="shape"/>
</filter>
<filter id="filter21_d_1042_57" x="625.878" y="500.644" width="56.5554" height="53.4397" filterUnits="userSpaceOnUse" color-interpolation-filters="sRGB">
<feFlood flood-opacity="0" result="BackgroundImageFix"/>
<feColorMatrix in="SourceAlpha" type="matrix" values="0 0 0 0 0 0 0 0 0 0 0 0 0 0 0 0 0 0 127 0" result="hardAlpha"/>
<feOffset dy="4"/>
<feGaussianBlur stdDeviation="1"/>
<feComposite in2="hardAlpha" operator="out"/>
<feColorMatrix type="matrix" values="0 0 0 0 0 0 0 0 0 0 0 0 0 0 0 0 0 0 0.1 0"/>
<feBlend mode="normal" in2="BackgroundImageFix" result="effect1_dropShadow_1042_57"/>
<feBlend mode="normal" in="SourceGraphic" in2="effect1_dropShadow_1042_57" result="shape"/>
</filter>
<filter id="filter22_d_1042_57" x="584.827" y="557.997" width="55.7417" height="56.9858" filterUnits="userSpaceOnUse" color-interpolation-filters="sRGB">
<feFlood flood-opacity="0" result="BackgroundImageFix"/>
<feColorMatrix in="SourceAlpha" type="matrix" values="0 0 0 0 0 0 0 0 0 0 0 0 0 0 0 0 0 0 127 0" result="hardAlpha"/>
<feOffset dy="4"/>
<feGaussianBlur stdDeviation="1"/>
<feComposite in2="hardAlpha" operator="out"/>
<feColorMatrix type="matrix" values="0 0 0 0 0 0 0 0 0 0 0 0 0 0 0 0 0 0 0.1 0"/>
<feBlend mode="normal" in2="BackgroundImageFix" result="effect1_dropShadow_1042_57"/>
<feBlend mode="normal" in="SourceGraphic" in2="effect1_dropShadow_1042_57" result="shape"/>
</filter>
<filter id="filter23_d_1042_57" x="559.419" y="628.543" width="26.1422" height="28.1746" filterUnits="userSpaceOnUse" color-interpolation-filters="sRGB">
<feFlood flood-opacity="0" result="BackgroundImageFix"/>
<feColorMatrix in="SourceAlpha" type="matrix" values="0 0 0 0 0 0 0 0 0 0 0 0 0 0 0 0 0 0 127 0" result="hardAlpha"/>
<feOffset dy="4"/>
<feGaussianBlur stdDeviation="1"/>
<feComposite in2="hardAlpha" operator="out"/>
<feColorMatrix type="matrix" values="0 0 0 0 0 0 0 0 0 0 0 0 0 0 0 0 0 0 0.1 0"/>
<feBlend mode="normal" in2="BackgroundImageFix" result="effect1_dropShadow_1042_57"/>
<feBlend mode="normal" in="SourceGraphic" in2="effect1_dropShadow_1042_57" result="shape"/>
</filter>
</defs>
</svg>
