<?xml version="1.0" encoding="utf-8"?>
<!-- Generator: Adobe Illustrator 24.1.2, SVG Export Plug-In . SVG Version: 6.00 Build 0)  -->
<svg version="1.1" id="TWISTER" xmlns="http://www.w3.org/2000/svg" xmlns:xlink="http://www.w3.org/1999/xlink" x="0px" y="0px"
	 viewBox="0 0 700 700" style="enable-background:new 0 0 700 700;" xml:space="preserve">
<style type="text/css">
	.st0{fill:#9665FD;}
	.st1{fill:#FFFFFF;}
</style>
<path id="_x31_7" class="st0" d="M668.1,372.5l-97.1,207.6c-42.6,91-150.8,130.3-241.8,87.7l-207.6-97C30.7,528.3-8.6,420,34,329
	L131,121.4c42.5-91,150.8-130.3,241.8-87.7l207.6,97.1C671.4,173.3,710.7,281.5,668.1,372.5z"/>
<path id="_x31_7_1_" class="st1" d="M651.2,392.6L537.4,589.8c-46.1,79.9-148.3,107.3-228.2,61.2L112,537.1
	C32.1,491,4.7,388.8,50.8,308.9l113.8-197.2C210.8,31.9,313,4.5,392.9,50.6L590,164.4C669.9,210.5,697.3,312.7,651.2,392.6z"/>
<path id="_x31_6" class="st0" d="M631.7,411.9l-126.1,181c-48.9,70.3-145.5,87.5-215.8,38.6l-181-126.1
	c-70.3-48.9-87.5-145.5-38.6-215.8l126.1-181C245.3,38.4,341.9,21.1,412.1,70l181,126.1C663.4,245,680.7,341.6,631.7,411.9z"/>
<path id="_x31_5" class="st1" d="M609.2,431.9l-136,160.3C421.7,653,330.6,660.5,269.9,609L109.5,473
	c-60.8-51.6-68.3-142.6-16.7-203.4l136-160.3C280.4,48.5,371.4,41,432.2,92.6l160.3,136C653.3,280.1,660.8,371.1,609.2,431.9z"/>
<path id="_x31_4_1_" class="st0" d="M592.3,444.6L439,594.2c-50.8,49.6-132.2,48.6-181.8-2.2L107.5,438.7
	c-49.6-50.8-48.6-132.2,2.2-181.8l153.4-149.6c50.8-49.6,132.2-48.6,181.8,2.2l149.6,153.4C644.1,313.7,643.1,395,592.3,444.6z"/>
<path id="_x31_3_1_" class="st1" d="M572.1,454.8L406.9,588.6c-48.8,39.5-120.4,32-159.9-16.8L113.2,406.6
	c-39.5-48.8-32-120.4,16.8-159.9l165.2-133.8c48.8-39.5,120.4-32,159.9,16.8l133.8,165.2C628.4,343.7,620.8,415.3,572.1,454.8z"/>
<path id="_x31_2_1_" class="st0" d="M545.6,467.8l-163.8,108c-49.2,32.4-115.4,18.8-147.8-30.3l-108-163.8
	c-32.4-49.2-18.8-115.4,30.3-147.8l163.8-108C369.4,93.4,435.6,107,468,156.2l108,163.8C608.5,369.1,594.9,435.3,545.6,467.8z"/>
<path id="_x31_1_1_" class="st1" d="M519.4,475.2l-157.1,84.6c-48.7,26.3-109.5,8-135.8-40.7l-84.6-157.1
	c-26.3-48.7-8-109.5,40.7-135.8l157.1-84.6c48.7-26.3,109.5-8,135.8,40.7l84.6,157.1C586.4,388.2,568.1,449,519.4,475.2z"/>
<path id="_x31_0_3_" class="st0" d="M494,481.2l-150.9,63c-47.7,20-102.6-2.6-122.6-50.4l-63-150.9c-20-47.7,2.6-102.6,50.4-122.6
	l150.9-63c47.7-20,102.6,2.6,122.6,50.4l63,150.9C564.4,406.4,541.8,461.3,494,481.2z"/>
<path id="_x31_0_1_" class="st1" d="M469.9,481.3l-142.4,44.5c-45,14.1-92.9-11-107-56.1l-44.5-142.5c-14.1-45,11-92.9,56.1-107
	l142.4-44.5c45-14.1,92.9,11,107,56.1L526,374.3C540,419.3,514.9,467.2,469.9,481.3z"/>
<path id="_x39__2_" class="st0" d="M447.1,479.7l-133.5,27.5c-41.9,8.6-82.9-18.4-91.5-60.3l-27.5-133.5
	c-8.6-41.9,18.4-82.9,60.3-91.5l133.5-27.5c41.9-8.6,82.9,18.4,91.5,60.3l27.5,133.5C516,430.1,489.1,471,447.1,479.7z"/>
<path id="_x38__1_" class="st1" d="M427.1,472.9l-122.7,13.9c-37.4,4.3-71.2-22.6-75.4-60.1L215,304c-4.3-37.4,22.6-71.2,60.1-75.4
	l122.7-13.9c37.4-4.3,71.2,22.6,75.4,60.1l13.9,122.7C491.4,434.9,464.5,468.7,427.1,472.9z"/>
<path id="_x37__1_" class="st0" d="M404.3,466.3l-103.4,1.4c-35.6,0.5-64.9-28-65.3-63.6l-1.4-103.4c-0.5-35.6,28-64.9,63.6-65.3
	l103.4-1.4c35.6-0.5,64.9,28,65.3,63.6l1.4,103.4C468.4,436.6,439.9,465.8,404.3,466.3z"/>
<path id="_x36_" class="st1" d="M388.8,454.6l-90.1-6.5c-30.7-2.2-53.7-28.9-51.6-59.5l6.5-90.1c2.2-30.7,28.9-53.8,59.6-51.6
	l90.1,6.5c30.7,2.2,53.7,28.9,51.6,59.5l-6.5,90.1C446.1,433.7,419.5,456.8,388.8,454.6z"/>
<path id="_x35_" class="st0" d="M373.5,442.2l-76.4-14.3c-25.4-4.7-42.2-29.2-37.4-54.7l14.3-76.4c4.7-25.4,29.2-42.2,54.7-37.4
	l76.4,14.3c25.4,4.7,42.2,29.2,37.4,54.7l-14.3,76.4C423.4,430.2,398.9,446.9,373.5,442.2z"/>
<path id="_x34_" class="st1" d="M362.9,427.9L301,410.7c-20.7-5.8-32.9-27.2-27.1-48l17.2-61.9c5.8-20.7,27.2-32.9,48-27.1
	l61.9,17.2c20.7,5.8,32.9,27.2,27.1,48l-17.2,61.9C405.2,421.5,383.7,433.6,362.9,427.9z"/>
<path id="_x33_" class="st0" d="M356,412.6L306.5,394c-15.4-5.8-23.1-22.9-17.4-38.2l18.6-49.5c5.8-15.4,22.9-23.1,38.2-17.4
	l49.5,18.6c15.4,5.8,23.1,22.9,17.4,38.2l-18.6,49.5C388.5,410.6,371.3,418.4,356,412.6z"/>
<path id="_x32_" class="st1" d="M349.6,396.1l-33.9-16.8c-11-5.5-15.5-18.8-10-29.9l16.8-33.9c5.5-11,18.8-15.5,29.9-10l33.9,16.9
	c11,5.5,15.5,18.8,10,29.9l-16.8,33.9C374,397.1,360.6,401.6,349.6,396.1z"/>
<path id="_x31_" class="st0" d="M348.8,379.9L326,365.8c-5.9-3.6-7.7-11.4-4.1-17.3l14.1-22.8c3.6-5.9,11.4-7.7,17.3-4.1l22.8,14.1
	c5.9,3.6,7.7,11.4,4.1,17.3l-14.1,22.8C362.4,381.7,354.7,383.5,348.8,379.9z"/>
<path id="CENTRO" class="st1" d="M348.9,363l-8.6-6c-2.7-1.9-3.4-5.7-1.5-8.4l6-8.6c1.9-2.7,5.7-3.4,8.4-1.5l8.6,6
	c2.7,1.9,3.4,5.7,1.5,8.4l-6,8.6C355.4,364.2,351.6,364.9,348.9,363z"/>
</svg>
