<?xml version="1.0" encoding="utf-8"?>
<!-- Generator: Adobe Illustrator 24.1.2, SVG Export Plug-In . SVG Version: 6.00 Build 0)  -->
<svg version="1.1" id="TWISTER" xmlns="http://www.w3.org/2000/svg" xmlns:xlink="http://www.w3.org/1999/xlink" x="0px" y="0px"
	 viewBox="0 0 1500 1500" style="enable-background:new 0 0 1500 1500;" xml:space="preserve">
<style type="text/css">
	.st0{fill:#9665FD;}
	.st1{fill:#FFFFFF;}
</style>
<path id="_x31_7" class="st0" d="M1431.4,812.7l-209.2,447.3c-91.7,196.1-325,280.8-521.1,189.1L253.7,1240
	C57.6,1148.3-27,914.9,64.7,718.8l209.2-447.3C365.5,75.4,598.8-9.3,795,82.4l447.3,209.2C1438.4,383.3,1523.1,616.6,1431.4,812.7z"
	/>
<path id="_x31_7_1_" class="st1" d="M1394.9,856l-245.3,424.9c-99.4,172.2-319.6,231.2-491.8,131.8l-424.9-245.3
	C60.7,1067.9,1.7,847.8,101.1,675.6l245.3-424.9C445.9,78.5,666,19.5,838.2,118.9l424.9,245.3C1435.3,463.6,1494.3,683.8,1394.9,856
	z"/>
<path id="_x31_6" class="st0" d="M1352.9,897.5l-271.7,390c-105.4,151.4-313.6,188.6-465,83.2l-390-271.7
	c-151.4-105.4-188.6-313.6-83.2-465l271.7-390c105.4-151.4,313.6-188.6,465-83.2l390,271.7C1421.1,537.9,1458.4,746.1,1352.9,897.5z
	"/>
<path id="_x31_5" class="st1" d="M1304.4,940.7l-293,345.5c-111.1,131-307.4,147.1-438.3,36l-345.5-293
	c-131-111.1-147.1-307.4-36-438.3l293-345.5c111.1-131,307.4-147.1,438.3-36l345.5,293C1399.4,613.5,1415.5,809.7,1304.4,940.7z"/>
<path id="_x31_4_1_" class="st0" d="M1268,968l-330.5,322.5c-109.5,106.8-284.9,104.7-391.7-4.8L223.2,955.3
	C116.4,845.8,118.5,670.4,228,563.5L558.5,241c109.5-106.8,284.9-104.7,391.7,4.8l322.5,330.5C1379.6,685.8,1377.5,861.2,1268,968z"
	/>
<path id="_x31_3_1_" class="st1" d="M1224.4,990l-356,288.3c-105.2,85.2-259.4,68.9-344.6-36.2l-288.3-356
	c-85.2-105.2-68.9-259.4,36.2-344.6l356-288.3c105.2-85.2,259.4-68.9,344.6,36.2l288.3,356C1345.7,750.6,1329.5,904.9,1224.4,990z"
	/>
<path id="_x31_2_1_" class="st0" d="M1167.4,1017.9l-352.9,232.7c-106,69.9-248.7,40.6-318.6-65.4L263.2,832.3
	c-69.9-106-40.6-248.7,65.4-318.6L681.5,281c106-69.9,248.7-40.6,318.6,65.4l232.7,352.9C1302.8,805.3,1273.5,948,1167.4,1017.9z"/>
<path id="_x31_1_1_" class="st1" d="M1110.9,1034l-338.5,182.4c-105,56.6-236,17.3-292.6-87.7L297.4,790.2
	c-56.6-105-17.3-236,87.7-292.6l338.5-182.4c105-56.6,236-17.3,292.6,87.7l182.4,338.5C1255.2,846.4,1215.9,977.4,1110.9,1034z"/>
<path id="_x31_0_3_" class="st0" d="M1056.2,1046.9l-325.1,135.7c-102.9,43-221.2-5.6-264.2-108.6L331.2,748.9
	c-43-102.9,5.6-221.2,108.6-264.2L764.9,349c102.9-43,221.2,5.6,264.2,108.6l135.7,325.1C1207.8,885.6,1159.2,1003.9,1056.2,1046.9z
	"/>
<path id="_x31_0_1_" class="st1" d="M1004.2,1047l-306.9,95.8c-97,30.3-200.2-23.8-230.5-120.8L371,715
	c-30.3-97,23.8-200.2,120.8-230.5l306.9-95.8c97-30.3,200.2,23.8,230.5,120.8l95.8,306.9C1155.3,913.5,1101.2,1016.7,1004.2,1047z"
	/>
<path id="_x39__2_" class="st0" d="M955.1,1043.6l-287.7,59.2c-90.3,18.6-178.6-39.6-197.2-129.9L411,685.2
	c-18.6-90.3,39.6-178.6,129.9-197.2l287.7-59.2c90.3-18.6,178.6,39.6,197.2,129.9l59.2,287.7C1103.6,936.7,1045.5,1025,955.1,1043.6
	z"/>
<path id="_x38__1_" class="st1" d="M911.9,1029.1l-264.5,30c-80.7,9.2-153.5-48.8-162.6-129.5l-30-264.5
	c-9.2-80.7,48.8-153.5,129.5-162.6l264.5-30c80.7-9.2,153.5,48.8,162.6,129.5l30,264.5C1050.5,947.1,992.6,1019.9,911.9,1029.1z"/>
<path id="_x37__1_" class="st0" d="M862.8,1014.8l-222.9,3c-76.8,1-139.8-60.4-140.8-137.1l-3-222.9c-1-76.8,60.4-139.8,137.1-140.8
	l222.9-3c76.8-1,139.8,60.4,140.8,137.1l3,222.9C1001,950.7,939.6,1013.7,862.8,1014.8z"/>
<path id="_x36_" class="st1" d="M829.5,989.6l-194.2-14c-66.1-4.8-115.8-62.2-111.1-128.3l14-194.2C543,587,600.5,537.2,666.6,542
	l194.2,14c66.1,4.8,115.8,62.2,111.1,128.3l-14,194.2C953,944.6,895.6,994.3,829.5,989.6z"/>
<path id="_x35_" class="st0" d="M796.4,962.8L631.7,932c-54.8-10.2-91-63-80.7-117.8l30.8-164.7c10.2-54.8,63-91,117.8-80.7
	l164.7,30.8c54.8,10.2,91,63,80.7,117.8l-30.8,164.7C904,936.9,851.2,973,796.4,962.8z"/>
<path id="_x34_" class="st1" d="M773.7,932l-133.5-37.1c-44.7-12.4-70.9-58.7-58.4-103.4L618.9,658c12.4-44.7,58.7-70.9,103.4-58.4
	l133.5,37.1c44.7,12.4,70.9,58.7,58.4,103.4l-37.1,133.5C864.7,918.3,818.4,944.4,773.7,932z"/>
<path id="_x33_" class="st0" d="M758.7,899l-106.6-40.1c-33.1-12.4-49.8-49.4-37.4-82.4l40.1-106.6c12.4-33.1,49.4-49.8,82.4-37.4
	l106.6,40.1c33.1,12.4,49.8,49.4,37.4,82.4l-40.1,106.6C828.7,894.8,791.8,911.5,758.7,899z"/>
<path id="_x32_" class="st1" d="M744.9,863.4l-73-36.3c-23.7-11.8-33.4-40.6-21.6-64.4l36.3-73c11.8-23.7,40.6-33.4,64.4-21.6
	l73,36.4c23.7,11.8,33.4,40.6,21.6,64.4l-36.3,73C797.5,865.6,768.7,875.3,744.9,863.4z"/>
<path id="_x31_" class="st0" d="M743.2,828.5L694,798.1c-12.7-7.8-16.6-24.5-8.8-37.2l30.4-49.2c7.8-12.7,24.5-16.6,37.2-8.8
	l49.2,30.4c12.7,7.8,16.6,24.5,8.8,37.2l-30.4,49.2C772.5,832.4,755.9,836.4,743.2,828.5z"/>
<path id="CENTRO" class="st1" d="M743.4,792.1l-18.5-12.9c-5.9-4.1-7.3-12.2-3.2-18.1l12.9-18.5c4.1-5.9,12.2-7.3,18.1-3.2
	l18.5,12.9c5.9,4.1,7.3,12.2,3.2,18.1l-12.9,18.5C757.4,794.8,749.3,796.2,743.4,792.1z"/>
</svg>
