<svg width="172" height="59" viewBox="0 0 172 59" fill="none" xmlns="http://www.w3.org/2000/svg">
<g clip-path="url(#clip0_419_11)">
<path d="M141.81 0.5H29.45C13.4669 0.5 0.51001 13.4569 0.51001 29.44C0.51001 45.4231 13.4669 58.38 29.45 58.38H141.81C157.793 58.38 170.75 45.4231 170.75 29.44C170.75 13.4569 157.793 0.5 141.81 0.5Z" fill="white" stroke="white" stroke-miterlimit="10"/>
<path d="M29.44 58.3799L66.31 58.3799C82.2931 58.3799 95.25 45.423 95.25 29.4399C95.25 13.4568 82.2931 0.499882 66.31 0.499882L29.44 0.499882C13.4569 0.499882 0.5 13.4568 0.5 29.4399C0.5 45.423 13.4569 58.3799 29.44 58.3799Z" fill="#805097" stroke="white" stroke-miterlimit="10"/>
<path d="M42.9 2.93994V4.99994H38.7C38.5823 4.99862 38.4655 5.02066 38.3563 5.0648C38.2472 5.10893 38.1479 5.17428 38.0642 5.25705C37.9805 5.33983 37.914 5.43839 37.8687 5.54703C37.8233 5.65566 37.8 5.77222 37.8 5.88994V17.0599C37.8 17.1777 37.8233 17.2942 37.8687 17.4029C37.914 17.5115 37.9805 17.6101 38.0642 17.6928C38.1479 17.7756 38.2472 17.841 38.3563 17.8851C38.4655 17.9292 38.5823 17.9513 38.7 17.9499H55.92C56.0377 17.9513 56.1545 17.9292 56.2636 17.8851C56.3728 17.841 56.4721 17.7756 56.5558 17.6928C56.6395 17.6101 56.7059 17.5115 56.7513 17.4029C56.7966 17.2942 56.82 17.1777 56.82 17.0599V5.89994C56.82 5.78222 56.7966 5.66566 56.7513 5.55703C56.7059 5.44839 56.6395 5.34983 56.5558 5.26705C56.4721 5.18428 56.3728 5.11893 56.2636 5.0748C56.1545 5.03066 56.0377 5.00862 55.92 5.00994H51.72V2.93994H50.81V4.99994H43.81V2.93994H42.9ZM52.84 15.6599H41.79V14.4699H52.84V15.6599ZM51.72 7.79994C52.0444 7.79994 52.3614 7.89613 52.6311 8.07633C52.9008 8.25654 53.111 8.51267 53.2351 8.81234C53.3593 9.11201 53.3918 9.44176 53.3285 9.75989C53.2652 10.078 53.109 10.3702 52.8796 10.5996C52.6503 10.829 52.3581 10.9851 52.0399 11.0484C51.7218 11.1117 51.3921 11.0792 51.0924 10.9551C50.7927 10.831 50.5366 10.6208 50.3564 10.3511C50.1762 10.0814 50.08 9.7643 50.08 9.43994C50.08 9.00499 50.2528 8.58785 50.5603 8.28029C50.8679 7.97273 51.285 7.79994 51.72 7.79994ZM44.54 9.43994C44.54 9.7643 44.4438 10.0814 44.2636 10.3511C44.0834 10.6208 43.8273 10.831 43.5276 10.9551C43.2279 11.0792 42.8982 11.1117 42.58 11.0484C42.2619 10.9851 41.9697 10.829 41.7403 10.5996C41.511 10.3702 41.3548 10.078 41.2915 9.75989C41.2282 9.44176 41.2607 9.11201 41.3848 8.81234C41.509 8.51267 41.7192 8.25654 41.9889 8.07633C42.2586 7.89613 42.5756 7.79994 42.9 7.79994C43.1157 7.79861 43.3296 7.84013 43.5292 7.92207C43.7287 8.00402 43.91 8.12477 44.0626 8.27733C44.2152 8.42988 44.3359 8.6112 44.4179 8.81077C44.4998 9.01035 44.5413 9.2242 44.54 9.43994Z" fill="white"/>
<path d="M35.3 19.0601H31.89V28.6701H35.3V19.0601Z" fill="white"/>
<path d="M35.3 29.3699H31.89V38.9799H35.3V29.3699Z" fill="white"/>
<path d="M34.79 45.29V46.59C35.6452 46.3072 36.3716 45.7291 36.8393 44.9592C37.3069 44.1894 37.485 43.2782 37.3418 42.389C37.1986 41.4997 36.7433 40.6906 36.0576 40.1065C35.372 39.5224 34.5007 39.2017 33.6 39.2017C32.6993 39.2017 31.828 39.5224 31.1424 40.1065C30.4567 40.6906 30.0015 41.4997 29.8582 42.389C29.715 43.2782 29.8932 44.1894 30.3608 44.9592C30.8284 45.7291 31.5548 46.3072 32.41 46.59V45.29C31.8887 45.0229 31.4723 44.5882 31.228 44.0559C30.9836 43.5235 30.9254 42.9244 31.0628 42.355C31.2002 41.7856 31.5251 41.2789 31.9853 40.9165C32.4455 40.5541 33.0142 40.3571 33.6 40.3571C34.1858 40.3571 34.7545 40.5541 35.2147 40.9165C35.6749 41.2789 35.9999 41.7856 36.1372 42.355C36.2746 42.9244 36.2164 43.5235 35.972 44.0559C35.7277 44.5882 35.3113 45.0229 34.79 45.29Z" fill="white"/>
<path d="M62.84 19.0601H59.42V28.6701H62.84V19.0601Z" fill="white"/>
<path d="M62.84 29.3699H59.42V38.9799H62.84V29.3699Z" fill="white"/>
<path d="M62.31 45.29V46.59C63.1688 46.3081 63.8989 45.7294 64.3695 44.9577C64.84 44.186 65.0201 43.2719 64.8773 42.3794C64.7346 41.4869 64.2785 40.6745 63.5908 40.0881C62.9031 39.5016 62.0288 39.1794 61.125 39.1794C60.2212 39.1794 59.347 39.5016 58.6593 40.0881C57.9716 40.6745 57.5154 41.4869 57.3727 42.3794C57.23 43.2719 57.41 44.186 57.8806 44.9577C58.3511 45.7294 59.0813 46.3081 59.94 46.59V45.29C59.5153 45.0762 59.1579 44.7492 58.9073 44.3451C58.6567 43.9409 58.5227 43.4754 58.52 43C58.498 42.6443 58.549 42.2879 58.6699 41.9527C58.7909 41.6175 58.9792 41.3106 59.2232 41.0509C59.4673 40.7913 59.7619 40.5843 60.089 40.4429C60.4161 40.3014 60.7687 40.2285 61.125 40.2285C61.4814 40.2285 61.8339 40.3014 62.161 40.4429C62.4881 40.5843 62.7827 40.7913 63.0268 41.0509C63.2709 41.3106 63.4592 41.6175 63.5801 41.9527C63.701 42.2879 63.7521 42.6443 63.73 43C63.7273 43.4754 63.5933 43.9409 63.3427 44.3451C63.0921 44.7492 62.7348 45.0762 62.31 45.29Z" fill="white"/>
<path d="M36.82 18.55C36.5839 18.55 36.3576 18.6438 36.1907 18.8107C36.0238 18.9776 35.93 19.204 35.93 19.4401V35.2901C35.93 35.4069 35.953 35.5227 35.9977 35.6306C36.0425 35.7386 36.108 35.8367 36.1907 35.9194C36.2733 36.002 36.3714 36.0676 36.4794 36.1123C36.5874 36.157 36.7031 36.18 36.82 36.18H57.82C57.9369 36.18 58.0526 36.157 58.1606 36.1123C58.2686 36.0676 58.3667 36.002 58.4493 35.9194C58.532 35.8367 58.5975 35.7386 58.6422 35.6306C58.687 35.5227 58.71 35.4069 58.71 35.2901V19.4401C58.71 19.204 58.6162 18.9776 58.4493 18.8107C58.2824 18.6438 58.056 18.55 57.82 18.55H36.82ZM54.44 30.8701C54.44 31.2228 54.2999 31.5611 54.0504 31.8105C53.801 32.0599 53.4627 32.2001 53.11 32.2001H49L51.82 29.38C51.9728 29.2216 52.0581 29.0101 52.0581 28.7901C52.0581 28.57 51.9728 28.3585 51.82 28.2001C51.6645 28.0456 51.4542 27.9588 51.235 27.9588C51.0158 27.9588 50.8055 28.0456 50.65 28.2001L46.65 32.2001H41.55C41.1973 32.2001 40.859 32.0599 40.6095 31.8105C40.3601 31.5611 40.22 31.2228 40.22 30.8701V26.23C40.22 25.8773 40.3601 25.539 40.6095 25.2896C40.859 25.0402 41.1973 24.9 41.55 24.9H53.15C53.5027 24.9 53.841 25.0402 54.0904 25.2896C54.3399 25.539 54.48 25.8773 54.48 26.23L54.44 30.8701Z" fill="white"/>
<path d="M46.02 37.1399H40.38V45.9299H46.02V37.1399Z" fill="white"/>
<path d="M46.02 46.8499H40.38V51.0199H46.02V46.8499Z" fill="white"/>
<path d="M38.92 51.5798C38.4778 51.6525 38.0758 51.8799 37.7857 52.2215C37.4957 52.5631 37.3364 52.9967 37.3364 53.4448C37.3364 53.893 37.4957 54.3265 37.7857 54.6682C38.0758 55.0098 38.4778 55.2372 38.92 55.3098H45.31C45.7639 55.2521 46.1812 55.0309 46.4837 54.6876C46.7862 54.3442 46.953 53.9024 46.953 53.4448C46.953 52.9873 46.7862 52.5454 46.4837 52.2021C46.1812 51.8588 45.7639 51.6375 45.31 51.5798H38.92Z" fill="white"/>
<path d="M54.35 37.1399H48.71V45.9299H54.35V37.1399Z" fill="white"/>
<path d="M54.35 46.8499H48.71V51.0199H54.35V46.8499Z" fill="white"/>
<path d="M49.42 51.5798C48.9661 51.6375 48.5488 51.8588 48.2464 52.2021C47.9439 52.5454 47.777 52.9873 47.777 53.4448C47.777 53.9024 47.9439 54.3442 48.2464 54.6876C48.5488 55.0309 48.9661 55.2521 49.42 55.3098H55.8C56.2539 55.2521 56.6712 55.0309 56.9737 54.6876C57.2761 54.3442 57.443 53.9024 57.443 53.4448C57.443 52.9873 57.2761 52.5454 56.9737 52.2021C56.6712 51.8588 56.2539 51.6375 55.8 51.5798H49.42Z" fill="white"/>
<path d="M126.1 19.31C125.989 19.3991 125.859 19.4608 125.72 19.49C125.57 19.5277 125.415 19.5479 125.26 19.55C125.023 19.5508 124.788 19.5032 124.57 19.41C124.352 19.3166 124.158 19.1766 124 19C123.842 18.8447 123.719 18.6571 123.64 18.45C123.55 18.2313 123.506 17.9964 123.51 17.76C123.509 17.5196 123.557 17.2814 123.65 17.06C123.735 16.8456 123.868 16.6539 124.04 16.5C124.209 16.3401 124.41 16.2175 124.63 16.14C125.102 15.9533 125.628 15.9533 126.1 16.14C126.32 16.2175 126.521 16.3401 126.69 16.5C126.862 16.6539 126.995 16.8456 127.08 17.06C127.174 17.2814 127.221 17.5196 127.22 17.76C127.236 17.9029 127.236 18.047 127.22 18.19C127.192 18.3213 127.148 18.4488 127.09 18.57C127.039 18.6862 126.983 18.7997 126.92 18.91C126.86 19.01 126.8 19.11 126.75 19.21L125.21 21.76H124.61L126.1 19.31ZM125.36 19.13C125.538 19.1335 125.716 19.0995 125.88 19.03C126.195 18.8877 126.448 18.6352 126.59 18.32C126.66 18.1556 126.694 17.9784 126.69 17.8C126.691 17.6161 126.661 17.4335 126.6 17.26C126.534 17.1035 126.439 16.961 126.32 16.84C126.199 16.723 126.057 16.6313 125.9 16.57C125.727 16.5077 125.544 16.4772 125.36 16.48C125.179 16.478 125 16.5085 124.83 16.57C124.674 16.6313 124.531 16.723 124.41 16.84C124.291 16.961 124.196 17.1035 124.13 17.26C124.069 17.4335 124.039 17.6161 124.04 17.8C124.036 17.9784 124.071 18.1556 124.14 18.32C124.21 18.4769 124.308 18.6194 124.43 18.74C124.549 18.8596 124.688 18.9577 124.84 19.03C125.005 19.0986 125.182 19.1326 125.36 19.13Z" fill="#805097"/>
<path d="M128.1 21.4599C128.101 21.3593 128.141 21.2629 128.21 21.1899C128.282 21.1197 128.379 21.0803 128.48 21.0799C128.53 21.079 128.58 21.0883 128.626 21.1072C128.673 21.1261 128.715 21.1542 128.75 21.1899C128.788 21.2242 128.818 21.2659 128.838 21.3124C128.859 21.3589 128.87 21.4091 128.87 21.4599C128.87 21.5123 128.86 21.5643 128.839 21.6124C128.819 21.6606 128.788 21.704 128.75 21.7399C128.715 21.7756 128.673 21.8037 128.626 21.8226C128.58 21.8415 128.53 21.8508 128.48 21.8499C128.379 21.8495 128.282 21.8101 128.21 21.7399C128.139 21.6639 128.1 21.5638 128.1 21.4599Z" fill="#805097"/>
<path d="M132.15 20.4099H129.7V19.8399L131.97 16.1399H132.63V19.9999H133.49V20.4299H132.63V21.7999H132.15V20.4099ZM132.15 16.6699L130.15 19.9799H132.15V16.6699Z" fill="#805097"/>
<path d="M135.76 16.8099L134.76 17.6499L134.47 17.2799L135.87 16.1399H136.27V21.7999H135.79L135.76 16.8099Z" fill="#805097"/>
<path d="M129.88 48.29C129.554 48.2902 129.235 48.3864 128.963 48.5667C128.691 48.747 128.479 49.0033 128.352 49.3038C128.225 49.6042 128.189 49.9354 128.249 50.2559C128.309 50.5765 128.463 50.8723 128.69 51.1063C128.917 51.3403 129.208 51.5022 129.527 51.5718C129.845 51.6414 130.177 51.6156 130.481 51.4976C130.785 51.3796 131.048 51.1746 131.236 50.9083C131.425 50.6419 131.53 50.326 131.54 50C131.547 49.7779 131.509 49.5566 131.428 49.3494C131.348 49.1422 131.227 48.9533 131.072 48.7938C130.917 48.6343 130.732 48.5075 130.527 48.421C130.322 48.3345 130.102 48.2899 129.88 48.29Z" fill="#805097"/>
<path d="M142.52 5.93994H117.23C116.349 5.94259 115.504 6.29459 114.882 6.9188C114.259 7.54301 113.91 8.3885 113.91 9.26994V50.6099C113.91 51.4914 114.259 52.3369 114.882 52.9611C115.504 53.5853 116.349 53.9373 117.23 53.9399H142.52C143.403 53.9399 144.25 53.5891 144.875 52.9646C145.499 52.3401 145.85 51.4931 145.85 50.6099V9.26994C145.85 8.38677 145.499 7.53977 144.875 6.91528C144.25 6.29078 143.403 5.93994 142.52 5.93994ZM129.88 7.05994C129.973 7.05996 130.065 7.0878 130.142 7.1399C130.22 7.192 130.28 7.266 130.315 7.35247C130.35 7.43893 130.359 7.53394 130.34 7.62537C130.321 7.71681 130.275 7.80052 130.209 7.86584C130.142 7.93115 130.057 7.97511 129.965 7.9921C129.874 8.00909 129.779 7.99834 129.693 7.96123C129.607 7.92412 129.535 7.86232 129.484 7.78373C129.434 7.70513 129.408 7.6133 129.41 7.51994C129.413 7.39703 129.463 7.28004 129.551 7.19405C129.639 7.10806 129.757 7.05991 129.88 7.05994ZM128.13 8.93994H131.62C131.732 8.95635 131.834 9.01235 131.907 9.09772C131.981 9.18309 132.022 9.29214 132.022 9.40494C132.022 9.51775 131.981 9.62679 131.907 9.71216C131.834 9.79753 131.732 9.85353 131.62 9.86994H128.13C128.018 9.85353 127.916 9.79753 127.843 9.71216C127.769 9.62679 127.728 9.51775 127.728 9.40494C127.728 9.29214 127.769 9.18309 127.843 9.09772C127.916 9.01235 128.018 8.95635 128.13 8.93994ZM126.58 9.03994C126.676 9.03994 126.767 9.07787 126.835 9.14538C126.902 9.2129 126.94 9.30446 126.94 9.39994C126.94 9.49542 126.902 9.58699 126.835 9.6545C126.767 9.72201 126.676 9.75994 126.58 9.75994C126.485 9.75994 126.393 9.72201 126.325 9.6545C126.258 9.58699 126.22 9.49542 126.22 9.39994C126.22 9.30446 126.258 9.2129 126.325 9.14538C126.393 9.07787 126.485 9.03994 126.58 9.03994ZM129.88 52.2499C129.419 52.2499 128.969 52.1133 128.586 51.8573C128.202 51.6012 127.904 51.2373 127.727 50.8116C127.551 50.3858 127.505 49.9174 127.595 49.4654C127.685 49.0134 127.907 48.5982 128.232 48.2724C128.558 47.9465 128.974 47.7246 129.425 47.6347C129.877 47.5448 130.346 47.591 130.772 47.7673C131.197 47.9437 131.561 48.2423 131.817 48.6255C132.073 49.0086 132.21 49.4591 132.21 49.9199C132.21 50.2259 132.15 50.5289 132.033 50.8116C131.916 51.0943 131.744 51.3511 131.528 51.5675C131.311 51.7839 131.054 51.9555 130.772 52.0726C130.489 52.1897 130.186 52.2499 129.88 52.2499ZM141.74 46.5099H118V11.3699H141.73L141.74 46.5099Z" fill="#805097"/>
<path d="M141.73 11.3701H118.01V46.5101H141.73V11.3701Z" fill="white"/>
<path d="M129.88 47.8C129.317 47.8 128.777 48.0231 128.377 48.4204C127.978 48.8177 127.753 49.3569 127.75 49.92C127.763 50.4762 127.993 51.0053 128.391 51.394C128.789 51.7827 129.324 52.0002 129.88 52C130.435 52.0001 130.969 51.7823 131.365 51.3933C131.762 51.0044 131.99 50.4753 132 49.92C132 49.3578 131.777 48.8186 131.379 48.421C130.981 48.0234 130.442 47.8 129.88 47.8ZM129.88 51.6101C129.55 51.6099 129.227 51.5111 128.953 51.3264C128.679 51.1417 128.466 50.8795 128.342 50.5732C128.218 50.267 128.188 49.9307 128.257 49.6074C128.325 49.2841 128.488 48.9885 128.725 48.7584C128.962 48.5284 129.263 48.3744 129.588 48.3161C129.913 48.2578 130.248 48.2979 130.551 48.4312C130.853 48.5646 131.109 48.7851 131.285 49.0646C131.461 49.3441 131.55 49.6698 131.54 50C131.527 50.4316 131.346 50.8411 131.036 51.1417C130.727 51.4422 130.312 51.6102 129.88 51.6101Z" fill="white"/>
</g>
<defs>
<clipPath id="clip0_419_11">
<rect width="171.25" height="58.88" fill="white"/>
</clipPath>
</defs>
</svg>
