<svg width="172" height="59" viewBox="0 0 172 59" fill="none" xmlns="http://www.w3.org/2000/svg">
<g clip-path="url(#clip0_419_41)">
<path d="M141.8 0.5H29.44C13.4569 0.5 0.5 13.4569 0.5 29.44C0.5 45.4231 13.4569 58.38 29.44 58.38H141.8C157.783 58.38 170.74 45.4231 170.74 29.44C170.74 13.4569 157.783 0.5 141.8 0.5Z" fill="white" stroke="white" stroke-miterlimit="10"/>
<path d="M85.24 0.5H141.8C149.475 0.5 156.836 3.54903 162.264 8.97633C167.691 14.4036 170.74 21.7646 170.74 29.44C170.74 37.1154 167.691 44.4764 162.264 49.9037C156.836 55.331 149.475 58.38 141.8 58.38H85.24V0.5Z" fill="#805097" stroke="white" stroke-miterlimit="10"/>
<path d="M150.11 22.9099C150.134 21.4873 149.877 20.074 149.354 18.7508C148.831 17.4276 148.052 16.2206 147.062 15.1989C146.071 14.1771 144.889 13.3607 143.583 12.7963C142.277 12.232 140.873 11.9308 139.45 11.9099H112.19C110.768 11.9307 109.364 12.232 108.058 12.7965C106.753 13.361 105.571 14.1776 104.582 15.1995C103.593 16.2214 102.815 17.4285 102.293 18.7516C101.771 20.0747 101.515 21.4878 101.54 22.9099V35.9999C101.515 37.422 101.771 38.8352 102.293 40.1583C102.815 41.4814 103.593 42.6885 104.582 43.7103C105.571 44.7322 106.753 45.5488 108.058 46.1133C109.364 46.6778 110.768 46.9791 112.19 46.9999H139.45C140.873 46.9791 142.277 46.6778 143.583 46.1135C144.889 45.5491 146.071 44.7327 147.062 43.7109C148.052 42.6892 148.831 41.4822 149.354 40.159C149.877 38.8359 150.134 37.4225 150.11 35.9999V22.9099ZM134.11 30.4199L121.89 36.6399C121.41 36.9099 119.78 36.5499 119.78 35.9899V23.2199C119.78 22.6499 121.42 22.2899 121.9 22.5699L133.6 29.1199C134.06 29.4099 134.58 30.1399 134.08 30.4199H134.11Z" fill="white"/>
<path d="M55.07 28.83C55.07 34.21 55.23 39.59 55.07 44.97C55.07 46.22 54.47 46.87 53.53 46.86C52.59 46.85 51.9 46.07 51.9 44.86V13.51C51.8851 13.2135 51.8851 12.9165 51.9 12.62C51.8906 12.4036 51.9249 12.1875 52.001 11.9847C52.077 11.7818 52.1932 11.5965 52.3426 11.4396C52.492 11.2828 52.6715 11.1577 52.8704 11.0718C53.0693 10.986 53.2834 10.9411 53.5 10.94C53.7248 10.9342 53.9481 10.9767 54.155 11.0647C54.3619 11.1527 54.5474 11.2841 54.6991 11.4501C54.8508 11.616 54.9651 11.8126 55.0343 12.0265C55.1034 12.2404 55.1259 12.4666 55.1 12.69C55.08 18.07 55.07 23.45 55.07 28.83Z" fill="#805097"/>
<path d="M31.15 28.8999V15.4699C31.1481 15.0056 31.1715 14.5416 31.22 14.0799C31.238 13.6917 31.405 13.3253 31.6863 13.0571C31.9675 12.7889 32.3414 12.6395 32.73 12.6399C33.1303 12.6462 33.5158 12.7928 33.8191 13.0541C34.1225 13.3154 34.3245 13.6749 34.39 14.0699C34.3999 14.2364 34.3999 14.4034 34.39 14.5699C34.39 23.7899 34.39 33.0132 34.39 42.2399C34.3936 42.7377 34.3668 43.2353 34.31 43.7299C34.2944 44.1128 34.1279 44.4739 33.8468 44.7344C33.5657 44.9948 33.193 45.1334 32.81 45.1199C32.4059 45.128 32.015 44.9758 31.7227 44.6966C31.4304 44.4174 31.2605 44.0339 31.25 43.6299C31.18 41.5799 31.16 39.5199 31.14 37.4599C31.14 34.6099 31.14 31.7599 31.14 28.8999H31.15Z" fill="#805097"/>
<path d="M46.64 28.9301C46.64 25.8401 46.64 22.7501 46.64 19.6701C46.6023 19.2676 46.711 18.8651 46.9461 18.5363C47.1812 18.2075 47.527 17.9746 47.92 17.8801C48.2604 17.7872 48.6221 17.8117 48.9468 17.9496C49.2716 18.0875 49.5404 18.3307 49.71 18.6401C49.8908 18.9218 49.9685 19.2575 49.93 19.5901C49.93 25.5301 49.93 31.4701 49.93 37.4101C49.9287 37.7781 49.9019 38.1457 49.85 38.5101C49.8412 38.7195 49.7904 38.925 49.7004 39.1143C49.6105 39.3036 49.4833 39.4728 49.3265 39.6119C49.1697 39.751 48.9865 39.857 48.7878 39.9237C48.5891 39.9904 48.379 40.0164 48.17 40.0001C47.7553 39.9582 47.3707 39.7645 47.0901 39.4562C46.8096 39.1479 46.6528 38.7469 46.65 38.3301C46.6433 35.1834 46.64 32.0501 46.64 28.9301Z" fill="#805097"/>
<path d="M29.14 29C29.14 31.48 29.14 34 29.14 36.46C29.14 37.67 28.59 38.21 27.58 38.2C26.57 38.19 26 37.53 26 36.35V22C25.9801 21.6669 25.9801 21.333 26 21C26.0394 20.6018 26.2188 20.2304 26.5063 19.9521C26.7938 19.6737 27.1707 19.5065 27.57 19.48C27.7779 19.4838 27.983 19.529 28.1733 19.6128C28.3637 19.6965 28.5354 19.8173 28.6787 19.968C28.822 20.1187 28.9339 20.2964 29.0079 20.4907C29.082 20.685 29.1167 20.8921 29.11 21.1C29.16 23.75 29.14 26.37 29.14 29Z" fill="#805097"/>
<path d="M39.6 28.8901C39.6 30.8201 39.6 32.7401 39.6 34.6601C39.625 35.0615 39.5102 35.4593 39.275 35.7857C39.0398 36.112 38.6988 36.3468 38.31 36.4501C37.9894 36.5392 37.6485 36.5221 37.3385 36.4013C37.0284 36.2805 36.7658 36.0626 36.59 35.7801C36.378 35.5224 36.274 35.1927 36.3 34.8601V23.1301C36.2546 22.728 36.3575 22.3232 36.5896 21.9918C36.8216 21.6603 37.1667 21.425 37.56 21.3301C37.9179 21.2381 38.2965 21.2712 38.633 21.424C38.9695 21.5768 39.2437 21.84 39.41 22.1701C39.574 22.4762 39.6403 22.8251 39.6 23.1701V28.9301V28.8901Z" fill="#805097"/>
<path d="M60.26 28.7901C60.26 30.7901 60.26 32.7901 60.26 34.8501C60.2753 35.1423 60.2091 35.4329 60.0689 35.6897C59.9288 35.9465 59.72 36.1593 59.466 36.3045C59.212 36.4496 58.9227 36.5214 58.6303 36.5118C58.3379 36.5022 58.0539 36.4116 57.81 36.2501C57.5883 36.1037 57.4082 35.9025 57.2873 35.6659C57.1664 35.4293 57.1088 35.1655 57.12 34.9001C57.03 30.9001 57 26.9001 57.12 22.9001C57.1048 22.6932 57.1326 22.4854 57.2018 22.2899C57.271 22.0943 57.3799 21.9152 57.5218 21.7639C57.6638 21.6126 57.8355 21.4924 58.0262 21.4108C58.217 21.3293 58.4226 21.2882 58.63 21.2901C58.8505 21.2912 59.0686 21.3369 59.2711 21.4242C59.4736 21.5116 59.6564 21.6389 59.8086 21.7985C59.9607 21.9582 60.0791 22.1469 60.1567 22.3533C60.2343 22.5598 60.2694 22.7798 60.26 23.0001C60.27 25.0001 60.26 26.8701 60.26 28.7901Z" fill="#805097"/>
<path d="M44.74 28.8199C44.74 29.6799 44.74 30.5499 44.74 31.3999C44.7426 31.6166 44.7026 31.8317 44.6221 32.0329C44.5416 32.2341 44.4223 32.4175 44.2709 32.5726C44.1195 32.7276 43.9391 32.8514 43.7399 32.9367C43.5407 33.0221 43.3267 33.0673 43.11 33.0699C42.21 33.0699 41.62 32.4699 41.56 31.3799C41.41 29.6666 41.41 27.9433 41.56 26.2299C41.5596 26.0225 41.6017 25.8172 41.6837 25.6267C41.7656 25.4362 41.8857 25.2644 42.0365 25.122C42.1873 24.9796 42.3657 24.8696 42.5606 24.7988C42.7556 24.7279 42.9629 24.6977 43.17 24.7099C43.5857 24.7353 43.9761 24.9179 44.2621 25.2206C44.5481 25.5233 44.7082 25.9235 44.71 26.3399C44.71 26.4399 44.71 26.5399 44.71 26.6399V28.8199H44.74Z" fill="#805097"/>
<path d="M65.48 28.87C65.48 29.73 65.54 30.59 65.48 31.45C65.484 31.6666 65.4448 31.8817 65.3647 32.083C65.2845 32.2842 65.1651 32.4675 65.0133 32.622C64.8616 32.7766 64.6805 32.8993 64.4808 32.9831C64.2811 33.0669 64.0666 33.11 63.85 33.11C62.95 33.11 62.36 32.52 62.3 31.43C62.15 29.7166 62.15 27.9934 62.3 26.28C62.2997 26.0726 62.3417 25.8673 62.4237 25.6767C62.5057 25.4862 62.6257 25.3145 62.7766 25.1721C62.9274 25.0297 63.1057 24.9197 63.3007 24.8488C63.4956 24.7779 63.703 24.7477 63.91 24.76C64.3265 24.783 64.7184 24.9649 65.0049 25.2681C65.2913 25.5713 65.4507 25.9728 65.45 26.39C65.45 26.49 65.45 26.59 65.45 26.69V28.87H65.48Z" fill="#805097"/>
<path d="M24 28.8699C24 29.7299 24.05 30.5899 24 31.4499C24.004 31.6665 23.9648 31.8817 23.8846 32.0829C23.8045 32.2841 23.6851 32.4674 23.5333 32.6219C23.3815 32.7765 23.2005 32.8992 23.0008 32.983C22.801 33.0668 22.5866 33.1099 22.37 33.1099C21.47 33.1099 20.88 32.5199 20.82 31.4299C20.67 29.7165 20.67 27.9933 20.82 26.2799C20.8181 26.0721 20.8592 25.8661 20.9407 25.6749C21.0221 25.4836 21.1422 25.3113 21.2933 25.1686C21.4445 25.0259 21.6234 24.916 21.819 24.8457C22.0146 24.7753 22.2226 24.7461 22.43 24.7599C22.8518 24.7754 23.2511 24.954 23.544 25.258C23.8368 25.562 24.0003 25.9678 24 26.3899C24 26.4899 24 26.5899 24 26.6899V28.8699Z" fill="#805097"/>
</g>
<defs>
<clipPath id="clip0_419_41">
<rect width="171.24" height="58.88" fill="white"/>
</clipPath>
</defs>
</svg>
