<svg width="172" height="59" viewBox="0 0 172 59" fill="none" xmlns="http://www.w3.org/2000/svg">
<g clip-path="url(#clip0_419_58)">
<path d="M113.5 0.5H142.06C149.735 0.5 157.096 3.54903 162.524 8.97633C167.951 14.4036 171 21.7646 171 29.44C171 37.1154 167.951 44.4764 162.524 49.9037C157.096 55.331 149.735 58.38 142.06 58.38H113.5V0.5Z" fill="#805097" stroke="white" stroke-miterlimit="10"/>
<path d="M58 58.3799H29.44C25.6395 58.3799 21.8763 57.6313 18.3651 56.177C14.854 54.7226 11.6637 52.5909 8.97633 49.9036C6.289 47.2162 4.1573 44.0259 2.70293 40.5147C1.24855 37.0036 0.5 33.2403 0.5 29.4399C0.5 25.6394 1.24855 21.8762 2.70293 18.365C4.1573 14.8539 6.289 11.6635 8.97633 8.97621C11.6637 6.28888 14.854 4.15718 18.3651 2.70281C21.8763 1.24844 25.6395 0.499882 29.44 0.499882H58L58 58.3799Z" fill="#805097" stroke="white" stroke-miterlimit="10"/>
<path d="M115 0.5H57.5V58.38H115V0.5Z" fill="white" stroke="white" stroke-miterlimit="10"/>
<path d="M17.5854 42.6699V10.8829H33.8876C37.8837 10.8829 40.6991 11.8819 42.5609 13.7438C43.8324 15.0152 44.6044 16.6954 44.6044 18.8751V18.9659C44.6044 22.6441 42.5155 24.8238 39.7001 26.0499C43.56 27.3213 46.0121 29.501 46.0121 33.815V33.9058C46.0121 39.355 41.5619 42.6699 33.9784 42.6699H17.5854ZM26.1679 23.5523H31.708C34.3871 23.5523 35.8857 22.6441 35.8857 20.7823V20.6915C35.8857 18.9659 34.5234 17.9669 31.8896 17.9669H26.1679V23.5523ZM26.1679 35.586H32.9794C35.6586 35.586 37.2026 34.5415 37.2026 32.6797V32.5889C37.2026 30.8633 35.8403 29.7281 32.8886 29.7281H26.1679V35.586Z" fill="white"/>
<path d="M130.825 42.6699V10.8829H139.635V34.9502H155.029V42.6699H130.825Z" fill="white"/>
<path d="M81.6005 42.6699V18.6026H72.0644V10.8829H99.9462V18.6026H90.4101V42.6699H81.6005Z" fill="#805097"/>
</g>
<defs>
<clipPath id="clip0_419_58">
<rect width="171.5" height="58.88" fill="white"/>
</clipPath>
</defs>
</svg>
