<svg width="172" height="59" viewBox="0 0 172 59" fill="none" xmlns="http://www.w3.org/2000/svg">
<g clip-path="url(#clip0_419_148)">
<path d="M141.8 0.5H29.44C13.4569 0.5 0.5 13.4569 0.5 29.44C0.5 45.4231 13.4569 58.38 29.44 58.38H141.8C157.783 58.38 170.74 45.4231 170.74 29.44C170.74 13.4569 157.783 0.5 141.8 0.5Z" fill="white" stroke="white" stroke-miterlimit="10"/>
<path d="M116.24 0.5H56.24V58.38H116.24V0.5Z" fill="#805097" stroke="white" stroke-miterlimit="10"/>
<path d="M45.29 15.4601L45.39 15.8701C46.3149 19.0883 46.3149 22.5019 45.39 25.7201C45.33 25.7201 45.31 25.8001 45.39 25.8701C45.0697 26.2426 44.8678 26.7022 44.81 27.1901C44.4762 27.5051 44.252 27.9186 44.17 28.3701C44.0106 28.4698 43.8744 28.6027 43.7709 28.7597C43.6674 28.9168 43.5989 29.0942 43.57 29.2801C42.9959 29.7438 42.5772 30.3718 42.37 31.0801C42.2146 31.1839 42.0862 31.3234 41.9958 31.4869C41.9053 31.6504 41.8553 31.8333 41.85 32.0201C41.8142 32.0375 41.7861 32.0676 41.7713 32.1046C41.7565 32.1416 41.7561 32.1828 41.77 32.2201C41.4334 32.5681 41.2344 33.0265 41.21 33.5101C41.1988 33.5213 41.19 33.5345 41.1839 33.5491C41.1779 33.5637 41.1747 33.5793 41.1747 33.5951C41.1747 33.6109 41.1779 33.6265 41.1839 33.6411C41.19 33.6557 41.1988 33.669 41.21 33.6801C40.8217 34.2432 40.6253 34.9165 40.65 35.6001V36.0201C40.2683 37.1225 40.0493 38.2746 40 39.4401L39.63 40.3001C38.63 41.1001 40.28 41.6701 39.81 42.4201C39.7443 42.4951 39.6965 42.584 39.67 42.6801H22.73C22.73 42.1901 22.73 41.6801 22.66 41.2201C24.03 40.8401 22.86 40.3701 22.66 39.9401C22.6687 39.9237 22.674 39.9058 22.6757 39.8873C22.6773 39.8689 22.6753 39.8502 22.6697 39.8326C22.6642 39.8149 22.6551 39.7985 22.6432 39.7844C22.6312 39.7702 22.6165 39.7586 22.6 39.7501C22.5 39.0201 22.41 38.3001 22.31 37.5701C22.2324 35.8677 21.7854 34.2025 21 32.6901V32.5701C21.0069 32.4508 20.984 32.3317 20.9334 32.2234C20.8828 32.1152 20.806 32.0213 20.71 31.9501L20.41 31.3601C20.3478 30.9614 20.1326 30.6026 19.81 30.3601C19.8163 30.3451 19.8191 30.3289 19.8183 30.3126C19.8175 30.2964 19.8131 30.2805 19.8055 30.2662C19.7978 30.2519 19.7871 30.2394 19.7741 30.2297C19.761 30.22 19.746 30.2133 19.73 30.2101L19.48 29.8401L19.13 29.3201L18.82 29.0001L18.54 28.5601C18.54 28.4901 18.54 28.4501 18.47 28.4201C18.4499 28.2346 18.3915 28.0553 18.2985 27.8935C18.2056 27.7317 18.0801 27.591 17.93 27.4801C17.8834 26.9962 17.6757 26.5419 17.34 26.1901C17.3487 26.1758 17.3542 26.1599 17.3564 26.1434C17.3585 26.1269 17.3572 26.1101 17.3525 26.0941C17.3478 26.0781 17.3398 26.0633 17.3291 26.0505C17.3183 26.0378 17.305 26.0274 17.29 26.0201C17.2929 25.5117 17.1077 25.0202 16.77 24.6401L16.67 23.9401C16.34 21.7625 16.34 19.5477 16.67 17.3701L16.73 16.9501C17.0336 16.5564 17.2051 16.077 17.22 15.5801C17.22 15.4401 17.29 15.3001 17.33 15.1701C17.6347 14.8885 17.8237 14.5035 17.86 14.0901C17.93 14.0901 17.95 14.0101 17.91 13.9501C18.218 13.6963 18.4268 13.3424 18.5 12.9501C18.6569 12.8464 18.7916 12.7125 18.8963 12.5563C19.001 12.4001 19.0737 12.2246 19.11 12.0401L19.38 11.7001L19.63 11.3801C20.31 10.6901 20.99 10.0001 21.68 9.32011L22.03 9.02011L22.36 8.75011L22.77 8.47011C22.7937 8.47767 22.8186 8.48026 22.8433 8.47772C22.868 8.47519 22.8918 8.46758 22.9134 8.45537C22.935 8.44316 22.9539 8.42662 22.9688 8.40679C22.9837 8.38695 22.9943 8.36425 23 8.34011L23.3 8.12011L23.73 7.85011C23.7464 7.85642 23.7639 7.85935 23.7815 7.85872C23.799 7.85809 23.8162 7.85391 23.8321 7.84643C23.848 7.83895 23.8622 7.82834 23.8739 7.81522C23.8856 7.8021 23.8945 7.78676 23.9 7.77011L24.24 7.54011C24.3608 7.5527 24.4826 7.53014 24.5908 7.47514C24.699 7.42015 24.789 7.33506 24.85 7.23011C25.3465 7.18617 25.8143 6.97865 26.18 6.64011H26.25H26.3C30.0195 5.52543 34.009 5.72315 37.6 7.20011C37.6066 7.21587 37.6162 7.23018 37.6283 7.24223C37.6404 7.25427 37.6547 7.26382 37.6705 7.27032C37.6863 7.27682 37.7032 7.28015 37.7203 7.28011C37.7374 7.28008 37.7543 7.27668 37.77 7.27011C38.0246 7.57168 38.3799 7.77065 38.77 7.83011L39.3 8.14011L39.67 8.40011C39.8668 8.71752 40.1784 8.94677 40.54 9.04011L40.85 9.30011L41.16 9.57011L42.9 11.4001C42.9451 11.5797 43.0259 11.7485 43.1376 11.8962C43.2493 12.044 43.3895 12.1677 43.55 12.2601L43.8 12.6001C43.7945 12.7195 43.8225 12.838 43.8808 12.9422C43.9391 13.0465 44.0254 13.1324 44.13 13.1901C44.1919 13.5771 44.3863 13.9306 44.68 14.1901C44.6699 14.2233 44.6725 14.2591 44.6873 14.2905C44.7021 14.3219 44.728 14.3467 44.76 14.3601C44.7854 14.7821 44.9758 15.1773 45.29 15.4601ZM31.23 40.3701C32.48 40.3701 33.72 40.3701 34.96 40.3701C36.71 40.3701 37.58 39.6301 37.71 37.9001C38.0381 34.2237 39.3508 30.7037 41.51 27.7101C43.2298 25.2329 43.9821 22.2113 43.6247 19.2169C43.2672 16.2224 41.8247 13.4628 39.57 11.4601C37.317 9.45861 34.4149 8.34152 31.4013 8.31578C28.3877 8.29004 25.467 9.35739 23.18 11.3201C20.856 13.2847 19.3457 16.0434 18.9428 19.0597C18.5399 22.076 19.2732 25.1344 21 27.6401C23.1668 30.6942 24.4818 34.2699 24.81 38.0001C24.812 38.3262 24.8807 38.6485 25.0119 38.947C25.1431 39.2456 25.3341 39.5141 25.5729 39.7361C25.8118 39.9581 26.0936 40.1289 26.4009 40.2379C26.7083 40.347 27.0347 40.3919 27.36 40.3701C28.65 40.4001 29.94 40.3701 31.23 40.3701Z" fill="#805097"/>
<path d="M39.79 50.47C38.7491 50.4806 37.7206 50.6962 36.7631 51.1046C35.8056 51.513 34.9381 52.1061 34.21 52.85C32.02 54.85 28.51 53.94 26.84 51.44C26.6932 51.193 26.4811 50.9913 26.227 50.8572C25.9729 50.7231 25.6867 50.6618 25.4 50.68C24.4694 50.8209 23.5189 50.7491 22.62 50.47V49.27C22.6778 49.1948 22.7125 49.1045 22.72 49.01H39.72L39.87 49.59L39.79 50.47ZM29.58 50.8C30.0864 51.1751 30.6998 51.3776 31.33 51.3776C31.9602 51.3776 32.5736 51.1751 33.08 50.8C31.9202 50.6203 30.7397 50.6203 29.58 50.8Z" fill="#805097"/>
<path d="M39.7 43.5901C39.7 44.1901 39.7 44.7901 39.7 45.3901H22.7L22.59 45.1101V43.9301L22.68 43.6101L39.7 43.5901Z" fill="#805097"/>
<path d="M22.69 48.07L22.58 47.7701C22.58 47.2801 22.65 46.77 22.69 46.3C27.91 46.3 33.14 46.3 38.36 46.3C38.8448 46.3208 39.3236 46.4152 39.78 46.5801V47.85C39.3191 48.0235 38.8323 48.1181 38.34 48.1301L22.69 48.07Z" fill="#805097"/>
<path d="M142.8 49.07C139.8 49.07 139.74 49.07 139.18 46.15C139.156 45.8646 139.036 45.5957 138.84 45.387C138.644 45.1782 138.383 45.0419 138.1 45C137.669 44.934 137.254 44.7845 136.88 44.56C136.595 44.3108 136.262 44.1234 135.901 44.0099C135.54 43.8963 135.159 43.8591 134.783 43.9005C134.407 43.9418 134.044 44.0609 133.716 44.2502C133.388 44.4395 133.104 44.6948 132.88 45C132.07 45.82 131.36 45.81 130.56 44.86C129.682 43.8512 128.743 42.8961 127.75 42C127.32 41.6 127.21 41.23 127.64 40.81C129.23 39.22 129.32 37.61 128.26 35.57C128.06 35.0848 127.732 34.663 127.311 34.3495C126.89 34.0361 126.392 33.8427 125.87 33.79C123.35 33.35 123.87 33.87 123.79 31.37C123.79 30.37 123.79 29.31 123.79 28.29C123.79 27.27 124.08 26.97 124.95 26.95C126.83 26.9 127.81 26.07 128.56 24.2C128.902 23.5582 129.019 22.8202 128.892 22.1041C128.765 21.388 128.402 20.7352 127.86 20.25C127.1 19.44 127.19 18.83 128.03 18.12C128.98 17.2817 129.875 16.3832 130.71 15.43C131.26 14.81 131.71 14.63 132.38 15.25C133.8 16.66 135.2 16.72 137.09 15.85C137.701 15.6397 138.234 15.2489 138.618 14.7293C139.001 14.2097 139.219 13.5857 139.24 12.94C139.42 11.27 139.49 11.27 141.18 11.27C142.37 11.27 143.56 11.27 144.74 11.27C145.51 11.27 145.98 11.43 145.99 12.27C145.99 14.27 146.99 15.37 148.99 16.1C149.557 16.3581 150.188 16.4455 150.804 16.3513C151.42 16.2572 151.996 15.9857 152.46 15.57C153.85 14.52 153.88 14.57 155.09 15.75C155.94 16.59 156.75 17.46 157.64 18.24C158.24 18.77 158.31 19.24 157.77 19.82C156.39 21.24 156.27 22.61 157.14 24.53C157.329 25.1715 157.727 25.7314 158.27 26.121C158.814 26.5105 159.472 26.7073 160.14 26.68C161.51 26.68 161.86 27.34 161.76 28.61C161.68 29.8721 161.68 31.138 161.76 32.4C161.76 33.04 161.58 33.4 160.92 33.4C159.994 33.3567 159.082 33.645 158.349 34.2132C157.616 34.7813 157.109 35.5921 156.92 36.5C156.682 37.0495 156.605 37.6556 156.699 38.2472C156.793 38.8387 157.053 39.3913 157.45 39.84C158.75 41.61 158.67 41.07 157.24 42.56C156.39 43.45 155.5 44.29 154.68 45.2C154.24 45.69 153.85 45.75 153.39 45.3C152.781 44.5581 151.908 44.0818 150.954 43.9718C150.001 43.8617 149.042 44.1264 148.28 44.71C147.43 45.24 146.63 45.44 146.47 46.71C146.16 49.2 146.08 49.19 143.56 49.21L142.8 49.07ZM155.88 19.24C155.88 19.1 155.82 18.96 155.75 18.89C155.151 18.1596 154.447 17.5226 153.66 17C153.12 16.74 152.55 17.6 151.98 17.93C151.842 18.0074 151.711 18.0978 151.59 18.2C151.477 18.3336 151.338 18.4431 151.182 18.5218C151.026 18.6004 150.855 18.6468 150.681 18.658C150.506 18.6692 150.331 18.645 150.166 18.587C150.001 18.5289 149.849 18.4381 149.72 18.32C148.994 17.7668 148.154 17.384 147.26 17.2C145.26 16.96 144.51 15.86 144.48 14.02C144.48 13.17 144.04 12.83 143.19 12.96C142.875 13 142.555 13 142.24 12.96C141.24 12.82 140.75 13.18 140.76 14.22C140.76 15.94 140.05 17 138.21 17.22C137.695 17.2792 137.207 17.48 136.8 17.8C135.24 19.08 133.8 18.8 132.49 17.51C132.406 17.3863 132.291 17.2869 132.156 17.2218C132.022 17.1568 131.872 17.1284 131.723 17.1396C131.574 17.1507 131.431 17.201 131.307 17.2854C131.184 17.3697 131.085 17.4852 131.02 17.62C130.785 17.9383 130.506 18.2212 130.19 18.46C129.4 19.03 129.38 19.61 130.05 20.29C131.22 21.49 131.64 22.74 130.38 24.17C130.102 24.5114 129.926 24.9236 129.87 25.36C129.65 27.51 128.46 28.5 126.33 28.5C126.233 28.4901 126.135 28.5009 126.042 28.5317C125.949 28.5626 125.864 28.6127 125.792 28.6789C125.721 28.7451 125.664 28.8258 125.625 28.9156C125.587 29.0054 125.568 29.1024 125.57 29.2C125.26 31.7 125.4 31.94 127.83 32.36C127.947 32.3697 128.064 32.3697 128.18 32.36C128.94 32.36 129.28 32.78 129.42 33.51C129.575 34.6146 129.99 35.6666 130.63 36.58C130.85 36.8022 131.019 37.0687 131.128 37.3619C131.236 37.655 131.28 37.9679 131.257 38.2795C131.235 38.5912 131.145 38.8943 130.996 39.1687C130.846 39.443 130.64 39.6821 130.39 39.87C129.52 40.77 129.63 41.46 130.59 42.28C131.93 43.42 131.86 43.5 133.35 42.47C133.576 42.3273 133.794 42.1704 134 42C134.107 41.8844 134.235 41.7911 134.378 41.7255C134.521 41.6599 134.675 41.6232 134.833 41.6176C134.99 41.612 135.146 41.6376 135.294 41.693C135.441 41.7483 135.575 41.8323 135.69 41.94C136.624 42.616 137.697 43.0771 138.83 43.29C139.113 43.2881 139.394 43.3464 139.653 43.461C139.911 43.5756 140.143 43.7438 140.332 43.9546C140.521 44.1654 140.663 44.414 140.749 44.6839C140.835 44.9537 140.863 45.2387 140.83 45.52C140.83 45.71 140.95 45.91 140.95 46.1C140.95 47.18 141.53 47.36 142.47 47.31C144.91 47.19 144.34 47.7 144.84 45.31C144.879 45.156 144.902 44.9986 144.91 44.84C144.902 44.6645 144.929 44.4891 144.989 44.3241C145.049 44.159 145.141 44.0074 145.26 43.8782C145.379 43.7489 145.523 43.6446 145.682 43.5711C145.842 43.4976 146.014 43.4564 146.19 43.45C147.059 43.3497 147.892 43.0447 148.62 42.56C150.26 41.29 151.62 41.51 153.03 42.88C153.24 43.08 153.58 43.45 153.84 43.23C154.594 42.6564 155.266 41.9837 155.84 41.23C156.24 40.65 155.51 40.15 155.16 39.75C154.22 38.67 153.94 37.66 154.96 36.46C155.32 36.0293 155.552 35.5061 155.63 34.95C155.615 34.5093 155.697 34.0707 155.87 33.6653C156.044 33.2599 156.305 32.8978 156.634 32.6046C156.963 32.3115 157.353 32.0946 157.776 31.9694C158.199 31.8441 158.644 31.8136 159.08 31.88C159.178 31.8896 159.277 31.8796 159.371 31.8504C159.465 31.8213 159.553 31.7736 159.628 31.7103C159.703 31.647 159.765 31.5692 159.81 31.4816C159.855 31.394 159.883 31.2982 159.89 31.2C160.26 28.99 159.89 28.46 157.76 28.05C157.61 28.0056 157.456 27.9755 157.3 27.96C156.53 27.96 156.21 27.56 156.06 26.84C155.784 25.4767 155.24 24.1818 154.46 23.03C154.24 22.7796 154.124 22.4542 154.138 22.121C154.151 21.7879 154.291 21.4725 154.53 21.24C155 20.58 155.45 19.89 155.88 19.24Z" fill="#805097"/>
<path d="M131.73 30.1101C131.73 27.9345 132.375 25.8078 133.584 23.9988C134.793 22.1899 136.51 20.78 138.52 19.9474C140.53 19.1149 142.742 18.897 144.876 19.3215C147.01 19.7459 148.97 20.7936 150.508 22.3319C152.047 23.8703 153.094 25.8303 153.519 27.9641C153.943 30.0979 153.725 32.3096 152.893 34.3196C152.06 36.3296 150.65 38.0476 148.841 39.2563C147.032 40.465 144.906 41.1101 142.73 41.1101C139.813 41.1101 137.015 39.9512 134.952 37.8883C132.889 35.8254 131.73 33.0275 131.73 30.1101ZM142.67 39.2901C144.485 39.306 146.264 38.7822 147.781 37.7854C149.297 36.7886 150.484 35.3636 151.19 33.6913C151.895 32.019 152.088 30.1747 151.744 28.3926C151.399 26.6105 150.533 24.9709 149.255 23.6818C147.978 22.3928 146.346 21.5124 144.567 21.1524C142.788 20.7924 140.942 20.9691 139.263 21.66C137.585 22.3509 136.15 23.5248 135.139 25.0329C134.129 26.5409 133.59 28.315 133.59 30.1301C133.595 32.5441 134.551 34.8589 136.25 36.5734C137.95 38.2878 140.256 39.2638 142.67 39.2901Z" fill="#805097"/>
<path d="M85.8801 43.77C83.0701 43.77 80.2601 43.77 77.4501 43.77C76.4501 43.77 75.9901 43.47 75.9001 42.41C75.5101 37.69 75.8201 33.11 78.4001 28.94C78.708 28.2787 78.8191 27.5427 78.7201 26.82C78.7072 21.6697 79.7273 16.5692 81.7201 11.82C82.5517 9.96098 83.6243 8.21938 84.9101 6.64001C85.7101 5.64001 86.2201 5.75001 87.0001 6.64001C89.597 9.96008 91.3565 13.8565 92.1301 18C92.7879 21.0328 93.1231 24.1267 93.1301 27.23C93.0996 27.9037 93.259 28.5725 93.59 29.16C96.1301 33.45 96.4901 38.16 95.9201 42.94C95.8101 43.88 95.2301 43.83 94.5801 43.82L85.8801 43.77ZM83.0701 40.67C83.0701 41.55 83.5701 41.82 84.3901 41.78C85.3087 41.71 86.2314 41.71 87.1501 41.78C88.2601 41.91 88.6701 41.38 88.9901 40.43C90.7078 35.2199 91.3574 29.7169 90.9001 24.25C90.6754 19.3355 89.3057 14.5414 86.9001 10.25C85.9001 8.58001 85.8101 8.58001 84.84 10.25C81.95 15.25 80.98 20.65 80.84 26.25C80.6097 29.6796 80.9717 33.1233 81.9101 36.43L81.84 36.48V36.56C81.9724 37.9423 82.3768 39.2847 83.0301 40.51L83.0701 40.67ZM94.0701 39.56C94.015 37.9418 93.8344 36.3303 93.5301 34.74C93.5001 34.43 93.5001 34 93.0001 34C92.5001 34 92.5601 34.47 92.5201 34.76C92.247 36.4271 91.8628 38.0741 91.3701 39.69C90.6901 41.93 90.7501 42.03 93.0601 41.75C94.6901 41.58 93.6901 40.22 94.1101 39.56H94.0701ZM78.8301 33.84C78.4606 34.2662 78.2487 34.8063 78.2301 35.37C77.9783 36.7959 77.8611 38.2422 77.8801 39.69C77.8801 41.88 78.1201 42.04 80.3201 41.79C80.9501 41.71 81 41.5 80.84 40.96C80.17 38.65 79.5301 36.32 78.8301 33.84Z" fill="white"/>
<path d="M83.33 49.06C83.33 50.0599 83.33 51.0599 83.33 52.0599C83.33 52.6999 83.05 52.9 82.45 52.9C81.85 52.9 81.45 52.7999 81.45 52.0399C81.45 50.0399 81.45 48.0133 81.45 45.9599C81.45 45.1699 81.89 45.1399 82.45 45.1299C83.01 45.1199 83.33 45.3499 83.31 45.9799C83.31 46.9999 83.33 48.05 83.33 49.06Z" fill="white"/>
<path d="M85 49.0001C85 48.0001 85 47.0701 85 46.1001C85 45.4401 85.18 45.1001 85.9 45.1001C86.62 45.1001 86.9 45.2601 86.9 45.9901C86.9 47.9901 86.9 49.9901 86.9 51.9901C86.9 52.7201 86.58 52.8801 85.9 52.8901C85.22 52.9001 84.98 52.5901 85 51.8901C85.06 51.0001 85 50.0001 85 49.0001Z" fill="white"/>
<path d="M88.64 49.0001C88.64 48.0001 88.64 47.0601 88.64 46.1001C88.64 45.4101 88.87 45.1001 89.56 45.1001C90.25 45.1001 90.46 45.4201 90.46 46.1001C90.46 48.0401 90.46 49.9801 90.46 51.9101C90.46 52.5901 90.24 52.8601 89.54 52.8601C88.84 52.8601 88.63 52.5401 88.65 51.8601C88.66 51.0001 88.64 50.0001 88.64 49.0001Z" fill="white"/>
<path d="M82.61 26.05C81.8 24.51 81.49 22.95 82.51 21.39C83.0807 20.6838 83.8746 20.1929 84.7614 19.9977C85.6481 19.8026 86.5748 19.915 87.3893 20.3164C88.2037 20.7178 88.8573 21.3843 89.2427 22.2064C89.6281 23.0285 89.7223 23.9572 89.51 24.84C89.4 25.16 89.28 25.48 89.17 25.79L88.91 26.12L88.62 26.43L88.33 26.7L88.01 26.94C87.6303 27.0223 87.2828 27.2134 87.01 27.49H86.89C85.7259 27.6632 84.5369 27.4674 83.49 26.93L83.15 26.65L82.83 26.35L82.54 26.02L82.61 26.05ZM85.78 25.94C86.0962 25.9552 86.4123 25.905 86.7082 25.7925C87.0042 25.6799 87.2738 25.5075 87.5 25.286C87.7263 25.0644 87.9043 24.7985 88.023 24.505C88.1418 24.2114 88.1986 23.8965 88.19 23.58C88.2007 23.2652 88.1478 22.9514 88.0344 22.6576C87.921 22.3637 87.7495 22.0957 87.5301 21.8698C87.3106 21.6438 87.0478 21.4645 86.7574 21.3425C86.467 21.2205 86.1549 21.1584 85.84 21.16C85.2061 21.152 84.595 21.3962 84.1412 21.8388C83.6873 22.2814 83.4279 22.8861 83.42 23.52C83.412 24.1538 83.6562 24.7649 84.0988 25.2187C84.5413 25.6726 85.1461 25.932 85.78 25.94Z" fill="white"/>
</g>
<defs>
<clipPath id="clip0_419_148">
<rect width="171.24" height="58.88" fill="white"/>
</clipPath>
</defs>
</svg>
