<svg width="172" height="68" viewBox="0 0 172 68" fill="none" xmlns="http://www.w3.org/2000/svg">
<g clip-path="url(#clip0_419_165)">
<path d="M113.5 1.37988H142.06C149.735 1.37988 157.096 4.42891 162.524 9.85621C167.951 15.2835 171 22.6445 171 30.3199C171 37.9952 167.951 45.3563 162.524 50.7836C157.096 56.2109 149.735 59.2599 142.06 59.2599H113.5V1.37988Z" fill="#805097" stroke="white" stroke-miterlimit="10"/>
<path d="M58 59.2598H29.44C25.6395 59.2598 21.8763 58.5112 18.3651 57.0568C14.854 55.6025 11.6637 53.4708 8.97633 50.7834C6.289 48.0961 4.1573 44.9058 2.70293 41.3946C1.24855 37.8835 0.5 34.1202 0.5 30.3198C0.5 26.5193 1.24855 22.7561 2.70293 19.2449C4.1573 15.7337 6.289 12.5434 8.97633 9.85609C11.6637 7.16877 14.854 5.03706 18.3651 3.58269C21.8763 2.12832 25.6395 1.37976 29.44 1.37976H58L58 59.2598Z" fill="#805097" stroke="white" stroke-miterlimit="10"/>
<path d="M115 1.37988H57.5V59.2599H115V1.37988Z" fill="white" stroke="white" stroke-miterlimit="10"/>
<path d="M50.1522 21.8733L36.7454 9.57959L31.0683 15.7707L44.4751 28.0644L50.1522 21.8733Z" fill="white"/>
<path d="M37.09 40.2598L43.55 29.0898L30.13 16.7998L19.56 24.1898L19.5 24.2398L11.9 41.8798L15.51 45.1898L25.57 34.1898C25.4956 33.9551 25.4844 33.7048 25.5376 33.4644C25.5908 33.2239 25.7064 33.0017 25.8729 32.8203C26.0394 32.6388 26.2508 32.5045 26.4858 32.4308C26.7208 32.3571 26.971 32.3468 27.2113 32.4007C27.4516 32.4547 27.6734 32.5711 27.8543 32.7381C28.0353 32.9052 28.1689 33.117 28.2418 33.3523C28.3147 33.5875 28.3243 33.8378 28.2695 34.0779C28.2148 34.318 28.0977 34.5394 27.93 34.7198C27.7645 34.8999 27.5542 35.0327 27.3205 35.1047C27.0868 35.1768 26.8382 35.1854 26.6 35.1298L16.54 46.1298L20.15 49.4398L37 40.3098V40.2498L37.09 40.2598Z" fill="white"/>
<path d="M56 51.8198V57.8198H50L56 51.8198Z" fill="white"/>
<path d="M114 51.8198V57.8198H108L114 51.8198Z" fill="#805097"/>
<path d="M67.065 11.9762H105.838V24.4537H96.9698V20.432H93.6699V43.634H97.2791V52.0898H75.6239V43.634H79.2331V20.432H75.9333V24.4537H67.065V11.9762Z" fill="#805097"/>
<path d="M67.065 11.9762V11.4762H66.565V11.9762H67.065ZM105.838 11.9762H106.338V11.4762H105.838V11.9762ZM105.838 24.4537V24.9537H106.338V24.4537H105.838ZM96.9698 24.4537H96.4698V24.9537H96.9698V24.4537ZM96.9698 20.432H97.4698V19.932H96.9698V20.432ZM93.6699 20.432V19.932H93.1699V20.432H93.6699ZM93.6699 43.634H93.1699V44.134H93.6699V43.634ZM97.2791 43.634H97.7791V43.134H97.2791V43.634ZM97.2791 52.0898V52.5898H97.7791V52.0898H97.2791ZM75.6239 52.0898H75.1239V52.5898H75.6239V52.0898ZM75.6239 43.634V43.134H75.1239V43.634H75.6239ZM79.2331 43.634V44.134H79.7331V43.634H79.2331ZM79.2331 20.432H79.7331V19.932H79.2331V20.432ZM75.9333 20.432V19.932H75.4333V20.432H75.9333ZM75.9333 24.4537V24.9537H76.4333V24.4537H75.9333ZM67.065 24.4537H66.565V24.9537H67.065V24.4537ZM67.065 12.4762H105.838V11.4762H67.065V12.4762ZM105.338 11.9762V24.4537H106.338V11.9762H105.338ZM105.838 23.9537H96.9698V24.9537H105.838V23.9537ZM97.4698 24.4537V20.432H96.4698V24.4537H97.4698ZM96.9698 19.932H93.6699V20.932H96.9698V19.932ZM93.1699 20.432V43.634H94.1699V20.432H93.1699ZM93.6699 44.134H97.2791V43.134H93.6699V44.134ZM96.7791 43.634V52.0898H97.7791V43.634H96.7791ZM97.2791 51.5898H75.6239V52.5898H97.2791V51.5898ZM76.1239 52.0898V43.634H75.1239V52.0898H76.1239ZM75.6239 44.134H79.2331V43.134H75.6239V44.134ZM79.7331 43.634V20.432H78.7331V43.634H79.7331ZM79.2331 19.932H75.9333V20.932H79.2331V19.932ZM75.4333 20.432V24.4537H76.4333V20.432H75.4333ZM75.9333 23.9537H67.065V24.9537H75.9333V23.9537ZM67.565 24.4537V11.9762H66.565V24.4537H67.565Z" fill="white"/>
<path d="M151.916 20.3086L144.247 16.2637C142.196 15.1815 139.655 15.9674 138.573 18.0191L138.508 18.1429C137.426 20.1946 138.211 22.7351 140.263 23.8173L147.932 27.8622C149.983 28.9444 152.524 28.1585 153.606 26.1068L153.671 25.983C154.754 23.9313 153.968 21.3908 151.916 20.3086Z" fill="white"/>
<path d="M154.087 16.0433L148.078 27.4356L140.525 23.4514L146.534 12.059C147.053 11.0738 147.943 10.3353 149.007 10.0061C150.071 9.67688 151.223 9.7839 152.208 10.3036L152.332 10.3689C153.317 10.8886 154.056 11.7784 154.385 12.8425C154.714 13.9067 154.607 15.058 154.087 16.0433Z" fill="white"/>
<path d="M149.21 25.3108L137.448 47.609C136.929 48.5943 136.039 49.3327 134.975 49.6619C133.91 49.9911 132.759 49.8841 131.774 49.3644L131.65 49.2991C130.665 48.7794 129.926 47.8897 129.597 46.8255C129.268 45.7614 129.375 44.61 129.895 43.6248L141.656 21.3265L149.21 25.3108Z" stroke="white" stroke-miterlimit="10"/>
</g>
<defs>
<clipPath id="clip0_419_165">
<rect width="171.5" height="66.44" fill="white" transform="translate(0 0.879883)"/>
</clipPath>
</defs>
</svg>
