<svg width="174" height="60" viewBox="0 0 174 60" fill="none" xmlns="http://www.w3.org/2000/svg">
<g clip-path="url(#clip0_419_87)">
<path d="M144.06 1.37988H29.44C13.4569 1.37988 0.5 14.3368 0.5 30.3199C0.5 46.303 13.4569 59.2599 29.44 59.2599H144.06C160.043 59.2599 173 46.303 173 30.3199C173 14.3368 160.043 1.37988 144.06 1.37988Z" fill="white" stroke="white" stroke-miterlimit="10"/>
<path d="M172.5 30.1299C172.5 14.2517 159.628 1.37988 143.75 1.37988C127.872 1.37988 115 14.2517 115 30.1299V30.5099C115 46.3881 127.872 59.2599 143.75 59.2599C159.628 59.2599 172.5 46.3881 172.5 30.5099V30.1299Z" fill="#805097" stroke="white" stroke-miterlimit="10"/>
<path d="M1 30.5099C1 46.3881 13.8718 59.2599 29.75 59.2599C45.6282 59.2599 58.5 46.3881 58.5 30.5099L58.5 30.1299C58.5 14.2517 45.6282 1.37989 29.75 1.37989C13.8718 1.37989 1 14.2517 1 30.1299L1 30.5099Z" fill="#805097" stroke="white" stroke-miterlimit="10"/>
<path d="M100.77 13.7699C97.4949 10.8648 93.2873 9.22932 88.91 9.15991L88.8 26.0999L100.77 13.7699Z" fill="#805097"/>
<path d="M85.72 9.04993C73.72 9.04993 64.87 18.7699 64.87 30.7599C64.8687 33.6126 65.4296 36.4376 66.5207 39.0734C67.6117 41.7092 69.2116 44.1041 71.2287 46.1212C73.2459 48.1384 75.6408 49.7382 78.2766 50.8293C80.9123 51.9203 83.7373 52.4812 86.59 52.4799C95 52.4799 102.82 47.4799 105.7 41.1099L86.16 30.7599V9.05993L85.72 9.04993Z" fill="#805097"/>
<path d="M96.92 21.5598L93.78 31.5798L95.59 32.5498L100.05 18.3398L96.92 21.5598Z" fill="#805097"/>
<path d="M92.86 25.7199L91.42 30.3199L93.24 31.2899L95.99 22.5099L92.86 25.7199Z" fill="#805097"/>
<path d="M105.75 19.6899L100.83 35.3499L102.64 36.3499L107.04 22.3499C106.674 21.4334 106.243 20.5445 105.75 19.6899Z" fill="#805097"/>
<path d="M107.39 23.2198L103.18 36.6098L105 37.6098L108.32 27.0198C108.133 25.7262 107.822 24.4536 107.39 23.2198Z" fill="#805097"/>
<path d="M108.5 29.5299C108.5 29.1899 108.5 28.8566 108.5 28.5299L105.53 37.8799L106.6 38.4499C107.933 35.6697 108.584 32.6119 108.5 29.5299Z" fill="#805097"/>
<path d="M102.66 15.6599L101 17.3899L96.13 32.8799L97.94 33.8799L103.39 16.5099C103.15 16.1799 102.91 15.8799 102.66 15.6599Z" fill="#805097"/>
<path d="M89.43 29.2499L90.89 30.0299L91.94 26.6799L89.43 29.2499Z" fill="#805097"/>
<path d="M103.85 16.9799L98.48 34.0899L100.29 35.0899L105.29 19.0299C104.854 18.3169 104.373 17.6323 103.85 16.9799Z" fill="#805097"/>
<path d="M142.07 10.3199C136.07 10.9099 130.37 13.6299 130.12 20.2099C129.84 27.6099 136 29.7699 142.07 31.2099V39.4199C139.07 38.1099 138.98 34.6099 138.98 34.6099L128.78 35.7699C129.56 42.9299 135.78 45.5799 142.07 45.9899V48.7299H144.19V7.72986H142.06L142.07 10.3199ZM142.07 22.3199L141.48 22.0499C138.83 20.6799 139.2 17.9199 142.07 16.9199V22.3199Z" fill="white"/>
<path d="M157.66 28.4898C154.66 25.7898 150.46 24.5998 146.96 23.6998V17.0698C147.57 17.3598 148.11 17.7779 148.543 18.2957C148.976 18.8134 149.292 19.4186 149.47 20.0698L159.39 18.4298C158.27 13.8798 153.44 10.8798 147 10.2898V7.71985H145.28V48.7698H147V45.9398C149.885 45.7521 152.703 44.9905 155.29 43.6998C160.55 40.5198 162.67 32.8798 157.66 28.4898ZM147 39.7198V32.5898C149.44 33.4298 150.28 34.2398 150.67 35.5898C151.1 37.2598 149.92 39.0898 147 39.7198Z" fill="white"/>
<path d="M30.57 40.5099C40 40.0899 47.5 34.5999 47.5 27.8799C47.5 20.8799 39.39 15.2299 29.4 15.2299C19.41 15.2299 11.29 20.8799 11.29 27.8799C11.29 33.1899 15.98 37.7399 22.62 39.6099L19.62 47.6099L30.57 40.5099ZM18.28 23.7799H40.67V24.7799H18.28V23.7799ZM18.28 27.6999H40.67V28.6999H18.28V27.6999ZM18.28 32.6999V31.6999H30.28V32.6999H18.28Z" fill="white"/>
</g>
<defs>
<clipPath id="clip0_419_87">
<rect width="173.5" height="58.88" fill="white" transform="translate(0 0.879883)"/>
</clipPath>
</defs>
</svg>
