<svg width="172" height="60" viewBox="0 0 172 60" fill="none" xmlns="http://www.w3.org/2000/svg">
<g clip-path="url(#clip0_419_68)">
<path d="M142.06 1.37988H29.7C13.7169 1.37988 0.76001 14.3368 0.76001 30.3199C0.76001 46.303 13.7169 59.2599 29.7 59.2599H142.06C158.043 59.2599 171 46.303 171 30.3199C171 14.3368 158.043 1.37988 142.06 1.37988Z" fill="white" stroke="white" stroke-miterlimit="10"/>
<path d="M108.5 1.37988H142.06C149.735 1.37988 157.096 4.42891 162.524 9.85621C167.951 15.2835 171 22.6445 171 30.3199C171 37.9952 167.951 45.3563 162.524 50.7836C157.096 56.2109 149.735 59.2599 142.06 59.2599H108.5V1.37988Z" fill="#805097" stroke="white" stroke-miterlimit="10"/>
<path d="M62.5 59.2599L29.44 59.2599C21.7646 59.2599 14.4036 56.2109 8.97633 50.7836C3.54903 45.3563 0.5 37.9953 0.5 30.3199C0.5 22.6445 3.54903 15.2835 8.97633 9.85622C14.4036 4.42891 21.7646 1.37989 29.44 1.37989L62.5 1.37989L62.5 59.2599Z" fill="#805097" stroke="white" stroke-miterlimit="10"/>
<path d="M66.5601 7.73987V53.4599L105 53.5299V7.81987L66.5601 7.73987ZM100.15 33.7399V42.8799H71.4101V12.5899H100.15V12.6499V33.7399Z" fill="#805097"/>
<path d="M75.73 16.8799C75.1679 16.8779 74.6178 17.0428 74.1495 17.3537C73.6811 17.6645 73.3156 18.1074 73.0991 18.6261C72.8826 19.1449 72.8249 19.7162 72.9334 20.2678C73.0418 20.8194 73.3115 21.3263 73.7083 21.7245C74.1051 22.1227 74.6111 22.3942 75.1623 22.5046C75.7134 22.615 76.285 22.5593 76.8045 22.3447C77.324 22.13 77.7682 21.766 78.0807 21.2988C78.3932 20.8315 78.56 20.282 78.56 19.7199C78.56 18.9684 78.2622 18.2476 77.7317 17.7152C77.2013 17.1829 76.4815 16.8825 75.73 16.8799Z" fill="#805097"/>
<path d="M82.94 34.5199L77.51 29.3399L72.89 35.7499V41.5799H98.48V33.1299L90.09 23.9999L82.94 34.5199Z" fill="#805097"/>
<path d="M100.15 12.5898H71.41L100.15 12.6498V12.5898Z" fill="#805097"/>
<path d="M18 16.4399C17.5385 16.4399 17.096 16.6233 16.7696 16.9496C16.4433 17.2759 16.26 17.7185 16.26 18.1799V18.8199H24.26V18.1799C24.2613 17.9519 24.2176 17.7259 24.1312 17.5148C24.0449 17.3038 23.9176 17.1119 23.7569 16.9502C23.5961 16.7885 23.4049 16.6601 23.1944 16.5726C22.9838 16.485 22.758 16.4399 22.53 16.4399H18Z" fill="white"/>
<path d="M26.15 33.3899C26.15 35.0141 26.6318 36.6019 27.5344 37.9522C28.4369 39.3026 29.7198 40.3548 31.2205 40.9759C32.7213 41.597 34.3725 41.759 35.9654 41.4414C37.5583 41.1238 39.0211 40.3409 40.1689 39.1917C41.3167 38.0426 42.0978 36.5787 42.4135 34.9855C42.7291 33.3922 42.5651 31.7412 41.9422 30.2412C41.3193 28.7412 40.2654 27.4596 38.914 26.5587C37.5625 25.6578 35.9742 25.178 34.35 25.1799C33.2723 25.1799 32.2052 25.3924 31.2097 25.8051C30.2142 26.2178 29.3098 26.8227 28.5482 27.5852C27.7866 28.3477 27.1828 29.2528 26.7713 30.2489C26.3598 31.2449 26.1487 32.3123 26.15 33.3899ZM41.15 33.3899C41.1527 34.9482 40.6154 36.4593 39.6295 37.666C38.6436 38.8727 37.27 39.7005 35.7425 40.0086C34.215 40.3166 32.6279 40.0859 31.2514 39.3556C29.8748 38.6253 28.7938 37.4407 28.1924 36.0031C27.5909 34.5656 27.5061 32.9641 27.9524 31.4711C28.3987 29.9782 29.3486 28.686 30.6403 27.8144C31.9321 26.9429 33.4859 26.5458 35.0374 26.6909C36.5889 26.8359 38.0422 27.5141 39.15 28.6099C40.4086 29.8822 41.1131 31.6004 41.11 33.3899H41.15Z" fill="#805097"/>
<path d="M29.58 28.6098C28.4762 29.7216 27.7921 31.1818 27.6444 32.7416C27.4967 34.3013 27.8946 35.864 28.7701 37.1632C29.6457 38.4624 30.9448 39.4177 32.4459 39.8663C33.947 40.3149 35.5572 40.229 37.0021 39.6231C38.4469 39.0173 39.6369 37.9292 40.3692 36.5442C41.1015 35.1591 41.3308 33.563 41.0179 32.0278C40.7051 30.4927 39.8695 29.1136 38.6535 28.1256C37.4376 27.1376 35.9167 26.6019 34.35 26.6098C32.5578 26.6178 30.842 27.3372 29.58 28.6098Z" fill="white"/>
<path d="M42.75 20.2099C42.4786 19.0284 41.8147 17.9738 40.8666 17.2182C39.9185 16.4627 38.7423 16.0508 37.53 16.0499H31.11C29.8989 16.0513 28.7242 16.4635 27.7778 17.2191C26.8314 17.9748 26.1694 19.0292 25.9 20.2099H15.64C15.1595 20.2099 14.6837 20.305 14.2401 20.4898C13.7965 20.6746 13.3939 20.9455 13.0555 21.2866C12.7171 21.6278 12.4496 22.0327 12.2684 22.4777C12.0873 22.9228 11.996 23.3994 12 23.8799V42.9299C12 43.8953 12.3835 44.8212 13.0661 45.5038C13.7488 46.1864 14.6746 46.5699 15.64 46.5699H53C53.9654 46.5699 54.8912 46.1864 55.5739 45.5038C56.2565 44.8212 56.64 43.8953 56.64 42.9299V23.8799C56.644 23.3994 56.5527 22.9228 56.3716 22.4777C56.1904 22.0327 55.9229 21.6278 55.5845 21.2866C55.2461 20.9455 54.8435 20.6746 54.3999 20.4898C53.9563 20.305 53.4805 20.2099 53 20.2099H42.75ZM34.35 41.5899C32.7258 41.5899 31.1381 41.1082 29.7877 40.2056C28.4374 39.303 27.3851 38.0202 26.764 36.5194C26.1429 35.0187 25.9809 33.3674 26.2985 31.7746C26.6161 30.1817 27.399 28.7188 28.5482 27.571C29.6974 26.4233 31.1612 25.6421 32.7544 25.3265C34.3477 25.0108 35.9988 25.1748 37.4988 25.7978C38.9988 26.4207 40.2803 27.4745 41.1812 28.826C42.0822 30.1774 42.562 31.7657 42.56 33.3899C42.56 34.4676 42.3476 35.5347 41.9349 36.5302C41.5221 37.5258 40.9172 38.4302 40.1547 39.1917C39.3922 39.9533 38.4871 40.5571 37.4911 40.9686C36.4951 41.3801 35.4277 41.5912 34.35 41.5899ZM51.26 24.0399H47.44C47.2543 24.0399 47.0763 23.9662 46.945 23.8349C46.8138 23.7036 46.74 23.5256 46.74 23.3399C46.74 23.1543 46.8138 22.9762 46.945 22.845C47.0763 22.7137 47.2543 22.6399 47.44 22.6399H51.26C51.4456 22.6399 51.6237 22.7137 51.755 22.845C51.8862 22.9762 51.96 23.1543 51.96 23.3399C51.96 23.5256 51.8862 23.7036 51.755 23.8349C51.6237 23.9662 51.4456 24.0399 51.26 24.0399Z" fill="white"/>
<path d="M129.57 26.7798H121.71C121.481 26.7754 121.254 26.82 121.044 26.9108C120.834 27.0015 120.646 27.1363 120.492 27.3059C120.339 27.4756 120.223 27.6762 120.154 27.8942C120.085 28.1123 120.063 28.3427 120.09 28.5698L120 44.0098V44.1398C120.08 44.6491 120.335 45.1143 120.723 45.4542C121.11 45.7942 121.605 45.9873 122.12 45.9998H132.12C132.343 46.0066 132.564 45.9658 132.77 45.8802C132.976 45.7946 133.161 45.6662 133.313 45.5035C133.466 45.3408 133.582 45.1475 133.653 44.9365C133.725 44.7255 133.751 44.5017 133.73 44.2799L131.6 28.1898C131.441 27.7793 131.162 27.4258 130.801 27.1745C130.439 26.9233 130.01 26.7859 129.57 26.7798Z" fill="white"/>
<path d="M157 33.4498C156.957 32.9316 156.805 32.4284 156.553 31.9734C156.301 31.5183 155.956 31.1218 155.54 30.8098C155.829 30.6085 156.068 30.3449 156.241 30.0386C156.414 29.7322 156.516 29.3909 156.54 29.0398C156.599 28.3656 156.52 27.6865 156.309 27.0437C156.097 26.4008 155.757 25.8075 155.31 25.2998C154.927 24.8895 154.462 24.5644 153.945 24.3456C153.428 24.1268 152.871 24.0192 152.31 24.0298H145.15C145.15 23.0298 145.15 21.3698 145.21 19.9198C145.175 17.7439 144.399 15.645 143.01 13.9698C142.563 13.3699 141.912 12.9538 141.18 12.7998C140.98 12.7894 140.78 12.7894 140.58 12.7998C139.26 12.7998 137.7 13.3198 137.4 14.4798C137.307 15.0116 137.349 15.558 137.52 16.0698C137.804 17.0439 137.862 18.0699 137.69 19.0698C137.3 21.2698 133.98 26.5798 132.9 27.5598L135.14 44.0998C136.62 44.6798 140.02 45.9198 141.81 45.9198H150.76C151.37 45.9198 153.41 45.7898 154.02 44.0798C154.282 43.338 154.243 42.5228 153.91 41.8098V41.6098C154.421 41.4935 154.884 41.2262 155.241 40.8428C155.598 40.4593 155.831 39.9775 155.91 39.4598C156.012 38.979 156.015 38.4822 155.917 38.0005C155.818 37.5188 155.622 37.0624 155.34 36.6598C155.928 36.3779 156.408 35.912 156.708 35.3328C157.007 34.7536 157.11 34.0926 157 33.4498Z" fill="white"/>
</g>
<defs>
<clipPath id="clip0_419_68">
<rect width="171.5" height="58.88" fill="white" transform="translate(0 0.879883)"/>
</clipPath>
</defs>
</svg>
