<svg width="172" height="60" viewBox="0 0 172 60" fill="none" xmlns="http://www.w3.org/2000/svg">
<g clip-path="url(#clip0_419_107)">
<path d="M141.8 1.37988H29.44C13.4569 1.37988 0.5 14.3368 0.5 30.3199C0.5 46.303 13.4569 59.2599 29.44 59.2599H141.8C157.783 59.2599 170.74 46.303 170.74 30.3199C170.74 14.3368 157.783 1.37988 141.8 1.37988Z" fill="white" stroke="white" stroke-miterlimit="10"/>
<path d="M85.24 1.37988H141.8C149.475 1.37988 156.836 4.42891 162.264 9.85621C167.691 15.2835 170.74 22.6445 170.74 30.3199C170.74 37.9952 167.691 45.3563 162.264 50.7836C156.836 56.2109 149.475 59.2599 141.8 59.2599H85.24V1.37988Z" fill="#805097" stroke="white" stroke-miterlimit="10"/>
<path d="M106.43 42.83L102.87 45.88H149.2L145.76 42.83H144.65L147.57 45.35H104.47L107.49 42.83H106.43Z" fill="white"/>
<path d="M102.49 51.12H149.54C150.164 51.1161 150.768 50.9001 151.253 50.5075C151.738 50.1149 152.075 49.569 152.209 48.9595C152.343 48.35 152.265 47.7132 151.989 47.1535C151.713 46.5939 151.255 46.1448 150.69 45.88L146.69 42.32C147.489 42.2381 148.229 41.8623 148.767 41.2655C149.305 40.6686 149.602 39.8933 149.6 39.09V14.23C149.6 13.3644 149.257 12.5342 148.646 11.9213C148.035 11.3083 147.206 10.9626 146.34 10.96H105.71C104.843 10.96 104.011 11.3045 103.398 11.9177C102.785 12.531 102.44 13.3627 102.44 14.23V39.07C102.442 39.889 102.752 40.6773 103.307 41.2791C103.863 41.8809 104.624 42.2523 105.44 42.32L101.35 45.88C100.878 46.0995 100.477 46.4457 100.19 46.88C99.9253 47.2966 99.7772 47.7766 99.7611 48.2699C99.745 48.7632 99.8615 49.2518 100.098 49.6848C100.335 50.1178 100.684 50.4794 101.108 50.7318C101.532 50.9842 102.016 51.1182 102.51 51.12H102.49ZM103.57 49.27C103.426 49.2673 103.289 49.2082 103.188 49.1054C103.087 49.0025 103.03 48.8641 103.03 48.72C103.03 48.5767 103.087 48.4394 103.188 48.3381C103.289 48.2369 103.427 48.18 103.57 48.18C103.713 48.18 103.851 48.2369 103.952 48.3381C104.053 48.4394 104.11 48.5767 104.11 48.72C104.11 48.8641 104.053 49.0025 103.952 49.1054C103.851 49.2082 103.714 49.2673 103.57 49.27ZM105.73 49.27C105.586 49.2673 105.449 49.2082 105.348 49.1054C105.247 49.0025 105.19 48.8641 105.19 48.72C105.19 48.5767 105.247 48.4394 105.348 48.3381C105.449 48.2369 105.587 48.18 105.73 48.18C105.874 48.1799 106.013 48.2365 106.115 48.3375C106.218 48.4385 106.277 48.5758 106.28 48.72C106.28 48.8658 106.222 49.0057 106.119 49.1089C106.016 49.212 105.876 49.27 105.73 49.27ZM108.05 49.27C107.906 49.2673 107.769 49.2082 107.668 49.1054C107.567 49.0025 107.51 48.8641 107.51 48.72C107.51 48.5767 107.567 48.4394 107.668 48.3381C107.769 48.2369 107.907 48.18 108.05 48.18C108.193 48.18 108.331 48.2369 108.432 48.3381C108.533 48.4394 108.59 48.5767 108.59 48.72C108.59 48.8641 108.533 49.0025 108.432 49.1054C108.331 49.2082 108.194 49.2673 108.05 49.27ZM127.97 49.27H123.37C123.226 49.2673 123.089 49.2082 122.988 49.1054C122.887 49.0025 122.83 48.8641 122.83 48.72C122.83 48.5767 122.887 48.4394 122.988 48.3381C123.089 48.2369 123.227 48.18 123.37 48.18H128C128.144 48.1799 128.283 48.2365 128.385 48.3375C128.488 48.4385 128.547 48.5758 128.55 48.72C128.55 48.7922 128.536 48.8637 128.508 48.9304C128.481 48.9972 128.44 49.0578 128.389 49.1089C128.338 49.1599 128.277 49.2005 128.211 49.2281C128.144 49.2557 128.072 49.27 128 49.27H127.97ZM126 12.88C126.119 12.878 126.236 12.9115 126.336 12.9762C126.436 13.0409 126.514 13.1339 126.561 13.2433C126.608 13.3528 126.622 13.4737 126.6 13.5908C126.578 13.7078 126.521 13.8156 126.438 13.9006C126.354 13.9855 126.247 14.0436 126.131 14.0676C126.014 14.0916 125.893 14.0803 125.783 14.0352C125.673 13.9901 125.578 13.9132 125.512 13.8143C125.445 13.7154 125.41 13.5991 125.41 13.48C125.41 13.3225 125.472 13.1714 125.582 13.0592C125.693 12.947 125.843 12.8826 126 12.88ZM105.4 37.46V15.88H146.61V37.47L105.4 37.46ZM106.4 42.82H107.46L104.46 45.34H147.56L144.65 42.88H145.76L149.2 45.88H102.87L106.4 42.82Z" fill="white"/>
<path d="M29.1399 11.3098C28.5574 11.3085 27.9802 11.4221 27.4416 11.6442C26.903 11.8662 26.4134 12.1923 26.001 12.6038C25.5886 13.0153 25.2614 13.5041 25.0381 14.0422C24.8149 14.5803 24.6999 15.1572 24.7 15.7398V50.0598C24.6999 50.6424 24.8149 51.2193 25.0381 51.7574C25.2614 52.2956 25.5886 52.7844 26.001 53.1959C26.4134 53.6073 26.903 53.9334 27.4416 54.1555C27.9802 54.3775 28.5574 54.4911 29.1399 54.4898H67.3C67.8825 54.4911 68.4597 54.3775 68.9983 54.1555C69.5369 53.9334 70.0265 53.6073 70.4389 53.1959C70.8513 52.7844 71.1785 52.2956 71.4018 51.7574C71.625 51.2193 71.7399 50.6424 71.7399 50.0598V15.7398C71.7399 15.1572 71.625 14.5803 71.4018 14.0422C71.1785 13.5041 70.8513 13.0153 70.4389 12.6038C70.0265 12.1923 69.5369 11.8662 68.9983 11.6442C68.4597 11.4221 67.8825 11.3085 67.3 11.3098H65.7399V14.1098C65.7399 15.0116 65.3817 15.8764 64.7441 16.514C64.1065 17.1516 63.2417 17.5098 62.34 17.5098C61.4382 17.5098 60.5734 17.1516 59.9358 16.514C59.2982 15.8764 58.9399 15.0116 58.9399 14.1098V11.3098H37.49V14.1098C37.49 15.0116 37.1317 15.8764 36.4941 16.514C35.8565 17.1516 34.9917 17.5098 34.09 17.5098C33.1882 17.5098 32.3234 17.1516 31.6858 16.514C31.0482 15.8764 30.69 15.0116 30.69 14.1098V11.3098H29.1399ZM32 23.7298H64.4899C64.7119 23.7191 64.9339 23.7522 65.143 23.8273C65.3522 23.9025 65.5445 24.0181 65.7089 24.1677C65.8733 24.3172 66.0066 24.4977 66.1012 24.6989C66.1957 24.9 66.2497 25.1178 66.26 25.3398V47.5598C66.2497 47.7818 66.1957 47.9997 66.1012 48.2008C66.0066 48.4019 65.8733 48.5824 65.7089 48.732C65.5445 48.8815 65.3522 48.9972 65.143 49.0723C64.9339 49.1474 64.7119 49.1806 64.4899 49.1698H32C31.5506 49.1916 31.1109 49.0344 30.7773 48.7326C30.4437 48.4308 30.2432 48.0091 30.2199 47.5598V25.3398C30.2432 24.8906 30.4437 24.4688 30.7773 24.1671C31.1109 23.8653 31.5506 23.7081 32 23.7298Z" fill="#805097"/>
<path d="M32.47 7.30982V14.1098C32.4524 14.3339 32.4813 14.5593 32.555 14.7717C32.6287 14.984 32.7455 15.1789 32.8981 15.344C33.0507 15.509 33.2358 15.6407 33.4418 15.7308C33.6478 15.8209 33.8702 15.8674 34.095 15.8674C34.3198 15.8674 34.5421 15.8209 34.7481 15.7308C34.9541 15.6407 35.1392 15.509 35.2918 15.344C35.4444 15.1789 35.5612 14.984 35.6349 14.7717C35.7086 14.5593 35.7376 14.3339 35.72 14.1098V7.30982C35.7376 7.0857 35.7086 6.86037 35.6349 6.64798C35.5612 6.4356 35.4444 6.24075 35.2918 6.07568C35.1392 5.91062 34.9541 5.77891 34.7481 5.68883C34.5421 5.59875 34.3198 5.55225 34.095 5.55225C33.8702 5.55225 33.6478 5.59875 33.4418 5.68883C33.2358 5.77891 33.0507 5.91062 32.8981 6.07568C32.7455 6.24075 32.6287 6.4356 32.555 6.64798C32.4813 6.86037 32.4524 7.0857 32.47 7.30982Z" fill="#805097"/>
<path d="M60.72 7.30982V14.1098C60.7024 14.3339 60.7313 14.5593 60.805 14.7717C60.8787 14.984 60.9955 15.1789 61.1481 15.344C61.3007 15.509 61.4858 15.6407 61.6918 15.7308C61.8978 15.8209 62.1202 15.8674 62.345 15.8674C62.5698 15.8674 62.7921 15.8209 62.9981 15.7308C63.2041 15.6407 63.3892 15.509 63.5418 15.344C63.6944 15.1789 63.8112 14.984 63.8849 14.7717C63.9586 14.5593 63.9876 14.3339 63.97 14.1098V7.30982C63.9876 7.0857 63.9586 6.86037 63.8849 6.64798C63.8112 6.4356 63.6944 6.24075 63.5418 6.07568C63.3892 5.91062 63.2041 5.77891 62.9981 5.68883C62.7921 5.59875 62.5698 5.55225 62.345 5.55225C62.1202 5.55225 61.8978 5.59875 61.6918 5.68883C61.4858 5.77891 61.3007 5.91062 61.1481 6.07568C60.9955 6.24075 60.8787 6.4356 60.805 6.64798C60.7313 6.86037 60.7024 7.0857 60.72 7.30982Z" fill="#805097"/>
<path d="M41.8899 26.4998H33.2799V35.3098H41.8899V26.4998Z" fill="#805097"/>
<path d="M52.73 26.4998H44.12V35.3098H52.73V26.4998Z" fill="#805097"/>
<path d="M41.8899 37.3298H33.2799V46.1398H41.8899V37.3298Z" fill="#805097"/>
<path d="M52.73 37.3298H44.12V46.1398H52.73V37.3298Z" fill="#805097"/>
<path d="M63.97 26.4998H55.36V35.3098H63.97V26.4998Z" fill="#805097"/>
<path d="M63.97 37.3298H55.36V46.1398H63.97V37.3298Z" fill="#805097"/>
</g>
<defs>
<clipPath id="clip0_419_107">
<rect width="171.24" height="58.88" fill="white" transform="translate(0 0.879883)"/>
</clipPath>
</defs>
</svg>
