<svg width="172" height="60" viewBox="0 0 172 60" fill="none" xmlns="http://www.w3.org/2000/svg">
<g clip-path="url(#clip0_419_126)">
<path d="M141.81 0.819824H29.45C13.4669 0.819824 0.51001 13.7767 0.51001 29.7598C0.51001 45.7429 13.4669 58.6998 29.45 58.6998H141.81C157.793 58.6998 170.75 45.7429 170.75 29.7598C170.75 13.7767 157.793 0.819824 141.81 0.819824Z" fill="white" stroke="white" stroke-miterlimit="10"/>
<path d="M88.25 58.6997L29.44 58.6997C21.7646 58.6997 14.4036 55.6507 8.97633 50.2234C3.54903 44.7961 0.5 37.4351 0.5 29.7597C0.5 22.0843 3.54903 14.7233 8.97633 9.29604C14.4036 3.86873 21.7646 0.819706 29.44 0.819706L88.25 0.819706V58.6997Z" fill="#805097" stroke="white" stroke-miterlimit="10"/>
<path d="M23.49 22.5999L25.69 25.3299L47.6 52.4399L38.55 22.5999H23.49Z" fill="white"/>
<path d="M49.24 52.3699L71.09 25.3299L73.3 22.5999H59.1L49.24 52.3699Z" fill="white"/>
<path d="M64.76 8.1499H49.02L58.7 21.0899L64.76 8.1499Z" fill="white"/>
<path d="M31.2 8.62988L23.38 21.4899H38.02L31.2 8.62988Z" fill="white"/>
<path d="M73.41 21.4899L65.59 8.63989L59.58 21.4899H73.41Z" fill="white"/>
<path d="M47.79 8.1499H32.05L38.92 21.0999L47.79 8.1499Z" fill="white"/>
<path d="M48.41 8.99976L39.85 21.4898H57.75L48.41 8.99976Z" fill="white"/>
<path d="M48.41 53.4099L58.11 22.5999H39.53L48.41 53.4099Z" fill="white"/>
<path d="M57.25 46.2598C57.25 46.2598 61.25 42.2598 59.25 41.2598C57.1227 40.066 54.6264 39.7094 52.25 40.2598V43.2598L45.25 38.2598L52.25 33.2598V36.2598C52.25 36.2598 76.25 38.2598 57.25 46.2598Z" fill="white" stroke="#805097" stroke-miterlimit="10"/>
<path d="M38.75 37.7598C38.75 37.7598 34.75 41.7598 36.75 42.7598C38.8773 43.9535 41.3736 44.3102 43.75 43.7598V40.7598L50.75 45.7598L43.75 50.7598V47.7598C43.75 47.7598 19.75 45.7598 38.75 37.7598Z" fill="white" stroke="#805097" stroke-miterlimit="10"/>
<path d="M148.75 25.2598H121.75V52.2598H148.75V25.2598Z" fill="#805097"/>
<path d="M120.75 52.2598L102.75 36.2598V9.25977L120.75 25.2598V52.2598Z" fill="#805097"/>
<path d="M148.75 24.2598H121.75L103.75 8.25977H130.75L148.75 24.2598Z" fill="#805097"/>
</g>
<defs>
<clipPath id="clip0_419_126">
<rect width="171.25" height="58.88" fill="white" transform="translate(0 0.319824)"/>
</clipPath>
</defs>
</svg>
