<svg width="172" height="60" viewBox="0 0 172 60" fill="none" xmlns="http://www.w3.org/2000/svg">
<g clip-path="url(#clip0_419_201)">
<path d="M141.8 1.25977H29.44C13.4569 1.25977 0.5 14.2166 0.5 30.1998C0.5 46.1829 13.4569 59.1398 29.44 59.1398H141.8C157.783 59.1398 170.74 46.1829 170.74 30.1998C170.74 14.2166 157.783 1.25977 141.8 1.25977Z" fill="white" stroke="white" stroke-miterlimit="10"/>
<path d="M83.24 1.25977H141.8C149.475 1.25977 156.836 4.30879 162.264 9.7361C167.691 15.1634 170.74 22.5244 170.74 30.1998C170.74 37.8751 167.691 45.2361 162.264 50.6634C156.836 56.0907 149.475 59.1398 141.8 59.1398H83.24V1.25977Z" fill="#805097" stroke="white" stroke-miterlimit="10"/>
<path d="M143.92 37.1097C143.323 37.3065 142.744 37.5541 142.19 37.8497C142.034 37.9037 141.888 37.985 141.76 38.0897C141.383 38.265 141.067 38.5492 140.853 38.9057C140.639 39.2622 140.537 39.6746 140.56 40.0897C140.56 41.1497 140.56 42.2097 140.56 43.2597C140.56 43.4897 140.5 43.5497 140.28 43.5497C139.85 43.5497 139.41 43.5497 138.98 43.5497C138.834 43.5345 138.686 43.5345 138.54 43.5497C138.29 43.5497 138.21 43.5497 138.22 43.2397C138.23 42.9297 138.22 42.4297 138.22 42.0297V40.2797C138.287 39.9116 138.242 39.5317 138.09 39.1897C137.922 38.7578 137.602 38.4021 137.19 38.1897C136.4 37.7364 135.578 37.342 134.73 37.0097C134.548 36.9059 134.339 36.8616 134.131 36.8831C133.923 36.9047 133.726 36.9909 133.57 37.1297C132.864 37.6046 132.026 37.8456 131.176 37.8187C130.325 37.7918 129.505 37.4983 128.83 36.9797C128.751 36.9113 128.654 36.8681 128.551 36.8556C128.447 36.8431 128.343 36.862 128.25 36.9097C127.299 37.2579 126.376 37.6792 125.49 38.1697C125.015 38.4263 124.657 38.856 124.49 39.3697C124.433 39.5918 124.406 39.8205 124.41 40.0497C124.41 41.1297 124.41 42.2097 124.41 43.2997C124.41 43.5397 124.34 43.6097 124.1 43.5997C123.52 43.5997 122.94 43.5997 122.36 43.5997C122.13 43.5997 122.07 43.5497 122.07 43.3197C122.07 42.3197 122.07 41.4197 122.07 40.4797C122.135 39.9243 122.01 39.3633 121.716 38.8877C121.422 38.4121 120.976 38.0499 120.45 37.8597C119.68 37.4897 118.9 37.1597 118.1 36.8597C118.053 36.8232 117.995 36.8034 117.935 36.8034C117.875 36.8034 117.817 36.8232 117.77 36.8597C117.363 37.1702 116.911 37.4164 116.43 37.5897C115.962 37.7109 115.483 37.7879 115 37.8197C114.125 37.7577 113.286 37.4491 112.58 36.9297C112.48 36.8497 112.41 36.7597 112.25 36.8197C111.217 37.1846 110.214 37.6293 109.25 38.1497C108.902 38.3374 108.614 38.6206 108.421 38.966C108.228 39.3114 108.137 39.7047 108.16 40.0997C108.16 41.1597 108.16 42.2197 108.16 43.2797C108.16 43.5197 108.1 43.5897 107.86 43.5797C107.293 43.5797 106.723 43.5797 106.15 43.5797C105.9 43.5797 105.82 43.5297 105.82 43.2597C105.82 42.2597 105.82 41.2097 105.82 40.1797C105.847 39.757 105.751 39.3355 105.543 38.9664C105.336 38.5972 105.025 38.2961 104.65 38.0997C103.774 37.5939 102.865 37.1463 101.93 36.7597C101.873 36.7347 101.81 36.728 101.749 36.7406C101.688 36.7531 101.632 36.7843 101.59 36.8297C100.851 37.4171 99.9342 37.7367 98.99 37.7367C98.0457 37.7367 97.1293 37.4171 96.39 36.8297C96.3589 36.7901 96.3156 36.7618 96.2668 36.7491C96.218 36.7365 96.1664 36.7402 96.12 36.7597C95.035 37.1519 93.9901 37.6475 93 38.2397C92.94 38.2397 92.9 38.3297 92.85 38.3697C92.5965 38.5301 92.3977 38.7638 92.28 39.0397C92.2645 39.0617 92.2562 39.0879 92.2562 39.1147C92.2562 39.1416 92.2645 39.1678 92.28 39.1897C92.1543 39.4183 92.1053 39.6812 92.14 39.9397C92.14 41.0097 92.14 42.0797 92.14 43.1497C92.14 43.4897 92.06 43.5897 91.71 43.5697C91.17 43.5697 90.62 43.5697 90.08 43.5697C89.93 43.5697 89.8 43.5697 89.81 43.3797V42.8297C89.81 42.0097 89.81 41.1897 89.81 40.3697C89.7801 39.8317 89.8069 39.2921 89.89 38.7597L90.1 38.1397L90.66 37.2597L91.05 36.8397C91.8233 36.2248 92.6781 35.7199 93.59 35.3397H93.67H93.79C94.0143 35.2879 94.2299 35.2037 94.43 35.0897C94.72 35.0897 94.82 34.9697 94.7 34.6297C94.2889 33.5391 94.2349 32.346 94.5458 31.2226C94.8568 30.0993 95.5166 29.1038 96.43 28.3797C96.9379 27.9946 97.5256 27.7281 98.15 27.5997C98.25 27.5997 98.35 27.5997 98.41 27.4597C99.1441 26.393 100.193 25.5819 101.41 25.1397C101.79 24.9697 102.18 24.8097 102.58 24.6697C102.8 24.5997 102.83 24.5197 102.75 24.2897C102.4 23.3999 102.289 22.4337 102.43 21.4878C102.57 20.5419 102.956 19.6494 103.55 18.8997C104.017 18.2292 104.671 17.7106 105.43 17.4084C106.189 17.1061 107.02 17.0336 107.82 17.1997H107.92C108.482 17.3492 109.015 17.589 109.5 17.9097C110.185 18.447 110.742 19.1302 111.13 19.9097L111.52 21.0497C111.756 22.1716 111.666 23.3376 111.26 24.4097C111.17 24.6197 111.32 24.6097 111.42 24.6497C112.208 24.9504 112.976 25.3012 113.72 25.6997C114.149 25.9553 114.555 26.2499 114.93 26.5797C115.01 26.6497 115.07 26.7697 115.21 26.6397C116.241 25.7712 117.434 25.1152 118.72 24.7097C118.97 24.6097 118.99 24.5297 118.9 24.2897C118.503 23.2244 118.442 22.0632 118.724 20.9621C119.007 19.8609 119.619 18.8726 120.48 18.1297C120.938 17.7506 121.471 17.4711 122.043 17.3091C122.615 17.1472 123.215 17.1063 123.804 17.1891C124.393 17.2719 124.958 17.4766 125.464 17.79C125.969 18.1035 126.404 18.5189 126.74 19.0097C127.291 19.7579 127.646 20.6318 127.774 21.5521C127.901 22.4724 127.797 23.41 127.47 24.2797C127.39 24.5297 127.47 24.5997 127.66 24.6897C128.771 25.0684 129.819 25.6111 130.77 26.2997C130.94 26.4297 131.08 26.6997 131.27 26.6797C131.46 26.6597 131.6 26.4297 131.77 26.2997C132.75 25.5455 133.839 24.9452 135 24.5197C135.12 24.4697 135.24 24.4597 135.16 24.2497C134.806 23.3607 134.686 22.3961 134.81 21.4474C134.934 20.4987 135.299 19.5976 135.87 18.8297C135.866 18.7998 135.866 18.7696 135.87 18.7397L136.69 17.9297L136.88 17.7597C137.008 17.7177 137.125 17.6458 137.22 17.5497C137.839 17.2182 138.52 17.0206 139.22 16.9697C139.802 16.9832 140.378 17.0844 140.93 17.2697C141.722 17.6142 142.413 18.1549 142.938 18.8408C143.463 19.5268 143.804 20.3352 143.93 21.1897C144.123 22.1672 144.036 23.1792 143.68 24.1097C143.59 24.3597 143.68 24.4397 143.87 24.5297C144.773 24.8492 145.641 25.2614 146.46 25.7597C147.075 26.1478 147.6 26.6626 148 27.2697C148 27.3497 148.08 27.4297 148.19 27.4497C149.068 27.621 149.879 28.037 150.53 28.6497L151.01 29.2097C151.571 29.9783 151.93 30.8755 152.054 31.8191C152.178 32.7626 152.063 33.7222 151.72 34.6097C151.65 34.8097 151.72 34.8397 151.89 34.8897C152.908 35.258 153.881 35.7411 154.79 36.3297C155.399 36.7287 155.896 37.2776 156.232 37.9238C156.568 38.5699 156.733 39.2917 156.71 40.0197C156.71 41.0997 156.71 42.1797 156.71 43.2697C156.71 43.4997 156.65 43.5797 156.41 43.5697C155.84 43.5697 155.27 43.5697 154.69 43.5697C154.46 43.5697 154.38 43.5097 154.39 43.2697C154.39 42.2697 154.39 41.2697 154.39 40.2697C154.425 39.8417 154.333 39.4129 154.127 39.0362C153.921 38.6595 153.609 38.3513 153.23 38.1497C152.311 37.6436 151.355 37.209 150.37 36.8497C150.334 36.8229 150.29 36.8085 150.245 36.8085C150.2 36.8085 150.156 36.8229 150.12 36.8497C149.583 37.2883 148.948 37.5902 148.268 37.7295C147.589 37.8689 146.886 37.8415 146.22 37.6497C145.715 37.4596 145.24 37.1968 144.81 36.8697C144.774 36.8429 144.73 36.8285 144.685 36.8285C144.64 36.8285 144.596 36.8429 144.56 36.8697L143.92 37.1097ZM120.57 35.2797C120.712 35.3809 120.871 35.4555 121.04 35.4997C121.8 35.8554 122.504 36.3203 123.13 36.8797C123.26 37.0097 123.31 36.8797 123.38 36.8797C123.759 36.5192 124.187 36.213 124.65 35.9697C125.383 35.586 126.142 35.2519 126.92 34.9697C127 34.9697 127.19 34.9697 127.1 34.7397C126.755 33.8561 126.625 32.9034 126.72 31.9597C126.79 31.8197 126.72 31.6597 126.72 31.5197C126.847 31.2572 126.934 30.9776 126.98 30.6897C127.41 29.5424 128.222 28.5783 129.28 27.9597C128.522 27.4628 127.706 27.0599 126.85 26.7597C126.64 26.6797 126.42 26.5997 126.22 26.4997C126.153 26.4586 126.074 26.4412 125.996 26.4503C125.918 26.4593 125.846 26.4944 125.79 26.5497C125.054 27.1355 124.141 27.4543 123.2 27.4543C122.259 27.4543 121.346 27.1355 120.61 26.5497C120.567 26.5173 120.514 26.4997 120.46 26.4997C120.406 26.4997 120.353 26.5173 120.31 26.5497C119.51 26.8697 118.7 27.1697 117.92 27.5497C117.647 27.6664 117.394 27.825 117.17 28.0197C117.679 28.3192 118.133 28.705 118.51 29.1597C119.267 30.095 119.705 31.2478 119.76 32.4497C119.735 32.5886 119.735 32.7308 119.76 32.8697C119.721 33.5119 119.59 34.145 119.37 34.7497C119.31 34.8797 119.37 34.9297 119.46 34.9797L120.57 35.2797ZM99.83 29.9297C99.6022 29.7884 99.3419 29.7078 99.0741 29.6955C98.8063 29.6832 98.5398 29.7398 98.3 29.8597C97.9474 29.9715 97.6416 30.1965 97.43 30.4997C97.0842 30.8961 96.8457 31.3743 96.7372 31.889C96.6286 32.4036 96.6537 32.9375 96.81 33.4397C96.8246 33.6087 96.8758 33.7725 96.96 33.9197C97.0411 34.1425 97.1558 34.3516 97.3 34.5397C97.4669 34.7918 97.6887 35.0027 97.9489 35.1566C98.209 35.3106 98.5007 35.4036 98.8019 35.4286C99.1032 35.4536 99.4062 35.41 99.6882 35.3011C99.9702 35.1922 100.224 35.0208 100.43 34.7997C100.795 34.4139 101.057 33.9422 101.192 33.4284C101.326 32.9145 101.329 32.375 101.2 31.8597C101.174 31.5834 101.077 31.3184 100.92 31.0897C100.8 30.766 100.592 30.4821 100.32 30.2697C100.186 30.1194 100.018 30.0029 99.83 29.9297ZM145.29 33.3697C145.395 33.8457 145.629 34.2837 145.966 34.6363C146.303 34.9888 146.729 35.2425 147.2 35.3697C147.353 35.4144 147.517 35.4144 147.67 35.3697C148.196 35.2634 148.674 34.9915 149.034 34.5937C149.393 34.196 149.617 33.6935 149.67 33.1597C149.738 32.9918 149.762 32.8095 149.74 32.6297C149.786 32.2924 149.748 31.949 149.63 31.6297C149.7 31.4797 149.52 31.4197 149.49 31.2797C149.374 30.8283 149.118 30.4253 148.759 30.1288C148.399 29.8323 147.955 29.6575 147.49 29.6297C147.094 29.6036 146.701 29.7168 146.38 29.9497C145.871 30.3401 145.493 30.8771 145.298 31.4886C145.103 32.1001 145.1 32.7566 145.29 33.3697ZM107.71 19.4897C107.71 19.4097 107.71 19.4097 107.61 19.3897C107.303 19.2937 106.977 19.2792 106.663 19.3476C106.349 19.416 106.059 19.5649 105.82 19.7797C105.497 20.0789 105.237 20.4399 105.057 20.8413C104.876 21.2427 104.777 21.6763 104.767 22.1165C104.757 22.5566 104.835 22.9943 104.997 23.4037C105.159 23.8131 105.401 24.1858 105.71 24.4997C105.887 24.6796 106.098 24.8225 106.33 24.9201C106.563 25.0176 106.813 25.0678 107.065 25.0678C107.317 25.0678 107.567 25.0176 107.8 24.9201C108.032 24.8225 108.243 24.6796 108.42 24.4997C108.84 24.0928 109.14 23.5778 109.286 23.0115C109.433 22.4451 109.42 21.8494 109.25 21.2897C109.191 20.9686 109.061 20.6647 108.87 20.3997C108.757 20.1707 108.595 19.97 108.394 19.8124C108.193 19.6549 107.959 19.5446 107.71 19.4897ZM101 27.8897C101.24 28.0697 101.47 28.2097 101.67 28.3797C102.518 29.1097 103.124 30.0801 103.408 31.1623C103.692 32.2445 103.64 33.3875 103.26 34.4397C103.15 34.7597 103.21 34.8797 103.51 34.9497L103.64 34.9997C104.841 35.405 105.952 36.0402 106.91 36.8697C107.02 36.9697 107.07 36.9297 107.16 36.8697C107.25 36.8097 107.6 36.4997 107.83 36.3397C108.666 35.7852 109.57 35.3415 110.52 35.0197C110.95 34.8497 110.94 34.8597 110.81 34.4397C110.489 33.5387 110.406 32.5702 110.569 31.6277C110.732 30.6853 111.135 29.8008 111.74 29.0597C112.114 28.608 112.564 28.2255 113.07 27.9297C113.043 27.8972 113.012 27.8671 112.98 27.8397C112.036 27.2605 111.038 26.7749 110 26.3897C109.86 26.3297 109.79 26.3897 109.7 26.4897C108.969 27.0706 108.063 27.3868 107.13 27.3868C106.197 27.3868 105.291 27.0706 104.56 26.4897C104.502 26.4394 104.43 26.407 104.354 26.3963C104.278 26.3857 104.2 26.3973 104.13 26.4297C103.68 26.6297 103.22 26.7897 102.77 26.9797C102.146 27.2115 101.552 27.517 101 27.8897ZM133.32 27.8897C133.71 28.1073 134.068 28.3801 134.38 28.6997C135.09 29.4342 135.582 30.3509 135.803 31.3482C136.024 32.3455 135.964 33.3844 135.63 34.3497C135.5 34.7897 135.48 34.7897 135.91 34.9597C136.954 35.3339 137.94 35.8523 138.84 36.4997C139.02 36.6397 139.19 36.9097 139.35 36.9097C139.51 36.9097 139.72 36.6397 139.91 36.4997C140.856 35.82 141.902 35.2904 143.01 34.9297C143.25 34.8397 143.27 34.7597 143.19 34.5197C142.855 33.6351 142.751 32.6798 142.887 31.7437C143.024 30.8077 143.396 29.9219 143.97 29.1697C144.368 28.6492 144.864 28.2111 145.43 27.8797L145.03 27.6197C144.196 27.1751 143.334 26.7843 142.45 26.4497C142.362 26.4045 142.262 26.387 142.164 26.3995C142.066 26.412 141.974 26.4539 141.9 26.5197C141.278 27.0006 140.532 27.2946 139.75 27.3672C138.967 27.4398 138.18 27.2881 137.48 26.9297C137.14 26.7697 136.91 26.3497 136.48 26.4297C136.11 26.5383 135.749 26.6754 135.4 26.8397C134.68 27.1166 133.992 27.4721 133.35 27.8997L133.32 27.8897ZM125.51 22.3597C125.535 21.9171 125.471 21.4739 125.322 21.0564C125.172 20.639 124.94 20.2559 124.64 19.9297C124.458 19.7315 124.237 19.5732 123.991 19.4649C123.745 19.3566 123.479 19.3007 123.21 19.3007C122.941 19.3007 122.675 19.3566 122.429 19.4649C122.183 19.5732 121.962 19.7315 121.78 19.9297C121.228 20.5381 120.918 21.3271 120.907 22.1484C120.895 22.9697 121.185 23.7667 121.72 24.3897C121.902 24.5962 122.126 24.7615 122.377 24.8747C122.628 24.988 122.9 25.0465 123.175 25.0465C123.45 25.0465 123.722 24.988 123.973 24.8747C124.224 24.7615 124.448 24.5962 124.63 24.3897C125.18 23.8572 125.505 23.1345 125.54 22.3697L125.51 22.3597ZM141.69 22.1297C141.685 21.3231 141.382 20.5467 140.84 19.9497C140.658 19.7553 140.438 19.5992 140.195 19.4907C139.952 19.3822 139.689 19.3234 139.423 19.3178C139.156 19.3122 138.891 19.3599 138.644 19.4581C138.396 19.5563 138.17 19.7031 137.98 19.8897C137.428 20.4813 137.108 21.2528 137.081 22.0616C137.053 22.8705 137.319 23.6619 137.83 24.2897C137.997 24.5124 138.21 24.6962 138.455 24.8283C138.7 24.9604 138.971 25.0377 139.248 25.0548C139.526 25.0719 139.804 25.0284 140.064 24.9274C140.323 24.8264 140.557 24.6702 140.75 24.4697C141.061 24.1674 141.308 23.8049 141.474 23.4044C141.641 23.0038 141.725 22.5736 141.72 22.1397L141.69 22.1297ZM133.63 32.7597C133.671 31.9237 133.396 31.1028 132.86 30.4597C132.676 30.2437 132.448 30.0694 132.191 29.9483C131.935 29.8273 131.655 29.7622 131.371 29.7575C131.088 29.7527 130.806 29.8084 130.545 29.9209C130.285 30.0334 130.051 30.2 129.86 30.4097C129.342 31.0121 129.057 31.7802 129.057 32.5747C129.057 33.3692 129.342 34.1374 129.86 34.7397C130.036 34.9586 130.256 35.1368 130.507 35.262C130.759 35.3872 131.034 35.4565 131.314 35.4651C131.595 35.4736 131.874 35.4213 132.132 35.3116C132.39 35.2019 132.621 35.0375 132.81 34.8297C133.329 34.2641 133.621 33.5271 133.63 32.7597ZM112.85 32.3397C112.817 33.09 113.012 33.8328 113.41 34.4697C113.573 34.7489 113.802 34.9844 114.076 35.1559C114.35 35.3273 114.662 35.4298 114.984 35.4544C115.307 35.4789 115.631 35.4249 115.928 35.297C116.225 35.169 116.486 34.971 116.69 34.7197C117.19 34.1224 117.463 33.3685 117.463 32.5897C117.463 31.811 117.19 31.0571 116.69 30.4597C116.51 30.2346 116.282 30.0529 116.022 29.928C115.763 29.8031 115.478 29.7382 115.19 29.7382C114.902 29.7382 114.617 29.8031 114.358 29.928C114.098 30.0529 113.87 30.2346 113.69 30.4597C113.194 30.9616 112.896 31.6256 112.85 32.3297V32.3397Z" fill="white"/>
<path d="M67.18 47.7597H62.08H61.87C61.6913 47.7297 61.5088 47.7297 61.33 47.7597C60.4 47.7597 59.48 47.7597 58.56 47.7597C58.375 47.7248 58.1851 47.7248 58 47.7597H57.78H40.92C40.8196 47.7516 40.7192 47.774 40.6317 47.824C40.5443 47.8739 40.474 47.9491 40.43 48.0397C40.13 48.5697 39.83 49.0997 39.54 49.6297C39.25 50.1597 38.86 50.7297 38.54 51.2897L37.95 52.2397L36.22 49.9397C35.74 49.2897 35.22 48.6497 34.77 47.9397C34.7215 47.8656 34.6544 47.8054 34.5755 47.7651C34.4966 47.7247 34.4085 47.7057 34.32 47.7097C30.32 47.7097 26.32 47.7097 22.32 47.7097C21.7725 47.7378 21.2249 47.6559 20.7096 47.4686C20.1943 47.2814 19.7218 46.9928 19.32 46.6197L19 46.2697C18.7068 45.8485 18.4839 45.3824 18.34 44.8897V44.7797L18.28 44.4997V44.1197C18.28 44.1197 18.28 44.0597 18.28 44.0297V30.8797C18.3 30.7942 18.3 30.7052 18.28 30.6197C18.36 30.5297 18.28 30.4297 18.28 30.3397C18.3003 30.2712 18.3003 30.1983 18.28 30.1297V29.7597C18.28 29.0097 18.28 28.2497 18.28 27.4897C18.2949 27.4549 18.3025 27.4175 18.3025 27.3797C18.3025 27.3419 18.2949 27.3045 18.28 27.2697V26.0997C18.2998 26.0414 18.2998 25.9781 18.28 25.9197C18.28 25.7797 18.28 25.6297 18.28 25.4797V16.9697C18.2691 16.1019 18.5635 15.2578 19.1119 14.5851C19.6603 13.9124 20.4278 13.4539 21.28 13.2897C21.5496 13.2334 21.8246 13.2066 22.1 13.2097H31.1H31.38H31.55C32.08 13.2097 32.61 13.2097 33.15 13.2097H33.37H34.37H52.37H52.62H54C54.2022 13.2397 54.4078 13.2397 54.61 13.2097H55.61C55.8226 13.2347 56.0374 13.2347 56.25 13.2097H56.52C59.86 13.2097 63.19 13.2097 66.52 13.2097C67.2931 13.1603 68.0631 13.3459 68.7288 13.7421C69.3945 14.1383 69.9248 14.7266 70.25 15.4297C70.3782 15.7771 70.4753 16.1352 70.54 16.4997V16.9697C70.51 17.1887 70.51 17.4107 70.54 17.6297V18.9697C70.515 19.0918 70.515 19.2177 70.54 19.3397C70.54 19.5397 70.54 19.7397 70.54 19.9497C70.54 25.1297 70.54 30.3097 70.54 35.4897C70.5351 35.5797 70.5351 35.6698 70.54 35.7597C70.51 36.0189 70.51 36.2806 70.54 36.5397V38.4097C70.54 39.2197 70.54 40.0197 70.54 40.8197C70.54 41.8197 70.54 42.7397 70.54 43.6897C70.6009 44.5747 70.3503 45.4531 69.8316 46.1727C69.3129 46.8923 68.5588 47.4077 67.7 47.6297H67.59L67.37 47.6797L67.18 47.7597ZM68.63 41.8897C68.63 40.8897 68.63 39.8897 68.63 38.9597C68.6599 38.8314 68.6599 38.698 68.63 38.5697C68.66 38.2939 68.66 38.0156 68.63 37.7397C68.665 37.2236 68.665 36.7058 68.63 36.1897C68.6352 36.1065 68.6352 36.023 68.63 35.9397V17.0397C68.6477 16.7725 68.6081 16.5046 68.5138 16.2539C68.4196 16.0033 68.2728 15.7756 68.0835 15.5863C67.8941 15.3969 67.6665 15.2502 67.4158 15.1559C67.1651 15.0617 66.8972 15.022 66.63 15.0397H22.13C21.8628 15.022 21.5949 15.0617 21.3442 15.1559C21.0936 15.2502 20.8659 15.3969 20.6766 15.5863C20.4872 15.7756 20.3405 16.0033 20.2462 16.2539C20.152 16.5046 20.1123 16.7725 20.13 17.0397V43.0397C20.13 43.1397 20.13 43.2297 20.13 43.3197C20.1175 43.3463 20.1111 43.3753 20.1111 43.4047C20.1111 43.4341 20.1175 43.4631 20.13 43.4897C20.1199 43.6729 20.1199 43.8565 20.13 44.0397C20.1396 44.4292 20.2726 44.8057 20.5098 45.1148C20.747 45.4239 21.0762 45.6497 21.45 45.7597C21.5851 45.8409 21.7453 45.8694 21.9 45.8397C21.9781 45.8643 22.0619 45.8643 22.14 45.8397H35.32C35.3922 45.8334 35.4648 45.8468 35.5299 45.8785C35.5951 45.9102 35.6504 45.959 35.69 46.0197C36.04 46.5097 36.42 47.0197 36.78 47.4697C36.9631 47.7423 37.1636 48.0028 37.38 48.2497L37.78 48.8197C38.33 47.8997 38.86 47.0297 39.36 46.1397C39.4082 46.0395 39.4855 45.9563 39.5819 45.9009C39.6783 45.8456 39.7892 45.8208 39.9 45.8297C40.9 45.8297 41.79 45.8297 42.74 45.8297C42.8885 45.8596 43.0415 45.8596 43.19 45.8297C43.4461 45.8545 43.7039 45.8545 43.96 45.8297C44.0476 45.8594 44.1425 45.8594 44.23 45.8297H59.92H62.87C63.55 45.8297 64.23 45.8297 64.87 45.8297C65.5362 45.8644 66.2038 45.8644 66.87 45.8297C67.3224 45.8075 67.7501 45.6165 68.0685 45.2943C68.387 44.9722 68.573 44.5424 68.59 44.0897C68.59 43.4697 68.59 42.8397 68.59 42.2197C68.6319 42.1012 68.6456 41.9745 68.63 41.8497V41.8897Z" fill="#805097"/>
<path d="M47.5 16.6599C47.6412 16.6177 47.7734 16.5499 47.89 16.4599C48.09 16.3199 48.17 16.3599 48.14 16.6099C48.135 16.6631 48.135 16.7166 48.14 16.7699C48.11 17.019 48.11 17.2708 48.14 17.5199C48.115 17.7157 48.115 17.914 48.14 18.1099C48.1099 18.2246 48.1099 18.3451 48.14 18.4599C48.14 19.1499 48.14 19.8399 48.14 20.5299C48.14 21.6699 48.14 22.8099 48.14 23.9599C48.14 24.1799 48.21 24.2299 48.42 24.2299C49.0968 24.1719 49.7783 24.2571 50.42 24.4799C51.1789 24.7753 51.8203 25.311 52.2462 26.0052C52.672 26.6994 52.859 27.5139 52.7785 28.3243C52.6981 29.1347 52.3546 29.8966 51.8005 30.4934C51.2464 31.0903 50.5122 31.4894 49.71 31.6299C49.21 31.7099 48.71 31.6299 48.2 31.6899C48.2 31.6899 48.13 31.6899 48.14 31.6899C48.14 32.0599 48.14 32.4199 48.14 32.7899C48.14 33.9299 48.14 35.0799 48.14 36.2199C48.1101 36.365 48.1101 36.5147 48.14 36.6599C48.115 36.8457 48.115 37.034 48.14 37.2199C48.11 37.4589 48.11 37.7008 48.14 37.9399C48.11 38.2291 48.11 38.5206 48.14 38.8099H48.03C47.52 38.5599 47.03 38.3199 46.48 38.1099C46.3247 38.0459 46.1641 37.9957 46 37.9599C44.82 37.4199 43.61 36.9599 42.4 36.5099C40.5824 35.8027 38.7093 35.2475 36.8 34.8499C36.2066 34.7359 35.6042 34.6756 35 34.6699C34.94 34.7499 35 34.7899 35 34.8399L36.18 36.6099C36.27 36.7399 36.29 36.8199 36.12 36.9199C35.71 37.1699 35.3 37.4499 34.91 37.7299C34.76 37.8299 34.7 37.7999 34.61 37.6599C34 36.7199 33.38 35.7899 32.75 34.8599C32.6242 34.7696 32.4808 34.707 32.3292 34.6759C32.1776 34.6449 32.0211 34.6463 31.87 34.6799C31.79 34.7399 31.87 34.8199 31.87 34.8799C32.15 36.5099 32.44 38.1399 32.73 39.7699C32.91 40.7699 33.09 41.8199 33.28 42.8399C33.28 43.0399 33.28 43.0699 33.08 43.0699C31.4533 43.0699 29.8233 43.0699 28.19 43.0699C28.1278 43.0785 28.0646 43.0624 28.0142 43.025C27.9637 42.9876 27.9299 42.9319 27.92 42.8699C27.79 42.5099 27.66 42.1499 27.52 41.7899C27.34 41.1899 27.12 40.5999 26.9 40.0199C26.8143 39.7193 26.7074 39.4252 26.58 39.1399C26.5659 39.0221 26.5249 38.9092 26.46 38.8099L25.17 35.1199C25.1424 35.0616 25.119 35.0015 25.1 34.9399C25.1 34.6999 24.93 34.6699 24.72 34.6699C23.994 34.6516 23.3037 34.351 22.7958 33.8319C22.2878 33.3128 22.0024 32.6161 22 31.8899C22 30.2299 22 28.5599 22 26.8899C22 26.7899 22 26.6899 22 26.5899C22.0248 26.4813 22.0248 26.3685 22 26.2599C22.025 25.7802 22.025 25.2995 22 24.8199V24.0999V23.9399C22.1274 23.0865 22.5273 22.2973 23.14 21.6899L23.55 21.3499L24.29 20.9399C24.6609 20.8071 25.0475 20.7231 25.44 20.6899C25.81 20.6899 26.19 20.6899 26.56 20.6899C26.7626 20.7149 26.9674 20.7149 27.17 20.6899H28.7C30.57 20.6899 32.44 20.6899 34.31 20.6899C36.1163 20.7072 37.9144 20.444 39.64 19.9099C42.2134 19.1407 44.7106 18.1365 47.1 16.9099L47.5 16.6599ZM46.24 22.8899V22.8299C46.2549 22.804 46.2628 22.7747 46.2628 22.7449C46.2628 22.715 46.2549 22.6857 46.24 22.6599C46.27 22.2704 46.27 21.8793 46.24 21.4899C46.2712 21.3482 46.2712 21.2015 46.24 21.0599C46.275 20.7274 46.275 20.3923 46.24 20.0599C46.2652 19.8406 46.2652 19.6191 46.24 19.3999C46.0355 19.4716 45.838 19.562 45.65 19.6699C45.5531 19.6825 45.4624 19.7243 45.39 19.7899C45.1596 19.8565 44.938 19.9505 44.73 20.0699L42.83 20.8099C40.2664 21.8702 37.5327 22.4596 34.76 22.5499C34.62 22.5499 34.6 22.6099 34.6 22.7299C34.6 24.6199 34.6 26.4999 34.6 28.3899V30.7599C34.6 31.3799 34.6 31.9899 34.6 32.6099C34.6 32.7299 34.6 32.8199 34.78 32.7599C35.38 32.7599 35.98 32.7599 36.58 32.8899C37.5517 33.0553 38.5132 33.2756 39.46 33.5499C41.6841 34.2085 43.8678 34.9965 46 35.9099C46.31 36.0399 46.31 36.0399 46.31 35.6999V23.8699C46.31 23.6699 46.31 23.4599 46.31 23.2599C46.3225 23.1324 46.2982 23.004 46.24 22.8899ZM24.72 22.8899C24.5168 22.9953 24.3497 23.1589 24.24 23.3599C23.9421 23.8182 23.8179 24.368 23.89 24.9099C23.89 25.1099 23.94 25.1599 24.13 25.1599C24.91 25.1599 25.68 25.1599 26.45 25.1599C26.65 25.1599 26.7 25.2199 26.7 25.3999C26.7 25.8732 26.7 26.3432 26.7 26.8099C26.7 26.9999 26.65 27.0399 26.46 27.0399H24.11C23.93 27.0399 23.88 27.0999 23.89 27.2699C23.89 27.7432 23.89 28.2132 23.89 28.6799C23.89 28.8699 23.95 28.9099 24.12 28.9099H26.44C26.66 28.9099 26.7 28.9799 26.7 29.1799C26.7 29.6399 26.7 30.0999 26.7 30.5599C26.7 30.7399 26.64 30.7899 26.46 30.7799C25.71 30.7799 24.95 30.7799 24.2 30.7799C23.97 30.7799 23.86 30.7799 23.89 31.0799C23.92 31.3799 23.89 31.5399 23.89 31.7699C23.8789 31.9078 23.8966 32.0464 23.9419 32.1772C23.9871 32.3079 24.059 32.4278 24.153 32.5293C24.247 32.6308 24.361 32.7117 24.4879 32.7669C24.6147 32.822 24.7517 32.8503 24.89 32.8499H32.49C32.67 32.8499 32.7 32.8499 32.7 32.6299V22.7599C32.7 22.6099 32.7 22.5599 32.51 22.5599H25.69C25.3373 22.5482 24.9924 22.6655 24.72 22.8899ZM27.08 34.6699C27.33 35.3899 27.57 36.0599 27.81 36.7299C28.31 38.1499 28.81 39.5599 29.32 40.9699C29.32 41.0799 29.37 41.2099 29.56 41.1999C30.04 41.1999 30.56 41.1999 31 41.1999C31.12 41.1999 31.16 41.1999 31.14 41.0399C31.12 40.8799 31.06 40.6199 31.02 40.4099C30.69 38.5599 30.36 36.6999 30.02 34.8499C30.02 34.7099 29.94 34.6699 29.8 34.6699H27.08ZM48.14 27.9499C48.14 28.4999 48.14 29.0499 48.14 29.5999C48.14 29.7599 48.14 29.8199 48.34 29.8099C48.54 29.7999 48.87 29.8099 49.14 29.8099C49.5781 29.8029 49.9996 29.6407 50.3293 29.3521C50.659 29.0634 50.8755 28.6672 50.9404 28.2338C51.0052 27.8004 50.9141 27.3581 50.6833 26.9856C50.4525 26.6132 50.0969 26.3347 49.68 26.1999C49.241 26.0985 48.7896 26.0614 48.34 26.0899C48.19 26.0899 48.14 26.0899 48.14 26.2899C48.14 26.8399 48.14 27.3999 48.14 27.9499Z" fill="#805097"/>
<path d="M64.21 23.3797C64.1123 22.9024 63.9402 22.4435 63.7 22.0197C63.0448 20.628 62.1282 19.3753 61 18.3297C60.8 18.1397 60.78 18.0197 61 17.8197C61.3238 17.5342 61.631 17.2304 61.92 16.9097C62.06 16.7697 62.12 16.7697 62.26 16.9097C64.0332 18.5531 65.3641 20.6165 66.13 22.9097C66.1742 23.1306 66.2447 23.3455 66.34 23.5497C66.5301 24.3334 66.6703 25.1283 66.76 25.9297C67.1022 29.4145 66.1165 32.9001 64 35.6897C63.4397 36.4001 62.828 37.0686 62.17 37.6897C62.05 37.8197 61.99 37.7997 61.88 37.6897C61.54 37.3297 61.19 36.9897 60.88 36.6897C60.75 36.5697 60.77 36.5097 60.88 36.3897C61.8419 35.5176 62.6677 34.5064 63.33 33.3897C64.6386 31.1323 65.1757 28.5098 64.86 25.9197C64.8419 25.6561 64.7984 25.3949 64.73 25.1397C64.6918 24.6977 64.5802 24.2651 64.4 23.8597C64.4 23.8597 64.4 23.7997 64.4 23.7897V23.6397C64.4 23.6397 64.4 23.5897 64.34 23.5797C64.28 23.5697 64.32 23.3997 64.21 23.3797Z" fill="#805097"/>
<path d="M63.05 26.9799C63.0968 28.4507 62.8274 29.9145 62.2598 31.2722C61.6922 32.6299 60.8397 33.85 59.76 34.8499C59.37 35.2099 59.38 35.2199 59.02 34.8499C58.66 34.4799 58.49 34.3099 58.21 34.0499C57.93 33.7899 58.09 33.8399 58.21 33.7099C58.9603 33.039 59.5983 32.2524 60.1 31.3799C60.8103 30.1054 61.1789 28.6689 61.17 27.2099C61.17 27.1099 61.17 26.9899 61.1 26.8999V26.5799C61.1 26.4299 61.2 26.2699 61.1 26.1299C61.0807 25.5594 60.9587 24.9971 60.74 24.4699C60.6255 24.0976 60.4642 23.7415 60.26 23.4099C59.8574 22.6131 59.3194 21.8923 58.67 21.2799C58.5 21.1099 58.19 20.9499 58.2 20.7399C58.21 20.5299 58.5 20.3899 58.67 20.2199C58.84 20.0499 59.12 19.7799 59.33 19.5499C59.54 19.3199 59.5 19.4499 59.61 19.5499C60.5293 20.4015 61.3118 21.3897 61.93 22.4799L62.61 24.0399L62.94 25.2899L63 26.5299V26.6999L63.05 26.9799Z" fill="#805097"/>
<path d="M57.45 27.2898C57.4543 26.0702 56.9762 24.8983 56.12 24.0298C55.95 23.8698 55.8 23.6898 55.62 23.5498C55.44 23.4098 55.46 23.2898 55.62 23.1298C55.96 22.8198 56.27 22.4798 56.62 22.1298C56.69 22.0698 56.73 21.9598 56.86 22.1298C57.7506 22.8971 58.4376 23.8727 58.86 24.9698C59.3178 26.1401 59.4254 27.4183 59.1697 28.6488C58.9141 29.8792 58.3061 31.0087 57.42 31.8998C57.24 32.0898 57.04 32.2698 56.86 32.4598C56.68 32.6498 56.69 32.5898 56.58 32.4598C56.24 32.1098 55.9 31.7598 55.58 31.4598C55.45 31.3298 55.44 31.2598 55.58 31.1398C56.0892 30.6984 56.5247 30.1785 56.87 29.5998C57.2614 28.8935 57.4614 28.0972 57.45 27.2898Z" fill="#805097"/>
</g>
<defs>
<clipPath id="clip0_419_201">
<rect width="171.24" height="58.88" fill="white" transform="translate(0 0.759766)"/>
</clipPath>
</defs>
</svg>
