<svg width="172" height="60" viewBox="0 0 172 60" fill="none" xmlns="http://www.w3.org/2000/svg">
<g clip-path="url(#clip0_419_193)">
<path d="M141.8 1.25977H29.44C13.4569 1.25977 0.5 14.2166 0.5 30.1998C0.5 46.1829 13.4569 59.1398 29.44 59.1398H141.8C157.783 59.1398 170.74 46.1829 170.74 30.1998C170.74 14.2166 157.783 1.25977 141.8 1.25977Z" fill="white" stroke="white" stroke-miterlimit="10"/>
<path d="M97.49 1.25977H141.8C149.475 1.25977 156.836 4.30879 162.264 9.7361C167.691 15.1634 170.74 22.5244 170.74 30.1998C170.74 37.8751 167.691 45.2361 162.264 50.6634C156.836 56.0907 149.475 59.1398 141.8 59.1398H97.49V1.25977Z" fill="#805097" stroke="white" stroke-miterlimit="10"/>
<path d="M118 10.9397C114.799 13.3111 112.374 16.5784 111.03 20.3284C109.686 24.0784 109.485 28.1426 110.451 32.0071C111.417 35.8716 113.508 39.3628 116.458 42.0391C119.409 44.7155 123.086 46.4568 127.027 47.0429C130.967 47.6289 134.992 47.0334 138.594 45.3316C142.195 43.6298 145.211 40.8982 147.261 37.4822C149.31 34.0662 150.3 30.1192 150.106 26.1405C149.912 22.1618 148.542 18.33 146.17 15.1297C142.99 10.8389 138.235 7.98693 132.953 7.20117C127.67 6.41541 122.291 7.76018 118 10.9397ZM138.55 38.6797C136.263 40.3733 133.525 41.3506 130.682 41.4881C127.839 41.6257 125.02 40.9172 122.58 39.4523C120.14 37.9874 118.189 35.8319 116.974 33.2583C115.759 30.6848 115.334 27.8087 115.754 24.9938C116.173 22.1789 117.418 19.5517 119.331 17.4442C121.243 15.3367 123.738 13.8437 126.499 13.154C129.26 12.4642 132.164 12.6087 134.843 13.5691C137.522 14.5295 139.856 16.2628 141.55 18.5497C143.824 21.6143 144.788 25.4568 144.229 29.2318C143.67 33.0069 141.634 36.4053 138.57 38.6797H138.55Z" fill="white"/>
<path d="M151.739 51.6147L141.457 37.7393L136.829 41.1687L147.111 55.0441L151.739 51.6147Z" fill="#FFB7A5"/>
<path d="M15.6189 37.9779L10.0941 21.3329H14.9342L17.8146 30.8949L21.002 21.2856H24.9448L28.1322 30.8949L31.0126 21.3329H35.7582L30.2335 37.9779H26.2434L22.9144 28.4631L19.609 37.9779H15.6189ZM41.7651 37.9779L36.2404 21.3329H41.0804L43.9608 30.8949L47.1482 21.2856H51.0911L54.2784 30.8949L57.1588 21.3329H61.9044L56.3797 37.9779H52.3896L49.0606 28.4631L45.7552 37.9779H41.7651ZM67.9113 37.9779L62.3866 21.3329H67.2267L70.1071 30.8949L73.2944 21.2856H77.2373L80.4246 30.8949L83.3051 21.3329H88.0507L82.5259 37.9779H78.5358L75.2068 28.4631L71.9014 37.9779H67.9113ZM87.0727 37.8599V33.2559H91.7475V37.8599H87.0727Z" fill="#805097"/>
</g>
<defs>
<clipPath id="clip0_419_193">
<rect width="171.24" height="58.88" fill="white" transform="translate(0 0.759766)"/>
</clipPath>
</defs>
</svg>
