<svg width="172" height="60" viewBox="0 0 172 60" fill="none" xmlns="http://www.w3.org/2000/svg">
<g clip-path="url(#clip0_419_179)">
<path d="M142.44 1.25977H30.08C14.0969 1.25977 1.14001 14.2166 1.14001 30.1998C1.14001 46.1829 14.0969 59.1398 30.08 59.1398H142.44C158.423 59.1398 171.38 46.1829 171.38 30.1998C171.38 14.2166 158.423 1.25977 142.44 1.25977Z" fill="white" stroke="white" stroke-miterlimit="10"/>
<path d="M171.38 30.1998C171.38 14.2166 158.423 1.25977 142.44 1.25977C126.457 1.25977 113.5 14.2166 113.5 30.1998C113.5 46.1829 126.457 59.1398 142.44 59.1398C158.423 59.1398 171.38 46.1829 171.38 30.1998Z" fill="#805097" stroke="white" stroke-miterlimit="10"/>
<path d="M58.38 30.1998C58.38 14.2166 45.4231 1.25977 29.44 1.25977C13.4569 1.25977 0.5 14.2166 0.5 30.1998C0.5 46.1829 13.4569 59.1398 29.44 59.1398C45.4231 59.1398 58.38 46.1829 58.38 30.1998Z" fill="#805097" stroke="white" stroke-miterlimit="10"/>
<path d="M112.45 30.1947C112.45 15.4349 100.485 3.46973 85.725 3.46973C70.9652 3.46973 59 15.4349 59 30.1947C59 44.9545 70.9652 56.9197 85.725 56.9197C100.485 56.9197 112.45 44.9545 112.45 30.1947Z" fill="#805097"/>
<path d="M89.91 21.9797H81.63C80.4948 21.9797 79.4062 22.4307 78.6036 23.2333C77.8009 24.036 77.35 25.1246 77.35 26.2597V34.5397C77.35 35.6749 77.8009 36.7635 78.6036 37.5662C79.4062 38.3688 80.4948 38.8197 81.63 38.8197H89.91C91.0451 38.8197 92.1337 38.3688 92.9364 37.5662C93.739 36.7635 94.19 35.6749 94.19 34.5397V26.2597C94.19 25.1246 93.739 24.036 92.9364 23.2333C92.1337 22.4307 91.0451 21.9797 89.91 21.9797ZM85.91 35.5097C84.8985 35.5137 83.9085 35.2174 83.0656 34.6583C82.2226 34.0992 81.5646 33.3025 81.1747 32.3691C80.7849 31.4358 80.6808 30.4077 80.8757 29.4151C81.0706 28.4226 81.5557 27.5102 82.2696 26.7936C82.9834 26.0769 83.8939 25.5882 84.8857 25.3894C85.8775 25.1906 86.9059 25.2907 87.8408 25.6768C88.7757 26.063 89.575 26.7179 90.1374 27.5587C90.6998 28.3995 91 29.3882 91 30.3997C90.9987 31.0729 90.8646 31.7393 90.6055 32.3606C90.3463 32.982 89.9672 33.5461 89.4898 34.0207C89.0123 34.4954 88.446 34.8712 87.8232 35.1267C87.2003 35.3822 86.5332 35.5124 85.86 35.5097H85.91ZM91.31 26.1597C91.0683 26.1597 90.832 26.0879 90.6312 25.9534C90.4303 25.8189 90.274 25.6278 90.1819 25.4043C90.0899 25.1808 90.0663 24.935 90.1142 24.698C90.1621 24.4611 90.2793 24.2437 90.4509 24.0735C90.6225 23.9033 90.8408 23.7879 91.0782 23.742C91.3155 23.696 91.5611 23.7216 91.7838 23.8155C92.0066 23.9094 92.1964 24.0673 92.3292 24.2692C92.4621 24.4712 92.532 24.708 92.53 24.9497C92.5302 25.1138 92.497 25.2762 92.4325 25.4271C92.368 25.5779 92.2734 25.7141 92.1546 25.8273C92.0358 25.9404 91.8953 26.0283 91.7415 26.0854C91.5877 26.1426 91.4239 26.1679 91.26 26.1597H91.31Z" fill="white"/>
<path d="M85.86 27.1299C85.2132 27.1299 84.581 27.3217 84.0432 27.681C83.5055 28.0403 83.0864 28.551 82.8389 29.1485C82.5914 29.746 82.5266 30.4035 82.6528 31.0378C82.779 31.6721 83.0904 32.2548 83.5477 32.7121C84.005 33.1694 84.5877 33.4809 85.222 33.607C85.8563 33.7332 86.5138 33.6685 87.1113 33.421C87.7089 33.1735 88.2196 32.7543 88.5789 32.2166C88.9382 31.6788 89.13 31.0466 89.13 30.3999C89.13 29.5326 88.7855 28.7009 88.1722 28.0876C87.559 27.4744 86.7272 27.1299 85.86 27.1299Z" fill="white"/>
<path d="M85.77 12.7598C82.2712 12.7598 78.851 13.7973 75.9419 15.7411C73.0328 17.6849 70.7655 20.4477 69.4265 23.6801C68.0876 26.9125 67.7373 30.4694 68.4199 33.9009C69.1024 37.3324 70.7873 40.4845 73.2612 42.9585C75.7352 45.4325 78.8873 47.1173 82.3188 47.7999C85.7503 48.4824 89.3072 48.1321 92.5396 46.7932C95.7721 45.4543 98.5349 43.1869 100.479 40.2778C102.422 37.3687 103.46 33.9485 103.46 30.4498C103.46 25.7581 101.596 21.2586 98.2787 17.941C94.9612 14.6235 90.4616 12.7598 85.77 12.7598ZM96.14 34.5398C96.1347 36.1895 95.4763 37.77 94.3088 38.9357C93.1413 40.1013 91.5597 40.7571 89.91 40.7598H81.63C79.9785 40.7571 78.3954 40.0999 77.2276 38.9321C76.0598 37.7643 75.4026 36.1813 75.4 34.5298V26.2598C75.4 24.6075 76.0563 23.0228 77.2247 21.8545C78.393 20.6861 79.9777 20.0298 81.63 20.0298H89.91C91.5623 20.0298 93.1469 20.6861 94.3152 21.8545C95.4836 23.0228 96.14 24.6075 96.14 26.2598V34.5398Z" fill="white"/>
<path d="M29.77 13.1497C25.393 13.1455 21.1755 14.7931 17.9604 17.7631C14.7452 20.7332 12.7691 24.807 12.4268 29.1706C12.0845 33.5342 13.4013 37.8664 16.1141 41.3014C18.8269 44.7364 22.7359 47.0213 27.06 47.6997V35.5497H22.64V30.5497H27.06V26.6997C27.06 22.3497 29.65 19.9397 33.62 19.9397C34.9232 19.9579 36.2234 20.0716 37.51 20.2797V24.5597H35.32C34.9471 24.5102 34.5678 24.5453 34.2102 24.6622C33.8526 24.7791 33.5259 24.9749 33.2542 25.2351C32.9825 25.4952 32.7728 25.8132 32.6405 26.1654C32.5082 26.5175 32.4568 26.8949 32.49 27.2697V30.5297H37.31L36.54 35.5297H32.54V47.6997C36.865 47.0212 40.7747 44.7355 43.4875 41.2994C46.2004 37.8633 47.5165 33.53 47.1729 29.1656C46.8293 24.8012 44.8513 20.7272 41.6342 17.758C38.4171 14.7887 34.1979 13.143 29.82 13.1497H29.77Z" fill="white"/>
<path d="M142.77 12.4797C139.271 12.4797 135.851 13.5172 132.942 15.461C130.033 17.4048 127.765 20.1676 126.427 23.4001C125.088 26.6325 124.737 30.1894 125.42 33.6209C126.102 37.0524 127.787 40.2045 130.261 42.6785C132.735 45.1524 135.887 46.8373 139.319 47.5198C142.75 48.2024 146.307 47.8521 149.54 46.5132C152.772 45.1743 155.535 42.9069 157.479 39.9978C159.422 37.0887 160.46 33.6685 160.46 30.1697C160.46 27.8467 160.002 25.5463 159.113 23.4001C158.224 21.2538 156.921 19.3037 155.279 17.661C153.636 16.0183 151.686 14.7153 149.54 13.8263C147.393 12.9373 145.093 12.4797 142.77 12.4797ZM152 28.1297C151.817 28.14 151.633 28.14 151.45 28.1297C150.469 28.1282 149.503 27.8824 148.641 27.4145C147.779 26.9466 147.046 26.2714 146.51 25.4497V34.5597C146.51 35.8908 146.115 37.192 145.376 38.2987C144.636 39.4055 143.585 40.2681 142.355 40.7774C141.126 41.2868 139.772 41.4201 138.467 41.1604C137.162 40.9007 135.962 40.2598 135.021 39.3186C134.08 38.3774 133.439 37.1782 133.179 35.8727C132.92 34.5672 133.053 33.214 133.562 31.9843C134.072 30.7545 134.934 29.7034 136.041 28.9639C137.148 28.2244 138.449 27.8297 139.78 27.8297H140.2V31.1497C140.061 31.1232 139.921 31.1065 139.78 31.0997C138.901 31.1472 138.074 31.5298 137.468 32.1687C136.863 32.8077 136.525 33.6545 136.525 34.5347C136.525 35.415 136.863 36.2617 137.468 36.9007C138.074 37.5397 138.901 37.9223 139.78 37.9697C140.701 37.986 141.591 37.6397 142.259 37.0056C142.927 36.3714 143.319 35.5002 143.35 34.5797V19.1197H146.53C146.664 20.5106 147.287 21.8088 148.289 22.783C149.291 23.7573 150.606 24.3443 152 24.4397V28.1297Z" fill="white"/>
</g>
<defs>
<clipPath id="clip0_419_179">
<rect width="171.88" height="58.88" fill="white" transform="translate(0 0.759766)"/>
</clipPath>
</defs>
</svg>
