<?xml version="1.0" encoding="utf-8"?>
<!-- Generator: Adobe Illustrator 24.1.2, SVG Export Plug-In . SVG Version: 6.00 Build 0)  -->
<svg version="1.1" id="Layer_1" xmlns="http://www.w3.org/2000/svg" xmlns:xlink="http://www.w3.org/1999/xlink" x="0px" y="0px"
	 viewBox="0 0 560 45.9" style="enable-background:new 0 0 560 45.9;" xml:space="preserve">
<style type="text/css">
	.st0{fill:#FFFFFF;}
</style>
<g id="Layer_2_1_">
	<g id="Layer_1-2">
		<path class="st0" d="M4.1,22.9c0-12.1,7.3-20,18.6-20c9,0,15.8,5.1,17.2,12.9h-5.2c-1.3-5.1-6-8.4-11.9-8.4
			c-8.1,0-13.3,6.1-13.3,15.5c0,9.5,5.2,15.6,13.4,15.6c6.1,0,10.5-2.7,11.9-7.5h5.2c-1.9,7.6-8,11.9-17.2,11.9
			C11.3,42.9,4.1,35.2,4.1,22.9z"/>
		<path class="st0" d="M22.7,44.1c-12,0-19.8-8.3-19.8-21.2S10.6,1.7,22.7,1.7c9.6,0,16.9,5.6,18.3,13.8l0.2,1.4h-7.5l-0.2-0.9
			c-1.2-4.6-5.4-7.5-10.8-7.5c-7.4,0-12.1,5.6-12.1,14.3c0,8.9,4.6,14.4,12.1,14.4c5.5,0,9.4-2.4,10.8-6.6l0.3-0.8h7.6L41,31.3
			C39,39.5,32.3,44.1,22.7,44.1z M22.7,4.1c-10.6,0-17.4,7.4-17.4,18.8c0,11.6,6.7,18.8,17.4,18.8c7.9,0,13.4-3.4,15.6-9.5h-2.8
			c-1.9,4.8-6.5,7.5-12.8,7.5c-8.8,0-14.5-6.6-14.5-16.8c0-10,5.8-16.7,14.5-16.7c6.1,0,11.1,3.3,12.8,8.4h2.8
			C36.5,8.3,30.5,4.1,22.7,4.1z"/>
		<path class="st0" d="M55.4,42.3h-5.2V3.6h15.5c8,0,13.2,4.5,13.2,11.5c0.2,5.2-3.3,9.8-8.3,11.1l9.6,16.1h-6L65.3,27h-9.9
			L55.4,42.3z M55.4,22.7h9.9c5.3,0,8.3-2.7,8.3-7.4c0-4.6-3.2-7.4-8.5-7.4h-9.6V22.7z"/>
		<path class="st0" d="M82.3,43.5h-8.8l-8.8-15.3h-8v15.3h-7.5V2.4h16.7c8.6,0,14.4,5.1,14.4,12.7c0.1,5.1-3,9.8-7.7,11.7L82.3,43.5
			z M74.9,41.1h3.2l-9.3-15.6l1.5-0.4c4.5-1.2,7.6-5.3,7.5-10c0-6.3-4.7-10.3-12-10.3H51.5v36.3h2.8V25.8H66L74.9,41.1z M65.3,23.9
			H54.2V6.7h10.8c6,0,9.7,3.3,9.7,8.6C74.8,20.7,71.3,23.9,65.3,23.9z M56.6,21.5h8.7c3.2,0,7.1-1.1,7.1-6.2c0-3.9-2.7-6.2-7.3-6.2
			h-8.5V21.5z"/>
		<path class="st0" d="M115.4,42.3H89.8V3.6h25.6v4.3H95v12.4h19.4v4.3H95v13.3h20.4V42.3z"/>
		<path class="st0" d="M116.6,43.5h-28V2.4h28v6.7H96.2v10h19.4v6.7H96.2v10.9h20.4L116.6,43.5z M91,41.1h23.2v-1.9H93.8V23.5h19.4
			v-1.9H93.8V6.7h20.4V4.8H91V41.1z"/>
		<path class="st0" d="M149.3,31.2h-16.4l-4.2,11.1h-5.4l15.2-38.7h5.1l15.2,38.7h-5.4L149.3,31.2z M134.4,27.1h13.4l-6.6-17.6H141
			L134.4,27.1z"/>
		<path class="st0" d="M160.6,43.5h-8l-4.2-11.1h-14.8l-4.2,11.1h-8l16.2-41.1h6.7L160.6,43.5z M154.3,41.1h2.8L142.8,4.8h-3.5
			l-14.3,36.3h2.8L132,30h18.1L154.3,41.1z M149.5,28.3h-16.8l7.5-20.1h1.7l0.5,0.8L149.5,28.3z M136.1,25.9h9.9l-5-13.3L136.1,25.9
			z"/>
		<path class="st0" d="M172.7,42.3V7.9h-13.1V3.6h31.2v4.3h-13v34.4H172.7z"/>
		<path class="st0" d="M179.1,43.5h-7.5V9.1h-13V2.4h33.6v6.7h-13V43.5z M173.9,41.1h2.8V6.7h13V4.8h-28.8v1.9h13V41.1z"/>
		<path class="st0" d="M200.7,42.3V3.6h5.2v38.7H200.7z"/>
		<path class="st0" d="M207.1,43.5h-7.5V2.4h7.5V43.5z M201.9,41.1h2.8V4.8h-2.8V41.1z"/>
		<path class="st0" d="M230.2,42.3L215,3.6h5.4l12.3,32.8h0.2l12.3-32.8h5.4l-15.2,38.7H230.2z"/>
		<path class="st0" d="M236.1,43.5h-6.7L213.2,2.4h8l11.5,30.8l11.5-30.8h8L236.1,43.5z M231,41.1h3.5l14.3-36.3H246l-12.3,32.8H232
			l-0.5-0.8l-12-32h-2.8L231,41.1z"/>
		<path class="st0" d="M278.7,31.2h-16.4l-4.2,11.1h-5.4l15.2-38.7h5.1l15.2,38.7h-5.4L278.7,31.2z M263.7,27.1h13.4l-6.6-17.6h-0.2
			L263.7,27.1z"/>
		<path class="st0" d="M290,43.5h-8l-4.2-11.1h-14.8l-4.2,11.1h-8l16.2-41.1h6.7L290,43.5z M283.6,41.1h2.8L272.2,4.8h-3.5
			l-14.3,36.3h2.8l4.2-11.1h18.1L283.6,41.1z M278.9,28.3H262l7.5-20.1h1.7l0.5,0.8L278.9,28.3z M265.5,25.9h9.9l-5-13.3L265.5,25.9
			z"/>
		<path class="st0" d="M336.5,31.2H320l-4.2,11.1h-5.4l15.2-38.7h5.1l15.3,38.7h-5.4L336.5,31.2z M321.5,27.1H335l-6.6-17.6h-0.2
			L321.5,27.1z"/>
		<path class="st0" d="M347.8,43.5h-8l-4.2-11.1h-14.8l-4.2,11.1h-8l16.2-41.1h6.7L347.8,43.5z M341.5,41.1h2.8L330,4.8h-3.5
			l-14.3,36.3h2.8l4.2-11.1h18.1L341.5,41.1z M336.7,28.3h-16.8l7.5-20.1h1.7l0.5,0.8L336.7,28.3z M323.3,25.9h9.9l-5-13.3
			L323.3,25.9z"/>
		<path class="st0" d="M371.3,42.9c-11.5,0-18.9-7.9-18.9-20.2c0-12.1,7.4-19.8,18.9-19.8c8.9,0,15.7,5,17.3,12.7h-5.4
			c-1.7-5.2-6-8.2-11.9-8.2c-8.5,0-13.7,5.7-13.7,15.3c0,9.7,5.2,15.8,13.6,15.8c7.3,0,12.4-4.5,12.4-10.9v-0.7H372v-4.2h16.8v3.7
			C388.9,36.7,382.4,42.9,371.3,42.9z"/>
		<path class="st0" d="M371.3,44.1c-12.2,0-20.1-8.4-20.1-21.4c0-12.8,7.9-21,20.1-21c9.6,0,16.8,5.3,18.4,13.6l0.3,1.4h-7.7
			l-0.2-0.8c-1.5-4.7-5.4-7.4-10.7-7.4c-7.9,0-12.4,5.1-12.4,14.1c0,9.1,4.6,14.6,12.4,14.6c6.5,0,10.9-3.7,11.2-9.2h-11.7v-6.6
			h19.2v4.9C390.1,37.5,383.1,44.1,371.3,44.1z M371.3,4.1c-10.9,0-17.7,7.1-17.7,18.6c0,11.7,6.8,19,17.7,19
			c10.4,0,16.3-5.6,16.3-15.5v-2.5h-14.4v1.8h11.7v1.9c0,7.1-5.6,12.1-13.6,12.1c-9.2,0-14.8-6.5-14.8-17c0-10.2,5.7-16.5,14.8-16.5
			c6.1,0,10.6,3,12.7,8.2h3C385.1,8.1,379.1,4.1,371.3,4.1z"/>
		<path class="st0" d="M425.4,42.3h-25.6V3.6h25.6v4.3H405v12.4h19.4v4.3H405v13.3h20.4V42.3z"/>
		<path class="st0" d="M426.6,43.5h-28V2.4h28v6.7h-20.4v10h19.4v6.7h-19.4v10.9h20.4V43.5z M401,41.1h23.2v-1.9h-20.4V23.5h19.4
			v-1.9h-19.4V6.7h20.4V4.8H401L401,41.1z"/>
		<path class="st0" d="M436.6,42.3V3.6h5L464.3,34h0.3V3.6h5.1v38.7h-5L441.9,12h-0.3v30.3H436.6z"/>
		<path class="st0" d="M470.8,43.5H464l-21.1-28.2v28.2h-7.5V2.4h6.8l21.1,28.3V2.4h7.5V43.5z M465.2,41.1h3.2V4.8h-2.7v30.4h-2.1
			L441,4.8h-3.2v36.3h2.7V10.8h2.1L465.2,41.1z"/>
		<path class="st0" d="M480.4,22.9c0-12.1,7.3-20,18.6-20c9,0,15.8,5.1,17.2,12.9h-5.2c-1.3-5.1-6-8.4-11.9-8.4
			c-8.1,0-13.3,6.1-13.3,15.5c0,9.5,5.2,15.6,13.4,15.6c6.1,0,10.4-2.7,11.9-7.5h5.2c-1.9,7.6-8,11.9-17.2,11.9
			C487.6,42.9,480.4,35.2,480.4,22.9z"/>
		<path class="st0" d="M499,44.1c-12,0-19.8-8.3-19.8-21.2S487,1.7,499,1.7c9.6,0,16.9,5.6,18.4,13.8l0.2,1.4h-7.5l-0.2-0.9
			c-1.2-4.6-5.4-7.5-10.8-7.5c-7.4,0-12.1,5.6-12.1,14.3c0,8.9,4.6,14.4,12.1,14.4c5.5,0,9.4-2.4,10.8-6.6l0.3-0.8h7.6l-0.4,1.5
			C515.3,39.5,508.7,44.1,499,44.1z M499,4.1c-10.6,0-17.4,7.4-17.4,18.8c0,11.6,6.7,18.8,17.4,18.8c7.9,0,13.4-3.4,15.6-9.5h-2.8
			c-1.9,4.8-6.5,7.5-12.8,7.5c-8.8,0-14.5-6.6-14.5-16.8c0-10,5.8-16.7,14.5-16.7c6.1,0,11.1,3.3,12.8,8.4h2.8
			C512.9,8.3,506.8,4.1,499,4.1z"/>
		<path class="st0" d="M534.9,42.3V25.6L520.2,3.3h5.9l11.4,17.5h0.2L549,3.3h5.9l-14.8,22.2v16.8H534.9z"/>
		<path class="st0" d="M541.3,43.5h-7.6V25.9L517.9,2.1h8.8l10.8,16.6l10.8-16.6h8.8l-15.8,23.8V43.5z M536.1,41.1h2.8V25.2
			l13.7-20.6h-3l-11.4,17.5H537l-0.5-0.6l-11-16.9h-3l13.7,20.6L536.1,41.1z"/>
	</g>
</g>
</svg>
