<svg xmlns="http://www.w3.org/2000/svg" viewBox="0 0 1117.16 181.73"><defs><style>.cls-1{fill:#fff;fill-opacity:0.9;}</style></defs><g id="Layer_2" data-name="Layer 2"><g id="letters"><path class="cls-1" d="M1115.16,0H990.48V181.73h126.31V144.78h-79.46V106.42h67.26V70.56h-67.26V37.08h79.83V0Zm-2,33.08h-79.83V74.56h67.26v27.86h-67.26v46.36h79.46v28.95H994.48V4h118.68Z"/><polygon class="cls-1" points="135.42 129.07 133.56 128.35 133.56 128.36 135.42 129.07"/><path class="cls-1" d="M974.29,0H823.73V37.08H876V181.73h46.84V37.08h53.47V0Zm-2,33.08H918.82V177.73H880V33.08H827.73V4H972.29Z"/><path class="cls-1" d="M645.68,0H521V181.73H647.31V144.78H567.84V106.42H635.1V70.56H567.84V37.08h79.84V0Zm-2,33.08H563.84V74.56H631.1v27.86H563.84v46.36l4,.09v-.09h75.47v28.95H525V4H643.68Z"/><path class="cls-1" d="M768.6,0h-2V105L707.47,1l-1.73,1h0l1.73-1-.57-1h-46V181.73h46.85V76.7l59.12,104,.58,1h45.89V0H768.6ZM707.47,68.15l-3.73-6.58V177.73H664.89V4h39.68l62.29,109.58,3.74,6.58V4h38.73V177.73H769.76Z"/><path class="cls-1" d="M286.55,0H161.87V181.73H288.18V144.78H208.71V106.42H276V70.56H208.71V37.08h79.84V0Zm-2,33.08H204.71V74.56H272v27.86H204.71v46.36h79.47v28.95H165.87V4H284.55Z"/><polygon class="cls-1" points="86.34 49.47 87.94 48.27 86.33 49.45 86.34 49.46 86.34 49.47"/><path class="cls-1" d="M495.53,0H437.8l-.45,1.39,1.91.61h0l-1.91-.61L399.58,119.11,361.81,1.39,361.37,0H301.76V181.73H348.6v-43.6l-3.48-70.74,38.41,113,1.89-.65h0l-1.89.65.46,1.35h31.19l.46-1.35,38.41-113-3.49,70.74v43.6h47V0Zm-2,177.73h-39V138.29l4.17-84.68-4-.76L412.31,177.73H386.86L344.4,52.85l-4,.76,4.17,84.66v39.46H305.76V4h52.69l39.23,122.27,1.9-.61h0l-1.9.61,1.9,5.93,1.91-5.93L440.71,4h52.82Z"/><path class="cls-1" d="M97.2,64h0a46.59,46.59,0,0,0-7.65-16.92h0a32.66,32.66,0,0,0-13-10.5h0a41.55,41.55,0,0,0-17.42-3.47H42.85v115.7H59.74c8.46,0,15.75-2,21.76-6.22h0c6.09-4.18,10.62-10.36,13.66-18.38h0c3.12-8.11,4.65-18,4.65-29.52V87A89.78,89.78,0,0,0,97.2,64ZM95.83,94.65c0,11.23-1.49,20.57-4.39,28.09l1.87.72-.08,0-1.79-.69h0c-2.82,7.43-6.9,12.88-12.2,16.52l1.13,1.65,0,0-1.1-1.61h0c-5.22,3.64-11.68,5.51-19.49,5.51H46.85V37.08H59.13A37.5,37.5,0,0,1,74.9,40.2l.83-1.83h0L74.9,40.2h0a28.62,28.62,0,0,1,11.42,9.26l1.61-1.2-1.6,1.21a42.58,42.58,0,0,1,7,15.52h0A86.17,86.17,0,0,1,95.83,87Z"/><path class="cls-1" d="M137.28,52.05h0a79.9,79.9,0,0,0-17.5-27.63h0A76,76,0,0,0,93,6.38h0A87.53,87.53,0,0,0,59.13,0H0V181.73H59.74a87.4,87.4,0,0,0,33.47-6.25l-.75-1.84v0l.74,1.81h0a78.47,78.47,0,0,0,26.67-18,80.8,80.8,0,0,0,17.4-27.64h0a95.82,95.82,0,0,0,6.24-35.15V87.21A95.06,95.06,0,0,0,137.28,52.05Zm2.25,42.6a91.85,91.85,0,0,1-6,33.7l1.89.73-1.89-.72A76.89,76.89,0,0,1,117,154.66a74.56,74.56,0,0,1-25.33,17.12,83.43,83.43,0,0,1-31.95,5.95H4V4H59.13a83.51,83.51,0,0,1,32.31,6.07l.77-1.84h0l-.77,1.84h0a72,72,0,0,1,25.43,17.11l1.44-1.38h0l-1.42,1.37h0a75.93,75.93,0,0,1,16.66,26.3l1.87-.72h0l-1.86.72h0a91.21,91.21,0,0,1,6,33.7Z"/></g></g></svg>