<svg xmlns="http://www.w3.org/2000/svg" viewBox="0 0 79.49 133.97"><defs><style>.cls-1{fill:#3c3c3c;}</style></defs><g id="Layer_2" data-name="Layer 2"><g id="Layer_1-2" data-name="Layer 1"><path class="cls-1" d="M15.66,98.65a5.54,5.54,0,0,1-2.12-1A7.33,7.33,0,0,1,12,95.73a2.63,2.63,0,0,0,1,2.57A2.43,2.43,0,0,0,15.66,98.65Z"/><path class="cls-1" d="M15.14,103.53c-.13-.48-.25-1-.42-1.46a1.15,1.15,0,0,0-1.22-.82,4.25,4.25,0,0,1,.94,1.53c.4,1.14.78,2.29,1.15,3.44.27.81.54,1.62.8,2.43l-.24-1C15.83,106.27,15.5,104.9,15.14,103.53Z"/><path class="cls-1" d="M15.49,101.79c.17.63.37,1.26.57,1.89.51,1.67,1.05,3.33,1.59,5l.39,1.21c-.26-1-.53-2.07-.79-3.11-.38-1.5-.76-3-1.13-4.5,0-.17-.09-.35-.13-.53a4,4,0,0,1,0-1.5,1.14,1.14,0,0,0-.58.71A1.54,1.54,0,0,0,15.49,101.79Z"/><path class="cls-1" d="M21.93,127.42a8.11,8.11,0,0,1-2-2.22,25.28,25.28,0,0,1-1.8-3.88c-.49-1.27-1-2.55-1.39-3.83a48.25,48.25,0,0,0,2,7.58,9.58,9.58,0,0,0,2.41,3.36c.61.6,1.67,1.73,2.61,1.11a2.33,2.33,0,0,0,.74-1.06,8.59,8.59,0,0,0,.36-1.32,3.18,3.18,0,0,1-1.29.75A1.85,1.85,0,0,1,21.93,127.42Z"/><path class="cls-1" d="M27.72,99.86a9.09,9.09,0,0,0-1.17,4,9.68,9.68,0,0,0,.62,4.33,22.86,22.86,0,0,1-.07-2.34,14.59,14.59,0,0,1,2-7.71A6.32,6.32,0,0,0,27.72,99.86Z"/><path class="cls-1" d="M33,101.75a11.4,11.4,0,0,1,.54,2.38,6.92,6.92,0,0,1-.26,2.39C34.73,105.37,34.41,102.78,33,101.75Z"/><path class="cls-1" d="M42.62,97.73a3.22,3.22,0,0,0,1-2.81,8.57,8.57,0,0,1-1.92,2.23,7.26,7.26,0,0,1-2.74,1,2.91,2.91,0,0,0,1.65.42A3.1,3.1,0,0,0,42.62,97.73Z"/><path class="cls-1" d="M23.42,130.87a5.12,5.12,0,0,0,.27.52c.1.18.29.51.54.52s.52-.76.57-1A1.44,1.44,0,0,1,23.42,130.87Z"/><path class="cls-1" d="M70.59,108.21a8.89,8.89,0,0,0,.58-2.39c.3-2.68-.37-5.88-2.56-7.66a12.69,12.69,0,0,1,1,2A18.19,18.19,0,0,1,70.59,108.21Z"/><path class="cls-1" d="M64.5,106.52a6.92,6.92,0,0,1-.26-2.39,11.4,11.4,0,0,1,.54-2.38C63.35,102.78,63,105.37,64.5,106.52Z"/><path class="cls-1" d="M56.16,98.59a2.88,2.88,0,0,0,2.69-.43,6.09,6.09,0,0,1-2.62-.67,5.83,5.83,0,0,1-2-2.57,3,3,0,0,0,2,3.67Z"/><path class="cls-1" d="M50.89,93.05a10.87,10.87,0,0,1-1.29,3.06c-.16.23-.43.6-.74.58s-.73-.61-.91-.93a14.15,14.15,0,0,1-1.21-3.15c-.33-1.14-.6-2.28-.89-3.43a19,19,0,0,0,.39,4.58,11.31,11.31,0,0,0,.57,1.88,4.16,4.16,0,0,0,1,1.57,1.6,1.6,0,0,0,1.16.51,1.89,1.89,0,0,0,1.34-.82,8.69,8.69,0,0,0,1.35-3.63,19.33,19.33,0,0,0,.29-4.09C51.58,90.47,51.28,91.77,50.89,93.05Z"/><path class="cls-1" d="M49,105.15c.78-.87,1.63-1.69,2.4-2.57a4.74,4.74,0,0,0-2.32,1.24,4.37,4.37,0,0,0-.84-.77,2.1,2.1,0,0,0-1.57-.47,5.68,5.68,0,0,1,1.58,1.55C48.52,104.46,48.76,104.8,49,105.15Z"/><path class="cls-1" d="M50.64,117.42a6.75,6.75,0,0,1-.83-.86,2.41,2.41,0,0,1-.48-.89,2.57,2.57,0,0,0-.07-.4,14.91,14.91,0,0,0,.08-1.5,21.29,21.29,0,0,0-.3-3.9c-.13.79-.22,1.58-.3,2.37-.11,1-.18,2-.33,3a3.42,3.42,0,0,1-.68,1.6,13.34,13.34,0,0,0-1,1.45,5.09,5.09,0,0,0,1.68-1,2.82,2.82,0,0,0,.5-.65,3.52,3.52,0,0,0,.7.69,12.49,12.49,0,0,0,1.93,1A5.2,5.2,0,0,0,50.64,117.42Z"/><path class="cls-1" d="M41.74,119.91a2.61,2.61,0,0,0,2.16.47A4.6,4.6,0,0,0,41.74,119.91Z"/><path class="cls-1" d="M40.87,124.27a3.71,3.71,0,0,0,2.51.8,6.14,6.14,0,0,0-1.22-.5A7.31,7.31,0,0,0,40.87,124.27Z"/><path class="cls-1" d="M40.21,127.84a4.14,4.14,0,0,0,1.42.76,4.76,4.76,0,0,0,1.63.31,8.84,8.84,0,0,0-1.49-.62A12.08,12.08,0,0,0,40.21,127.84Z"/><path class="cls-1" d="M55.94,119.91a4.64,4.64,0,0,0-2.17.47A2.63,2.63,0,0,0,55.94,119.91Z"/><path class="cls-1" d="M55.65,124.89a3.29,3.29,0,0,0,1.15-.62,7.2,7.2,0,0,0-1.28.3,6.22,6.22,0,0,0-1.23.5A3.47,3.47,0,0,0,55.65,124.89Z"/><path class="cls-1" d="M54.41,128.91a4.87,4.87,0,0,0,1.64-.31,4.19,4.19,0,0,0,1.41-.76,12.42,12.42,0,0,0-1.55.45A8.94,8.94,0,0,0,54.41,128.91Z"/><path class="cls-1" d="M49.42,126.4c0-.12,0-.24-.05-.36s0-.36.05-.54a7.4,7.4,0,0,0-.63-4.18,10.48,10.48,0,0,1,.18,2.44c0,.1,0,.21,0,.31a2.54,2.54,0,0,1-.27.71,2.94,2.94,0,0,1-.71.78,1.93,1.93,0,0,0,.94-.54,24.51,24.51,0,0,0,0,3.09,11.28,11.28,0,0,0,.36,2.09c0-.29-.06-.57-.07-.85a17.93,17.93,0,0,1,.06-2.32l.06.07a2.4,2.4,0,0,0,1,.63A2.64,2.64,0,0,1,49.42,126.4Z"/><path class="cls-1" d="M76.45,38.2a27.1,27.1,0,0,0,3-12,21,21,0,0,0-3.14-11A28.47,28.47,0,0,0,68.61,7C62.81,2.79,55.27.11,48.92,0h-.07C42.52.11,35,2.79,29.18,7a28.47,28.47,0,0,0-7.74,8.19,21,21,0,0,0-3.14,11,27.1,27.1,0,0,0,3,12A7.85,7.85,0,0,0,22,44.34a12.22,12.22,0,0,0,.3,9.06,26,26,0,0,0,6.65,9.24l.05.07c0,.07.06.14.09.23,1,2.44,4,9.83,10.8,15,.38.82.75,1.55,1.12,2.21a75.08,75.08,0,0,1,1.45,9.47.09.09,0,0,0,0,.05c-1,1.08-2.56,3.08-3,3.69a37.77,37.77,0,0,0-4,1.46,8.37,8.37,0,0,0-9.66,4,12.91,12.91,0,0,0-.9,9.4l-1.6,3.92a92.18,92.18,0,0,1-3.56-9.37,14.68,14.68,0,0,1-.48-5.65c.46-1.47,1.6-7.5,1.2-9.12s-2.56-3.17-3.76-3.83c0-2.39.23-6.22.29-6.9a.43.43,0,0,1,0,0,31.06,31.06,0,0,0,.38-8,15.63,15.63,0,0,0,.9-4.81c0-1.7-.65-3.81-2.47-4.19a3,3,0,0,0-2.57.54,4.65,4.65,0,0,0-1.35,3.76,19.67,19.67,0,0,0,.48,4.39c-.68,1.55-.86,5.5-.5,7.71a11.24,11.24,0,0,0-.44,2.82,2.29,2.29,0,0,1,0,.25A12.12,12.12,0,0,0,9.65,76,15.79,15.79,0,0,0,7.33,70a23.08,23.08,0,0,0-1.27-5.1,4.66,4.66,0,0,0-2.5-2.58,2.58,2.58,0,0,0-2.11.09c-1.8.9-1.76,3.82-.79,6.25a11.36,11.36,0,0,0,1.82,3.17,18,18,0,0,0,2,5.33,24.38,24.38,0,0,0,1.81,5.19,3,3,0,0,0-.42.6A9.61,9.61,0,0,0,3,83.3,4.45,4.45,0,0,0,.87,86.91c.06,1.46,1.69,3.4,2.7,4.38a9.08,9.08,0,0,0,2.87,3.57c0,.12.08.26.13.4a8.93,8.93,0,0,0,3.88,5.42c.79,1.42,1.64,4.63,2.65,10.06,1.14,6.08,2.18,11.11,3,14.55s4.39,6.51,6.41,7.84a2.26,2.26,0,0,0,2.25.75,2.81,2.81,0,0,0,1.78-2.12,33.23,33.23,0,0,0,2.14-4.71c.43-1.07.93-2.28,1.51-3.65A51.89,51.89,0,0,0,33,113.52c0-.19.07-.37.11-.55l.64-.83a19.51,19.51,0,0,0,1.47,4.45,9.52,9.52,0,0,0,.4,4.22,5.81,5.81,0,0,0,0,3.36,6.33,6.33,0,0,0-.27,3.57,13.38,13.38,0,0,0,.18,4.86.69.69,0,0,0,.62.42l25.36.53h0a.71.71,0,0,0,.62-.38,11.33,11.33,0,0,0,.38-4.31,3.17,3.17,0,0,1,0-1.41,5.47,5.47,0,0,0,0-1.52,4.81,4.81,0,0,0-.3-1.47,6,6,0,0,0,.06-3,6.4,6.4,0,0,1-.1-.82,2.49,2.49,0,0,1,.15-.67,4.8,4.8,0,0,0,.19-.79,6.43,6.43,0,0,0,0-1.41,3,3,0,0,1,0-.9c.39-1.17.79-2.54,1.13-3.9a4.37,4.37,0,0,1,0,.81,29.85,29.85,0,0,0,0,8.3c-.31,3.54-.7,8,.49,11.41a.69.69,0,0,0,.65.46h6.71a.69.69,0,0,0,.6-.34c1.18-2,1.07-9.32.52-11.26a37.13,37.13,0,0,0,.41-13.9c.48-3.51,1.1-8.27-2.1-11.31a10.3,10.3,0,0,0-8.55-2.3A6.53,6.53,0,0,0,60.09,94a6.34,6.34,0,0,1-1.79-.64,7.27,7.27,0,0,1-1.61-1.91,12.28,12.28,0,0,0-1.34-1.74v0a2,2,0,0,1,0-.36,67.27,67.27,0,0,1,1.43-9c.39-.69.79-1.45,1.18-2.31,6.85-5.18,9.82-12.57,10.8-15a1.36,1.36,0,0,0,.09-.23l0-.06a25.89,25.89,0,0,0,6.65-9.25,12.18,12.18,0,0,0,.31-9.06A7.94,7.94,0,0,0,76.45,38.2ZM67.83,61.75a5.3,5.3,0,0,0-.45.34,18.61,18.61,0,0,0-5,5.52,15.15,15.15,0,0,1,3.08-2.85c.47-.34,1-.65,1.45-1a33.54,33.54,0,0,1-8.13,11.68c.61-.74,1.21-1.49,1.77-2.27a33.88,33.88,0,0,0,2.68-4.33c.46-.88.88-1.8,1.27-2.72a47,47,0,0,1-3,4.57c-.54.72-1.12,1.42-1.73,2.09-.31.34-.64.67-1,1l-.1.09h0c.49-.63.94-1.28,1.37-2a17.19,17.19,0,0,0,1.34-2.46A17.3,17.3,0,0,1,59,72.4h0l.33-1.89,0,.06-1.17,3.07-1.32,3.47,0,.09h0A18.52,18.52,0,0,1,53,83a23.52,23.52,0,0,0,1.69-3.22,37.52,37.52,0,0,0,1.68-4.51A37.06,37.06,0,0,1,54,80.1a14.79,14.79,0,0,1-2.76,3.67h-.1l0,0A10.15,10.15,0,0,0,52,82.52a18.66,18.66,0,0,0,1.28-2.85,17.39,17.39,0,0,1-2,2.86,6.63,6.63,0,0,1-1.08,1,1.71,1.71,0,0,1-.53.29c-.29,0-.54,0-.71,0h-.23c-.17,0-.41,0-.69,0a1.34,1.34,0,0,1-.3-.12,3.15,3.15,0,0,1-.55-.41,8.94,8.94,0,0,1-1-1.1,18.4,18.4,0,0,1-1.71-2.56A17.86,17.86,0,0,0,46,82.84a9.48,9.48,0,0,0,.62.94h-.07l-.38-.36a18.23,18.23,0,0,1-2.68-3.82,35.48,35.48,0,0,1-2.08-4.3,36.19,36.19,0,0,0,1.92,5A21.55,21.55,0,0,0,44.7,83,18.69,18.69,0,0,1,41,77.22h0c0-.12-.09-.23-.14-.35-.47-1.25-1-2.49-1.42-3.74l-1-2.61v.06c.11.61.22,1.22.32,1.83h0a17.72,17.72,0,0,1-2.42-2.91A16.26,16.26,0,0,0,37.7,72c.42.68.88,1.33,1.36,2h0L39,73.83c-.33-.33-.66-.66-1-1a26.26,26.26,0,0,1-1.73-2.09,47,47,0,0,1-3-4.57c.39.92.8,1.84,1.26,2.72a35,35,0,0,0,2.68,4.33c.57.78,1.17,1.53,1.78,2.27a33.49,33.49,0,0,1-8.14-11.7,16.66,16.66,0,0,1,4.53,3.82,16.25,16.25,0,0,0-2.54-3.35A21.69,21.69,0,0,0,30,61.8l0,0a24.58,24.58,0,0,1-6.46-8.92,10.8,10.8,0,0,1-.19-8.22l.15-.33a5.45,5.45,0,0,1,.29-.53,9.43,9.43,0,0,1,8.71-4.33,10.31,10.31,0,0,0-2.72-.12,8.65,8.65,0,0,0-1.24.11c-1,.15-2.21.45-2.89-.46a1.87,1.87,0,0,1-.35-1.13l.09-.64a12.15,12.15,0,0,0,0-2.56,13.83,13.83,0,0,0-.48-2.37,48.49,48.49,0,0,1-1.22-4.78,12.4,12.4,0,0,1,0-4.93,16.06,16.06,0,0,1,1.85-4.12A27.8,27.8,0,0,0,24,20.91a10,10,0,0,0-.94,2.7,16,16,0,0,0,0,5.26c.13.88.3,1.76.47,2.64A21.22,21.22,0,0,1,24,34.14a10.07,10.07,0,0,1-.15,2.63c-.17.87-.42,1.72-.63,2.57a18.7,18.7,0,0,0-.48,3.33,6.57,6.57,0,0,1,0-4.33.09.09,0,0,0,0-.05s0,0,0-.06a6.46,6.46,0,0,0,.18-1.07,12.55,12.55,0,0,0-.48-4.22,30.72,30.72,0,0,0-1.41-4.08,27.91,27.91,0,0,1,.87,5,12.89,12.89,0,0,1,0,2.24s0,.05,0,.07a25.67,25.67,0,0,1-2.21-9.93c0-8.78,5.61-14.7,10.31-18.11,5.59-4,12.83-6.63,18.88-6.74h0C55,1.48,62.22,4.06,67.8,8.11c4.71,3.41,10.31,9.33,10.31,18.11a25.74,25.74,0,0,1-2.21,10,13.2,13.2,0,0,1,0-2.88,30.32,30.32,0,0,1,.83-4.43,29.46,29.46,0,0,0-1.54,4.59,10.93,10.93,0,0,0-.28,4.26,2.6,2.6,0,0,0,.16.71,6.57,6.57,0,0,1,0,4.25,18.71,18.71,0,0,0-.49-3.33c-.21-.85-.46-1.7-.62-2.57a10.07,10.07,0,0,1-.16-2.63,23.27,23.27,0,0,1,.44-2.63c.18-.88.35-1.76.48-2.64a15.74,15.74,0,0,0,0-5.26,9.63,9.63,0,0,0-.94-2.7,27.69,27.69,0,0,0-1.56-2.47,16.77,16.77,0,0,1,1.85,4.12,12.4,12.4,0,0,1,0,4.93,43.47,43.47,0,0,1-1.22,4.78,14.83,14.83,0,0,0-.47,2.37,11,11,0,0,0,0,2.56c0,.22,0,.43.08.64A1.79,1.79,0,0,1,72.17,39c-.69.91-1.94.61-2.9.46A8.67,8.67,0,0,0,68,39.32a10.18,10.18,0,0,0-2.7.12A10.28,10.28,0,0,1,71,40.77a8.45,8.45,0,0,1,3.32,3.56l.11.24s0,0,0,0a10.85,10.85,0,0,1-.17,8.26A24.61,24.61,0,0,1,67.83,61.75ZM54,89.16v.08a5.06,5.06,0,0,0,0,.54.43.43,0,0,0,0,0l-.24,3.49c.27-.56.54-1.11.82-1.67.08-.17.17-.35.26-.52.26.32.49.67.74,1a11.55,11.55,0,0,0,1.19,1.59l-1,.38,2,.46a8.24,8.24,0,0,0,2,.7,6.42,6.42,0,0,1,1.55.52,19.1,19.1,0,0,0-1.15,1.57,23,23,0,0,1,2.45-1.17c1.44-.27,5-.35,7.37,1.94,2.72,2.59,2.14,6.83,1.68,10.23v.08a16.57,16.57,0,0,1-.94,3,14.94,14.94,0,0,0,1.15-1.24,34.75,34.75,0,0,1-.63,12,0,0,0,0,0,0,0l0,.1L70.1,125l.29-.28,1.08-1c.27,2.25.25,7.1-.41,8.9h-2a2.34,2.34,0,0,0-.09-.38c-.09-.29-.27-.69-.62-.7s-.55.43-.64.73c0,.11,0,.23-.07.35H65.28c-.78-2.69-.63-6-.39-9L66.15,125l-.15-.41L65,122a28.8,28.8,0,0,1,0-8,4.43,4.43,0,0,0,0-.65c0-1,.14-2.78,1.44-2.46A4.71,4.71,0,0,1,65,107.78a8.11,8.11,0,0,0-2.58,2.4,6.56,6.56,0,0,0-.69,1.1,10.34,10.34,0,0,0-.87,2.6,10,10,0,0,1,1.28-1.94c.14-.17.29-.33.45-.49-.39,1.7-.91,3.55-1.4,5h0a8.07,8.07,0,0,1-2.81,2.82,10.72,10.72,0,0,0,2.79-1.19,4,4,0,0,1,0,.91,2.69,2.69,0,0,1-.13.55,4.4,4.4,0,0,0-.2.85.36.36,0,0,0,0,.09,9.72,9.72,0,0,1-1.88,2.79A10.93,10.93,0,0,0,61,122.07a3.84,3.84,0,0,1-.11,2.08.88.88,0,0,0,0,.15,10.08,10.08,0,0,1-1.59,2.25,18.61,18.61,0,0,0,1.88-1,3,3,0,0,1,0,.42.45.45,0,0,0,0,.11,3.91,3.91,0,0,1,0,1.17l0,.15a8.93,8.93,0,0,1-1.86,2.66,12,12,0,0,0,1.89-1l.06.23a12.59,12.59,0,0,1-.2,2.88l-5-.1.24-.12a6.34,6.34,0,0,0,1.54-1.07A14.65,14.65,0,0,0,55.3,132l-13.42-.27a13.53,13.53,0,0,0-2-.9,5.79,5.79,0,0,0,1.2.88l-4.4-.09a16.18,16.18,0,0,1-.11-2.63,10.84,10.84,0,0,0,1.92,1.05,9.31,9.31,0,0,1-1.8-2.51h0a5.79,5.79,0,0,1-.05-2.16,11.42,11.42,0,0,0,1.85,1.15A10,10,0,0,1,37,124.14a.3.3,0,0,0,0-.1,5.28,5.28,0,0,1-.27-2,12,12,0,0,0,2.09,1.26A9.91,9.91,0,0,1,37,120.65s0,0,0-.06a8.07,8.07,0,0,1-.49-2.74c.22.16.45.31.68.45a9.77,9.77,0,0,0,2.17,1,10.45,10.45,0,0,1-1.64-1.48,8,8,0,0,1-1.14-1.61.67.67,0,0,0-.06-.12,18.24,18.24,0,0,1-1.45-4.35,5.79,5.79,0,0,1,1.8,2.12,6.53,6.53,0,0,0-.76-2.13,11.39,11.39,0,0,0-1.18-1.8,10.7,10.7,0,0,0-1.69-1.74,3.61,3.61,0,0,1-2.62,2.87,3.42,3.42,0,0,1-1.56,0c.75,2.2.13,4.55-.63,6.65-.39,1.06-.83,2.09-1.3,3.11a5.42,5.42,0,0,0-1-2.29,16.45,16.45,0,0,1,.1,5.24,32.58,32.58,0,0,1-.94,4.7c-.17.59-.34,1.18-.53,1.77a13.74,13.74,0,0,0,.95-1.62c.39-.75.75-1.51,1.1-2.28.83-1.86,1.61-3.74,2.39-5.61.4-.94.79-1.88,1.19-2.81l.38-.87a37.86,37.86,0,0,1-1.87,5.77c-.58,1.38-1.08,2.6-1.51,3.67a32.66,32.66,0,0,1-2.08,4.57,1,1,0,0,0-.09.21,1.66,1.66,0,0,1-.85,1.25c-.33.09-.71-.19-1-.45l0,0-.05-.07-1.59-2.14.07.38L22,131c-1.76-1.42-4-3.71-4.55-6.06-.83-3.42-1.87-8.43-3-14.48-.93-5-1.7-8.08-2.48-9.83a11.27,11.27,0,0,0,1.41-.38,11,11,0,0,1-2-.66.18.18,0,0,1-.07-.05,7,7,0,0,1-3.15-4,3,3,0,0,0,2.69-1,2.58,2.58,0,0,0,.55-1.88,6.43,6.43,0,0,1,1.29-1.84,4.06,4.06,0,0,0,.52,1.85,3.93,3.93,0,0,1,1-2.53,3.57,3.57,0,0,1,1.11-.86,4,4,0,0,1-2.2-.42,1.59,1.59,0,0,1-.71-.74,1.68,1.68,0,0,1,0-1.17A4.24,4.24,0,0,1,11,88.49l0,0a2.34,2.34,0,0,1-.27.15,3.16,3.16,0,0,1-1.58.26,4.87,4.87,0,0,1-1.3-.28,4.34,4.34,0,0,1-1.36-.72c-.44-.38-.88-1.06-.57-1.65C6.11,85.84,6.62,86,7,86a13,13,0,0,0,1.4,0c.47,0,.94-.07,1.41,0a4,4,0,0,1,.69.1,1.08,1.08,0,0,0,.75,0,11.42,11.42,0,0,1,1.88-.6,9.41,9.41,0,0,1,2.17-.32,3.34,3.34,0,0,1,.43,0c1,.49,3,2,3.3,3.07s-.7,6.92-1.19,8.39a.25.25,0,0,0,0,.07,1.62,1.62,0,0,1,0,.19,7.79,7.79,0,0,1-.42,1.14c-.21.46-.47.9-.7,1.35l1-.79a20.25,20.25,0,0,0,.62,4.42c.75,3,4.13,10.77,4.27,11.1h0c.64,1.21,1.21,2.46,1.74,3.72.26.65.52,1.29.74,2a9.28,9.28,0,0,1,.46,1.94,8.76,8.76,0,0,0-.16-2.11c-.11-.69-.25-1.37-.41-2-.29-1.25-.63-2.49-1-3.7l1.85-4.52c.4.39.82.77,1.24,1.13-.3-.78-.57-1.57-.82-2.37a.51.51,0,0,0,0-.17,11.65,11.65,0,0,1,.73-8.55,6.94,6.94,0,0,1,8.2-3.23.64.64,0,0,0,.18.06,21.32,21.32,0,0,1,2.31,1.11c-.35-.53-.73-1-1.13-1.54.93-.38,2.5-.91,3.52-1.22l.13-.06L42,94.13l-1.12-.44c.53-.69,1.37-1.76,2.08-2.57L44,93.32c0-.62-.09-1.24-.13-1.85s-.06-1-.1-1.5v-.09a59.46,59.46,0,0,0-.8-6.4,33.29,33.29,0,0,1,1.5,4.73,12.8,12.8,0,0,1,.33,2.12,10.71,10.71,0,0,1,.45-1.59,3,3,0,0,1,.52-.94.5.5,0,0,1,.54-.19c.26.09.41.4.52.63A4,4,0,0,1,48.07,86a1.65,1.65,0,0,1,.58-.32.62.62,0,0,0,.21,0s0-.23,0-.27v-.18h0v.18s0,.24,0,.27a.71.71,0,0,0,.21,0,1.61,1.61,0,0,1,.59.32,4.11,4.11,0,0,1,1.21,2.26,1.11,1.11,0,0,1,.51-.63.51.51,0,0,1,.55.19,2.77,2.77,0,0,1,.51.94,10.74,10.74,0,0,1,.46,1.59,12.8,12.8,0,0,1,.33-2.12,32.4,32.4,0,0,1,1.4-4.49C54.36,85.56,54.16,87.38,54,89.16Zm14.37,42.89c.07,0,.13.2.17.25s.1.2.14.3H68A2,2,0,0,1,68.33,132.05Zm0,0h0ZM4.74,90.56l-.07-.11c-.11-.26-.19-.53-.28-.8a8.82,8.82,0,0,1-.3-1.15,8.32,8.32,0,0,0-.32,1,5.73,5.73,0,0,1-1.52-2.65A3.09,3.09,0,0,1,3.6,84.54a13.38,13.38,0,0,1,2.71-.19.7.7,0,0,0,.25,0l.93.07-.44-.69a1.73,1.73,0,0,1,.33-.45l1.46.23-1-1.17a1,1,0,0,0-.07-.15A23.44,23.44,0,0,1,6,77.88l1.11.31L5.74,76.64s0,0,0-.06A16,16,0,0,1,4,72.13l.75,0-1-.86a.7.7,0,0,0-.13-.17,9.73,9.73,0,0,1-1.66-2.88c-.8-2-.75-4.07.13-4.51a1.18,1.18,0,0,1,1,0,3.32,3.32,0,0,1,1.71,1.83A21,21,0,0,1,6,70.28a.67.67,0,0,0,0,.24v1.42l.54-.59a13.76,13.76,0,0,1,1.73,4.84.69.69,0,0,0,.05.24c0,.36-.07.73-.13,1.09l.58-.4a13,13,0,0,1,1.31,3.22c.32,1.08.5,1.68,1.06,1.87a.89.89,0,0,0,.81-.15c.61-.45.67-1.37.75-2.53a15.26,15.26,0,0,1,.19-1.76,7.76,7.76,0,0,0,.84.57,6.2,6.2,0,0,1-.56-1.67s0-.09,0-.13l0-.17c0-.05,0-.1,0-.15h0a19.31,19.31,0,0,1,.3-6.46l.88.27-.6-1.14s0-.07,0-.1a18,18,0,0,1-.49-4.29A3.44,3.44,0,0,1,14,61.82a1.71,1.71,0,0,1,1.42-.27c1.08.23,1.37,1.9,1.37,2.85a14.31,14.31,0,0,1-.87,4.51,1,1,0,0,0,0,.17l-.66,1.39.76-.35a33.1,33.1,0,0,1-.42,6.66,2.9,2.9,0,0,1-.3.49,6.4,6.4,0,0,1-.71.85,6.92,6.92,0,0,0,.91-.25c0,.56-.07,1.24-.11,1.92,0,1-.11,2.63-.13,4-.31,0-.62,0-.92.07a16.57,16.57,0,0,0-2.42.53l-.5.16a3.61,3.61,0,0,1-.42.16,1.16,1.16,0,0,1-.4-.07l-.36-.05a5.62,5.62,0,0,0-.82,0c-.47,0-.94.05-1.42.06s-1,0-1.52,0a1.92,1.92,0,0,0-1.87,1.18,2.51,2.51,0,0,0,0,1.92,3.66,3.66,0,0,0,1.64,1.75,6.64,6.64,0,0,0,2.44.81,5.74,5.74,0,0,0,.35.47A5.07,5.07,0,0,1,10,92.59a1.63,1.63,0,0,1,0,.76,1.21,1.21,0,0,1-.68.72,1.57,1.57,0,0,1-1,.14A2,2,0,0,1,7.66,94c-.11-.06-.22-.15-.34-.21h0C6.74,93.49,5.83,92.68,4.74,90.56Z"/><path class="cls-1" d="M44.42,60.71a4.13,4.13,0,0,1-.33,1.77.88.88,0,0,1-.05.15,7.27,7.27,0,0,0,1.48-5.18,14.79,14.79,0,0,0-.23-2l-.12-.6a11.58,11.58,0,0,0-5.81-8A14,14,0,0,0,31.84,45a1,1,0,0,0-.24,0l-.53,0a19.31,19.31,0,0,0-2.93.41,7.69,7.69,0,0,0-2.65.93,2.73,2.73,0,0,0-1,2.38,5.13,5.13,0,0,0,1.06,3.22,6.08,6.08,0,0,1-.35-1.07A3.13,3.13,0,0,1,25.76,48a.85.85,0,0,1,.29-.19c-.43,2.07,0,6.94,5.07,10.8a12.81,12.81,0,0,0,9.67,2.58,11.91,11.91,0,0,1-6.66.34,12.64,12.64,0,0,0,5.68.78,10.08,10.08,0,0,0,4.61-1.58Zm-1-2a3.31,3.31,0,0,0,.8-1.32,1.61,1.61,0,0,1-.49,1.72,1.78,1.78,0,0,1-1.77.17A4.73,4.73,0,0,0,43.45,58.67Zm-5.63-10a.75.75,0,1,1-.72.78A.76.76,0,0,1,37.82,48.7ZM32.53,47c1.68.09,3.07,1,3.11,2s-1.29,1.78-3,1.68-3.06-1-3.1-2S30.85,46.93,32.53,47Zm-2.42,8.49a10.48,10.48,0,0,1-1.51-2.37,19.54,19.54,0,0,0,3.54,3.44,18.13,18.13,0,0,0,4.44,2.34c.92.34,1.86.61,2.81.87A12.41,12.41,0,0,1,30.11,55.51Z"/><path class="cls-1" d="M26.25,45a12,12,0,0,1,2.28-.62,17.39,17.39,0,0,1,8.39.37,15.11,15.11,0,0,1,6.74,4.51,12.47,12.47,0,0,0-3-3.43,13.7,13.7,0,0,0-8.19-2.81,14.29,14.29,0,0,0-4.64.63,7.55,7.55,0,0,0-2,1,3.16,3.16,0,0,0-1.28,1.58A4,4,0,0,1,26.25,45Z"/><path class="cls-1" d="M44,44.77a11.85,11.85,0,0,1,.94,1.57c.32.62.59,1.26.9,1.89a10,10,0,0,0-.62-2.39,9.64,9.64,0,0,0-1.9-3,8.16,8.16,0,0,0-5.61-2.47,15.37,15.37,0,0,1,3.06,1.32A10.84,10.84,0,0,1,44,44.77Z"/><path class="cls-1" d="M43.87,68.05c.25-.45.54-.87.83-1.3a5.07,5.07,0,0,0,1.15-2.81,8,8,0,0,1-.73,1.35c-.3.44-.63.85-.93,1.3a5.45,5.45,0,0,0-1,2.9C43.39,69,43.61,68.52,43.87,68.05Z"/><path class="cls-1" d="M45.14,63.57c-.59.92-1.32,1.73-2,2.6a3.6,3.6,0,0,0,1.3-1.06A2.91,2.91,0,0,0,45.14,63.57Z"/><path class="cls-1" d="M47.14,65.57c-.31.13-.61.32-.91.48s-.86.65-.75,1.17a.81.81,0,0,0,1.2.52,2.37,2.37,0,0,0,1-1.15c.1-.22.4-.85.13-1A.68.68,0,0,0,47.14,65.57Z"/><path class="cls-1" d="M43.61,74a6.24,6.24,0,0,1,.57-1.16,1.5,1.5,0,0,0-.77,2.43A5.43,5.43,0,0,1,43.61,74Z"/><path class="cls-1" d="M50.59,37.63a9.2,9.2,0,0,1-1.46.29,4.64,4.64,0,0,1-1.39-.16c-.59-.13-1.17-.3-1.76-.46a28.65,28.65,0,0,0-5.56-1.17,10.1,10.1,0,0,0-4.2.4,15.72,15.72,0,0,1,5.53.64c1.56.43,3.08,1,4.64,1.45a8.9,8.9,0,0,0,2.5.51,9,9,0,0,0,2.51-.51c3.32-1,6.62-2.4,10.17-2.09a12.59,12.59,0,0,0-6.59,0C53.5,36.79,52.06,37.25,50.59,37.63Z"/><path class="cls-1" d="M50,34.76a8.52,8.52,0,0,1-2.57,0c-.9-.15-1.79-.38-2.7-.53A11.6,11.6,0,0,0,42,34c1,.23,2,.51,3,.83a19.58,19.58,0,0,0,2.7.73,7.33,7.33,0,0,0,2.76-.08,27.55,27.55,0,0,0,2.65-.76c.88-.28,1.78-.52,2.68-.72a11.88,11.88,0,0,0-3.09.2C51.81,34.4,50.92,34.63,50,34.76Z"/><path class="cls-1" d="M71.74,47.79A.85.85,0,0,1,72,48a3.16,3.16,0,0,1,.54,2.89,6.08,6.08,0,0,1-.35,1.07,5.19,5.19,0,0,0,1.06-3.22,2.76,2.76,0,0,0-1-2.38,7.83,7.83,0,0,0-2.65-.93A19.49,19.49,0,0,0,66.72,45l-.53,0A1,1,0,0,0,66,45a14,14,0,0,0-7.53,1.83,11.57,11.57,0,0,0-5.8,8c0,.2-.08.4-.12.6a14.79,14.79,0,0,0-.23,2,7.27,7.27,0,0,0,1.47,5.18.88.88,0,0,0-.05-.15,4.29,4.29,0,0,1-.33-1.77l.52.32a11.69,11.69,0,0,0,9.78.48,12.28,12.28,0,0,1-5.75-.06q-.45-.12-.87-.27a12.82,12.82,0,0,0,9.62-2.59C71.7,54.73,72.16,49.86,71.74,47.79Zm-6.93-.56a.76.76,0,0,1,.92.53.75.75,0,1,1-1.44.39A.76.76,0,0,1,64.81,47.23ZM54.34,58.67a4.73,4.73,0,0,0,1.46.57A1.8,1.8,0,0,1,54,59.07a1.61,1.61,0,0,1-.48-1.72A3.31,3.31,0,0,0,54.34,58.67Zm3-7.3c-.27-1,.78-2.27,2.35-2.87s3.07-.28,3.34.7-.78,2.27-2.35,2.87S57.61,52.35,57.33,51.37Zm4.52,7.87a11.71,11.71,0,0,1-2.87.47,26.63,26.63,0,0,0,4.55-1.81,17.76,17.76,0,0,0,3.81-2.75,21.8,21.8,0,0,0,1.84-2A11.45,11.45,0,0,1,61.85,59.24Z"/><path class="cls-1" d="M60.42,44a12.67,12.67,0,0,0-6.29,5.28,15.59,15.59,0,0,1,3.51-3,14.82,14.82,0,0,1,7.83-2.2,20.28,20.28,0,0,1,4.33.45,5.74,5.74,0,0,1,3.48,1.71,3.34,3.34,0,0,0-1.54-1.75,8.49,8.49,0,0,0-2.28-1,15,15,0,0,0-4.67-.45A13.89,13.89,0,0,0,60.42,44Z"/><path class="cls-1" d="M52.94,46.23a12,12,0,0,1,2.13-3,9.83,9.83,0,0,1,2.28-1.72,16.24,16.24,0,0,1,2.76-1.15,8.49,8.49,0,0,0-3.6,1,8.32,8.32,0,0,0-3.21,3.1A10.64,10.64,0,0,0,52,48.23c.23-.45.41-.93.64-1.38C52.73,46.65,52.83,46.44,52.94,46.23Z"/><path class="cls-1" d="M53.09,66.75c.29.43.57.85.83,1.3s.48,1,.71,1.44a5.62,5.62,0,0,0-1-2.9c-.3-.45-.63-.86-.93-1.3a8,8,0,0,1-.73-1.35A5,5,0,0,0,53.09,66.75Z"/><path class="cls-1" d="M54.63,66.17c-.66-.87-1.39-1.68-2-2.6a2.92,2.92,0,0,0,.69,1.54A3.52,3.52,0,0,0,54.63,66.17Z"/><path class="cls-1" d="M50,65.54c-.27.2,0,.83.12,1a2.39,2.39,0,0,0,1,1.15.8.8,0,0,0,1.19-.52c.12-.52-.34-.94-.75-1.17a9.84,9.84,0,0,0-.91-.48A.66.66,0,0,0,50,65.54Z"/><path class="cls-1" d="M52.21,74.53a1.63,1.63,0,0,0,.52-.19c.19-.09.33-.12.43.1a1.58,1.58,0,0,1,.12.52,1.65,1.65,0,0,0,.11-1.29.72.72,0,0,0-.31-.48A1,1,0,0,1,52,74c-.72,0-1.31-.62-2.06-.38A7.15,7.15,0,0,1,49,74a2.05,2.05,0,0,1-1-.28,1.48,1.48,0,0,0-1-.11c-.36.09-.7.28-1.06.36a1,1,0,0,1-1.32-.77c-.27.13-.34.54-.38.81a1.53,1.53,0,0,0,.18,1c0-.22.07-.78.4-.68.15,0,.27.14.41.19a1.24,1.24,0,0,0,.66,0,3.8,3.8,0,0,1,1-.09,3.19,3.19,0,0,1,1,.32,2.54,2.54,0,0,0,1.72.06,8.18,8.18,0,0,1,.82-.32,2.51,2.51,0,0,1,1.09,0A2.09,2.09,0,0,0,52.21,74.53Z"/><path class="cls-1" d="M52,75.94a1.92,1.92,0,0,1-1.49.45,14.41,14.41,0,0,0-1.61-.18,14.24,14.24,0,0,0-1.6.18,2,2,0,0,1-1.5-.45c.52,1.29,2,1,3.1,1S51.47,77.23,52,75.94Z"/><path class="cls-1" d="M47.38,79c.51,0,1-.19,1.51-.19s1,.17,1.52.19a2.29,2.29,0,0,0-1.52-.71A2.24,2.24,0,0,0,47.38,79Z"/><path class="cls-1" d="M53.6,72.8A5.68,5.68,0,0,1,54.17,74a5.44,5.44,0,0,1,.21,1.27A1.51,1.51,0,0,0,53.6,72.8Z"/><path class="cls-1" d="M70.3,57.39a47.62,47.62,0,0,1-3.6,4.17,17.72,17.72,0,0,0,2.36-2,20.15,20.15,0,0,0,3.29-4.18A14.36,14.36,0,0,0,73.51,53a11.5,11.5,0,0,0,.64-2.71,21.89,21.89,0,0,1-.85,2.21A26.16,26.16,0,0,1,70.3,57.39Z"/><path class="cls-1" d="M29,59.36a33.48,33.48,0,0,1-3.16-4.23,22.67,22.67,0,0,1-1.27-2.32,24.66,24.66,0,0,1-.93-2.53A11.75,11.75,0,0,0,24.2,53a16.22,16.22,0,0,0,3,5.1,17.69,17.69,0,0,0,3.88,3.5C30.36,60.84,29.65,60.12,29,59.36Z"/><path class="cls-1" d="M44.51,13.93a2.1,2.1,0,0,0,1.5.6,5.15,5.15,0,0,0,1.79-.21,5.32,5.32,0,0,1,1.7-.43,5.51,5.51,0,0,0,1.72-.07,2,2,0,0,0,1.14-1c.43-.94-.06-2.43-1.23-2.49a1.58,1.58,0,0,1,.7,2.44c-.72.86-1.84.34-2.78.45a6.3,6.3,0,0,0-1.41.4,4.69,4.69,0,0,1-1.58.23,1.46,1.46,0,0,1-1.2-.43,1.47,1.47,0,0,1-.12-1.07,2.91,2.91,0,0,1,1.83-2.05,2.56,2.56,0,0,0-1.66.91,2.57,2.57,0,0,0-.72,1.68A1.46,1.46,0,0,0,44.51,13.93Z"/><path class="cls-1" d="M63.16,12.3a3.06,3.06,0,0,0,1.1.3,1.44,1.44,0,0,0,1.08-.33c.55-.57-.24-1.44-.69-1.79a4.23,4.23,0,0,1,.44.94.57.57,0,0,1,0,.46.45.45,0,0,1-.33.14,2.45,2.45,0,0,1-1.68-.53,5.79,5.79,0,0,1-1.36-1.25A1.83,1.83,0,0,1,61.2,8.7a.64.64,0,0,1,1.16-.2A.71.71,0,0,0,61.47,8a1.12,1.12,0,0,0-.75.73,2.46,2.46,0,0,0,.65,2.13A5,5,0,0,0,63.16,12.3Z"/><path class="cls-1" d="M34.81,8.23a2.08,2.08,0,0,0,1.45-.35,1.81,1.81,0,0,0,.88-1.15.56.56,0,0,0-.27-.56.47.47,0,0,0-.61.23.4.4,0,0,1,.43-.05.28.28,0,0,1,0,.39,2.22,2.22,0,0,1-.77.72,2.61,2.61,0,0,1-1,.4.47.47,0,0,1-.45-.14.36.36,0,0,1,0-.41.46.46,0,0,0-.17.62A.69.69,0,0,0,34.81,8.23Z"/><path class="cls-1" d="M42.6,8.26a3.75,3.75,0,0,0,1.5-.46,1.19,1.19,0,0,0,.69-1.15.63.63,0,0,0-.39-.5.45.45,0,0,0-.55.2.39.39,0,0,1,.54,0,.51.51,0,0,1,0,.59,2.08,2.08,0,0,1-1.29.67c-.29.07-.57.12-.86.17a1.56,1.56,0,0,1-.68,0c-.54-.17,0-.81.16-1a1.24,1.24,0,0,0-.61.52.66.66,0,0,0,.09.75C41.54,8.41,42.15,8.32,42.6,8.26Z"/><path class="cls-1" d="M47.81,4.86A1.76,1.76,0,0,0,49.33,5c.43-.12,1-.44.94-1a.55.55,0,0,0-.43-.47c-.06,0-.22,0-.26.06s.08.11.18.11l.08.07a.31.31,0,0,1,0,.38,1.44,1.44,0,0,1-.89.38,1.38,1.38,0,0,1-1-.07A.29.29,0,0,1,48.09,4c-.22-.14-.48.11-.52.32A.64.64,0,0,0,47.81,4.86Z"/><path class="cls-1" d="M55.77,6.18c.28.14.57.28.87.41A1.93,1.93,0,0,0,58,6.86a.66.66,0,0,0,.47-.42c0-.19,0-.47-.22-.53a.37.37,0,0,1,0,.51.6.6,0,0,1-.58.07,10.64,10.64,0,0,1-1.23-.58l-.28-.13c-.17-.08-.48-.17-.56-.36s.1-.33.23-.39A1.51,1.51,0,0,1,56.53,5c-.44-.23-1.1-.35-1.36.2S55.39,6,55.77,6.18Z"/><path class="cls-1" d="M34.11,14.61a3.35,3.35,0,0,0,1.37-.78,2.49,2.49,0,0,0,.75-1.3c.1-.61-.45-.85-.92-1,.15.21.39.38.47.63s-.11.5-.25.69a3.25,3.25,0,0,1-1.13.95,3.58,3.58,0,0,1-1.55.44.69.69,0,0,1-.63-.28.85.85,0,0,1,0-.73.86.86,0,0,0,.24,1.42A2.43,2.43,0,0,0,34.11,14.61Z"/><path class="cls-1" d="M39,19.42a2.29,2.29,0,0,0,1.67.15.81.81,0,0,0,.58-.48c.07-.21,0-.59-.2-.69a.49.49,0,0,1-.12.56.59.59,0,0,1-.43.09,4,4,0,0,1-.91-.12,1.15,1.15,0,0,1-.76-.77c-.1-.32,0-.92.36-1-.26-.14-.56.1-.7.3a1.32,1.32,0,0,0-.21.77A1.54,1.54,0,0,0,39,19.42Z"/><path class="cls-1" d="M53.92,19c0,1.14-1.7,1.38-2.55,1.37a1.68,1.68,0,0,1-1.49-.56.69.69,0,0,1,.29-1,.76.76,0,0,0-.69.65,1.15,1.15,0,0,0,.32,1,2.53,2.53,0,0,0,1.91.62,3.45,3.45,0,0,0,2-.61,1.52,1.52,0,0,0,.6-1.69,1.22,1.22,0,0,0-1.46-.82A1.12,1.12,0,0,1,53.92,19Z"/><path class="cls-1" d="M57.31,15.27a1.41,1.41,0,0,0-.18,2,2.19,2.19,0,0,0,2,.61,4.46,4.46,0,0,0,2.06-1c.56-.41,1.27-.9,1.44-1.61s-.32-1.55-1.06-1.42a.92.92,0,0,1,.67.69,1,1,0,0,1-.23.91,5.7,5.7,0,0,1-1,.79,6.22,6.22,0,0,1-1.6.87,2,2,0,0,1-1.93-.23A1.28,1.28,0,0,1,57.31,15.27Z"/><path class="cls-1" d="M66.58,17.64a1.56,1.56,0,0,0,1.52.16,1,1,0,0,0,.53-.59c.07-.23.05-.59-.2-.71a.62.62,0,0,1-.47.77,1.26,1.26,0,0,1-1-.21c-.28-.16-.67-.34-.81-.66a.55.55,0,0,1,.37-.75.6.6,0,0,0-.67.19.83.83,0,0,0-.21.64A1.68,1.68,0,0,0,66.58,17.64Z"/><path class="cls-1" d="M33.26,20.14a1.45,1.45,0,0,0,1.32-.22.72.72,0,0,0,.28-.54.46.46,0,0,0-.34-.5.41.41,0,0,1-.27.63,1.56,1.56,0,0,1-.83,0,.89.89,0,0,1-.49-1.33.9.9,0,0,0-.57,1.1A1.3,1.3,0,0,0,33.26,20.14Z"/><path class="cls-1" d="M36.82,23.28a.44.44,0,0,1,0-.78c-.3-.11-.57.22-.62.48a.7.7,0,0,0,.38.73.81.81,0,0,0,1.21-.8A.84.84,0,0,1,36.82,23.28Z"/><path class="cls-1" d="M28,12.39a.88.88,0,0,1-.4.87c-.32.18-.58-.06-.52-.41a.5.5,0,0,0-.18.65.65.65,0,0,0,.74.3C28.18,13.65,28.57,12.76,28,12.39Z"/><path class="cls-1" d="M70.25,13.42a.49.49,0,0,0,.12-.61c-.11.3-.43.43-.64.14a.88.88,0,0,1,0-1c-.71,0-.8,1-.34,1.42A.61.61,0,0,0,70.25,13.42Z"/><path class="cls-1" d="M45.73,23.64a.9.9,0,0,0,.71.62.92.92,0,0,0,.92-.33.77.77,0,0,0,.06-.89A.75.75,0,1,1,46,22.81.76.76,0,0,0,45.73,23.64Z"/><path class="cls-1" d="M40.46,13.22a.91.91,0,0,0,.91-.34.77.77,0,0,0,.07-.88.8.8,0,0,1-.9.71.79.79,0,0,1-.57-1,.78.78,0,0,0-.23.84A.91.91,0,0,0,40.46,13.22Z"/><path class="cls-1" d="M58.57,22.94a1,1,0,0,0,1,.3,1,1,0,0,0,.74-.62c.1-.29-.06-.85-.47-.77a.4.4,0,0,1,.12.57.77.77,0,0,1-.61.34.81.81,0,0,1-.84-.89A.81.81,0,0,0,58.57,22.94Z"/><path class="cls-1" d="M55.43,12a1.07,1.07,0,0,0,1,.3,1,1,0,0,0,.73-.62c.1-.3,0-.86-.47-.77a.41.41,0,0,1,.13.57.79.79,0,0,1-.61.33.8.8,0,0,1-.84-.88A.82.82,0,0,0,55.43,12Z"/><path class="cls-1" d="M51.44,27.66a.87.87,0,0,0,.85.58,1.2,1.2,0,0,0,1-.58.82.82,0,0,0,.09-.57c0-.17-.13-.43-.34-.46a.64.64,0,0,1,0,.7,1,1,0,0,1-.65.39.51.51,0,0,1-.58-.34.76.76,0,0,1,0-.76C51.38,26.67,51.35,27.36,51.44,27.66Z"/></g></g></svg>