<?xml version="1.0" encoding="utf-8"?>
<!-- Generator: Adobe Illustrator 24.1.2, SVG Export Plug-In . SVG Version: 6.00 Build 0)  -->
<svg version="1.1" id="Layer_1" xmlns="http://www.w3.org/2000/svg" xmlns:xlink="http://www.w3.org/1999/xlink" x="0px" y="0px"
	 viewBox="0 0 63 134" style="enable-background:new 0 0 63 134;" xml:space="preserve">
<style type="text/css">
	.st0{fill:#3C3C3C;}
</style>
<g id="Layer_2_1_">
	<g id="Layer_1-2">
		<path class="st0" d="M10.5,99.9c-0.7,1.2-1.1,2.6-1.2,4c-0.1,1.5,0.1,3,0.6,4.3c-0.1-0.8-0.1-1.6-0.1-2.3c-0.1-2.7,0.6-5.4,2-7.7
			C11.3,98.6,10.8,99.2,10.5,99.9z"/>
		<path class="st0" d="M15.8,101.8c0.3,0.8,0.4,1.6,0.5,2.4c0.1,0.8,0,1.6-0.3,2.4C17.5,105.4,17.2,102.8,15.8,101.8z"/>
		<path class="st0" d="M25.4,97.7c0.8-0.7,1.1-1.8,1-2.8c-0.5,0.8-1.2,1.6-1.9,2.2c-0.8,0.5-1.8,0.9-2.7,1c0.5,0.3,1.1,0.4,1.7,0.4
			C24.1,98.5,24.8,98.2,25.4,97.7z"/>
		<path class="st0" d="M53.3,108.2c0.3-0.8,0.5-1.6,0.6-2.4c0.3-2.7-0.4-5.9-2.6-7.7c0.4,0.6,0.7,1.3,1,2
			C53.3,102.7,53.6,105.5,53.3,108.2z"/>
		<path class="st0" d="M47.3,106.5c-0.2-0.8-0.3-1.6-0.3-2.4c0.1-0.8,0.3-1.6,0.5-2.4C46.1,102.8,45.8,105.4,47.3,106.5z"/>
		<path class="st0" d="M38.9,98.6c0.9,0.3,1.9,0.2,2.7-0.4c-0.9,0-1.8-0.3-2.6-0.7c-0.9-0.6-1.6-1.5-2-2.6
			C36.5,96.5,37.4,98.1,38.9,98.6L38.9,98.6z"/>
		<path class="st0" d="M33.6,93.1c-0.3,1.1-0.7,2.1-1.3,3.1c-0.2,0.2-0.4,0.6-0.7,0.6s-0.7-0.6-0.9-0.9c-0.5-1-0.9-2.1-1.2-3.2
			c-0.3-1.1-0.6-2.3-0.9-3.4c-0.1,1.5,0.1,3.1,0.4,4.6c0.1,0.6,0.3,1.3,0.6,1.9c0.2,0.6,0.6,1.1,1,1.6c0.3,0.3,0.7,0.5,1.2,0.5
			c0.5-0.1,1-0.4,1.3-0.8c0.7-1.1,1.2-2.3,1.3-3.6c0.2-1.3,0.3-2.7,0.3-4.1C34.3,90.5,34,91.8,33.6,93.1z"/>
		<path class="st0" d="M31.8,105.2c0.8-0.9,1.6-1.7,2.4-2.6c-0.9,0.2-1.7,0.6-2.3,1.2c-0.2-0.3-0.5-0.6-0.8-0.8
			c-0.4-0.4-1-0.5-1.6-0.5c0.6,0.4,1.2,0.9,1.6,1.6C31.3,104.5,31.5,104.8,31.8,105.2z"/>
		<path class="st0" d="M33.4,117.4c-0.3-0.3-0.6-0.5-0.8-0.9c-0.2-0.3-0.4-0.6-0.5-0.9c0-0.1,0-0.3-0.1-0.4c0.1-0.5,0.1-1,0.1-1.5
			c0-1.3-0.1-2.6-0.3-3.9c-0.1,0.8-0.2,1.6-0.3,2.4c-0.1,1-0.2,2-0.3,3c-0.1,0.6-0.3,1.1-0.7,1.6c-0.4,0.5-0.7,0.9-1,1.4
			c0.6-0.2,1.2-0.6,1.7-1c0.2-0.2,0.4-0.4,0.5-0.7c0.2,0.3,0.4,0.5,0.7,0.7c0.6,0.4,1.3,0.7,1.9,1C34,118,33.7,117.7,33.4,117.4z"/>
		<path class="st0" d="M24.5,119.9c0.6,0.5,1.4,0.6,2.2,0.5C26,120.1,25.2,119.9,24.5,119.9z"/>
		<path class="st0" d="M23.6,124.3c0.7,0.6,1.6,0.8,2.5,0.8c-0.4-0.2-0.8-0.4-1.2-0.5C24.5,124.4,24.1,124.3,23.6,124.3z"/>
		<path class="st0" d="M23,127.8c0.4,0.3,0.9,0.6,1.4,0.8c0.5,0.2,1.1,0.3,1.6,0.3c-0.5-0.3-1-0.5-1.5-0.6
			C24,128.1,23.5,128,23,127.8z"/>
		<path class="st0" d="M38.7,119.9c-0.8,0-1.5,0.1-2.2,0.5C37.3,120.6,38.1,120.4,38.7,119.9z"/>
		<path class="st0" d="M38.4,124.9c0.4-0.1,0.8-0.3,1.2-0.6c-0.4,0.1-0.9,0.2-1.3,0.3c-0.4,0.1-0.8,0.3-1.2,0.5
			C37.5,125.1,38,125,38.4,124.9z"/>
		<path class="st0" d="M37.2,128.9c0.6,0,1.1-0.1,1.6-0.3c0.5-0.2,1-0.4,1.4-0.8c-0.5,0.1-1,0.3-1.5,0.5
			C38.1,128.5,37.6,128.7,37.2,128.9z"/>
		<path class="st0" d="M32.2,126.4c0-0.1,0-0.2,0-0.4s0-0.4,0-0.5c0.2-1.4,0-2.9-0.6-4.2c0.2,0.8,0.2,1.6,0.2,2.4c0,0.1,0,0.2,0,0.3
			c-0.1,0.2-0.1,0.5-0.3,0.7c-0.2,0.3-0.4,0.6-0.7,0.8c0.4-0.1,0.7-0.3,0.9-0.5c-0.1,1-0.1,2.1,0,3.1c0.1,0.7,0.2,1.4,0.4,2.1
			c0-0.3-0.1-0.6-0.1-0.9c0-0.8,0-1.5,0.1-2.3l0.1,0.1c0.3,0.3,0.6,0.5,1,0.6C32.7,127.4,32.3,126.9,32.2,126.4z"/>
		<g>
			<path class="st0" d="M59.2,38.2c1.9-3.7,2.9-7.8,3-12c0-3.9-1.1-7.7-3.1-11c-2-3.2-4.6-6-7.7-8.2C45.6,2.8,38,0.1,31.7,0h-0.1
				c-6.3,0.1-13.8,2.8-19.7,7c-3.1,2.2-5.7,5-7.7,8.2c-2,3.3-3.1,7.1-3.1,11c0.1,4.2,1.1,8.3,3,12c-0.6,2.1-0.4,4.3,0.7,6.2
				c-1.1,2.9-1,6.2,0.3,9.1c1.5,3.5,3.8,6.7,6.7,9.2l0,0.1c0,0.1,0.1,0.1,0.1,0.2c1,2.4,4,9.8,10.8,15c0.4,0.8,0.8,1.6,1.1,2.2
				c0.7,3.1,1.2,6.3,1.5,9.5c0,0,0,0,0,0c-1,1.1-2.6,3.1-3,3.7c-1.4,0.4-2.7,0.9-4,1.5c-0.1,0-0.3-0.1-0.4-0.1v1.5
				c0.1,0,0.1,0,0.2,0c0.1,0,0.1,0,0.2,0.1c0.8,0.3,1.6,0.7,2.3,1.1c-0.3-0.5-0.7-1-1.1-1.5c0.9-0.4,2.5-0.9,3.5-1.2l0.1-0.1
				l1.8-0.5l-1.1-0.4c0.5-0.7,1.4-1.8,2.1-2.6l1,2.2c0-0.6-0.1-1.2-0.1-1.8s-0.1-1-0.1-1.5v-0.1c-0.2-2.1-0.4-4.3-0.8-6.4
				c0.6,1.5,1.1,3.1,1.5,4.7c0.2,0.7,0.3,1.4,0.3,2.1c0.1-0.5,0.3-1.1,0.5-1.6c0.1-0.3,0.3-0.7,0.5-0.9c0.1-0.2,0.3-0.2,0.5-0.2
				c0.3,0.1,0.4,0.4,0.5,0.6c0.2-0.9,0.6-1.6,1.2-2.2c0.2-0.1,0.4-0.3,0.6-0.3c0.1,0,0.1,0,0.2,0c0.1,0,0.1,0,0.2,0
				c0.2,0.1,0.4,0.2,0.6,0.3c0.6,0.6,1.1,1.4,1.2,2.3c0.1-0.3,0.3-0.5,0.5-0.6c0.2-0.1,0.4,0,0.5,0.2c0.2,0.3,0.4,0.6,0.5,0.9
				c0.2,0.5,0.3,1,0.5,1.6c0.1-0.7,0.2-1.4,0.3-2.1c0.4-1.5,0.8-3,1.4-4.5c-0.3,1.8-0.5,3.6-0.6,5.4v0.1c0,0.2,0,0.4,0,0.5l-0.2,3.5
				c0.3-0.6,0.5-1.1,0.8-1.7c0.1-0.2,0.2-0.3,0.3-0.5c0.3,0.3,0.5,0.7,0.7,1c0.4,0.6,0.7,1.1,1.2,1.6l-1,0.4l2,0.5
				c0.6,0.3,1.3,0.6,2,0.7c0.5,0.1,1.1,0.3,1.5,0.5c-0.4,0.5-0.8,1-1.2,1.6c0.8-0.4,1.6-0.8,2.5-1.2c1.4-0.3,5-0.3,7.4,1.9
				c2.7,2.6,2.1,6.8,1.7,10.2v0.1c-0.2,1-0.5,2-0.9,3c0.4-0.4,0.8-0.8,1.2-1.2c0.5,4,0.3,8.1-0.6,12v0.1l-1.2,2.8l0.3-0.3l1.1-1
				c0.3,2.3,0.3,7.1-0.4,8.9h-2c0-0.1,0-0.3-0.1-0.4c-0.1-0.3-0.3-0.7-0.6-0.7c-0.3,0-0.5,0.4-0.6,0.7c0,0.1,0,0.2-0.1,0.3H48
				c-0.8-2.7-0.6-6-0.4-9l1.3,1.4l-0.2-0.4l-1-2.6c-0.4-2.7-0.4-5.3,0-8c0-0.2,0-0.4,0-0.6c0-1,0.1-2.8,1.4-2.5
				c-0.9-0.8-1.4-1.9-1.4-3.1c-1,0.6-1.9,1.4-2.6,2.4c-0.3,0.3-0.5,0.7-0.7,1.1c-0.4,0.8-0.7,1.7-0.9,2.6c0.3-0.7,0.8-1.3,1.3-1.9
				c0.1-0.2,0.3-0.3,0.5-0.5c-0.4,1.7-0.9,3.5-1.4,5c-0.7,1.2-1.7,2.1-2.8,2.8c1-0.3,1.9-0.7,2.8-1.2c0,0.3,0,0.6,0,0.9
				c0,0.2-0.1,0.4-0.1,0.5c-0.1,0.3-0.2,0.6-0.2,0.8c0,0,0,0.1,0,0.1c-0.5,1-1.1,2-1.9,2.8c0.7-0.3,1.4-0.7,2-1.2
				c0.2,0.7,0.1,1.4-0.1,2.1c0,0,0,0.1,0,0.2c-0.4,0.8-1,1.6-1.6,2.3c0.6-0.3,1.3-0.6,1.9-1c0,0.1,0,0.3,0,0.4c0,0,0,0.1,0,0.1
				c0.1,0.4,0.1,0.8,0,1.2v0.2c-0.5,1-1.1,1.9-1.9,2.7c0.7-0.3,1.3-0.6,1.9-1l0.1,0.2c0,1,0,1.9-0.2,2.9l-5-0.1l0.2-0.1
				c0.6-0.3,1.1-0.6,1.5-1.1c-0.9,0.3-1.7,0.7-2.5,1.1l-13.4-0.3c-0.6-0.4-1.3-0.7-2-0.9c0.4,0.3,0.8,0.6,1.2,0.9l-4.4-0.1
				c-0.1-0.9-0.1-1.8-0.1-2.6c0.6,0.4,1.2,0.8,1.9,1c-0.7-0.7-1.3-1.6-1.8-2.5c-0.2-0.7-0.2-1.4,0-2.2c0.6,0.4,1.2,0.8,1.8,1.1
				c-0.6-0.7-1.1-1.5-1.5-2.4c0,0,0-0.1,0-0.1c-0.2-0.6-0.3-1.3-0.3-2c0.7,0.5,1.4,0.9,2.1,1.3c-0.7-0.8-1.4-1.7-1.8-2.7
				c0,0,0,0,0-0.1c-0.3-0.9-0.5-1.8-0.5-2.7c0.2,0.2,0.5,0.3,0.7,0.5c0.7,0.4,1.4,0.8,2.2,1c-0.6-0.4-1.1-0.9-1.6-1.5
				c-0.4-0.5-0.8-1-1.1-1.6c0,0,0-0.1-0.1-0.1c-0.7-1.4-1.2-2.8-1.5-4.3c0.8,0.5,1.4,1.3,1.8,2.1c-0.1-0.7-0.4-1.5-0.8-2.1
				c-0.3-0.6-0.7-1.2-1.2-1.8c-0.3-0.4-0.6-0.7-0.9-1l-0.4,3.3l0.1-0.1c0.3,1.5,0.8,3,1.5,4.5c-0.2,1.4,0,2.9,0.4,4.2
				c-0.3,1.1-0.3,2.3,0,3.4c-0.4,1.1-0.5,2.4-0.3,3.6c-0.2,1.6-0.2,3.3,0.2,4.9c0.1,0.2,0.3,0.4,0.6,0.4l25.4,0.5
				c0.3,0,0.5-0.1,0.6-0.4c0.4-1.4,0.5-2.9,0.4-4.3c-0.1-0.5-0.1-0.9,0-1.4c0.1-0.5,0.1-1,0-1.5c0-0.5-0.1-1-0.3-1.5
				c0.3-1,0.3-2,0.1-3c-0.1-0.3-0.1-0.5-0.1-0.8c0-0.2,0.1-0.5,0.2-0.7c0.1-0.3,0.1-0.5,0.2-0.8c0.1-0.5,0.1-0.9,0-1.4
				c0-0.3,0-0.6,0-0.9c0.4-1.2,0.8-2.5,1.1-3.9c0,0.3,0,0.5,0,0.8c-0.4,2.8-0.4,5.5,0,8.3c-0.3,3.5-0.7,8,0.5,11.4
				c0.1,0.3,0.4,0.5,0.7,0.5h6.7c0.2,0,0.5-0.1,0.6-0.3c1.2-2,1.1-9.3,0.5-11.3c1-4.6,1.1-9.3,0.4-13.9c0.5-3.5,1.1-8.3-2.1-11.3
				c-2.4-2-5.5-2.9-8.5-2.3c-0.7-0.4-1.5-0.7-2.3-0.8c-0.6-0.1-1.2-0.3-1.8-0.6c-0.6-0.5-1.2-1.2-1.6-1.9c-0.4-0.6-0.8-1.2-1.3-1.7
				c0-0.1,0-0.2,0-0.4c0.3-3,0.8-6,1.4-9c0.4-0.7,0.8-1.5,1.2-2.3c6.8-5.2,9.8-12.6,10.8-15c0-0.1,0.1-0.2,0.1-0.2v-0.1
				c2.9-2.6,5.1-5.7,6.7-9.3c1.3-2.9,1.4-6.1,0.3-9.1C59.6,42.5,59.9,40.3,59.2,38.2z M50.8,132.6c0.1-0.2,0.2-0.4,0.3-0.5h0
				c0.1,0,0.1,0.2,0.2,0.3c0,0,0.1,0.2,0.1,0.3H50.8z M58.7,33.3c0.2-1.5,0.4-3,0.8-4.4c-0.6,1.5-1.2,3-1.5,4.6
				c-0.4,1.4-0.5,2.8-0.3,4.3c0,0.2,0.1,0.5,0.2,0.7c0.5,1.4,0.5,2.9,0,4.3c-0.1-1.1-0.2-2.2-0.5-3.3c-0.2-0.8-0.5-1.7-0.6-2.6
				c-0.2-0.9-0.2-1.8-0.2-2.6c0.1-0.9,0.2-1.8,0.4-2.6c0.2-0.9,0.4-1.8,0.5-2.6c0.3-1.7,0.3-3.5,0-5.3c-0.2-0.9-0.5-1.9-0.9-2.7
				c-0.5-0.9-1-1.7-1.6-2.5c0.8,1.3,1.4,2.7,1.8,4.1c0.3,1.6,0.3,3.3,0,4.9c-0.3,1.6-0.7,3.2-1.2,4.8c-0.2,0.8-0.4,1.6-0.5,2.4
				c-0.1,0.9-0.1,1.7,0,2.6c0,0.2,0,0.4,0.1,0.6c0,0.4-0.1,0.8-0.3,1.1c-0.7,0.9-1.9,0.6-2.9,0.5c-0.4-0.1-0.8-0.1-1.3-0.1
				c-0.9-0.1-1.8,0-2.7,0.1c2-0.1,4,0.3,5.7,1.3c1.4,0.8,2.6,2.1,3.3,3.6l0.1,0.2c1,2.7,1,5.6-0.2,8.3c-1.4,3.4-3.6,6.5-6.4,8.9
				c-0.2,0.1-0.3,0.2-0.5,0.3c-2,1.5-3.7,3.4-5,5.5c0.9-1.1,1.9-2,3.1-2.9c0.5-0.3,1-0.6,1.5-1c-1.8,4.4-4.6,8.4-8.1,11.7
				c0.6-0.7,1.2-1.5,1.8-2.3c1-1.4,1.9-2.8,2.7-4.3c0.5-0.9,0.9-1.8,1.3-2.7c-0.9,1.6-1.9,3.1-3,4.6c-0.5,0.7-1.1,1.4-1.7,2.1
				c-0.3,0.3-0.6,0.7-1,1l-0.1,0.1c0.5-0.6,0.9-1.3,1.4-2c0.5-0.8,1-1.6,1.3-2.5c-0.7,1.1-1.5,2.1-2.4,3l0.3-1.8l-1.2,3l-1.3,3.5
				v0.1c-0.9,2.2-2.2,4.1-3.8,5.8c0.6-1,1.2-2.1,1.7-3.2c0.7-1.5,1.2-3,1.7-4.5c-0.7,1.7-1.5,3.3-2.4,4.8c-0.7,1.4-1.7,2.6-2.8,3.7
				h-0.1c0.3-0.4,0.6-0.8,0.9-1.3c0.5-0.9,0.9-1.9,1.3-2.8c-0.6,1-1.2,2-2,2.9c-0.3,0.4-0.7,0.7-1.1,1c-0.2,0.1-0.3,0.2-0.5,0.3
				c-0.3,0-0.5,0-0.7,0h-0.2c-0.2,0-0.4,0-0.7,0c-0.1,0-0.2-0.1-0.3-0.1c-0.2-0.1-0.4-0.3-0.5-0.4c-0.4-0.3-0.7-0.7-1-1.1
				c-0.6-0.8-1.2-1.7-1.7-2.6c0.4,1.1,0.9,2.2,1.5,3.2c0.2,0.3,0.4,0.6,0.6,0.9h-0.1l-0.4-0.4c-1.1-1.2-2-2.4-2.7-3.8
				c-0.8-1.4-1.5-2.8-2.1-4.3c0.5,1.7,1.2,3.4,1.9,5c0.4,0.9,0.9,1.8,1.4,2.7c-1.6-1.7-2.8-3.6-3.7-5.8c0-0.1-0.1-0.2-0.1-0.3
				c-0.5-1.3-1-2.5-1.4-3.7l-1-2.6v0.1c0.1,0.6,0.2,1.2,0.3,1.8c-0.9-0.9-1.7-1.9-2.4-2.9c0.4,0.9,0.8,1.7,1.4,2.5
				c0.3,0.6,0.7,1.1,1.1,1.6c-0.3-0.3-0.5-0.5-0.8-0.8c-0.6-0.7-1.2-1.4-1.7-2.1c-1.1-1.5-2.1-3-3-4.6c0.4,0.9,0.8,1.8,1.3,2.7
				c0.8,1.5,1.7,3,2.7,4.3c0.6,0.8,1.2,1.5,1.8,2.3c-3.5-3.3-6.3-7.3-8.1-11.7c1.7,1,3.3,2.3,4.5,3.8c-0.7-1.2-1.6-2.3-2.5-3.4
				c-0.9-0.9-1.8-1.7-2.8-2.5c-2.8-2.4-5-5.5-6.5-8.9c-1.1-2.6-1.2-5.6-0.2-8.2l0.2-0.3c0.1-0.2,0.2-0.4,0.3-0.5
				c1.9-2.9,5.2-4.6,8.7-4.3c-0.9-0.2-1.8-0.2-2.7-0.1c-0.4,0-0.8,0-1.2,0.1c-1,0.2-2.2,0.5-2.9-0.5c-0.2-0.3-0.4-0.7-0.4-1.1
				l0.1-0.6c0.1-0.9,0.1-1.7,0-2.6c-0.1-0.8-0.3-1.6-0.5-2.4c-0.5-1.6-0.9-3.2-1.2-4.8c-0.3-1.6-0.3-3.3,0-4.9
				c0.4-1.5,1-2.8,1.8-4.1c-0.6,0.8-1.1,1.6-1.5,2.4c-0.4,0.9-0.8,1.8-0.9,2.7c-0.3,1.7-0.3,3.5,0,5.3c0.1,0.9,0.3,1.8,0.5,2.6
				c0.2,0.9,0.4,1.7,0.5,2.6c0.1,0.9,0,1.8-0.2,2.6c-0.2,0.9-0.4,1.7-0.6,2.6c-0.3,1.1-0.4,2.2-0.5,3.3c-0.5-1.4-0.5-2.9,0-4.3
				c0,0,0,0,0,0c0,0,0,0,0-0.1c0.1-0.4,0.2-0.7,0.2-1.1c0.1-1.4-0.1-2.9-0.5-4.2c-0.4-1.4-0.8-2.8-1.4-4.1c0.4,1.6,0.7,3.3,0.9,5
				c0.1,0.7,0.1,1.5,0,2.2c0,0,0,0,0,0.1c-1.4-3.1-2.1-6.5-2.2-9.9c0-8.8,5.6-14.7,10.3-18.1c5.6-4,12.8-6.6,18.9-6.7
				C37.8,1.5,45,4.1,50.6,8.1c4.7,3.4,10.3,9.3,10.3,18.1c-0.1,3.4-0.8,6.8-2.2,10C58.5,35.3,58.5,34.3,58.7,33.3z"/>
			<polygon class="st0" points="42.1,70.5 42.1,70.6 42.1,70.6 			"/>
		</g>
		<path class="st0" d="M16.8,113.7c0-0.3,0-0.5,0-0.8c0,0,0,0.1,0,0.1l0.3-3.7c-0.5-0.6-1.1-1.2-1.7-1.6c-0.1,1.2-0.6,2.3-1.4,3.1
			c1.3-0.3,1.4,1.5,1.4,2.5c0,0.2,0,0.4,0,0.7c0.4,2.7,0.4,5.3,0,8l-1,2.6l-0.2,0.4l1.3-1.4c0.2,3,0.4,6.3-0.4,9h-2.4
			c-0.1-0.1-0.1-0.2-0.1-0.4c-0.1-0.3-0.3-0.7-0.6-0.7c-0.4,0-0.5,0.4-0.6,0.7c0,0.1-0.1,0.3-0.1,0.4h-2c-0.7-1.8-0.7-6.7-0.4-8.9
			l1.1,1l0.3,0.3l-1.2-2.8v-0.1c-0.9-3.9-1.1-8-0.6-12c0.4,0.4,0.7,0.8,1.2,1.2c-0.4-1-0.7-2-0.9-3v-0.1c-0.5-3.4-1-7.6,1.7-10.2
			c2.4-2.3,5.9-2.1,7.3-1.8c0.2,0,0.4-0.2,0.4-0.2l-0.4-1.3c-3-0.5-6,0.4-8.3,2.3c-3.2,3-2.6,7.8-2.1,11.3
			c-0.7,4.6-0.6,9.3,0.4,13.9c-0.6,1.9-0.7,9.3,0.5,11.3c0.1,0.2,0.4,0.3,0.6,0.3h6.7c0.3,0,0.6-0.2,0.7-0.5
			c1.2-3.4,0.8-7.9,0.5-11.4C17.2,119.2,17.2,116.4,16.8,113.7z M11.8,132.5c0-0.1,0.1-0.3,0.1-0.3s0.1-0.3,0.2-0.3h0
			c0.1,0.2,0.3,0.4,0.3,0.5H11.8z"/>
		<path class="st0" d="M27.2,60.7c0,0.6-0.1,1.2-0.3,1.8c0,0.1,0,0.1,0,0.2c1.1-1.5,1.7-3.3,1.5-5.2c0-0.7-0.1-1.3-0.2-2l-0.1-0.6
			c-0.6-3.4-2.8-6.3-5.8-8c-2.3-1.3-4.9-2-7.5-1.9c-0.1,0-0.2,0-0.2,0h-0.5c-1,0.1-2,0.2-2.9,0.4c-0.9,0.1-1.8,0.5-2.6,0.9
			c-0.7,0.6-1.1,1.5-1,2.4c0,1.2,0.4,2.3,1.1,3.2C8.2,51.6,8,51.2,8,50.9c-0.3-1-0.1-2.1,0.6-2.9c0.1-0.1,0.2-0.1,0.3-0.2
			c-0.4,2.1,0,6.9,5.1,10.8c2.7,2.1,6.2,3.1,9.7,2.6c-2.1,0.7-4.5,0.9-6.7,0.3c1.8,0.7,3.8,1,5.7,0.8C24.2,62.2,25.8,61.6,27.2,60.7
			L27.2,60.7z M26.2,58.7c0.4-0.4,0.6-0.8,0.8-1.3c0.2,0.6,0,1.3-0.5,1.7c-0.5,0.4-1.2,0.4-1.8,0.2C25.2,59.2,25.7,59,26.2,58.7
			L26.2,58.7z M20.5,48.7c0.4,0,0.8,0.3,0.8,0.7c0,0.4-0.3,0.8-0.7,0.8c-0.4,0-0.8-0.3-0.8-0.7C19.8,49.1,20.1,48.7,20.5,48.7
			C20.6,48.7,20.6,48.7,20.5,48.7L20.5,48.7z M15.3,47c1.7,0.1,3.1,1,3.1,2s-1.3,1.8-3,1.7s-3.1-1-3.1-2S13.6,46.9,15.3,47z
			 M12.9,55.5c-0.6-0.7-1.1-1.5-1.5-2.4c1,1.3,2.2,2.4,3.5,3.4c1.4,1,2.9,1.8,4.4,2.3c0.9,0.3,1.9,0.6,2.8,0.9
			C18.6,59.7,15.2,58.2,12.9,55.5L12.9,55.5z"/>
		<path class="st0" d="M9,45c0.7-0.3,1.5-0.5,2.3-0.6c2.8-0.6,5.7-0.4,8.4,0.4c2.6,0.9,4.9,2.4,6.7,4.5c-0.8-1.3-1.8-2.5-3-3.4
			C21.1,44,18.2,43,15.2,43c-1.6,0-3.1,0.2-4.6,0.6c-0.7,0.2-1.4,0.6-2,1c-0.6,0.4-1,0.9-1.3,1.6C7.8,45.7,8.3,45.3,9,45z"/>
		<path class="st0" d="M26.8,44.8c0.4,0.5,0.7,1,0.9,1.6c0.3,0.6,0.6,1.3,0.9,1.9c-0.1-0.8-0.3-1.6-0.6-2.4c-0.4-1.1-1.1-2.1-1.9-3
			c-1.5-1.5-3.5-2.4-5.6-2.5c1.1,0.3,2.1,0.8,3.1,1.3C24.8,42.5,25.9,43.5,26.8,44.8z"/>
		<path class="st0" d="M26.6,68.1c0.3-0.4,0.5-0.9,0.8-1.3c0.7-0.8,1.1-1.8,1.2-2.8c-0.2,0.5-0.4,0.9-0.7,1.4
			c-0.3,0.4-0.6,0.8-0.9,1.3c-0.6,0.9-1,1.9-1,2.9C26.1,69,26.4,68.5,26.6,68.1z"/>
		<path class="st0" d="M27.9,63.6c-0.6,0.9-1.3,1.7-2,2.6c0.5-0.2,1-0.6,1.3-1.1C27.6,64.7,27.8,64.1,27.9,63.6z"/>
		<path class="st0" d="M29.9,65.6c-0.3,0.1-0.6,0.3-0.9,0.5s-0.9,0.7-0.8,1.2c0.1,0.4,0.5,0.7,1,0.6c0.1,0,0.2,0,0.2-0.1
			c0.5-0.3,0.8-0.7,1-1.2c0.1-0.2,0.4-0.8,0.1-1C30.4,65.5,30.1,65.5,29.9,65.6z"/>
		<path class="st0" d="M26.4,74c0.1-0.4,0.3-0.8,0.6-1.2c-0.8,0.2-1.3,1-1.1,1.8c0.1,0.2,0.2,0.4,0.3,0.6
			C26.2,74.8,26.2,74.4,26.4,74z"/>
		<path class="st0" d="M33.3,37.6c-0.5,0.1-1,0.2-1.5,0.3c-0.5,0-0.9,0-1.4-0.2c-0.6-0.1-1.2-0.3-1.8-0.5c-1.8-0.6-3.7-1-5.6-1.2
			c-1.4-0.2-2.8,0-4.2,0.4c1.9-0.1,3.7,0.1,5.5,0.6c1.6,0.4,3.1,1,4.6,1.5c0.8,0.3,1.6,0.5,2.5,0.5c0.9,0,1.7-0.2,2.5-0.5
			c3.3-1,6.6-2.4,10.2-2.1c-2.2-0.6-4.4-0.6-6.6,0C36.3,36.8,34.8,37.3,33.3,37.6z"/>
		<path class="st0" d="M32.8,34.8c-0.9,0.1-1.7,0.1-2.6,0c-0.9-0.2-1.8-0.4-2.7-0.5C26.6,34,25.7,34,24.8,34c1,0.2,2,0.5,3,0.8
			c0.9,0.3,1.8,0.6,2.7,0.7c0.9,0.1,1.9,0.1,2.8-0.1c0.9-0.2,1.8-0.5,2.7-0.8c0.9-0.3,1.8-0.5,2.7-0.7c-1-0.1-2.1,0-3.1,0.2
			C34.6,34.4,33.7,34.6,32.8,34.8z"/>
		<path class="st0" d="M54.5,47.8c0.1,0.1,0.2,0.1,0.3,0.2c0.6,0.8,0.8,1.9,0.5,2.9c-0.1,0.4-0.2,0.7-0.3,1.1
			c0.7-0.9,1.1-2.1,1.1-3.2c0.1-0.9-0.3-1.8-1-2.4c-0.8-0.5-1.7-0.8-2.7-0.9c-0.9-0.2-1.9-0.4-2.9-0.4h-0.5c-0.1,0-0.1,0-0.2,0
			c-2.6-0.1-5.2,0.5-7.5,1.8c-3,1.7-5.2,4.6-5.8,8c0,0.2-0.1,0.4-0.1,0.6c-0.1,0.7-0.2,1.3-0.2,2c-0.2,1.9,0.3,3.7,1.5,5.2
			c0-0.1,0-0.1,0-0.2c-0.2-0.6-0.3-1.2-0.3-1.8l0.5,0.3c3,1.6,6.6,1.8,9.8,0.5c-1.9,0.4-3.9,0.4-5.8-0.1c-0.3-0.1-0.6-0.2-0.9-0.3
			c3.4,0.5,6.9-0.5,9.6-2.6C54.5,54.7,54.9,49.9,54.5,47.8z M47.6,47.2c0.4-0.1,0.8,0.1,0.9,0.5c0.1,0.4,0,0.8-0.4,1
			c-0.4,0.1-0.8,0-1-0.4c0,0,0-0.1,0-0.2C46.9,47.8,47.2,47.3,47.6,47.2z M37.1,58.7c0.5,0.3,0.9,0.5,1.5,0.6
			c-0.6,0.3-1.3,0.2-1.8-0.2c-0.5-0.4-0.7-1.1-0.5-1.7C36.4,57.8,36.7,58.3,37.1,58.7z M40.1,51.4c-0.3-1,0.8-2.3,2.3-2.9
			s3.1-0.3,3.3,0.7s-0.8,2.3-2.3,2.9S40.4,52.3,40.1,51.4L40.1,51.4z M44.6,59.2c-0.9,0.3-1.9,0.4-2.9,0.5c1.6-0.5,3.1-1.1,4.5-1.8
			c1.4-0.7,2.7-1.7,3.8-2.8c0.7-0.6,1.3-1.3,1.8-2C50.5,56.2,47.8,58.4,44.6,59.2L44.6,59.2z"/>
		<path class="st0" d="M43.2,44c-2.6,1-4.8,2.9-6.3,5.3c1-1.2,2.2-2.2,3.5-3c2.4-1.4,5.1-2.2,7.8-2.2c1.5,0,2.9,0.1,4.3,0.5
			c1.3,0.1,2.6,0.8,3.5,1.7c-0.3-0.7-0.8-1.4-1.5-1.8c-0.7-0.4-1.5-0.8-2.3-1c-1.5-0.4-3.1-0.5-4.7-0.5C46,43.1,44.6,43.4,43.2,44z"
			/>
		<path class="st0" d="M35.7,46.2c0.6-1.1,1.3-2.1,2.1-3c0.7-0.7,1.4-1.3,2.3-1.7c0.9-0.5,1.8-0.9,2.8-1.2c-1.3,0.1-2.5,0.4-3.6,1
			c-1.3,0.7-2.4,1.8-3.2,3.1c-0.7,1.2-1.1,2.4-1.3,3.8c0.2-0.5,0.4-0.9,0.6-1.4C35.5,46.7,35.6,46.4,35.7,46.2z"/>
		<path class="st0" d="M35.8,66.8c0.3,0.4,0.6,0.8,0.8,1.3s0.5,1,0.7,1.4c-0.1-1-0.4-2-1-2.9c-0.3-0.4-0.6-0.9-0.9-1.3
			c-0.3-0.4-0.5-0.9-0.7-1.3C34.8,65,35.2,66,35.8,66.8z"/>
		<path class="st0" d="M37.4,66.2c-0.7-0.9-1.4-1.7-2-2.6c0.1,0.6,0.3,1.1,0.7,1.5C36.4,65.6,36.9,65.9,37.4,66.2z"/>
		<path class="st0" d="M32.8,65.5c-0.3,0.2,0,0.8,0.1,1c0.2,0.5,0.6,0.9,1,1.2c0.4,0.2,0.9,0.1,1.1-0.3c0-0.1,0.1-0.2,0.1-0.2
			c0.1-0.5-0.3-0.9-0.8-1.2c-0.3-0.2-0.6-0.3-0.9-0.5C33.2,65.4,33,65.4,32.8,65.5z"/>
		<path class="st0" d="M35,74.5c0.2,0,0.4-0.1,0.5-0.2c0.2-0.1,0.3-0.1,0.4,0.1C36,74.6,36,74.8,36,75c0.2-0.4,0.3-0.9,0.1-1.3
			c0-0.2-0.1-0.4-0.3-0.5c-0.1,0.5-0.6,0.9-1.1,0.8c-0.7,0-1.3-0.6-2.1-0.4c-0.3,0.1-0.6,0.3-0.9,0.4c-0.4,0-0.7-0.1-1-0.3
			c-0.3-0.2-0.7-0.2-1-0.1c-0.4,0.1-0.7,0.3-1.1,0.4c-0.5,0.2-1.1-0.1-1.3-0.6c0-0.1,0-0.1,0-0.2C27.1,73.3,27,73.7,27,74
			c-0.1,0.3,0,0.7,0.2,1c0-0.2,0.1-0.8,0.4-0.7c0.2,0,0.3,0.1,0.4,0.2c0.2,0.1,0.4,0.1,0.7,0c0.3-0.1,0.7-0.1,1-0.1
			c0.3,0.1,0.7,0.2,1,0.3c0.5,0.2,1.2,0.2,1.7,0.1c0.3-0.1,0.5-0.2,0.8-0.3c0.4-0.1,0.7-0.1,1.1,0C34.5,74.5,34.7,74.6,35,74.5z"/>
		<path class="st0" d="M34.8,75.9c-0.4,0.4-1,0.5-1.5,0.4c-0.5-0.1-1.1-0.2-1.6-0.2c-0.5,0-1.1,0.1-1.6,0.2
			c-0.5,0.1-1.1-0.1-1.5-0.4c0.5,1.3,2,1,3.1,1S34.2,77.2,34.8,75.9z"/>
		<path class="st0" d="M30.1,79c0.5,0,1-0.2,1.5-0.2s1,0.2,1.5,0.2c-0.4-0.4-0.9-0.7-1.5-0.7C31.1,78.3,30.5,78.6,30.1,79z"/>
		<path class="st0" d="M36.4,72.8c0.2,0.4,0.4,0.8,0.6,1.2c0.1,0.4,0.2,0.8,0.2,1.3c0.6-0.6,0.5-1.6-0.1-2.1
			C36.8,73,36.6,72.9,36.4,72.8z"/>
		<path class="st0" d="M53.1,57.4c-1.1,1.5-2.3,2.9-3.6,4.2c0.8-0.6,1.6-1.3,2.4-2c1.3-1.2,2.4-2.6,3.3-4.2c0.5-0.8,0.8-1.6,1.2-2.4
			c0.3-0.9,0.5-1.8,0.6-2.7c-0.2,0.8-0.5,1.5-0.8,2.2C55.2,54.2,54.2,55.9,53.1,57.4z"/>
		<path class="st0" d="M11.8,59.4c-1.2-1.3-2.2-2.7-3.2-4.2c-0.5-0.7-0.9-1.5-1.3-2.3C7,52,6.7,51.1,6.4,50.3
			C6.5,51.2,6.7,52.1,7,53c0.7,1.9,1.7,3.6,3,5.1c1.1,1.4,2.4,2.5,3.9,3.5C13.1,60.8,12.4,60.1,11.8,59.4z"/>
		<path class="st0" d="M27.3,13.9c0.4,0.4,0.9,0.6,1.5,0.6c0.6,0,1.2,0,1.8-0.2c0.5-0.2,1.1-0.4,1.7-0.4c0.6,0.1,1.2,0,1.7-0.1
			c0.5-0.2,0.9-0.5,1.1-1c0.4-0.9-0.1-2.4-1.2-2.5c0.8,0.3,1.2,1.2,0.9,2c-0.1,0.1-0.1,0.3-0.2,0.4c-0.7,0.9-1.8,0.3-2.8,0.4
			c-0.5,0.1-1,0.2-1.4,0.4c-0.5,0.2-1,0.2-1.6,0.2c-0.4,0-0.9-0.1-1.2-0.4c-0.2-0.3-0.2-0.7-0.1-1.1c0.2-0.9,0.9-1.7,1.8-2.1
			c-0.6,0.1-1.2,0.4-1.7,0.9c-0.4,0.5-0.7,1.1-0.7,1.7C26.9,13.3,27,13.6,27.3,13.9z"/>
		<path class="st0" d="M45.9,12.3c0.3,0.2,0.7,0.3,1.1,0.3c0.4,0,0.8-0.1,1.1-0.3c0.6-0.6-0.2-1.4-0.7-1.8c0.2,0.3,0.3,0.6,0.4,0.9
			c0.1,0.1,0.1,0.3,0,0.5C47.8,12,47.6,12,47.5,12c-0.6,0-1.2-0.2-1.7-0.5c-0.5-0.3-1-0.8-1.4-1.3c-0.4-0.4-0.6-1-0.5-1.5
			c0.1-0.3,0.4-0.6,0.8-0.5c0.2,0,0.3,0.1,0.4,0.3C45,8.1,44.6,7.9,44.2,8c0,0,0,0,0,0c-0.4,0.1-0.6,0.4-0.8,0.7
			c-0.1,0.8,0.1,1.6,0.7,2.1C44.6,11.5,45.2,12,45.9,12.3z"/>
		<path class="st0" d="M17.6,8.2c0.5,0.1,1-0.1,1.5-0.3c0.4-0.2,0.8-0.7,0.9-1.2c0-0.2-0.1-0.4-0.3-0.6c-0.2-0.1-0.5,0-0.6,0.2
			c0.1-0.1,0.3-0.1,0.4-0.1c0.1,0.1,0.1,0.3,0,0.4C19.2,7,19,7.3,18.7,7.5c-0.3,0.2-0.6,0.3-1,0.4c-0.2,0-0.3,0-0.5-0.1
			c-0.1-0.1-0.1-0.3,0-0.4c-0.2,0.1-0.3,0.4-0.2,0.6C17.2,8.1,17.4,8.2,17.6,8.2z"/>
		<path class="st0" d="M25.4,8.3c0.5,0,1-0.2,1.5-0.5c0.4-0.2,0.7-0.7,0.7-1.2c0-0.2-0.2-0.4-0.4-0.5c-0.2-0.1-0.4,0-0.5,0.2
			c0.2-0.1,0.4-0.1,0.5,0c0.1,0.2,0.1,0.4,0,0.6c-0.3,0.4-0.8,0.6-1.3,0.7c-0.3,0.1-0.6,0.1-0.9,0.2c-0.2,0.1-0.5,0.1-0.7,0
			c-0.5-0.2,0-0.8,0.2-1c-0.3,0.1-0.5,0.3-0.6,0.5c-0.1,0.2-0.1,0.5,0.1,0.8C24.3,8.4,24.9,8.3,25.4,8.3z"/>
		<path class="st0" d="M30.6,4.9c0.5,0.3,1,0.3,1.5,0.1c0.4-0.1,1-0.4,0.9-1c0-0.2-0.2-0.4-0.4-0.5c-0.1,0-0.2,0-0.3,0.1
			s0.1,0.1,0.2,0.1l0.1,0.1c0.1,0.1,0.1,0.3,0,0.4c-0.2,0.2-0.6,0.4-0.9,0.4c-0.3,0.1-0.7,0.1-1-0.1c-0.1-0.1-0.1-0.3,0-0.4
			c0,0,0.1,0,0.1-0.1c-0.2-0.1-0.5,0.1-0.5,0.3C30.3,4.5,30.4,4.7,30.6,4.9z"/>
		<path class="st0" d="M38.5,6.2c0.3,0.1,0.6,0.3,0.9,0.4c0.4,0.3,0.9,0.4,1.4,0.3c0.2-0.1,0.4-0.2,0.5-0.4c0-0.2,0-0.5-0.2-0.5
			c0.1,0.1,0.1,0.4,0,0.5c-0.2,0.1-0.4,0.1-0.6,0.1c-0.4-0.2-0.8-0.4-1.2-0.6l-0.3-0.1c-0.2-0.1-0.5-0.2-0.6-0.4s0.1-0.3,0.2-0.4
			C38.8,5,39.1,5,39.3,5c-0.4-0.2-1.1-0.3-1.4,0.2S38.1,6,38.5,6.2z"/>
		<path class="st0" d="M16.9,14.6c0.5-0.1,1-0.4,1.4-0.8c0.4-0.3,0.6-0.8,0.8-1.3c0.1-0.6-0.5-0.9-0.9-1c0.2,0.2,0.4,0.4,0.5,0.6
			s-0.1,0.5-0.3,0.7c-0.3,0.4-0.7,0.7-1.1,0.9c-0.5,0.3-1,0.4-1.5,0.4c-0.2,0-0.5-0.1-0.6-0.3c-0.1-0.2-0.1-0.5,0-0.7
			c-0.3,0.3-0.4,0.9,0,1.2c0.1,0.1,0.2,0.2,0.3,0.2C15.8,14.8,16.3,14.8,16.9,14.6z"/>
		<path class="st0" d="M21.8,19.4c0.5,0.3,1.1,0.3,1.7,0.1c0.3-0.1,0.5-0.2,0.6-0.5c0.1-0.2,0-0.6-0.2-0.7c0.1,0.2,0,0.4-0.1,0.6
			c-0.1,0.1-0.3,0.1-0.4,0.1c-0.3,0-0.6,0-0.9-0.1c-0.4-0.1-0.7-0.4-0.8-0.8c-0.1-0.3,0-0.9,0.4-1c-0.3-0.1-0.6,0.1-0.7,0.3
			C21.1,17.7,21,18,21,18.2C21.1,18.7,21.3,19.2,21.8,19.4z"/>
		<path class="st0" d="M36.7,19c0,1.1-1.7,1.4-2.5,1.4c-0.6,0.1-1.1-0.1-1.5-0.6c-0.2-0.3-0.1-0.7,0.2-1c0,0,0.1,0,0.1,0
			c-0.4,0-0.6,0.3-0.7,0.6c-0.1,0.4,0.1,0.7,0.3,1c0.5,0.5,1.2,0.7,1.9,0.6c0.7,0,1.4-0.2,2-0.6c0.5-0.4,0.8-1.1,0.6-1.7
			c-0.2-0.6-0.8-1-1.5-0.8C36.2,18,36.6,18.4,36.7,19z"/>
		<path class="st0" d="M40.1,15.3c-0.6,0.5-0.7,1.4-0.2,2c0,0,0,0,0,0c0.5,0.5,1.3,0.8,2,0.6c0.8-0.1,1.5-0.5,2.1-1
			c0.6-0.4,1.3-0.9,1.4-1.6s-0.3-1.6-1.1-1.4c0.3,0.1,0.6,0.4,0.7,0.7c0.1,0.3,0,0.7-0.2,0.9c-0.3,0.3-0.6,0.6-1,0.8
			c-0.5,0.4-1,0.7-1.6,0.9c-0.6,0.3-1.4,0.2-1.9-0.2C39.8,16.5,39.7,15.8,40.1,15.3z"/>
		<path class="st0" d="M49.3,17.6c0.4,0.3,1,0.4,1.5,0.2c0.3-0.1,0.4-0.3,0.5-0.6c0.1-0.2,0.1-0.6-0.2-0.7c0.1,0.3-0.1,0.7-0.4,0.8
			c0,0,0,0,0,0c-0.3,0.1-0.7,0-1-0.2c-0.3-0.2-0.7-0.3-0.8-0.7c-0.1-0.3,0-0.6,0.3-0.7c0,0,0.1,0,0.1,0c-0.2-0.1-0.5,0-0.7,0.2
			c-0.2,0.2-0.2,0.4-0.2,0.6C48.5,17,48.9,17.4,49.3,17.6z"/>
		<path class="st0" d="M16,20.1c0.4,0.1,0.9,0.1,1.3-0.2c0.2-0.1,0.3-0.3,0.3-0.5c0-0.2-0.1-0.4-0.3-0.5c0.1,0.2,0.1,0.4-0.1,0.6
			c0,0-0.1,0.1-0.2,0.1c-0.3,0.1-0.6,0.1-0.8,0c-0.5-0.1-0.7-0.6-0.6-1.1c0-0.1,0.1-0.2,0.1-0.2c-0.5,0.2-0.7,0.6-0.6,1.1
			C15.2,19.7,15.6,20,16,20.1z"/>
		<path class="st0" d="M19.6,23.3c-0.2-0.1-0.3-0.4-0.2-0.6c0-0.1,0.1-0.1,0.2-0.2C19.3,22.4,19,22.7,19,23c0,0.3,0.1,0.6,0.4,0.7
			c0.4,0.2,0.9,0.1,1.1-0.3c0.1-0.2,0.1-0.3,0.1-0.5C20.3,23.2,19.9,23.4,19.6,23.3z"/>
		<path class="st0" d="M10.8,12.4c0,0.3-0.1,0.7-0.4,0.9c-0.3,0.2-0.6-0.1-0.5-0.4c-0.2,0.1-0.3,0.4-0.2,0.6
			c0.1,0.3,0.5,0.4,0.7,0.3C10.9,13.6,11.3,12.8,10.8,12.4z"/>
		<path class="st0" d="M53,13.4c0.2-0.1,0.2-0.4,0.1-0.6c-0.1,0.3-0.4,0.4-0.6,0.1c-0.2-0.3-0.2-0.7,0-1c-0.7,0-0.8,1-0.3,1.4
			C52.4,13.6,52.8,13.6,53,13.4z"/>
		<path class="st0" d="M28.5,23.6c0.1,0.3,0.4,0.6,0.7,0.6c0.3,0.1,0.7-0.1,0.9-0.3c0.2-0.3,0.2-0.6,0.1-0.9
			c0.1,0.4-0.2,0.8-0.6,0.8c-0.4,0.1-0.8-0.2-0.8-0.6c0-0.1,0-0.3,0.1-0.4C28.5,23,28.4,23.3,28.5,23.6z"/>
		<path class="st0" d="M23.2,13.2c0.3,0.1,0.7-0.1,0.9-0.3c0.2-0.2,0.2-0.6,0.1-0.9c0,0.4-0.4,0.8-0.9,0.7c0,0,0,0,0,0
			c-0.4-0.1-0.7-0.5-0.6-1c0,0,0,0,0,0c-0.2,0.2-0.3,0.5-0.2,0.8C22.6,12.9,22.9,13.2,23.2,13.2z"/>
		<path class="st0" d="M41.3,22.9c0.3,0.3,0.6,0.4,1,0.3c0.3-0.1,0.6-0.3,0.7-0.6c0.1-0.3-0.1-0.9-0.5-0.8c0.2,0.1,0.2,0.4,0.1,0.5
			c0,0,0,0,0,0c-0.1,0.2-0.4,0.3-0.6,0.3c-0.4,0-0.8-0.3-0.8-0.8c0,0,0-0.1,0-0.1C41,22.2,41,22.6,41.3,22.9z"/>
		<path class="st0" d="M38.2,12c0.3,0.3,0.6,0.4,1,0.3c0.3-0.1,0.6-0.3,0.7-0.6c0.1-0.3,0-0.9-0.5-0.8c0.2,0.1,0.3,0.4,0.1,0.6
			c0,0,0,0,0,0c-0.1,0.2-0.4,0.3-0.6,0.3c-0.4,0-0.8-0.3-0.8-0.8c0,0,0-0.1,0-0.1C37.9,11.3,37.9,11.7,38.2,12z"/>
		<path class="st0" d="M34.2,27.7c0.1,0.4,0.5,0.6,0.8,0.6c0.4,0,0.8-0.2,1-0.6c0.1-0.2,0.1-0.4,0.1-0.6c0-0.2-0.1-0.4-0.3-0.5
			c0.1,0.2,0.1,0.5,0,0.7c-0.2,0.2-0.4,0.4-0.7,0.4c-0.3,0-0.5-0.1-0.6-0.3c-0.1-0.2-0.1-0.5,0-0.8C34.1,26.7,34.1,27.4,34.2,27.7z"
			/>
	</g>
</g>
</svg>
