<svg xmlns="http://www.w3.org/2000/svg" viewBox="0 0 183.16 73.32"><defs><style>.cls-1{fill:#3f3f3f;}</style></defs><g id="Layer_2" data-name="Layer 2"><g id="Layer_1-2" data-name="Layer 1"><g id="spaceShip"><path class="cls-1" d="M156.9,21.81a243.51,243.51,0,0,0-35.53-5.27,35.44,35.44,0,0,0-12-11.7A35.09,35.09,0,0,0,61.8,16.54a243.31,243.31,0,0,0-35.53,5.27C4.8,26.78.37,36.13.19,36.52a2.22,2.22,0,0,0,.08,2,2.19,2.19,0,0,0,1.62,1.09l46.86,6.26L39.81,69.28a5.61,5.61,0,0,0-5.07,4h11a5.83,5.83,0,0,0-2.88-3.49l9-23.58,18,2.4a5,5,0,0,0,1.64,2.85c.87.79,2.62,1.6,9.48,2.14,3.2.25,6.62.37,9.1.41v10.3a5.65,5.65,0,0,0-4,3.89h11a5.63,5.63,0,0,0-4-3.89V54.05c2.47,0,5.89-.16,9.1-.41,6.86-.54,8.6-1.35,9.47-2.14a5,5,0,0,0,1.65-2.85l18-2.4,9,23.58a5.83,5.83,0,0,0-2.88,3.49h11a5.59,5.59,0,0,0-5.07-4l-8.94-23.45,46.87-6.26a2.15,2.15,0,0,0,1.61-1.09,2.18,2.18,0,0,0,.08-2C182.8,36.13,178.37,26.78,156.9,21.81ZM73,49.89a2.77,2.77,0,0,1-1-1.73,218.43,218.43,0,0,0,36.44.25l-2.26.27c-3.6.41-8.42.81-13.25,1-1.21.05-2.42.08-3.61.11l-3.5,0c-2.27,0-4.39-.06-6.2-.15s-3.33-.2-4.38-.3-1.66-.19-1.66-.19.59.12,1.64.3,2.55.39,4.37.6,3.93.41,6.2.57l3.52.2c1.19,0,2.41.1,3.63.13,4.87.14,9.75,0,13.41-.12l1.14,0a111,111,0,0,1-15.88,1.06C86.85,51.88,74.65,51.45,73,49.89ZM63.46,18l.45-.78a11.14,11.14,0,0,1,.65-1c.26-.38.54-.8.86-1.25l1.1-1.4c.4-.5.86-1,1.33-1.53s1-1,1.6-1.59,1.21-1.05,1.86-1.59c.33-.26.68-.52,1-.78l.53-.4c.18-.13.37-.24.56-.37l1.14-.75c.4-.25.81-.46,1.22-.7a28.64,28.64,0,0,1,2.6-1.3c.45-.2.92-.36,1.38-.55s.93-.37,1.42-.52L82.65,3l1.5-.37c.25-.06.5-.13.76-.18l.77-.14c.51-.08,1-.19,1.54-.26,1-.1,2.11-.25,3.14-.26l.78,0h.8l1.57.06c.53,0,1,.09,1.57.14l.77.08.77.12a32,32,0,0,1,5.89,1.49A30.78,30.78,0,0,1,107.66,6c.77.47,1.53.91,2.22,1.4.34.25.7.47,1,.72l.95.74.46.35.43.38.82.73c.53.48,1,1,1.44,1.42.87.94,1.6,1.77,2.15,2.5s.95,1.32,1.23,1.72l.42.62-.46-.59c-.3-.39-.72-1-1.33-1.64s-1.34-1.49-2.23-2.38c-.47-.42-1-.89-1.49-1.34l-.84-.69L112,9.59l-.46-.34-1-.7c-.33-.24-.68-.44-1-.67-.69-.47-1.45-.88-2.22-1.31a33.66,33.66,0,0,0-5.09-2.21A30.67,30.67,0,0,0,96.5,3l-.75-.12L95,2.78c-.51,0-1-.1-1.52-.13l-1.54,0h-.76l-.78,0c-1,0-2,.14-3.06.23L86.75,3c1.53,8.08-.38,11.69-1.87,13.21,1.16,0,2.34-.09,3.54-.1,1.42,0,2.86,0,4.3-.05s2.88,0,4.3.05,2.81.08,4.16.12c2.69.12,5.21.26,7.36.44,1.08.08,2.06.17,2.93.26l2.26.23,2,.23-7.19-.22L105,17,101.15,17,97,16.91c-1.41,0-2.84,0-4.28,0-2.87,0-5.74,0-8.43.07L80.41,17h-.1l-2.23.13c-1.63.1-3.16.2-4.58.31s-2.71.21-3.86.32-2.15.21-3,.33-1.47.2-1.91.27l-.67.11h.68l1.92-.07c.83,0,1.83-.08,3-.15s2.45-.16,3.87-.23,2.95-.15,4.57-.22l1.51-.06a142.77,142.77,0,0,0-22.22,5.4c-9.49,3.31-9.84,6.18-9.35,7.48L38,30.79l-10.69.15c-3.18.06-6,.1-8.24.18s-4.08.12-5.31.17l-1.87.08,1.87.08c1.23,0,3,.11,5.31.17s5.06.12,8.24.18L38,32l57.44.77,57.44.74,25.09.29c.29.26.56.52.8.76l-25.46.28-60.92.74-60.92.77-11.33.15c-3.38.06-6.32.1-8.74.18s-4.33.12-5.63.17l-2,.08,2,.08c1.3,0,3.2.11,5.63.17s5.36.12,8.74.18l3.08,0c-2.67,1.08,10,3.85,26.34,6.39L2.18,37.42s3.91-8.7,24.58-13.49a241.83,241.83,0,0,1,36.32-5.3h0Zm102.39,8a48.93,48.93,0,0,1,5.63,2.6c.65.35,1.16.66,1.5.86l.52.33-.54-.3c-.35-.19-.87-.45-1.54-.78S169.93,28,169,27.56s-2.05-.82-3.25-1.25-2.52-.85-3.93-1.26-2.9-.78-4.45-1.14-3.17-.71-4.81-1.05-3.32-.65-5-.95-3.36-.61-5-.88-3.29-.52-4.87-.74l-4.57-.64c-1.45-.2-2.82-.36-4.09-.51-2.54-.3-4.66-.55-6.15-.7l-2.33-.25,2.34.12,2.69.18c1,.07,2.21.16,3.48.28s2.66.25,4.12.41,3,.32,4.59.54,3.22.45,4.88.71,3.35.54,5,.84,3.36.65,5,1,3.25.72,4.81,1.1A69.37,69.37,0,0,1,165.85,26ZM115.56,46.65l-2.87.32,2.85-.44c1.82-.27,4.41-.68,7.52-1.13s6.75-1,10.65-1.52l12.21-1.67,12.22-1.59c3.91-.51,7.55-.94,10.68-1.33s5.73-.67,7.55-.88l2.87-.32-2.85.44c-1.82.27-4.41.68-7.53,1.13s-6.74,1-10.64,1.52L146,42.85l-12.23,1.59c-3.9.51-7.54.94-10.67,1.33S117.38,46.44,115.56,46.65Z"/></g></g></g></svg>