<svg xmlns="http://www.w3.org/2000/svg" viewBox="0 0 1329.56 73"><defs><style>.cls-1{fill:#fff;}</style></defs><g id="Layer_2" data-name="Layer 2"><g id="Layer_1-2" data-name="Layer 1"><path class="cls-1" d="M92.79,32.51V34q0,18.19,0,36.38c0,2,0,2-2,2-5.31,0-10.62,0-15.93,0-1.31,0-1.71-.4-1.71-1.69q0-34.26,0-68.53c0-1.28.39-1.72,1.71-1.7,5.92.06,11.84,0,17.76,0A2.5,2.5,0,0,1,95,1.86c3.77,6.18,7.57,12.33,11.33,18.51,1.56,2.56,3.05,5.16,4.71,8,.7-1.09,1.29-2,1.83-2.86,4.69-7.7,9.39-15.4,14-23.13A3.27,3.27,0,0,1,130.18.53c5.73.09,11.46,0,17.2,0,1.76,0,1.78,0,1.78,1.86q0,34.13,0,68.24c0,1.34-.36,1.82-1.75,1.8-5.45-.07-10.9,0-16.35,0-1.78,0-1.83,0-1.83-1.81q0-18.33,0-36.66a3.74,3.74,0,0,0-.29-1.68c-.28.38-.57.75-.83,1.15L112,58.22c-.9,1.38-1.1,1.39-2,0q-8.1-12.39-16.18-24.78c-.22-.35-.47-.68-.71-1Z"/><path class="cls-1" d="M204.18,38.17V36.35q0-16.84,0-33.7c0-2,0-2.09,2-2.09,5.31,0,10.62,0,15.93,0,1.3,0,1.72.41,1.72,1.7q0,34.28,0,68.54c0,1.31-.45,1.68-1.73,1.66-4.75-.06-9.5,0-14.25,0a2.86,2.86,0,0,1-2.49-1.25q-14.22-18.31-28.49-36.6c-.19-.25-.43-.46-.91-1V35.4L176,70.51c0,1.88,0,1.91-1.88,1.91-5.36,0-10.72,0-16.07,0-1.32,0-1.72-.42-1.72-1.69q0-34.28,0-68.54c0-1.3.46-1.69,1.74-1.68,5.08.06,10.15,0,15.23,0A3,3,0,0,1,176,1.83c4.81,6.2,9.65,12.38,14.44,18.59,4.37,5.65,8.69,11.32,13,17C203.58,37.57,203.74,37.71,204.18,38.17Z"/><path class="cls-1" d="M0,50.05c0-6.86,0-13.72,0-20.58a4.84,4.84,0,0,1,.78-2.6c6-8.31,12-16.56,18-24.87A3.18,3.18,0,0,1,21.73.54C27.89.55,34,.5,40.1,1.91,50.4,4.31,58.82,9.44,63.92,19a36.73,36.73,0,0,1,3.93,20.2c-.65,9.28-4.18,17.28-11.25,23.5a35.55,35.55,0,0,1-18.24,8.55A122.46,122.46,0,0,1,22.8,72.39c-7,.18-14.09,0-21.14.06C.34,72.46,0,72,0,70.76.05,63.86,0,57,0,50.05ZM19.91,36.44h0V53.08c0,.82-.05,1.64,1.18,1.59,3.89-.15,7.82,0,11.67-.49a16.49,16.49,0,0,0,11.56-6.55c3-4,3.41-8.62,3.12-13.42A16.69,16.69,0,0,0,33.81,19.05,102.48,102.48,0,0,0,22,18.34c-2.12-.09-2.12,0-2.12,2C19.92,25.72,19.91,31.08,19.91,36.44Z"/><path class="cls-1" d="M230.84,18.15c.95-1.31,1.68-2.33,2.42-3.33,3.12-4.23,6.27-8.45,9.36-12.71a3.37,3.37,0,0,1,3-1.57c14.71.06,29.41,0,44.12,0,2,0,2,0,2,1.94,0,4.65,0,9.31,0,14,0,1.29-.39,1.73-1.7,1.72-6-.07-11.94,0-17.9-.09-1.38,0-1.86.34-1.86,1.81.06,17,0,33.93.08,50.89,0,1.26-.38,1.62-1.6,1.61-5.55,0-11.09-.06-16.64,0-1.36,0-1.76-.42-1.76-1.76q.08-25.24.06-50.48c0-2,0-2.06-2-2.06l-15.93,0Z"/><path class="cls-1" d="M377.15,36.47c0-20.92,12.57-34.41,32.05-34.41,15.48,0,27.27,8.83,29.53,22.13h-9c-2.27-8.73-10.41-14.46-20.56-14.46-13.91,0-22.93,10.53-22.93,26.74,0,16.36,8.92,26.8,23,26.8,10.45,0,17.94-4.71,20.51-12.84h9c-3.25,13.16-13.8,20.5-29.53,20.5C389.57,70.93,377.15,57.59,377.15,36.47Z"/><path class="cls-1" d="M409.2,73c-20.73,0-34.12-14.34-34.12-36.53S388.47,0,409.2,0c16.45,0,29.13,9.58,31.57,23.84l.41,2.41h-13l-.4-1.54c-2-7.84-9.32-12.91-18.56-12.91-12.68,0-20.87,9.68-20.87,24.67,0,15.26,8,24.73,20.92,24.73,9.5,0,16.26-4.15,18.54-11.39l.46-1.45h13.12l-.63,2.56C437.27,65,425.77,73,409.2,73Zm0-68.87c-18.22,0-30,12.7-30,32.34,0,20,11.49,32.4,30,32.4,13.67,0,23.07-5.79,26.77-16.38h-4.75c-3.25,8.19-11.17,12.84-22,12.84C394,65.33,384.2,54,384.2,36.47c0-17.23,10-28.8,25-28.8,10.57,0,19.07,5.62,22.09,14.45h4.87C433.11,11.26,422.59,4.13,409.2,4.13Z"/><path class="cls-1" d="M465.63,69.83h-8.88V3.17h26.68c13.7,0,22.68,7.86,22.68,19.87a19.17,19.17,0,0,1-14.3,19.12l16.47,27.67H497.87L482.64,43.45h-17Zm0-33.72h17c9.12,0,14.3-4.62,14.3-12.8,0-8-5.53-12.75-14.7-12.75H465.63Z"/><path class="cls-1" d="M511.91,71.89H496.68L481.45,45.52H467.69V71.89h-13V1.11h28.74c14.8,0,24.74,8.81,24.74,21.93a21.23,21.23,0,0,1-13.3,20.23Zm-12.84-4.13h5.57l-16-26.83,2.55-.75A17.12,17.12,0,0,0,504,23c0-10.82-8.09-17.8-20.61-17.8H458.82V67.76h4.74V41.39h20.27ZM482.64,38.17H463.56V8.5h18.68C492.58,8.5,499,14.17,499,23.31,499,32.61,492.88,38.17,482.64,38.17ZM467.69,34h14.95c5.58,0,12.23-1.86,12.23-10.73,0-6.79-4.6-10.68-12.63-10.68H467.69Z"/><path class="cls-1" d="M568.9,69.83H524.82V3.17H568.9v7.49H533.69V32h33.38v7.39H533.69V62.34H568.9Z"/><path class="cls-1" d="M571,71.89H522.75V1.11H571V12.72h-35.2V30h33.38V41.5H535.76V60.28H571Zm-44.08-4.13h40V64.41h-35.2v-27H565V34.11H531.63V8.59h35.2V5.24h-40Z"/><path class="cls-1" d="M627.25,50.75H599L591.8,69.83h-9.32L608.71,3.17h8.78l26.23,66.66H634.4Zm-25.69-7.07h23.08L613.25,13.29H613Z"/><path class="cls-1" d="M646.75,71.89H633l-7.15-19.08H600.38l-7.15,19.08H579.45L607.31,1.11H618.9Zm-10.92-4.13h4.86L616.08,5.24h-6L585.51,67.76h4.86l7.15-19.08h31.16Zm-8.21-22h-29l12.94-34.53h2.86l.8,1.34Zm-23.08-4.13h17.12L613.1,18.78Z"/><path class="cls-1" d="M667.56,69.83V10.66H645.12V3.17h53.75v7.49H676.43V69.83Z"/><path class="cls-1" d="M678.5,71.89h-13V12.72H643.06V1.11h57.88V12.72H678.5Zm-8.88-4.13h4.75V8.59h22.44V5.24H647.19V8.59h22.43Z"/><path class="cls-1" d="M715.8,69.83V3.17h8.88V69.83Z"/><path class="cls-1" d="M726.74,71.89h-13V1.11h13Zm-8.87-4.13h4.74V5.24h-4.74Z"/><path class="cls-1" d="M766.62,69.83,740.38,3.17h9.32l21.16,56.54h.29L792.31,3.17h9.32L775.39,69.83Z"/><path class="cls-1" d="M776.8,71.89H765.21L737.35,1.11h13.79L771,54.21l19.87-53.1h13.79ZM768,67.76h6l24.6-62.52h-4.85L772.58,61.78h-2.86l-.8-1.35L748.27,5.24h-4.85Z"/><path class="cls-1" d="M850,50.75h-28.3l-7.15,19.08h-9.32L831.48,3.17h8.78l26.23,66.66h-9.32Zm-25.69-7.07h23.08L836,13.29h-.3Z"/><path class="cls-1" d="M869.52,71.89H855.74l-7.15-19.08H823.15L816,71.89H802.21L830.07,1.11h11.59ZM858.6,67.76h4.85L838.85,5.24h-6L808.28,67.76h4.85l7.15-19.08h31.17Zm-8.21-22h-29l12.94-34.53h2.86l.8,1.34Zm-23.08-4.13h17.12l-8.56-22.84Z"/><path class="cls-1" d="M949.57,50.75H921.26l-7.15,19.08H904.8L931,3.17h8.77L966,69.83h-9.32Zm-25.69-7.07H947l-11.4-30.39h-.29Z"/><path class="cls-1" d="M969.07,71.89H955.29l-7.16-19.08H922.69l-7.14,19.08H901.77L929.62,1.11h11.59Zm-10.92-4.13H963L938.39,5.24h-6l-24.6,62.52h4.85l7.15-19.08H951Zm-8.21-22h-29l12.93-34.53h2.87l.79,1.34Zm-23.08-4.13H944l-8.57-22.84Z"/><path class="cls-1" d="M1009.6,70.93c-19.87,0-32.6-13.57-32.6-34.78,0-20.83,12.68-34.09,32.6-34.09,15.38,0,27.07,8.55,29.73,21.81H1030c-3-9-10.4-14.14-20.41-14.14-14.65,0-23.47,9.89-23.47,26.38,0,16.76,9,27.16,23.47,27.16,12.62,0,21.3-7.67,21.3-18.85v-1.2h-20.07v-7.3h28.95v6.33C1039.78,60.27,1028.58,70.93,1009.6,70.93Z"/><path class="cls-1" d="M1009.6,73c-21.06,0-34.66-14.46-34.66-36.85,0-22,13.6-36.15,34.66-36.15,16.43,0,28.89,9.21,31.76,23.46l.49,2.47h-13.34l-.46-1.42c-2.65-8.08-9.38-12.71-18.45-12.71-13.6,0-21.41,8.86-21.41,24.31,0,15.71,8,25.09,21.41,25.09,11.17,0,18.79-6.36,19.22-15.91h-20.06V33.86h33.08v8.39C1041.84,61.5,1029.79,73,1009.6,73Zm0-68.87c-18.83,0-30.53,12.27-30.53,32,0,20.18,11.7,32.72,30.53,32.72,17.87,0,28.11-9.7,28.11-26.62V38h-24.82v3.17H1033v3.26c0,12.31-9.61,20.91-23.37,20.91-15.75,0-25.54-11.2-25.54-29.22,0-17.55,9.79-28.44,25.54-28.44,10.44,0,18.32,5.13,21.86,14.13h5.22C1033.33,11,1023,4.13,1009.6,4.13Z"/><path class="cls-1" d="M1102.76,69.83h-44.08V3.17h44.08v7.49h-35.21V32h33.39v7.39h-33.39V62.34h35.21Z"/><path class="cls-1" d="M1104.83,71.89h-48.22V1.11h48.22V12.72h-35.21V30H1103V41.5h-33.38V60.28h35.21Zm-44.09-4.13h40V64.41h-35.21v-27h33.38V34.11h-33.38V8.59h35.21V5.24h-40Z"/><path class="cls-1" d="M1122,69.83V3.17h8.63l38.95,52.34h.45V3.17h8.78V69.83h-8.63l-39-52.15h-.44V69.83Z"/><path class="cls-1" d="M1180.88,71.89h-11.73L1132.86,23.3V71.89H1120V1.11h11.73L1168,49.87V1.11h12.9Zm-9.66-4.13h5.53V5.24h-4.64V57.57h-3.55l-39-52.33h-5.52V67.76h4.65V15.61h3.54Z"/><path class="cls-1" d="M1197.43,36.47c0-20.92,12.57-34.41,32-34.41,15.48,0,27.26,8.83,29.53,22.13h-9c-2.27-8.73-10.41-14.46-20.56-14.46-13.91,0-22.93,10.53-22.93,26.74,0,16.36,8.92,26.8,23,26.8,10.46,0,18-4.71,20.52-12.84h9c-3.25,13.16-13.8,20.5-29.53,20.5C1209.85,70.93,1197.43,57.59,1197.43,36.47Z"/><path class="cls-1" d="M1229.48,73c-20.73,0-34.12-14.34-34.12-36.53S1208.75,0,1229.48,0c16.45,0,29.14,9.58,31.57,23.84l.41,2.41h-13l-.4-1.54c-2-7.84-9.33-12.91-18.56-12.91-12.68,0-20.87,9.68-20.87,24.67,0,15.26,8,24.73,20.92,24.73,9.5,0,16.26-4.15,18.54-11.39l.45-1.45h13.13l-.63,2.56C1257.55,65,1246.05,73,1229.48,73Zm0-68.87c-18.22,0-30,12.7-30,32.34,0,20,11.49,32.4,30,32.4,13.67,0,23.07-5.79,26.77-16.38h-4.76c-3.24,8.19-11.16,12.84-22,12.84-15.22,0-25-11.32-25-28.86,0-17.23,10-28.8,25-28.8,10.57,0,19.07,5.62,22.09,14.45h4.86C1253.39,11.26,1242.88,4.13,1229.48,4.13Z"/><path class="cls-1" d="M1291.33,69.85V41L1265.92,2.74h10.17l19.56,30.13h.3l19.56-30.13h10.18L1300.27,41V69.85Z"/><path class="cls-1" d="M1302.35,71.92h-13.1V41.59L1262,.66h15.18l18.58,28.62L1314.38.66h15.18l-27.21,40.93Zm-8.94-4.15h4.78V40.34l23.62-35.52h-5.17L1297.08,35h-2.26l-.91-1L1275,4.82h-5.17l23.62,35.52Z"/><path class="cls-1" d="M320.91,34h23.95v8.87H320.91Z"/><path class="cls-1" d="M320.17,44.92v-13H345.6v13ZM321.65,36v4.75h22.47V36Z"/></g></g></svg>