<svg xmlns="http://www.w3.org/2000/svg" viewBox="0 0 954.48 73"><defs><style>.cls-1{fill:#fff;}</style></defs><g id="Layer_2" data-name="Layer 2"><g id="Layer_1-2" data-name="Layer 1"><path class="cls-1" d="M2.06,36.47c0-20.92,12.58-34.41,32.05-34.41,15.49,0,27.27,8.83,29.54,22.13h-9C52.41,15.46,44.27,9.73,34.11,9.73c-13.9,0-22.92,10.53-22.92,26.74,0,16.36,8.92,26.8,23,26.8,10.46,0,18-4.71,20.52-12.84h9c-3.26,13.16-13.81,20.5-29.54,20.5C14.49,70.93,2.06,57.59,2.06,36.47Z"/><path class="cls-1" d="M34.11,73C13.39,73,0,58.66,0,36.47S13.39,0,34.11,0C50.56,0,63.25,9.58,65.69,23.84l.41,2.41h-13l-.4-1.54c-2-7.84-9.33-12.91-18.57-12.91-12.67,0-20.86,9.68-20.86,24.67,0,15.26,8,24.73,20.91,24.73,9.5,0,16.26-4.15,18.55-11.39l.45-1.45H66.29l-.63,2.56C62.19,65,50.69,73,34.11,73Zm0-68.87c-18.21,0-30,12.7-30,32.34,0,20,11.49,32.4,30,32.4,13.67,0,23.08-5.79,26.78-16.38H56.13c-3.25,8.19-11.16,12.84-22,12.84-15.21,0-25-11.32-25-28.86,0-17.23,10-28.8,25-28.8,10.58,0,19.07,5.62,22.1,14.45h4.86C58,11.26,47.51,4.13,34.11,4.13Z"/><path class="cls-1" d="M90.54,69.83H81.67V3.17h26.67C122.05,3.17,131,11,131,23a19.15,19.15,0,0,1-14.3,19.12l16.47,27.67h-10.4L107.55,43.45h-17Zm0-33.72h17c9.13,0,14.3-4.62,14.3-12.8,0-8-5.52-12.75-14.69-12.75H90.54Z"/><path class="cls-1" d="M136.83,71.89H121.59L106.36,45.52H92.61V71.89h-13V1.11h28.74c14.8,0,24.75,8.81,24.75,21.93a21.23,21.23,0,0,1-13.31,20.23ZM124,67.76h5.58l-16-26.83,2.55-.75A17.12,17.12,0,0,0,129,23c0-10.82-8.1-17.8-20.62-17.8H83.73V67.76h4.75V41.39h20.27ZM107.56,38.17H88.48V8.5h18.68c10.34,0,16.76,5.67,16.76,14.81C123.92,32.61,117.8,38.17,107.56,38.17ZM92.61,34h15c5.58,0,12.23-1.86,12.23-10.73,0-6.79-4.6-10.68-12.63-10.68H92.61Z"/><path class="cls-1" d="M193.82,69.83H149.73V3.17h44.09v7.49H158.61V32H192v7.39H158.61V62.34h35.21Z"/><path class="cls-1" d="M195.88,71.89H147.67V1.11h48.21V12.72h-35.2V30h33.37V41.5H160.68V60.28h35.2ZM151.8,67.76h39.95V64.41h-35.2v-27h33.37V34.11H156.55V8.59h35.2V5.24H151.8Z"/><path class="cls-1" d="M252.17,50.75h-28.3l-7.15,19.08H207.4L233.63,3.17h8.78l26.23,66.66h-9.32Zm-25.69-7.07h23.08L238.17,13.29h-.3Z"/><path class="cls-1" d="M271.67,71.89H257.89l-7.15-19.08H225.3l-7.15,19.08H204.36L232.22,1.11h11.59Zm-10.92-4.13h4.86L241,5.24h-6L210.43,67.76h4.85l7.15-19.08H253.6Zm-8.21-22h-29l12.94-34.53h2.86l.8,1.34Zm-23.08-4.13h17.12L238,18.78Z"/><path class="cls-1" d="M292.48,69.83V10.66H270V3.17h53.75v7.49H301.35V69.83Z"/><path class="cls-1" d="M303.42,71.89h-13V12.72H268V1.11h57.88V12.72H303.42Zm-8.88-4.13h4.75V8.59h22.43V5.24H272.1V8.59h22.44Z"/><path class="cls-1" d="M340.72,69.83V3.17h8.87V69.83Z"/><path class="cls-1" d="M351.66,71.89h-13V1.11h13Zm-8.88-4.13h4.75V5.24h-4.75Z"/><path class="cls-1" d="M391.53,69.83,365.3,3.17h9.32l21.15,56.54h.3L417.22,3.17h9.32L400.31,69.83Z"/><path class="cls-1" d="M401.72,71.89h-11.6L362.27,1.11h13.78l19.87,53.1,19.87-53.1h13.79Zm-8.78-4.13h6L423.51,5.24h-4.86L397.5,61.78h-2.86l-.8-1.35L373.19,5.24h-4.86Z"/><path class="cls-1" d="M474.94,50.75H446.63l-7.15,19.08h-9.32L456.4,3.17h8.77L491.4,69.83h-9.31Zm-25.69-7.07h23.07L460.93,13.29h-.29Z"/><path class="cls-1" d="M494.44,71.89H480.66l-7.15-19.08H448.06l-7.15,19.08H427.13L455,1.11h11.59Zm-10.92-4.13h4.85L463.77,5.24h-6L433.19,67.76h4.86l7.15-19.08h31.17Zm-8.22-22h-29L459.2,11.22h2.87l.8,1.34Zm-23.07-4.13h17.11l-8.56-22.84Z"/><path class="cls-1" d="M574.48,50.75h-28.3L539,69.83h-9.32L555.94,3.17h8.78L591,69.83h-9.31Zm-25.69-7.07h23.08L560.48,13.29h-.3Z"/><path class="cls-1" d="M594,71.89H580.21l-7.16-19.08H547.61l-7.15,19.08H526.68L554.53,1.11h11.6Zm-10.92-4.13h4.85L563.31,5.24h-6l-24.6,62.52h4.85l7.15-19.08h31.16Zm-8.22-22h-29l12.93-34.53h2.86l.8,1.34Zm-23.07-4.13h17.11l-8.56-22.84Z"/><path class="cls-1" d="M634.51,70.93c-19.87,0-32.59-13.57-32.59-34.78,0-20.83,12.67-34.09,32.59-34.09,15.39,0,27.07,8.55,29.74,21.81h-9.32c-3-9-10.41-14.14-20.42-14.14C619.87,9.73,611,19.62,611,36.11c0,16.76,9,27.16,23.47,27.16,12.63,0,21.31-7.67,21.31-18.85v-1.2H635.75v-7.3h28.94v6.33C664.69,60.27,653.5,70.93,634.51,70.93Z"/><path class="cls-1" d="M634.52,73c-21.06,0-34.67-14.46-34.67-36.85,0-22,13.61-36.15,34.67-36.15C651,0,663.41,9.21,666.27,23.46l.5,2.47H653.43L653,24.51c-2.66-8.08-9.38-12.71-18.45-12.71-13.61,0-21.41,8.86-21.41,24.31,0,15.71,8,25.09,21.41,25.09,11.17,0,18.78-6.36,19.21-15.91H633.68V33.86h33.08v8.39C666.76,61.5,654.71,73,634.52,73Zm0-68.87c-18.84,0-30.54,12.27-30.54,32,0,20.18,11.7,32.72,30.54,32.72,17.86,0,28.11-9.7,28.11-26.62V38H637.81v3.17h20.07v3.26c0,12.31-9.61,20.91-23.36,20.91-15.76,0-25.54-11.2-25.54-29.22,0-17.55,9.78-28.44,25.54-28.44,10.43,0,18.32,5.13,21.86,14.13h5.21C658.25,11,647.9,4.13,634.52,4.13Z"/><path class="cls-1" d="M727.68,69.83H683.6V3.17h44.08v7.49H692.47V32h33.38v7.39H692.47V62.34h35.21Z"/><path class="cls-1" d="M729.74,71.89H681.53V1.11h48.21V12.72h-35.2V30h33.38V41.5H694.54V60.28h35.2Zm-44.08-4.13h40V64.41h-35.2v-27h33.38V34.11H690.41V8.59h35.2V5.24h-40Z"/><path class="cls-1" d="M746.93,69.83V3.17h8.63l39,52.34H795V3.17h8.77V69.83H795.1l-39-52.15h-.44V69.83Z"/><path class="cls-1" d="M805.8,71.89H794.07L757.77,23.3V71.89h-12.9V1.11h11.72l36.3,48.76V1.11H805.8Zm-9.66-4.13h5.53V5.24H797V57.57h-3.55l-39-52.33H749V67.76h4.64V15.61h3.55Z"/><path class="cls-1" d="M822.34,36.47c0-20.92,12.58-34.41,32-34.41,15.48,0,27.27,8.83,29.54,22.13h-9c-2.27-8.73-10.41-14.46-20.57-14.46-13.9,0-22.93,10.53-22.93,26.74,0,16.36,8.93,26.8,23,26.8,10.46,0,17.95-4.71,20.52-12.84h9c-3.26,13.16-13.81,20.5-29.54,20.5C834.77,70.93,822.34,57.59,822.34,36.47Z"/><path class="cls-1" d="M854.39,73c-20.72,0-34.11-14.34-34.11-36.53S833.67,0,854.39,0C870.84,0,883.53,9.58,886,23.84l.42,2.41h-13L873,24.71c-2-7.84-9.32-12.91-18.56-12.91-12.67,0-20.86,9.68-20.86,24.67,0,15.26,8,24.73,20.91,24.73,9.5,0,16.26-4.15,18.55-11.39l.45-1.45h13.13l-.64,2.56C882.46,65,871,73,854.39,73Zm0-68.87c-18.21,0-30,12.7-30,32.34,0,20,11.49,32.4,30,32.4,13.67,0,23.08-5.79,26.78-16.38h-4.76c-3.25,8.19-11.16,12.84-22,12.84-15.21,0-25-11.32-25-28.86,0-17.23,10-28.8,25-28.8,10.57,0,19.07,5.62,22.1,14.45h4.86C878.31,11.26,867.79,4.13,854.39,4.13Z"/><path class="cls-1" d="M916.25,69.85V41L890.83,2.74H901l19.56,30.13h.3L940.42,2.74H950.6L925.18,41V69.85Z"/><path class="cls-1" d="M927.26,71.92H914.17V41.59L887,.66h15.18l18.59,28.62L939.3.66h15.18L927.26,41.59Zm-8.93-4.15h4.78V40.34L946.72,4.82h-5.17L922,35h-2.25l-.91-1-19-29.18h-5.17l23.62,35.52Z"/></g></g></svg>