<?xml version="1.0" encoding="utf-8"?>
<!-- Generator: Adobe Illustrator 24.1.2, SVG Export Plug-In . SVG Version: 6.00 Build 0)  -->
<svg version="1.1" id="BACKGROUND_2" xmlns="http://www.w3.org/2000/svg" xmlns:xlink="http://www.w3.org/1999/xlink" x="0px"
	 y="0px" viewBox="0 0 300 300" style="enable-background:new 0 0 300 300;" xml:space="preserve">
<style type="text/css">
	.st0{display:none;fill:#521683;}
	.st1{display:none;clip-path:url(#SVGID_2_);}
	.st2{display:inline;}
	.st3{opacity:0.2;fill:#FFFFFF;}
	.st4{fill:#3E0483;}
	.st5{opacity:0.3;fill:#20046C;}
	.st6{fill:#20046C;}
	.st7{display:inline;opacity:0.1;fill:#FFFFFF;}
	.st8{display:inline;fill:#2E0463;}
	.st9{display:inline;opacity:0.3;}
	.st10{fill:#2E0463;}
	.st11{display:inline;fill:#0D0420;}
	.st12{fill:#5CE9FF;}
	.st13{clip-path:url(#SVGID_2_);}
	.st14{opacity:0.1;fill:#FFFFFF;}
	.st15{opacity:0.3;}
	.st16{fill:#230453;}
	.st17{opacity:0.5;fill:#230453;}
	.st18{fill:#0D0420;}
	.st19{clip-path:url(#SVGID_4_);fill:#52F083;}
	
		.st20{clip-path:url(#SVGID_4_);fill:none;stroke:#52F083;stroke-width:10;stroke-linecap:round;stroke-linejoin:round;stroke-miterlimit:10;}
	
		.st21{clip-path:url(#SVGID_4_);fill:none;stroke:#52F083;stroke-width:9;stroke-linecap:round;stroke-linejoin:round;stroke-miterlimit:10;}
	.st22{opacity:0.1;clip-path:url(#SVGID_4_);}
	.st23{fill:#FFF45C;}
	.st24{clip-path:url(#SVGID_4_);}
	.st25{fill:#FFFF9E;}
	.st26{opacity:0.4;clip-path:url(#SVGID_4_);fill:#35D283;}
	.st27{clip-path:url(#SVGID_4_);fill:#05C07A;}
	.st28{fill:#03011C;}
	.st29{fill:#FFFFFF;}
	.st30{fill:#52F083;}
	.st31{fill:#1B995B;}
	.st32{fill:#05F083;}
	.st33{fill:#05C07A;}
	.st34{opacity:0.4;}
	.st35{opacity:0.6;fill:#05C07A;}
	.st36{fill:#05D578;}
	.st37{fill:#8CFFA0;}
	.st38{fill:#24B667;}
	.st39{fill:#41005E;}
	.st40{fill:#030E19;}
	.st41{fill:#052944;}
	.st42{fill:#05325F;}
	.st43{fill:#051932;}
	.st44{fill:#D72F83;}
	.st45{opacity:0.5;}
	.st46{opacity:0.3;fill:#052944;}
</style>
<rect x="-225" y="-100" class="st0" width="750" height="500"/>
<g>
	<defs>
		<rect id="SVGID_1_" x="-222.4" y="-99.7" width="750" height="500"/>
	</defs>
	<clipPath id="SVGID_2_">
		<use xlink:href="#SVGID_1_"  style="overflow:visible;"/>
	</clipPath>
	<g class="st1">
		<g class="st2">
			<path class="st3" d="M290.9,127.3c0,0,26.4,0.2,42.4,12c16,11.9,16.1,27.9,30.3,31.6c14.2,3.7,15.4-8.5,25.3-4.2
				c9.9,4.3,24,13.1,45.2,1.8c21.2-11.4,13.8-31.7,27.8-45.7c14-14,42.2-24.3,46.6-58.1c4.4-33.8-30-35.2-27.8-59.1
				c2.2-23.9-12.9-42.3-35.3-46.2c-22.4-4-49.4,7.7-67.5,0.5c-18.1-7.1-52.7-42.1-79.6-39.8c-27,2.3-39.7,28-27.8,49.6
				c10.9,19.7,18.8,41.5,11.6,59.6c-7.1,18.1-38.2,49.7-25.3,76.3C266.4,125.5,290.9,127.3,290.9,127.3z"/>
			<path class="st4" d="M290.9,125.9c0,0,26.4,0.2,42.4,12c16,11.9,16.1,27.9,30.3,31.6c14.2,3.7,15.4-8.5,25.3-4.2
				c9.9,4.3,24,13.1,45.2,1.8c21.2-11.4,13.8-31.7,27.8-45.7c14-14,42.2-24.3,46.6-58.1c4.4-33.8-30-35.2-27.8-59.1
				c2.2-23.9-12.9-42.3-35.3-46.2c-22.4-4-49.4,7.7-67.5,0.5c-18.1-7.1-52.7-42.1-79.6-39.8c-27,2.3-39.7,28-27.8,49.6
				c10.9,19.7,18.8,41.5,11.6,59.6c-7.1,18.1-38.2,49.7-25.3,76.3C266.4,124.1,290.9,125.9,290.9,125.9z"/>
			<g>
				<path class="st5" d="M480.7,4.3c2.2-23.9-12.9-42.3-35.3-46.2c-22.4-4-49.4,7.7-67.5,0.5c-18.1-7.1-52.7-42.1-79.6-39.8
					c-26.1,2.2-38.9,26.4-28.8,47.5c-6.8-19.7,5.8-40.8,29.8-42.9c26.4-2.3,60.4,32,78.1,39c17.8,7,44.2-4.4,66.2-0.5
					c22,3.9,36.8,21.9,34.7,45.4c-2.2,23.4,31.6,24.8,27.3,58c-4.3,33.1-32,43.2-45.7,57c-13.7,13.7-6.5,33.7-27.3,44.8
					c-8.8,4.7-16.3,5.9-22.8,5.3c6.9,0.8,14.9-0.3,24.4-5.3c21.2-11.4,13.8-31.7,27.8-45.7c14-14,42.2-24.3,46.6-58.1
					C512.9,29.7,478.5,28.2,480.7,4.3z"/>
				<path class="st6" d="M258.6,105.5c-12.7-26.1,17.8-57.1,24.8-74.9c5.2-13.2,2.3-28.4-3.9-43.2c5.4,14,7.5,28.2,2.6,40.6
					c-7.1,18.1-38.2,49.7-25.3,76.3c3.6,7.4,9.3,12.3,15,15.5C266.7,116.7,261.8,112.2,258.6,105.5z"/>
				<path class="st6" d="M364.7,169.8c10.6,2.2,13.5-4.7,19.3-5.3C378,164.7,375.2,172,364.7,169.8z"/>
			</g>
		</g>
		<path class="st7" d="M399.2,140.4c-15.2-4.6-27.1-19.4-60.5-12c-29.1,6.5-53.1-21.9-49.5-48c3.7-26.1,16.2-28.2,10.5-55.1
			c-4.9-22.9-5.9-41.6,9.2-47.3c15.2-5.7,34.8,12.1,60.7,0.8c25.9-11.2,55.5-17.1,73.5-0.4c16.5,15.3,6.3,41.7,10.3,65.7
			c4,24.1,12.6,28,11.2,40.3c-1.7,14.9-15.1,17.4-19.2,31.4C439.9,134,431.2,150,399.2,140.4z"/>
		<path class="st8" d="M399.2,139.4c-15.2-4.6-27.1-19.4-60.5-12c-29.1,6.5-53.1-21.9-49.5-48c3.7-26.1,16.2-28.2,10.5-55.1
			c-4.9-22.9-5.9-41.6,9.2-47.3c15.2-5.7,34.8,12.1,60.7,0.8c25.9-11.2,55.5-17.1,73.5-0.4c16.5,15.3,6.3,41.7,10.3,65.7
			c4,24.1,12.6,28,11.2,40.3c-1.7,14.9-15.1,17.4-19.2,31.4C439.9,133,431.2,149,399.2,139.4z"/>
		<g class="st9">
			<path class="st10" d="M308.9-20.4c15.2-5.7,34.8,12.1,60.7,0.8c25.9-11.2,55.5-17.1,73.5-0.4c8,7.4,9.7,17.4,9.8,28.4
				c0.1-12.1-1.2-23-9.8-31c-18-16.7-47.6-10.8-73.5,0.4c-25.9,11.2-45.5-6.6-60.7-0.8c-9.6,3.6-12.7,12.5-12.4,24.3
				C296.7-9.2,300-17,308.9-20.4z"/>
			<path class="st10" d="M453.3,45.8c3.5,21.4,10.8,26.9,11.3,36.5c0.7-11.3-7.5-15.8-11.3-39.1c-0.7-4.3-1-8.6-1-13
				C452.3,35.4,452.5,40.6,453.3,45.8z"/>
			<path class="st10" d="M289.2,82c3.1-22,12.5-26.9,11.9-44.1c-0.4,15.1-9,20.6-11.9,41.5c-0.3,2.2-0.4,4.4-0.3,6.6
				C288.9,84.7,289,83.4,289.2,82z"/>
		</g>
	</g>
	<g class="st1">
		<g class="st2">
			<path class="st3" d="M-27.6,209.5c0,0,28.7,0.2,46.1,13.1c17.4,12.9,17.5,30.3,32.9,34.3c15.4,4,16.7-9.2,27.5-4.6
				c10.8,4.7,26.1,14.3,49.1,1.9c23-12.3,15-34.4,30.2-49.6c15.2-15.2,45.8-26.4,50.6-63c4.8-36.7-32.6-38.2-30.2-64.1
				c2.4-25.9-14-45.9-38.4-50.2c-24.4-4.3-53.6,8.3-73.3,0.6C47.2,20.1,9.6-17.9-19.6-15.4C-48.9-12.9-62.8,15-49.8,38.4
				c11.9,21.4,20.4,45.1,12.6,64.7c-7.8,19.7-41.5,54-27.4,82.8C-54.2,207.5-27.6,209.5-27.6,209.5z"/>
			<path class="st4" d="M-27.6,207.9c0,0,28.7,0.2,46.1,13.1c17.4,12.9,17.5,30.3,32.9,34.3c15.4,4,16.7-9.2,27.5-4.6
				c10.8,4.7,26.1,14.3,49.1,1.9c23-12.3,15-34.4,30.2-49.6c15.2-15.2,45.8-26.4,50.6-63c4.8-36.7-32.6-38.2-30.2-64.1
				c2.4-25.9-14-45.9-38.4-50.2c-24.4-4.3-53.6,8.3-73.3,0.6C47.2,18.5,9.6-19.4-19.6-16.9c-29.3,2.5-43.2,30.4-30.2,53.8
				c11.9,21.4,20.4,45.1,12.6,64.7c-7.8,19.7-41.5,54-27.4,82.8C-54.2,205.9-27.6,207.9-27.6,207.9z"/>
			<g>
				<path class="st5" d="M178.5,75.9c2.4-25.9-14-45.9-38.4-50.2c-24.4-4.3-53.6,8.3-73.3,0.6C47.2,18.5,9.6-19.4-19.6-16.9
					C-48-14.5-61.9,11.8-50.9,34.7c-7.4-21.4,6.2-44.3,32.4-46.5C10.2-14.3,47,22.9,66.3,30.5c19.3,7.6,48-4.8,71.9-0.6
					c23.9,4.2,40,23.8,37.6,49.3c-2.3,25.4,34.3,27,29.6,62.9c-4.7,36-34.8,46.9-49.7,61.9c-14.9,14.9-7,36.5-29.6,48.6
					c-9.5,5.1-17.7,6.4-24.8,5.8c7.5,0.8,16.2-0.3,26.5-5.8c23-12.3,15-34.4,30.2-49.6c15.2-15.2,45.8-26.4,50.6-63
					C213.5,103.4,176.2,101.8,178.5,75.9z"/>
				<path class="st6" d="M-62.7,185.8c-13.8-28.3,19.3-62,26.9-81.3c5.6-14.3,2.5-30.8-4.2-46.9c5.8,15.2,8.1,30.6,2.8,44.1
					c-7.8,19.7-41.5,54-27.4,82.8c3.9,8.1,10.1,13.4,16.3,16.9C-53.8,197.9-59.2,193-62.7,185.8z"/>
				<path class="st6" d="M52.5,255.6c11.5,2.4,14.7-5.1,20.9-5.8C67,250,64,257.9,52.5,255.6z"/>
			</g>
		</g>
		<path class="st7" d="M77,231.1c-16.4-7.6-27.3-26.3-66.2-23.4c-33.8,2.5-56.2-33.3-47.8-62.1c8.4-28.8,22.9-29,20.9-60.3
			c-1.7-26.5,0.2-47.8,18.2-51.7c18-3.9,37.2,19.3,68.2,10.9c31-8.4,65.3-10.2,82.8,11.6c16,19.9,0.3,47.9,0.7,75.7
			c0.5,27.7,9.6,33.6,6,47.2c-4.3,16.5-19.8,17.1-26.8,32.2C123.9,230.7,111.4,247.2,77,231.1z"/>
		<path class="st11" d="M77.2,229.5C60.8,221.8,49.9,203.1,11,206c-33.8,2.5-56.2-33.3-47.8-62.1c8.4-28.8,22.9-29,20.9-60.3
			c-1.7-26.5,0.2-47.8,18.2-51.7c18-3.9,37.2,19.3,68.2,10.9c31-8.4,65.3-10.2,82.8,11.6c16,19.9,0.3,47.9,0.7,75.7
			c0.5,27.7,9.6,33.6,6,47.2c-4.3,16.5-19.8,17.1-26.8,32.2C124.1,229,111.6,245.5,77.2,229.5z"/>
		<g class="st2">
			<g>
				<g>
					<polygon class="st12" points="118.7,204.8 117.2,207.5 114.4,209 117.2,210.5 118.7,213.2 120.2,210.5 122.9,209 120.2,207.5 
											"/>
					<polygon class="st12" points="89.2,188.6 88.3,190.2 86.7,191.1 88.3,192 89.2,193.6 90.1,192 91.7,191.1 90.1,190.2 					"/>
					<polygon class="st12" points="111.3,173.8 110.5,175.3 108.9,176.2 110.5,177.1 111.3,178.7 112.2,177.1 113.8,176.2 
						112.2,175.3 					"/>
					<polygon class="st12" points="87.6,173.8 87.9,173.1 88.5,172.8 87.9,172.4 87.6,171.8 87.2,172.4 86.6,172.8 87.2,173.1 					
						"/>
					<polygon class="st12" points="80.7,184.4 80.3,185 79.7,185.3 80.3,185.7 80.7,186.3 81,185.7 81.6,185.3 81,185 					"/>
					<polygon class="st12" points="105.2,173.4 104.8,174 104.2,174.3 104.8,174.7 105.2,175.3 105.5,174.7 106.1,174.3 105.5,174 
											"/>
					<polygon class="st12" points="103.6,195.7 103.3,196.3 102.6,196.7 103.3,197 103.6,197.7 104,197 104.6,196.7 104,196.3 					
						"/>
					<polygon class="st12" points="99.4,214.6 99.1,215.2 98.5,215.5 99.1,215.9 99.4,216.5 99.8,215.9 100.4,215.5 99.8,215.2 
											"/>
					<polygon class="st12" points="127.1,205.9 126.8,206.5 126.2,206.8 126.8,207.2 127.1,207.8 127.5,207.2 128.1,206.8 
						127.5,206.5 					"/>
					<polygon class="st12" points="117,171.2 116.6,171.8 116,172.2 116.6,172.5 117,173.1 117.3,172.5 117.9,172.2 117.3,171.8 
											"/>
					<polygon class="st12" points="128.5,190.6 128.2,191.3 127.6,191.6 128.2,191.9 128.5,192.6 128.9,191.9 129.5,191.6 
						128.9,191.3 					"/>
					<polygon class="st12" points="112.3,182.1 112,182.7 111.3,183 112,183.4 112.3,184 112.6,183.4 113.3,183 112.6,182.7 					
						"/>
					<polygon class="st12" points="128.2,182.1 127.9,182.7 127.3,183 127.9,183.4 128.2,184 128.6,183.4 129.2,183 128.6,182.7 
											"/>
					<polygon class="st12" points="87.5,202.8 87.2,203.5 86.5,203.8 87.2,204.1 87.5,204.8 87.9,204.1 88.5,203.8 87.9,203.5 					
						"/>
				</g>
				<g>
					<polygon class="st12" points="131.1,146.9 129.6,149.6 126.8,151.1 129.6,152.6 131.1,155.4 132.6,152.6 135.3,151.1 
						132.6,149.6 					"/>
					<polygon class="st12" points="101.6,130.7 100.7,132.3 99.1,133.2 100.7,134.1 101.6,135.7 102.5,134.1 104.1,133.2 
						102.5,132.3 					"/>
					<polygon class="st12" points="123.7,115.9 122.8,117.5 121.2,118.3 122.8,119.2 123.7,120.8 124.6,119.2 126.2,118.3 
						124.6,117.5 					"/>
					<polygon class="st12" points="99.9,115.9 100.3,115.3 100.9,114.9 100.3,114.6 99.9,113.9 99.6,114.6 99,114.9 99.6,115.3 
											"/>
					<polygon class="st12" points="93,126.5 92.7,127.1 92.1,127.5 92.7,127.8 93,128.4 93.4,127.8 94,127.5 93.4,127.1 					"/>
					<polygon class="st12" points="117.5,115.5 117.2,116.1 116.6,116.5 117.2,116.8 117.5,117.4 117.9,116.8 118.5,116.5 
						117.9,116.1 					"/>
					<polygon class="st12" points="116,137.8 115.6,138.5 115,138.8 115.6,139.2 116,139.8 116.3,139.2 117,138.8 116.3,138.5 					
						"/>
					<polygon class="st12" points="111.8,156.7 111.5,157.3 110.9,157.7 111.5,158 111.8,158.6 112.2,158 112.8,157.7 112.2,157.3 
											"/>
					<polygon class="st12" points="139.5,148 139.2,148.6 138.5,149 139.2,149.3 139.5,149.9 139.8,149.3 140.5,149 139.8,148.6 
											"/>
					<polygon class="st12" points="129.4,113.3 129,113.9 128.4,114.3 129,114.6 129.4,115.2 129.7,114.6 130.3,114.3 129.7,113.9 
											"/>
					<polygon class="st12" points="140.9,132.8 140.6,133.4 140,133.7 140.6,134.1 140.9,134.7 141.3,134.1 141.9,133.7 
						141.3,133.4 					"/>
					<polygon class="st12" points="124.7,124.2 124.3,124.8 123.7,125.2 124.3,125.5 124.7,126.1 125,125.5 125.6,125.2 125,124.8 
											"/>
					<polygon class="st12" points="140.6,124.2 140.3,124.8 139.7,125.2 140.3,125.5 140.6,126.1 141,125.5 141.6,125.2 141,124.8 
											"/>
					<polygon class="st12" points="151.2,83.2 150.9,83.8 150.3,84.1 150.9,84.5 151.2,85.1 151.6,84.5 152.2,84.1 151.6,83.8 					
						"/>
					<polygon class="st12" points="150.9,74.6 150.6,75.2 150,75.6 150.6,75.9 150.9,76.5 151.3,75.9 151.9,75.6 151.3,75.2 					
						"/>
					<polygon class="st12" points="135.4,91.3 135.1,91.9 134.5,92.2 135.1,92.6 135.4,93.2 135.8,92.6 136.4,92.2 135.8,91.9 					
						"/>
					<polygon class="st12" points="149,106.6 148.7,107.3 148,107.6 148.7,107.9 149,108.6 149.3,107.9 150,107.6 149.3,107.3 					
						"/>
					<polygon class="st12" points="121.2,100.7 120.9,101.3 120.3,101.6 120.9,102 121.2,102.6 121.6,102 122.2,101.6 121.6,101.3 
											"/>
					<polygon class="st12" points="132,69.5 131.7,70.1 131.1,70.5 131.7,70.8 132,71.4 132.4,70.8 133,70.5 132.4,70.1 					"/>
					<polygon class="st12" points="125.6,56.9 125.3,57.5 124.7,57.9 125.3,58.2 125.6,58.9 126,58.2 126.6,57.9 126,57.5 					"/>
					<polygon class="st12" points="135.1,82.7 134.8,83.3 134.2,83.7 134.8,84 135.1,84.6 135.5,84 136.1,83.7 135.5,83.3 					"/>
					<polygon class="st12" points="99.9,145 99.5,145.6 98.9,145.9 99.5,146.3 99.9,146.9 100.2,146.3 100.9,145.9 100.2,145.6 
											"/>
				</g>
				<g>
					<polygon class="st12" points="101.6,88.9 100.1,91.7 97.3,93.1 100.1,94.6 101.6,97.4 103.1,94.6 105.8,93.1 103.1,91.7 					
						"/>
					<polygon class="st12" points="72.1,72.8 71.2,74.3 69.7,75.2 71.2,76.1 72.1,77.7 73,76.1 74.6,75.2 73,74.3 					"/>
					<polygon class="st12" points="94.2,57.9 93.4,59.5 91.8,60.4 93.4,61.2 94.2,62.8 95.1,61.2 96.7,60.4 95.1,59.5 					"/>
					<polygon class="st12" points="70.5,57.9 70.8,57.3 71.4,56.9 70.8,56.6 70.5,56 70.1,56.6 69.5,56.9 70.1,57.3 					"/>
					<polygon class="st12" points="63.6,68.5 63.2,69.1 62.6,69.5 63.2,69.8 63.6,70.5 63.9,69.8 64.5,69.5 63.9,69.1 					"/>
					<polygon class="st12" points="88.1,57.5 87.7,58.1 87.1,58.5 87.7,58.8 88.1,59.4 88.4,58.8 89,58.5 88.4,58.1 					"/>
					<polygon class="st12" points="86.5,79.9 86.2,80.5 85.5,80.8 86.2,81.2 86.5,81.8 86.9,81.2 87.5,80.8 86.9,80.5 					"/>
					<polygon class="st12" points="82.4,98.7 82,99.3 81.4,99.7 82,100 82.4,100.7 82.7,100 83.3,99.7 82.7,99.3 					"/>
					<polygon class="st12" points="110,90 109.7,90.6 109.1,91 109.7,91.3 110,91.9 110.4,91.3 111,91 110.4,90.6 					"/>
					<polygon class="st12" points="99.9,55.3 99.5,55.9 98.9,56.3 99.5,56.6 99.9,57.3 100.2,56.6 100.9,56.3 100.2,55.9 					"/>
					<polygon class="st12" points="111.4,74.8 111.1,75.4 110.5,75.7 111.1,76.1 111.4,76.7 111.8,76.1 112.4,75.7 111.8,75.4 					
						"/>
					<polygon class="st12" points="95.2,66.2 94.9,66.8 94.2,67.2 94.9,67.5 95.2,68.1 95.5,67.5 96.2,67.2 95.5,66.8 					"/>
					<polygon class="st12" points="111.2,66.2 110.8,66.8 110.2,67.2 110.8,67.5 111.2,68.1 111.5,67.5 112.1,67.2 111.5,66.8 					
						"/>
					<polygon class="st12" points="70.4,87 70.1,87.6 69.4,87.9 70.1,88.3 70.4,88.9 70.8,88.3 71.4,87.9 70.8,87.6 					"/>
				</g>
			</g>
			<g>
				<g>
					<polygon class="st12" points="60.6,199.6 59.1,202.3 56.3,203.8 59.1,205.3 60.6,208.1 62.1,205.3 64.8,203.8 62.1,202.3 					
						"/>
					<polygon class="st12" points="31.1,183.4 30.2,185 28.6,185.9 30.2,186.8 31.1,188.4 32,186.8 33.6,185.9 32,185 					"/>
					<polygon class="st12" points="53.2,168.6 52.3,170.2 50.7,171 52.3,171.9 53.2,173.5 54.1,171.9 55.7,171 54.1,170.2 					"/>
					<polygon class="st12" points="29.4,168.6 29.8,168 30.4,167.6 29.8,167.3 29.4,166.6 29.1,167.3 28.5,167.6 29.1,168 					"/>
					<polygon class="st12" points="22.5,179.2 22.2,179.8 21.6,180.2 22.2,180.5 22.5,181.1 22.9,180.5 23.5,180.2 22.9,179.8 					
						"/>
					<polygon class="st12" points="47,168.2 46.7,168.8 46.1,169.2 46.7,169.5 47,170.1 47.4,169.5 48,169.2 47.4,168.8 					"/>
					<polygon class="st12" points="45.5,190.5 45.1,191.2 44.5,191.5 45.1,191.9 45.5,192.5 45.8,191.9 46.5,191.5 45.8,191.2 					
						"/>
					<polygon class="st12" points="69,200.7 68.7,201.3 68,201.7 68.7,202 69,202.6 69.3,202 70,201.7 69.3,201.3 					"/>
					<polygon class="st12" points="58.9,166 58.5,166.6 57.9,167 58.5,167.3 58.9,167.9 59.2,167.3 59.8,167 59.2,166.6 					"/>
					<polygon class="st12" points="70.4,185.5 70.1,186.1 69.5,186.4 70.1,186.8 70.4,187.4 70.8,186.8 71.4,186.4 70.8,186.1 					
						"/>
					<polygon class="st12" points="54.2,176.9 53.8,177.5 53.2,177.9 53.8,178.2 54.2,178.8 54.5,178.2 55.1,177.9 54.5,177.5 					
						"/>
					<polygon class="st12" points="70.1,176.9 69.8,177.5 69.2,177.9 69.8,178.2 70.1,178.8 70.5,178.2 71.1,177.9 70.5,177.5 					
						"/>
					<polygon class="st12" points="80.7,135.9 80.4,136.5 79.8,136.8 80.4,137.2 80.7,137.8 81.1,137.2 81.7,136.8 81.1,136.5 					
						"/>
					<polygon class="st12" points="80.4,127.3 80.1,127.9 79.5,128.3 80.1,128.6 80.4,129.2 80.8,128.6 81.4,128.3 80.8,127.9 					
						"/>
					<polygon class="st12" points="64.9,144 64.6,144.6 64,144.9 64.6,145.3 64.9,145.9 65.3,145.3 65.9,144.9 65.3,144.6 					"/>
					<polygon class="st12" points="78.5,159.3 78.2,160 77.5,160.3 78.2,160.6 78.5,161.3 78.8,160.6 79.5,160.3 78.8,160 					"/>
					<polygon class="st12" points="50.7,153.4 50.4,154 49.8,154.3 50.4,154.7 50.7,155.3 51.1,154.7 51.7,154.3 51.1,154 					"/>
					<polygon class="st12" points="61.5,122.2 61.2,122.8 60.6,123.2 61.2,123.5 61.5,124.1 61.9,123.5 62.5,123.2 61.9,122.8 					
						"/>
					<polygon class="st12" points="55.1,109.6 54.8,110.3 54.2,110.6 54.8,110.9 55.1,111.6 55.5,110.9 56.1,110.6 55.5,110.3 					
						"/>
					<polygon class="st12" points="64.6,135.4 64.3,136 63.7,136.4 64.3,136.7 64.6,137.3 65,136.7 65.6,136.4 65,136 					"/>
					<polygon class="st12" points="29.4,197.7 29,198.3 28.4,198.6 29,199 29.4,199.6 29.7,199 30.4,198.6 29.7,198.3 					"/>
				</g>
				<g>
					<polygon class="st12" points="31.1,141.6 29.6,144.4 26.8,145.9 29.6,147.4 31.1,150.1 32.6,147.4 35.3,145.9 32.6,144.4 					
						"/>
					<polygon class="st12" points="1.6,125.5 0.7,127 -0.8,127.9 0.7,128.8 1.6,130.4 2.5,128.8 4.1,127.9 2.5,127 					"/>
					<polygon class="st12" points="23.7,110.6 22.9,112.2 21.3,113.1 22.9,113.9 23.7,115.5 24.6,113.9 26.2,113.1 24.6,112.2 					
						"/>
					<polygon class="st12" points="0,110.6 0.3,110 0.9,109.6 0.3,109.3 0,108.7 -0.4,109.3 -1,109.6 -0.4,110 					"/>
					<polygon class="st12" points="-6.9,121.2 -7.3,121.8 -7.9,122.2 -7.3,122.5 -6.9,123.2 -6.6,122.5 -6,122.2 -6.6,121.8 					
						"/>
					<polygon class="st12" points="17.6,110.2 17.2,110.8 16.6,111.2 17.2,111.5 17.6,112.1 17.9,111.5 18.5,111.2 17.9,110.8 					
						"/>
					<polygon class="st12" points="16,132.6 15.7,133.2 15,133.5 15.7,133.9 16,134.5 16.4,133.9 17,133.5 16.4,133.2 					"/>
					<polygon class="st12" points="11.9,151.4 11.5,152 10.9,152.4 11.5,152.7 11.9,153.4 12.2,152.7 12.8,152.4 12.2,152 					"/>
					<polygon class="st12" points="39.5,142.7 39.2,143.3 38.6,143.7 39.2,144 39.5,144.7 39.9,144 40.5,143.7 39.9,143.3 					"/>
					<polygon class="st12" points="29.4,108 29,108.6 28.4,109 29,109.3 29.4,110 29.7,109.3 30.4,109 29.7,108.6 					"/>
					<polygon class="st12" points="40.9,127.5 40.6,128.1 40,128.4 40.6,128.8 40.9,129.4 41.3,128.8 41.9,128.4 41.3,128.1 					
						"/>
					<polygon class="st12" points="24.7,118.9 24.4,119.5 23.7,119.9 24.4,120.2 24.7,120.8 25,120.2 25.7,119.9 25,119.5 					"/>
					<polygon class="st12" points="40.7,118.9 40.3,119.5 39.7,119.9 40.3,120.2 40.7,120.8 41,120.2 41.6,119.9 41,119.5 					"/>
					<polygon class="st12" points="-0.1,139.7 -0.4,140.3 -1.1,140.6 -0.4,141 -0.1,141.6 0.3,141 0.9,140.6 0.3,140.3 					"/>
				</g>
			</g>
			<g>
				<g>
					<polygon class="st12" points="39.3,87 37.8,89.7 35,91.2 37.8,92.7 39.3,95.5 40.8,92.7 43.5,91.2 40.8,89.7 					"/>
					<polygon class="st12" points="9.8,70.8 8.9,72.4 7.3,73.3 8.9,74.2 9.8,75.8 10.7,74.2 12.3,73.3 10.7,72.4 					"/>
					<polygon class="st12" points="31.9,56 31,57.5 29.4,58.4 31,59.3 31.9,60.9 32.8,59.3 34.4,58.4 32.8,57.5 					"/>
					<polygon class="st12" points="8.1,56 8.5,55.3 9.1,55 8.5,54.6 8.1,54 7.8,54.6 7.2,55 7.8,55.3 					"/>
					<polygon class="st12" points="1.2,66.6 0.9,67.2 0.3,67.5 0.9,67.9 1.2,68.5 1.6,67.9 2.2,67.5 1.6,67.2 					"/>
					<polygon class="st12" points="25.8,55.6 25.4,56.2 24.8,56.5 25.4,56.9 25.8,57.5 26.1,56.9 26.7,56.5 26.1,56.2 					"/>
					<polygon class="st12" points="24.2,77.9 23.8,78.5 23.2,78.9 23.8,79.2 24.2,79.9 24.5,79.2 25.2,78.9 24.5,78.5 					"/>
					<polygon class="st12" points="20,96.8 19.7,97.4 19.1,97.7 19.7,98.1 20,98.7 20.4,98.1 21,97.7 20.4,97.4 					"/>
					<polygon class="st12" points="47.7,88.1 47.4,88.7 46.7,89 47.4,89.4 47.7,90 48.1,89.4 48.7,89 48.1,88.7 					"/>
					<polygon class="st12" points="37.6,53.4 37.2,54 36.6,54.4 37.2,54.7 37.6,55.3 37.9,54.7 38.5,54.4 37.9,54 					"/>
					<polygon class="st12" points="49.1,72.8 48.8,73.5 48.2,73.8 48.8,74.1 49.1,74.8 49.5,74.1 50.1,73.8 49.5,73.5 					"/>
					<polygon class="st12" points="32.9,64.3 32.5,64.9 31.9,65.2 32.5,65.6 32.9,66.2 33.2,65.6 33.9,65.2 33.2,64.9 					"/>
					<polygon class="st12" points="48.8,64.3 48.5,64.9 47.9,65.2 48.5,65.6 48.8,66.2 49.2,65.6 49.8,65.2 49.2,64.9 					"/>
					<polygon class="st12" points="8.1,85 7.7,85.7 7.1,86 7.7,86.3 8.1,87 8.4,86.3 9.1,86 8.4,85.7 					"/>
				</g>
			</g>
			<g>
				<g>
					<polygon class="st12" points="16.4,168.5 16.1,169.1 15.5,169.5 16.1,169.8 16.4,170.4 16.8,169.8 17.4,169.5 16.8,169.1 					
						"/>
					<polygon class="st12" points="16.2,159.9 15.8,160.6 15.2,160.9 15.8,161.2 16.2,161.9 16.5,161.2 17.1,160.9 16.5,160.6 					
						"/>
					<polygon class="st12" points="0.7,176.6 0.3,177.2 -0.3,177.6 0.3,177.9 0.7,178.5 1,177.9 1.6,177.6 1,177.2 					"/>
					<polygon class="st12" points="14.2,192 13.9,192.6 13.3,192.9 13.9,193.3 14.2,193.9 14.6,193.3 15.2,192.9 14.6,192.6 					
						"/>
					<polygon class="st12" points="-13.5,186 -13.9,186.6 -14.5,186.9 -13.9,187.3 -13.5,187.9 -13.2,187.3 -12.6,186.9 
						-13.2,186.6 					"/>
					<polygon class="st12" points="-2.8,154.8 -3.1,155.4 -3.7,155.8 -3.1,156.1 -2.8,156.8 -2.4,156.1 -1.8,155.8 -2.4,155.4 					
						"/>
					<polygon class="st12" points="-9.1,142.2 -9.5,142.9 -10.1,143.2 -9.5,143.6 -9.1,144.2 -8.8,143.6 -8.2,143.2 -8.8,142.9 
											"/>
					<polygon class="st12" points="0.4,168 0,168.6 -0.6,169 0,169.3 0.4,170 0.7,169.3 1.3,169 0.7,168.6 					"/>
				</g>
				<g>
					<polygon class="st12" points="-24.8,175.3 -25.1,176 -25.7,176.3 -25.1,176.7 -24.8,177.3 -24.4,176.7 -23.8,176.3 -24.4,176 
											"/>
					<polygon class="st12" points="-23.3,160.1 -23.7,160.7 -24.3,161.1 -23.7,161.4 -23.3,162 -23,161.4 -22.4,161.1 -23,160.7 
											"/>
					<polygon class="st12" points="-23.6,151.5 -24,152.2 -24.6,152.5 -24,152.8 -23.6,153.5 -23.3,152.8 -22.7,152.5 -23.3,152.2 
											"/>
				</g>
			</g>
		</g>
		<g class="st9">
			<path class="st10" d="M1.8,34.8C19.8,30.9,39,54.1,70,45.7c31-8.4,65.3-10.2,82.8,11.6c7.7,9.6,8.1,21.2,6.4,33.6
				c2.1-13.6,2.4-26.1-5.9-36.5c-17.5-21.8-51.8-20-82.8-11.6C39.4,51.2,20.3,28,2.3,31.9c-11.4,2.5-16.3,11.9-18,25.3
				C-13.7,45.4-8.7,37.1,1.8,34.8z"/>
			<path class="st10" d="M153.5,133c0.4,24.7,7.7,32.1,6.8,43c2.6-12.6-5.9-19-6.3-45.9c-0.1-4.9,0.3-9.9,1-14.8
				C154,121.2,153.4,127.1,153.5,133z"/>
			<path class="st10" d="M-37.2,146.8c7.1-24.3,18.5-28.2,20.7-47.6c-3,17-13.5,21.8-20.3,44.8c-0.7,2.4-1.2,4.9-1.5,7.4
				C-38,149.8-37.6,148.3-37.2,146.8z"/>
		</g>
	</g>
	<g class="st1">
		<g class="st2">
			<path class="st3" d="M284.3,333.2c0,0,11.1,0.1,17.9,5.1c6.8,5,6.8,11.8,12.8,13.3c6,1.6,6.5-3.6,10.7-1.8
				c4.2,1.8,10.1,5.5,19.1,0.7c8.9-4.8,5.8-13.3,11.7-19.2c5.9-5.9,17.8-10.2,19.6-24.5c1.9-14.2-12.6-14.8-11.7-24.9
				c0.9-10.1-5.4-17.8-14.9-19.5c-9.5-1.7-20.8,3.2-28.4,0.2c-7.6-3-22.2-17.7-33.6-16.7c-11.4,1-16.7,11.8-11.7,20.9
				c4.6,8.3,7.9,17.5,4.9,25.1c-3,7.6-16.1,20.9-10.6,32.1C274,332.4,284.3,333.2,284.3,333.2z"/>
			<path class="st4" d="M284.3,332.6c0,0,11.1,0.1,17.9,5.1c6.8,5,6.8,11.8,12.8,13.3c6,1.6,6.5-3.6,10.7-1.8
				c4.2,1.8,10.1,5.5,19.1,0.7c8.9-4.8,5.8-13.3,11.7-19.2c5.9-5.9,17.8-10.2,19.6-24.5c1.9-14.2-12.6-14.8-11.7-24.9
				c0.9-10.1-5.4-17.8-14.9-19.5c-9.5-1.7-20.8,3.2-28.4,0.2c-7.6-3-22.2-17.7-33.6-16.8c-11.4,1-16.7,11.8-11.7,20.9
				c4.6,8.3,7.9,17.5,4.9,25.1c-3,7.6-16.1,20.9-10.6,32.1C274,331.8,284.3,332.6,284.3,332.6z"/>
			<g>
				<path class="st5" d="M364.3,281.4c0.9-10.1-5.4-17.8-14.9-19.5c-9.5-1.7-20.8,3.2-28.4,0.2c-7.6-3-22.2-17.7-33.6-16.8
					c-11,0.9-16.4,11.1-12.1,20c-2.9-8.3,2.4-17.2,12.6-18.1c11.1-1,25.4,13.5,32.9,16.4c7.5,3,18.6-1.9,27.9-0.2
					c9.3,1.6,15.5,9.2,14.6,19.1c-0.9,9.9,13.3,10.5,11.5,24.4c-1.8,14-13.5,18.2-19.3,24c-5.8,5.8-2.7,14.2-11.5,18.9
					c-3.7,2-6.9,2.5-9.6,2.3c2.9,0.3,6.3-0.1,10.3-2.2c8.9-4.8,5.8-13.3,11.7-19.2c5.9-5.9,17.8-10.2,19.6-24.5
					C377.8,292,363.3,291.4,364.3,281.4z"/>
				<path class="st6" d="M270.7,324c-5.3-11,7.5-24.1,10.4-31.5c2.2-5.6,1-11.9-1.6-18.2c2.3,5.9,3.2,11.9,1.1,17.1
					c-3,7.6-16.1,20.9-10.6,32.1c1.5,3.1,3.9,5.2,6.3,6.5C274.1,328.7,272,326.8,270.7,324z"/>
				<path class="st6" d="M315.4,351.1c4.5,0.9,5.7-2,8.1-2.2C321,348.9,319.8,352,315.4,351.1z"/>
			</g>
		</g>
		<path class="st7" d="M329.9,338.7c-6.4-1.9-11.4-8.2-25.5-5c-12.3,2.7-22.4-9.2-20.8-20.2c1.5-11,6.8-11.9,4.4-23.2
			c-2-9.6-2.5-17.5,3.9-19.9c6.4-2.4,14.7,5.1,25.6,0.4c10.9-4.7,23.4-7.2,31-0.2c6.9,6.4,2.7,17.6,4.3,27.7
			c1.7,10.1,5.3,11.8,4.7,17c-0.7,6.3-6.3,7.3-8.1,13.2C347.1,336,343.4,342.7,329.9,338.7z"/>
		<path class="st8" d="M329.9,338.3c-6.4-1.9-11.4-8.2-25.5-5C292.1,336,282,324,283.5,313c1.5-11,6.8-11.9,4.4-23.2
			c-2-9.6-2.5-17.5,3.9-19.9c6.4-2.4,14.7,5.1,25.6,0.4c10.9-4.7,23.4-7.2,31-0.2c6.9,6.5,2.7,17.6,4.3,27.7
			c1.7,10.1,5.3,11.8,4.7,17c-0.7,6.3-6.3,7.3-8.1,13.2C347.1,335.6,343.4,342.3,329.9,338.3z"/>
		<path class="st7" d="M314,274.7c4.9,1.7,8.5,6.8,19.6,4.9c9.6-1.6,17,8,15.4,16.5c-1.6,8.5-5.8,8.9-4.3,17.8
			c1.2,7.5,1.3,13.7-3.8,15.3c-5,1.6-11.2-4.5-19.8-1.3c-8.6,3.2-18.4,4.7-24-1.1c-5.1-5.3-1.4-13.7-2.3-21.6
			c-0.9-7.9-3.7-9.4-3-13.3c0.8-4.8,5.2-5.4,6.8-10C300.6,276.2,303.7,271.1,314,274.7z"/>
		<path class="st7" d="M314,273.7c4.9,1.7,8.5,6.8,19.6,4.9c9.6-1.6,17,8,15.4,16.5c-1.6,8.5-5.8,8.9-4.3,17.8
			c1.2,7.5,1.3,13.7-3.8,15.3c-5,1.6-11.2-4.5-19.8-1.3c-8.6,3.2-18.4,4.7-24-1.1c-5.1-5.3-1.4-13.7-2.3-21.6
			c-0.9-7.9-3.7-9.4-3-13.3c0.8-4.8,5.2-5.4,6.8-10C300.6,275.1,303.7,270,314,273.7z"/>
		<path class="st11" d="M314,274.4c4.9,1.7,8.5,6.8,19.6,4.9c9.6-1.7,17,8,15.4,16.5c-1.6,8.5-5.8,8.9-4.3,17.8
			c1.2,7.5,1.3,13.7-3.8,15.3c-5,1.6-11.2-4.5-19.8-1.3c-8.6,3.2-18.4,4.7-24-1.1c-5.1-5.3-1.4-13.7-2.3-21.6
			c-0.9-7.9-3.7-9.4-3-13.3c0.8-4.8,5.2-5.4,6.8-10C300.6,275.8,303.7,270.7,314,274.4z"/>
		<g class="st2">
			<polygon class="st12" points="331.5,312.6 330.2,314.9 327.9,316.2 330.2,317.4 331.5,319.8 332.8,317.4 335.1,316.2 
				332.8,314.9 			"/>
			<polygon class="st12" points="306.4,298.8 305.7,300.2 304.3,300.9 305.7,301.7 306.4,303 307.2,301.7 308.5,300.9 307.2,300.2 
							"/>
			<polygon class="st12" points="325.2,286.2 324.5,287.5 323.1,288.3 324.5,289 325.2,290.4 326,289 327.3,288.3 326,287.5 			"/>
			<polygon class="st12" points="305,286.2 305.3,285.6 305.8,285.3 305.3,285.1 305,284.5 304.7,285.1 304.2,285.3 304.7,285.6 			
				"/>
			<polygon class="st12" points="299.1,295.2 298.8,295.7 298.3,296 298.8,296.3 299.1,296.9 299.4,296.3 300,296 299.4,295.7 			
				"/>
			<polygon class="st12" points="320,285.8 319.7,286.4 319.2,286.7 319.7,286.9 320,287.5 320.3,286.9 320.8,286.7 320.3,286.4 			
				"/>
			<polygon class="st12" points="318.7,304.9 318.4,305.4 317.8,305.7 318.4,306 318.7,306.5 319,306 319.5,305.7 319,305.4 			"/>
			<polygon class="st12" points="315.1,320.9 314.8,321.4 314.3,321.7 314.8,322 315.1,322.6 315.4,322 315.9,321.7 315.4,321.4 			
				"/>
			<polygon class="st12" points="338.7,313.5 338.4,314 337.9,314.3 338.4,314.6 338.7,315.2 339,314.6 339.5,314.3 339,314 			"/>
			<polygon class="st12" points="330,284 329.7,284.5 329.2,284.8 329.7,285.1 330,285.6 330.3,285.1 330.9,284.8 330.3,284.5 			
				"/>
			<polygon class="st12" points="339.9,300.5 339.6,301.1 339.1,301.4 339.6,301.6 339.9,302.2 340.2,301.6 340.7,301.4 
				340.2,301.1 			"/>
			<polygon class="st12" points="326.1,293.2 325.8,293.8 325.2,294.1 325.8,294.4 326.1,294.9 326.3,294.4 326.9,294.1 
				326.3,293.8 			"/>
			<polygon class="st12" points="339.6,293.2 339.3,293.8 338.8,294.1 339.3,294.4 339.6,294.9 339.9,294.4 340.5,294.1 
				339.9,293.8 			"/>
			<polygon class="st12" points="305,310.9 304.7,311.4 304.1,311.7 304.7,312 305,312.6 305.3,312 305.8,311.7 305.3,311.4 			"/>
		</g>
	</g>
	<g class="st13">
		<g>
			<path class="st3" d="M49.5,241.3c0,0,30.1,0.2,48.3,13.7c18.2,13.5,18.3,31.8,34.5,36c16.2,4.2,17.5-9.7,28.8-4.8
				c11.3,4.9,27.4,14.9,51.5,2c24.1-12.9,15.7-36.1,31.6-52c15.9-15.9,48.1-27.7,53.1-66.1c5-38.4-34.2-40.1-31.7-67.3
				c2.5-27.2-14.7-48.1-40.2-52.6c-25.6-4.5-56.3,8.7-76.9,0.6C128,42.6,88.6,2.9,57.9,5.5C27.2,8.1,12.6,37.3,26.3,61.9
				c12.5,22.5,21.4,47.3,13.2,67.9c-8.1,20.6-43.5,56.6-28.8,86.9C21.6,239.2,49.5,241.3,49.5,241.3z"/>
			<path class="st4" d="M49.5,239.6c0,0,30.1,0.2,48.3,13.7c18.2,13.5,18.3,31.8,34.5,36c16.2,4.2,17.5-9.7,28.8-4.8
				c11.3,4.9,27.4,14.9,51.5,2c24.1-12.9,15.7-36.1,31.6-52c15.9-15.9,48.1-27.7,53.1-66.1c5-38.4-34.2-40.1-31.7-67.3
				C268.2,74,251,53,225.5,48.5c-25.6-4.5-56.3,8.7-76.9,0.6C128,41,88.6,1.3,57.9,3.9C27.2,6.5,12.6,35.7,26.3,60.3
				c12.5,22.5,21.4,47.3,13.2,67.9c-8.1,20.6-43.5,56.6-28.8,86.9C21.6,237.6,49.5,239.6,49.5,239.6z"/>
			<g>
				<path class="st5" d="M265.7,101.2C268.2,74,251,53,225.5,48.5c-25.6-4.5-56.3,8.7-76.9,0.6C128,41,88.6,1.3,57.9,3.9
					C28.2,6.4,13.6,33.9,25.1,58c-7.7-22.5,6.5-46.5,34-48.8c30.1-2.6,68.8,36.4,89,44.4c20.2,8,50.4-5,75.4-0.6
					c25.1,4.4,41.9,25,39.5,51.7c-2.5,26.7,36,28.3,31.1,66c-4.9,37.7-36.4,49.2-52.1,64.9c-15.6,15.6-7.4,38.3-31,51
					c-10,5.4-18.6,6.7-26,6.1c7.8,0.9,17-0.3,27.8-6.1c24.1-12.9,15.7-36.1,31.6-52c15.9-15.9,48.1-27.7,53.1-66.1
					C302.4,130,263.2,128.4,265.7,101.2z"/>
				<path class="st6" d="M12.7,216.4c-14.4-29.7,20.3-65,28.2-85.2c5.9-15,2.6-32.3-4.5-49.2c6.1,16,8.5,32.1,3,46.2
					c-8.1,20.6-43.5,56.6-28.8,86.9c4.1,8.4,10.6,14,17.1,17.7C22,229.2,16.4,224,12.7,216.4z"/>
				<path class="st6" d="M133.6,289.6c12,2.6,15.4-5.3,22-6.1C148.7,283.8,145.6,292.1,133.6,289.6z"/>
			</g>
		</g>
		<path class="st14" d="M172.9,256.1c-17.3-5.2-30.8-22.1-68.9-13.6c-33.1,7.4-60.5-24.9-56.3-54.6c4.2-29.7,18.5-32.1,12-62.8
			C54,99,52.8,77.7,70,71.2c17.3-6.5,39.6,13.7,69.1,1c29.5-12.8,63.2-19.5,83.7-0.5c18.8,17.4,7.2,47.4,11.7,74.8
			c4.5,27.4,14.4,31.9,12.8,45.9c-1.9,17-17.2,19.8-21.9,35.8C219.3,248.8,209.3,267,172.9,256.1z"/>
		<path class="st10" d="M172.9,255c-17.3-5.2-30.8-22.1-68.9-13.6c-33.1,7.4-60.5-24.9-56.3-54.6c4.2-29.7,18.5-32.1,12-62.8
			C54,97.9,52.8,76.6,70,70.1c17.3-6.5,39.6,13.7,69.1,1c29.5-12.8,63.2-19.5,83.7-0.5c18.8,17.4,7.2,47.4,11.7,74.8
			c4.5,27.4,14.4,31.9,12.8,45.9c-1.9,17-17.2,19.8-21.9,35.8C219.3,247.7,209.3,265.9,172.9,255z"/>
		<g class="st15">
			<path class="st10" d="M70,73c17.3-6.5,39.6,13.7,69.1,1c29.5-12.8,63.2-19.5,83.7-0.5c9.1,8.4,11,19.8,11.2,32.4
				c0.1-13.8-1.4-26.2-11.2-35.3c-20.5-19-54.2-12.3-83.7,0.5c-29.5,12.8-51.9-7.5-69.1-1c-10.9,4.1-14.4,14.2-14.1,27.6
				C56.2,85.7,59.9,76.8,70,73z"/>
			<path class="st10" d="M234.5,148.3c4,24.4,12.3,30.7,12.9,41.6c0.8-12.9-8.6-18-12.9-44.5c-0.8-4.9-1.1-9.8-1.1-14.8
				C233.3,136.5,233.6,142.5,234.5,148.3z"/>
			<path class="st10" d="M47.6,189.7c3.5-25.1,14.2-30.7,13.6-50.2c-0.5,17.2-10.3,23.5-13.6,47.3c-0.4,2.5-0.5,5-0.4,7.5
				C47.2,192.7,47.4,191.2,47.6,189.7z"/>
		</g>
		<path class="st14" d="M130,83.3c13.2,4.7,23.1,18.4,52.9,13.2c26-4.5,46,21.6,41.6,44.5c-4.4,22.9-15.6,24.2-11.7,48.2
			c3.3,20.4,3.4,37-10.2,41.4c-13.6,4.4-30.2-12.2-53.6-3.4c-23.4,8.8-49.8,12.7-64.9-2.9c-13.9-14.2-3.7-37.1-6.2-58.5
			c-2.4-21.4-9.9-25.3-8.2-36.1c2.1-13.1,14.1-14.7,18.4-26.9C93.7,87.1,102.1,73.4,130,83.3z"/>
		<path class="st14" d="M130,81.9c13.2,4.7,23.1,18.4,52.9,13.2c26-4.5,46,21.6,41.6,44.5c-4.4,22.9-15.6,24.2-11.7,48.2
			c3.3,20.4,3.4,37-10.2,41.4c-13.6,4.4-30.2-12.2-53.6-3.4c-23.4,8.8-49.8,12.7-64.9-2.9c-13.9-14.2-3.7-37.1-6.2-58.5
			c-2.4-21.4-9.9-25.3-8.2-36.1c2.1-13.1,14.1-14.7,18.4-26.9C93.7,85.7,102.1,72,130,81.9z"/>
		<path class="st16" d="M130,82.3c13.2,4.7,23.1,18.4,52.9,13.2c26-4.5,46,21.6,41.6,44.5c-4.4,22.9-15.6,24.2-11.7,48.2
			c3.3,20.4,3.4,37-10.2,41.4c-13.6,4.4-30.2-12.2-53.6-3.4c-23.4,8.8-49.8,12.7-64.9-2.9c-13.9-14.2-3.7-37.1-6.2-58.5
			c-2.4-21.4-9.9-25.3-8.2-36.1c2.1-13.1,14.1-14.7,18.4-26.9C93.7,86.1,102.1,72.4,130,82.3z"/>
		<path class="st17" d="M114.3,112c0.1-0.4,3-8.7-4.9-15.6c-1.2-1-3.1-1-4.4-0.1c-1.3,1-1.5,2.7-0.3,3.8c3.3,3.1,3.5,6.3,3.3,8.1
			c-1.1-3-3.4-6.6-8-9.4c-1.6-1-3.7-0.5-4.6,1.1c-1,1.6-0.5,3.7,1.1,4.6c3.2,2,4.7,4.4,5.3,6.2c-1.7-2.1-4.4-4.1-8.5-5.3
			c-1.7-0.5-3.5,0.5-3.9,2.2c-0.5,1.7,0.5,3.5,2.2,3.9c6,1.7,7,6.2,7,6.4c0.2,1.1,0.9,2,1.9,2.4c0.5,0.2,1.1,0.3,1.8,0.2
			c1.5-0.3,2.6-1.6,2.7-3.1c0.1,0,0.2,0.1,0.4,0.1c1.9,0.2,3.5-1.1,3.7-3c0-0.1,0-0.4,0-0.8c0.2,0.1,0.4,0.2,0.6,0.3
			C111.5,114.9,113.6,113.9,114.3,112z"/>
		<path class="st17" d="M193.1,193.5c-2,0-3.6,1.6-3.7,3.7c0,0.3,0,0.5,0.1,0.8c-1-0.4-1.7-0.5-1.8-0.5c-1.8-0.3-3.6,0.9-3.9,2.7
			c-0.1,0.4,0,0.7,0,1.1c-1.6-0.6-3.4,0.2-4,1.9c-0.2,0.6-0.3,1.2-0.2,1.8c0.2,1,0.9,1.9,1.9,2.4c0.3,0.1,4.4,2,4.8,8.3
			c0.1,1.8,1.7,3.1,3.4,3c1.8-0.1,3.1-1.7,3-3.4c-0.3-4.6-2-7.7-3.8-9.9c1.7,1.1,3.8,3.2,4.9,7.2c0.5,1.8,2.4,2.9,4.2,2.4
			c1.8-0.5,2.9-2.4,2.4-4.2c-1.3-4.7-3.6-7.7-5.9-9.7c1.8,0.5,4.6,1.8,6.3,5.9c0.6,1.5,2.3,1.9,3.6,1c1.4-0.9,2-2.7,1.5-4.2
			C202.4,193.8,193.5,193.5,193.1,193.5z"/>
		<g class="st15">
			<path class="st16" d="M212,180.2c-0.1,2.9,0.2,6.1,0.8,10c1,6.4,1.7,12.4,1.8,17.8c0.1-5.8-0.7-12.5-1.8-19.7
				C212.3,185.2,212.1,182.6,212,180.2z"/>
			<path class="st16" d="M69.8,130.7c2.1-13.1,14.1-14.7,18.4-26.9c5.6-15.8,14-29.5,41.8-19.6c13.2,4.7,23.1,18.4,52.9,13.2
				c23.2-4,41.6,16.4,42.2,37.1c0.6-21.4-18.2-43.2-42.2-39.1C153,100.6,143.2,87,130,82.3c-27.8-9.9-36.3,3.8-41.8,19.6
				c-4.3,12.2-16.2,13.8-18.4,26.9c-0.2,1.5-0.3,2.8-0.2,4.1C69.6,132.2,69.6,131.5,69.8,130.7z"/>
			<path class="st16" d="M78.3,173.5c-0.1,9.8-1.8,19.6-1.7,28.5C76.7,193,78.4,183.2,78.3,173.5z"/>
		</g>
		<path class="st14" d="M202.6,160.6c0-31.1-25.2-56.3-56.3-56.3c-9,0-16.2,4.3-24.7,4.2c-3.5,0-7-0.8-10.7-0.8
			c-12.4,0-22.5,10.1-22.5,22.5c0,4.9,2.2,7.4,2.9,11.9c0.9,5.7-1.4,12.5-1.4,18.5c0,31.1,25.2,56.3,56.3,56.3c8.2,0,16-1.7,23-4.9
			c1.3-0.6,2.4-0.8,3.8-1c2.7-0.4,5.5,1.7,8.6,1.7c8.6,0,15.6-7,15.6-15.6c0-3-1.3-5-1.3-7.8c0-1.6,0.5-3.1,1.2-4.5
			C200.6,177.5,202.6,169.3,202.6,160.6z"/>
		<path class="st18" d="M202.6,159.3c0-31.1-25.2-56.3-56.3-56.3c-9,0-16.2,4.3-24.7,4.2c-3.5,0-7-0.8-10.7-0.8
			c-12.4,0-22.5,10.1-22.5,22.5c0,4.9,2.2,7.4,2.9,11.9c0.9,5.7-1.4,12.5-1.4,18.5c0,31.1,25.2,56.3,56.3,56.3c8.2,0,16-1.7,23-4.9
			c1.3-0.6,2.4-0.8,3.8-1c2.7-0.4,5.5,1.7,8.6,1.7c8.6,0,15.6-7,15.6-15.6c0-3-1.3-5-1.3-7.8c0-1.6,0.5-3.1,1.2-4.5
			C200.6,176.2,202.6,168,202.6,159.3z"/>
		<g>
			<path class="st12" d="M106.7,174l-0.8,1.5l-1.5,0.8l1.5,0.8l0.8,1.5l0.8-1.5l1.5-0.8l-1.5-0.8L106.7,174z M121.2,158.5l-0.3,0.5
				l-0.5,0.3l0.5,0.3l0.3,0.5l0.3-0.5l0.5-0.3l-0.5-0.3L121.2,158.5z M107.9,190.3l-0.2,0.3l-0.3,0.2l0.3,0.2l0.2,0.3l0.2-0.3
				l0.3-0.2l-0.3-0.2L107.9,190.3z M116.4,132.4l-0.3,0.5l-0.5,0.3l0.5,0.3l0.3,0.5l0.3-0.5l0.5-0.3l-0.5-0.3L116.4,132.4z
				 M104.4,184.5l-0.2,0.3l-0.3,0.2l0.3,0.2l0.2,0.3l0.2-0.3l0.3-0.2l-0.3-0.2L104.4,184.5z M118.2,149l-0.2,0.3l-0.3,0.2l0.3,0.2
				l0.2,0.3l0.2-0.3l0.3-0.2l-0.3-0.2L118.2,149z M113.3,173l-0.2,0.3l-0.3,0.2l0.3,0.2l0.2,0.3l0.2-0.3l0.3-0.2l-0.3-0.2L113.3,173
				z M105.2,160.1l0.2-0.3l0.3-0.2l-0.3-0.2l-0.2-0.3l-0.2,0.3l-0.3,0.2l0.3,0.2L105.2,160.1z M96.2,140.3l-0.8,0.4l0.8,0.4l0.4,0.8
				l0.4-0.8l0.8-0.4l-0.8-0.4l-0.4-0.8L96.2,140.3z M186.8,174.1l0.2-0.3l0.3-0.2l-0.3-0.2l-0.2-0.3l-0.2,0.3l-0.3,0.2l0.3,0.2
				L186.8,174.1z M95.9,149.5l-0.8,1.5l-1.5,0.8l1.5,0.8l0.8,1.5l0.8-1.5l1.5-0.8l-1.5-0.8L95.9,149.5z M95.9,128.6l0.3-0.5l0.5-0.3
				l-0.5-0.3l-0.3-0.5l-0.3,0.5l-0.5,0.3l0.5,0.3L95.9,128.6z M97.2,175.3l-0.2,0.3l-0.3,0.2L97,176l0.2,0.3l0.2-0.3l0.3-0.2
				l-0.3-0.2L97.2,175.3z M118.2,182.4l-0.2,0.3l-0.3,0.2l0.3,0.2l0.2,0.3l0.2-0.3l0.3-0.2l-0.3-0.2L118.2,182.4z M190.5,177.6
				l-0.4,0.8l-0.8,0.4l0.8,0.4l0.4,0.8l0.4-0.8l0.8-0.4l-0.8-0.4L190.5,177.6z M121.2,111.4l-0.3,0.5l-0.5,0.3l0.5,0.3l0.3,0.5
				l0.3-0.5l0.5-0.3l-0.5-0.3L121.2,111.4z M183,179.9l-0.2,0.3l-0.3,0.2l0.3,0.2l0.2,0.3l0.2-0.3l0.3-0.2l-0.3-0.2L183,179.9z
				 M196.5,173.8l-0.2,0.3l-0.3,0.2l0.3,0.2l0.2,0.3l0.2-0.3l0.3-0.2l-0.3-0.2L196.5,173.8z M200.1,161.1l-0.2-0.3l-0.2,0.3
				l-0.3,0.2l0.3,0.2l0.2,0.3l0.2-0.3l0.3-0.2L200.1,161.1z M178.2,190.3l-0.2,0.3l-0.3,0.2l0.3,0.2l0.2,0.3l0.2-0.3l0.3-0.2
				l-0.3-0.2L178.2,190.3z M192.5,168.4l-0.4,0.8l-0.8,0.4l0.8,0.4l0.4,0.8l0.4-0.8l0.8-0.4l-0.8-0.4L192.5,168.4z M186.2,185.4
				l-0.8,1.5l-1.5,0.8l1.5,0.8l0.8,1.5l0.8-1.5l1.5-0.8l-1.5-0.8L186.2,185.4z M153.8,200.7l-0.2,0.3l-0.3,0.2l0.3,0.2l0.2,0.3
				l0.2-0.3l0.3-0.2L154,201L153.8,200.7z M158.8,203.1l-0.8,1.5l-1.5,0.8l1.5,0.8l0.8,1.5l0.8-1.5l1.5-0.8l-1.5-0.8L158.8,203.1z
				 M151.5,211l-0.2,0.3l-0.3,0.2l0.3,0.2l0.2,0.3l0.2-0.3l0.3-0.2l-0.3-0.2L151.5,211z M174.4,187.4l-0.4,0.8l-0.8,0.4l0.8,0.4
				l0.4,0.8l0.4-0.8l0.8-0.4l-0.8-0.4L174.4,187.4z M166.7,206.2l-0.2,0.3l-0.3,0.2l0.3,0.2l0.2,0.3l0.2-0.3l0.3-0.2l-0.3-0.2
				L166.7,206.2z M161.1,187.2l-0.2,0.3l-0.3,0.2l0.3,0.2l0.2,0.3l0.2-0.3l0.3-0.2l-0.3-0.2L161.1,187.2z"/>
			<path class="st12" d="M107.6,165.9c-0.1-0.5-1.3-0.7-3-0.5c-0.9-1.5-2.6-2.3-4.3-1.9c-1.8,0.4-3,1.9-3.1,3.6
				c-1.6,0.6-2.6,1.3-2.5,1.8c0.1,0.5,1.3,0.7,3,0.5c0.9,1.5,2.6,2.3,4.3,1.9c1.7-0.4,2.9-1.9,3.1-3.6
				C106.7,167,107.7,166.4,107.6,165.9z"/>
			<path class="st12" d="M99.8,135.7c0.2-0.2-0.3-0.8-1-1.4c0.3-0.9-0.1-2-1-2.5c-0.9-0.5-2-0.4-2.7,0.2c-0.9-0.4-1.6-0.5-1.7-0.3
				c-0.2,0.2,0.3,0.8,1,1.4c-0.2,0.9,0.1,2,1,2.5c0.9,0.5,1.9,0.4,2.7-0.2C99,135.8,99.6,135.9,99.8,135.7z"/>
		</g>
		<g>
			<defs>
				<path id="SVGID_3_" d="M202.6,159.3c0-31.1-25.2-56.3-56.3-56.3c-9,0-16.2,4.3-24.7,4.2c-3.5,0-7-0.8-10.7-0.8
					c-12.4,0-22.5,10.1-22.5,22.5c0,4.9,2.2,7.4,2.9,11.9c0.9,5.7-1.4,12.5-1.4,18.5c0,31.1,25.2,56.3,56.3,56.3
					c8.2,0,16-1.7,23-4.9c1.3-0.6,2.4-0.8,3.8-1c2.7-0.4,5.5,1.7,8.6,1.7c8.6,0,15.6-7,15.6-15.6c0-3-1.3-5-1.3-7.8
					c0-1.6,0.5-3.1,1.2-4.5C200.6,176.2,202.6,168,202.6,159.3z"/>
			</defs>
			<clipPath id="SVGID_4_">
				<use xlink:href="#SVGID_3_"  style="overflow:visible;"/>
			</clipPath>
			<path class="st19" d="M146.3,216.9c4.6-11.9,2.2-36.9-5.9-40c-7.7-3-26.7,12.7-31.3,24.6c-4.6,11.9,0.2,20.4,12.1,25
				C133,231.1,141.7,228.8,146.3,216.9z"/>
			<path class="st20" d="M108.3,115c0,0-9.8,42,20.9,64.6"/>
			<path class="st21" d="M145.5,186.1c0,0,11.9,15.1,42.1,11.1"/>
			<g class="st22">
				<path class="st23" d="M194.5,172.2c0,13.7-11.1,24.8-24.8,24.8c-13.7,0-24.8-11.1-24.8-24.8c0-13.7,11.1-24.8,24.8-24.8
					C183.4,147.3,194.5,158.4,194.5,172.2z"/>
			</g>
			<g class="st22">
				<path class="st23" d="M187.7,172.2c0,10-8.1,18-18,18c-10,0-18-8.1-18-18c0-10,8.1-18,18-18
					C179.7,154.1,187.7,162.2,187.7,172.2z"/>
			</g>
			<g class="st24">
				<path class="st23" d="M183.5,172.2c0,7.6-6.2,13.8-13.8,13.8c-7.6,0-13.8-6.2-13.8-13.8c0-7.6,6.2-13.8,13.8-13.8
					C177.3,158.3,183.5,164.5,183.5,172.2z"/>
			</g>
			<g class="st24">
				<path class="st25" d="M179.6,172.2c0,5.5-4.5,10-10,10c-5.5,0-9.9-4.5-9.9-10c0-5.5,4.5-10,9.9-10
					C175.2,162.2,179.6,166.7,179.6,172.2z"/>
			</g>
			<path class="st19" d="M146.3,216.9c4.6-11.9,2.2-36.9-5.9-40c-7.7-3-26.7,12.7-31.3,24.6c-4.6,11.9,0.2,20.4,12.1,25
				C133,231.1,141.7,228.8,146.3,216.9z"/>
			<path class="st26" d="M140.3,176.9c-2.4-0.9-8.4-5.6-12.2-3.6c1.6,7.2,6.1,10.1,8.7,11.6c2.7,1.6,8.9,2.6,14.1,1.3
				C146.9,182,143.1,177.9,140.3,176.9z"/>
			<path class="st27" d="M123.1,197.1c0.1-8.4,6.1-14.5,10.7-17.9c-8.3,2.9-20,13.8-23.4,22.5c-4.3,11,0.2,19,11.2,23.3
				c11,4.3,19.1,2.1,23.4-8.9c0.5-1.2,0.8-2.5,1.1-3.9C135.8,215.7,123,207.6,123.1,197.1z"/>
		</g>
		<g>
			<path class="st28" d="M168.6,210.8c-6.8,3.1-14.4,4.8-22.3,4.8c0,0,0,0,0,0c8.2,0,16-1.7,23-4.9c0.7-0.3,1.4-0.6,2.1-0.7
				C170.4,210.2,169.6,210.4,168.6,210.8z"/>
			<path class="st28" d="M197.1,183.5c3.5-7.3,5.5-15.6,5.5-24.2c0-31.1-25.2-56.3-56.3-56.3c-9,0-16.2,4.3-24.7,4.2
				c-3.5,0-7-0.8-10.7-0.8c-12.4,0-22.5,10.1-22.5,22.5c0,4.9,2.2,7.4,2.9,11.9c0.9,5.7-1.4,12.5-1.4,18.5
				c0,30.1,23.7,54.8,53.5,56.2c-29-1.5-52-25.4-52-54.8c0-5.9,2.3-12.5,1.4-18c-0.7-4.4-2.9-6.8-2.9-11.6
				c0-12.1,9.8-21.9,21.9-21.9c3.6,0,7.1,0.7,10.4,0.8c8.2,0.1,15.2-4.1,24-4.1c30.3,0,54.8,24.5,54.8,54.8c0,8.4-1.9,16.4-5.3,23.6
				c-0.7,1.4-1.2,2.9-1.2,4.4c0,2.7,1.3,4.7,1.3,7.6c0,7.6-5.7,14-13,15c8-0.6,14.4-7.3,14.4-15.5c0-3-1.3-5-1.3-7.8
				C195.9,186.5,196.4,184.9,197.1,183.5z"/>
		</g>
		<g>
			<g>
				<path class="st29" d="M84.6,175c0,3-2.4,5.4-5.4,5.6c-0.3,0-0.6,0-1,0.1c0,2.4,0,4.8,0,7.3c0,3-2.3,5.4-5.3,5.7
					c-3,0.2-5.3-1.9-5.3-4.8c0-2.4,0-4.8,0-7.3c-10,0.9-19.9,1.9-29.9,3.1c0,0-0.1,0-0.1,0c0,0-0.1,0-0.1,0c-1.1,0.1-2.3,0-3.2-0.8
					c-2.4-1.5-2.7-4.7-0.9-7.3c11.7-16.1,23.5-32,35.3-47.7c0.1,0,0.1-0.1,0.2-0.2c0.1-0.1,0.2-0.2,0.3-0.4c0.3-0.1,0.4-0.2,0.5-0.3
					c0.1-0.1,0.3-0.2,0.4-0.3c0.2-0.1,0.3-0.2,0.6-0.2c0.1-0.2,0.2-0.3,0.4-0.3c0.1-0.1,0.3-0.1,0.6-0.2c0.1,0,0.3,0,0.4-0.1
					c0.2,0,0.5,0,0.7-0.1c0,0,0.1,0,0.2,0c0.1,0,0.1,0,0.2,0c0.2,0,0.5,0,0.6,0c0.2,0.1,0.3,0.1,0.5,0.1c0.1,0.1,0.4,0.1,0.6,0.1
					c0.1,0,0.3,0.1,0.4,0.1c0.2,0.2,0.4,0.3,0.5,0.3c0.2,0.1,0.3,0.2,0.5,0.3c0,0,0.1,0,0.1,0.1c0.1,0,0.3,0.1,0.3,0.2
					c0.2,0.2,0.3,0.3,0.4,0.4c0.1,0.1,0.2,0.3,0.3,0.4c0.1,0.1,0.2,0.2,0.4,0.4c0,0.1,0.1,0.3,0.2,0.4c0.1,0.2,0.1,0.3,0.2,0.6
					c0,0.1,0.1,0.3,0.1,0.4c0.1,0.2,0.1,0.3,0.1,0.6c0,0.2,0.1,0.3,0.1,0.5c0,0.1,0,0.2,0,0.3c0,12.9,0,25.7,0,38.6
					c0.3,0,0.6,0,1-0.1C82.2,169.9,84.6,172.2,84.6,175z M67.7,147.5c-6.3,8.4-12.7,16.9-19,25.4c6.3-0.7,12.7-1.3,19-1.8
					C67.7,163.2,67.7,155.3,67.7,147.5z"/>
			</g>
			<g>
				<path class="st29" d="M256.3,182.4c0,3-2.4,5-5.3,4.6c-0.3,0-0.6-0.1-1-0.1c0,2.4,0,4.8,0,7.3c0,3-2.3,5-5.2,4.6
					c-3-0.3-5.2-2.9-5.2-5.8c0-2.4,0-4.8,0-7.3c-10-1.1-19.9-2-29.9-2.7c0,0-0.1,0-0.1,0c0,0-0.1,0-0.1,0c-1.1-0.1-2.3-0.5-3.2-1.4
					c-2.4-2-2.7-5.2-0.9-7.4c11.8-13.9,23.6-27.5,35.3-40.8c0.1,0,0.1-0.1,0.2-0.2c0.1-0.1,0.2-0.2,0.3-0.4c0.3-0.1,0.4-0.1,0.5-0.2
					c0.1-0.1,0.3-0.2,0.4-0.2c0.2-0.1,0.3-0.2,0.6-0.1c0.1-0.2,0.2-0.3,0.4-0.2c0.1-0.1,0.3-0.1,0.6-0.1c0.1,0,0.3,0,0.4-0.1
					c0.2,0,0.5,0.1,0.7,0.1c0,0,0.1,0,0.2,0c0.1,0,0.1,0,0.2,0c0.2,0,0.5,0.1,0.6,0.1c0.2,0.1,0.3,0.1,0.5,0.1
					c0.1,0.1,0.4,0.1,0.6,0.3c0.1,0,0.3,0.1,0.4,0.1c0.2,0.2,0.4,0.3,0.5,0.4c0.2,0.1,0.3,0.2,0.5,0.3c0,0,0.1,0,0.1,0.1
					c0.1,0,0.3,0.1,0.3,0.2c0.2,0.2,0.3,0.3,0.4,0.4c0.1,0.1,0.2,0.3,0.3,0.4c0.1,0.1,0.2,0.2,0.4,0.5c0,0.1,0.1,0.3,0.2,0.4
					c0.1,0.2,0.1,0.3,0.2,0.6c0,0.1,0.1,0.3,0.1,0.4c0.1,0.2,0.1,0.3,0.1,0.6c0,0.2,0.1,0.3,0.1,0.5c0,0.1,0,0.2,0,0.3
					c0,12.9,0,25.7,0,38.6c0.3,0,0.6,0.1,1,0.1C253.9,176.9,256.3,179.6,256.3,182.4z M239.5,151.6c-6.3,7.2-12.7,14.5-19,21.8
					c6.3,0.5,12.7,1.2,19,1.8C239.5,167.4,239.5,159.5,239.5,151.6z"/>
			</g>
		</g>
		<g>
			<path class="st30" d="M116.2,105.2c-0.8,1.5-3.7,5.8-5.2,6.7c-1.7,1.1-3.9,1.1-5.6,0.2c-0.4,0.5-1,1-1.6,1.3
				c-1.3,0.8-3.1,1.1-4.6,0.6l-1.2-0.9c-0.4-0.1-1.3-1.1-1.6-1.2c0.9-0.6-0.5,0.2-0.5,0.2s-1.9,1.7-3.2,3.7c0,0,6.7,6.4,13.9,5.9
				C116.6,121.2,117.4,109.9,116.2,105.2z"/>
			<path class="st31" d="M98.5,116.4c-0.4-2-2.8-4.2-2.8-4.2l0,0c-0.3,0.3-0.7,0.7-1.1,1.1C96,114.3,98.5,116.4,98.5,116.4z"/>
			<path class="st31" d="M93,116.5c1.2-3,4.2-1.2,4.2-1.2l0.5-0.3l-2.1-1.8l-0.5-0.3c-0.7,0.7-1.7,1.8-2.5,3.1
				C92.5,116,92.7,116.2,93,116.5z"/>
			<g>
				<g>
					<path class="st30" d="M109.3,114.3c-1-1.1-1.2-2.6-0.5-3.9c0.1-0.3,2.5-4.8-1.8-9.9c-1-1.2-0.7-2.9,0.8-3.7
						c1.4-0.8,3.3-0.5,4.4,0.6c7.1,7.7,3.3,15.7,3.1,16.1c-0.9,1.8-3.1,2.5-4.9,1.6C109.9,114.9,109.5,114.6,109.3,114.3z"/>
				</g>
				<g>
					<path class="st30" d="M104.1,117.3c-0.9-0.8-1.4-2-1.2-3.3c0.1-0.3,1-5.5-4.7-10.1c-1.4-1.1-1.7-3.3-0.6-4.7
						c1.2-1.5,3.3-1.7,4.7-0.6c9.2,7.3,7.2,16.4,7.1,16.8c-0.4,1.8-2.2,2.9-4,2.5C105,117.9,104.5,117.7,104.1,117.3z"/>
				</g>
				<g>
					<path class="st30" d="M100.4,120.2c-0.9-0.5-1.5-1.5-1.6-2.6c0-0.3-0.5-4.8-6.3-7.2c-1.6-0.7-2.4-2.5-1.7-4.2
						c0.7-1.6,2.5-2.4,4.2-1.7c9.7,4,10.2,12.4,10.2,12.8c0.1,1.8-1.3,3.3-3,3.3C101.5,120.6,100.9,120.5,100.4,120.2z"/>
				</g>
			</g>
		</g>
		<g>
			<g>
				<path class="st30" d="M186.9,210.5c0.1-0.1,0.2-0.2,0.2-0.2C187.1,210.3,187,210.4,186.9,210.5z"/>
				<path class="st30" d="M186.8,210.5C186.8,210.5,186.9,210.5,186.8,210.5C186.9,210.5,186.8,210.5,186.8,210.5z"/>
				<path class="st30" d="M187.1,210.3C187.2,210.2,187.2,210.2,187.1,210.3L187.1,210.3z"/>
				<path class="st30" d="M196.5,193.7c-3.2-1.6-11-2.7-16.5,5.3c-2.7,4-0.7,9.4,0.9,12.5c1.2,0.2,3.1,0.2,5.3-0.7
					c0.1,0.1,0.1,0.1,0.2,0.2c0.3-0.2,0.5-0.4,0.5-0.4c-0.1-0.4-0.5-0.8-0.5-1.1l-0.5-1.4c-0.1-1.5,0.7-3.3,1.7-4.3
					c0.5-0.5,1.1-0.9,1.7-1.2c-0.4-1.9,0.1-4,1.6-5.4C192.1,195.8,194.8,194.1,196.5,193.7z"/>
			</g>
			<path class="st31" d="M186.2,210.8C186.2,210.8,186.2,210.8,186.2,210.8c-0.3-0.5-1.3-2-2.7-2.7c0,0,0.7,1.7,1.3,3.2
				C185.2,211.1,185.7,210.9,186.2,210.8z"/>
			<g>
				<g>
					<path class="st30" d="M189.6,198c0.6,1.3,2,2.1,3.4,2c0.3,0,5.4-0.4,8.4,5.5c0.7,1.4,2.4,1.7,3.7,0.7c1.3-1,1.8-2.9,1.1-4.3
						c-4.4-9.5-13.3-9.1-13.7-9.1c-2,0.1-3.5,1.9-3.4,3.9C189.3,197.2,189.4,197.6,189.6,198z"/>
				</g>
				<g>
					<path class="st30" d="M184.2,201.8c0.4,1.1,1.5,2,2.8,2.1c0.3,0,5.6,0.8,8.1,7.7c0.6,1.7,2.6,2.7,4.3,2c1.8-0.6,2.7-2.6,2-4.3
						c-4.1-11-13.4-12-13.8-12.1c-1.9-0.2-3.5,1.2-3.7,3.1C183.9,200.8,184,201.3,184.2,201.8z"/>
				</g>
				<g>
					<path class="st30" d="M180.2,205.3c0.3,1,1.1,1.9,2.1,2.2c0.3,0.1,4.6,1.6,5.5,7.8c0.3,1.7,1.9,2.9,3.6,2.7
						c1.7-0.3,2.9-1.9,2.7-3.6c-1.6-10.4-9.6-12.9-10-13c-1.7-0.5-3.5,0.5-4,2.2C180,204.1,180,204.7,180.2,205.3z"/>
				</g>
			</g>
		</g>
		<g>
			<g>
				<path class="st32" d="M198.2,151.9c-9.4,20.9-45.8,38.9-60.2,32.4c-13.5-6.1-24.8-45.7-15.4-66.6c9.4-20.9,34-30.1,54.9-20.7
					C198.4,106.5,207.7,131,198.2,151.9z"/>
				<path class="st33" d="M139.7,180.8c-10.3-8.6-10.7-46.2,2.6-62.3c12.1-14.6,32.7-17.9,48.4-8.5c-3.8-4.7-8.6-8.6-14.5-11.2
					c-19.9-9-43.4-0.1-52.4,19.9c-9.1,20,1.7,57.9,14.5,63.8c2.1,1,4.7,1.4,7.6,1.3C143.4,183.1,141.3,182.1,139.7,180.8z"/>
				<g class="st34">
					<path class="st35" d="M124.6,143.8c-0.2,0.5,0,1.1,0.5,1.3c0.5,0.2,1.1,0,1.3-0.5c0.2-0.5,0-1.1-0.5-1.3
						C125.4,143.1,124.8,143.3,124.6,143.8z"/>
					<path class="st35" d="M122.2,145.4c-0.2,0.5,0,1.1,0.5,1.3c0.5,0.2,1.1,0,1.3-0.5c0.2-0.5,0-1.1-0.5-1.3
						C123,144.6,122.4,144.9,122.2,145.4z"/>
					<path class="st35" d="M124.9,147.7c-0.1,0.3,0,0.7,0.3,0.8c0.3,0.1,0.7,0,0.8-0.3c0.1-0.3,0-0.7-0.3-0.8
						C125.4,147.3,125,147.4,124.9,147.7z"/>
				</g>
				<path class="st36" d="M175.2,118.6c-2.1,4.5,0,9.9,4.5,11.9c4.5,2.1,9.9,0,11.9-4.5c2.1-4.5,0-9.9-4.5-11.9
					C182.6,112.1,177.3,114.1,175.2,118.6z"/>
				<path class="st36" d="M164.2,123.5c-0.9,2,0,4.4,2,5.3c2,0.9,4.4,0,5.3-2c0.9-2,0-4.4-2-5.3
					C167.5,120.6,165.1,121.5,164.2,123.5z"/>
				<path class="st36" d="M170,134.4c-0.9,2,0,4.4,2,5.3c2,0.9,4.4,0,5.3-2c0.9-2,0-4.4-2-5.3C173.3,131.5,171,132.4,170,134.4z"/>
				<path class="st36" d="M176.7,134.2c-0.5,1.1,0,2.4,1.1,2.9c1.1,0.5,2.4,0,2.9-1.1c0.5-1.1,0-2.4-1.1-2.9
					C178.4,132.6,177.2,133.1,176.7,134.2z"/>
				<path class="st36" d="M167.7,136.9c-0.5,1.1,0,2.4,1.1,2.9c1.1,0.5,2.4,0,2.9-1.1c0.5-1.1,0-2.4-1.1-2.9
					C169.5,135.3,168.2,135.8,167.7,136.9z"/>
				<path class="st36" d="M151.4,136c-0.5,1.1,0,2.4,1.1,2.9c1.1,0.5,2.4,0,2.9-1.1c0.5-1.1,0-2.4-1.1-2.9
					C153.2,134.5,151.9,134.9,151.4,136z"/>
				<path class="st36" d="M148,141.1c-1,2.3,0,5,2.3,6c2.3,1,5,0,6-2.3c1-2.3,0-5-2.3-6C151.7,137.8,149,138.8,148,141.1z"/>
				<path class="st36" d="M144.4,126.2c-1,2.3,0,5,2.3,6c2.3,1,5,0,6-2.3c1-2.3,0-5-2.3-6C148.1,122.9,145.4,123.9,144.4,126.2z"/>
				<path class="st36" d="M168.1,115.6c-0.6,1.4,0,3,1.4,3.6c1.4,0.6,3,0,3.6-1.4c0.6-1.4,0-3-1.4-3.6
					C170.4,113.6,168.7,114.2,168.1,115.6z"/>
				<path class="st36" d="M158.4,176.5c-0.5,1,0,2.2,1,2.7c1,0.5,2.2,0,2.7-1c0.5-1,0-2.2-1-2.7C160,175.1,158.8,175.5,158.4,176.5z
					"/>
				<path class="st36" d="M163.9,177.3c-0.2,0.5,0,1.1,0.5,1.3c0.5,0.2,1.1,0,1.3-0.5c0.2-0.5,0-1.1-0.5-1.3
					C164.7,176.6,164.1,176.8,163.9,177.3z"/>
				<path class="st36" d="M181.1,164.5c-0.2,0.5,0,1.1,0.5,1.3c0.5,0.2,1.1,0,1.3-0.5c0.2-0.5,0-1.1-0.5-1.3
					C181.9,163.7,181.3,164,181.1,164.5z"/>
				<path class="st36" d="M162.2,173c-0.3,0.7,0,1.5,0.7,1.8c0.7,0.3,1.5,0,1.8-0.7c0.3-0.7,0-1.5-0.7-1.8
					C163.3,172,162.5,172.3,162.2,173z"/>
				<g>
					<g>
						<g>
							<path class="st37" d="M169.1,138.3c-13.8,8-14.1,23.7-14.1,23.7s13.5,7.7,27.7,0c11.6-6.3,14.3-22.7,14.3-22.7
								S182.4,130.6,169.1,138.3z"/>
							<path class="st38" d="M168.2,138.9c-13.9,8.1-14.4,23.7-14.4,23.7s13.5,7.5,27.8-0.2c11.7-6.3,14.5-22.7,14.5-22.7
								S181.7,131.1,168.2,138.9z"/>
							<path class="st31" d="M168.7,138.6c-13.6,7.8-13.8,23.4-13.8,23.4s13.3,7.6,27.2,0.1c11.4-6.1,14-22.4,14-22.4
								S181.9,131,168.7,138.6z"/>
							<path class="st39" d="M167.5,140.6c-12.4,7.2-12.6,21.3-12.6,21.3s12.2,6.9,24.9,0.1c10.4-5.6,12.7-20.4,12.7-20.4
								S179.5,133.7,167.5,140.6z"/>
							<path class="st40" d="M167.5,140.6c-12.4,7.2-12.6,21.3-12.6,21.3s12.2,6.9,24.9,0.1c10.4-5.6,12.7-20.4,12.7-20.4
								S179.5,133.7,167.5,140.6z"/>
							<path class="st41" d="M166.8,141.3c-11.8,6.9-11.9,20.6-11.9,20.6s11.8,6.9,23.9,0.3c9.9-5.4,12.1-19.7,12.1-19.7
								S178.3,134.6,166.8,141.3z"/>
							<g>
								<path class="st42" d="M187.4,140.8c-1-0.4-2.3-0.9-3.6-1.2c-1.5,7.9-7.5,27.3-28.7,22.5c0,0,0,0,0,0
									C156.9,162.6,180.4,169.7,187.4,140.8z"/>
								<path class="st42" d="M181,139c-3.2-0.5-6.9-0.5-10.6,0.7c2.6,17.1-14.8,22.2-15.4,22.3c0,0,0,0,0,0
									C176.1,163.4,180.3,144.3,181,139z"/>
							</g>
						</g>
						<g>
							<path class="st37" d="M152.2,130.7c3.1,15.6-8.5,26.2-8.5,26.2s-14.7-5.1-18.3-20.8c-2.9-12.8,7.6-25.7,7.6-25.7
								S149.2,115.5,152.2,130.7z"/>
							<path class="st38" d="M152.5,131.7c3.3,15.7-8.2,26.2-8.2,26.2s-14.7-5.3-18.4-21c-3.1-12.9,7.4-25.7,7.4-25.7
								S149.4,116.5,152.5,131.7z"/>
							<path class="st31" d="M152.2,131.1c3.1,15.4-8.5,25.8-8.5,25.8s-14.5-5-18.1-20.4c-2.9-12.6,7.6-25.2,7.6-25.2
								S149.2,116.2,152.2,131.1z"/>
							<path class="st39" d="M151.5,133.3c2.8,14-7.7,23.5-7.7,23.5s-13.3-4.6-16.5-18.6c-2.6-11.5,6.9-23,6.9-23
								S148.8,119.8,151.5,133.3z"/>
							<path class="st40" d="M151.5,133.3c2.8,14-7.7,23.5-7.7,23.5s-13.3-4.6-16.5-18.6c-2.6-11.5,6.9-23,6.9-23
								S148.8,119.8,151.5,133.3z"/>
							<path class="st41" d="M151.4,134.3c2.7,13.4-7.6,22.6-7.6,22.6s-12.9-4.3-16-17.8c-2.5-11,6.9-22.1,6.9-22.1
								S148.8,121.3,151.4,134.3z"/>
							<g>
								<path class="st42" d="M149.7,129.4c-1.8-3.6-4.5-6.3-7.2-8.3l0,0c-0.1-0.1-17.3,19.6,1.2,35.7
									C143.8,156.9,134,139.8,149.7,129.4z"/>
								<path class="st42" d="M140.1,119.5c-1.3-0.8-2.5-1.4-3.5-1.8c-17.5,27.3,7.1,39.1,7.1,39.1
									C124,144.6,136.2,124.9,140.1,119.5z"/>
							</g>
						</g>
					</g>
					<g>
						<path class="st37" d="M152,175.5c1.9-4.5-0.1-9.8-4.6-11.8c-4.5-2.1-9.9,0-12,4.5c-0.2,0.5,0,1.1,0.5,1.3l14.7,6.7
							c0,0,0,0,0,0c0.5,0.2,1.1,0,1.3-0.5C152,175.6,152,175.6,152,175.5z"/>
						<path class="st38" d="M151.8,176c1.9-4.5-0.1-9.8-4.6-11.8c-4.5-2.1-9.9,0-12,4.5c-0.2,0.5,0,1.1,0.5,1.3l14.7,6.7
							c0,0,0,0,0,0c0.5,0.2,1.1,0,1.3-0.5C151.7,176.2,151.7,176.1,151.8,176z"/>
						<path class="st43" d="M136.1,169.1c1.8-4.1,6.6-5.9,10.7-4c4.1,1.8,5.9,6.6,4,10.7"/>
						<path class="st44" d="M139.2,170.6l8.4,3.8c0.2-2-0.9-4-2.8-4.9C142.8,168.6,140.6,169.1,139.2,170.6z"/>
						<g class="st15">
							<g>
								<path class="st29" d="M141.5,171c0.8-0.4,1.8-0.3,2.6,0c0.7,0.3,1.3-0.7,0.6-1c-1.2-0.5-2.5-0.6-3.8,0
									C140.2,170.3,140.8,171.4,141.5,171L141.5,171z"/>
							</g>
							<g>
								<path class="st29" d="M145.5,171.9c0.8,0,0.8-1.2,0-1.2C144.7,170.7,144.7,171.9,145.5,171.9L145.5,171.9z"/>
							</g>
						</g>
						<g class="st45">
							<path class="st46" d="M134.2,173.2c-0.1,0-0.1-0.1-0.2-0.1c-2-1.8-1.5-4-1.5-4.1c0.1-0.4,0.5-0.6,0.9-0.6
								c0.4,0.1,0.6,0.5,0.6,0.9c0,0.1-0.3,1.6,1.1,2.8c0.3,0.3,0.3,0.7,0.1,1C134.8,173.3,134.5,173.3,134.2,173.2z"/>
						</g>
						<g class="st45">
							<path class="st46" d="M149,179.9c0.1,0,0.1,0,0.2,0.1c2.6,0.3,4-1.5,4.1-1.6c0.2-0.3,0.2-0.8-0.1-1c-0.3-0.2-0.8-0.2-1,0.1
								c0,0.1-1,1.2-2.8,1c-0.4-0.1-0.8,0.2-0.8,0.6C148.5,179.5,148.7,179.8,149,179.9z"/>
						</g>
					</g>
				</g>
			</g>
			<g class="st15">
				<g>
					<path class="st29" d="M141.5,108.9c3.9-3.3,8.5-5.1,13.3-6.7c2.7-0.9,1.2-5.1-1.5-4.2c-5.1,1.7-10.2,3.7-14.4,7.2
						C136.8,107.1,139.3,110.8,141.5,108.9L141.5,108.9z"/>
				</g>
				<g>
					<path class="st29" d="M158.4,101.1c2.6,1.2,4.5-2.8,1.9-4C157.7,95.9,155.8,99.9,158.4,101.1L158.4,101.1z"/>
				</g>
				<g>
					<path class="st29" d="M163.6,100.7c2.6,1.2,4.5-2.8,1.9-4C162.9,95.5,161,99.5,163.6,100.7L163.6,100.7z"/>
				</g>
				<g>
					<path class="st29" d="M168.6,170.2c-3.8,2.3-7.8,4-11.9,5.5c-2.9,1.1-1.2,5.6,1.7,4.5c4.5-1.7,8.9-3.6,13-6.1
						C174.1,172.5,171.3,168.6,168.6,170.2L168.6,170.2z"/>
				</g>
				<g>
					<path class="st29" d="M174.8,170.9c2.8,1.3,4.8-3.1,2-4.4C174,165.2,172,169.6,174.8,170.9L174.8,170.9z"/>
				</g>
			</g>
			<g class="st15">
				<g>
					<path class="st29" d="M100.9,102.5c1.8,0.8,2.6,2.7,3.4,4.3c0.7,1.4,2.8,0.2,2.1-1.2c-1-2-2.2-4.2-4.3-5.2
						C100.7,99.8,99.5,101.8,100.9,102.5L100.9,102.5z"/>
				</g>
				<g>
					<path class="st29" d="M106.7,109.9c1.5,0,1.5-2.4,0-2.4C105.2,107.5,105.2,109.9,106.7,109.9L106.7,109.9z"/>
				</g>
				<g>
					<path class="st29" d="M109.7,100.8c1.2,1.5,2.3,3.1,2.9,4.9c0.5,1.4,2.9,0.8,2.3-0.6c-0.8-2-1.9-3.8-3.2-5.5
						C110.8,98.4,108.7,99.6,109.7,100.8L109.7,100.8z"/>
				</g>
				<g>
					<path class="st29" d="M94.9,109.8c1.3,0.5,2.4,1.2,3.2,2.4c0.8,1.3,2.9,0.1,2.1-1.2c-1.1-1.8-2.7-2.8-4.6-3.5
						c-0.6-0.2-1.3,0.3-1.5,0.8C93.9,109,94.3,109.6,94.9,109.8L94.9,109.8z"/>
				</g>
				<g>
					<path class="st29" d="M105.7,126c-1.5,9.1-0.3,18,2.2,26.8c0.6,2.2,4.1,1.3,3.5-1c-2.3-8.2-3.6-16.5-2.2-24.9
						C109.6,124.7,106.1,123.8,105.7,126L105.7,126z"/>
				</g>
				<g>
					<path class="st29" d="M111.5,159.2c2.3,0,2.3-3.6,0-3.6C109.2,155.6,109.2,159.2,111.5,159.2L111.5,159.2z"/>
				</g>
				<g>
					<path class="st29" d="M141.4,197.6c-0.2,3.2-0.5,6.3-1.4,9.3c-0.6,2.2,2.8,3.2,3.5,1c1-3.4,1.3-6.8,1.5-10.3
						C145.1,195.3,141.5,195.3,141.4,197.6L141.4,197.6z"/>
				</g>
				<g>
					<path class="st29" d="M142.9,195.1c2.3,0,2.3-3.6,0-3.6C140.6,191.5,140.6,195.1,142.9,195.1L142.9,195.1z"/>
				</g>
				<g>
					<path class="st29" d="M159.9,194.4c4.1,2,8.5,2.2,12.9,2.8c1.5,0.2,2.2-2.1,0.6-2.3c-4.2-0.6-8.5-0.7-12.4-2.5
						C159.7,191.7,158.5,193.7,159.9,194.4L159.9,194.4z"/>
				</g>
				<g>
					<path class="st29" d="M176.4,197.6c1.5,0,1.5-2.4,0-2.4C174.8,195.2,174.8,197.6,176.4,197.6L176.4,197.6z"/>
				</g>
				<g>
					<path class="st29" d="M179.8,197.6c1.5,0,1.5-2.4,0-2.4C178.3,195.2,178.3,197.6,179.8,197.6L179.8,197.6z"/>
				</g>
				<g>
					<path class="st29" d="M194.5,196.7c2.5,0.4,4.7,1.4,6.5,3.1c1.1,1.1,2.8-0.6,1.7-1.7c-2.1-2-4.7-3.3-7.5-3.8
						C193.6,194.2,193,196.5,194.5,196.7L194.5,196.7z"/>
				</g>
				<g>
					<path class="st29" d="M191.4,203.5c1.6,0.4,3,1.2,4.1,2.5c1,1.2,2.7-0.5,1.7-1.7c-1.3-1.5-3.1-2.6-5.1-3.1
						C190.5,200.9,189.9,203.2,191.4,203.5L191.4,203.5z"/>
				</g>
				<g>
					<path class="st29" d="M186.6,207.4c0.8,0.6,1.4,1.4,1.8,2.3c0.2,0.6,0.8,1,1.5,0.8c0.6-0.2,1.1-0.9,0.8-1.5
						c-0.5-1.3-1.3-2.5-2.4-3.4c-0.5-0.4-1.2-0.5-1.7,0C186.2,206.2,186.1,207,186.6,207.4L186.6,207.4z"/>
				</g>
			</g>
			<path class="st3" d="M138.6,125.9c0,1.9-1.6,3.5-3.5,3.5s-3.5-1.6-3.5-3.5c0-1.9,1.6-3.5,3.5-3.5S138.6,123.9,138.6,125.9z"/>
			<path class="st3" d="M138.9,129.4c0,1-0.8,1.8-1.8,1.8c-1,0-1.8-0.8-1.8-1.8c0-1,0.8-1.8,1.8-1.8
				C138.1,127.6,138.9,128.4,138.9,129.4z"/>
			<path class="st3" d="M183.2,145.6c0,2.6-2.1,4.7-4.7,4.7c-2.6,0-4.7-2.1-4.7-4.7c0-2.6,2.1-4.7,4.7-4.7
				C181.1,140.9,183.2,143,183.2,145.6z"/>
			<path class="st3" d="M183.6,150.4c0,1.3-1.1,2.4-2.4,2.4c-1.3,0-2.4-1.1-2.4-2.4c0-1.3,1.1-2.4,2.4-2.4
				C182.5,148,183.6,149.1,183.6,150.4z"/>
		</g>
		<g>
			<path class="st33" d="M126.3,189.6c0,0.6,0.5,1.1,1.1,1.1c0.6,0,1.1-0.5,1.1-1.1c0-0.6-0.5-1.1-1.1-1.1
				C126.7,188.6,126.3,189.1,126.3,189.6z"/>
			<path class="st43" d="M126.7,189.6c0,0.4,0.3,0.6,0.6,0.6c0.4,0,0.6-0.3,0.6-0.6c0-0.4-0.3-0.6-0.6-0.6
				C127,189,126.7,189.3,126.7,189.6z"/>
		</g>
		<g>
			<path class="st33" d="M138.8,195.7c0,0.6,0.5,1.1,1.1,1.1s1.1-0.5,1.1-1.1c0-0.6-0.5-1.1-1.1-1.1S138.8,195.2,138.8,195.7z"/>
			<path class="st43" d="M139.3,195.7c0,0.4,0.3,0.6,0.6,0.6c0.4,0,0.6-0.3,0.6-0.6c0-0.4-0.3-0.6-0.6-0.6
				C139.6,195.1,139.3,195.4,139.3,195.7z"/>
		</g>
	</g>
</g>
</svg>
