<?xml version="1.0" encoding="utf-8"?>
<!-- Generator: Adobe Illustrator 24.1.2, SVG Export Plug-In . SVG Version: 6.00 Build 0)  -->
<svg version="1.1" id="Layer_1" xmlns="http://www.w3.org/2000/svg" xmlns:xlink="http://www.w3.org/1999/xlink" x="0px" y="0px"
	 viewBox="0 0 600 160" style="enable-background:new 0 0 600 160;" xml:space="preserve">
<style type="text/css">
	.st0{fill:#FFFFFF;}
</style>
<g id="Capa_1">
	<path class="st0" d="M191.6,71.8v3.1c0,24.7,0,49.4,0,74.1c0,4.1,0,4.1-4.1,4.1c-10.8,0-21.6-0.1-32.5,0.1c-2.7,0-3.5-0.8-3.5-3.4
		c0.1-46.5,0.1-93,0-139.6c0-2.6,0.8-3.5,3.5-3.5c12.1,0.1,24.1,0.1,36.2,0c2.3,0,3.8,0.8,4.9,2.7c7.7,12.6,15.4,25.1,23.1,37.7
		c3.2,5.2,6.2,10.5,9.6,16.3c1.4-2.2,2.6-4,3.7-5.8c9.5-15.7,19.1-31.4,28.5-47.1c1.6-2.7,3.4-3.8,6.7-3.7c11.7,0.2,23.4,0.1,35,0.1
		c3.6,0,3.6,0,3.6,3.8c0,46.3,0,92.7,0.1,139c0,2.7-0.7,3.7-3.6,3.7c-11.1-0.1-22.2-0.1-33.3-0.1c-3.6,0-3.7-0.1-3.7-3.7
		c0-24.9,0-49.8,0-74.7c0-1,0-2.1-0.6-3.4c-0.6,0.8-1.2,1.5-1.7,2.3c-11,16.8-21.9,33.7-32.9,50.5c-1.8,2.8-2.3,2.8-4.1,0
		c-11-16.8-22-33.6-32.9-50.5c-0.5-0.7-1-1.4-1.4-2.1L191.6,71.8z"/>
	<path class="st0" d="M418.5,83.3v-3.7c0-22.9,0-45.8,0-68.6c0-4.2,0.1-4.2,4.1-4.2c10.8,0,21.6,0.1,32.5,0c2.6,0,3.5,0.8,3.5,3.5
		c-0.1,46.5-0.1,93.1,0,139.6c0,2.7-0.9,3.4-3.5,3.4c-9.7-0.1-19.3-0.1-29,0c-2.3,0-3.7-0.8-5.1-2.5c-19.3-24.9-38.7-49.7-58-74.5
		c-0.4-0.5-0.9-0.9-1.9-2c0,1.7,0,2.7,0,3.6c0,23.8,0.1,47.7,0.1,71.5c0,3.8-0.1,3.9-3.8,3.9c-10.9,0-21.8-0.1-32.7,0.1
		c-2.7,0-3.5-0.8-3.5-3.4c0.1-46.5,0.1-93.1,0-139.6c0-2.7,0.9-3.5,3.5-3.4c10.3,0.1,20.7,0.1,31,0c2.3,0,4,0.8,5.4,2.6
		c9.8,12.6,19.6,25.2,29.4,37.9c8.9,11.5,17.7,23.1,26.6,34.6C417.3,82.1,417.6,82.4,418.5,83.3z"/>
	<path class="st0" d="M2.7,107.5c0-14-0.1-27.9,0.1-41.9c0-1.8,0.6-3.9,1.6-5.3C16.5,43.4,28.8,26.6,40.9,9.7c1.6-2.2,3.3-3,6-3
		c12.5,0,25.1-0.1,37.4,2.8c21,4.9,38.1,15.3,48.5,34.8c6.8,12.8,9,26.8,8,41.1c-1.3,18.9-8.5,35.2-22.9,47.9
		c-10.4,9.3-23.4,15.3-37.2,17.4c-10.4,1.6-21.1,2.1-31.7,2.4c-14.3,0.4-28.7,0-43.1,0.1c-2.7,0-3.4-0.8-3.4-3.4
		C2.8,135.7,2.7,121.6,2.7,107.5L2.7,107.5z M43.2,79.8L43.2,79.8c0,11.3,0,22.6,0,33.9c0,1.7-0.1,3.4,2.4,3.3
		c7.9-0.3,15.9,0,23.8-1c9.5-1.2,17.7-5.4,23.6-13.4c6.1-8.2,6.9-17.6,6.4-27.3c-0.9-15.6-13.4-28.6-27.8-30.9
		c-7.9-1.3-16-1.1-24-1.4c-4.3-0.2-4.3-0.1-4.3,4.1C43.2,58,43.2,68.9,43.2,79.8z"/>
	<path class="st0" d="M472.8,42.6c1.9-2.7,3.4-4.7,4.9-6.8c6.4-8.6,12.8-17.2,19.1-25.9c1.6-2.2,3.3-3.2,6.2-3.2
		c30,0.1,59.9,0.1,89.9,0.1c4,0,4,0,4,3.9c0,9.5-0.1,19,0.1,28.4c0,2.6-0.8,3.5-3.5,3.5c-12.2-0.1-24.3,0-36.5-0.2
		c-2.8,0-3.8,0.7-3.8,3.7c0.1,34.6,0.1,69.1,0.2,103.7c0,2.6-0.8,3.3-3.3,3.3c-11.3-0.1-22.6-0.1-33.9,0c-2.8,0-3.6-0.8-3.6-3.6
		c0.1-34.3,0.1-68.5,0.1-102.8c0-4.1-0.1-4.2-4.1-4.2l-32.5,0L472.8,42.6z"/>
</g>
</svg>
