<?xml version="1.0" encoding="utf-8"?>
<!-- Generator: Adobe Illustrator 24.1.2, SVG Export Plug-In . SVG Version: 6.00 Build 0)  -->
<svg version="1.1" id="Layer_1" xmlns="http://www.w3.org/2000/svg" xmlns:xlink="http://www.w3.org/1999/xlink" x="0px" y="0px"
	 viewBox="0 0 100 26" style="enable-background:new 0 0 100 26;" xml:space="preserve">
<style type="text/css">
	.st0{fill:#FFFFFF;}
</style>
<g id="Capa_1">
	<path class="st0" d="M31.9,12.1v0.5c0,4.2,0,8.3,0,12.5c0,0.7,0,0.7-0.7,0.7c-1.8,0-3.6,0-5.4,0c-0.5,0-0.6-0.2-0.6-0.6
		c0-7.8,0-15.6,0-23.5c0-0.5,0.2-0.6,0.6-0.6c2,0,4.1,0,6.1,0c0.4,0,0.7,0.2,0.8,0.5c1.3,2.1,2.6,4.2,3.9,6.4c0.6,0.9,1,1.8,1.6,2.7
		c0.3-0.4,0.5-0.7,0.6-1c1.6-2.6,3.2-5.3,4.8-7.9c0.3-0.5,0.6-0.7,1.1-0.6c2,0.1,3.9,0,5.9,0c0.6,0,0.6,0,0.6,0.7
		c0,7.8,0,15.6,0,23.3c0,0.5-0.1,0.6-0.6,0.6c-1.9,0-3.7,0-5.6,0c-0.6,0-0.6,0-0.6-0.6c0-4.2,0-8.4,0-12.6c0-0.2,0-0.4-0.1-0.6
		c-0.1,0.2-0.2,0.3-0.3,0.4c-1.8,2.8-3.7,5.6-5.5,8.5c-0.3,0.5-0.4,0.5-0.7,0c-1.8-2.8-3.7-5.6-5.5-8.5C32.1,12.4,32,12.2,31.9,12.1
		L31.9,12.1z"/>
	<path class="st0" d="M70,14v-0.6c0-3.9,0-7.7,0-11.5c0-0.7,0-0.7,0.7-0.7c1.8,0,3.6,0,5.4,0c0.5,0,0.6,0.2,0.6,0.6
		c0,7.8,0,15.7,0,23.5c0,0.5-0.2,0.6-0.6,0.6c-1.6,0-3.3,0-4.9,0c-0.4,0-0.6-0.2-0.9-0.4c-3.3-4.2-6.5-8.3-9.8-12.5
		c-0.1-0.1-0.2-0.2-0.3-0.4c0,0.3,0,0.5,0,0.6c0,4,0,8,0,12c0,0.7,0,0.7-0.7,0.7c-1.8,0-3.7,0-5.5,0c-0.5,0-0.6-0.2-0.6-0.6
		c0-7.8,0-15.7,0-23.5c0-0.5,0.2-0.6,0.6-0.6c1.7,0,3.5,0,5.2,0c0.4,0,0.7,0.2,0.9,0.5C62,3.8,63.6,5.9,65.3,8
		c1.5,1.9,3,3.9,4.5,5.8C69.8,13.8,69.9,13.8,70,14z"/>
	<path class="st0" d="M0.1,18.1c0-2.3,0-4.7,0-7c0-0.3,0.1-0.7,0.3-0.9c2-2.8,4.1-5.6,6.2-8.5c0.3-0.4,0.6-0.5,1-0.5
		c2.1,0,4.2,0,6.3,0.5c3.5,0.8,6.4,2.6,8.1,5.8c1.1,2.1,1.5,4.5,1.3,6.9c-0.2,3.2-1.4,5.9-3.9,8c-1.7,1.6-3.9,2.6-6.3,2.9
		c-1.7,0.3-3.6,0.4-5.3,0.4c-2.4,0.1-4.8,0-7.2,0c-0.5,0-0.6-0.2-0.6-0.6C0.2,22.8,0.1,20.5,0.1,18.1L0.1,18.1z M7,13.4L7,13.4
		c0,1.9,0,3.8,0,5.7c0,0.3,0,0.6,0.4,0.6c1.3-0.1,2.7,0,4-0.2c1.6-0.2,3-0.9,4-2.2c1-1.4,1.2-3,1.1-4.6c-0.2-2.6-2.2-4.8-4.7-5.2
		c-1.3-0.2-2.7-0.2-4-0.3C7,7.2,7,7.3,7,8C7,9.8,7,11.6,7,13.4z"/>
	<path class="st0" d="M79.2,7.2c0.3-0.5,0.6-0.8,0.8-1.1c1.1-1.4,2.1-2.9,3.2-4.4c0.3-0.4,0.6-0.6,1-0.6c5,0,10.1,0,15.1,0
		c0.7,0,0.7,0,0.7,0.7c0,1.6,0,3.2,0,4.8c0,0.5-0.2,0.6-0.6,0.6c-2,0-4.1,0-6.2-0.1c-0.5,0-0.7,0.1-0.7,0.6c0,5.8,0,11.6,0.1,17.4
		c0,0.5-0.2,0.6-0.6,0.6c-1.9,0-3.8,0-5.7,0c-0.5,0-0.6-0.2-0.6-0.6c0-5.7,0-11.5,0-17.3c0-0.7,0-0.7-0.7-0.7h-5.4L79.2,7.2z"/>
</g>
</svg>
