<svg xmlns="http://www.w3.org/2000/svg" viewBox="0 0 2292.97 709.64"><defs><style>.cls-1{fill:#fff;}</style></defs><g id="Layer_2" data-name="Layer 2"><g id="Capa_1" data-name="Capa 1"><path class="cls-1" d="M727.78,250.87v11.9q0,142.67.08,285.33c0,15.9,0,15.89-15.94,15.88-41.66,0-83.32-.29-125,.22-10.26.13-13.4-3.17-13.39-13.26q.33-268.74,0-537.49c0-10,3.08-13.47,13.38-13.37,46.45.48,92.9.41,139.35,0,8.84-.07,14.47,2.95,19,10.34,29.52,48.45,59.34,96.71,88.85,145.17,12.23,20.08,23.92,40.49,37,62.61,5.48-8.53,10.08-15.39,14.37-22.45,36.73-60.41,73.61-120.74,109.91-181.41C1001.58,4,1008.63-.2,1021,0c45,.75,89.94.28,134.92.3,13.84,0,13.94.1,13.94,14.52q0,267.65.2,535.28c0,10.47-2.84,14.21-13.71,14.08-42.76-.53-85.53-.21-128.29-.22-13.94,0-14.33-.36-14.33-14.19q0-143.77,0-287.55c0-4,0-8-2.27-13.14-2.16,3-4.45,5.88-6.46,9q-63.39,97.2-126.72,194.45c-7.06,10.84-8.69,10.91-15.68.19q-63.42-97.18-126.85-194.38c-1.78-2.72-3.71-5.35-5.57-8Z"/><path class="cls-1" d="M1601.38,295.26V281q-.08-132.17-.14-264.34c0-16.06.3-16.34,15.82-16.34,41.66,0,83.32.28,125-.18,10.18-.11,13.52,3.22,13.51,13.33q-.32,268.76,0,537.52c0,10.3-3.59,13.22-13.62,13.08-37.23-.52-74.47-.44-111.7,0-8.72.09-14.34-3.11-19.54-9.8q-111.56-143.66-223.46-287c-1.51-1.95-3.36-3.63-7.16-7.69,0,6.44,0,10.25,0,14q.23,137.7.46,275.38c0,14.76-.21,15-14.72,15-42,0-84.06-.3-126.08.23-10.29.13-13.44-3.27-13.43-13.27q.29-268.75,0-537.52c0-10.22,3.65-13.31,13.67-13.19,39.81.46,79.63.38,119.44.06,9-.07,15.42,3,20.82,10,37.68,48.67,75.62,97.14,113.25,145.84,34.22,44.28,68.16,88.77,102.25,133.15C1596.71,290.52,1598,291.66,1601.38,295.26Z"/><path class="cls-1" d="M.14,388.41c0-53.8-.22-107.6.27-161.39.06-6.86,2.15-14.88,6.08-20.36,46.77-65.22,94.2-129.95,141-195.11C153.61,3.11,160.19.11,170.47.13c48.29.09,96.52-.29,144,10.75,80.84,18.79,146.84,59.06,186.85,133.84,26.3,49.15,34.67,103.08,30.81,158.43C527.05,376,499.39,438.7,444,487.46a279,279,0,0,1-143.12,67.1c-40.18,6.24-81.25,8-122,9.07-55.23,1.44-110.53,0-165.79.5-10.41.08-13.11-3.24-13-13.24.41-54.16.2-108.32.2-162.48ZM156.19,281.67h0q0,65.25,0,130.49c0,6.49-.37,12.91,9.28,12.53,30.52-1.22,61.32,0,91.5-3.86,36.44-4.61,68-20.94,90.72-51.42,23.54-31.54,26.69-67.6,24.46-105.19-3.55-59.91-51.64-110.13-106.9-119-30.33-4.85-61.56-4.22-92.41-5.55-16.61-.72-16.61-.24-16.6,15.89Q156.2,218.63,156.19,281.67Z"/><path class="cls-1" d="M1810.5,138.22c7.46-10.29,13.16-18.23,19-26.09,24.5-33.21,49.21-66.27,73.43-99.68C1909,4,1915.75.11,1926.71.15c115.36.4,230.73.24,346.1.24,15.56,0,15.55,0,15.56,15.18,0,36.49-.28,73,.22,109.46.13,10.13-3,13.59-13.29,13.48-46.81-.5-93.62-.08-140.43-.65-10.78-.13-14.58,2.63-14.54,14.15.45,133.06.26,266.11.63,399.17,0,9.89-3,12.71-12.6,12.63-43.49-.38-87-.46-130.47.08-10.71.13-13.84-3.27-13.81-13.85q.6-197.94.49-395.86c0-15.93-.26-16.17-15.92-16.15l-125,.19Z"/><path class="cls-1" d="M612.42,630.27c24.44,0,38.79,13.28,38.79,37.44S636.8,706,612.42,706H579.57V630.27Zm-12.28,60.22h9.59c13.39,0,20.57-7.61,20.57-22.73,0-14.23-7.57-22-20.57-22h-9.59Z"/><path class="cls-1" d="M612.42,708.39H577.23V627.92h35.19c26.14,0,41.13,14.5,41.13,39.78C653.55,693.18,638.18,708.39,612.42,708.39Zm-30.5-4.7h30.5c23.16,0,36.44-13.12,36.44-36,0-22.62-12.94-35.08-36.44-35.08h-30.5Zm27.81-10.85H597.8V643.46h11.93c14.56,0,22.92,8.86,22.92,24.3C632.65,683.93,624.51,692.84,609.73,692.84Zm-7.24-4.69h7.24c12.26,0,18.22-6.67,18.22-20.39,0-12.82-6.3-19.6-18.22-19.6h-7.24Z"/><path class="cls-1" d="M725.22,706H669.78V630.27h55.44v15.54H690.35v15.07h32.79v14.18H690.35v15.43h34.87Z"/><path class="cls-1" d="M727.56,708.39H667.43V627.92h60.13v20.24H692.7v10.37h32.79V677.4H692.7v10.75h34.86Zm-55.43-4.7h50.74V692.84H688V672.71h32.78v-9.48H688V643.46h34.86V632.62H672.13Z"/><path class="cls-1" d="M816.1,706V658.73h-.39l-20,46.52H783.92L764,658.73h-.45V706h-18.1V630.27h23.76l20.41,48.67H790l20.4-48.67H834.2V706Z"/><path class="cls-1" d="M836.55,708.39h-22.8V669.21L797.24,707.6H782.38l-16.51-38.49v39.28h-22.8V627.92h27.67l19.07,45.49,19.06-45.49h27.68Zm-18.1-4.7h13.41V632.62H812l-20.4,48.67h-3.13l-1.05-1.44-19.8-47.23H747.77v71.07h13.41V656.38h3.89l1.06,1.42,19.34,45.1h8.68l20-46.52h3.89l.4,2.35Z"/><path class="cls-1" d="M910.45,706H855V630.27h55.43v15.54H875.59v15.07h32.79v14.18H875.59v15.43h34.86Z"/><path class="cls-1" d="M912.8,708.39H852.67V627.92H912.8v20.24H877.94v10.37h32.79V677.4H877.94v10.75H912.8Zm-55.43-4.7H908.1V692.84H873.24V672.71H906v-9.48H873.24V643.46H908.1V632.62H857.37Z"/><path class="cls-1" d="M930.66,706V630.27h16.42l34.3,44.05h.45V630.27h19.51V706H985.08l-34.47-44.48h-.45V706Z"/><path class="cls-1" d="M1003.68,708.39H983.93l-31.42-40.54v40.54h-24.2V627.92h19.91l31.26,40.14V627.92h24.2Zm-17.45-4.7H999V632.62H984.18v44h-3.5l-1.15-.91-33.6-43.14H933v71.07h14.82V659.22h3.49l1.15.91Z"/><path class="cls-1" d="M1040.93,706V645.81h-22.31V630.27h65.13v15.54h-22.31V706Z"/><path class="cls-1" d="M1063.79,708.39h-25.21V648.16h-22.31V627.92h69.83v20.24h-22.31Zm-20.51-4.7h15.81V643.46h22.31V632.62H1021v10.84h22.31Z"/><path class="cls-1" d="M1156.47,706H1101V630.27h55.43v15.54h-34.86v15.07h32.79v14.18h-32.79v15.43h34.86Z"/><path class="cls-1" d="M1158.82,708.39h-60.13V627.92h60.13v20.24H1124v10.37h32.79V677.4H1124v10.75h34.86Zm-55.43-4.7h50.73V692.84h-34.86V672.71h32.79v-9.48h-32.79V643.46h34.86V632.62h-50.73Z"/><path class="cls-1" d="M1207.42,668.12c0-23.78,14.29-39.11,36.43-39.11,17.6,0,31,10,33.58,25.15h-10.2c-2.58-9.93-11.83-16.44-23.38-16.44-15.81,0-26.06,12-26.06,30.4,0,18.59,10.14,30.46,26.12,30.46,11.88,0,20.4-5.35,23.32-14.6h10.2c-3.7,15-15.7,23.32-33.58,23.32C1221.54,707.3,1207.42,692.12,1207.42,668.12Z"/><path class="cls-1" d="M1243.85,709.64c-23.56,0-38.78-16.29-38.78-41.52s15.22-41.46,38.78-41.46c18.7,0,33.12,10.89,35.89,27.1l.47,2.75h-14.8l-.46-1.76c-2.31-8.92-10.6-14.68-21.1-14.68-14.41,0-23.72,11-23.72,28,0,17.34,9.11,28.11,23.78,28.11,10.8,0,18.48-4.72,21.08-13l.52-1.64h14.92l-.72,2.91C1275.76,700.5,1262.69,709.64,1243.85,709.64Zm0-78.28c-20.7,0-34.08,14.43-34.08,36.76,0,22.72,13.06,36.83,34.08,36.83,15.54,0,26.23-6.58,30.44-18.62h-5.41c-3.69,9.31-12.69,14.6-25,14.6-17.29,0-28.47-12.88-28.47-32.81,0-19.58,11.41-32.74,28.41-32.74,12,0,21.68,6.39,25.12,16.43h5.53C1271,639.46,1259.08,631.36,1243.85,631.36Z"/><path class="cls-1" d="M1308,706h-10.09V630.27h30.32c15.58,0,25.78,8.92,25.78,22.58,0,10.55-6.11,18.74-16.25,21.74L1356.48,706h-11.83l-17.32-30H1308Zm0-38.33h19.33c10.37,0,16.26-5.26,16.26-14.55,0-9.08-6.28-14.49-16.7-14.49H1308Z"/><path class="cls-1" d="M1360.61,708.39h-17.32l-17.31-30h-15.63v30h-14.79V627.92h32.67c16.83,0,28.13,10,28.13,24.93,0,10.52-5.72,19.09-15.12,23Zm-14.6-4.7h6.34l-18.16-30.5,2.9-.85c9.13-2.7,14.58-10,14.58-19.49,0-12.29-9.21-20.23-23.44-20.23h-28v71.07h5.4v-30h23Zm-18.67-33.64h-21.69V636.32h21.24c11.75,0,19,6.45,19,16.84C1345.94,663.74,1339,670.05,1327.34,670.05Zm-17-4.69h17c6.34,0,13.9-2.12,13.9-12.2,0-7.72-5.23-12.14-14.35-12.14h-16.54Z"/><path class="cls-1" d="M1425.39,706h-50.11V630.27h50.11v8.51h-40v24.31h38v8.4h-38v26h40Z"/><path class="cls-1" d="M1427.74,708.39h-54.81V627.92h54.81v13.2h-40v19.62h37.94v13.09h-37.94v21.35h40Zm-50.11-4.7H1423v-3.81h-40V669.14H1421v-3.71H1383v-29h40v-3.81h-45.41Z"/><path class="cls-1" d="M1491.72,684.35h-32.17L1451.42,706h-10.59l29.82-75.77h10L1510.44,706h-10.59Zm-29.2-8h26.23l-12.94-34.55h-.34Z"/><path class="cls-1" d="M1513.89,708.39h-15.67l-8.13-21.69h-28.91l-8.13,21.69h-15.67l31.67-80.47h13.18Zm-12.41-4.7H1507l-28-71.07h-6.78l-28,71.07h5.52l8.12-21.69h35.43Zm-9.34-25h-33l14.71-39.24h3.26l.9,1.52ZM1465.91,674h19.46l-9.73-26Z"/><path class="cls-1" d="M1537.54,706V638.78H1512v-8.51h61.1v8.51h-25.51V706Z"/><path class="cls-1" d="M1550,708.39h-14.79V641.12h-25.5v-13.2h65.79v13.2H1550Zm-10.09-4.7h5.39V636.43h25.51v-3.81h-56.41v3.81h25.51Z"/><path class="cls-1" d="M1592.38,706V630.27h10.09V706Z"/><path class="cls-1" d="M1604.82,708.39H1590V627.92h14.79Zm-10.09-4.7h5.4V632.62h-5.4Z"/><path class="cls-1" d="M1650.15,706l-29.82-75.77h10.59l24,64.27h.33l24-64.27h10.59L1660.12,706Z"/><path class="cls-1" d="M1661.72,708.39h-13.18l-31.66-80.47h15.67l22.58,60.37,22.59-60.37h15.67Zm-10-4.7h6.78l28-71.07H1681l-24,64.26h-3.26l-.9-1.52-23.48-62.74h-5.52Z"/><path class="cls-1" d="M1745,684.35h-32.17L1704.65,706h-10.59l29.82-75.77h10L1763.67,706h-10.59Zm-29.2-8H1742l-13-34.55h-.33Z"/><path class="cls-1" d="M1767.12,708.39h-15.67l-8.12-21.69h-28.92l-8.13,21.69h-15.67l31.67-80.47h13.17Zm-12.41-4.7h5.51l-28-71.07h-6.77l-28,71.07H1703l8.13-21.69h35.43Zm-9.34-25h-33l14.71-39.24h3.25l.91,1.52ZM1719.14,674h19.45l-9.72-26Z"/><path class="cls-1" d="M1858.11,684.35h-32.17L1817.81,706h-10.59L1837,630.27h10L1876.83,706h-10.59Zm-29.2-8h26.23l-13-34.55h-.33Z"/><path class="cls-1" d="M1880.28,708.39h-15.66l-8.14-21.69h-28.92l-8.12,21.69h-15.67l31.67-80.47h13.17Zm-12.41-4.7h5.52l-28-71.07h-6.77l-28,71.07h5.51l8.13-21.69h35.43Zm-9.34-25h-33l14.71-39.24h3.25l.91,1.52ZM1832.3,674h19.46L1842,648Z"/><path class="cls-1" d="M1926.35,707.3c-22.59,0-37-15.44-37-39.54,0-23.68,14.41-38.75,37-38.75,17.49,0,30.77,9.71,33.8,24.78h-10.59c-3.36-10.24-11.83-16.07-23.21-16.07-16.65,0-26.68,11.24-26.68,30,0,19.06,10.2,30.87,26.68,30.87,14.35,0,24.22-8.71,24.22-21.42v-1.37h-22.82V667.5h32.91v7.19C1960.66,695.17,1947.93,707.3,1926.35,707.3Z"/><path class="cls-1" d="M1926.35,709.64c-23.93,0-39.4-16.44-39.4-41.88,0-25,15.47-41.1,39.4-41.1,18.68,0,32.85,10.47,36.1,26.67l.57,2.81h-15.16l-.53-1.62c-3-9.18-10.66-14.45-21-14.45-15.46,0-24.33,10.07-24.33,27.63,0,17.87,9.09,28.53,24.33,28.53,12.71,0,21.36-7.22,21.85-18.09h-22.8v-13H1963v9.54C1963,696.58,1949.3,709.64,1926.35,709.64Zm0-78.28c-21.4,0-34.7,13.94-34.7,36.4,0,22.94,13.3,37.19,34.7,37.19,20.31,0,32-11,32-30.26v-4.85H1930.1v3.61h22.82v3.71c0,14-10.93,23.77-26.57,23.77-17.9,0-29-12.73-29-33.23,0-19.93,11.13-32.32,29-32.32,11.87,0,20.83,5.83,24.86,16.06h5.92C1953.33,639.15,1941.56,631.36,1926.35,631.36Z"/><path class="cls-1" d="M2032.25,706h-50.1V630.27h50.1v8.51h-40v24.31h38v8.4h-38v26h40Z"/><path class="cls-1" d="M2034.6,708.39h-54.8V627.92h54.8v13.2h-40v19.62h38v13.09h-38v21.35h40Zm-50.11-4.7h45.42v-3.81h-40V669.14h37.94v-3.71h-37.94v-29h40v-3.81h-45.42Z"/><path class="cls-1" d="M2054.14,706V630.27H2064l44.28,59.49h.5V630.27h10V706h-9.81l-44.28-59.29h-.5V706Z"/><path class="cls-1" d="M2121.06,708.39h-13.34l-41.26-55.24v55.24h-14.67V627.92h13.34l41.26,55.44V627.92h14.67Zm-11-4.7h6.28V632.62h-5.28v59.49h-4l-44.28-59.49h-6.28v71.07h5.28V644.41h4Z"/><path class="cls-1" d="M2139.86,668.12c0-23.78,14.3-39.11,36.44-39.11,17.6,0,31,10,33.57,25.15h-10.2c-2.58-9.93-11.83-16.44-23.37-16.44-15.81,0-26.07,12-26.07,30.4,0,18.59,10.15,30.46,26.12,30.46,11.89,0,20.41-5.35,23.32-14.6h10.2c-3.7,15-15.69,23.32-33.57,23.32C2154,707.3,2139.86,692.12,2139.86,668.12Z"/><path class="cls-1" d="M2176.3,709.64c-23.56,0-38.78-16.29-38.78-41.52s15.22-41.46,38.78-41.46c18.7,0,33.12,10.89,35.89,27.11l.46,2.74h-14.8l-.45-1.76c-2.32-8.92-10.6-14.68-21.1-14.68-14.41,0-23.72,11-23.72,28,0,17.34,9.11,28.11,23.77,28.11,10.8,0,18.49-4.72,21.08-13l.52-1.64h14.92l-.72,2.91C2208.21,700.5,2195.14,709.64,2176.3,709.64Zm0-78.28c-20.71,0-34.09,14.43-34.09,36.76,0,22.72,13.06,36.83,34.09,36.83,15.53,0,26.23-6.58,30.43-18.62h-5.4c-3.7,9.3-12.69,14.6-25,14.6-17.29,0-28.46-12.88-28.46-32.81,0-19.58,11.41-32.74,28.41-32.74,12,0,21.67,6.39,25.11,16.43h5.53C2203.48,639.46,2191.53,631.36,2176.3,631.36Z"/><path class="cls-1" d="M2249.8,706V673.43l-28.69-43.16h11.48l22.09,34h.34l22.08-34h11.49l-28.7,43.16V706Z"/><path class="cls-1" d="M2262.24,708.39h-14.78V674.14l-30.74-46.22h17.15l21,32.32,21-32.32H2293l-30.73,46.22Zm-10.09-4.7h5.4v-31l26.66-40.1h-5.84l-22.08,34h-2.55l-1-1.07-21.39-33h-5.84l26.67,40.1Z"/></g></g></svg>