<?xml version="1.0" encoding="utf-8"?>
<!-- Generator: Adobe Illustrator 24.1.2, SVG Export Plug-In . SVG Version: 6.00 Build 0)  -->
<svg version="1.1" xmlns="http://www.w3.org/2000/svg" xmlns:xlink="http://www.w3.org/1999/xlink" x="0px" y="0px"
	 viewBox="0 0 2600 2100" style="enable-background:new 0 0 2600 2100;" xml:space="preserve">
<style type="text/css">
	.st0{clip-path:url(#SVGID_2_);}
	.st1{fill:#F0F2F5;}
	.st2{fill:#E1E6EB;}
	.st3{fill:#08C7D1;}
	.st4{fill:#9665FD;}
	.st5{fill:#1B1A2E;}
	.st6{fill:#FFC89F;}
	.st7{fill:#FF9A6C;}
	.st8{fill:#E43F5A;}
	.st9{fill:#FFFFFF;}
	.st10{fill:#1F4068;}
	.st11{fill:#F9A21B;}
	.st12{opacity:0.4;}
	.st13{fill:#A65B3C;}
	.st14{fill:#1F4168;}
	.st15{fill:#70229A;}
</style>
<g id="BACK">
	<g>
		<defs>
			<rect id="SVGID_1_" width="2600" height="2100"/>
		</defs>
		<clipPath id="SVGID_2_">
			<use xlink:href="#SVGID_1_"  style="overflow:visible;"/>
		</clipPath>
		<g class="st0">
			<g>
				<g>
					<g>
						<path class="st1" d="M2276.7,1207.7c-46.4-231.9-214.7-551.5-278.4-667c-15.4-28-38.2-51.2-65.9-67.3
							c-115.7-67-189.4-121.4-219.3-145.2c-7.8-6.2-18-8.3-27.6-5.8l-11.3-4.4c-16-6.2-34.1-0.8-44.1,13.1l-17.4,24.3
							c-41.9,30.2-69.2,63.1-83.4,83c-7.2,10.1-5.9,23.9,3.1,32.5l16.5,15.6l5.1,13.8c2.1,5.5,5.8,10.3,10.7,13.6l16.3,11
							c-10.4,4.8-19.1,12.5-24,18.6c-15.8,19.2-3.1,48.3,21.7,50.6l16.3,1.5l13.3,5.5c8.9,3.6,19.2,0.3,23.8-8.1
							c8.6-15.5,3.8-30.2,3.8-30.2l14.6-1.6l4.1,6.2c2.5,3.8,6.3,6.5,10.7,7.7l55.7,14.6c5.7,1.5,11.6,2,17.5,1.5l77-7.1
							c4.8-0.4,9.7,0,14.3,1.3c7.8,2.2,14.7,6.8,19.7,13.1c110.3,138.6,113.1,483.7,112,483.4c-15.1-51.5-62.6-89.1-119-89.1
							c-23.2,0-44.9,6.4-63.4,17.4c-21.2-68.6-85.1-118.5-160.7-118.5c-42,0-80.4,15.4-109.9,40.9c0,0,0,0,0,0c0,0,0,0,0,0
							c-2.1,1.8-4.2,3.7-6.2,5.7c-147.3,136.8-97.5,328.8-97.5,328.8c406.6,148.9,792.4,69.9,792.4,69.9
							C2324.6,1325.7,2276.7,1207.7,2276.7,1207.7z"/>
					</g>
					<g>
						<path class="st2" d="M1550.5,483.1c5-11,10.9-21.6,17.1-32c1.6-2.6,3.1-5.2,4.8-7.7c1.6-2.5,3.2-5.1,4.9-7.6l5.1-7.5l5.2-7.4
							c7.2-9.8,14.5-19.4,22.4-28.6c3.9-4.7,8-9.1,12-13.6c2-2.3,4.2-4.4,6.2-6.6l6.3-6.5c-8.2,8.9-16.3,17.9-24,27.2
							c-7.8,9.3-15.1,18.9-22.2,28.7c-7.1,9.8-13.8,19.9-20.2,30.1c-3.2,5.1-6.3,10.3-9.3,15.6
							C1556,472.4,1553.2,477.7,1550.5,483.1z"/>
					</g>
					<g>
						<path class="st2" d="M1652.4,412.2l-5.1,10c-1.6,3.3-3.3,6.7-4.9,10c-3.3,6.7-6.5,13.4-9.6,20.2c-6.2,13.5-12.2,27.2-17.8,41
							c-2.8,6.9-5.5,13.8-8.1,20.8c-1.3,3.5-2.6,7-3.8,10.5c-0.6,1.7-0.9,3.5-1.1,5.4c-0.2,1.8-0.2,3.7,0,5.5
							c0.2,1.8,0.6,3.6,1.1,5.4c0.6,1.7,1.3,3.4,2.2,5.1c0.9,1.6,2,3.1,3.2,4.5c1.2,1.4,2.4,2.8,3.8,4.1c2.7,2.5,5.9,4.6,9.3,6
							c3.4,1.4,7.2,2,10.9,1.8c-3.7,0.4-7.5-0.2-11-1.5c-3.5-1.3-6.8-3.3-9.6-5.8c-1.4-1.2-2.7-2.7-3.9-4.1
							c-1.2-1.4-2.4-2.9-3.3-4.6c-0.9-1.6-1.7-3.4-2.3-5.2c-0.6-1.8-1-3.7-1.2-5.5c-0.4-3.8-0.1-7.6,1.1-11.2
							c1.2-3.6,2.5-7,3.8-10.6c2.6-7,5.3-14,8.1-20.9c5.7-13.8,11.6-27.5,18-41c3.2-6.7,6.5-13.4,9.8-20.1c1.7-3.3,3.4-6.6,5.2-9.9
							L1652.4,412.2z"/>
					</g>
					<g>
						<path class="st2" d="M1648.3,549.2c1.3-7.4,3.1-14.7,5-22c1.9-7.3,4.1-14.5,6.4-21.6c2.4-7.1,4.9-14.2,7.8-21.2
							c2.8-7,5.9-13.8,9.3-20.5c-1.4,3.5-3,6.9-4.4,10.4l-2.1,5.2l-2,5.3c-1.4,3.5-2.6,7-3.9,10.6c-1.2,3.5-2.5,7.1-3.6,10.7
							c-2.4,7.1-4.6,14.3-6.6,21.5c-1,3.6-2,7.2-3,10.9C1650.1,541.9,1649.2,545.5,1648.3,549.2z"/>
					</g>
					<g>
						<path class="st2" d="M1694.4,568.1c3.6-1.6,7-3.5,10.3-5.6c3.3-2,6.5-4.2,9.6-6.6c6.2-4.7,11.9-10,17-15.9
							c2.5-2.9,4.9-6,7.1-9.2c2.2-3.2,4.2-6.6,6-10c1.8-3.5,3.4-7,4.7-10.7c1.4-3.6,2.5-7.4,3.5-11.2c-1.5,7.7-4,15.2-7.5,22.2
							c-1.7,3.5-3.8,6.9-5.9,10.2c-2.2,3.2-4.6,6.4-7.1,9.3c-5.2,5.9-11,11.2-17.3,15.8C1708.4,561.2,1701.7,565.2,1694.4,568.1z"/>
					</g>
					<g>
						<path class="st2" d="M1749.4,540.2c0.2,4.8,0,9.7-0.5,14.5c-0.5,4.8-1.4,9.6-2.5,14.3c-0.6,2.3-1.3,4.7-2.1,7
							c-0.8,2.3-2,4.6-3.6,6.4c-0.8,0.9-1.8,1.7-2.8,2.4c-1,0.7-2.2,1.1-3.3,1.6c-2.3,0.8-4.6,1.6-6.9,2.3c2.2-0.9,4.5-1.8,6.7-2.7
							c1.1-0.5,2.2-1,3.2-1.6c1-0.7,1.8-1.5,2.6-2.4c1.5-1.8,2.6-3.9,3.3-6.2c0.7-2.3,1.4-4.6,2-6.9c1.2-4.6,2.1-9.4,2.7-14.2
							c0.3-2.4,0.6-4.8,0.8-7.2C1749.2,545,1749.3,542.6,1749.4,540.2z"/>
					</g>
					<g>
						<path class="st2" d="M1741.8,526.6c3.3,4.7,7,9.1,11,13.3c4,4.2,8.2,8.1,12.6,11.8c8.8,7.3,18.4,13.8,28.6,19
							c1.3,0.7,2.5,1.3,3.8,1.9c1.3,0.6,2.6,1.3,3.9,1.9c2.6,1.2,5.2,2.3,7.9,3.4c2.7,1.1,5.4,2,8.1,3c1.4,0.5,2.7,0.9,4.1,1.3
							c1.4,0.4,2.7,0.9,4.1,1.2c11.1,3.1,22.4,5.1,33.9,6.2c-2.9-0.2-5.7-0.4-8.6-0.7l-4.3-0.5l-2.1-0.3l-2.1-0.3l-4.3-0.7
							c-1.4-0.2-2.8-0.6-4.2-0.9c-2.8-0.5-5.6-1.3-8.4-2c-5.6-1.5-11.1-3.3-16.4-5.4c-5.4-2.1-10.7-4.5-15.8-7.1
							c-2.6-1.3-5.1-2.8-7.6-4.2c-2.5-1.5-4.9-3-7.3-4.7c-4.8-3.2-9.4-6.7-13.8-10.5C1756.1,544.7,1748.1,536.3,1741.8,526.6z"/>
					</g>
					<g>
						<path class="st2" d="M1870.8,588.5c4.3-1.6,8.4-3.8,12.4-6.1c3.9-2.4,7.7-5,11.2-8c3.5-2.9,6.9-6.1,10-9.5
							c3.2-3.4,5.9-7.1,8.6-10.8c-0.6,1-1.2,2-1.8,3c-0.6,1-1.2,2-1.9,2.9c-1.4,1.9-2.7,3.8-4.3,5.5c-3,3.6-6.4,6.8-9.9,9.8
							c-3.6,3-7.5,5.6-11.5,7.9c-2,1.1-4.1,2.2-6.2,3.1C1875.2,587.1,1873,587.9,1870.8,588.5z"/>
					</g>
					<g>
						<path class="st2" d="M1961.4,1081.2c1.5,7.3,3.7,14.4,6.2,21.5c2.5,7,5.3,13.9,8.4,20.7c6.3,13.5,13.9,26.4,22.8,38.3
							c4.5,5.9,9.3,11.7,14.4,17.1c1.3,1.4,2.6,2.6,3.9,4l2,2l2.1,1.9c1.4,1.2,2.7,2.5,4.1,3.8l4.3,3.6c1.4,1.2,2.9,2.3,4.4,3.5
							c1.5,1.1,2.9,2.3,4.5,3.3c3.1,2.1,6.1,4.3,9.3,6.2c6.3,4.1,12.9,7.4,19.6,10.7c-13.6-6-26.6-13.7-38.3-23.1l-4.3-3.6
							c-1.4-1.2-2.8-2.5-4.2-3.7l-2.1-1.9l-2-2c-1.3-1.3-2.7-2.6-4-4c-5.2-5.4-10-11.1-14.5-17.1c-8.9-12-16.5-25-22.7-38.6
							C1969.2,1110.1,1964.3,1095.9,1961.4,1081.2z"/>
					</g>
					<g>
						<path class="st2" d="M1581,524.9c3.8,2,7.4,4.3,11,6.8c3.5,2.4,7,5,10.3,7.8c-3.8-2.1-7.3-4.5-10.9-6.9
							C1587.9,530,1584.4,527.5,1581,524.9z"/>
					</g>
				</g>
			</g>
			<g>
				<g>
					<g>
						<path class="st1" d="M323.3,1207.7c46.4-231.9,214.7-551.5,278.4-667c15.4-28,38.2-51.2,65.9-67.3
							c115.7-67,189.4-121.4,219.3-145.2c7.8-6.2,18-8.3,27.6-5.8l11.3-4.4c16-6.2,34.1-0.8,44.1,13.1l17.4,24.3
							c41.9,30.2,69.2,63.1,83.4,83c7.2,10.1,5.9,23.9-3.1,32.5l-16.5,15.6l-5.1,13.8c-2.1,5.5-5.8,10.3-10.7,13.6l-16.3,11
							c10.4,4.8,19.1,12.5,24,18.6c15.8,19.2,3.1,48.3-21.7,50.6l-16.3,1.5l-13.3,5.5c-8.9,3.6-19.2,0.3-23.8-8.1
							c-8.6-15.5-3.8-30.2-3.8-30.2l-14.6-1.6l-4.1,6.2c-2.5,3.8-6.3,6.5-10.7,7.7l-55.7,14.6c-5.7,1.5-11.6,2-17.5,1.5l-77-7.1
							c-4.8-0.4-9.7,0-14.3,1.3c-7.8,2.2-14.7,6.8-19.7,13.1C640,736.9,637.2,1082,638.4,1081.7c15.1-51.5,62.6-89.1,119-89.1
							c23.2,0,44.9,6.4,63.4,17.4c21.2-68.6,85.1-118.5,160.7-118.5c42,0,80.4,15.4,109.9,40.9c0,0,0,0,0,0c0,0,0,0,0,0
							c2.1,1.8,4.2,3.7,6.2,5.7c147.3,136.8,97.5,328.8,97.5,328.8c-406.6,148.9-792.4,69.9-792.4,69.9
							C275.4,1325.7,323.3,1207.7,323.3,1207.7z"/>
					</g>
					<g>
						<path class="st2" d="M1049.5,483.1c-2.7-5.4-5.6-10.7-8.6-16c-3-5.2-6.1-10.5-9.3-15.6c-6.4-10.2-13-20.4-20.2-30.1
							c-7.1-9.8-14.4-19.4-22.2-28.7c-7.6-9.4-15.8-18.3-24-27.2l6.3,6.5c2.1,2.2,4.2,4.3,6.2,6.6c4,4.5,8.1,9,12,13.6
							c7.9,9.2,15.2,18.8,22.4,28.6l5.2,7.4l5.1,7.5c1.7,2.5,3.3,5.1,4.9,7.6c1.7,2.5,3.2,5.1,4.8,7.7
							C1038.6,461.5,1044.5,472.1,1049.5,483.1z"/>
					</g>
					<g>
						<path class="st2" d="M947.6,412.2l5.3,9.9c1.7,3.3,3.5,6.6,5.2,9.9c3.4,6.7,6.7,13.3,9.8,20.1c6.4,13.5,12.3,27.2,18,41
							c2.8,6.9,5.5,13.9,8.1,20.9c1.3,3.5,2.6,7,3.8,10.6c1.2,3.6,1.5,7.5,1.1,11.2c-0.2,1.9-0.6,3.7-1.2,5.5
							c-0.6,1.8-1.4,3.5-2.3,5.2c-0.9,1.6-2.1,3.1-3.3,4.6c-1.2,1.4-2.5,2.8-3.9,4.1c-2.8,2.5-6.1,4.5-9.6,5.8
							c-3.5,1.3-7.3,1.9-11,1.5c3.7,0.3,7.5-0.4,10.9-1.8c3.4-1.4,6.6-3.4,9.3-6c1.4-1.3,2.6-2.6,3.8-4.1c1.2-1.4,2.3-2.9,3.2-4.5
							c0.9-1.6,1.6-3.3,2.2-5.1c0.5-1.8,0.9-3.6,1.1-5.4c0.2-1.8,0.2-3.7,0-5.5c-0.2-1.8-0.6-3.6-1.1-5.4c-1.2-3.5-2.5-7-3.8-10.5
							c-2.6-7-5.3-13.9-8.1-20.8c-5.6-13.8-11.5-27.5-17.8-41c-3.1-6.8-6.3-13.5-9.6-20.2c-1.6-3.4-3.3-6.7-4.9-10L947.6,412.2z"/>
					</g>
					<g>
						<path class="st2" d="M951.7,549.2c-0.9-3.7-1.8-7.3-2.8-10.9c-1-3.6-1.9-7.3-3-10.9c-2.1-7.2-4.2-14.4-6.6-21.5
							c-1.1-3.6-2.4-7.1-3.6-10.7c-1.3-3.5-2.6-7.1-3.9-10.6l-2-5.3l-2.1-5.2c-1.4-3.5-3-6.9-4.4-10.4c3.3,6.7,6.5,13.6,9.3,20.5
							c2.8,7,5.4,14,7.8,21.2c2.3,7.2,4.5,14.3,6.4,21.6C948.6,534.4,950.4,541.8,951.7,549.2z"/>
					</g>
					<g>
						<path class="st2" d="M905.6,568.1c-7.3-2.9-14-6.9-20.4-11.5c-6.3-4.6-12.1-10-17.3-15.8c-2.6-3-4.9-6.1-7.1-9.3
							c-2.1-3.3-4.2-6.6-5.9-10.2c-3.5-7-6-14.5-7.5-22.2c1,3.8,2.1,7.5,3.5,11.2c1.3,3.7,3,7.2,4.7,10.7c1.8,3.4,3.8,6.8,6,10
							c2.2,3.2,4.6,6.3,7.1,9.2c5.1,5.9,10.8,11.2,17,15.9c3.1,2.4,6.3,4.6,9.6,6.6C898.6,564.6,902.1,566.5,905.6,568.1z"/>
					</g>
					<g>
						<path class="st2" d="M850.6,540.2c0.1,2.4,0.2,4.8,0.5,7.2c0.2,2.4,0.5,4.8,0.8,7.2c0.7,4.8,1.5,9.5,2.7,14.2
							c0.6,2.3,1.2,4.6,2,6.9c0.7,2.3,1.8,4.4,3.3,6.2c0.8,0.9,1.6,1.7,2.6,2.4c1,0.7,2,1.2,3.2,1.6c2.2,1,4.5,1.8,6.7,2.7
							c-2.3-0.7-4.6-1.4-6.9-2.3c-1.1-0.4-2.3-0.9-3.3-1.6c-1-0.7-2-1.5-2.8-2.4c-1.7-1.8-2.9-4.1-3.6-6.4c-0.8-2.3-1.5-4.6-2.1-7
							c-1.1-4.7-2-9.5-2.5-14.3C850.6,549.9,850.4,545.1,850.6,540.2z"/>
					</g>
					<g>
						<path class="st2" d="M858.2,526.6c-6.3,9.7-14.4,18.1-23.1,25.6c-4.4,3.8-9,7.2-13.8,10.5c-2.4,1.6-4.8,3.1-7.3,4.7
							c-2.5,1.4-5,2.9-7.6,4.2c-5.1,2.7-10.4,5.1-15.8,7.1c-5.4,2.1-10.9,3.9-16.4,5.4c-2.8,0.7-5.6,1.4-8.4,2
							c-1.4,0.3-2.8,0.6-4.2,0.9l-4.3,0.7l-2.1,0.3l-2.1,0.3l-4.3,0.5c-2.9,0.3-5.7,0.5-8.6,0.7c11.5-1.1,22.8-3.1,33.9-6.2
							c1.4-0.4,2.8-0.8,4.1-1.2c1.4-0.4,2.8-0.8,4.1-1.3c2.7-1,5.4-1.9,8.1-3c2.7-1,5.3-2.2,7.9-3.4c1.3-0.6,2.6-1.2,3.9-1.9
							c1.3-0.6,2.6-1.3,3.8-1.9c10.2-5.2,19.8-11.7,28.6-19c4.4-3.7,8.6-7.6,12.6-11.8C851.2,535.7,855,531.4,858.2,526.6z"/>
					</g>
					<g>
						<path class="st2" d="M729.2,588.5c-2.2-0.6-4.4-1.5-6.5-2.3c-2.1-1-4.2-2-6.2-3.1c-4.1-2.3-7.9-4.9-11.5-7.9
							c-3.5-3-7-6.2-9.9-9.8c-1.5-1.7-2.9-3.6-4.3-5.5c-0.7-0.9-1.3-1.9-1.9-2.9c-0.6-1-1.2-2-1.8-3c2.7,3.7,5.5,7.5,8.6,10.8
							c3.1,3.4,6.4,6.6,10,9.5c3.5,3,7.3,5.6,11.2,8C720.8,584.8,724.9,586.9,729.2,588.5z"/>
					</g>
					<g>
						<path class="st2" d="M638.6,1081.2c-2.9,14.7-7.8,28.9-13.9,42.5c-6.2,13.6-13.8,26.6-22.7,38.6c-4.5,5.9-9.4,11.7-14.5,17.1
							c-1.3,1.4-2.6,2.6-4,4l-2,2l-2.1,1.9c-1.4,1.2-2.7,2.5-4.2,3.7l-4.3,3.6c-11.6,9.4-24.6,17.1-38.3,23.1
							c6.7-3.3,13.4-6.6,19.6-10.7c3.2-1.9,6.2-4.1,9.3-6.2c1.5-1,3-2.2,4.5-3.3c1.5-1.1,3-2.2,4.4-3.5l4.3-3.6
							c1.4-1.2,2.8-2.5,4.1-3.8l2.1-1.9l2-2c1.3-1.3,2.6-2.6,3.9-4c5.1-5.4,9.9-11.1,14.4-17.1c8.9-11.9,16.5-24.8,22.8-38.3
							c3.2-6.7,6-13.7,8.4-20.7C634.8,1095.7,637,1088.5,638.6,1081.2z"/>
					</g>
					<g>
						<path class="st2" d="M1019,524.9c-3.4,2.7-6.9,5.2-10.4,7.6c-3.6,2.4-7.1,4.8-10.9,6.9c3.3-2.8,6.8-5.4,10.3-7.8
							C1011.6,529.2,1015.2,526.9,1019,524.9z"/>
					</g>
				</g>
			</g>
		</g>
	</g>
</g>
<g id="CHARACTER">
	<g>
		<g>
			<path class="st3" d="M882.6,1745.4h852.6l-19.7-184.5l41.6-171.5l290.3,19c50.1,3.3,92.3-36.9,91.6-87.1l-2.3-152.7l4.1-115.7
				c0.3-9-3.8-17.6-11.1-22.9l-6-4.4l-7.8-125.9l-110,5.9l18.7,122.7l-6,2c-10,3.3-17,12.4-17.4,23l-3.1,86.1l-19.7,69.5
				l-158.7-61.3l-159.1-93.4c-13-7.7-28-11.4-43.1-10.8l-94.9,4l-36.4-18.5c-8.6-4.4-18.1-6.5-27.7-6.3l-260.8,8.5
				c-13,0.4-25.7,3.7-37.4,9.5l-13.7,6.9l-48.6-9.2c-49.9-9.4-101.8-1.5-145.7,24c-69.6,40.4-276.3,165.3-276.3,165.3l-27.3-74.4
				l9.5-101.9c1-10.7-2.4-21.4-9.4-29.6l-3.6-4.1l8.4-68.9c0.6-5.2,3.1-10,7-13.5l15.6-14l-109.6-32L538.2,1019l-7.2,4.3
				c-5.9,3.6-10,9.4-11.4,16.2c-8,38.7-34.3,177.1-30,314.4c1.1,36.5,30.7,65.6,67.2,66.3l285.3,5.3L882.6,1745.4z"/>
		</g>
		<g>
			<path class="st4" d="M1588.9,1745.4H1126l-19.2-179.7l0,0l-14.2-132.7c-7-65.9,1-132.5,23.5-194.9l35-96.9l0-0.1l30.5-84.5
				l294.6-10.9l24.9,69.2l0,0l60.5,168.2c15.7,43.7,24,89.7,24.4,136.2l1.4,162.3v0L1588.9,1745.4z"/>
		</g>
		<g>
			<g>
				<path class="st5" d="M1127,914.2c0,0-43.1,31.5-28.7,65.8c0,0,0.8-9.7,5-13.4c0,0-3.3,22,13.9,32c0,0-7.3-25.1,14.9-37.6
					c0,0,7.7,15.4,24.5,11.3c0,0-3,5.2-13.3,5.8c0,0,18.9,10.3,39.8-2.1c0,0,21.6,16.4,52.9,1.8h209.4
					c16.7-51.8,81.6-305.4-90.5-385.3c0,0-248.7,78.7-239.2,186.9C1125.2,887.7,1127,914.2,1127,914.2z"/>
			</g>
			<g>
				<g>
					<g>
						<path class="st6" d="M1476.3,1045.7c-141.2,149.1-294.6,10.9-294.6,10.9l5.9-2c22.4-7.7,39-26,45-48.1
							c1.6-5.9,2.4-12,2.4-18.3V863.1h194.5v139.8c0,17.5,11.6,32.8,28.4,37.6L1476.3,1045.7z"/>
					</g>
					<g>
						<path class="st6" d="M1302,999.1L1302,999.1c71.5,0,129.5-58,129.5-129.5V711.3c0-71.5-58-129.5-129.5-129.5h0
							c-71.5,0-129.5,58-129.5,129.5v158.2C1172.4,941.1,1230.4,999.1,1302,999.1z"/>
					</g>
					<g>
						<path class="st7" d="M1302,996.6c-27.1,11.8-57.6,10.8-69.4,9.8c1.6-5.9,2.4-12,2.4-18.3v-7.7
							C1251.4,991.4,1282.6,1001.2,1302,996.6z"/>
					</g>
				</g>
				<g>
					<g>
						<g>
							
								<ellipse transform="matrix(0.7071 -0.7071 0.7071 0.7071 -191.9471 1094.9238)" class="st5" cx="1225.7" cy="779.2" rx="11.7" ry="11.7"/>
						</g>
						<g>
							<path class="st5" d="M1198.9,770.7c3.1-3.1,6.9-5.4,11-7c4.1-1.6,8.5-2.5,13-2.4c1.1-0.1,2.2,0.2,3.3,0.2l1.7,0.2
								c0.5,0.1,1.1,0.2,1.6,0.3c1.1,0.3,2.2,0.5,3.2,0.8c1,0.4,2.1,0.8,3.1,1.2l1.5,0.6l1.5,0.8l2.9,1.5c1.8,1.2,3.6,2.5,5.3,3.8
								c-1.9-1-3.8-2.2-5.7-3.2l-2.9-1.3l-1.5-0.7l-1.5-0.5c-1-0.3-2-0.7-3.1-1c-1-0.2-2.1-0.4-3.1-0.7c-0.5-0.1-1-0.2-1.6-0.3
								l-1.6-0.1c-1.1-0.1-2.1-0.3-3.2-0.2c-4.3-0.2-8.5,0.7-12.6,2c-1,0.3-2,0.8-3,1.1c-1,0.4-1.9,0.9-2.9,1.4
								C1202.5,768.3,1200.7,769.4,1198.9,770.7z"/>
						</g>
					</g>
					<g>
						<g>
							
								<ellipse transform="matrix(0.9732 -0.2298 0.2298 0.9732 -142.9526 330.5711)" class="st5" cx="1348.1" cy="779.2" rx="11.7" ry="11.7"/>
						</g>
						<g>
							<path class="st5" d="M1321.3,770.7c3.1-3.1,6.9-5.4,11-7c4.1-1.6,8.5-2.5,13-2.4c1.1-0.1,2.2,0.2,3.3,0.2l1.7,0.2
								c0.5,0.1,1.1,0.2,1.6,0.3c1.1,0.3,2.2,0.5,3.2,0.8c1,0.4,2.1,0.8,3.1,1.2l1.5,0.6l1.5,0.8l2.9,1.5c1.8,1.2,3.6,2.5,5.3,3.8
								c-1.9-1-3.8-2.2-5.7-3.2l-2.9-1.3l-1.5-0.7l-1.5-0.5c-1-0.3-2-0.7-3.1-1c-1-0.2-2.1-0.4-3.1-0.7c-0.5-0.1-1-0.2-1.6-0.3
								l-1.6-0.1c-1.1-0.1-2.1-0.3-3.2-0.2c-4.3-0.2-8.5,0.7-12.6,2c-1,0.3-2,0.8-3,1.1c-1,0.4-1.9,0.9-2.9,1.4
								C1324.9,768.3,1323,769.4,1321.3,770.7z"/>
						</g>
					</g>
					<g>
						<path class="st5" d="M1270.3,820.9c-0.4,5-1,10-1.6,15.1c-0.6,5-1.3,10-1.9,15c-0.4,2.5-0.8,4.9-0.6,7.4
							c0.1,2.4,0.7,4.9,1.6,7.1c1,2.2,2.4,4.3,4.5,5.6c2.1,1.4,4.3,2.7,6.3,4.1c-2.3-1.1-4.5-2.3-6.7-3.5c-2.3-1.3-4-3.5-5.1-5.8
							c-1.2-2.3-1.8-4.9-2-7.5c-0.3-2.6,0.2-5.2,0.5-7.7c0.7-5,1.4-10,2.3-15C1268.4,830.8,1269.3,825.9,1270.3,820.9z"/>
					</g>
					<g>
						<path class="st8" d="M1312.6,892.8c-0.6,2.6-1.6,5-3,7.4c-2.8,4.6-7.4,8.6-13.2,10.6c-2.8,1-5.9,1.3-8.8,1.1
							c-1.5,0-2.9-0.4-4.3-0.7c-1.3-0.4-2.7-0.8-3.9-1.4c-5-2.3-9-6-11.2-11c4.2-0.1,7.8,0,11,0c1,0,1.9,0,2.8-0.1
							c1,0,1.9-0.2,2.8-0.2c0.9-0.1,1.7-0.2,2.5-0.4c1.6-0.3,3.1-0.6,4.6-1.1c3-1,6-2.4,9.4-4.5c2-1.2,4.1-2.6,6.4-4.1
							c1.6-1.1,3.3-2.2,5.2-3.4C1313.4,887.6,1313.1,890.2,1312.6,892.8z"/>
					</g>
					<g>
						<path class="st9" d="M1307.6,888.3c-0.3,1.7-0.9,3.3-1.7,4.9c-2,3.8-5.6,7.1-10.2,8.6c-4.6,1.6-9.8,1-13.6-1
							c-1.1-0.6-2.1-1.2-3-2c1,0,1.9,0,2.8-0.1c1,0,1.9-0.2,2.8-0.2c0.9-0.1,1.7-0.2,2.5-0.4c1.6-0.3,3.1-0.6,4.6-1.1
							c3-1,6-2.4,9.4-4.5C1303.3,891.2,1305.3,889.8,1307.6,888.3z"/>
					</g>
					<g>
						<path class="st5" d="M1198.9,726.7c0.6-2.6,2-4.8,3.5-6.8c0.8-1,1.7-1.9,2.6-2.7c0.5-0.4,1-0.8,1.5-1.2c0.5-0.4,1-0.8,1.6-1.1
							c4.3-2.7,9.6-4.2,14.8-4.1c1.3-0.1,2.6,0.2,3.9,0.3l1.9,0.3c0.6,0.1,1.2,0.3,1.9,0.5c1.2,0.4,2.4,0.8,3.6,1.3
							c1.1,0.6,2.2,1.2,3.3,1.9c0.5,0.3,1.1,0.7,1.6,1c0.5,0.4,1,0.8,1.4,1.2c0.9,0.8,1.8,1.7,2.6,2.6c0.8,0.9,1.5,2,2.1,3.1
							c0.6,1.1,1.2,2.2,1.7,3.5c-2.8,0.1-5-0.2-7.2-0.3c-1.1-0.1-2.2-0.1-3.2-0.2c-0.5,0-1-0.1-1.5-0.2c-0.5,0-1,0-1.5-0.1
							c-1-0.1-1.9-0.1-2.8-0.3c-0.9,0-1.8,0-2.7-0.1c-0.4,0-0.9-0.1-1.3-0.1c-0.4,0-0.9,0-1.3,0l-1.3-0.1c-0.4-0.1-0.9-0.1-1.3,0
							c-3.4-0.1-6.9,0.1-10.7,0.3C1208.2,725.7,1204.2,726.2,1198.9,726.7z"/>
					</g>
					<g>
						<path class="st5" d="M1321.3,726.7c0.6-2.6,2-4.8,3.5-6.8c0.8-1,1.7-1.9,2.6-2.7c0.5-0.4,1-0.8,1.5-1.2c0.5-0.4,1-0.8,1.6-1.1
							c4.3-2.7,9.6-4.2,14.8-4.1c1.3-0.1,2.6,0.2,3.9,0.3l1.9,0.3c0.6,0.1,1.2,0.3,1.9,0.5c1.2,0.4,2.4,0.8,3.6,1.3
							c1.1,0.6,2.2,1.2,3.3,1.9c0.5,0.3,1.1,0.7,1.6,1c0.5,0.4,1,0.8,1.4,1.2c0.9,0.8,1.8,1.7,2.6,2.6c0.8,0.9,1.5,2,2.1,3.1
							c0.6,1.1,1.2,2.2,1.7,3.5c-2.8,0.1-5-0.2-7.2-0.3c-1.1-0.1-2.2-0.1-3.2-0.2c-0.5,0-1-0.1-1.5-0.2c-0.5,0-1,0-1.5-0.1
							c-1-0.1-1.9-0.1-2.8-0.3c-0.9,0-1.8,0-2.7-0.1c-0.4,0-0.9-0.1-1.3-0.1c-0.4,0-0.9,0-1.3,0l-1.3-0.1c-0.4-0.1-0.9-0.1-1.3,0
							c-3.4-0.1-6.9,0.1-10.7,0.3C1330.6,725.7,1326.5,726.2,1321.3,726.7z"/>
					</g>
				</g>
			</g>
			<g>
				<path class="st5" d="M1349,608.3c0,0-33.1-12.1-81.9,27.7s-82.5,109.9-136.3,139.2c0,0-16.4,125,40.9,160.1
					c0,0-44.6,8.3-56.5-51.3c0,0-65.6-57.2,47.8-258.7c19.6-46.2,156.7-150.4,299.5-41.3c0,0,70,37.8,90.3,170
					c0,0,60.5,181.6-85.6,219.6c0,0-42.3,41.7-77.8,11.7c0,0,24.9-7.9,33.7-19.2c0,0-48,22.6-74.8,2c0,0,57.6-9,73.7-36.7
					c0,0-26,26.2-50.8-1.4c0,0,104.6-6.7,87.9-148.5c0,0-75,35.5-84.5-52.5C1365.3,643.6,1349,608.3,1349,608.3z"/>
			</g>
			<g>
				<path class="st5" d="M1115.1,884.1c-10.5-6-18.6-15.6-24.3-26.4c-5.6-10.8-8.4-23-8.7-35.2c-0.1-12.1,1.9-24.1,5-35.7
					c3-11.6,6.8-22.9,11.3-34l3.5-8.3c1.2-2.7,2.4-5.4,3.7-8.1c2.5-5.4,5-10.8,7.6-16.2c5.1-10.8,10.2-21.5,15.5-32.2
					c5.4-10.6,10.8-21.3,16.4-31.8c5.7-10.5,11.3-21,17.6-31.2l0.4,0.2c-9.8,21.7-19.8,43.4-30.2,64.8
					c-10.5,21.4-21.5,42.6-32.3,63.7c-5.1,10.7-9.5,21.8-12.1,33.4c-0.7,2.9-1.1,5.8-1.7,8.7l-0.5,4.4c-0.2,1.5-0.4,2.9-0.4,4.4
					c-0.5,5.9-0.4,11.8-0.1,17.6c0.4,5.8,1.2,11.6,2.5,17.3c1.3,5.7,3.2,11.2,5.6,16.5c2.5,5.3,5.5,10.3,9.1,15
					c1.8,2.3,3.7,4.6,5.8,6.7c2.1,2.1,4.3,4.1,6.6,5.9L1115.1,884.1z"/>
			</g>
			<g>
				<path class="st5" d="M1349.2,608.2c4.3,9.8,7.4,20.1,10,30.5c1.3,5.2,2.5,10.4,3.5,15.7c1.1,5.2,1.9,10.5,2.7,15.8
					c0.7,5.3,1.3,10.6,1.7,15.9l0.7,8c0.2,2.7,0.3,5.3,0.6,8l2.6,31.9c0.3,2.7,0.4,5.3,0.8,7.9c0.3,2.6,0.7,5.2,1.2,7.8
					c1,5.1,2.3,10.2,4.3,15c1.9,4.8,4.5,9.2,7.9,12.9c3.4,3.6,7.7,6.4,12.3,8.1c4.7,1.7,9.8,2.6,14.9,2.8c5.1,0.3,10.4-0.1,15.6-0.8
					c10.4-1.3,20.8-3.8,31.1-6.5l0.1,0.4c-9.9,4.1-20.1,7.5-30.7,9.6c-5.3,1-10.7,1.6-16.2,1.6c-5.5-0.1-11.1-0.8-16.4-2.8
					c-2.6-1-5.2-2.3-7.6-3.9c-2.3-1.6-4.5-3.5-6.4-5.6c-3.8-4.2-6.5-9.3-8.4-14.4c-1.9-5.2-3-10.6-3.6-15.9
					c-0.6-5.4-0.7-10.8-0.9-16.1c-0.2-10.6-0.9-21.3-2.3-31.8c-0.3-2.6-0.7-5.3-1.1-7.9l-1.3-7.9c-0.8-5.3-1.9-10.5-2.7-15.7
					c-3.6-20.9-7.3-41.8-12.9-62.4L1349.2,608.2z"/>
			</g>
			<g>
				<path class="st10" d="M1172.5,742.1c-2.9,3.4-6,6.6-9.1,9.8c-3.2,3.1-6.5,6.1-10,8.9c-3.5,2.8-7.1,5.5-10.8,7.9
					c-1.9,1.2-3.8,2.4-5.7,3.5c-2,1.1-3.9,2.1-6,3c0.9-0.6,1.9-1.2,2.8-1.8l2.8-1.8c1.8-1.2,3.7-2.5,5.5-3.8
					c3.6-2.6,7.1-5.3,10.5-8.1c3.5-2.8,6.8-5.7,10.1-8.6C1165.9,748.1,1169.1,745.1,1172.5,742.1z"/>
			</g>
			<g>
				<path class="st10" d="M1348.9,607.9c-8.7-1.6-17.6-1.1-26.2,0.2c-8.7,1.3-17.2,3.7-25.4,6.7c-4.2,1.4-8.2,3.2-12.2,4.9
					c-2,0.9-3.9,1.9-5.9,2.9l-2.9,1.5l-2.9,1.7c-7.7,4.2-14.9,9.4-21.8,14.8c-6.9,5.5-13.6,11.2-20,17.2c-6.5,6-12.8,12.1-19.2,18.1
					c-12.7,12.2-25.7,24.3-39.7,35l-0.1-0.1c13.5-11.4,26.1-23.7,38.8-36c12.7-12.2,25.6-24.4,39.8-34.9
					c7.1-5.3,14.4-10.2,22.1-14.6l2.8-1.7l2.9-1.5c1.9-1,3.9-2.1,5.9-3.1c4-1.8,8-3.8,12.1-5.3c8.3-3.2,16.9-5.5,25.7-6.7
					c8.8-1.1,17.8-1.4,26.4,0.8L1348.9,607.9z"/>
			</g>
			<g>
				<path class="st10" d="M1371.2,929.8c16-2.3,31.2-8.5,44.5-17.5c6.6-4.5,12.8-9.8,18.1-15.9c5.3-6.1,9.6-13,13.1-20.2
					c7.1-14.5,10.6-30.5,12.3-46.4c1.7-16,1.2-32.2-0.2-48.3l0.1,0l1.4,12.1c0.3,4,0.5,8.1,0.8,12.1c0.1,4,0.1,8.1,0.1,12.2
					l-0.3,6.1c-0.2,2-0.2,4.1-0.4,6.1l-0.7,6c-0.1,1-0.2,2-0.4,3l-0.6,3l-1.1,6l-1.5,5.9c-0.3,1-0.5,2-0.8,2.9l-1,2.9
					c-0.7,1.9-1.2,3.9-2,5.8l-2.3,5.6c-0.8,1.9-1.8,3.6-2.7,5.5c-7.5,14.4-17.9,27.3-31.2,36.8c-6.6,4.7-13.9,8.5-21.5,11.3
					c-7.6,2.8-15.6,4.8-23.7,5.3L1371.2,929.8z"/>
			</g>
			<g>
				<path class="st10" d="M1177.9,930.1c-7.2,1.9-14.8,2.2-22.2,1.2c-7.4-1.1-14.6-3.9-20.7-8.4c-3-2.3-5.7-4.9-8-7.9
					c-2.3-3-4.3-6.1-5.9-9.6c-1.6-3.4-2.8-6.9-3.9-10.5c-0.5-1.8-0.8-3.6-1.3-5.4c-0.3-1.8-0.6-3.7-0.9-5.5c1.5,7.3,3.6,14.4,7,20.9
					c3.3,6.5,7.9,12.5,13.8,16.8c5.8,4.4,12.8,7.2,20,8.5c3.6,0.7,7.3,0.9,11,0.9C1170.6,931.1,1174.3,930.7,1177.9,930.1z"/>
			</g>
			<g>
				<path class="st10" d="M1133.7,737.7c-1.1,8.6-1.9,17.2-2.4,25.9c-0.6,8.6-1,17.3-1.1,26c-0.3,17.3,0.3,34.7,2.4,51.8
					c2.1,17.2,5.6,34.3,12.4,50.2c3.4,7.9,7.6,15.6,13.1,22.2c5.4,6.7,12.2,12.4,19.9,16.3c-7.9-3.6-14.8-9.2-20.5-15.9
					c-5.7-6.6-10-14.3-13.6-22.2c-3.6-8-6.1-16.3-8.2-24.8c-2-8.5-3.5-17-4.6-25.7c-2-17.3-2.6-34.7-2.1-52
					C1129.6,772.1,1131,754.8,1133.7,737.7z"/>
			</g>
			<g>
				<path class="st10" d="M1345.8,603.9c-2.6-1.8-5.5-3-8.4-3.8c-2.9-0.9-6-1.3-9.1-1.6c-6.1-0.3-12.3,0.7-18.2,2.6
					c-3,0.8-5.8,2.1-8.7,3.2l-1.1,0.4l-1,0.5l-2.1,1.1l-4.1,2.1c-2.6,1.6-5.3,3.2-7.9,4.9c-2.5,1.8-5.1,3.6-7.6,5.4
					c2.4-2,4.8-4,7.2-6c2.5-1.8,5.2-3.5,7.7-5.3c1.3-0.8,2.7-1.5,4.1-2.3l2.1-1.1l1-0.6l1.1-0.5c2.9-1.2,5.7-2.6,8.8-3.4
					c6-1.8,12.4-2.9,18.7-2.3C1334.6,598,1340.9,599.9,1345.8,603.9z"/>
			</g>
			<g>
				<path class="st10" d="M1353.6,594.9c5.9-5.9,12.7-10.8,20-15c7.2-4.2,15-7.5,23.2-9.6c4.1-1,8.2-1.8,12.4-2.1
					c4.2-0.3,8.4-0.5,12.6,0c8.4,0.7,16.5,3.2,24,6.8c-3.9-1.5-7.8-3-11.8-3.8c-2-0.6-4.1-0.8-6.1-1.2c-1-0.1-2.1-0.3-3.1-0.4
					c-1-0.1-2.1-0.2-3.1-0.3c-8.2-0.6-16.6,0.3-24.5,2.4c-8,2-15.7,5.2-23,9.1c-3.6,2-7.2,4.1-10.6,6.5
					C1360,589.6,1356.7,592.2,1353.6,594.9z"/>
			</g>
			<g>
				<path class="st10" d="M1452.9,774.4c-7.2-16.7-13.2-33.9-18.7-51.3c-2.7-8.7-5.1-17.5-7.4-26.3c-2.3-8.8-4.5-17.6-6.7-26.5
					c-2.1-8.8-4.4-17.7-6.8-26.4c-2.4-8.8-4.9-17.5-7.9-26.1c-1.5-4.3-3.1-8.5-5-12.6c-1.9-4.1-3.9-8.2-6.5-11.9
					c-2.5-3.7-5.7-7.1-9.6-9.3c-2-1.1-4.1-1.9-6.3-2.3c-2.2-0.4-4.5-0.4-6.7-0.1l0-0.1c4.5-0.8,9.3-0.4,13.4,1.8
					c4.1,2.2,7.4,5.6,10.1,9.3c5.4,7.5,8.9,16.1,11.9,24.6c5.9,17.3,9.8,35.1,13.7,52.9c4,17.7,9.3,35.2,14.8,52.5
					c2.7,8.7,5.5,17.3,8.5,25.9c1.4,4.3,2.9,8.6,4.5,12.9c1.5,4.3,3,8.6,4.7,12.8L1452.9,774.4z"/>
			</g>
			<g>
				<path class="st10" d="M1435.3,612.1c10.2,12.8,18.1,27.3,24.7,42.2c6.6,15,11.7,30.6,15.7,46.5c0.9,4,1.7,8,2.5,12
					c0.4,2,0.9,4,1.2,6l0.9,6.1c0.6,4,1.3,8.1,1.8,12.1l1.1,12.2l0.5,6.1l0.2,6.1l0.3,12.3c0.1,2,0,4.1-0.1,6.1l-0.2,6.1l-0.5,12.2
					l0.1-12.2l0.1-6.1c0-2,0.1-4.1-0.1-6.1l-0.5-12.2l-0.3-6.1l-0.6-6.1l-1.2-12.2c-0.5-4-1.2-8.1-1.8-12.1l-0.9-6
					c-0.3-2-0.8-4-1.2-6c-0.9-4-1.7-8-2.6-11.9c-3.9-15.8-8.9-31.4-15.3-46.3l-2.4-5.6l-2.6-5.5c-0.9-1.8-1.7-3.7-2.7-5.5l-2.9-5.4
					C1444.5,625.6,1440.3,618.7,1435.3,612.1z"/>
			</g>
			<g>
				<path class="st10" d="M1348.9,600.2c1.8-0.9,4-0.9,6-0.2c1.9,0.7,3.6,2,4.9,3.6c1.3,1.5,2.4,3.3,3.4,5.1
					c0.9,1.8,1.7,3.7,2.4,5.6c1.3,3.8,2.3,7.7,3.1,11.7c0.8,4,1.3,7.9,1.9,11.9c1.2,7.9,2.4,15.8,3.9,23.7
					c1.5,7.9,3.3,15.6,5.4,23.3c4.2,15.4,9.3,30.6,15.7,45.2c6.4,14.6,14.3,28.5,23.9,41.4l-0.1,0.1c-10.3-12.3-18.6-26.2-25.1-40.8
					c-3.3-7.3-6.1-14.8-8.6-22.4c-2.5-7.6-4.7-15.3-6.5-23.1c-1.9-7.8-3.5-15.6-5.2-23.4c-1.6-7.8-3.2-15.7-4.6-23.6
					c-1.4-7.9-2.3-15.8-4.9-23.4c-1.3-3.7-2.8-7.5-5.3-10.5c-1.2-1.5-2.7-2.8-4.5-3.6c-1.8-0.7-3.9-0.9-5.7-0.1L1348.9,600.2z"/>
			</g>
			<g>
				<path class="st10" d="M1361.1,588.7c-2-3.9-4.9-7.3-8.2-10.2c-3.3-2.8-7.1-5.1-11.1-6.7c-8.1-3.2-17.1-3.8-25.7-2.7
					c-8.7,0.9-17.1,3.5-25.3,6.7c-2,0.8-4.1,1.6-6.1,2.5c-2,0.9-4,1.7-6,2.7c-2,1-4,1.9-5.9,2.9l-5.9,3.1
					c7.5-4.7,15.3-8.8,23.4-12.3c8.2-3.4,16.7-6,25.6-7.1c8.8-1,18-0.4,26.3,3.1c4.1,1.8,7.9,4.2,11.2,7.2c1.6,1.5,3.1,3.2,4.4,5
					C1359.1,584.7,1360.2,586.6,1361.1,588.7z"/>
			</g>
			<g>
				<path class="st10" d="M1258.9,592.6c-12.4,9.6-23.5,20.7-33.7,32.6c-5.1,5.9-10,12-14.4,18.5c-4.4,6.5-8.3,13.3-11.8,20.3
					c-0.9,1.8-1.7,3.5-2.5,5.3l-2.4,5.4c-1.6,3.6-3.1,7.2-4.9,10.7c-3.4,7.1-7.2,14-11.5,20.6c-4.2,6.6-8.9,13-14.1,18.9
					c-5.2,5.9-10.8,11.5-17.4,15.8l-0.1-0.1c6.3-4.6,11.6-10.4,16.6-16.4c5-6,9.5-12.4,13.7-19c2-3.3,4.1-6.7,6-10.1
					c2-3.4,3.7-6.9,5.5-10.3c0.9-1.7,1.7-3.5,2.6-5.3l2.5-5.3l2.5-5.3c0.9-1.7,1.8-3.5,2.7-5.2c3.7-6.9,7.8-13.6,12.1-20.2
					c4.3-6.5,8.9-12.9,13.9-19c2.5-3,5.1-6,7.8-8.8c2.7-2.8,5.5-5.6,8.4-8.3c5.8-5.3,11.8-10.4,18.3-14.8L1258.9,592.6z"/>
			</g>
			<g>
				<path class="st10" d="M1419.4,572.5c5.9,0.7,11.7,2.4,17,5.1c1.4,0.6,2.6,1.4,3.9,2.2c1.3,0.8,2.6,1.5,3.7,2.5l3.6,2.7
					c1.1,1,2.2,2,3.3,3c8.8,8.1,15.7,18.1,21.7,28.4l1.1,1.9l1,2l2.1,4l2.1,4l1.9,4c1.2,2.7,2.5,5.4,3.7,8.1l3.4,8.3
					c0.6,1.4,1.1,2.8,1.7,4.1l1.5,4.2l3,8.4c1.9,5.6,3.7,11.3,5.4,17c-2.1-5.6-4-11.2-6.1-16.7l-3.2-8.3l-1.6-4.1
					c-0.6-1.4-1.2-2.7-1.7-4.1l-3.5-8.2c-1.2-2.7-2.5-5.4-3.8-8l-1.9-4l-2.1-3.9l-2.1-3.9l-1-2l-1.1-1.9
					c-5.8-10.3-12.7-20.1-21.2-28.3c-1.1-1-2.1-2-3.2-3l-3.5-2.7c-1.1-1-2.4-1.7-3.6-2.5c-1.2-0.8-2.5-1.6-3.8-2.3
					C1431,575.4,1425.3,573.5,1419.4,572.5z"/>
			</g>
			<g>
				<path class="st10" d="M1508.2,700.6c2.9,8.1,5.8,16.1,8.9,24.1c1.5,4,3.1,8,4.7,12l4.7,11.9c3.2,8,6.5,15.8,10.2,23.6
					c1.9,3.8,3.8,7.7,5.5,11.6l1.3,2.9l1.2,3c0.8,2,1.5,4,2.2,6c5.5,16.3,7.8,33.7,6.9,50.9c-0.4,8.6-1.6,17.1-3.1,25.6
					c-0.8,4.2-1.7,8.4-2.5,12.6c-0.9,4.2-1.8,8.4-2.3,12.6l-0.1,0c0.3-4.3,1-8.5,1.7-12.7c0.7-4.2,1.5-8.4,2.2-12.7
					c1.4-8.4,2.3-16.9,2.7-25.5c0.3-8.5,0-17.1-1-25.5c-1.1-8.5-2.9-16.8-5.4-25c-0.7-2-1.3-4.1-2-6.1l-1.1-3l-1.2-3
					c-0.8-2-1.7-3.9-2.6-5.9l-2.8-5.8c-3.7-7.7-7.4-15.5-10.8-23.3c-1.7-3.9-3.3-7.9-4.9-11.9c-1.5-4-3-8-4.5-12
					c-2.9-8.1-5.6-16.2-7.9-24.5L1508.2,700.6z"/>
			</g>
			<g>
				<path class="st10" d="M1454.9,581.6c7.1,6.3,13.5,13.3,19.4,20.6c5.9,7.4,11.4,15.1,16.3,23.2c2.4,4.1,4.7,8.2,6.7,12.5
					c0.5,1.1,1.1,2.1,1.6,3.2l1.5,3.2c1,2.1,2,4.3,2.9,6.5c3.7,8.7,7.3,17.4,10.8,26.1c7.1,17.5,13.8,35.1,20.5,52.7l5.1,13.2
					l2.6,6.6l2.7,6.5c1.8,4.3,3.6,8.7,5.7,12.9c2,4.3,4.1,8.5,6.6,12.5l-0.1,0.1c-5.3-7.8-9.2-16.5-13.1-25.1
					c-3.8-8.6-7.4-17.4-10.8-26.2c-6.9-17.6-13.2-35.3-19.8-53c-3.3-8.8-6.7-17.6-10.5-26.2c-3.8-8.6-8.3-16.9-13.2-24.9
					c-4.9-8-10.3-15.7-16.1-23.1c-5.8-7.4-11.9-14.6-18.6-21.2L1454.9,581.6z"/>
			</g>
			<g>
				<path class="st10" d="M1473.8,941.3c2.4-1.6,4.5-3.4,6.4-5.5c1.9-2,3.7-4.2,5.2-6.6c1.5-2.3,3-4.7,4.4-7.2
					c1.3-2.5,2.6-5,3.7-7.6c2.4-5.1,4.3-10.4,6.2-15.7c0.9-2.7,1.8-5.4,2.6-8.1c0.9-2.7,1.6-5.4,2.4-8.2c-0.9,5.6-2.3,11.1-3.9,16.6
					c-1.6,5.4-3.7,10.8-5.9,16c-2.4,5.2-5.1,10.2-8.5,14.8C1483,934.4,1478.9,938.7,1473.8,941.3z"/>
			</g>
			<g>
				<path class="st10" d="M1487.5,892.8c1.8,0.9,3.8,1.3,5.6,1.2c1.9-0.1,3.6-0.8,5.1-2c1.5-1.1,2.6-2.7,3.7-4.4
					c0.5-0.9,1-1.7,1.5-2.6c0.5-0.9,0.9-1.8,1.4-2.7c-0.2,1-0.5,2-0.7,3c-0.3,1-0.7,1.9-1.1,2.8c-0.5,0.9-1,1.8-1.6,2.7
					c-0.7,0.8-1.3,1.6-2.2,2.3c-1.7,1.3-3.8,2.1-6,2C1491,895.1,1489,894.2,1487.5,892.8z"/>
			</g>
			<g>
				<path class="st10" d="M1478.8,718.3c3.9,6.7,7.3,13.6,10.4,20.7c3.1,7.1,5.9,14.3,8.4,21.6c4.7,14.7,8.4,29.7,10.8,45
					c1.2,7.6,1.9,15.4,1.8,23.1c0.1,3.9-0.2,7.7-0.5,11.6l-0.7,5.8c-0.3,1.9-0.7,3.8-1,5.7c-1.6,7.6-3.9,15.1-7.3,22
					c-3.5,6.9-7.9,13.4-13.1,19.1l-0.1-0.1c4.8-6,8.9-12.5,12.2-19.5l2.2-5.3c0.7-1.8,1.2-3.6,1.8-5.4c0.6-1.8,1.1-3.7,1.6-5.5
					c0.5-1.9,1-3.7,1.3-5.6c1.5-7.5,2.2-15.2,2.3-22.8c0.1-7.7-0.3-15.4-1.3-23c-0.9-7.6-2.3-15.2-4.2-22.7
					c-1.9-7.5-4.3-14.8-6.9-22c-5.1-14.5-10.9-28.8-17.8-42.6L1478.8,718.3z"/>
			</g>
			<g>
				<path class="st10" d="M1423.1,966c5.5-3.1,10.5-6.9,15.2-11.1c4.7-4.2,9-8.7,13-13.6c3.9-4.9,7.5-10,10.7-15.4
					c3.2-5.4,6-11,8.4-16.8c2.5-5.8,4.5-11.7,6.3-17.7c0.8-3,1.7-6.1,2.3-9.1l1-4.6l0.8-4.6c2.2-12.4,3.1-25,3.2-37.6l0.2,9.5
					c-0.1,3.2-0.1,6.3-0.3,9.5c-0.4,6.3-1,12.6-2,18.8l-0.7,4.7l-1,4.6c-0.6,3.1-1.5,6.1-2.2,9.2c-1.8,6.1-3.7,12.1-6.2,17.9
					c-5,11.6-11.4,22.7-19.6,32.4c-4.1,4.9-8.5,9.4-13.4,13.5c-2.4,2-4.9,4-7.5,5.7C1428.7,963,1426,964.7,1423.1,966z"/>
			</g>
			<g>
				<path class="st10" d="M1137.1,715c0.8-5.8,1.8-11.6,2.8-17.4c1.1-5.8,2.3-11.5,3.6-17.2c1.4-5.7,2.8-11.4,4.4-17
					c1.7-5.6,3.4-11.2,5.7-16.6c-0.4,1.4-0.8,2.8-1.3,4.2l-1.2,4.2c-0.8,2.8-1.5,5.6-2.2,8.5c-1.4,5.7-2.8,11.4-4.1,17.1
					c-1.4,5.7-2.6,11.4-3.9,17.1l-1.9,8.6L1137.1,715z"/>
			</g>
			<g>
				<path class="st10" d="M1381.9,576.3c1.8-4.5,1.2-9.8-1.6-13.6c-2.7-3.8-7-6.3-11.2-8.6c-4.2-2.3-8.7-4.1-13.3-5.7
					c-2.3-0.8-4.6-1.5-6.9-2.1c-2.3-0.7-4.7-1.2-7.1-1.7c4.9,0.4,9.6,1.4,14.3,2.8c4.7,1.4,9.3,3.2,13.6,5.4
					c1.1,0.6,2.1,1.2,3.2,1.8c1,0.7,2.1,1.3,3.1,2.1c2,1.5,3.8,3.2,5.2,5.4c1.4,2.1,2.2,4.6,2.3,7.1
					C1383.6,571.6,1383.1,574.2,1381.9,576.3z"/>
			</g>
			<g>
				<path class="st10" d="M1409.1,568.8c0.1-3-0.1-5.8-0.9-8.5c-0.4-1.3-0.9-2.7-1.6-3.9c-0.6-1.3-1.5-2.5-2.3-3.7
					c1.2,0.8,2.4,1.9,3.2,3.1c0.9,1.2,1.6,2.6,2,4.1c0.4,1.5,0.6,3,0.5,4.5C1410.1,566,1409.8,567.5,1409.1,568.8z"/>
			</g>
			<g>
				<path class="st10" d="M1534.8,845.6c-0.6,10.6-2.1,21.2-4.2,31.6c-2.2,10.4-5.1,20.7-9.1,30.6c-2.1,4.9-4.4,9.7-7.3,14.3
					c-2.9,4.5-6.2,8.8-10.3,12.3c-4.1,3.5-8.9,6.2-14.2,7.4c-5.3,1.2-10.8,0.8-15.9-0.6c5.2,1.1,10.6,1.3,15.7,0
					c5.1-1.3,9.7-4,13.6-7.6c3.9-3.5,7.2-7.7,9.9-12.2c2.8-4.5,5.1-9.2,7.1-14.1c4.1-9.7,7-20,9.3-30.3c1.2-5.2,2.2-10.4,3.1-15.6
					C1533.4,856.2,1534.2,850.9,1534.8,845.6z"/>
			</g>
			<g>
				<path class="st10" d="M1150.9,929.6c0.5,3.2,0.4,6.5-0.3,9.8c-0.6,3.2-1.9,6.4-3.6,9.2c-1.7,2.8-3.9,5.4-6.5,7.4
					c-1.2,1.1-2.7,1.9-4,2.8c-0.7,0.5-1.5,0.7-2.2,1.1c-0.7,0.4-1.5,0.7-2.2,1c2.7-1.8,5.4-3.5,7.7-5.8c2.4-2.1,4.3-4.7,6-7.4
					c1.7-2.7,2.9-5.6,3.7-8.7c0.2-0.8,0.4-1.5,0.6-2.3c0.1-0.8,0.3-1.6,0.4-2.4C1150.7,932.9,1150.8,931.3,1150.9,929.6z"/>
			</g>
			<g>
				<path class="st10" d="M1197,952.7c-0.5,4.7-2.1,9.2-4.4,13.3c-1.1,2.1-2.5,4-4.1,5.7c-1.6,1.8-3.4,3.2-5.4,4.5
					c1.6-1.7,3.2-3.3,4.5-5.2c1.3-1.8,2.6-3.7,3.7-5.7c1.1-2,2.1-4,3.1-6.1C1195.3,957,1196.2,954.9,1197,952.7z"/>
			</g>
			<g>
				<g>
					<g>
						<g>
							<path class="st6" d="M1443.8,863.9h-6.7c-13.2,0-23.8-10.7-23.8-23.8v-42.6c0-13.2,10.7-23.8,23.8-23.8h6.7
								c13.2,0,23.8,10.7,23.8,23.8v42.6C1467.7,853.2,1457,863.9,1443.8,863.9z"/>
						</g>
					</g>
					<g>
						<g>
							<path class="st7" d="M1433.2,787.8c2.3-0.3,4.7-0.1,7,0.4c2.3,0.6,4.5,1.5,6.6,2.8c4.1,2.6,7.3,6.6,8.9,11.2
								c0.8,2.3,1.3,4.7,1.3,7.2c0,2.4-0.1,4.6-0.2,6.9c-0.2,4.6-0.5,9.2-1.1,13.7c-0.6-4.6-0.9-9.2-1.1-13.7
								c-0.2-2.3-0.1-4.6-0.3-6.8c-0.1-2.2-0.5-4.3-1.2-6.3c-0.7-2-1.7-3.9-3-5.7c-1.2-1.8-2.7-3.3-4.5-4.7
								c-1.7-1.3-3.6-2.5-5.7-3.3C1437.7,788.7,1435.5,788.2,1433.2,787.8z"/>
						</g>
					</g>
					<g>
						<g>
							<path class="st7" d="M1442,836.6c-1.3-0.6-2.4-1.6-3.3-2.6c-0.9-1.1-1.6-2.3-2.1-3.6c-0.5-1.3-0.8-2.7-0.8-4.1
								c0-1.4,0.2-2.8,0.8-4.1c0.6,1.3,1,2.5,1.5,3.7l1.3,3.5l1.3,3.5C1441.1,834.1,1441.6,835.3,1442,836.6z"/>
						</g>
					</g>
				</g>
			</g>
			<g>
				
					<ellipse transform="matrix(0.7071 -0.7071 0.7071 0.7071 -188.2953 1267.7161)" class="st11" cx="1436.1" cy="861.2" rx="11.6" ry="11.6"/>
			</g>
		</g>
		<g class="st12">
			<path class="st13" d="M1757.2,1389.4l26-107.2v49.1c0,19.7,9.2,38.4,24.9,50.3l16,12.1L1757.2,1389.4z"/>
		</g>
		<g class="st12">
			<path class="st13" d="M842,1425.4l-13-102.2l-12.1,65.3c-2.3,12.2-10.1,22.6-21.3,28.1l-15.5,7.6L842,1425.4z"/>
		</g>
		<g class="st12">
			<path class="st13" d="M1978.4,1208.8l-7.4,7.5c-7.7,7.8-10.8,19.1-8.1,29.7l9.7,38.4C1972.6,1284.5,1966,1252.5,1978.4,1208.8z"
				/>
		</g>
		<g class="st12">
			<path class="st13" d="M676,1227.3c0,0,16.5,39.3-3.1,83.6l16.7-31.1c7.3-13.6,5.5-30.3-4.6-42L676,1227.3z"/>
		</g>
		<g class="st12">
			<path class="st14" d="M1587.5,1581.6l-29.7-266.1c-2.3-20.6-6.6-41-12.8-60.8l-43.8-139.8l60.5,168.2
				c15.7,43.7,24,89.7,24.4,136.2L1587.5,1581.6z"/>
		</g>
		<g class="st12">
			<path class="st14" d="M1151.2,1141.1l-27.5,106.4c-7.9,30.6-12.2,61.9-12.8,93.5l-4.1,224.7l0,0l-14.2-132.7
				c-7-65.9,1-132.5,23.5-194.9L1151.2,1141.1L1151.2,1141.1z"/>
		</g>
		<g class="st12">
			<path class="st13" d="M2025.5,1032.8l-2,4.7c-2.7,6.2,1.9,13,8.6,12.9l10.3-0.1C2042.4,1050.3,2026.4,1049.3,2025.5,1032.8z"/>
		</g>
		<g class="st12">
			<path class="st13" d="M641.4,1025.3c0,0-11.9,33-62.2,15.3l25.3,10.7c11.1,4.7,23.8-0.1,29.2-10.8L641.4,1025.3z"/>
		</g>
		<g>
			<polygon class="st15" points="1693.5,1353.4 1696.5,1379.3 1699.4,1405.2 1705,1457.1 1710.4,1508.9 1713.1,1534.9 
				1715.6,1560.8 1712.6,1534.9 1709.6,1509 1704,1457.2 1698.6,1405.3 1696,1379.3 			"/>
		</g>
		<g>
			<path class="st15" d="M1757.2,1389.4c2.3-10.4,4.7-20.8,7.2-31.2l7.4-31.2l7.7-31.1l3.9-15.5l4-15.5l-3.5,15.6l-3.6,15.6
				l-7.4,31.2l-7.7,31.1C1762.5,1368.7,1759.9,1379,1757.2,1389.4z"/>
		</g>
		<g>
			<path class="st5" d="M1276,1481.7c11.4,0.9,22.7,2,34.1,3l34.1,3.3l34,3.5l17,1.8l17,2l-17-1.4l-17-1.6l-34.1-3.3l-34-3.5
				C1298.7,1484.3,1287.3,1483.1,1276,1481.7z"/>
		</g>
		<g>
			<path class="st15" d="M1978.4,1208.8c-1.1,3.8-2,7.7-2.8,11.6c-0.4,1.9-0.8,3.9-1.2,5.8l-1,5.9c-1.2,7.8-1.9,15.7-2.1,23.7
				c0,2-0.1,4-0.1,5.9l0.1,5.9c0,1,0.1,2,0.2,3l0.2,3c0.2,2,0.3,4,0.6,5.9l0.8,5.9c0.3,1.9,0.8,3.9,1.1,5.8l0.5,2.9l0.8,2.9l1.5,5.8
				l-1.8-5.7l-0.9-2.9l-0.7-2.9c-0.4-1.9-0.9-3.9-1.3-5.8l-0.9-5.9c-1-7.9-1.5-15.9-1.2-23.8c0.3-8,1-15.9,2.4-23.7
				C1974.1,1224.1,1975.8,1216.4,1978.4,1208.8z"/>
		</g>
		<g>
			<path class="st15" d="M2025.5,1032.8c0.2,2.1,0.7,4.2,1.4,6.2c0.8,2,1.9,3.8,3.3,5.3c2.9,3.1,7,4.7,11.1,5.4
				c4.1,0.7,8.4,0.7,12.6,0.2c4.2-0.4,8.4-1.2,12.5-2.2c8.3-1.9,16.3-4.6,24.3-7.6c4-1.5,7.9-3.1,11.8-4.7c3.9-1.6,7.8-3.4,11.6-5.2
				c-7.5,4-15.3,7.5-23.2,10.7c-7.9,3.1-16,5.8-24.3,7.8c-4.2,0.9-8.4,1.7-12.6,2.1c-4.3,0.4-8.6,0.4-12.8-0.4
				c-4.2-0.8-8.4-2.6-11.3-5.8C2027,1041.3,2025.7,1037,2025.5,1032.8z"/>
		</g>
		<g>
			<path class="st15" d="M842,1425.4c-1.6-10.6-3-21.2-4.4-31.9l-4.2-31.9l-3.9-31.9l-1.9-16l-1.8-16l2.3,15.9l2.2,15.9l4.2,31.9
				l3.9,31.9C839.7,1404.1,840.9,1414.8,842,1425.4z"/>
		</g>
		<g>
			<path class="st15" d="M676,1227.3c3.1,8.9,5.1,18.2,6.2,27.6c1.1,9.4,1.1,18.9-0.1,28.3c-1.3,9.4-3.9,18.6-8.4,27
				c-2.2,4.2-4.9,8.1-7.9,11.8l-2.3,2.7c-0.8,0.8-1.7,1.7-2.5,2.5l-1.3,1.2l-1.4,1.1l-2.7,2.3c7.2-6.1,13.2-13.5,17.4-21.9
				c4.3-8.3,6.9-17.5,8.1-26.8c1.2-9.3,1.2-18.8,0.3-28.1c-0.5-4.7-1.1-9.3-2-14C678.5,1236.4,677.4,1231.8,676,1227.3z"/>
		</g>
		<g>
			<path class="st15" d="M546,1023.8c3.8,2.4,7.7,4.7,11.7,6.7c4,2.1,8,4.1,12.2,5.8c8.3,3.5,16.8,6.5,25.6,8
				c4.4,0.8,8.9,1.2,13.3,1c4.5-0.1,8.9-1,13.1-2.5c4.2-1.5,8-3.9,11.4-6.9c3.3-3.1,5.9-6.7,8.2-10.6c-2.1,4-4.6,7.8-7.8,11
				c-3.3,3.1-7.2,5.6-11.4,7.3c-4.2,1.7-8.8,2.6-13.3,2.7c-4.5,0.2-9.1-0.2-13.6-0.9c-4.5-0.8-8.9-2-13.2-3.4
				c-4.3-1.4-8.5-3-12.6-4.9C561.3,1033.4,553.4,1029,546,1023.8z"/>
		</g>
		<g>
			<path class="st15" d="M1079.3,1705.7l-8.8-80.4l-8.7-80.4l-8.7-80.4l-2.2-20.1c-0.7-6.7-1.4-13.4-2-20.1
				c-1.1-13.4-1.7-26.9-1.7-40.4c-0.1-27,1.9-54,6.1-80.6c4.3-26.6,10.8-52.9,19.7-78.4c4.5-12.7,9.6-25.2,14.7-37.7
				c5.1-12.5,10.3-24.9,15.5-37.3c10.5-24.8,21-49.7,31.6-74.4c-10.4,24.8-20.8,49.7-31.2,74.6l-15.4,37.4
				c-5.1,12.5-10.2,25-14.6,37.7c-8.9,25.4-15.3,51.7-19.5,78.3c-4.2,26.6-6.1,53.6-5.9,80.5c0.1,13.5,0.6,26.9,1.7,40.4
				c0.5,6.7,1.2,13.4,1.9,20.1l2.1,20.1l8.5,80.4l8.5,80.4L1079.3,1705.7z"/>
		</g>
		<g>
			<path class="st15" d="M1528.9,1064.4l28.7,80l28.5,80.1l14.3,40c4.7,13.4,8.9,26.9,12.4,40.7c7.1,27.5,11.8,55.6,13.9,83.8
				c0.3,3.5,0.5,7.1,0.7,10.6c0.2,3.5,0.3,7.1,0.4,10.6c0.2,7.1,0.3,14.2,0.3,21.3l0.1,42.5l0.3,85l0.3,85l0.1,85l-0.6-85l-0.5-85
				l-0.5-85l-0.2-42.5c0-7.1-0.1-14.2-0.3-21.2c-0.1-3.5-0.2-7.1-0.5-10.6c-0.2-3.5-0.4-7.1-0.7-10.6c-2.1-28.2-6.7-56.3-13.7-83.7
				c-6.8-27.5-17.2-53.9-26.5-80.7l-28.3-80.2L1528.9,1064.4z"/>
		</g>
		<g>
			<polygon class="st15" points="914.7,1689.4 917.1,1639 919.6,1588.7 924.7,1488 930.1,1387.3 932.9,1337 935.7,1286.6 
				933.4,1337 930.8,1387.3 925.7,1488 920.3,1588.7 917.6,1639.1 			"/>
		</g>
		<g>
			<path class="st6" d="M1974.3,889.8l-17,17.9c-4,4.3-9.6,6.7-15.4,6.9l-6.2,0.2c-5.5,0.2-10.9-1.7-15.1-5.3l0,0l-7.3,0.5
				c-5.3,0.4-10.6-1.6-14.3-5.4l0,0c-2.9-2.9-4.7-6.7-5.2-10.8l-0.1-0.8l-5.4,0.1c-4.4,0-8.6-1.5-11.9-4.3l-4.5-3.9
				c-3.2-2.7-5.3-6.5-6-10.6l0,0l-9.8-6.6c0,0-11.2,3.7-21.8,1.1c-9-2.2-11.3-13.9-4-19.5l28.4-21.6l33.6-44.1
				c8.1-10.6,22.5-14.3,34.7-8.8l125.6,56.3c19.2,8.6,33.2,25.9,37.6,46.5l5,23.3l-77.6,6c-7.1,0.4-14.1-1.2-20.3-4.5L1974.3,889.8z
				"/>
		</g>
		<g>
			<path class="st7" d="M1936.5,846.8c-1.9,5.3-3.8,10.5-5.8,15.7c-2,5.2-4.1,10.4-6.1,15.6l-3.1,7.7c-1,2.6-2.2,5.1-2.8,7.8
				c-1.3,5.3-0.5,11.1,2.1,16.1c-1.5-2.4-2.5-5-3-7.8c-0.5-2.8-0.4-5.6,0.1-8.4c0.3-1.4,0.7-2.8,1.2-4.1l1.5-3.9l3.1-7.8
				c2.1-5.2,4.2-10.3,6.3-15.5C1932.1,857,1934.2,851.9,1936.5,846.8z"/>
		</g>
		<g>
			<path class="st7" d="M1962.5,828.9c-2,0.3-4,0.5-6,0.8c-2,0.3-3.9,0.8-5.7,1.4c-1.9,0.6-3.6,1.5-5.3,2.6
				c-1.6,1.1-3.1,2.4-4.3,4.1c0.9-1.8,2.2-3.5,3.9-4.7c1.6-1.3,3.5-2.2,5.4-2.9c1.9-0.7,4-1.1,6-1.3
				C1958.4,828.7,1960.4,828.8,1962.5,828.9z"/>
		</g>
		<g>
			<path class="st7" d="M1942.6,804.8c-1.5,0.3-3,0.4-4.4,0.6c-1.5,0.2-2.9,0.4-4.3,0.8c-1.4,0.3-2.8,0.7-4.2,1.3
				c-1.3,0.6-2.6,1.2-3.8,2.2c0.8-1.3,2.1-2.3,3.4-3c1.3-0.7,2.8-1.2,4.3-1.6c1.5-0.3,3-0.5,4.5-0.6
				C1939.6,804.5,1941.1,804.7,1942.6,804.8z"/>
		</g>
		<g>
			<path class="st7" d="M1921.9,780c-1.9,0.8-3.8,1.4-5.6,2.1c-1.8,0.8-3.6,1.7-5.2,2.9c-1.6,1.1-3,2.5-4.3,4
				c-1.2,1.5-2.2,3.3-3,5.1c0.3-2,1.1-3.9,2.3-5.6c1.2-1.7,2.7-3.2,4.3-4.4c1.7-1.2,3.5-2.1,5.5-2.8
				C1917.9,780.8,1919.9,780.4,1921.9,780z"/>
		</g>
		<g>
			<path class="st7" d="M1895.6,888c1.9-5.9,3.8-11.8,5.8-17.7c2-5.9,4-11.7,6.1-17.6c2.1-5.8,4.2-11.7,6.3-17.5l3.2-8.7
				c1.1-2.9,2.2-5.8,3.3-8.7c-0.9,3-1.9,5.9-2.8,8.8l-3,8.8c-2,5.9-4,11.7-6.1,17.6c-2.1,5.8-4.2,11.7-6.3,17.5
				C1900,876.4,1897.8,882.2,1895.6,888z"/>
		</g>
		<g>
			<path class="st7" d="M1868.1,869.8c2.4-5.6,4.9-11.2,7.5-16.7c2.5-5.6,5.2-11.1,7.7-16.6c2.7-5.5,5.3-11,7.9-16.5l4.1-8.2
				c1.4-2.7,2.7-5.5,4.2-8.2c-1.2,2.8-2.5,5.6-3.7,8.4l-3.8,8.4c-2.5,5.6-5.2,11.1-7.7,16.6c-2.7,5.5-5.3,11-8,16.5
				C1873.6,858.9,1870.9,864.3,1868.1,869.8z"/>
		</g>
		<g>
			<path class="st7" d="M1856.2,867.6c-0.8-0.6-1.6-1.2-2.3-1.8c-0.8-0.6-1.5-1.2-2.3-1.9c-1.4-1.4-2.7-3-3.6-4.7
				c-1.9-3.5-2.4-7.8-1.6-11.7c0.4-2,1.2-3.9,2.2-5.6c0.5-0.9,1.1-1.7,1.6-2.5c0.5-0.8,1.1-1.6,1.7-2.4l3.4-4.8
				c1.2-1.6,2.3-3.2,3.5-4.7c-1,1.7-2,3.3-3.1,5l-3.2,4.9c-1,1.7-2.2,3.3-3.2,4.9c-1,1.6-1.7,3.4-2,5.3c-0.8,3.7-0.3,7.7,1.3,11.1
				c0.8,1.7,1.9,3.3,3.2,4.7C1853.2,865,1854.8,866.3,1856.2,867.6z"/>
		</g>
		<g>
			<path class="st7" d="M1974.3,889.8c-1.8-0.5-3.6-1-5.4-1.3c-1.8-0.4-3.6-0.6-5.4-0.8c-1.8-0.2-3.6-0.2-5.5-0.2
				c-1.8,0-3.6,0.3-5.5,0.6c1.7-0.7,3.5-1.2,5.4-1.4c1.9-0.2,3.8-0.3,5.6-0.1C1967.4,887,1971.1,888,1974.3,889.8z"/>
		</g>
		<g>
			<path class="st6" d="M579.1,892.5l76.3,28.4c9.1,3.4,19.3,2.1,27.3-3.3l19-12.9l10,8.6c3.1,2.6,6.9,4.2,10.9,4.6l16.8,1.4
				c4.6,0.4,9.2-1.2,12.6-4.4l0,0c2.7-2.5,4.4-5.8,5-9.3l0.1-0.6l18.6-4.5c0,0,10.5-5,8-19.3c0,0,41.1,9.8,46.1-7.3
				c5-17.2-28.7-24.4-28.7-24.4l6.1-7c5.4-6.5,4.6-16.1-1.7-21.7L750,771c-8.6-7.7-21.5-8.1-30.5-1l-121.2,94.6
				c-7,5.5-12.6,12.7-16.1,20.8L579.1,892.5z"/>
		</g>
		<g>
			<path class="st7" d="M749.4,787.1c6.6,7.6,13.1,15.3,19.6,22.9l19.4,23.1l9.6,11.6c0.8,1,1.6,2,2.3,3c0.7,1.1,1.3,2.2,1.7,3.5
				c0.9,2.4,1.2,5,1,7.6c-0.2,2.6-1,5.1-2.3,7.3c-1.3,2.2-3.1,4.1-5.1,5.6l-11.9,9.3l11.5-9.7c2-1.6,3.7-3.4,4.8-5.6
				c1.2-2.2,1.9-4.6,2.1-7c0.2-2.5-0.2-4.9-1.1-7.2c-0.4-1.2-1-2.2-1.6-3.3c-0.7-1-1.5-2-2.3-2.9l-9.7-11.6l-19.2-23.3
				C762,802.8,755.6,795,749.4,787.1z"/>
		</g>
		<g>
			<path class="st7" d="M745.8,817c3.2,4.9,6.3,10,9.4,15c3.1,5,6.1,10.1,9.1,15.1c3,5.1,6,10.1,8.9,15.2l4.4,7.7
				c1.4,2.6,2.9,5.1,4.3,7.7c-1.6-2.5-3.2-5-4.7-7.5l-4.6-7.5c-3.1-5-6.1-10.1-9.1-15.1c-3-5.1-6-10.1-8.9-15.2
				C751.6,827.3,748.7,822.2,745.8,817z"/>
		</g>
		<g>
			<path class="st7" d="M739.9,849.8c1.5,4.2,2.9,8.3,4.3,12.5c1.4,4.2,2.7,8.4,4.1,12.6c1.3,4.2,2.6,8.4,3.9,12.7l1.8,6.4
				c0.6,2.1,1.2,4.3,1.7,6.4c-0.8-2.1-1.5-4.2-2.2-6.3l-2.1-6.3c-1.4-4.2-2.7-8.4-4.1-12.6c-1.3-4.2-2.6-8.4-3.9-12.7
				C742.3,858.3,741,854.1,739.9,849.8z"/>
		</g>
		<g>
			<path class="st7" d="M701.7,904.6c1.5-1.6,3.2-2.9,5-4c1.8-1.1,3.8-2,5.9-2.6c2.1-0.6,4.2-0.9,6.4-0.8c2.2,0,4.3,0.6,6.3,1.3
				c-0.5-0.1-1.1-0.2-1.6-0.2c-0.5-0.1-1-0.2-1.6-0.2l-1.6-0.1l-1.6,0c-2.1,0.1-4.1,0.4-6.1,1c-2,0.6-3.9,1.3-5.8,2.3
				C705.3,902.3,703.4,903.4,701.7,904.6z"/>
		</g>
		<g>
			<path class="st7" d="M713.6,806.2c2-0.7,4.1-1.4,6.2-2c1-0.3,2.1-0.6,3.1-0.9c1-0.3,2.1-0.6,3.3-0.6c2.2-0.1,4.5,0.4,6.4,1.6
				c1,0.6,1.8,1.3,2.6,2.1c0.7,0.8,1.5,1.6,2.2,2.4c-0.9-0.7-1.7-1.4-2.5-2c-0.8-0.7-1.7-1.3-2.6-1.7c-1.9-0.9-3.9-1.4-6-1.2
				c-1,0-2,0.3-3.1,0.5c-1,0.2-2.1,0.5-3.1,0.7C717.8,805.5,715.7,805.9,713.6,806.2z"/>
		</g>
		<g>
			<path class="st7" d="M719.6,777.7c2-0.7,3.9-1.3,5.9-1.9c1-0.3,2-0.6,3-0.8c1.1-0.2,2.1-0.3,3.2-0.3c2.1,0.1,4.3,0.6,6.2,1.6
				c1.9,0.9,3.6,2.4,4.8,4c-1.6-1.4-3.3-2.5-5.2-3.3c-1.9-0.8-3.9-1.2-5.9-1.3c-1,0-2,0-3,0.2c-1,0.2-2,0.4-3,0.6
				C723.7,777,721.6,777.4,719.6,777.7z"/>
		</g>
		<g>
			<path class="st7" d="M703.9,837.5c2.1-0.8,4.3-1.4,6.5-2c1.1-0.3,2.2-0.6,3.3-0.9c1.1-0.3,2.2-0.6,3.4-0.7c2.3-0.2,4.7,0,6.8,0.8
				c2.2,0.8,4.1,2,6,3.2c-1.1-0.4-2.1-0.8-3.1-1.2c-1-0.5-2-0.9-3.1-1.2c-2.1-0.6-4.3-0.8-6.5-0.6c-1.1,0.1-2.1,0.3-3.2,0.6
				c-1.1,0.2-2.2,0.5-3.3,0.7C708.3,836.7,706.1,837.2,703.9,837.5z"/>
		</g>
	</g>
</g>
<g id="FRONT">
	<g>
		<path class="st4" d="M2027,1746.9H573c-0.9,0-1.6-0.7-1.6-1.6c0-0.9,0.7-1.6,1.6-1.6h1454c0.9,0,1.6,0.7,1.6,1.6
			C2028.5,1746.2,2027.8,1746.9,2027,1746.9z"/>
	</g>
	<g>
		<g>
			<g>
				<g>
					<g>
						<g>
							<g>
								<g>
									<path class="st9" d="M890.8,824.8c20.1-42.1,70.4-59.9,112.5-39.9c31.7,15.1,49.6,47.4,48,80.3l15.6,22l-23.8,10.1
										c-20.1,42.1-70.4,59.9-112.5,39.9C888.6,917.3,870.7,866.9,890.8,824.8z"/>
								</g>
							</g>
						</g>
					</g>
				</g>
			</g>
		</g>
		<g>
			<g>
				<g>
					<g>
						<g>
							<g>
								<g>
									<path class="st4" d="M956.3,887.8l-22.7-22.7c-1.4-1.4-1.4-3.7,0-5.1l7.2-7.2c1.4-1.4,3.7-1.4,5.1,0l12.9,12.9l29.2-29.1
										c1.4-1.4,3.7-1.4,5.1,0l7.2,7.2c1.4,1.4,1.4,3.7,0,5.1l-39,38.9C960,889.2,957.7,889.2,956.3,887.8z"/>
								</g>
							</g>
						</g>
					</g>
				</g>
			</g>
		</g>
		<g>
			<g>
				<g>
					<g>
						<g>
							<g>
								<g>
									<path class="st4" d="M966.9,946.1c-12.5,0-24.9-2.8-36.5-8.3c-20.5-9.8-35.9-26.9-43.5-48.3c-7.6-21.4-6.4-44.4,3.4-64.9
										l0.5,0.2l-0.5-0.2c9.8-20.5,26.9-35.9,48.3-43.5c21.4-7.6,44.4-6.4,64.9,3.4c31,14.8,49.9,46.4,48.3,80.6l15.9,22.4
										l-24.2,10.3c-9.8,20.4-26.9,35.8-48.2,43.3C986,944.5,976.4,946.1,966.9,946.1z M967,777.3c-9.4,0-18.9,1.6-28.1,4.9
										c-21.1,7.5-38,22.7-47.7,43c-9.6,20.2-10.8,43-3.3,64.1c7.5,21.1,22.7,38,43,47.7c20.2,9.6,43,10.8,64.1,3.3
										c21.1-7.5,38-22.7,47.7-43l0.1-0.2l23.4-9.9l-15.4-21.6l0-0.2c1.7-33.9-17.1-65.2-47.7-79.8
										C991.6,780,979.3,777.3,967,777.3z"/>
								</g>
							</g>
						</g>
					</g>
				</g>
			</g>
		</g>
	</g>
</g>
</svg>
