<svg xmlns="http://www.w3.org/2000/svg" viewBox="0 0 556.88 1259.99"><defs><style>.cls-1{isolation:isolate;}.cls-2{fill:#08c7d1;}.cls-3{fill:#1b1a2e;}.cls-4{fill:#9665fd;}.cls-5{opacity:0.4;mix-blend-mode:multiply;}.cls-6{fill:#1f4168;}.cls-7{fill:#f0f2f5;}.cls-8{fill:#1b1b2f;}.cls-9{fill:#ffc89f;}.cls-10{fill:#ff9a6c;}.cls-11{fill:#e43f5a;}.cls-12{fill:#fff;}.cls-13{fill:#a65b3c;}.cls-14{fill:#70229a;}</style></defs><g class="cls-1"><g id="Layer_2" data-name="Layer 2"><g id="CHARACTER"><path class="cls-2" d="M552.69,477.79,529,542.46l19.47,71.17a19.31,19.31,0,0,1-10.13,22.42c-12.21,6-32.87,12.62-63.35,11.41l-212.77-21.7-14.48-1.48-21.75,8a8.71,8.71,0,0,1-11.71-8.75c.24-3.74.54-8.2.9-13.26v0c3.64-51.81,13.06-167.37,28.75-240.37l-44.43,6.6a70.71,70.71,0,0,1-8.22.74L74.81,381s-20.37-27.56-5.38-57.26l129.34-11.45L258.84,270s1.54-24.67,17.08-42.51A39.38,39.38,0,0,1,294,215.84l35.37-11,6.59-18.4,68.27-20a6.44,6.44,0,0,1,6.18,1.44L429.3,185.2l69.76,21.28a25.11,25.11,0,0,1,16,14.66C520.58,235,529,261.81,532.8,303.58a68.78,68.78,0,0,1,8,14.21,68,68,0,0,1,4.45,15.71c3.9,24.69,10.55,72.91,11.58,119.5A67.86,67.86,0,0,1,552.69,477.79Z"/><path class="cls-3" d="M415.86,550.73l-63.72,8.41a128.4,128.4,0,0,1-63.23-7.59l-26.07-10.11-3,20.12c-42.3,104,33,389.38,33,389.38l52.84,192.63-2.68,9a20.21,20.21,0,0,0,.12,11.83l9,28.16c23.54-9.66,43.53,12.19,59.38-.54l-1.33-28.39,1.21-3.53A24.85,24.85,0,0,0,412,1146l-16.2-64.53L380.6,951.85a41.06,41.06,0,0,0-3.79-13.05l-6.1-12.63,3.54-16.57a41.38,41.38,0,0,0,.88-9.74l-4.42-152.11L392,905.86a44.05,44.05,0,0,0,9.48,21.88l10.65,13.06C417.81,987,426.9,1106.17,428.62,1129a27.48,27.48,0,0,0,1.59,7.39l5.35,14.71h0a27.31,27.31,0,0,0-6.06,33.43l7.46,13.91c20.3-20.63,55.26-3,55.26-3l6.32-21.14a33.9,33.9,0,0,0-.7-21.46l-5.13-13.83C513,979.8,474.12,896.68,474.12,896.68L478,880.87a33,33,0,0,0-1.34-20l-3.39-8.64L475,647.46S454,595.45,415.86,550.73Z"/><path class="cls-4" d="M415.86,550.72l-25.37,4.17-44.59,7.3A77.22,77.22,0,0,1,305.5,558l-42.66-16.55s4.05-35.24,15.91-60l-1.55-70v0l-1-44.4s8.59-50.72,24.75-99.4l0-.1c7.75-23.33,17.24-46.18,28.36-62.75L336,186.41l58.94-31.17a3.47,3.47,0,0,1,4.66,1.37l6.17,10.95L362.55,304.48a254.52,254.52,0,0,0-10.19,105.25h0a252.35,252.35,0,0,0,61,138.11C414.17,548.81,415,549.77,415.86,550.72Z"/><g class="cls-5"><path class="cls-6" d="M336.35,226.75l-9.41,63.93V499.24L310.12,527.6l-3.58-24.23,2.9-151.43a343.2,343.2,0,0,1,8.72-70.67l11.78-51.14L329.28,220Z"/></g><path class="cls-2" d="M515.15,1247.8v3.31a5.7,5.7,0,0,1-5.71,5.71l-69.58.68a5.64,5.64,0,0,1-5.59-4.55,7.67,7.67,0,0,1,3-8c-3.16-6.32-1.85-16.08-.72-19.57a35.68,35.68,0,0,0,1.85-11v-1.79a39,39,0,0,0-.81-7.61c-2.23-11.24,2.12-17.16,2.34-17.46h0s-4.12-21.19,25.22-20.42c32.33.84,25.46,21.92,25.46,21.92s.09.27.13.4a53.89,53.89,0,0,1,2.3,16.92c4.94,11.63,12,14.85,18.36,22.12a13.43,13.43,0,0,1,3.31,9.11,20.25,20.25,0,0,1-1.76,8A2.2,2.2,0,0,1,515.15,1247.8Z"/><path class="cls-7" d="M515.15,1247.8v3.31a5.7,5.7,0,0,1-5.71,5.71l-69.58.68a5.64,5.64,0,0,1-5.59-4.55,7.67,7.67,0,0,1,3-8h0a29,29,0,0,0,19.14-7.22l6.37-5.61a11.32,11.32,0,0,1,15.79.81l3.68,4a29,29,0,0,0,20.74,9.3,51.59,51.59,0,0,0,10-.65A2.2,2.2,0,0,1,515.15,1247.8Z"/><path class="cls-7" d="M456.28,1233.55c-9.39,0-16.3-4.63-19.52-13.38a1.26,1.26,0,0,1,2.37-.87c5.06,13.76,18.31,12.48,25.76,10.5a26.16,26.16,0,0,1,11.46-.43c21.33,3.84,31.43-4.62,31.53-4.71a1.27,1.27,0,0,1,1.78.12,1.26,1.26,0,0,1-.12,1.78c-.44.39-11,9.37-33.63,5.3a23.65,23.65,0,0,0-10.37.38A36.09,36.09,0,0,1,456.28,1233.55Z"/><path class="cls-7" d="M492.16,1218.32c-19-7.19-39.69-2.42-44.87-1a.79.79,0,0,1-1-.89c.79-5.36-.3-12.65-1.17-17.14a2.38,2.38,0,0,0-4.1-1.13c-3.35,3.75-3.44,6.84-3.44,6.84-2.23-11.24,2.12-17.16,2.34-17.46h0l.21-.12A10.07,10.07,0,0,1,454.9,1194a53.13,53.13,0,0,1,1.1,11,.81.81,0,0,0,.93.8,83.63,83.63,0,0,1,26.5.7.81.81,0,0,0,.95-.93,63.3,63.3,0,0,0-2.22-9.18,5.93,5.93,0,0,1,8.42-7.08l.17.1a53.89,53.89,0,0,1,2.3,16.92,21.75,21.75,0,0,0,.18,11A.8.8,0,0,1,492.16,1218.32Z"/><path class="cls-7" d="M452.16,1191.38a1.21,1.21,0,0,1-.9-.42,1.27,1.27,0,0,1,.12-1.79,1.38,1.38,0,0,1,.25-.17l.08,0c3.14-1.92,14.41-7.89,27.56-3.73a1.26,1.26,0,0,1-.76,2.41c-12.13-3.84-22.57,1.69-25.48,3.47A1.6,1.6,0,0,1,452.16,1191.38Z"/><path class="cls-6" d="M458.57,1196.06a2.15,2.15,0,0,1-1.68-.88,2.1,2.1,0,0,1,.48-2.93,1.86,1.86,0,0,1,.41-.23c2.79-1.37,12.22-5.22,22.41-.91a2.1,2.1,0,1,1-1.64,3.87c-8.6-3.64-16.63-.31-18.89.8A2.48,2.48,0,0,1,458.57,1196.06Z"/><path class="cls-6" d="M458.57,1200.69a2.15,2.15,0,0,1-1.68-.87,2.11,2.11,0,0,1,.48-2.94,2.38,2.38,0,0,1,.41-.23c2.79-1.36,12.22-5.22,22.41-.91a2.11,2.11,0,1,1-1.64,3.88c-8.6-3.64-16.63-.31-18.89.79A2.48,2.48,0,0,1,458.57,1200.69Z"/><path class="cls-6" d="M458.56,1205.33a2.17,2.17,0,0,1-1.69-.9,2.11,2.11,0,0,1,.52-2.93,1.87,1.87,0,0,1,.39-.22c2.79-1.36,12.23-5.21,22.41-.9a2.1,2.1,0,1,1-1.64,3.87c-8.6-3.64-16.63-.31-18.89.8A2.48,2.48,0,0,1,458.56,1205.33Z"/><path class="cls-2" d="M408.41,1209.79c3,2.51,3.28,11.47,3,18.45a32.69,32.69,0,0,1-1.36,8,33.62,33.62,0,0,1-3.28,7.42,14,14,0,0,1,2.2,6.76,6.85,6.85,0,0,1-8.65,7.18c-1.87-.53-4.05-1.08-6.52-1.63-4.7-1-7.94.25-9.91,1.68a12,12,0,0,1-7.32,2.34l-15.73-.43-38.34-1-4-.11a4.55,4.55,0,0,1-4.41-4.71l.17-5.09s-4.34-6.73-1.41-14.21,16.28-12,16.28-12h0c-.28-.16-4.24-2.46,2.46-8.31,6.94-6.08,19.76-24.14,23.87-26a5.42,5.42,0,0,1,6.59,1.6l0,0c-1.75-6.26,1.85-15.24,6-17.17,13.65-6.37,41.43,8,43.24,15.89s-4.5,8.54-4.5,8.54c6.32,3.78,1.84,12.52,1.68,12.85Z"/><path class="cls-7" d="M382.46,1250l-.77,0a1.27,1.27,0,1,1,.13-2.54c6.71.35,11.79-4.88,13.14-10a8.91,8.91,0,0,0-4.8-10.84c-4.84-2.42-11.69,1-18.94,4.62-9.46,4.72-20.18,10.07-29.73,4.13a1.27,1.27,0,1,1,1.34-2.16c8.35,5.19,18,.4,27.26-4.24,7.84-3.91,15.24-7.6,21.21-4.62a11.43,11.43,0,0,1,6.11,13.76C395.86,1244,390.13,1250,382.46,1250Z"/><path class="cls-7" d="M330.33,1235.66c-4.48,0-9.63-.66-11.47-3.43-1.14-1.72-.94-3.88.59-6.42a1.27,1.27,0,0,1,1.74-.44,1.28,1.28,0,0,1,.44,1.75c-1,1.63-1.21,2.88-.65,3.71,1.82,2.75,11,2.57,16.39,1.8a1.27,1.27,0,0,1,.36,2.52A57,57,0,0,1,330.33,1235.66Z"/><path class="cls-7" d="M408.42,1209.79h0s-6.85-13.4-18.25-5.22-14.93,20-26.65,16.76c-13.71-3.77-27.51-2.75-34.41,1h0c-.28-.16-4.24-2.46,2.46-8.31,6.94-6.08,19.76-24.14,23.87-26a5.42,5.42,0,0,1,6.59,1.6l0,0,0,0c-6.22,3.52-21.17,23-21.17,23,14.18-4.22,29.07.86,29.07.86s11.53-15.52,20.43-21.41,16.35,4.72,16.35,4.72C413.06,1200.72,408.58,1209.46,408.42,1209.79Z"/><path class="cls-7" d="M381.45,1192.78a1.19,1.19,0,0,1-.58-.15,24.34,24.34,0,0,0-18.39-1.77,1.27,1.27,0,0,1-.91-2.37,26.41,26.41,0,0,1,20.46,1.89,1.27,1.27,0,0,1-.58,2.4Z"/><path class="cls-6" d="M370.34,1211.63a2.14,2.14,0,0,1-1-.24,27.26,27.26,0,0,0-20.76-2,2.11,2.11,0,1,1-1.52-3.94,31.24,31.24,0,0,1,24.23,2.21,2.12,2.12,0,0,1-1,4Z"/><path class="cls-6" d="M373.06,1207.26a2.13,2.13,0,0,1-1.15-.34,27.47,27.47,0,0,0-20.48-4,2.12,2.12,0,0,1-1.12-4.08,31.27,31.27,0,0,1,23.9,4.56,2.11,2.11,0,0,1-1.15,3.89Z"/><path class="cls-6" d="M378.16,1201.58a2.07,2.07,0,0,1-1.1-.3,27.17,27.17,0,0,0-20.58-3.46,2.12,2.12,0,0,1-1.24-4,31.3,31.3,0,0,1,24,3.89,2.12,2.12,0,0,1-1.1,3.92Z"/><path class="cls-7" d="M400.29,1257.59c-1.87-.53-4.05-1.08-6.52-1.63-4.7-1-7.94.25-9.91,1.68a12,12,0,0,1-7.32,2.34l-12.44-.34a8.3,8.3,0,0,1-5.63-2.4l-15-14.82a5.19,5.19,0,0,0-7.59.33l-10.82,12.72a8.36,8.36,0,0,1-6.59,2.93h0a4.55,4.55,0,0,1-4.41-4.71l.17-5.09a10,10,0,0,0,2.45.75,11.38,11.38,0,0,0,10.88-4.46l7.81-10.24A5.19,5.19,0,0,1,343,1234l11.83,11.06a11.56,11.56,0,0,0,7.35,3.12c26.4,1.21,44.53-4.54,44.53-4.54a14,14,0,0,1,2.2,6.76A6.85,6.85,0,0,1,400.29,1257.59Z"/><path class="cls-8" d="M252.11,109.89s2.53,17,8.74,23.71,9.19,2.33,9.19,2.33-15.13-11.3-16.91-26.8Z"/><path class="cls-8" d="M377.78,106l19.78-39.87S408.5,82,403,98.64a15.86,15.86,0,0,0,3.53,16.62S397,118,396,108v0c-.13.63-2.23,4.59,1.09,13.46,0,0-3.43,1.17-5.5-1.15a5.3,5.3,0,0,1-1.23-3.74c-1.68,2.64-4.59,4.86-7.28,4.49l1.86-5.92a16.8,16.8,0,0,1-6.71,8.18c-6.48,4.27-11.69,2.61-11.69,2.61Z"/><polygon class="cls-9" points="311.33 140.25 331.41 199.12 339.35 201.62 395.75 156.03 381.76 116.22 311.33 140.25"/><path class="cls-9" d="M352.38,181.23h0a49.56,49.56,0,0,0,30.9-62.91L363.73,61a49.57,49.57,0,0,0-62.91-30.91h0A49.56,49.56,0,0,0,269.92,93l19.55,57.3A49.55,49.55,0,0,0,352.38,181.23Z"/><path class="cls-10" d="M325.84,182.78l3.24,9.49s13.74-5.41,22.3-14.75C351.38,177.52,342.7,184.53,325.84,182.78Z"/><path class="cls-8" d="M293.2,109.71A4.46,4.46,0,1,0,296,104,4.46,4.46,0,0,0,293.2,109.71Z"/><path class="cls-8" d="M285.64,107.74a13.84,13.84,0,0,1,1.57-1.92c.28-.3.58-.59.88-.87s.62-.54,1-.78a14.18,14.18,0,0,1,4.3-2.26,9.8,9.8,0,0,1,1.18-.32l.59-.14c.2,0,.4,0,.61-.08l1.21-.15,1.23,0h.61l.61.06,1.24.11c.81.11,1.62.31,2.45.43-.79-.25-1.59-.51-2.4-.71l-1.25-.21-.62-.1-.63,0c-.42,0-.84,0-1.27,0s-.84.07-1.26.11c-.21,0-.42,0-.63.07l-.62.14a10.09,10.09,0,0,0-1.23.32,12.57,12.57,0,0,0-4.41,2.48A12.44,12.44,0,0,0,285.64,107.74Z"/><path class="cls-8" d="M337.51,94.59a4.46,4.46,0,1,0,2.78-5.67A4.47,4.47,0,0,0,337.51,94.59Z"/><path class="cls-8" d="M330,92.62a14.53,14.53,0,0,1,1.56-1.92c.29-.3.59-.58.88-.86s.62-.55,1-.78a14,14,0,0,1,4.31-2.27,9.18,9.18,0,0,1,1.17-.32l.59-.14c.2,0,.41,0,.61-.08l1.21-.15,1.23,0h.62l.61.06,1.23.11c.82.11,1.62.31,2.45.43-.79-.25-1.59-.51-2.4-.71l-1.24-.21-.62-.1-.64,0-1.26,0-1.27.11c-.21,0-.42,0-.63.07l-.62.14a8.94,8.94,0,0,0-1.23.33,12.44,12.44,0,0,0-4.4,2.47A12.27,12.27,0,0,0,330,92.62Z"/><path class="cls-8" d="M317.51,116.59c.24,1.91.54,3.82.86,5.72s.66,3.81,1,5.7a12.8,12.8,0,0,0,.76,2.85,7.91,7.91,0,0,0,1.66,2.46,5.1,5.1,0,0,0,2.58,1.46c.95.15,1.9.31,2.86.44-.93-.26-1.87-.48-2.8-.73a4.76,4.76,0,0,1-2.31-1.48,8.19,8.19,0,0,1-1.47-2.37,12.8,12.8,0,0,1-.7-2.74c-.37-1.89-.74-3.79-1.15-5.67S318,118.46,317.51,116.59Z"/><path class="cls-11" d="M326.34,145.05a8.36,8.36,0,0,0,5.43,2.75,8.92,8.92,0,0,0,6.41-1.77,9.41,9.41,0,0,0,3.62-8.62,7.22,7.22,0,0,0-1-2.94c-.71.86-1.33,1.64-1.91,2.34l-.15.2c-.47.57-.89,1.09-1.32,1.58a19.16,19.16,0,0,1-2.82,2.69,13.51,13.51,0,0,1-1.48,1c-.26.16-.55.29-.84.45s-.62.32-1,.44c-.7.31-1.47.59-2.34.9l-.65.24C327.7,144.51,327,144.76,326.34,145.05Z"/><path class="cls-12" d="M329,144a6.79,6.79,0,0,0,1.34.36,7.26,7.26,0,0,0,5.45-1.42,7.44,7.44,0,0,0,3-6c-.47.57-.89,1.09-1.32,1.58a19.16,19.16,0,0,1-2.82,2.69,13.51,13.51,0,0,1-1.48,1c-.26.16-.55.29-.84.45s-.62.32-1,.44C330.61,143.45,329.84,143.73,329,144Z"/><path class="cls-8" d="M281.63,96c1.9-.78,3.34-1.4,4.72-1.93s2.57-1,3.81-1.35a2.44,2.44,0,0,1,.46-.14l.47-.14.46-.16c.16-.06.33-.08.49-.13.32-.08.65-.19,1-.3s.69-.16,1-.27l.55-.18.56-.13c.39-.1.78-.22,1.19-.35a17.93,17.93,0,0,0,2.68-.87,8.21,8.21,0,0,0-1-1.1,7.66,7.66,0,0,0-1.15-.91,14.11,14.11,0,0,0-1.28-.67c-.23-.11-.45-.19-.68-.29s-.46-.14-.7-.19q-.71-.18-1.44-.3a14.75,14.75,0,0,0-1.49,0,6.44,6.44,0,0,0-.76,0l-.74.12a7.61,7.61,0,0,0-1.48.36,10.08,10.08,0,0,0-4.9,3.38A6.67,6.67,0,0,0,283,91c-.13.21-.27.41-.39.63A10.73,10.73,0,0,0,282,93,6.48,6.48,0,0,0,281.63,96Z"/><path class="cls-8" d="M325.94,80.85c1.91-.78,3.34-1.4,4.73-1.92s2.56-1,3.8-1.36a2.44,2.44,0,0,1,.46-.14l.47-.14.47-.16c.16-.06.32-.08.48-.13.33-.08.65-.19,1-.3s.69-.16,1.05-.27l.54-.18.57-.13c.38-.1.77-.21,1.19-.35a18.93,18.93,0,0,0,2.67-.86,8.9,8.9,0,0,0-2.17-2,14.11,14.11,0,0,0-1.28-.67c-.22-.11-.45-.19-.67-.29s-.47-.14-.7-.19c-.48-.12-1-.22-1.45-.3a14.75,14.75,0,0,0-1.49,0,6.27,6.27,0,0,0-.75,0l-.75.12a9.27,9.27,0,0,0-1.47.36,10.17,10.17,0,0,0-4.91,3.38,5.08,5.08,0,0,0-.42.61c-.14.21-.27.41-.39.63a9.5,9.5,0,0,0-.61,1.34A6.61,6.61,0,0,0,325.94,80.85Z"/><path class="cls-8" d="M332.12,42.36a14.59,14.59,0,0,0-19.35-2c-4.5,3.3-9.15,9.6-12.18,21.38a70.39,70.39,0,0,0-2,12.74c-.53,7.74-3.49,27.1-19.7,39.23l7.62,28.08-.78-.07a57.88,57.88,0,0,1-31.76-27c-.53-1-1.07-2-1.6-3a7.64,7.64,0,0,1-.35,6.92c-1.88,3.18-6.25,3.57-6.25,3.57S250.09,110,240.71,94c-8.47-14.41-5.2-26.64,6.23-39.09,0,0-9.8,4.81-14.85-4.08,0,0,25.87,2.24,35-21.24C278.42.79,303.87-4,316.22,14.26c0,0,1.25-13.25,12.28-9.48s23.49,11.81,39.77,13,18.82,42.86,43.25,44c0,0-9.82,9.06-18-2.44,0,0,21.66,24.22-11.24,56.7l-6.44-28.32s-17.38,2.4-26.95-16.06C341.5,57.48,338,48.73,332.12,42.36Z"/><path class="cls-8" d="M316.37,14.26a24.55,24.55,0,0,1,1.75-6,10,10,0,0,1,3.55-4.42,7.67,7.67,0,0,1,2.5-1,10.86,10.86,0,0,1,2.8-.14,25.59,25.59,0,0,1,5.88,1.19A36,36,0,0,1,344,9.73c1.71,1.26,3.26,2.74,5.13,4a18.14,18.14,0,0,0,6.22,2.53,40.6,40.6,0,0,0,6.55.76l1.63.07h1.62c1.09,0,2.17,0,3.24,0s2.07-.1,3,0a12.26,12.26,0,0,1,2.75.47,8.24,8.24,0,0,1,2.4,1.17,9,9,0,0,1,1.91,1.93,19.72,19.72,0,0,1,2.57,5.36c.67,2,1.22,4,1.86,6.07a51.16,51.16,0,0,0,2.18,6.11,22.76,22.76,0,0,0,3.39,5.54l.25-.17c-2.14-3.7-3.05-7.82-3.88-12-.41-2.08-.82-4.19-1.37-6.32a21.4,21.4,0,0,0-2.6-6.29,11.08,11.08,0,0,0-2.47-2.7,10.44,10.44,0,0,0-3.28-1.73,13.57,13.57,0,0,0-3.52-.66,28.63,28.63,0,0,0-3.37,0,74.51,74.51,0,0,1-12.5,0c-.51,0-1-.14-1.51-.2s-1-.19-1.49-.3a15.56,15.56,0,0,1-2.85-1A40.3,40.3,0,0,1,344.57,9c-1.77-1.23-3.55-2.42-5.33-3.63A55,55,0,0,0,333.64,2,18.15,18.15,0,0,0,327.16,0a11.32,11.32,0,0,0-3.56.29,8.77,8.77,0,0,0-3.32,1.54,9.25,9.25,0,0,0-2.41,2.67,12.53,12.53,0,0,0-1.36,3.16A16.27,16.27,0,0,0,316,11a15.62,15.62,0,0,0,.11,3.28Z"/><path class="cls-8" d="M326.46,38.15a8.21,8.21,0,0,0-3.9-.65,12.82,12.82,0,0,0-3.9.91,19.89,19.89,0,0,0-1.81.85c-.57.35-1.15.68-1.69,1.07a18.11,18.11,0,0,0-3,2.61,39.81,39.81,0,0,0-4.49,6.39c-1.34,2.2-2.61,4.44-3.84,6.72a52.92,52.92,0,0,0-3.11,7.12,69.06,69.06,0,0,0-2.22,7.44A73.64,73.64,0,0,0,296.65,86l.18,0c1.2-5,2.27-10,3.55-14.92l.45-1.85.49-1.84c.3-1.24.68-2.45,1-3.67s.75-2.43,1.16-3.63l.6-1.82.65-1.79a32.05,32.05,0,0,1,3.43-6.82A31.24,31.24,0,0,1,313.23,44a26,26,0,0,1,6-4.32,12,12,0,0,1,7.17-1.36Z"/><path class="cls-8" d="M376.82,87.3A41.41,41.41,0,0,1,367,88.55a28.07,28.07,0,0,1-4.86-.45,26.44,26.44,0,0,1-4.66-1.33,23.47,23.47,0,0,1-4.34-2.24,19.47,19.47,0,0,1-3.73-3.24,25.53,25.53,0,0,1-4.89-8.62A63,63,0,0,1,342.08,63a56.21,56.21,0,0,0-2.5-9.89,33.55,33.55,0,0,0-4.92-9A24.2,24.2,0,0,0,333,42.18,18.43,18.43,0,0,0,331,40.47a14.6,14.6,0,0,0-2.17-1.4,9,9,0,0,0-2.4-.92l0,.17a13.47,13.47,0,0,1,4,2.85,24,24,0,0,1,3.1,3.79,39.85,39.85,0,0,1,4.27,8.84,72.85,72.85,0,0,1,2.66,9.55A45.77,45.77,0,0,0,343.63,73a40.85,40.85,0,0,0,5.31,8.65,22.75,22.75,0,0,0,7.93,6.47,18.77,18.77,0,0,0,5,1.5,23.62,23.62,0,0,0,5.17.28,27.53,27.53,0,0,0,9.87-2.46Z"/><path class="cls-8" d="M242.4,95.92a27.45,27.45,0,0,0-1-2.86c-.36-.92-.7-1.84-1.09-2.73s-.72-1.8-1.13-2.68A26.78,26.78,0,0,0,238,85a27.09,27.09,0,0,1-2.33-5.35,14.09,14.09,0,0,1-.42-2.89,15.5,15.5,0,0,1,.22-2.89,25.12,25.12,0,0,1,.62-2.79c.15-.45.23-.91.38-1.35l.44-1.32a25.78,25.78,0,0,1,2.51-4.87,33.42,33.42,0,0,1,3.36-4.44,42.48,42.48,0,0,1,4.2-4l-.12-.28a15.77,15.77,0,0,0-5.63,2.55,18.48,18.48,0,0,0-4.46,4.45,17.49,17.49,0,0,0-2.56,5.81c-.11.52-.22,1-.32,1.55s-.13,1-.17,1.57a13.71,13.71,0,0,0,0,1.57,13.31,13.31,0,0,0,.12,1.55c.22,2.05.58,4,.89,6a55.22,55.22,0,0,0,.94,6,19.73,19.73,0,0,0,1.1,2.85,29.85,29.85,0,0,0,1.48,2.65A29.11,29.11,0,0,0,240,93.87a23.11,23.11,0,0,0,2.11,2.21Z"/><rect class="cls-9" x="369.86" y="81.35" width="21.02" height="34.9" rx="9.22" transform="translate(772.27 69.49) rotate(161.16)"/><path class="cls-10" d="M373.82,88.38a11.61,11.61,0,0,1,2.61-.17,9.93,9.93,0,0,1,2.49.51,8.57,8.57,0,0,1,2.2,1.16,8.6,8.6,0,0,1,3,3.83c.34.79.62,1.65,1,2.46.66,1.65,1.35,3.28,2.16,4.88-.34-1.76-.79-3.48-1.28-5.18-.24-.86-.49-1.69-.78-2.56a8.77,8.77,0,0,0-1.36-2.47,8.5,8.5,0,0,0-4.66-3,8.86,8.86,0,0,0-2.76-.2A8.2,8.2,0,0,0,373.82,88.38Z"/><path class="cls-10" d="M383.16,105.15c-.32-.48-.64-.86-.94-1.25l-.91-1.11-.9-1.12c-.32-.37-.63-.76-1-1.17a3.59,3.59,0,0,0,.21,1.63,4.59,4.59,0,0,0,.8,1.41,4.8,4.8,0,0,0,1.22,1.07A3.64,3.64,0,0,0,383.16,105.15Z"/><path class="cls-8" d="M393.3,59c.9,1.64,1.87,3.13,2.85,4.61q.72,1.11,1.47,2.19c.48.73,1,1.44,1.55,2.12a28.69,28.69,0,0,1,3.26,4.25,14.55,14.55,0,0,1,1.64,5l.18,1.32c0,.44.08.87.13,1.31s.07.86.12,1.29.09.86.11,1.29c.07.85,0,1.71.05,2.56s0,1.69-.1,2.53a59.08,59.08,0,0,1-1.5,10.37l.26.14c.31-.35.6-.71.89-1.09a9.19,9.19,0,0,0,.8-1.16c.24-.4.48-.8.71-1.22s.41-.85.59-1.28a18.31,18.31,0,0,0,.93-2.7,19.11,19.11,0,0,0,.49-2.82,17.08,17.08,0,0,0,0-2.86A26.72,26.72,0,0,0,407.4,82c-.08-.46-.17-.93-.29-1.38s-.23-.92-.39-1.36-.33-.88-.5-1.32l-.59-1.27c-.82-1.68-1.64-3.3-2.33-5s-1.2-3.51-2-5.17a13.68,13.68,0,0,0-1.5-2.34A24,24,0,0,0,398,62.1a16.81,16.81,0,0,0-4.45-3.37Z"/><path class="cls-8" d="M286.22,6.3a13.15,13.15,0,0,0-3.34.87,20.12,20.12,0,0,0-3.1,1.5,24.51,24.51,0,0,0-2.82,2l-.67.54c-.21.2-.42.39-.62.6A14,14,0,0,0,274.49,13a25.88,25.88,0,0,0-2,2.81c-.29.5-.62,1-.9,1.45s-.57,1-.88,1.45c-.15.23-.3.47-.46.7l-.44.71c-.3.48-.61.94-.93,1.41-.62.93-1.21,1.89-1.86,2.83-.32.47-.58,1-.87,1.47s-.56,1-.83,1.5c-.53,1-1,1.92-1.47,2.89-.25.47-.54.92-.8,1.38a15.14,15.14,0,0,1-.82,1.35c-.61.85-1.14,1.75-1.8,2.53l-.45.62c-.16.21-.34.38-.5.57l-.51.57-.24.29-.28.26a14,14,0,0,1-2.33,1.87,10.16,10.16,0,0,1-5.89,1.7l-.1.28a8.58,8.58,0,0,0,7,.14,14.31,14.31,0,0,0,5.77-4.3,18.38,18.38,0,0,0,2-2.93c.57-1,1-2.08,1.5-3.13s.81-2.16,1.15-3.22.59-2.1.94-3.13c.2-.51.38-1,.59-1.54a11.83,11.83,0,0,1,.67-1.5c.26-.48.53-1,.82-1.42.14-.24.28-.47.43-.7s.33-.44.5-.65c.34-.43.7-.85,1.06-1.26s.79-.76,1.19-1.13c.79-.76,1.68-1.41,2.48-2.12.41-.35.83-.68,1.22-1,.21-.18.4-.37.59-.54s.41-.35.61-.53c.79-.72,1.62-1.39,2.44-2.09,1.66-1.36,3.38-2.68,5.2-4Z"/><path class="cls-6" d="M241.21,56.24a27.48,27.48,0,0,0,9.65-1.65,29.29,29.29,0,0,0,8.58-4.82A28.16,28.16,0,0,0,263,46.32c.56-.61,1-1.28,1.56-1.92s1-1.34,1.37-2l.63-1.06c.21-.36.39-.73.58-1.09.4-.72.73-1.47,1.07-2.21s.6-1.53.9-2.29.51-1.56.76-2.34a42.86,42.86,0,0,1-4.33,8.74,9.86,9.86,0,0,1-.69,1l-.71,1c-.51.63-1,1.28-1.55,1.87a27.61,27.61,0,0,1-3.5,3.34,30.09,30.09,0,0,1-8.37,4.86,31.53,31.53,0,0,1-4.65,1.41A27.24,27.24,0,0,1,241.21,56.24Z"/><path class="cls-6" d="M251.93,118.79a7.61,7.61,0,0,0,1.22-3,13.29,13.29,0,0,0,.24-3.21,19.89,19.89,0,0,0-1.36-6.28,14.82,14.82,0,0,0-.61-1.48l-.66-1.47c-.53-.93-1-1.89-1.58-2.79S248,98.82,247.41,98s-1.3-1.7-2-2.52c.56.91,1.15,1.79,1.72,2.68s1.09,1.82,1.63,2.73,1,1.87,1.46,2.8l.64,1.45a15.29,15.29,0,0,1,.58,1.46L252,108l.41,1.52a19.11,19.11,0,0,1,.52,3.1,13.12,13.12,0,0,1-.06,3.13A8.21,8.21,0,0,1,251.93,118.79Z"/><path class="cls-6" d="M289.62,102.3c-.65,1-1.33,2-2.06,3s-1.48,1.93-2.28,2.84a39.31,39.31,0,0,1-5.18,5.06,28.64,28.64,0,0,1-6.07,3.89,25.07,25.07,0,0,1-6.9,2.16,22,22,0,0,0,3.61-.55,22.31,22.31,0,0,0,3.48-1.19,23,23,0,0,0,3.26-1.72,30.12,30.12,0,0,0,3-2.13,36.37,36.37,0,0,0,5.15-5.23A33.75,33.75,0,0,0,289.62,102.3Z"/><path class="cls-6" d="M299.43,37.05a22.67,22.67,0,0,0-4.51,5.61,29.73,29.73,0,0,0-2.72,6.69,64.32,64.32,0,0,0-1.91,14.28c-.18,4.8-.17,9.6-.45,14.38a53.33,53.33,0,0,1-.81,7.12A26.53,26.53,0,0,1,286.88,92a25.26,25.26,0,0,0,2.44-6.77,55.45,55.45,0,0,0,1-7.14c.38-4.8.35-9.6.58-14.38a67.7,67.7,0,0,1,1.76-14.2A26.23,26.23,0,0,1,299.43,37.05Z"/><path class="cls-6" d="M299.43,37.05c.92-.71,1.82-1.44,2.73-2.16l1.45-1,.72-.48a5.55,5.55,0,0,1,.74-.44c.52-.27,1-.53,1.53-.81a7.94,7.94,0,0,1,.77-.39l.8-.32c.54-.2,1.06-.45,1.61-.61l1.67-.44a17,17,0,0,1,6.81-.15,15.82,15.82,0,0,1,6.35,2.62A13.32,13.32,0,0,0,321.69,31a15.59,15.59,0,0,0-1.64-.66l-.84-.27c-.28-.09-.57-.14-.86-.21a16.83,16.83,0,0,0-7,0l-1.71.48c-.57.17-1.1.44-1.64.65l-.82.34c-.27.11-.52.28-.78.41l-1.53.87a6.2,6.2,0,0,0-.73.49l-.71.52-1.41,1C301.13,35.46,300.26,36.24,299.43,37.05Z"/><path class="cls-6" d="M401.88,74.79a30,30,0,0,0-2.4-6.58,23.94,23.94,0,0,0-4.17-5.66c-1.65-1.67-3.3-3.3-4.78-5.08a61.82,61.82,0,0,1-4.1-5.63c.55,1,1.1,2.06,1.73,3,.31.49.63,1,1,1.46s.66,1,1,1.42a66.52,66.52,0,0,0,4.71,5.2,25.23,25.23,0,0,1,4.2,5.46,16.18,16.18,0,0,1,.81,1.54c.13.26.26.52.38.78l.34.8C401.1,72.6,401.45,73.71,401.88,74.79Z"/><path class="cls-6" d="M382.4,79.67a33.13,33.13,0,0,1-5.3-1A41.3,41.3,0,0,1,372,76.87a41.58,41.58,0,0,1-9.33-5.31,39,39,0,0,1-4.11-3.48,45.65,45.65,0,0,1-3.65-4,54.74,54.74,0,0,1-5.91-9c.39.81.76,1.64,1.18,2.44s.83,1.61,1.31,2.38.95,1.54,1.47,2.29,1,1.47,1.6,2.2a37.75,37.75,0,0,0,3.62,4.06A38.93,38.93,0,0,0,362.32,72a40.42,40.42,0,0,0,9.52,5.26A34.38,34.38,0,0,0,382.4,79.67Z"/><path class="cls-6" d="M320,19.23a20.38,20.38,0,0,1-.75-2.53,12.54,12.54,0,0,1-.37-2.58,6.3,6.3,0,0,1,.35-2.49,3.16,3.16,0,0,1,1.58-1.77,5.85,5.85,0,0,1,2.43-.56,14.93,14.93,0,0,1,2.58.18l.65.1.64.13c.43.09.86.19,1.28.3.87.19,1.7.47,2.56.69A26,26,0,0,0,325.92,9a13.26,13.26,0,0,0-2.68-.3,6.38,6.38,0,0,0-2.69.6,3.71,3.71,0,0,0-1.83,2.1,6.34,6.34,0,0,0-.28,2.72A14.21,14.21,0,0,0,320,19.23Z"/><path class="cls-6" d="M319.57,24.08a19.6,19.6,0,0,0-9.73-5.93,26.31,26.31,0,0,0-11.51-.37A29.4,29.4,0,0,0,287.61,22a27.24,27.24,0,0,0-8.14,8.07,26.67,26.67,0,0,1,3.83-4.25,30.17,30.17,0,0,1,15.13-7.47,30.77,30.77,0,0,1,5.66-.49,25.4,25.4,0,0,1,5.63.73,21.66,21.66,0,0,1,5.3,2.06A17.88,17.88,0,0,1,319.57,24.08Z"/><path class="cls-6" d="M258.45,97.88a7.43,7.43,0,0,1-2.23-1.26,9.2,9.2,0,0,1-1.77-1.81,12.2,12.2,0,0,1-2-4.63,20.84,20.84,0,0,1-.41-2.51c0-.85-.08-1.71-.1-2.57s0-1.72.11-2.57.18-1.72.24-2.59c-.19.85-.35,1.7-.53,2.55s-.18,1.73-.28,2.6c0,.43,0,.87,0,1.31s0,.88,0,1.31a19.11,19.11,0,0,0,.39,2.61,11.36,11.36,0,0,0,2.22,4.77A8,8,0,0,0,258.45,97.88Z"/><path class="cls-6" d="M264.4,96.69a5.27,5.27,0,0,1-4.34.12,6,6,0,0,1-1.74-1.32c-.25-.26-.47-.57-.7-.86l-.61-.95-.47.22c.59,1.35,1.21,2.68,1.91,4-.42-1.41-.9-2.8-1.42-4.18l-.48.23.59,1c.25.31.47.64.74.94a5.9,5.9,0,0,0,2,1.4,4.51,4.51,0,0,0,2.38.27,5.41,5.41,0,0,0,.58-.12l.56-.19A4.68,4.68,0,0,0,264.4,96.69Z"/><path class="cls-6" d="M264.76,61.15a37.11,37.11,0,0,0-4.3,8.5,33.89,33.89,0,0,0-2,9.34,25.66,25.66,0,0,0,.13,4.8,21.48,21.48,0,0,0,1,4.69,23,23,0,0,0,4.79,8.21,27.57,27.57,0,0,1-2.56-4c-.4-.68-.69-1.42-1-2.13a22.6,22.6,0,0,1-.77-2.23c-.25-.75-.4-1.52-.58-2.28s-.29-1.55-.35-2.33A25.44,25.44,0,0,1,259,79a35.75,35.75,0,0,1,1.85-9.24,43.68,43.68,0,0,1,1.71-4.41A42.07,42.07,0,0,1,264.76,61.15Z"/><path class="cls-6" d="M290.73,55.64c-.33,2.3-.72,4.59-1.19,6.86s-1,4.54-1.55,6.78a95.15,95.15,0,0,1-4.32,13.2,61.87,61.87,0,0,1-3,6.27,48.14,48.14,0,0,1-3.79,5.8,27.49,27.49,0,0,1-4.86,4.9,20.55,20.55,0,0,1-6.07,3.3,19.9,19.9,0,0,0,6.25-3.07,27.23,27.23,0,0,0,5-4.85,49.79,49.79,0,0,0,6.94-12.12c.9-2.15,1.66-4.36,2.37-6.58s1.33-4.47,1.84-6.74A100.14,100.14,0,0,0,290.73,55.64Z"/><path class="cls-6" d="M397.87,99c-.27.58-.5,1.17-.75,1.75s-.46,1.19-.66,1.8a16.08,16.08,0,0,0-.78,3.78,10,10,0,0,0,.45,3.85c.05.15.1.31.16.46l.2.44a4.69,4.69,0,0,0,.45.86,9.17,9.17,0,0,0,1.17,1.52,10.81,10.81,0,0,1-1.83-7.09,21.23,21.23,0,0,1,.62-3.69C397.2,101.41,397.59,100.2,397.87,99Z"/><path class="cls-6" d="M377.91,40.25c.48,2.6,1.15,5.16,1.86,7.71.36,1.27.75,2.53,1.15,3.79s.82,2.51,1.29,3.75A110.3,110.3,0,0,0,388.6,70c2.44,4.71,5.64,9,7.87,13.72a25,25,0,0,1,2.34,7.46,15.52,15.52,0,0,1-.07,3.91,30.54,30.54,0,0,1-.87,3.85,17.76,17.76,0,0,0,1.3-7.8A22.86,22.86,0,0,0,397,83.52a57.51,57.51,0,0,0-3.85-7c-.71-1.12-1.38-2.24-2.08-3.36s-1.29-2.29-1.94-3.44a119.3,119.3,0,0,1-6.53-14.38A117.44,117.44,0,0,1,377.91,40.25Z"/><path class="cls-6" d="M405.15,65a11.85,11.85,0,0,1-3.52-.06,14.35,14.35,0,0,1-3.34-1,16.21,16.21,0,0,1-1.56-.78c-.25-.14-.52-.27-.75-.43l-.74-.49a8.58,8.58,0,0,1-.71-.52l-.7-.54c-.46-.37-.89-.78-1.35-1.15.37.47.75.92,1.15,1.37A17.2,17.2,0,0,0,395,62.63a13.51,13.51,0,0,0,3.09,1.88,11.58,11.58,0,0,0,3.52.87A8.46,8.46,0,0,0,405.15,65Z"/><path class="cls-6" d="M345.49,33.61c1.29.71,2.59,1.37,3.85,2.11.65.35,1.28.72,1.9,1.1s1.26.74,1.87,1.14a50.42,50.42,0,0,1,7,5.19,32.43,32.43,0,0,1,5.7,6.56,34.14,34.14,0,0,1,3.79,7.86c-.2-.7-.4-1.41-.62-2.11s-.49-1.38-.76-2.07-.59-1.35-.94-2-.67-1.32-1.08-1.93a31.18,31.18,0,0,0-5.69-6.75,46.89,46.89,0,0,0-7.17-5.14A71.36,71.36,0,0,0,345.49,33.61Z"/><path class="cls-6" d="M322.88,26.1a29.21,29.21,0,0,1-.5-4.84,12.06,12.06,0,0,1,.18-2.41,3.92,3.92,0,0,1,1-2.11,2.14,2.14,0,0,1,2.13-.39,10.09,10.09,0,0,1,2.17,1,12.45,12.45,0,0,1,3.45,3.26c1,1.29,1.82,2.68,2.81,4a29.15,29.15,0,0,0,3.21,3.72,27.2,27.2,0,0,0,8.2,5.31,32.44,32.44,0,0,1-7.84-5.67,28.93,28.93,0,0,1-3.1-3.7c-.94-1.32-1.84-2.67-2.84-4A11.88,11.88,0,0,0,328,17a10.66,10.66,0,0,0-2.3-.93,3.24,3.24,0,0,0-1.28-.09,2.15,2.15,0,0,0-1.16.59,4.21,4.21,0,0,0-1,2.29,13.37,13.37,0,0,0-.11,2.45A27.24,27.24,0,0,0,322.88,26.1Z"/><path class="cls-6" d="M345.24,10.63A9.54,9.54,0,0,0,347.59,13c.45.34.93.63,1.41.93s1,.55,1.48.78a24.82,24.82,0,0,0,6.39,2c1.1.24,2.21.32,3.32.46s2.22.13,3.34.15,2.22,0,3.33-.09l3.32-.33c-1.12,0-2.22,0-3.33,0s-2.21,0-3.31-.07-2.2-.14-3.3-.26-2.19-.23-3.26-.48a28.85,28.85,0,0,1-6.31-1.82c-.51-.19-1-.46-1.49-.69s-1-.53-1.42-.83A10.88,10.88,0,0,1,345.24,10.63Z"/><path class="cls-2" d="M346.24,218.89l-8.72,6.93-.4.33-.76.6-9.11,41-.18.83-3.64,16.35V493.47l-7.22,12.17-.32.53-9.28,15.65L303,497.6l.39-20.61,0-1.22,1.18-61.9,0-1.21,1.18-61.9,0-1.21.06-3.39a343.41,343.41,0,0,1,4.67-50.22q.06-.45.15-.9,1.67-9.82,3.9-19.55L320,252.1l.19-.82,6.21-26.93-.67-10.14,4.48-4.15.39-.36,8.73-8.09Z"/><polygon class="cls-12" points="337.52 225.82 337.12 226.15 330.24 210.06 330.63 209.7 337.52 225.82"/><polygon class="cls-12" points="327.25 267.72 327.07 268.55 320.03 252.1 320.22 251.28 327.25 267.72"/><path class="cls-12" d="M323.43,324.72V326l-12.84-30q.06-.45.15-.9Z"/><polygon class="cls-12" points="323.43 390.66 323.43 391.93 305.83 350.76 305.86 349.55 323.43 390.66"/><polygon class="cls-12" points="323.43 456.59 323.43 457.86 304.63 413.87 304.65 412.66 323.43 456.59"/><polygon class="cls-12" points="316.21 505.64 315.89 506.17 303.42 476.99 303.45 475.77 316.21 505.64"/><g class="cls-5"><path class="cls-13" d="M278.75,481.47c-11.86,24.72-15.91,60-15.91,60l-3,20.12c-6.83,16.82-10.6,38.39-12.1,62.72l-21.75,8a8.71,8.71,0,0,1-11.71-8.75c.24-3.74.54-8.2.9-13.26v0l9.89-72.09c2.65-19.65,9.6-38.88,17.2-57.18,20.57-49.51,34-113.91,34-113.91Z"/></g><g class="cls-5"><path class="cls-13" d="M487.71,457.84c17.45-19,37.85-10.31,37.85-10.31l-9.48-6.27A13,13,0,0,0,498.75,444Z"/></g><g class="cls-5"><path class="cls-13" d="M243.93,369.89,209.3,375l7.46-4.51a57.84,57.84,0,0,0,25.45-32.79l11.32-37.49Z"/></g><g class="cls-5"><path class="cls-13" d="M486.62,630.43c23.81-44,42.37-88,42.37-88l-12.84,46.22a75.73,75.73,0,0,1-29.53,41.75Z"/></g><g class="cls-5"><path class="cls-6" d="M415.86,550.72l-25.38,4.17c-32.59-72.63-37.88-141.77-38.13-145.15a252.4,252.4,0,0,0,61,138.11C414.16,548.81,415,549.77,415.86,550.72Z"/></g><g class="cls-5"><path class="cls-13" d="M461.58,311.9l14.87,180.62,4.77-23.89s.43-4.28,6.49-10.79l-3.25-4.63s-1.58-3-.91-5.8a16.89,16.89,0,0,1,2.58-5.35l-7.75-11.68s-3.43-4.94-4.4-15.2Z"/></g><g class="cls-5"><path class="cls-6" d="M346.24,218.89l3.8,9.63s-6.6-6-13.69-1.77Z"/></g><g class="cls-5"><path class="cls-6" d="M301,267.57C284.73,326,277.74,435.75,277.74,435.75l-1.52-68.68s8.59-50.72,24.75-99.4Z"/></g><g class="cls-5"><path class="cls-13" d="M403.86,480.42s18.49,68.67,39.32,107.37l3.61-8.26Z"/></g><path class="cls-14" d="M493,210.74a43.69,43.69,0,0,0-7.78,3.3,51.75,51.75,0,0,0-7.14,4.51,50.19,50.19,0,0,0-11.66,12.1,47.66,47.66,0,0,0-4.17,7.32c-.63,1.26-1.1,2.59-1.64,3.89l-.67,2a20.34,20.34,0,0,0-.63,2,68.66,68.66,0,0,0-2.54,16.69A63.52,63.52,0,0,1,459,245.77c.33-1.38.83-2.71,1.27-4.06s1-2.66,1.63-3.93a47.72,47.72,0,0,1,4.17-7.41,49.8,49.8,0,0,1,11.84-12.13A48.78,48.78,0,0,1,493,210.74Z"/><path class="cls-14" d="M533,305.68a27.44,27.44,0,0,1,.18,7.41,22,22,0,0,1-2,7.16,15,15,0,0,1-4.86,5.62,16.28,16.28,0,0,1-6.93,2.56,20.25,20.25,0,0,0,3.52-1.1,14.46,14.46,0,0,0,3.19-1.78,14.85,14.85,0,0,0,4.63-5.53,22.29,22.29,0,0,0,2.1-7,29.93,29.93,0,0,0,.3-3.67A26.76,26.76,0,0,0,533,305.68Z"/><path class="cls-3" d="M400.26,184.89c-3.18,5.13-6.57,10.12-10.09,15s-7.16,9.71-10.91,14.43-7.65,9.34-11.69,13.83-8.22,8.83-12.51,13.07c2.06-2.2,4.19-4.34,6.19-6.6l3.05-3.33,3-3.4c2-2.25,3.93-4.57,5.89-6.86s3.84-4.64,5.7-7c3.77-4.69,7.43-9.49,11-14.34S396.92,189.92,400.26,184.89Z"/><path class="cls-3" d="M279.09,484.6c.18,1.53.43,3,.75,4.55s.64,3,1,4.49a66.64,66.64,0,0,0,2.93,8.72,50.69,50.69,0,0,0,4.29,8.11l1.32,1.88c.44.63,1,1.18,1.46,1.78a35.73,35.73,0,0,0,3.18,3.34,34.56,34.56,0,0,1-6.28-6.78,47.5,47.5,0,0,1-4.43-8.14,61.09,61.09,0,0,1-2.84-8.81A54.44,54.44,0,0,1,279.09,484.6Z"/><path class="cls-3" d="M346.24,218.89c1.66,3.65,3.14,7.37,4.64,11.09s2.9,7.47,4.18,11.27c-1.67-3.65-3.15-7.37-4.64-11.09S347.52,222.69,346.24,218.89Z"/><path class="cls-14" d="M487.71,457.84c-1,1.17-2,2.3-2.9,3.5a21.25,21.25,0,0,0-2.3,3.9c-1.32,2.75-1.66,5.8-2.27,8.76l-3.48,17.85-7,35.7v.05l-13.25,30.11q-6.6,15.07-13.33,30.08,6.46-15.12,13-30.21l13.1-30.17v.05l7.13-35.67L480,474l.92-4.45a20.49,20.49,0,0,1,1.47-4.31,20.25,20.25,0,0,1,2.37-3.88C485.7,460.11,486.73,459,487.71,457.84Z"/><path class="cls-14" d="M486.13,442.06a20.43,20.43,0,0,0-2,3.88,9.24,9.24,0,0,0-.36,4.24,9.15,9.15,0,0,0,1.52,4c.82,1.22,1.65,2.43,2.43,3.68-.95-1.13-1.86-2.28-2.75-3.45a9.32,9.32,0,0,1-1.69-4.14,9.18,9.18,0,0,1,.49-4.44,9.62,9.62,0,0,1,1.05-2C485.24,443.24,485.68,442.64,486.13,442.06Z"/><path class="cls-14" d="M457.49,277.85l2.63,20.87,2.55,20.89,5.1,41.76,4.94,41.79,1.23,10.45c.45,3.47.64,7,1.72,10.33a32.59,32.59,0,0,0,4.67,9.34l5.8,8.78-5.9-8.71a32.69,32.69,0,0,1-4.8-9.34c-1.12-3.36-1.32-6.91-1.78-10.37l-1.27-10.44-5.1-41.77-4.94-41.79-2.46-20.89Z"/><path class="cls-14" d="M518.46,399q-3.93,5.48-7.93,10.89l-8,10.81-8.12,10.74q-4.1,5.36-8.24,10.66,3.93-5.46,7.93-10.89l8-10.81,8.13-10.74Q514.3,404.27,518.46,399Z"/><path class="cls-14" d="M525.56,447.53a29.06,29.06,0,0,0-5-1.27c-.85-.13-1.71-.25-2.57-.34s-1.72-.16-2.59-.15A32.77,32.77,0,0,0,505.13,447a19.46,19.46,0,0,0-2.45.8,18.47,18.47,0,0,0-2.4,1L498,449.93c-.75.43-1.47.91-2.21,1.35l-1.11.68c-.37.23-.69.52-1,.78l-2,1.58a8.06,8.06,0,0,0-1,.85l-.94.89-1.9,1.78,1.81-1.87.91-.94a8,8,0,0,1,.95-.89l2-1.66c.35-.26.67-.57,1-.81l1.1-.71c.73-.47,1.45-1,2.21-1.4l2.35-1.17a17.6,17.6,0,0,1,2.42-1,19.65,19.65,0,0,1,2.49-.83,32.2,32.2,0,0,1,10.38-1.18A30.83,30.83,0,0,1,525.56,447.53Z"/><path class="cls-14" d="M276.24,367.08c-2.11,10.27-4.52,20.48-7.09,30.65s-5.31,20.29-8.34,30.33-6.19,20.05-9.71,29.92l-1.31,3.71-1.37,3.69c-.92,2.46-1.78,4.93-2.75,7.37l-2.9,7.31-2.94,7.29a284.58,284.58,0,0,0-10.14,29.74c-1.38,5-2.56,10.16-3.47,15.31S224.71,542.77,224,548c-1.4,10.39-2.88,20.77-4.35,31.15l-4.42,31.15h0l4.14-31.18c1.37-10.4,2.75-20.79,4.2-31.18.74-5.19,1.36-10.39,2.27-15.57s2.1-10.29,3.49-15.35a271.2,271.2,0,0,1,10.32-29.72l3-7.28,2.93-7.29c1-2.43,1.85-4.9,2.78-7.35s1.8-4.93,2.65-7.41c3.46-9.89,6.58-19.91,9.53-30s5.74-20.17,8.37-30.32,5.08-20.34,7.37-30.57Z"/><path class="cls-14" d="M243.93,369.89l1.39-12.55,1.56-12.54q1.6-12.54,3.4-25c1.24-8.33,2.58-16.65,4-25,.71-4.15,1.42-8.3,2.18-12.44s1.6-8.27,2.41-12.4c-.73,4.14-1.49,8.29-2.17,12.44s-1.41,8.3-2.09,12.46q-2,12.47-3.81,25t-3.56,25Z"/><path class="cls-14" d="M196.32,314.39a29.67,29.67,0,0,0-2.82,2.9,31.47,31.47,0,0,0-2.47,3.18,23.51,23.51,0,0,0-3.43,7.2,15.9,15.9,0,0,0-.23,7.9,16.4,16.4,0,0,0,1.35,3.76,21.77,21.77,0,0,0,2.1,3.45,18,18,0,0,1-3.82-7.12,16,16,0,0,1,.11-8.12,23.34,23.34,0,0,1,3.61-7.29A29.35,29.35,0,0,1,196.32,314.39Z"/><path class="cls-14" d="M323.1,209.19a81.58,81.58,0,0,0-13.93,14.23A133.24,133.24,0,0,0,298.07,240a192.72,192.72,0,0,0-15.73,36.62,273.84,273.84,0,0,0-8.94,38.91c-2.22,13.13-4.24,26.3-6.17,39.48-3.85,26.36-7.82,52.74-13.56,78.78-.74,3.25-1.39,6.52-2.2,9.75l-2.38,9.71c-.81,3.23-1.72,6.44-2.58,9.66l-1.3,4.82-1.41,4.8c-3.64,12.82-8,25.43-12.37,38l-.05,0a635.53,635.53,0,0,0,21.81-76.83c5.77-26,9.67-52.38,13.72-78.72,2-13.17,4-26.33,6.33-39.46a281.21,281.21,0,0,1,8.78-39c2-6.36,4.24-12.64,6.84-18.79a166.62,166.62,0,0,1,8.89-17.91A135.33,135.33,0,0,1,309,223.26a94.37,94.37,0,0,1,6.62-7.5,59.53,59.53,0,0,1,7.49-6.61Z"/><path class="cls-14" d="M415.24,233.37a4.55,4.55,0,0,0,.41-3.6,4.48,4.48,0,0,0-.86-1.61c-.39-.45-.89-.87-1.33-1.31L408,221.57l-5.33-5.37c-1.77-1.79-3.52-3.62-5.25-5.46q2.79,2.56,5.52,5.19l5.41,5.28,5.34,5.37c.44.46.89.87,1.31,1.39a4.52,4.52,0,0,1,.85,1.73A4.68,4.68,0,0,1,415.24,233.37Z"/><path class="cls-14" d="M357.42,439.11a106.06,106.06,0,0,1-2-13.51c-.39-4.54-.64-9.09-.68-13.65a209,209,0,0,1,1.42-27.28,298.39,298.39,0,0,1,11.41-53.37l2.05-6.52,2.23-6.45c.72-2.17,1.53-4.29,2.34-6.42s1.61-4.27,2.46-6.38c1.78-4.19,3.43-8.44,5.36-12.57l2.82-6.22,3-6.15c4-8.21,8.37-16.19,12.91-24.08,2.29-3.93,4.71-7.8,7.06-11.7s5-7.63,7.45-11.45l0,0L408,244.94c-2.31,3.92-4.7,7.8-7,11.75-4.47,7.93-8.8,15.94-12.79,24.12l-3,6.13-2.82,6.22c-1.93,4.12-3.58,8.36-5.37,12.54-3.31,8.47-6.58,17-9.24,25.68-.72,2.16-1.34,4.35-2,6.54s-1.3,4.36-1.84,6.57l-1.7,6.61-1.49,6.66c-1.86,8.91-3.32,17.91-4.3,26.95-.27,2.26-.45,4.53-.63,6.79s-.31,4.54-.47,6.81-.19,4.54-.29,6.82-.09,4.54-.06,6.82c0,4.55.23,9.09.59,13.63a114,114,0,0,0,1.8,13.52Z"/><path class="cls-14" d="M428.61,188.13c-.76,3.67-1.55,7.32-2.37,11l-2.5,10.94-1.3,5.46a5.19,5.19,0,0,1-1.25,2.59,4.7,4.7,0,0,1-2.51,1.42c-3.75.46-7.46.79-11.19,1.15l11.1-1.53A4.51,4.51,0,0,0,422,215.4l1.25-5.47L425.87,199Q427.19,193.56,428.61,188.13Z"/><path class="cls-14" d="M403.86,480.42c1.29,4.6,2.65,9.17,4.05,13.73s2.76,9.14,4.21,13.69C415,516.93,418,526,421.21,535s6.45,18,10.08,26.78c.86,2.23,1.86,4.4,2.78,6.6l1.41,3.29L437,574.9c1,2.16,1.93,4.36,3,6.49l3.2,6.4a280.38,280.38,0,0,1-12.2-25.9c-3.68-8.81-7-17.76-10.24-26.75s-6.1-18.09-8.94-27.21S406.29,489.65,403.86,480.42Z"/><path class="cls-14" d="M529,542.46q-2.34,5.64-4.76,11.24l-5,11.15Q514.22,576,509,587t-10.88,21.87c-3.68,7.26-7.54,14.43-11.47,21.56,1.87-3.62,3.79-7.21,5.62-10.84s3.73-7.24,5.55-10.87q5.49-10.9,10.73-21.93T519,564.72l5-11.12Q526.54,548.05,529,542.46Z"/><path class="cls-6" d="M326,581.57c-.25,3.57-.41,7.15-.5,10.72s-.2,7.15-.2,10.73c0,7.15.18,14.3.67,21.44s1.2,14.25,2.36,21.31c.29,1.76.67,3.51,1,5.27.18.87.32,1.75.53,2.62l.64,2.6.64,2.61.32,1.3.39,1.28,1.6,5.13-1.71-5.09-.43-1.27-.35-1.3-.69-2.6-.68-2.6c-.21-.87-.36-1.75-.55-2.63-.34-1.75-.73-3.5-1-5.27-1.22-7.06-2-14.19-2.52-21.33s-.58-14.31-.52-21.47S325.34,588.7,326,581.57Z"/><path class="cls-6" d="M264.66,563.21c6.27,2.59,12.68,4.81,19.14,6.89s13,4,19.53,5.68,13.17,3.27,19.82,4.48a84.65,84.65,0,0,0,20.24.8c3.36-.27,6.73-.73,10.1-1.13s6.72-.87,10.08-1.33q10.08-1.4,20.11-3.07c6.69-1.12,13.36-2.34,20-3.71S417,569,423.52,567.29c-13.09,3.58-26.41,6.28-39.78,8.57q-10,1.73-20.11,3.15-5,.72-10.09,1.37c-3.36.42-6.72.9-10.12,1.18a84.91,84.91,0,0,1-20.33-.89c-6.69-1.24-13.28-2.85-19.85-4.57A290.55,290.55,0,0,1,264.66,563.21Z"/><path class="cls-6" d="M341.74,586.44q0,4.45.15,8.91c.07,3,.18,5.94.31,8.91.27,5.93.63,11.86,1.13,17.77s1.16,11.82,1.95,17.71c.44,2.93.85,5.88,1.4,8.79s1.13,5.83,1.72,8.74c-1.44-5.76-2.6-11.6-3.5-17.48s-1.55-11.79-2.06-17.71-.83-11.87-1-17.81S341.58,592.38,341.74,586.44Z"/><path class="cls-6" d="M468.34,1137.75a49.74,49.74,0,0,0-8.84,1.47A57.17,57.17,0,0,0,451,1142a58.66,58.66,0,0,0-8,4,71.19,71.19,0,0,0-7.42,5c1.16-.94,2.28-2,3.49-2.84s2.43-1.77,3.73-2.53a55.78,55.78,0,0,1,8-4.12,54,54,0,0,1,8.6-2.71A41.4,41.4,0,0,1,468.34,1137.75Z"/><path class="cls-6" d="M409.3,1158.48a14.19,14.19,0,0,0-2.1-4.55,15.24,15.24,0,0,0-3.43-3.6,17.71,17.71,0,0,0-4.39-2.36,24.72,24.72,0,0,0-2.4-.75c-.82-.2-1.65-.34-2.48-.53.84.08,1.68.17,2.53.29a23.52,23.52,0,0,1,2.47.63l1.21.43c.4.16.77.37,1.16.56a15.89,15.89,0,0,1,2.2,1.33,14.33,14.33,0,0,1,3.45,3.79A11.92,11.92,0,0,1,409.3,1158.48Z"/><path class="cls-6" d="M458.67,874.5a15.94,15.94,0,0,0,5.26-1.48,13.44,13.44,0,0,0,4.34-3.21,15.14,15.14,0,0,0,2.84-4.6,7.27,7.27,0,0,0,.47-1.28l.4-1.32c.22-.89.36-1.79.57-2.7-.09.92-.19,1.84-.33,2.76l-.34,1.35a7,7,0,0,1-.41,1.33l-.52,1.3c-.19.42-.45.82-.67,1.23l-.35.61-.42.56a11.35,11.35,0,0,1-.87,1.1,13.15,13.15,0,0,1-4.56,3.22A13.32,13.32,0,0,1,458.67,874.5Z"/><path class="cls-6" d="M414,942.52q4.07,3.91,8.07,7.89l8,8,7.9,8.06q3.93,4,7.8,8.16c-2.72-2.61-5.41-5.23-8.08-7.89l-8-8-7.9-8.06Q417.88,946.63,414,942.52Z"/><path class="cls-6" d="M370.71,926.17c-.64,3-1.32,6-2,9l-2.15,9-2.27,9q-1.15,4.49-2.4,8.94,1-4.53,2-9l2.16-9,2.27-9Q369.48,930.63,370.71,926.17Z"/><path class="cls-6" d="M359.1,1104.93q-1.55,4.88-3.18,9.72l-3.29,9.68-3.41,9.64q-1.73,4.82-3.54,9.6,1.54-4.87,3.18-9.73l3.29-9.67,3.41-9.64Q357.29,1109.71,359.1,1104.93Z"/><path class="cls-6" d="M310.4,665.18q7.53,3.33,15,6.74l15,6.86,14.92,7q7.44,3.51,14.86,7.09-7.53-3.33-15-6.74l-15-6.86-14.92-7Q317.82,668.76,310.4,665.18Z"/><polygon class="cls-6" points="371.85 756.15 368.02 746.66 364.27 737.14 356.77 718.1 349.43 699 345.76 689.45 342.16 679.87 345.99 689.36 349.74 698.88 357.24 717.92 364.58 737.02 368.25 746.57 371.85 756.15"/><rect class="cls-12" x="392.41" y="319.92" width="50.03" height="8.51"/><path class="cls-9" d="M66.19,365.15s-11.6-20.56-2.46-41.46l-6.34-1.51h0A40.57,40.57,0,0,0,37,316.66H29.48a40.79,40.79,0,0,0-7.94.78l-4.34.87-4.1.6a4.13,4.13,0,0,0-3.51,4.5h0A4.14,4.14,0,0,0,14,327.13l3.73-.24,7.42,1.43-8.6,4.15a9.35,9.35,0,0,0-3.45,2.66L9.69,339.3l-6.64,1.93a4.2,4.2,0,0,0-1.78,7C3,349.91,5.68,351,9.88,350.11l.08.44a5.43,5.43,0,0,0,4.79,4.51l1.55.17,0,.42a7,7,0,0,0,1.27,4.57h0a7,7,0,0,0,5.13,2.9h.07l-.2,2.75A6.55,6.55,0,0,0,24.47,371h0a6.54,6.54,0,0,0,4.25,1.88l4.41.23a17.34,17.34,0,0,0,9-2l2.49-1.32S58.13,371.21,66.19,365.15Z"/><path class="cls-10" d="M25.11,328.32c1.76-1.07,3.55-2.08,5.35-3.09.89-.51,1.8-1,2.7-1.49A17.36,17.36,0,0,1,36,322.46a16.8,16.8,0,0,1,3-.72c1-.14,2.07-.19,3.09-.26,2.06-.13,4.11-.25,6.17-.31-2,.27-4.09.49-6.13.7-1,.12-2.06.16-3.06.32a16.76,16.76,0,0,0-2.95.74,41.07,41.07,0,0,0-5.53,2.64C28.81,326.51,27,327.44,25.11,328.32Z"/><path class="cls-10" d="M33.09,338.38a31,31,0,0,0,4.61,4.33,37,37,0,0,0,11.1,5.89A42.92,42.92,0,0,0,55,350.11c-1.05-.14-2.12-.21-3.16-.4s-2.09-.42-3.11-.74a31.16,31.16,0,0,1-11.23-6c-.82-.68-1.59-1.42-2.34-2.17A25,25,0,0,1,33.09,338.38Z"/><path class="cls-10" d="M9.88,350.11A21.84,21.84,0,0,0,13.14,349a27.22,27.22,0,0,0,3.09-1.46,24.47,24.47,0,0,0,2.87-1.83,26,26,0,0,0,2.59-2.21l0,0,0,0c1.88-.87,3.75-1.76,5.64-2.61s3.79-1.68,5.69-2.49c-1.83,1-3.67,1.91-5.53,2.83S23.83,343,22,343.93l.07-.05a21,21,0,0,1-2.67,2.23,20.73,20.73,0,0,1-3,1.81A22.36,22.36,0,0,1,9.88,350.11Z"/><path class="cls-10" d="M22.67,363.12c.41-.56.85-1.11,1.27-1.67a5.91,5.91,0,0,1,1.64-1.38,5.29,5.29,0,0,1,4.25-.25,4.91,4.91,0,0,1,2.94,3.05,9.81,9.81,0,0,1,.32,4.2,12.33,12.33,0,0,0-.68-4.07,4.64,4.64,0,0,0-2.76-2.72,5,5,0,0,0-3.9.14C24.51,361,23.68,362.16,22.67,363.12Z"/><path class="cls-10" d="M33.91,340.35a57.72,57.72,0,0,0,1.41,7.16,62.41,62.41,0,0,0,2.19,7,57.12,57.12,0,0,0,2.9,6.68A66.36,66.36,0,0,0,44,367.49a46.85,46.85,0,0,1-4-6.16,52.86,52.86,0,0,1-3-6.69,54.15,54.15,0,0,1-2.09-7A42.23,42.23,0,0,1,33.91,340.35Z"/><path class="cls-10" d="M16.3,355.23c1.15-.94,2.29-1.85,3.51-2.73a5,5,0,0,1,4.43-.5,4.74,4.74,0,0,1,3,3.32,10.39,10.39,0,0,1,.06,4.44,12.89,12.89,0,0,0-.43-4.34,4.4,4.4,0,0,0-2.77-2.95,4.68,4.68,0,0,0-4.06.36C18.79,353.61,17.56,354.46,16.3,355.23Z"/><path class="cls-10" d="M19.09,353.23a5.38,5.38,0,0,0,.46-3.37,5.91,5.91,0,0,0-.6-1.59,14.55,14.55,0,0,0-1-1.48c.25.18.48.38.71.58a8.17,8.17,0,0,1,.6.7,4.47,4.47,0,0,1,.76,1.69A4,4,0,0,1,19.09,353.23Z"/><path class="cls-10" d="M32,361.8a13.17,13.17,0,0,0,3.69-1.06,13.7,13.7,0,0,0,1.68-.92c.55-.33,1-.74,1.58-1.14a6.68,6.68,0,0,1-1.36,1.45,7.07,7.07,0,0,1-1.69,1.06,7.62,7.62,0,0,1-1.92.59A6,6,0,0,1,32,361.8Z"/><path class="cls-10" d="M23.35,351.92c2-.53,4.06-1.09,6-1.75,1-.32,2-.7,2.94-1.08s1.91-.84,2.86-1.31a19.24,19.24,0,0,1-5.64,2.86,27.7,27.7,0,0,1-3.06.83A22.19,22.19,0,0,1,23.35,351.92Z"/><path class="cls-6" d="M63.73,323.69h5.7s-9.83,13.26-2,41l-1.25.47S54.47,342.37,63.73,323.69Z"/><path class="cls-4" d="M454.08,591.91s17.77,14.23,28.79,31.3l-4.37,10.18s-9.74-12.22-35.24-22.14Z"/><path class="cls-9" d="M470.18,662.6s-2.3-19.12-26.92-51.35c0,0,19.16,5.78,33.72,20.47C477,631.72,476,651.27,470.18,662.6Z"/></g></g></g></svg>