<?xml version="1.0" encoding="utf-8"?>
<!-- Generator: Adobe Illustrator 24.1.2, SVG Export Plug-In . SVG Version: 6.00 Build 0)  -->
<svg version="1.1" xmlns="http://www.w3.org/2000/svg" xmlns:xlink="http://www.w3.org/1999/xlink" x="0px" y="0px"
	 viewBox="0 0 2500 2100" style="enable-background:new 0 0 2500 2100;" xml:space="preserve">
<style type="text/css">
	.st0{fill:#F0F2F5;}
	.st1{fill:#08C7D1;}
	.st2{fill:#9665FD;}
	.st3{opacity:0.4;}
	.st4{fill:#A65B3C;}
	.st5{fill:#70229A;}
	.st6{fill:#FFC89F;}
	.st7{fill:#FF9A6C;}
	.st8{fill:#1B1B2F;}
	.st9{fill:#E43F5A;}
	.st10{fill:#FFFFFF;}
	.st11{fill:#1F4068;}
</style>
<g id="BACK">
	<g>
		<g>
			<g>
				<g>
					<path class="st0" d="M2012.4,427.9L463.5,305.4c-47.3-3.7-87.8,33.6-87.8,81.1v903.9c0,46.5,38.9,83.6,85.4,81.3l1202.4-59.6
						l-16.3,278.5l262.3-290.7l100.5-5c43.3-2.1,77.3-37.9,77.3-81.3V509.1C2087.4,466.6,2054.7,431.3,2012.4,427.9z"/>
				</g>
				<g>
					<path class="st1" d="M1683.5,1554.3l0.1-1.4l16.3-277.9l-1201.8,59.6c-22.6,1.1-44.1-6.9-60.5-22.5
						c-16.4-15.6-25.4-36.7-25.4-59.3V348.8c0-22.8,9.6-44.7,26.3-60.1c16.7-15.4,39.3-23.3,62-21.5l1548.9,122.5
						c20.6,1.6,39.7,10.9,53.7,26.1c14,15.2,21.7,34.9,21.7,55.6V1176c0,43.7-34.2,79.6-77.8,81.8l-100.3,5L1683.5,1554.3z
						 M1701,1273.9l0,0.6l-16.2,277l261.5-289.8l0.2,0l100.5-5c43.1-2.1,76.9-37.6,76.9-80.8V471.3c0-41.9-32.7-77.3-74.5-80.6
						L500.4,268.2c-22.4-1.8-44.7,6-61.3,21.2c-16.5,15.3-26,36.9-26,59.4v903.9c0,22.4,8.9,43.2,25.1,58.6
						c16.2,15.4,37.4,23.3,59.8,22.2L1701,1273.9z"/>
				</g>
			</g>
		</g>
	</g>
</g>
<g id="CHARACTER">
	<g>
		<g>
			<path class="st2" d="M962.5,1213.6c0,0-147.7,36.3-346.1,100c-6.1,2-10.6,7.1-11.7,13.4l-1.1,6.5l0,0c-6.4-4.6-12.3-6.7-19-0.7
				c-42.9,38.1-114.9,165.1-155.8,433.2h1798.7c0,0-98.1-202.4-200.5-310.9l0,0c6.8-0.7,10.6-8.3,7-14.1l-31.5-52.4
				c-8.7-14.5-24.1-23.6-41-24.3c-28.2-1.1-75.1,0-126.9,13.8c0,0-121.1-109.3-325.4-127.5c0,0-13.5-60-80.8-5.1
				c-104.5,85.3-270.6,58.2-335.1-10.4C1056.8,1196.4,977.7,1153.4,962.5,1213.6z"/>
		</g>
		<g class="st3">
			<path class="st4" d="M655.2,1764.4c-3.3-77.5-23.2-146.5-37.4-228.3c0,0,23.6,159.7-12.1,228.3H655.2z"/>
		</g>
		<g class="st3">
			<path class="st4" d="M924.5,1447c0,0,86,246.7,403.2,319.1C1327.7,1766.1,1009.9,1663,924.5,1447z"/>
		</g>
		<g class="st3">
			<path class="st4" d="M1647.3,1766.1c14.3-226.6,75.8-382.4,75.8-382.4s-53.1,139.5-51.8,282.6c0.6,63.9,17.8,52.8,40,8.9
				c17.5-34.7,40.1-78.3,70.9-121.7c0,0-61.1,90-81.4,212.5H1647.3z"/>
		</g>
		<g class="st3">
			<path class="st4" d="M1776.7,1533.1c0,0,111.1-83.4,250.2-77.9C2026.9,1455.2,1886.1,1468.4,1776.7,1533.1z"/>
		</g>
		<g class="st3">
			<path class="st4" d="M962.5,1222.8c19.9,171.1,223.2,257.3,378,212.4C1340.5,1435.2,1011.5,1548,962.5,1222.8z"/>
		</g>
		<g>
			<path class="st5" d="M603.7,1357.5c0.2,8.6,0.3,17.1,0.3,25.7l0,6.4l0.3,6.4l0.5,12.8c0.2,4.3,0.3,8.6,0.5,12.8l0.9,12.8
				c0.3,4.3,0.6,8.5,0.9,12.8c0.1,2.1,0.4,4.3,0.6,6.4l0.6,6.4c0.8,8.5,1.4,17.1,2.5,25.5c1.1,8.5,1.9,17,3.3,25.5
				c2.4,16.9,5.5,33.8,8.9,50.6c3.4,16.8,7,33.5,10.4,50.3c1.8,8.4,3.5,16.8,5.2,25.2c0.9,4.2,1.7,8.4,2.5,12.6l2.3,12.6
				c6.2,33.7,10.9,67.8,11.8,102.1l-0.2,0c-0.7-8.5-1.3-17.1-2.1-25.6l-1.5-12.7c-0.5-4.2-0.9-8.5-1.6-12.7l-1.9-12.7
				c-0.3-2.1-0.6-4.2-0.9-6.3l-1.1-6.3l-2.2-12.6c-0.7-4.2-1.5-8.4-2.3-12.6l-2.4-12.6l-2.5-12.6c-1.6-8.4-3.3-16.8-5-25.2
				c-3.4-16.8-6.7-33.6-9.7-50.5c-1.6-8.4-2.9-16.9-4.4-25.3l-1.1-6.3l-1-6.3l-2-12.7l-1-6.3l-0.9-6.4l-1.8-12.7
				c-1.3-8.5-2.1-17-3.1-25.5c-3.4-34.1-4.5-68.5-3.2-102.7L603.7,1357.5z"/>
		</g>
		<g>
			<path class="st5" d="M1822.8,1704.8c-2.1,4.8-3.8,9.8-5.2,14.8c-0.7,2.5-1.4,5-2,7.6l-0.9,3.8l-0.8,3.8c-0.3,1.3-0.5,2.6-0.7,3.9
				c-0.2,1.3-0.5,2.6-0.6,3.9l-0.5,3.9c-0.2,1.3-0.3,2.6-0.4,3.9c-0.3,2.6-0.4,5.2-0.6,7.8c-0.2,2.6-0.2,5.2-0.4,7.9
				c-0.3-2.6-0.5-5.3-0.6-7.9c0-2.6-0.1-5.3,0.1-7.9c0.2-5.3,0.9-10.6,1.9-15.8c1-5.2,2.4-10.3,4.2-15.3
				C1817.8,1714.2,1820,1709.3,1822.8,1704.8z"/>
		</g>
		<g>
			<path class="st5" d="M1776.7,1533.1c2.1,7.1,4.1,14.2,6.2,21.3l6,21.4c4,14.3,7.8,28.6,11.7,42.9c3.8,14.3,7.6,28.6,11.3,43
				l5.5,21.5c1.8,7.2,3.6,14.4,5.3,21.6c-2.1-7.1-4.1-14.2-6.2-21.3l-6-21.4c-4-14.3-7.8-28.6-11.7-42.9c-3.8-14.3-7.6-28.6-11.3-43
				l-5.5-21.5C1780.3,1547.5,1778.4,1540.3,1776.7,1533.1z"/>
		</g>
		<g>
			<path class="st5" d="M1776.7,1533.1c17.8-13.2,37.2-24.4,57-34.4c9.9-5,20.1-9.5,30.4-13.7c10.3-4.2,20.7-8.1,31.3-11.5
				c10.6-3.3,21.3-6.4,32.2-8.9c2.7-0.7,5.4-1.2,8.1-1.8l4.1-0.9c1.4-0.3,2.7-0.5,4.1-0.8l8.2-1.5l8.3-1.2c22-3.2,44.3-4.2,66.5-3.1
				c-11.1,0-22.2-0.1-33.3,0.9c-5.5,0.3-11,1-16.6,1.5c-2.8,0.3-5.5,0.7-8.2,1.1l-4.1,0.5c-1.4,0.2-2.7,0.4-4.1,0.7l-8.2,1.4
				l-8.2,1.6c-1.4,0.3-2.7,0.5-4.1,0.8l-4.1,0.9c-2.7,0.6-5.4,1.2-8.1,1.8c-10.8,2.6-21.4,5.7-32,9.1c-21.1,6.8-41.7,15.1-61.7,24.7
				c-10,4.8-19.8,9.9-29.5,15.4C1795.3,1521,1785.9,1526.8,1776.7,1533.1z"/>
		</g>
		<g>
			<path class="st5" d="M1767.5,1419.1c-9.4,6.8-16.3,16.6-19.6,27.6c-1.6,5.5-2.3,11.2-2,16.9c0.1,2.8,0.5,5.7,1.1,8.4l1.9,8.5
				c2.5,11.3,4.9,22.6,7.3,34l1.7,8.5c0.2,0.7,0.3,1.4,0.4,2.1l0.3,1c0.1,0.3,0.3,0.6,0.4,1c0.1,0.3,0.3,0.6,0.4,0.9
				c0.2,0.3,0.3,0.6,0.5,0.9c0.4,0.6,0.8,1.2,1.3,1.6c0.4,0.5,1,1,1.5,1.4c0.6,0.4,1.1,0.9,1.8,1.2c1.2,0.7,2.6,1.2,4,1.4
				c2.8,0.5,5.8,0,8.3-1.3c-1.3,0.7-2.6,1.4-4,1.7c-1.4,0.3-2.9,0.4-4.4,0.2c-1.5-0.2-2.9-0.6-4.2-1.3c-0.7-0.3-1.3-0.7-1.9-1.1
				c-0.6-0.5-1.2-0.9-1.7-1.5c-0.6-0.5-1-1.1-1.4-1.7c-0.2-0.3-0.4-0.6-0.6-1c-0.2-0.3-0.4-0.7-0.5-1c-0.1-0.3-0.3-0.7-0.4-1
				l-0.3-1.1c-0.2-0.7-0.4-1.4-0.5-2.1l-2-8.5c-2.6-11.3-5.2-22.6-7.7-33.9l-1.8-8.5c-0.6-2.9-1-5.8-1-8.8
				c-0.2-5.9,0.6-11.8,2.4-17.4C1750.1,1435,1757.7,1425.2,1767.5,1419.1z"/>
		</g>
		<g>
			<path class="st5" d="M1782.2,1553.5c-5.1,8.1-9.8,16.4-14.3,24.8c-2.2,4.2-4.5,8.4-6.7,12.7l-3.2,6.4l-1.6,3.2l-1.5,3.2l-3.1,6.5
				c-1,2.2-2.1,4.3-3,6.5l-5.9,13l-5.5,13.2c-0.9,2.2-1.8,4.4-2.6,6.6l-2.6,6.7l-2.6,6.7l-2.4,6.7c-1.6,4.5-3.3,9-4.7,13.5
				c-2.9,9.1-5.9,18.1-8.4,27.3l-2,6.9c-0.6,2.3-1.4,4.6-1.9,6.9l-3.4,13.9l-0.9,3.5c-0.3,1.2-0.6,2.3-0.8,3.5l-1.4,7l-2.9,14
				l2.4-14.1l1.2-7.1c0.2-1.2,0.4-2.3,0.7-3.5l0.8-3.5l3.1-14c0.5-2.3,1.1-4.6,1.7-6.9l1.8-6.9c2.3-9.3,5.3-18.3,8.1-27.5
				c1.5-4.5,3.1-9,4.7-13.6l2.4-6.8l2.6-6.7c6.9-17.8,14.6-35.4,23.2-52.4l1.6-3.2l1.7-3.2l3.3-6.3c1.1-2.1,2.3-4.2,3.4-6.3l3.5-6.3
				C1771.9,1569.6,1776.8,1561.4,1782.2,1553.5z"/>
		</g>
		<g>
			<path class="st5" d="M1723.1,1383.7c-5.6,15.3-10.5,30.8-15.2,46.4c-2.3,7.8-4.7,15.6-6.8,23.5l-3.3,11.8l-3.1,11.8
				c-8.1,31.5-15.5,63.3-21.6,95.3c-0.8,4-1.6,8-2.3,12l-2.2,12l-2.2,12c-0.7,4-1.3,8-2,12.1l-3.8,24.1c-0.6,4-1.1,8.1-1.7,12.1
				l-1.6,12.1c-2.4,16.1-3.9,32.3-5.8,48.5l-0.7,6.1c-0.2,2-0.4,4.1-0.6,6.1l-1.1,12.2l-2.1,24.3l1.6-24.4l0.8-12.2
				c0.2-2,0.2-4.1,0.4-6.1l0.6-6.1c1.6-16.2,3-32.5,5.2-48.6c1-8.1,2-16.2,3.1-24.3l3.7-24.2c0.6-4,1.2-8.1,1.9-12.1l2.1-12l2.1-12
				c0.7-4,1.4-8,2.2-12l4.9-24c1.7-8,3.6-15.9,5.3-23.9c1.7-8,3.8-15.9,5.7-23.8c1-4,1.9-7.9,3-11.9l3.2-11.8l3.2-11.8l3.4-11.7
				c2.2-7.8,4.7-15.6,7.1-23.4C1711.9,1414.3,1717.1,1398.9,1723.1,1383.7z"/>
		</g>
		<g>
			<path class="st5" d="M1837.6,1713.5c5.5,3.4,11,6.6,16.7,9.7c2.8,1.5,5.7,3,8.5,4.5c2.9,1.4,5.7,2.9,8.7,4.3l4.4,2
				c1.5,0.7,2.9,1.4,4.4,2l8.8,3.9l8.9,3.6c1.5,0.6,3,1.2,4.5,1.7l4.5,1.7l4.5,1.7c1.5,0.5,3,1,4.6,1.5c3,1,6.1,2.1,9.1,3
				c6.2,1.8,12.3,3.7,18.5,5.2l4.7,1.2c1.6,0.4,3.1,0.8,4.7,1.1l9.4,2c1.6,0.3,3.1,0.7,4.7,1l4.8,0.8c3.2,0.5,6.3,1.1,9.5,1.6
				c-3.2-0.3-6.4-0.7-9.6-1.1l-4.8-0.6c-1.6-0.2-3.2-0.5-4.8-0.8l-9.5-1.7c-1.6-0.3-3.2-0.7-4.7-1l-4.7-1.1l-4.7-1.1
				c-1.6-0.3-3.1-0.8-4.7-1.3l-9.3-2.6c-3.1-0.9-6.1-2-9.2-3c-1.5-0.5-3.1-1-4.6-1.5l-4.5-1.7c-12.1-4.5-24-9.6-35.5-15.5
				c-2.9-1.4-5.7-3-8.6-4.5c-2.8-1.5-5.6-3.2-8.4-4.7C1848.3,1720.7,1842.8,1717.3,1837.6,1713.5z"/>
		</g>
		<g>
			<path class="st5" d="M924.5,1447c8.1,20.8,18.7,40.4,30.2,59.4c11.6,19,24.4,37.2,38.3,54.6c13.9,17.3,28.8,33.9,44.6,49.5l6,5.8
				l3,2.9l3.1,2.8c4.1,3.7,8.2,7.5,12.4,11.2l12.7,10.7c1.1,0.9,2.1,1.8,3.2,2.7l3.3,2.6l6.6,5.1l6.6,5.1l6.8,4.9l6.8,4.9
				c2.3,1.6,4.5,3.3,6.8,4.8l13.9,9.2c1.2,0.8,2.3,1.6,3.5,2.3l3.6,2.2l7.1,4.3l7.1,4.3l1.8,1.1l1.8,1l3.6,2l14.6,8
				c1.2,0.7,2.5,1.3,3.7,1.9l3.7,1.9l7.5,3.7l7.5,3.7c1.2,0.6,2.5,1.2,3.8,1.8l3.8,1.7l15.2,6.8c2.5,1.2,5.1,2.2,7.7,3.2l7.7,3.1
				l7.7,3.1l3.9,1.5c1.3,0.5,2.6,0.9,3.9,1.4l15.7,5.5c2.6,0.9,5.2,1.9,7.9,2.8l8,2.4l16,4.9c1.3,0.4,2.7,0.8,4,1.2l4,1l8.1,2.1
				l16.2,4.2l-16.2-3.9l-8.1-2l-4.1-1c-1.4-0.3-2.7-0.8-4-1.1l-16-4.6l-8-2.3c-2.7-0.8-5.3-1.8-7.9-2.6l-15.8-5.4
				c-1.3-0.5-2.6-0.9-3.9-1.4l-3.9-1.5l-7.8-3l-7.8-3c-2.6-1-5.2-2-7.7-3.1l-15.3-6.7l-3.8-1.7c-1.3-0.5-2.6-1.1-3.8-1.7l-7.5-3.7
				l-7.5-3.7l-3.7-1.8c-1.2-0.6-2.5-1.2-3.7-1.9l-14.7-8l-3.7-2l-1.8-1l-1.8-1.1l-7.2-4.3l-7.2-4.3l-3.6-2.2
				c-1.2-0.7-2.3-1.5-3.5-2.3l-14-9.2c-2.4-1.5-4.6-3.2-6.9-4.8l-6.8-4.9l-6.8-4.9l-6.6-5.1l-6.6-5.2l-3.3-2.6
				c-1.1-0.9-2.1-1.8-3.2-2.7l-12.8-10.8c-4.2-3.7-8.2-7.5-12.4-11.2l-3.1-2.8l-3-2.9l-6-5.8c-15.8-15.7-30.8-32.3-44.5-49.8
				c-13.8-17.5-26.4-35.9-37.9-55C942.6,1487.7,932.2,1467.8,924.5,1447z"/>
		</g>
		<g>
			<path class="st5" d="M1403.2,1407.8l4.8-3.3c1.6-1.1,3.2-2.1,4.8-3.3l4.7-3.5l2.3-1.7l1.2-0.9l1.1-0.9l4.5-3.6
				c1.5-1.2,3-2.4,4.5-3.7l4.3-3.9l2.2-1.9l2.1-2c11.2-10.7,21.4-22.4,30.2-35.1c8.9-12.6,16.5-26.2,22.9-40.3
				c1.5-3.5,3.2-7,4.6-10.7l2.1-5.4l1-2.7l0.9-2.8l1.9-5.5l0.9-2.8l0.5-1.4l0.4-1.4c1.1-3.7,2.2-7.4,3.3-11.2
				c-0.9,3.8-1.8,7.5-2.8,11.3l-0.4,1.4l-0.4,1.4l-0.8,2.8l-1.7,5.6c-0.3,0.9-0.6,1.9-0.9,2.8l-1,2.7l-2,5.5
				c-1.2,3.7-2.9,7.2-4.3,10.8c-6.1,14.3-13.8,28-22.6,40.8c-9,12.7-19.3,24.6-30.8,35.1l-2.1,2l-2.2,1.9l-4.5,3.8
				c-1.5,1.3-3,2.4-4.6,3.6l-4.6,3.5l-1.2,0.9l-1.2,0.8l-2.4,1.6l-4.8,3.3C1409.9,1403.8,1406.5,1405.8,1403.2,1407.8z"/>
		</g>
		<g>
			<path class="st5" d="M962.5,1222.8c5,40.5,21.3,79.3,46.4,111.3c12.5,16,27,30.5,42.9,43.1c15.9,12.7,33.2,23.6,51.3,32.7
				c36.3,18.4,76,29.8,116.4,34.3c20.2,2.3,40.6,2.7,60.9,1.2c20.3-1.4,40.5-4.8,60.1-10.3c-19.5,5.8-39.7,9.5-60.1,11.3
				c-20.3,1.7-40.9,1.4-61.2-0.7c-20.3-2.1-40.5-6.1-60.1-11.7c-19.6-5.7-38.8-13.1-57-22.4c-18.2-9.3-35.6-20.3-51.5-33.1
				c-15.9-12.8-30.5-27.3-43-43.6c-12.4-16.2-22.8-34.1-30.4-53C969.6,1263.1,964.7,1243.1,962.5,1222.8z"/>
		</g>
		<g>
			<g>
				<path class="st5" d="M612.2,1335.9c-0.4,0-0.8-0.2-0.9-0.6c-0.2-0.5,0.1-1.1,0.6-1.3c0,0,1.9-0.8,5.6-2.1
					c0.5-0.2,1.1,0.1,1.3,0.6s-0.1,1.1-0.6,1.3c-3.6,1.4-5.6,2.1-5.6,2.1C612.4,1335.9,612.3,1335.9,612.2,1335.9z"/>
			</g>
			<g>
				<path class="st5" d="M628.9,1329.6c-0.4,0-0.8-0.3-0.9-0.7c-0.2-0.5,0.1-1.1,0.6-1.3c3.3-1.2,7-2.6,11.1-4.1
					c0.5-0.2,1.1,0.1,1.3,0.6c0.2,0.5-0.1,1.1-0.6,1.3c-4.1,1.5-7.8,2.9-11.1,4.1C629.1,1329.6,629,1329.6,628.9,1329.6z
					 M651.1,1321.5c-0.4,0-0.8-0.3-0.9-0.7c-0.2-0.5,0.1-1.1,0.6-1.3c3.5-1.3,7.3-2.6,11.2-4c0.5-0.2,1.1,0.1,1.3,0.6
					c0.2,0.5-0.1,1.1-0.6,1.3c-3.9,1.4-7.6,2.7-11.2,3.9C651.4,1321.5,651.2,1321.5,651.1,1321.5z M673.5,1313.7
					c-0.4,0-0.8-0.3-0.9-0.7c-0.2-0.5,0.1-1.1,0.6-1.3c3.6-1.2,7.4-2.5,11.2-3.8c0.5-0.2,1.1,0.1,1.3,0.6c0.2,0.5-0.1,1.1-0.6,1.3
					c-3.9,1.3-7.6,2.6-11.2,3.8C673.7,1313.7,673.6,1313.7,673.5,1313.7z M695.9,1306c-0.4,0-0.8-0.3-0.9-0.7
					c-0.2-0.5,0.1-1.1,0.6-1.3c3.7-1.2,7.4-2.5,11.2-3.7c0.5-0.2,1.1,0.1,1.3,0.6c0.2,0.5-0.1,1.1-0.6,1.3
					c-3.8,1.3-7.6,2.5-11.2,3.7C696.1,1306,696,1306,695.9,1306z M718.4,1298.6c-0.4,0-0.8-0.3-1-0.7c-0.2-0.5,0.1-1.1,0.6-1.3
					c3.7-1.2,7.5-2.4,11.3-3.6c0.5-0.2,1.1,0.1,1.3,0.6c0.2,0.5-0.1,1.1-0.6,1.3c-3.8,1.2-7.6,2.4-11.3,3.6
					C718.6,1298.6,718.5,1298.6,718.4,1298.6z M741,1291.5c-0.4,0-0.8-0.3-1-0.7c-0.2-0.5,0.1-1.1,0.7-1.3c3.7-1.2,7.5-2.3,11.3-3.5
					c0.5-0.2,1.1,0.1,1.2,0.7c0.2,0.5-0.1,1.1-0.7,1.2c-3.8,1.2-7.6,2.3-11.3,3.5C741.2,1291.4,741.1,1291.5,741,1291.5z
					 M763.6,1284.5c-0.4,0-0.8-0.3-1-0.7c-0.2-0.5,0.1-1.1,0.7-1.2c3.7-1.1,7.5-2.3,11.4-3.4c0.5-0.2,1.1,0.1,1.2,0.7
					c0.2,0.5-0.1,1.1-0.7,1.2c-3.8,1.1-7.6,2.3-11.3,3.4C763.8,1284.5,763.7,1284.5,763.6,1284.5z M786.3,1277.8
					c-0.4,0-0.8-0.3-1-0.7c-0.2-0.5,0.2-1.1,0.7-1.2c3.8-1.1,7.6-2.2,11.4-3.2c0.5-0.1,1.1,0.2,1.2,0.7c0.1,0.5-0.2,1.1-0.7,1.2
					c-3.8,1.1-7.6,2.2-11.4,3.2C786.5,1277.8,786.4,1277.8,786.3,1277.8z M809.1,1271.4c-0.4,0-0.8-0.3-1-0.7
					c-0.1-0.5,0.2-1.1,0.7-1.2c3.8-1,7.6-2.1,11.4-3.1c0.5-0.1,1.1,0.2,1.2,0.7c0.1,0.5-0.2,1.1-0.7,1.2c-3.8,1-7.6,2.1-11.4,3.1
					C809.3,1271.4,809.2,1271.4,809.1,1271.4z M832,1265.3c-0.4,0-0.9-0.3-1-0.7c-0.1-0.5,0.2-1.1,0.7-1.2c3.8-1,7.6-2,11.5-2.9
					c0.5-0.1,1.1,0.2,1.2,0.7c0.1,0.5-0.2,1.1-0.7,1.2c-3.8,1-7.6,1.9-11.4,2.9C832.2,1265.3,832.1,1265.3,832,1265.3z
					 M854.9,1259.5c-0.5,0-0.9-0.3-1-0.8c-0.1-0.5,0.2-1.1,0.7-1.2c3.8-0.9,7.7-1.9,11.5-2.8c0.5-0.1,1.1,0.2,1.2,0.7
					c0.1,0.5-0.2,1.1-0.7,1.2c-3.8,0.9-7.7,1.8-11.5,2.8C855.1,1259.5,855,1259.5,854.9,1259.5z M878,1254.1c-0.5,0-0.9-0.3-1-0.8
					c-0.1-0.5,0.2-1.1,0.8-1.2c3.9-0.9,7.7-1.7,11.6-2.6c0.5-0.1,1.1,0.2,1.2,0.8c0.1,0.5-0.2,1.1-0.8,1.2
					c-3.9,0.8-7.7,1.7-11.6,2.6C878.1,1254,878.1,1254.1,878,1254.1z M901.2,1249c-0.5,0-0.9-0.3-1-0.8c-0.1-0.5,0.2-1.1,0.8-1.2
					c3.9-0.8,7.8-1.6,11.6-2.3c0.5-0.1,1.1,0.2,1.2,0.8c0.1,0.5-0.2,1.1-0.8,1.2c-3.9,0.7-7.7,1.5-11.6,2.3
					C901.3,1249,901.2,1249,901.2,1249z M924.4,1244.5c-0.5,0-0.9-0.3-1-0.8c-0.1-0.5,0.3-1.1,0.8-1.2c3.9-0.7,7.8-1.4,11.7-2
					c0.5-0.1,1.1,0.3,1.2,0.8c0.1,0.5-0.3,1.1-0.8,1.2c-3.8,0.6-7.8,1.3-11.6,2C924.5,1244.5,924.5,1244.5,924.4,1244.5z"/>
			</g>
			<g>
				<path class="st5" d="M947.5,1240.6c-0.5,0-0.9-0.4-1-0.8c-0.1-0.5,0.3-1.1,0.8-1.1c2-0.3,4-0.6,5.9-0.9c0.5-0.1,1.1,0.3,1.1,0.8
					c0.1,0.5-0.3,1.1-0.8,1.1c-2,0.3-3.9,0.6-5.9,0.9C947.6,1240.6,947.6,1240.6,947.5,1240.6z"/>
			</g>
		</g>
		<g>
			<path class="st5" d="M1813.6,1373.7c-0.1,0-0.3,0-0.4-0.1c-1.9-0.9-3.7-1.8-5.6-2.7c-0.5-0.2-0.7-0.8-0.5-1.3
				c0.2-0.5,0.8-0.7,1.3-0.5c1.9,0.9,3.7,1.8,5.6,2.7c0.5,0.2,0.7,0.8,0.5,1.3C1814.3,1373.5,1814,1373.7,1813.6,1373.7z
				 M1797.2,1365.8c-0.1,0-0.3,0-0.4-0.1c-3.6-1.7-7.3-3.4-10.9-5c-0.5-0.2-0.7-0.8-0.5-1.3c0.2-0.5,0.8-0.7,1.3-0.5
				c3.6,1.7,7.3,3.3,10.9,5c0.5,0.2,0.7,0.8,0.5,1.3C1797.9,1365.6,1797.5,1365.8,1797.2,1365.8z M1775.3,1355.8
				c-0.1,0-0.3,0-0.4-0.1c-3.7-1.6-7.3-3.2-11-4.8c-0.5-0.2-0.7-0.8-0.5-1.3c0.2-0.5,0.8-0.7,1.3-0.5c3.7,1.6,7.3,3.2,11,4.8
				c0.5,0.2,0.7,0.8,0.5,1.3C1776.1,1355.6,1775.7,1355.8,1775.3,1355.8z M1753.3,1346.3c-0.1,0-0.3,0-0.4-0.1
				c-3.7-1.6-7.4-3.1-11.1-4.6c-0.5-0.2-0.8-0.8-0.5-1.3s0.8-0.8,1.3-0.5c3.7,1.5,7.4,3,11.1,4.6c0.5,0.2,0.7,0.8,0.5,1.3
				C1754,1346.1,1753.7,1346.3,1753.3,1346.3z M1731.1,1337.2c-0.1,0-0.2,0-0.4-0.1c-3.7-1.5-7.5-3-11.2-4.4
				c-0.5-0.2-0.8-0.8-0.6-1.3c0.2-0.5,0.8-0.8,1.3-0.6c3.7,1.4,7.4,2.9,11.2,4.4c0.5,0.2,0.8,0.8,0.6,1.3
				C1731.8,1337,1731.5,1337.2,1731.1,1337.2z M1708.7,1328.5c-0.1,0-0.2,0-0.4-0.1c-3.8-1.4-7.5-2.8-11.2-4.2
				c-0.5-0.2-0.8-0.8-0.6-1.3c0.2-0.5,0.8-0.8,1.3-0.6c3.7,1.4,7.5,2.8,11.3,4.2c0.5,0.2,0.8,0.8,0.6,1.3
				C1709.5,1328.3,1709.1,1328.5,1708.7,1328.5z M1686.1,1320.2c-0.1,0-0.2,0-0.3-0.1c-3.8-1.4-7.6-2.7-11.3-4
				c-0.5-0.2-0.8-0.8-0.6-1.3c0.2-0.5,0.7-0.8,1.3-0.6c3.7,1.3,7.5,2.6,11.3,4c0.5,0.2,0.8,0.8,0.6,1.3
				C1686.9,1320,1686.5,1320.2,1686.1,1320.2z M1663.4,1312.4c-0.1,0-0.2,0-0.3-0.1c-3.8-1.3-7.6-2.6-11.4-3.8
				c-0.5-0.2-0.8-0.7-0.6-1.3c0.2-0.5,0.7-0.8,1.3-0.6c3.8,1.2,7.6,2.5,11.4,3.8c0.5,0.2,0.8,0.7,0.6,1.3
				C1664.3,1312.1,1663.9,1312.4,1663.4,1312.4z M1640.6,1304.9c-0.1,0-0.2,0-0.3,0c-3.9-1.2-7.7-2.4-11.4-3.6
				c-0.5-0.2-0.8-0.7-0.7-1.3c0.2-0.5,0.7-0.8,1.3-0.7c3.8,1.2,7.6,2.4,11.5,3.6c0.5,0.2,0.8,0.7,0.6,1.3
				C1641.5,1304.6,1641.1,1304.9,1640.6,1304.9z M1617.7,1297.8c-0.1,0-0.2,0-0.3,0c-3.9-1.2-7.8-2.3-11.5-3.4
				c-0.5-0.2-0.8-0.7-0.7-1.2s0.7-0.8,1.2-0.7c3.8,1.1,7.6,2.2,11.5,3.4c0.5,0.2,0.8,0.7,0.7,1.2
				C1618.5,1297.5,1618.1,1297.8,1617.7,1297.8z M1594.6,1291c-0.1,0-0.2,0-0.3,0c-4-1.1-7.8-2.2-11.6-3.2c-0.5-0.1-0.8-0.7-0.7-1.2
				c0.1-0.5,0.7-0.8,1.2-0.7c3.7,1,7.6,2.1,11.6,3.2c0.5,0.2,0.8,0.7,0.7,1.2C1595.5,1290.7,1595.1,1291,1594.6,1291z
				 M1571.5,1284.7c-0.1,0-0.2,0-0.3,0c-4.1-1.1-7.9-2.1-11.6-3c-0.5-0.1-0.9-0.7-0.7-1.2c0.1-0.5,0.7-0.9,1.2-0.7
				c3.7,0.9,7.6,1.9,11.6,3c0.5,0.1,0.9,0.7,0.7,1.2C1572.3,1284.4,1571.9,1284.7,1571.5,1284.7z M1548.2,1278.8c-0.1,0-0.2,0-0.2,0
				c-4.2-1-8.1-2-11.7-2.8c-0.5-0.1-0.9-0.7-0.7-1.2c0.1-0.5,0.7-0.9,1.2-0.7c3.5,0.8,7.5,1.7,11.7,2.8c0.5,0.1,0.9,0.7,0.7,1.2
				C1549,1278.5,1548.6,1278.8,1548.2,1278.8z M1524.8,1273.4c-0.1,0-0.1,0-0.2,0c-7.5-1.6-11.7-2.4-11.8-2.5
				c-0.5-0.1-0.9-0.6-0.8-1.2s0.6-0.9,1.2-0.8c0,0,4.3,0.8,11.8,2.5c0.5,0.1,0.9,0.7,0.8,1.2
				C1525.6,1273.1,1525.2,1273.4,1524.8,1273.4z"/>
		</g>
		<g>
			<g>
				<g>
					<path class="st6" d="M1942.3,1373.2L1942.3,1373.2c-112.2,2-173.9,48.9-173.9,48.9c-16.6-63.2-49.4-143.9-112.8-193.3
						c-19.5-15.1-36.4-29.2-51-42.2c-34.5-30.6-56.7-55.3-70.9-73.8c-15.1-19.8-22.6-44.3-21.8-69.3c0.5-15.3-0.5-34.9-6.4-52.5
						c-6.7-19.9,8.5-40.7,29.4-39.3c0.6,0,1.3,0.1,1.9,0.2c14.5,1.5,25.9-2.2,34-6.6c9.1-4.9,20.1,1.6,20.4,11.9
						c0.3,12.1-3.8,27.8-20.5,44.3c0,0,0,0,0,0c0.2,0.7,3.8,15.6,1.5,32.7c0,0.4-0.1,0.7-0.1,1.1c0,0,38.2-26,55.3-67.3
						c9.1-22,21.7-92.9,21.7-92.9l4.8-66.3l-8.3-53.9c0,0-21.3-29.1-7.9-60.7c0-0.1,0.1-0.2,0.1-0.3v0c0,0-4.1-14.1,0.9-29.5
						c4-12.1,19.5-15.4,28.2-6.1l31,33.3l12.5,22.7l3.1,5.6c-0.1-0.3-1.7-3.7-3.7-9.1c-5.1-13.8-12.5-40.4-3.4-59.9
						c5.4-11.4,21.7-11,26.4,0.6l20.4,50c0,0,2.5-4.3,7.4-8.3c9.3-7.6,23.3-1.2,23.5,10.9c0.3,17.6,1.8,44.9,7.7,61.4l9.8,50.6
						c2.4,12.2,3.6,24.5,3.8,36.9c0.3,20.2,1.8,53.7,8.5,75.4c3.5,11.6,6.3,23.5,7.8,35.6c4.6,36,10.3,104.6-1.5,167.3
						c0,0,5,29.4,30.1,60.1c12.6,15.4,22.3,33,29,51.7C1890.8,1275.7,1911.8,1327.3,1942.3,1373.2z"/>
				</g>
			</g>
			<g>
				<g>
					<path class="st7" d="M1637.6,693.8c0.7,5.4,2.5,10.7,4.7,15.7c2.2,5,5,9.8,8.2,14.3c3.3,4.4,6.8,8.7,11,12.3
						c2,1.9,4.3,3.5,6.4,5.2c2.2,1.6,4.6,3,6.8,4.6l-0.3-0.4c3.4,11,6.1,22.3,8,33.7c0.5,2.8,1,5.7,1.3,8.5c0.3,2.8,0.4,5.7,0.3,8.5
						c-0.1,2.8-0.4,5.6-0.8,8.4l-1.4,8.6c-1.9,11.4-3.3,22.9-4.5,34.4c-0.6,5.8-1,11.5-1.4,17.3c-0.3,5.8-0.6,11.6-0.5,17.4l0.3,0
						c1.3-11.5,2.8-22.9,4.3-34.3c1.6-11.4,3.2-22.8,4.7-34.3l1.2-8.6c0.4-2.9,0.6-5.9,0.6-8.8c0-2.9-0.3-5.9-0.8-8.8
						c-0.5-2.9-1.2-5.7-1.8-8.5c-2.7-11.3-5.4-22.5-8-33.8l-0.1-0.2l-0.3-0.2c-2.1-1.7-4.3-3.2-6.4-4.9c-2-1.8-4.1-3.5-6-5.4
						l-2.9-2.8l-2.7-3c-0.9-0.9-1.8-2-2.6-3c-0.8-1-1.8-2-2.5-3.1c-3.3-4.2-6.1-8.8-8.6-13.6c-2.5-4.8-4.6-9.7-6-15L1637.6,693.8z"
						/>
				</g>
			</g>
			<g>
				<g>
					<path class="st7" d="M1649.2,875c1.1-7.6,2-15.3,2.7-23c0.7-7.7,1.4-15.3,1.8-23l0.4-11.5c0.1-3.9,0-7.8-0.4-11.6
						c-0.3-3.9-1-7.7-1.5-11.5c-0.5-3.8-1-7.6-1.5-11.5c-0.5-3.8-0.9-7.7-1.4-11.5c-0.3-1.9-0.5-3.8-0.8-5.8
						c-0.3-1.9-0.7-3.9-1.2-5.8c-1-3.8-2.3-7.5-3.8-11.1c-0.8-1.8-1.6-3.6-2.4-5.3c-0.8-1.7-1.5-3.5-2.1-5.2c-2.7-7-4.3-14.5-4.5-22
						c-0.3-7.6,1-15.1,3.5-22.4l-0.3-0.1c-0.8,1.8-1.7,3.5-2.3,5.3c-0.3,0.9-0.7,1.8-1,2.8l-0.8,2.8c-0.9,3.8-1.5,7.7-1.5,11.6
						c-0.2,7.9,1.3,15.7,3.9,23.1c0.7,1.9,1.4,3.7,2.2,5.5l2.5,5.2c1.6,3.4,2.9,7,3.9,10.6c1.1,3.6,1.7,7.3,2.4,11.1
						c0.7,3.8,1.4,7.6,2.1,11.4c0.7,3.8,1.4,7.6,2.1,11.4c0.6,3.8,1.3,7.6,1.6,11.4c0.3,3.8,0.1,7.6-0.3,11.4l-1.3,11.5
						c-0.7,7.7-1.2,15.3-1.6,23c-0.4,7.7-0.7,15.4-0.7,23.1L1649.2,875z"/>
				</g>
			</g>
			<g>
				<g>
					<path class="st7" d="M1560.5,1043.6c7.4-4.2,14.4-9.2,21.1-14.7c6.6-5.4,12.9-11.4,18.7-17.6c5.8-6.3,11.1-13.2,15.8-20.4
						c4.7-7.2,8.4-15.1,11.2-23.1c-2.2,3.7-3.8,7.6-6.2,11.2c-1.1,1.8-2.1,3.7-3.4,5.4l-3.6,5.2c-0.6,0.9-1.2,1.7-1.9,2.6l-1.9,2.5
						c-1.3,1.7-2.5,3.4-3.9,5l-4.1,4.9l-4.3,4.7c-5.7,6.2-11.8,12.2-18,17.9c-3.2,2.8-6.3,5.7-9.6,8.4
						C1567.3,1038.4,1563.9,1041,1560.5,1043.6z"/>
				</g>
			</g>
			<g>
				<g>
					<path class="st7" d="M1570.7,1001.4c0.1,5.8,0.5,11.3,0.7,16.9l0.3,8.4c0.1,2.8,0.1,5.6,0.4,8.5c1-2.7,1.6-5.6,1.9-8.4
						c0.4-2.9,0.5-5.7,0.3-8.6c-0.1-2.9-0.5-5.7-1-8.6C1572.7,1006.8,1571.9,1004,1570.7,1001.4z"/>
				</g>
			</g>
			<g>
				<g>
					<path class="st7" d="M1570.7,1001.4c-4.3,1.9-8.3,3.7-12.5,4.9c-2.1,0.6-4.2,1.2-6.4,1.6c-2.2,0.5-4.4,0.7-6.7,1.2
						c2.2,0.8,4.6,1.2,7,1.1c2.4,0,4.8-0.4,7-1.1c2.3-0.7,4.5-1.7,6.4-3C1567.5,1004.9,1569.3,1003.3,1570.7,1001.4z"/>
				</g>
			</g>
			<g>
				<g>
					<path class="st7" d="M1533.8,1112.7c-7.2-10.3-12.6-21.6-16.1-33.5c-1.7-5.9-3-12-3.7-18.2c-0.7-6.2-1-12.3-0.9-18.5
						c0.1-12.6-1-25.2-3.5-37.5c-0.6-3.1-1.4-6.1-2.2-9.2c-0.4-1.5-0.9-3-1.3-4.5c-0.4-1.5-0.8-3-1.1-4.5c-0.2-1.5-0.5-3-0.4-4.6
						l0-2.3l0.3-2.3l0.1-1.1l0.3-1.1l0.6-2.2c0.3-0.7,0.5-1.4,0.8-2.1l0.4-1.1c0.2-0.3,0.3-0.7,0.5-1l1.1-2c0.4-0.6,0.9-1.3,1.3-1.9
						l0.6-0.9c0.2-0.3,0.5-0.6,0.7-0.9l1.5-1.7c0.5-0.5,1.1-1,1.7-1.5l0.8-0.8c0.3-0.2,0.6-0.4,0.9-0.7l1.8-1.3l2-1.1l1-0.5
						c0.3-0.2,0.7-0.3,1-0.4l2.1-0.8c0.7-0.2,1.4-0.4,2.2-0.6c0.7-0.2,1.4-0.4,2.2-0.4l2.2-0.3c0.7-0.1,1.5,0,2.2,0
						c0.7,0,1.5,0,2.2,0l2.3,0.2c6.4,0.6,12.9,0.3,19.1-1.1c3.1-0.7,6.2-1.7,9.2-2.9c1.5-0.6,3-1.3,4.4-2c0.7-0.4,1.4-0.8,2-1
						c0.6-0.3,1.3-0.5,1.9-0.7c2.7-0.8,5.6-0.5,8.1,0.6c2.5,1.2,4.7,3.1,6,5.6c1.4,2.5,1.5,5.3,1.5,8.4c-0.1,3-0.5,6.1-1.1,9.1
						c-1.3,6-3.7,11.7-6.8,17.1c-3.2,5.3-7,10.3-11.3,14.8l0.2,0.2c4.6-4.2,8.8-9,12.4-14.2c3.5-5.3,6.3-11.1,7.8-17.3
						c0.8-3.1,1.3-6.3,1.4-9.5c0.1-1.6,0.1-3.2,0-4.9c-0.1-0.9-0.3-1.7-0.5-2.5c-0.3-0.8-0.5-1.7-1-2.4c-0.7-1.6-1.8-3-3-4.2
						c-1.3-1.2-2.7-2.2-4.3-2.9c-3.1-1.4-6.8-1.9-10.2-0.9c-0.8,0.2-1.7,0.5-2.5,0.9c-0.8,0.4-1.5,0.7-2.2,1.1
						c-1.4,0.7-2.7,1.3-4.1,1.9c-2.8,1.2-5.7,2.1-8.7,2.8c-5.9,1.4-12.1,1.8-18.2,1.3l-2.4-0.2c-0.8-0.1-1.6,0-2.4,0
						c-0.8,0-1.6,0-2.5,0.1l-2.4,0.3c-0.8,0.1-1.6,0.3-2.4,0.5c-0.8,0.2-1.6,0.4-2.4,0.7l-2.3,1c-0.4,0.2-0.8,0.3-1.1,0.5l-1.1,0.6
						l-2.1,1.2l-1.9,1.5c-0.3,0.2-0.6,0.5-1,0.8l-0.9,0.9c-0.6,0.6-1.2,1.1-1.7,1.7l-1.5,1.9c-0.2,0.3-0.5,0.6-0.7,1l-0.6,1
						c-0.4,0.7-0.9,1.4-1.3,2.1l-1,2.2c-2.8,5.8-3.2,12.5-2.1,18.8c0.3,1.6,0.8,3.1,1.2,4.6c0.5,1.5,1,3,1.4,4.5
						c0.9,3,1.5,6,2.2,9.1c1.2,6.1,1.8,12.4,2.1,18.6c0.3,6.2,0.2,12.5-0.1,18.7c-0.7,12.6,1,25.4,4.8,37.5c3.9,12,10,23.4,18,33
						L1533.8,1112.7z"/>
				</g>
			</g>
			<g>
				<g>
					<path class="st7" d="M1604.7,1186.7c-6-6.1-12.1-12.2-18.1-18.2c-6-6-12.1-12.1-18-18.2c-6-6.1-11.8-12.3-17.7-18.5
						c-5.8-6.3-11.5-12.6-17.2-19c4.8,7.1,9.9,14,15.4,20.6c5.5,6.6,11.3,12.9,17.3,19.1c6,6.1,12.2,12.1,18.6,17.8
						C1591.3,1175.9,1597.9,1181.4,1604.7,1186.7z"/>
				</g>
			</g>
			<g>
				<g>
					<path class="st7" d="M1684.7,1128.8c-1.5-10.6-3.9-21.1-7.8-31.2c-3.8-10.1-8.9-19.7-15.7-28.2c-3.4-4.2-7.2-8.1-11.4-11.6
						c-4.2-3.4-8.7-6.5-13.5-9c-4.8-2.5-9.8-4.5-15-5.9c-5.2-1.4-10.5-2.4-15.8-2.9c10.5,2.2,20.6,5.6,29.7,10.9
						c9.1,5.2,17.2,12.2,23.7,20.4c6.6,8.2,11.8,17.5,15.9,27.2C1678.9,1108.3,1682,1118.5,1684.7,1128.8z"/>
				</g>
			</g>
			<g>
				<g>
					<path class="st7" d="M1669.4,1230.9c4.1,1.2,8.4,1.8,12.7,1.9c4.3,0,8.7-0.6,12.9-2.1c4.1-1.5,8-3.9,11.1-7
						c3.1-3.1,5.4-6.9,6.9-10.9c-2.6,3.4-5.3,6.6-8.5,9.1c-3.2,2.6-6.7,4.6-10.5,5.9c-3.8,1.4-7.9,2.1-12,2.6
						C1677.8,1230.8,1673.6,1230.9,1669.4,1230.9z"/>
				</g>
			</g>
			<g>
				<g>
					<path class="st7" d="M1699.9,1131c0.1-8.2,0.6-16.3,1.6-24.4c1-8.1,2.5-16,4.3-24c1.8-7.9,3.9-15.8,6.6-23.5
						c2.8-7.7,6.1-15.2,9.7-22.5c3.6-7.4,7.2-14.7,10.6-22.2c3.4-7.5,6.7-15,9.4-22.8c5.5-15.5,8.9-32,8.3-48.5l-0.3,0
						c-1.3,16.3-5.4,32.1-11,47.4c-2.8,7.6-5.8,15.2-9,22.7c-3.2,7.5-6.4,15-9.5,22.6c-3.1,7.6-6.1,15.2-9.1,22.8
						c-3,7.6-5.9,15.3-8.1,23.3c-4.3,15.9-5.7,32.7-3.8,49L1699.9,1131z"/>
				</g>
			</g>
			<g>
				<g>
					<path class="st7" d="M1709.5,710.8c0.3,1.9,0.9,3.8,1.5,5.6c0.6,1.8,1.3,3.7,2.1,5.4c0.8,1.8,1.7,3.5,2.5,5.2
						c0.8,1.7,1.5,3.5,2.1,5.2c1.2,3.5,2,7.2,2.3,10.9c0.2,1.9,0.2,3.7,0.2,5.6c0,1.9,0.1,3.9,0.2,5.8c0.3,3.9,0.7,7.7,1.3,11.5
						c0.6,3.8,1.4,7.6,2.3,11.3c0.9,3.7,2,7.5,3.1,11.1c1,3.6,1.5,7.4,1.6,11.2c0,3.8-0.4,7.5-1.2,11.2c-0.8,3.7-1.7,7.5-2.4,11.3
						c-1.5,7.5-3,15-4.2,22.6c-2.3,15.2-4.2,30.5-4.2,45.8l0.3,0c1.9-15.2,4.5-30.3,7.1-45.3l3.8-22.6l2-11.3
						c0.7-3.9,0.9-7.8,0.6-11.7c-0.3-3.9-1.1-7.7-2.2-11.4c-1.3-3.7-2.4-7.3-3.1-11c-1.6-7.5-2-15.1-2.1-22.7c0-1.9,0-3.8,0-5.7
						c0-1.9,0-3.9-0.2-5.9c-0.4-3.9-1.3-7.8-2.7-11.4c-0.7-1.8-1.5-3.6-2.4-5.3c-0.9-1.7-2-3.3-2.9-5c-1.8-3.3-3.5-6.8-4.7-10.4
						L1709.5,710.8z"/>
				</g>
			</g>
			<g>
				<g>
					<path class="st7" d="M1749.4,897.1l3.8-32.7c0.7-5.4,1.4-10.9,2.1-16.3c0.7-5.4,1.5-10.8,2.6-16.2l0-0.2l0-0.1
						c-1.2-4.4-2.1-8.8-2.8-13.3c-0.7-4.5-1.3-9-1.7-13.5c-0.3-4.5-0.5-9-0.5-13.5c0.1-4.5,0.2-9,0.7-13.4l0-0.2l-0.1-0.2
						c-1.3-6.3-2.4-12.7-3.2-19c-0.4-3.2-0.8-6.4-1.2-9.6c-0.4-3.2-0.6-6.4-0.8-9.6c-0.4-6.4-0.5-12.8,0-19.2
						c0.3-3.2,0.7-6.4,1.5-9.5c0.7-3.1,1.8-6.1,3.4-8.9l-0.2-0.2c-4,5.3-5.7,11.9-6.7,18.3c-1,6.5-1.1,13.1-0.9,19.6
						c0.1,3.3,0.4,6.5,0.6,9.8c0.3,3.2,0.7,6.5,1.2,9.7c1,6.4,2.2,12.8,3.8,19.2l0-0.4c-0.3,4.6-0.4,9.2-0.1,13.8
						c0.3,4.6,0.7,9.1,1.3,13.6c1.2,9,2.6,18,4.3,27l0-0.3c-1.5,5.3-2.7,10.7-3.6,16.2c-1,5.4-1.6,10.9-2.1,16.4
						c-0.5,5.5-0.9,11-1.2,16.5c-0.3,5.5-0.4,11-0.3,16.5L1749.4,897.1z"/>
				</g>
			</g>
			<g>
				<g>
					<path class="st7" d="M1653.2,896.6c3.4-2.7,7.5-4.3,11.6-5.4c4.1-1.1,8.4-1.5,12.7-1.5c2.1,0,4.3,0.1,6.4,0.2
						c2.2,0.2,4.3,0.4,6.5,0.7c4.3,0.7,8.5,2,12.6,3.6c4.1,1.6,7.8,3.9,11.5,6.2c3.8,2.2,7.5,4.5,11.6,6.5c4,2,8.3,3.5,12.7,4.4
						c4.4,0.9,9,1,13.4,0.3l0-0.3c-4.4-0.4-8.6-1.2-12.7-2.5c-4.1-1.2-8-3-11.9-4.8c-3.9-1.8-7.8-3.9-11.7-5.8
						c-4-1.9-8.2-3.5-12.3-4.9c-4.2-1.4-8.4-2.8-12.6-4c-4.3-1.2-8.7-2.1-13.2-2.2c-4.5-0.1-9,0.6-13.3,2c-4.2,1.5-8.4,3.8-11.2,7.3
						L1653.2,896.6z"/>
				</g>
			</g>
		</g>
		<g>
			<g>
				<g>
					<g>
						<path class="st6" d="M1431,1221.7L1457,986l-332.8-36.6l-27.2,247.2c-2.4,21.5-22.7,36.3-43.8,31.9
							c-15.4-3.2-31.2-6.6-47.4-10.3c0,0,15.7,132.4,200.5,156.6c191.1,25,267-112.2,267-112.2s0,0,0,0
							C1449.2,1266,1428.4,1245.8,1431,1221.7z"/>
					</g>
					<g>
						<path class="st6" d="M1213.1,1194.6L1213.1,1194.6c122.4,13.5,232.5-74.8,246-197.3l29.8-270.8
							c13.5-122.4-74.8-232.5-197.3-246l0,0c-122.4-13.5-232.5,74.8-246,197.3l-29.8,270.8C1002.4,1071,1090.7,1181.2,1213.1,1194.6
							z"/>
					</g>
					<g>
						<path class="st7" d="M1102.1,1150.3l-4.9,44.8c23,2.7,67.5,2.2,108.9-14.3C1163.5,1185.1,1130.3,1171.2,1102.1,1150.3z"/>
					</g>
				</g>
				<g>
					<g>
						<path class="st6" d="M1481.8,991l-11.5-1.3c-22.8-2.5-39.2-23-36.7-45.8l8.1-73.6c2.5-22.8,23-39.2,45.8-36.7l11.5,1.3
							c22.8,2.5,39.2,23,36.7,45.8l-8.1,73.6C1525,977.1,1504.5,993.5,1481.8,991z"/>
					</g>
					<g>
						<g>
							<path class="st7" d="M1487.7,877.9c4.9,0.4,9.6,3,13,6.8c3.4,3.9,5.6,8.7,6.7,13.6c2.2,10,0.9,20.6-3.8,29.8
								c-2.4,4.5-5.7,8.8-10.1,11.8c-2.2,1.5-4.4,2.8-7.2,3.6c-1.4,0.4-3.1,0.5-4.8,0c-1.8-0.6-3.1-2-3.8-3.3
								c-1.4-2.8-1.6-5.4-1.6-8c0-2.5,0.3-5,0.7-7.4c0.9-4.8,2.1-9.6,3.9-14.1c-0.6,4.8-1.2,9.6-1.3,14.4c-0.1,2.4-0.1,4.7,0.2,7
								c0.3,2.2,0.7,4.6,1.7,6c0.5,0.7,1,1.1,1.6,1.2c0.6,0.1,1.4,0,2.3-0.2c1.8-0.6,3.8-1.8,5.5-3.1c3.4-2.7,6.3-6.3,8.3-10.3
								c2.1-4,3.5-8.4,4.2-12.9c0.8-4.5,0.8-9.1,0.2-13.7c-0.7-4.5-2.1-9-4.6-12.8C1496.2,882.5,1492.3,879.5,1487.7,877.9z"/>
						</g>
						<g>
							<path class="st7" d="M1475.5,896.2c-1.4-2.7-2.1-5.7-2.4-8.7c-0.2-3,0-6.1,1.1-9.2c0.5-1.5,1.3-3.1,2.4-4.4
								c1.1-1.4,2.6-2.6,4.4-3.2c1.7-0.6,3.5-0.6,5.1-0.3c1.6,0.4,3,1.1,4.2,2c-3.1,0.2-5.8,0.7-7.5,2.1c-1.7,1.3-2.7,3.2-3.5,5.6
								c-0.8,2.3-1.4,5-1.9,7.7C1476.8,890.5,1476.3,893.3,1475.5,896.2z"/>
						</g>
					</g>
				</g>
				<g>
					<g>
						<g>
							
								<ellipse transform="matrix(0.7833 -0.6216 0.6216 0.7833 -238.4224 871.1107)" class="st8" cx="1130.3" cy="777.5" rx="20.1" ry="20.1"/>
						</g>
						<g>
							<path class="st8" d="M1083.3,752.9c5.7-4.9,12.7-8.3,20.1-10.4c7.3-2.1,15.2-2.8,22.8-1.8c7.6,1,15.1,3.4,21.7,7.2
								c6.7,3.7,12.7,8.5,17.7,14c-6.1-4.4-12.3-8.4-19-11.5c-1.6-0.8-3.4-1.4-5-2.2c-1.7-0.6-3.4-1.3-5.2-1.7
								c-3.5-1.1-7-1.8-10.6-2.2c-7.2-1-14.5-0.5-21.7,0.9C1096.9,746.7,1089.8,749.3,1083.3,752.9z"/>
						</g>
					</g>
					<g>
						<g>
							
								<ellipse transform="matrix(6.835120e-03 -1 1 6.835120e-03 529.9263 2134.6931)" class="st8" cx="1339.6" cy="800.6" rx="20.1" ry="20.1"/>
						</g>
						<g>
							<path class="st8" d="M1292.7,775.9c5.7-4.9,12.7-8.3,20.1-10.4c7.3-2.1,15.2-2.8,22.8-1.8c7.6,1,15.1,3.4,21.7,7.2
								c6.7,3.7,12.7,8.5,17.7,14c-6.1-4.4-12.3-8.4-19-11.5c-1.6-0.8-3.4-1.4-5-2.2c-1.7-0.6-3.4-1.3-5.2-1.7
								c-3.5-1.1-7-1.8-10.6-2.2c-7.2-1-14.5-0.5-21.7,0.9C1306.2,769.8,1299.2,772.3,1292.7,775.9z"/>
						</g>
					</g>
					<g>
						<path class="st8" d="M1196.2,849.8c-1.4,8.6-3.2,17.1-5.1,25.6c-1.9,8.5-3.9,16.9-6,25.3c-1.1,4.3-2.3,8.2-2.4,12.4
							c-0.3,4.1,0.2,8.3,1.4,12.3c1.2,3.9,3.2,7.7,6.3,10.4c3.3,2.8,6.7,5.6,9.9,8.5c-3.7-2.3-7.3-4.7-11-7.1
							c-3.8-2.6-6.4-6.7-7.9-10.9c-1.6-4.3-2.2-8.8-2.1-13.3c0-4.5,1.3-9,2.3-13.2c2.2-8.4,4.4-16.8,6.8-25.1
							C1190.8,866.3,1193.3,858,1196.2,849.8z"/>
					</g>
					<g>
						<path class="st9" d="M1256.8,974.2c-0.3,2.3-0.8,4.5-1.5,6.7c-1.4,4.3-3.6,8.5-6.4,12.2c-2.8,3.8-6.4,7.2-10.6,9.9
							s-9,4.8-14.2,5.9c-5.1,1.1-10.5,1.1-15.5,0.3c-2.6-0.4-4.9-1.2-7.3-2c-2.3-1-4.6-1.9-6.6-3.2c-1-0.6-2-1.3-3-2
							c-0.9-0.7-1.8-1.5-2.7-2.2c-1.8-1.5-3.3-3.3-4.8-5c-1.4-1.8-2.7-3.7-3.8-5.7c-1.1-2.1-2-4.2-2.7-6.5c2.5,0,4.7,0.2,6.8,0.5
							c1.3,0.1,2.5,0.2,3.7,0.3c0.9,0.1,1.7,0.2,2.5,0.2c3.9,0.3,7.5,0.7,10.8,0.8c1.7,0.1,3.2,0,4.8,0.1c1.5-0.1,3-0.1,4.3-0.2
							c2.8-0.2,5.4-0.5,7.9-1.1c5.1-1.1,10.4-2.9,16.7-5.7c2-0.9,4-1.8,6.1-2.9c1.2-0.6,2.5-1.2,3.8-1.8l5.5-2.7
							c1.9-1,3.9-1.9,6.1-2.9C1257.2,969.6,1257.1,971.9,1256.8,974.2z"/>
					</g>
					<g>
						<path class="st10" d="M1241.4,974.6c-0.8,2.8-2,5.4-3.7,7.9c-4,6.1-10.8,11.1-19.1,12.9c-8.2,1.8-17-0.1-23-4.5
							c-0.8-0.5-1.5-1.1-2.2-1.7c-0.7-0.6-1.3-1.2-2-1.9c-1.2-1.2-2.2-2.6-3.2-4c0.9,0.1,1.7,0.2,2.5,0.2c3.9,0.3,7.5,0.7,10.8,0.8
							c1.7,0.1,3.2,0,4.8,0.1c1.5-0.1,3-0.1,4.3-0.2c2.8-0.2,5.4-0.5,7.9-1.1c5.1-1.1,10.4-2.9,16.7-5.7
							C1237.3,976.6,1239.3,975.7,1241.4,974.6z"/>
					</g>
					<g>
						<path class="st8" d="M1089.4,697.3c1.9-3.8,4.9-6.8,8-9.5c3.2-2.6,6.8-4.8,10.7-6.4c7.7-3.3,16.5-4.5,25.1-3.4
							c4.3,0.5,8.5,1.6,12.4,3.2c1,0.4,2,0.8,2.9,1.3c1,0.5,1.9,0.9,2.8,1.4c1.8,1.1,3.6,2.1,5.3,3.4c6.7,5,12.1,11.3,15.1,19.1
							c-8.1-2.2-14.9-4.6-21.6-6.5c-6.6-1.9-12.9-3.2-19.2-4c-6.3-0.8-12.7-1-19.5-0.7C1104.7,695.4,1097.6,696.2,1089.4,697.3z"/>
					</g>
					<g>
						<path class="st8" d="M1298.8,720.3c1.9-3.8,4.9-6.8,8-9.5c3.2-2.6,6.8-4.8,10.7-6.4c7.7-3.3,16.5-4.5,25.1-3.4
							c4.3,0.5,8.5,1.6,12.4,3.2c1,0.4,2,0.8,2.9,1.3c1,0.5,1.9,0.9,2.8,1.4c1.8,1.1,3.6,2.1,5.3,3.4c6.7,5,12.1,11.3,15.1,19.1
							c-8.1-2.2-14.9-4.6-21.6-6.5c-6.6-1.9-12.9-3.2-19.2-4c-6.3-0.8-12.7-1-19.5-0.7C1314,718.4,1307,719.2,1298.8,720.3z"/>
					</g>
				</g>
			</g>
			<g>
				<path class="st8" d="M1663.4,660.7c26.4-98.9-83.4-169-83.4-169c-39.3-65.1-86.8-47.3-86.8-47.3
					c-62.9-107.8-138.4-59.6-138.4-59.6c-52.6-43.5-97.1-14.4-97.1-14.4c-31.9-8.1-59,5.6-59,5.6c-83.7-11.5-122.5,66.7-122.5,66.7
					s-79.8,35-123.4,100.9c-43.6,65.9,12.5,74.7,12.5,74.7C943,590.2,985.9,532,988,529.3c-29.2,59.3-4.5,80.2-4.5,80.2
					c-77.1,108-13,129.1-13,129.1c-17,68.1,30.3,75.3,30.3,75.3c-4.2-22.1,3.5-31.6,3.5-31.6c12.8,19.6,26.8,22.3,26.8,22.3
					c-12.9-11.6-14.8-30.2-12.4-48.5c7.6,10.6,17.4,15,17.4,15c3.8-30.2,13.5-47.8,20.9-57.4c6.2,2.5,14.2,4.9,24.4,6.9
					c46.5,8.8,13.6,36.3,13.6,36.3c21.4-0.9,59.2-44.3,27.8-78.7c-31.4-34.4-18.3-76-18.3-76s0,0,16.9,53.1c16.9,53,53,41,53,41
					c-40-7.2-16.9-93.4-16.9-93.4c78.1,96.8,0,115.5,0,115.5c73,36.2,108.1-22.5,108.1-22.5c-16.5,71.1,29.8,76.5,29.8,76.5
					c-10.3-14.6-1.2-43.8-1.2-43.8c39.1,10.1,63.5-45,63.5-45c-14.3,63.8,26.1,66.4,26.1,66.4c-5.2-67.8,51.7-88.9,53.3-89.5
					c-80.9,87-28,113.1-28,113.1c-9.8-42.7,19.1-82.3,19.1-82.3c-27,73.3,4.3,111.8,4.3,111.8c0.5-57.3,50.1-101.9,55.9-106.9
					c-5.2,4.7-46.7,43.8-47.1,96.7c-0.4,56.4,33.3,58.9,58.6,73.2c25.4,14.3-9.3,47.5-9.3,47.5c33.6-2.4,45.3-33.9,45.3-33.9
					c-2.9,37.3-43.6,50.8-43.6,50.8s15.9,11.9,44.1,3.2c33.6-10.4,43.1-62,43.1-62c-0.2,33.3-28.8,64.8-28.8,64.8
					c90.9,19.1,87.4-128.5,87.4-128.5C1702.8,752.3,1663.4,660.7,1663.4,660.7z M1649.1,652.5l-0.8-0.1c-0.2-7.1-0.4-14-1.1-20.8
					c-0.8-6.8-2-13.5-3.4-20.2c-1.5-6.6-3-13.3-4.9-19.9c-1-3.3-2-6.6-3.1-9.8c-1-3.3-2.1-6.6-3.3-9.9c-2.3-6.6-5.3-13-9.1-18.9
					c-3.8-5.9-8.7-11-13.1-16.4c-4.4-5.4-8.4-11.1-12.4-16.8c-4-5.7-8.1-11.4-11.8-17.5l0.6-0.6c6,4,11.2,8.9,16.1,14.1
					c4.8,5.2,9.4,10.7,13.1,16.8c3.7,6.1,6.4,12.8,9.8,19c3.3,6.2,7.1,12.2,10.8,18.3c3.7,6.1,7.1,12.5,9.6,19.2
					c2.6,6.7,4.8,13.6,6.1,20.7c1.2,7.1,1.6,14.4,1.3,21.7C1653,638.7,1651.7,645.8,1649.1,652.5z"/>
			</g>
			<g>
				<path class="st11" d="M1522.9,899c4.6-4.3,7.9-9.7,10.5-15.3c2.6-5.6,4.7-11.5,6-17.5c0.7-3,1.4-6,1.8-9.1l0.7-4.6
					c0.1-0.8,0.3-1.5,0.3-2.3l0.2-2.3l0.7-9.3l0-9.3c0.1-3.1-0.1-6.2-0.3-9.3l-0.6-9.3c-0.8-6.2-1.4-12.4-2.3-18.6l-1.6-9.2
					l-0.7-4.6l-0.4-2.3l-0.5-2.3c-1.2-6.1-2.6-12.3-3.8-18.4c1.9,6,3.6,12,5.5,18.1c1.6,6.1,2.9,12.3,4.2,18.4
					c0.8,3.1,1,6.2,1.5,9.3l1.4,9.4c0.3,3.1,0.4,6.3,0.7,9.5c0.2,3.2,0.5,6.3,0.4,9.5l-0.1,9.5c-0.2,3.2-0.5,6.3-0.8,9.5l-0.2,2.4
					c-0.1,0.8-0.3,1.6-0.4,2.4l-0.8,4.7c-0.3,1.6-0.5,3.1-0.9,4.7l-1.3,4.6c-1.6,6.1-4.2,12-7.2,17.6l-2.5,4.1
					c-0.9,1.3-1.9,2.6-2.8,3.8C1527.6,894.8,1525.5,897.2,1522.9,899z"/>
			</g>
			<g>
				<path class="st11" d="M1509.8,866.4c-6.9-2.2-13.2-6.4-18.2-11.7c-5.1-5.4-8.5-12.2-10.2-19.5c-1.6-7.3-1.6-14.8-0.3-22.1
					c1.2-7.3,3.5-14.3,6.3-21.1c2.8-6.8,6.1-13.3,9.9-19.6c3.8-6.3,7.8-12.3,12.1-18.2c4.3-5.9,8.9-11.6,13.3-17.2
					c4.4-5.7,8.8-11.4,13-17.3c8.4-11.7,16.2-23.9,22.5-36.8c6.3-12.9,11.2-26.5,14.3-40.6c3.1-14.1,4.8-28.4,5.2-42.9
					c0.2-7.2,0.2-14.4-0.1-21.7c-0.2-7.2-0.8-14.4-1.4-21.6c1.6,14.4,2.7,28.8,2.5,43.3c-0.1,14.5-1.5,29-4.4,43.2
					c-3,14.2-7.7,28.1-14,41.2c-6.2,13.2-14,25.5-22.3,37.4c-4.2,5.9-8.5,11.8-12.9,17.5c-4.5,5.7-8.9,11.4-13,17.3
					c-8.3,11.7-15.8,24.1-21.5,37.1c-2.8,6.6-5.1,13.3-6.4,20.3c-0.6,3.5-1,7-1.2,10.5c-0.1,3.5,0.1,7.1,0.8,10.5
					c1.3,6.9,4.4,13.5,8.9,19C1497.3,859.2,1503.2,863.6,1509.8,866.4z"/>
			</g>
			<g>
				<path class="st11" d="M1451.8,834.5c3.9,4.2,8.1,7.9,12.5,11.1c4.5,3.2,9.3,6.1,14.2,8.5c4.9,2.5,10.1,4.6,15.3,6.6
					c5.2,2,10.6,3.7,16,5.6c-5.7-0.4-11.3-1.5-16.8-3c-5.5-1.5-10.9-3.5-16.1-6.1c-5.1-2.6-10.1-5.7-14.4-9.6
					C1458.3,844,1454.5,839.6,1451.8,834.5z"/>
			</g>
			<g>
				<path class="st11" d="M1568.9,539.9c0.2,12.8-1.9,25.7-5.1,38.1c-3.3,12.5-7.8,24.6-13.3,36.2c-1.4,2.9-3,5.7-4.4,8.6l-2.3,4.3
					c-0.8,1.4-1.7,2.8-2.5,4.1l-5.1,8.2l-5.6,7.9l-2.8,3.9c-0.9,1.3-2,2.5-3,3.8l-6.1,7.4l-1.6,1.8l-1.7,1.7l-3.3,3.5
					c-2.2,2.3-4.4,4.6-6.7,6.9c3.9-5.1,8.1-9.9,11.9-15.1l5.6-7.7c0.9-1.3,1.9-2.5,2.8-3.9l2.6-4l5.2-8l4.8-8.2l2.4-4.1l2.2-4.2
					c1.4-2.8,3-5.6,4.3-8.5l4-8.7c1.3-2.9,2.4-5.9,3.6-8.8c1.3-2.9,2.2-5.9,3.3-8.9c0.5-1.5,1.1-3,1.6-4.5l1.4-4.6
					C1564.7,565.1,1567.7,552.7,1568.9,539.9z"/>
			</g>
			<g>
				<path class="st11" d="M1170.1,427.2c-6.7,6-12.5,12.9-17.5,20.3c-5.1,7.3-9.4,15.2-12.8,23.4c-6.9,16.4-9.8,34.3-8.8,51.9
					c0.4,8.9,2.1,17.6,4.2,26.2c1.2,4.3,2.3,8.6,3.9,12.7c0.8,2.1,1.4,4.2,2.3,6.3l2.6,6.2c7.1,16.4,16.5,31.8,26.9,46.4
					c-2.8-3.5-5.6-7-8.4-10.6l-7.8-11c-2.4-3.8-4.8-7.7-7-11.6l-3.2-6l-1.6-3c-0.5-1-1-2.1-1.4-3.1l-2.8-6.2
					c-0.9-2.1-1.6-4.2-2.5-6.3c-1.7-4.2-2.9-8.6-4.3-12.9c-2.3-8.8-4-17.8-4.5-26.9c-0.4-9.1,0.1-18.3,1.7-27.2
					c1.7-9,4.4-17.7,8.1-26C1144.7,453.2,1155.9,438.3,1170.1,427.2z"/>
			</g>
			<g>
				<path class="st11" d="M1022.5,529.9c-4.7,8.8-8.7,18-12.4,27.2c-3.7,9.2-7,18.6-9.8,28.2c-2.8,9.5-5.2,19.2-6.7,29
					c-1.5,9.8-2.4,19.6-1.8,29.5c0.5,9.8,2.4,19.5,6.3,28.5c3.8,9,9.8,16.9,17.4,23.1c7.6,6.2,16.5,10.7,25.9,13.8
					c9.4,3.2,19.2,5,29.1,6.2c-10-0.4-19.9-1.9-29.7-4.5c-4.8-1.4-9.6-3.1-14.2-5.3c-4.6-2.2-8.9-4.9-13-8
					c-8.1-6.2-14.5-14.6-18.7-23.9c-4.2-9.4-6.2-19.5-6.7-29.7c-0.9-20.3,3.3-40.4,9.4-59.4c3.1-9.6,6.8-18.9,10.9-28
					c2.1-4.6,4.3-9.1,6.6-13.5C1017.4,538.5,1019.7,534.1,1022.5,529.9z"/>
			</g>
			<g>
				<path class="st11" d="M1240.1,632.5c5.9-22,3.4-45.5-5.6-65.9c-2.3-5.1-4.9-10-7.8-14.8c-2.9-4.8-6.3-9.2-9.8-13.7
					c-7.1-8.9-13.7-18.4-18.9-28.6c-5.3-10.2-9.3-21.1-11.4-32.4c-2.1-11.3-2-23.1,0.6-34.3c2.6-11.2,7.7-21.7,14.5-30.9
					c6.7-9.3,15.1-17.1,24.2-23.9c-8.8,7.1-17,15.2-23.4,24.5c-6.5,9.3-11.2,19.7-13.5,30.7c-2.3,11-2.3,22.4-0.1,33.4
					c2.2,11,6.3,21.6,11.6,31.5c5.3,9.9,11.8,19.2,18.8,28c7.3,8.8,13.9,18.4,18.3,29.1c4.5,10.6,7.4,22,7.7,33.6
					C1245.9,610.3,1244.4,621.9,1240.1,632.5z"/>
			</g>
			<g>
				<path class="st11" d="M1220.9,492.5c1.8,2.6,3.5,5.1,5.2,7.7c1.6,2.6,3,5.4,4.4,8.1c2.8,5.5,5.5,11.1,8,16.8
					c4.9,11.4,8.8,23.3,11.5,35.4c2.5,12.2,3.8,24.8,2.6,37.2c-0.7,6.2-1.8,12.4-3.8,18.3c-2,5.9-4.7,11.6-8.7,16.3
					c3.5-5.1,5.8-10.9,7.3-16.8c1.5-5.9,2.4-12,2.8-18.1c0.7-12.2-0.9-24.4-3.5-36.3c-1.4-5.9-3-11.8-5-17.6c-0.9-2.9-2-5.8-3-8.7
					c-1.1-2.9-2.2-5.7-3.4-8.5c-1.2-2.8-2.4-5.6-3.7-8.4c-1.3-2.8-2.5-5.6-3.9-8.3c-1.3-2.8-2.8-5.4-4-8.3
					C1222.5,498.6,1221.6,495.6,1220.9,492.5z"/>
			</g>
			<g>
				<path class="st11" d="M1282.3,361.8c-8.5,1.5-16.3,5.3-23.5,9.7c-7.2,4.5-14,9.7-20,15.6c-6.1,5.9-11.5,12.5-15.8,19.8
					c-4.4,7.3-7.7,15.1-10.2,23.5c1-8.6,3.7-17.1,7.7-24.8c1.1-1.9,2-3.9,3.3-5.7l3.7-5.4l4.2-5.1c1.4-1.7,3-3.2,4.5-4.8
					c6.3-6.1,13.4-11.4,21.2-15.5c1.9-1.1,3.9-1.9,5.9-2.8c2-0.9,4.1-1.5,6.1-2.3C1273.7,362.7,1278,361.7,1282.3,361.8z"/>
			</g>
			<g>
				<path class="st11" d="M1280.8,526.2c-0.6,16.1-1.3,32-0.9,47.9c0.4,15.9,1.5,31.8,5.1,47.4c1.9,7.8,3.6,15.7,4.9,23.6
					c1.3,7.9,2.3,15.9,2.5,24c0.2,8-0.4,16.2-2.7,23.9c-2.2,7.7-6.9,14.9-13.8,19.2c3.3-2.2,6.2-5.2,8.3-8.5
					c2.2-3.3,3.7-7.1,4.8-10.9c2.2-7.7,2.5-15.8,2.2-23.7c-0.7-16-4.3-31.7-8.2-47.1c-0.9-3.9-2.3-7.7-3-11.7
					c-0.9-3.9-1.6-7.9-2.1-11.9c-1.1-8-1.6-16.1-1.6-24.1C1276.3,558.1,1277.8,542,1280.8,526.2z"/>
			</g>
			<g>
				<path class="st11" d="M1354.7,384.8c-5.1,2.6-9.9,5.9-14.5,9.4c-4.5,3.5-8.9,7.3-13,11.3c-8.2,8-15.5,17-21.8,26.5
					c-12.6,19.1-21.7,40.5-27.3,62.7c-6,22.1-8.4,45.1-9.2,68.1c-0.1,5.7-0.1,11.5-0.2,17.3c0.2,5.7,0.4,11.5,0.6,17.3
					c0.4,5.7,0.7,11.5,1.2,17.3c0.6,5.7,1.2,11.5,1.7,17.2c-0.9-5.7-1.8-11.4-2.6-17.1c-0.7-5.7-1.3-11.5-2-17.2
					c-0.5-5.8-0.8-11.5-1.1-17.3c-0.1-5.8-0.3-11.6-0.3-17.4c0.1-11.6,0.7-23.2,2.2-34.7c1.3-11.5,3.5-23,6.3-34.2
					c2.9-11.3,6.8-22.3,11.5-32.9c4.7-10.6,10.3-20.9,17-30.4c6.7-9.5,14.3-18.4,22.9-26.2c4.3-3.9,8.9-7.5,13.6-10.8
					C1344.5,390.1,1349.4,387,1354.7,384.8z"/>
			</g>
			<g>
				<path class="st11" d="M1323.5,455.9c-0.3,3.5-0.8,7-1.1,10.6l-0.4,5.3l-0.3,5.3c-0.3,7.1-0.3,14.1,0.2,21.2
					c0.5,7,1.4,14,2.9,20.9c1.5,6.9,3.6,13.6,6,20.2c4.8,13.2,11.1,25.9,16.3,39.3c5.3,13.3,9.1,27.2,11.6,41.2
					c0.6,3.5,1.2,7,1.6,10.6c0.5,3.5,0.9,7.1,1.1,10.7c0.5,7.1,0.6,14.3,0,21.5c-1.2,14.3-5.2,28.6-13.3,40.6
					c-4,6-9.1,11.3-14.9,15.5c-5.8,4.2-12.5,7.4-19.4,9.2c-6.9,1.8-14.2,2.4-21.3,1.4c-7-1-14.1-3.5-19.2-8.5
					c5.3,4.8,12.4,7,19.3,7.8c7,0.8,14.1,0,20.8-2c6.7-2,13-5.2,18.6-9.4c5.6-4.2,10.3-9.4,14.1-15.3c7.6-11.7,11.2-25.7,12.2-39.6
					c0.5-7,0.4-14-0.1-21c-0.3-3.5-0.6-7-1.2-10.5c-0.5-3.5-1.1-7-1.7-10.4c-2.6-13.9-6.5-27.4-11.5-40.6c-5-13.2-11.2-26-16-39.5
					c-4.8-13.5-7.5-27.8-8-42C1319.5,484.1,1321,469.9,1323.5,455.9z"/>
			</g>
			<g>
				<path class="st11" d="M1240.7,719.7c4.4-2.5,8.4-5.5,12.2-8.8c3.7-3.3,7.2-6.9,10.3-10.8c6.2-7.7,11-16.5,14.3-25.8
					c1.7-4.7,2.9-9.5,3.9-14.3c0.9-4.9,1.6-9.8,1.9-14.8c0.7-9.9,0.3-20-0.7-30.1c2.4,9.8,3.7,20,3.5,30.2l-0.1,3.8l-0.3,3.8
					c-0.1,2.6-0.6,5.1-0.9,7.6c-0.9,5-2.2,10-3.9,14.9c-3.5,9.7-8.7,18.8-15.6,26.4C1258.4,709.5,1250.1,715.9,1240.7,719.7z"/>
			</g>
			<g>
				<path class="st11" d="M1525.3,542.4c-0.3,11.2-2.4,22.3-5.8,33c-3.5,10.7-8.5,20.9-14.6,30.3c-12.1,19-27.9,35.2-43.2,51.3
					c-7.7,8.1-15.3,16.2-22.3,24.7c-7.1,8.5-13.4,17.6-18.5,27.4c-5.1,9.8-8.8,20.3-10.7,31.2c-2,10.9-2,22.1-0.9,33.2
					c-1.9-11-2.2-22.3-0.8-33.5c1.5-11.2,4.9-22.1,9.9-32.2c4.9-10.2,11.4-19.5,18.4-28.3c7-8.8,14.7-17,22.4-25.1
					c15.4-16.1,31.1-32,43.5-50.3c6.2-9.2,11.4-19,15.3-29.4C1521.8,564.5,1524.1,553.5,1525.3,542.4z"/>
			</g>
			<g>
				<path class="st11" d="M1472.9,415.2c8.2,8.4,15.4,17.8,22,27.5c6.6,9.8,12.4,20.1,17.3,30.8c2.4,5.4,4.6,10.9,6.5,16.5
					c1.9,5.6,3.5,11.3,4.7,17.1c1.2,5.8,2,11.7,2.4,17.6c0.2,5.9,0.2,11.8-0.5,17.6c-0.1-5.9-0.4-11.7-1.2-17.5
					c-0.8-5.8-1.9-11.5-3.4-17.1c-2.9-11.2-6.9-22.2-11.7-32.8c-4.8-10.6-10.3-20.9-16.4-30.8C1486.5,434.3,1480,424.5,1472.9,415.2
					z"/>
			</g>
			<g>
				<path class="st11" d="M1475.4,470.7c-2,4.6-4,9.2-5.9,13.8c-1.9,4.6-3.8,9.3-5.6,13.9c-3.6,9.3-7,18.7-10.1,28.2
					c-3.2,9.4-5.9,19-8.5,28.7l-1.9,7.2l-1.7,7.3c-1.3,4.8-1.9,9.8-3.1,14.7c0.6-10,1.7-20.1,3.9-29.9c0.4-2.5,1-4.9,1.6-7.4
					c0.6-2.4,1.2-4.9,1.8-7.3c1.4-4.8,2.8-9.7,4.4-14.5c3.2-9.5,6.8-19,10.9-28.1C1465.4,488.2,1470.1,479.3,1475.4,470.7z"/>
			</g>
			<g>
				<path class="st11" d="M1460,480.5c-7.5,10-14.8,19.8-21.6,30c-3.5,5.1-6.7,10.3-9.9,15.5c-3.3,5.2-6.2,10.6-9.3,16
					c1.8-6,4-11.8,6.8-17.4c0.7-1.4,1.4-2.8,2.2-4.2c0.8-1.4,1.5-2.7,2.3-4.1c1.6-2.7,3.3-5.3,5-7.9c3.5-5.2,7.3-10.2,11.4-14.9
					C1450.9,489,1455.2,484.5,1460,480.5z"/>
			</g>
			<g>
				<path class="st11" d="M1505.8,601.8c-2.2,3.9-5,7.4-7.7,10.9c-2.8,3.5-5.7,6.8-8.7,10.1c-6.1,6.5-12.7,12.6-19.6,18.2
					c-6.9,5.6-14.3,10.7-22,15.2l-5.8,3.3c-2,1-4,2-6,2.9l-3,1.4l-3.1,1.3c-2.1,0.8-4.1,1.6-6.2,2.4c7.7-4.4,15.4-8.7,22.7-13.7
					c7.3-4.9,14.4-10,21.2-15.6c6.8-5.5,13.4-11.3,19.8-17.4c3.2-3.1,6.4-6.1,9.4-9.3C1499.9,608.3,1502.9,605.1,1505.8,601.8z"/>
			</g>
			<g>
				<path class="st11" d="M1645,617.1c4,14.6,5.3,29.9,4.9,45.1c-0.5,15.2-2.6,30.4-6.7,45.1c-4.2,14.7-9.6,28.9-16.3,42.5
					c-3.4,6.8-7.2,13.4-11.4,19.7c-2.1,3.1-4.4,6.2-6.9,9.1c-2.5,2.9-5,5.7-8,8.1c5.3-5.4,9.5-11.7,13.4-18.1
					c3.9-6.4,7.2-13.2,10.4-20c3-6.9,5.9-13.8,8.4-20.9c1.3-3.5,2.5-7.1,3.7-10.6c1.2-3.6,2.1-7.2,3.2-10.8
					c4.1-14.4,6.4-29.3,7.4-44.2C1647.9,647.1,1647.6,631.9,1645,617.1z"/>
			</g>
			<g>
				<path class="st11" d="M1110.6,401.1c-5.8,4.8-10.9,10.2-15.5,16c-4.7,5.8-8.8,12-12.6,18.3c-7.5,12.8-13.3,26.5-17.5,40.7
					c-4.3,14.2-7,28.9-8.5,43.7c-1.5,14.8-1.9,29.7-1.5,44.7c-1.8-14.9-2.3-29.9-1.3-45l0.4-5.6l0.6-5.6c0.4-3.7,1-7.5,1.6-11.2
					c1.4-7.4,3-14.8,5.2-22c2.2-7.2,4.7-14.3,7.9-21.2c3.1-6.9,6.6-13.6,10.7-19.9c4-6.4,8.6-12.4,13.7-18c2.5-2.8,5.2-5.4,8-8
					C1104.5,405.5,1107.4,403.1,1110.6,401.1z"/>
			</g>
			<g>
				<path class="st11" d="M947.5,712.3c2.2,5.3,5.2,10.1,8.8,14.2c3.7,4.1,8,7.4,13,9.6c4.9,2.2,10.3,3.4,15.9,3.7
					c5.5,0.4,11.2,0,16.9-0.6c-5.4,2.1-11.1,3.3-16.9,3.4c-2.9,0.2-5.9-0.2-8.8-0.6c-2.9-0.6-5.8-1.5-8.5-2.6
					c-5.4-2.5-10.2-6.4-13.7-11.1C950.6,723.6,948.2,718.1,947.5,712.3z"/>
			</g>
		</g>
	</g>
</g>
<g id="FRONT">
	<g>
		<g>
			<g>
				<g>
					<g>
						<path class="st10" d="M670,501c85.7-10.4,163.8,51.5,174.4,138.3c3.6,29.8-1.2,58.7-12.5,84.1l44.5,54.5l-82.6-1.8
							c-23,20.9-52.4,35.1-85.5,39.2c-85.7,10.4-163.8-51.5-174.4-138.3C523.3,590.3,584.2,511.5,670,501z"/>
					</g>
				</g>
			</g>
			<g>
				<g>
					<g>
						<g>
							<path class="st2" d="M876.3,778c-6.9-0.4-13.8-0.6-20.6-0.9c-6.9-0.2-13.8-0.4-20.6-0.6c-6.9-0.1-13.8-0.3-20.6-0.3
								l-10.3-0.1c-3.4,0-6.9,0-10.3,0.1c3.4,0.2,6.9,0.3,10.3,0.5l10.3,0.4c6.9,0.2,13.8,0.4,20.6,0.6c6.9,0.1,13.8,0.3,20.6,0.3
								C862.6,778.1,869.4,778.1,876.3,778z"/>
						</g>
					</g>
				</g>
			</g>
			<g>
				<g>
					<g>
						<g>
							<path class="st2" d="M831.9,723.5c3.5,4.7,7.1,9.3,10.8,13.9c3.6,4.6,7.3,9.1,11,13.7c3.7,4.5,7.4,9.1,11.2,13.6l5.7,6.7
								c1.9,2.2,3.8,4.4,5.8,6.6c-1.8-2.4-3.6-4.7-5.3-7l-5.4-6.9c-3.6-4.6-7.3-9.1-11-13.7c-3.7-4.5-7.4-9.1-11.2-13.5
								C839.5,732.3,835.8,727.8,831.9,723.5z"/>
						</g>
					</g>
				</g>
			</g>
			<g>
				<g>
					<g>
						<g>
							<path class="st2" d="M793.7,776.2c-7.2,6.4-14.9,12.1-23,17.2c-8.2,5-16.8,9.2-25.7,12.6c-17.8,6.8-36.9,10.1-56,10
								c-19-0.1-38.1-3.7-55.8-10.8c-17.7-7-34.2-17.4-48.2-30.4c-14.1-13-25.8-28.5-34.4-45.7c-8.6-17.2-13.9-36-15.9-55.1
								c-1-9.6-1.1-19.2-0.4-28.8c0.8-9.6,2.4-19.1,4.9-28.3c5-18.5,13.3-36.1,24.5-51.6c11.2-15.5,25.1-28.9,41.1-39.3
								c15.9-10.4,33.8-17.8,52.4-21.7c9.3-1.9,18.8-3.1,28.2-3.3c9.5-0.2,19,0.5,28.4,2c18.8,3.1,37,9.7,53.4,19.3
								c16.5,9.6,31.2,22.4,43.2,37.4c12,15,21.2,32.2,27.1,50.6c6,18.3,8.5,37.8,7.6,57.1c-0.9,19.3-5.4,38.4-13.2,56.1
								c7.9-17.6,12.6-36.7,13.7-56c1.1-19.3-1.3-38.9-7.1-57.5c-5.8-18.5-15-36-27.1-51.2c-12-15.2-26.8-28.2-43.4-38
								c-16.6-9.9-35-16.6-54-19.8c-9.5-1.6-19.1-2.3-28.8-2.1c-9.6,0.2-19.2,1.3-28.6,3.3c-18.8,3.9-37,11.4-53.1,21.9
								c-16.2,10.5-30.4,24.1-41.7,39.8c-11.3,15.7-19.8,33.6-24.8,52.4c-2.5,9.4-4.2,19-4.9,28.7c-0.7,9.7-0.6,19.5,0.4,29.2
								c2,19.4,7.4,38.4,16.2,55.8c8.7,17.4,20.7,33.1,35,46.1c14.3,13,31,23.4,48.9,30.4c17.9,7.1,37.1,10.6,56.3,10.6
								c19.2-0.1,38.3-3.6,56.2-10.6c8.9-3.5,17.5-7.8,25.7-12.9C779,788.5,786.7,782.7,793.7,776.2z"/>
						</g>
					</g>
				</g>
			</g>
		</g>
		<g>
			<g>
				<g>
					<g>
						<ellipse class="st2" cx="753.1" cy="657.4" rx="11.3" ry="11.4"/>
					</g>
				</g>
			</g>
			<g>
				<g>
					<g>
						<ellipse class="st2" cx="689.3" cy="657.4" rx="11.3" ry="11.4"/>
					</g>
				</g>
			</g>
			<g>
				<g>
					<g>
						<path class="st2" d="M614.2,657.4c0,6.3,5,11.4,11.3,11.4c6.2,0,11.3-5.1,11.3-11.4c0-6.3-5-11.4-11.3-11.4
							C619.2,646,614.2,651.1,614.2,657.4z"/>
					</g>
				</g>
			</g>
		</g>
	</g>
	<g>
		<g>
			<rect x="234.8" y="1764.6" class="st2" width="2030.4" height="3"/>
		</g>
		<g>
			<g>
				<path class="st6" d="M861.8,1764.4c0,0-7.3-22.7-9.3-41.2c-0.5-4.8-1.7-9.5-3.6-13.9c-5.6-12.7-16.8-40.7-17.1-61.9
					c-0.3-28.4-59.5,6-33.1,73.6c0,0-38.7-26.4-77.1,6.3c0,0-24.4-39.4-79.4-9.7c0,0-22.6-34.1-65.4-8c0,0-69.7-28.6-79.4,54.9h35
					l10.9,12.7c0,0-18.2,53.2,25.1,71.4c0,0-3.7,39.1,10.4,61.5c9.3,14.9,32.3,11.3,36.9-5.7c0-0.2,0.1-0.4,0.1-0.5
					c0,0,7.4,21.2,25.2,18.1c15.1-2.7,24.5-22.3,24.5-22.3s30.4,8.9,52-27.1c21.7-35.9,35.1-55.9,35.1-55.9l40.7-52.2H861.8z"/>
			</g>
			<g>
				<path class="st7" d="M721.7,1727.3c0.7,1.8,1.3,3.7,1.6,5.6c0.4,1.9,0.7,3.8,0.8,5.7c0.1,1,0.1,1.9,0.1,2.9l0,1.5
					c0,0.5,0,1-0.1,1.5c-0.1,1-0.1,1.9-0.2,2.9l-0.4,2.9c-0.1,1-0.3,1.9-0.5,2.9l-0.6,2.9c-0.6,1.9-1,3.8-1.6,5.6l-1,2.7
					c-0.3,0.9-0.7,1.8-1.1,2.7l-1.2,2.6c-0.4,0.9-0.8,1.8-1.3,2.6c-1,1.7-1.9,3.4-2.9,5l-3.3,4.8c-1.1,1.6-2.2,3.1-3.2,4.7
					c-0.5,0.8-1,1.6-1.5,2.4l-1.4,2.5c-1.8,3.4-3.4,6.8-4.9,10.4c-1.5,3.5-2.8,7.1-4.1,10.7c-2.5,7.2-4.7,14.6-6.9,21.9
					c-2.2,7.3-4.2,14.7-6.3,22.1c-2.1,7.4-4.3,14.7-6.7,22c-1.2,3.6-2.5,7.3-4,10.8c-0.7,1.8-1.5,3.5-2.4,5.2
					c-0.9,1.7-1.9,3.4-3.1,4.9l-0.2-0.1c2.1-3.2,3.4-6.8,4.7-10.4c1.3-3.6,2.4-7.3,3.5-10.9c2.2-7.3,4.1-14.7,6.1-22.1
					c2.1-7.4,4.2-14.7,6.5-22.1c2.3-7.3,4.8-14.6,7.6-21.7c2.8-7.1,5.9-14.2,9.4-21c1.7-3.4,3.7-6.7,5.8-10l3-4.9
					c0.9-1.7,1.8-3.4,2.6-5c3.3-6.8,6.1-13.9,7.3-21.4c0.7-3.7,1-7.5,0.9-11.3c-0.1-3.8-0.5-7.6-1.5-11.3L721.7,1727.3z"/>
			</g>
			<g>
				<path class="st7" d="M642.3,1717.5c1.4,1.5,2.5,3.2,3.5,5c0.5,0.9,0.9,1.8,1.3,2.7c0.4,0.9,0.7,1.9,1.1,2.9
					c1.3,3.9,1.9,7.9,2.3,12c0.4,8.2-0.8,16.4-3.1,24.1c-0.6,1.9-1.2,3.9-1.9,5.8l-2.3,5.6c-1.5,3.7-3.2,7.4-4.7,11.1
					c-0.7,1.9-1.5,3.7-2.2,5.6l-2,5.7l-1,2.8l-0.9,2.9l-1.8,5.8c-2.3,7.7-4.5,15.5-6.4,23.3c-1.9,7.8-3.7,15.6-5.1,23.6
					c-1.4,7.9-2.7,15.8-3.2,23.8c-0.6,8-0.8,16,0,24.1l-0.2,0c-1.4-8-1.7-16.1-1.4-24.2c0.1-2,0.2-4,0.4-6.1l0.6-6
					c0.2-2,0.5-4,0.8-6l0.4-3l0.5-3c2.8-15.9,7.2-31.5,12.6-46.8c2.7-7.6,5.5-15.2,8.4-22.7c1.4-3.8,2.9-7.5,4.2-11.3l2-5.7
					c0.6-1.9,1.1-3.9,1.7-5.8c2.1-7.7,3.4-15.6,3.2-23.6c-0.2-4-0.6-7.9-1.7-11.8c-1.1-3.8-2.6-7.6-5-10.8L642.3,1717.5z"/>
			</g>
			<g>
				<path class="st7" d="M568.5,1848.4c0.8,0.3,1.6,0.5,2.3,0.8c0.8,0.2,1.6,0.5,2.3,0.5c1.6,0.1,3.1-0.4,4.3-1.3
					c1.2-0.9,2-2.3,2.3-3.7c0.1-0.7,0.1-1.6,0.2-2.4c0-0.8,0.1-1.6,0.2-2.5c0.5-6.6,1.2-13.1,2.3-19.6c1.1-6.5,2.5-12.9,3.9-19.3
					c1.5-6.4,2.9-12.8,5.1-19.1c0.6-1.6,1.2-3.1,1.7-4.6c0.5-1.5,0.9-3.1,1.2-4.7c0.3-1.6,0.5-3.2,0.6-4.8c0.1-1.6,0.1-3.3,0.2-4.9
					c0.1-6.5-0.3-13-1.2-19.4c-1-6.4-2.5-12.7-5.2-18.6c-2.7-5.9-6.6-11.2-11.9-15.2l0.1-0.2c5.6,3.4,10.1,8.7,13.1,14.7
					c3,5.9,4.9,12.4,5.9,19c1,6.6,1.3,13.2,1,19.8c-0.1,1.7-0.2,3.3-0.3,5c-0.1,1.7-0.4,3.3-0.8,5c-0.4,1.6-0.9,3.2-1.5,4.8
					c-0.6,1.6-1.3,3-2,4.5c-0.6,1.5-1.2,3-1.7,4.6c-0.5,1.6-1,3.1-1.5,4.7c-0.9,3.2-1.7,6.3-2.3,9.5c-1.3,6.4-2.1,12.9-2.9,19.4
					c-0.8,6.5-1.6,13-2.4,19.5l-0.3,2.4c-0.1,0.8-0.2,1.6-0.3,2.5c-0.4,1.7-1.5,3.3-3,4.3c-1.5,1-3.3,1.4-5,1.1
					c-0.9-0.1-1.7-0.4-2.4-0.7c-0.8-0.3-1.5-0.6-2.3-1L568.5,1848.4z"/>
			</g>
			<g>
				<path class="st7" d="M795.6,1719.1c4.2,1.6,8,4.7,10.3,8.8c1.2,2,1.9,4.3,2.2,6.7c0.3,2.3,0.1,4.7-0.3,7
					c-0.5,2.3-1.2,4.5-2.2,6.6c-1,2.1-2.1,4.1-3.4,6c-2.5,3.8-5.5,7.2-8.8,10.3c2.7-3.6,5.3-7.3,7.5-11.1c2.2-3.8,4-7.9,4.9-12.1
					c0.9-4.2,0.5-8.7-1.3-12.5C802.6,1724.8,799.4,1721.5,795.6,1719.1z"/>
			</g>
			<g>
				<path class="st7" d="M532.5,1764.4c-0.9-1.3-1.4-2.8-1.9-4.2c-0.4-1.5-0.7-3-0.9-4.5c-0.1-1.5-0.1-3.1,0.1-4.6
					c0.2-1.5,0.7-3,1.4-4.4c0.1,1.6,0.1,3,0.1,4.5c0.1,1.5,0.2,2.9,0.3,4.4l0.4,4.4C532.3,1761.4,532.4,1762.9,532.5,1764.4z"/>
			</g>
		</g>
	</g>
</g>
</svg>
