<svg width="465" height="431" viewBox="0 0 465 431" fill="none" xmlns="http://www.w3.org/2000/svg">
<path d="M27.8044 89.9575H29.2024C34.6078 89.9575 38.9857 85.5047 38.9857 80.0209C38.9857 74.5371 34.6078 70.0842 29.2024 70.0842H27.8044C22.4021 70.0842 18.0212 74.5371 18.0212 80.0209C18.0212 85.5047 22.4021 89.9575 27.8044 89.9575Z" fill="#08C7D1"/>
<path d="M104.217 70.0655H57.8577V70.0935C55.3386 70.2568 52.9776 71.3753 51.2591 73.2196C49.5407 75.0638 48.5951 77.494 48.6163 80.0115C48.6163 85.3183 52.7077 89.6377 57.8577 89.9296V89.9575H84.9468C90.3491 89.9575 94.7301 94.4104 94.7301 99.8942C94.7301 105.378 90.3491 109.831 84.9468 109.831H21.1162C15.7108 109.831 11.3298 114.284 11.3298 119.768C11.3298 120.094 11.3485 120.417 11.3797 120.733C11.3797 120.842 11.4077 120.944 11.4232 121.044C11.4482 121.252 11.4762 121.46 11.5135 121.665C11.5385 121.792 11.5696 121.916 11.6007 122.041C11.6412 122.218 11.6817 122.398 11.7346 122.572C11.7875 122.745 11.8156 122.836 11.8592 122.966C11.9028 123.096 11.9681 123.276 12.0304 123.438C12.0927 123.599 12.1394 123.708 12.1986 123.842C12.2577 123.975 12.3293 124.121 12.3947 124.258C12.4601 124.394 12.5379 124.537 12.6127 124.671C12.6874 124.804 12.7528 124.907 12.8244 125.025C12.896 125.143 13.0019 125.314 13.0984 125.45C13.1949 125.587 13.2292 125.63 13.2946 125.72C13.4098 125.876 13.5219 126.031 13.6464 126.18L13.7305 126.273C14.4338 127.095 15.2668 127.796 16.1965 128.35L16.2339 128.372C16.4581 128.503 16.6916 128.627 16.9283 128.739L17.003 128.776C17.2365 128.888 17.4763 128.987 17.7191 129.086L17.8001 129.114C18.0492 129.204 18.3014 129.288 18.5567 129.357L18.619 129.375C18.8837 129.443 19.1545 129.506 19.4285 129.555H58.8666C64.2688 129.555 68.6498 134.008 68.6498 139.492C68.6498 144.976 64.2688 149.429 58.8666 149.429H47.9437C47.4655 149.536 46.9961 149.679 46.5395 149.857L46.3246 149.938C46.1502 150.009 45.9821 150.09 45.8171 150.174L45.5057 150.317C45.35 150.401 45.1943 150.487 45.0511 150.578C44.9079 150.668 44.8425 150.702 44.7397 150.77C44.637 150.838 44.4595 150.956 44.3225 151.056L44.0111 151.286C43.8835 151.388 43.7558 151.49 43.6313 151.596C43.5067 151.702 43.432 151.779 43.3199 151.872C43.2078 151.966 43.0926 152.087 42.9836 152.183C42.8746 152.279 42.7781 152.413 42.6723 152.531C42.5664 152.649 42.4854 152.736 42.3983 152.841C42.2208 153.062 42.0526 153.291 41.8938 153.527C41.8284 153.624 41.7693 153.729 41.707 153.838C41.6105 153.993 41.5171 154.149 41.4268 154.307C41.3365 154.465 41.3116 154.534 41.2555 154.648C41.1995 154.763 41.0998 154.959 41.0282 155.124C40.9566 155.288 40.9317 155.363 40.885 155.484C40.8383 155.605 40.7573 155.816 40.7013 155.987C40.6639 156.108 40.6234 156.229 40.5892 156.353C40.5363 156.53 40.4927 156.713 40.4522 156.897C40.4242 157.015 40.3961 157.133 40.3744 157.254C40.3339 157.459 40.3058 157.667 40.2809 157.875C40.2809 157.977 40.2498 158.08 40.2405 158.185C40.2093 158.496 40.1906 158.806 40.1906 159.139C40.1906 159.471 40.2093 159.797 40.2405 160.12C40.2405 160.229 40.2716 160.337 40.2841 160.43C40.3121 160.638 40.3401 160.85 40.3806 161.051C40.4055 161.182 40.4397 161.309 40.4678 161.436C40.5114 161.613 40.5518 161.794 40.6048 161.967C40.6577 162.141 40.6919 162.241 40.7387 162.377C40.7854 162.514 40.8476 162.688 40.9068 162.843C40.966 162.998 41.0251 163.126 41.0905 163.265C41.1559 163.405 41.2151 163.542 41.2867 163.678C41.3583 163.815 41.4361 163.964 41.5171 164.104C41.598 164.244 41.6572 164.343 41.7319 164.461C41.8066 164.579 41.9187 164.75 42.0153 164.893L42.2363 165.203C42.3484 165.349 42.4636 165.495 42.582 165.635C42.6505 165.715 42.7221 165.793 42.7937 165.871C42.9307 166.02 43.0677 166.181 43.2109 166.309L43.3884 166.473C43.5534 166.625 43.7216 166.784 43.8959 166.92L43.9925 166.992C45.3634 168.075 47.0035 168.766 48.7377 168.991H91.4794C96.8816 168.991 101.263 173.444 101.263 178.928C101.263 184.412 96.8816 188.865 91.4794 188.865H22.7509C21.9953 189.033 21.2633 189.292 20.5713 189.638L20.3564 189.744C20.1852 189.834 20.017 189.933 19.852 190.032C19.7648 190.085 19.6808 190.135 19.5967 190.191C19.441 190.29 19.2853 190.396 19.1421 190.501L18.8774 190.703C18.7404 190.812 18.6003 190.924 18.4695 191.038L18.208 191.281C18.0834 191.399 17.9589 191.517 17.8406 191.638C17.7222 191.759 17.6662 191.83 17.579 191.93C17.4918 192.029 17.3611 192.169 17.2676 192.296C17.0933 192.51 16.9283 192.737 16.7726 192.967C16.701 193.072 16.6418 193.181 16.5733 193.277C16.5048 193.374 16.3896 193.588 16.3055 193.724C16.2214 193.861 16.1872 193.957 16.128 194.075C16.0689 194.193 15.9755 194.386 15.907 194.544C15.8385 194.703 15.8073 194.783 15.7606 194.908C15.7139 195.032 15.6361 195.237 15.58 195.404C15.524 195.572 15.5022 195.65 15.4679 195.774C15.415 195.951 15.3714 196.134 15.3309 196.314C15.3029 196.435 15.2749 196.553 15.25 196.674C15.2126 196.876 15.1846 197.084 15.1597 197.295C15.1597 197.401 15.1285 197.5 15.1192 197.606C15.0881 197.917 15.0694 198.227 15.0694 198.559C15.0694 204.052 19.4503 208.496 24.8557 208.496H57.8608V208.676H68.1827C73.585 208.676 77.966 213.132 77.966 218.613C77.966 224.093 73.585 228.549 68.1827 228.549H44.7055C44.4159 228.599 44.1295 228.658 43.8492 228.733C41.9446 229.236 40.2372 230.302 38.9514 231.791L38.8486 231.906C38.7179 232.061 38.5995 232.217 38.4781 232.384C38.4158 232.468 38.3536 232.549 38.2944 232.636C38.1917 232.782 38.0982 232.946 38.0048 233.083C37.9114 233.22 37.8678 233.304 37.8056 233.418C37.7433 233.533 37.6499 233.704 37.5751 233.85C37.5004 233.996 37.4475 234.114 37.3852 234.251C37.3229 234.387 37.2638 234.527 37.2077 234.67C37.1517 234.813 37.0956 234.98 37.0427 235.129C36.9898 235.278 36.9524 235.4 36.9119 235.536C36.8714 235.673 36.8216 235.884 36.778 236.061C36.75 236.188 36.7189 236.313 36.694 236.443C36.6535 236.645 36.6255 236.853 36.6006 237.064C36.6006 237.17 36.5663 237.278 36.557 237.374C36.5258 237.685 36.5071 238.014 36.5071 238.343C36.5071 238.672 36.5258 238.964 36.5538 239.275C36.5538 239.377 36.5788 239.477 36.5912 239.585C36.6192 239.793 36.6473 239.998 36.6846 240.206C36.7064 240.321 36.7313 240.436 36.7562 240.551C36.7967 240.734 36.8434 240.918 36.8964 241.098C36.9275 241.216 36.9617 241.331 36.9991 241.445C37.0552 241.622 37.1205 241.796 37.1859 241.97C37.2295 242.079 37.2669 242.188 37.3136 242.281C37.4008 242.486 37.5004 242.688 37.6001 242.902C37.6997 243.116 37.7744 243.212 37.8678 243.389C37.9612 243.566 38.0266 243.666 38.1138 243.799C38.201 243.933 38.2944 244.063 38.3909 244.197C38.4875 244.33 38.531 244.392 38.6058 244.489C38.6805 244.585 38.8237 244.762 38.9389 244.895C39.0043 244.973 39.0728 245.047 39.1413 245.122C39.2721 245.262 39.4029 245.401 39.5368 245.532L39.6862 245.672C40.4034 246.339 41.2168 246.896 42.0993 247.324L42.1834 247.364C42.3982 247.466 42.6162 247.56 42.8404 247.643L42.9369 247.681C43.1673 247.768 43.4009 247.845 43.6406 247.914C44.5026 248.164 45.3956 248.293 46.2935 248.296H106.357C107.254 248.293 108.148 248.164 109.009 247.914H275.218V70.0655H104.217ZM90.0813 149.475H88.6833C83.2779 149.475 78.9001 145.022 78.9001 139.539C78.9001 134.055 83.2779 129.602 88.6833 129.602H90.0813C95.4836 129.602 99.8645 134.055 99.8645 139.539C99.8645 145.022 95.4836 149.475 90.0813 149.475Z" fill="#08C7D1"/>
<g style="mix-blend-mode:multiply">
<path d="M183.287 91.712H68.0395C30.6183 91.712 0.282471 121.965 0.282471 159.285V363.067C0.282471 400.387 30.6183 430.64 68.0395 430.64H183.287C220.708 430.64 251.044 400.387 251.044 363.067V159.285C251.044 121.965 220.708 91.712 183.287 91.712Z" fill="white"/>
<path d="M188.421 88.8024H70.0634C33.7703 88.8024 4.34894 118.144 4.34894 154.338V360.878C4.34894 397.072 33.7703 426.414 70.0634 426.414H188.421C224.714 426.414 254.135 397.072 254.135 360.878V154.338C254.135 118.144 224.714 88.8024 188.421 88.8024Z" fill="#FEFEFE"/>
<path d="M193.556 85.8959H72.0874C36.9224 85.8959 8.41553 114.325 8.41553 149.394V358.692C8.41553 393.761 36.9224 422.191 72.0874 422.191H193.556C228.721 422.191 257.227 393.761 257.227 358.692V149.394C257.227 114.325 228.721 85.8959 193.556 85.8959Z" fill="#FDFCFC"/>
<path d="M198.693 82.9863H74.1112C40.0743 82.9863 12.4819 110.504 12.4819 144.448V356.503C12.4819 390.447 40.0743 417.964 74.1112 417.964H198.693C232.73 417.964 260.322 390.447 260.322 356.503V144.448C260.322 110.504 232.73 82.9863 198.693 82.9863Z" fill="#FBFBFB"/>
<path d="M203.828 80.0799H76.1351C43.2263 80.0799 16.5484 106.685 16.5484 139.504V354.317C16.5484 387.136 43.2263 413.741 76.1351 413.741H203.828C236.736 413.741 263.414 387.136 263.414 354.317V139.504C263.414 106.685 236.736 80.0799 203.828 80.0799Z" fill="#FAFAFA"/>
<path d="M208.962 77.1703H78.159C46.3783 77.1703 20.6149 102.864 20.6149 134.558V352.131C20.6149 383.825 46.3783 409.518 78.159 409.518H208.962C240.743 409.518 266.506 383.825 266.506 352.131V134.558C266.506 102.864 240.743 77.1703 208.962 77.1703Z" fill="#F9F9F9"/>
<path d="M214.097 74.2607H80.1861C49.5317 74.2607 24.6814 99.0433 24.6814 129.614V349.939C24.6814 380.509 49.5317 405.292 80.1861 405.292H214.097C244.751 405.292 269.601 380.509 269.601 349.939V129.614C269.601 99.0433 244.751 74.2607 214.097 74.2607Z" fill="#F8F7F7"/>
<path d="M219.231 71.3542H82.2099C52.6837 71.3542 28.7479 95.2248 28.7479 124.671V347.752C28.7479 377.198 52.6837 401.069 82.2099 401.069H219.231C248.757 401.069 272.693 377.198 272.693 347.752V124.671C272.693 95.2248 248.757 71.3542 219.231 71.3542Z" fill="#F7F6F6"/>
<path d="M224.366 68.4446H84.2338C55.8356 68.4446 32.8143 91.4033 32.8143 119.724V345.563C32.8143 373.884 55.8356 396.843 84.2338 396.843H224.366C252.764 396.843 275.785 373.884 275.785 345.563V119.724C275.785 91.4033 252.764 68.4446 224.366 68.4446Z" fill="#F5F5F5"/>
<path d="M229.5 65.5381H86.2577C58.9876 65.5381 36.8808 87.5848 36.8808 114.781V343.377C36.8808 370.573 58.9876 392.62 86.2577 392.62H229.5C256.77 392.62 278.877 370.573 278.877 343.377V114.781C278.877 87.5848 256.77 65.5381 229.5 65.5381Z" fill="#F4F3F3"/>
<path d="M234.641 62.6286H88.2847C62.1427 62.6286 40.9504 83.7632 40.9504 109.834V341.191C40.9504 367.262 62.1427 388.397 88.2847 388.397H234.641C260.783 388.397 281.975 367.262 281.975 341.191V109.834C281.975 83.7632 260.783 62.6286 234.641 62.6286Z" fill="#F3F2F2"/>
<path d="M239.775 59.719H90.3087C65.2947 59.719 45.0169 79.9416 45.0169 104.887V339.002C45.0169 363.948 65.2947 384.17 90.3087 384.17H239.775C264.789 384.17 285.067 363.948 285.067 339.002V104.887C285.067 79.9416 264.789 59.719 239.775 59.719Z" fill="#F2F1F1"/>
<path d="M244.907 56.8125H92.3357C68.4481 56.8125 49.0834 76.1245 49.0834 99.947V336.813C49.0834 360.635 68.4481 379.947 92.3357 379.947H244.907C268.794 379.947 288.159 360.635 288.159 336.813V99.947C288.159 76.1245 268.794 56.8125 244.907 56.8125Z" fill="#F1F0F0"/>
<path d="M250.044 53.9029H94.3596C71.6001 53.9029 53.1498 72.3029 53.1498 95.0004V334.624C53.1498 357.321 71.6001 375.721 94.3596 375.721H250.044C272.804 375.721 291.254 357.321 291.254 334.624V95.0004C291.254 72.3029 272.804 53.9029 250.044 53.9029Z" fill="#F0EEEE"/>
<path d="M255.179 50.9964H96.3834C74.752 50.9964 57.2163 68.4844 57.2163 90.0569V332.438C57.2163 354.01 74.752 371.498 96.3834 371.498H255.179C276.81 371.498 294.346 354.01 294.346 332.438V90.0569C294.346 68.4844 276.81 50.9964 255.179 50.9964Z" fill="#EEEDED"/>
<path d="M260.313 48.0868H98.4074C77.9041 48.0868 61.2828 64.6628 61.2828 85.1103V330.251C61.2828 350.699 77.9041 367.275 98.4074 367.275H260.313C280.816 367.275 297.438 350.699 297.438 330.251V85.1103C297.438 64.6628 280.816 48.0868 260.313 48.0868Z" fill="#EDECEC"/>
<path d="M265.448 45.1773H100.431C81.056 45.1773 65.3493 60.8412 65.3493 80.1637V328.062C65.3493 347.385 81.056 363.049 100.431 363.049H265.448C284.823 363.049 300.53 347.385 300.53 328.062V80.1637C300.53 60.8412 284.823 45.1773 265.448 45.1773Z" fill="#ECEAEA"/>
<path d="M270.585 42.2708H102.455C84.208 42.2708 69.4158 57.0228 69.4158 75.2202V325.876C69.4158 344.074 84.208 358.826 102.455 358.826H270.585C288.832 358.826 303.625 344.074 303.625 325.876V75.2202C303.625 57.0228 288.832 42.2708 270.585 42.2708Z" fill="#EBE9E9"/>
<path d="M275.717 39.3612H104.482C87.3614 39.3612 73.4823 53.2025 73.4823 70.2767V323.684C73.4823 340.758 87.3614 354.599 104.482 354.599H275.717C292.837 354.599 306.716 340.758 306.716 323.684V70.2767C306.716 53.2025 292.837 39.3612 275.717 39.3612Z" fill="#EAE8E8"/>
<path d="M280.851 36.4547H106.506C90.5134 36.4547 77.5488 49.384 77.5488 65.3332V321.498C77.5488 337.447 90.5134 350.376 106.506 350.376H280.851C296.844 350.376 309.808 337.447 309.808 321.498V65.3332C309.808 49.384 296.844 36.4547 280.851 36.4547Z" fill="#E8E7E7"/>
<path d="M285.989 33.5451H108.53C93.6654 33.5451 81.6152 45.5625 81.6152 60.3866V319.312C81.6152 334.136 93.6654 346.153 108.53 346.153H285.989C300.853 346.153 312.903 334.136 312.903 319.312V60.3866C312.903 45.5625 300.853 33.5451 285.989 33.5451Z" fill="#E7E5E5"/>
<path d="M291.126 30.6355H110.557C96.8205 30.6355 85.6848 41.7409 85.6848 55.44V317.123C85.6848 330.822 96.8205 341.927 110.557 341.927H291.126C304.863 341.927 315.998 330.822 315.998 317.123V55.44C315.998 41.7409 304.863 30.6355 291.126 30.6355Z" fill="#E6E4E4"/>
<path d="M291.814 29.9679H111.245C97.5086 29.9679 86.3729 41.0733 86.3729 54.7724V316.455C86.3729 330.154 97.5086 341.259 111.245 341.259H291.814C305.551 341.259 316.686 330.154 316.686 316.455V54.7724C316.686 41.0733 305.551 29.9679 291.814 29.9679Z" fill="#E5E3E3"/>
<path d="M292.506 29.3003H111.936C98.1999 29.3003 87.0642 40.4056 87.0642 54.1047V315.787C87.0642 329.487 98.1999 340.592 111.936 340.592H292.506C306.242 340.592 317.378 329.487 317.378 315.787V54.1047C317.378 40.4056 306.242 29.3003 292.506 29.3003Z" fill="#E5E3E3"/>
<path d="M293.197 28.6327H112.628C98.8911 28.6327 87.7555 39.738 87.7555 53.4371V315.12C87.7555 328.819 98.8911 339.924 112.628 339.924H293.197C306.933 339.924 318.069 328.819 318.069 315.12V53.4371C318.069 39.738 306.933 28.6327 293.197 28.6327Z" fill="#E4E2E2"/>
<path d="M293.885 27.9651H113.316C99.5793 27.9651 88.4436 39.0704 88.4436 52.7695V314.452C88.4436 328.151 99.5793 339.257 113.316 339.257H293.885C307.621 339.257 318.757 328.151 318.757 314.452V52.7695C318.757 39.0704 307.621 27.9651 293.885 27.9651Z" fill="#E4E2E2"/>
<path d="M294.576 27.2943H114.007C100.27 27.2943 89.1348 38.3997 89.1348 52.0988V313.781C89.1348 327.481 100.27 338.586 114.007 338.586H294.576C308.313 338.586 319.448 327.481 319.448 313.781V52.0988C319.448 38.3997 308.313 27.2943 294.576 27.2943Z" fill="#E3E1E1"/>
<path d="M295.267 26.6267H114.698C100.962 26.6267 89.826 37.732 89.826 51.4311V313.114C89.826 326.813 100.962 337.918 114.698 337.918H295.267C309.004 337.918 320.14 326.813 320.14 313.114V51.4311C320.14 37.732 309.004 26.6267 295.267 26.6267Z" fill="#E3E0E0"/>
<path d="M295.956 25.9591H115.386C101.65 25.9591 90.5142 37.0644 90.5142 50.7636V312.446C90.5142 326.145 101.65 337.251 115.386 337.251H295.956C309.692 337.251 320.828 326.145 320.828 312.446V50.7636C320.828 37.0644 309.692 25.9591 295.956 25.9591Z" fill="#E2E0E0"/>
<path d="M296.647 25.2915H116.078C102.341 25.2915 91.2054 36.3968 91.2054 50.0959V311.779C91.2054 325.478 102.341 336.583 116.078 336.583H296.647C310.383 336.583 321.519 325.478 321.519 311.779V50.0959C321.519 36.3968 310.383 25.2915 296.647 25.2915Z" fill="#E2DFDF"/>
<path d="M297.338 24.6207H116.769C103.032 24.6207 91.8967 35.7261 91.8967 49.4252V311.108C91.8967 324.807 103.032 335.912 116.769 335.912H297.338C311.075 335.912 322.21 324.807 322.21 311.108V49.4252C322.21 35.7261 311.075 24.6207 297.338 24.6207Z" fill="#E1DEDE"/>
<path d="M298.026 23.9531H117.457C103.72 23.9531 92.5848 35.0584 92.5848 48.7575V310.44C92.5848 324.139 103.72 335.245 117.457 335.245H298.026C311.763 335.245 322.898 324.139 322.898 310.44V48.7575C322.898 35.0584 311.763 23.9531 298.026 23.9531Z" fill="#E1DEDE"/>
<path d="M298.717 23.2855H118.148C104.412 23.2855 93.2761 34.3908 93.2761 48.09V309.773C93.2761 323.472 104.412 334.577 118.148 334.577H298.717C312.454 334.577 323.59 323.472 323.59 309.773V48.09C323.59 34.3908 312.454 23.2855 298.717 23.2855Z" fill="#E0DDDD"/>
<path d="M299.409 22.6179H118.839C105.103 22.6179 93.9672 33.7232 93.9672 47.4223V309.105C93.9672 322.804 105.103 333.909 118.839 333.909H299.409C313.145 333.909 324.281 322.804 324.281 309.105V47.4223C324.281 33.7232 313.145 22.6179 299.409 22.6179Z" fill="#E0DDDD"/>
<path d="M300.1 21.9471H119.531C105.794 21.9471 94.6585 33.0525 94.6585 46.7516V308.434C94.6585 322.133 105.794 333.239 119.531 333.239H300.1C313.836 333.239 324.972 322.133 324.972 308.434V46.7516C324.972 33.0525 313.836 21.9471 300.1 21.9471Z" fill="#DFDCDC"/>
<path d="M300.788 21.2795H120.219C106.482 21.2795 95.3466 32.3848 95.3466 46.084V307.767C95.3466 321.466 106.482 332.571 120.219 332.571H300.788C314.525 332.571 325.66 321.466 325.66 307.767V46.084C325.66 32.3848 314.525 21.2795 300.788 21.2795Z" fill="#DFDBDB"/>
<path d="M301.479 20.6119H120.91C107.173 20.6119 96.0378 31.7172 96.0378 45.4164V307.099C96.0378 320.798 107.173 331.903 120.91 331.903H301.479C315.216 331.903 326.351 320.798 326.351 307.099V45.4164C326.351 31.7172 315.216 20.6119 301.479 20.6119Z" fill="#DEDBDB"/>
<path d="M302.17 19.9443H121.601C107.865 19.9443 96.7291 31.0496 96.7291 44.7487V306.431C96.7291 320.131 107.865 331.236 121.601 331.236H302.17C315.907 331.236 327.043 320.131 327.043 306.431V44.7487C327.043 31.0496 315.907 19.9443 302.17 19.9443Z" fill="#DEDADA"/>
<path d="M302.859 19.2767H122.289C108.553 19.2767 97.4172 30.382 97.4172 44.0811V305.764C97.4172 319.463 108.553 330.568 122.289 330.568H302.859C316.595 330.568 327.731 319.463 327.731 305.764V44.0811C327.731 30.382 316.595 19.2767 302.859 19.2767Z" fill="#DDD9D9"/>
<path d="M303.55 18.606H122.981C109.244 18.606 98.1084 29.7113 98.1084 43.4104V305.093C98.1084 318.792 109.244 329.898 122.981 329.898H303.55C317.286 329.898 328.422 318.792 328.422 305.093V43.4104C328.422 29.7113 317.286 18.606 303.55 18.606Z" fill="#DDD9D9"/>
<path d="M304.241 17.9383H123.672C109.935 17.9383 98.7997 29.0436 98.7997 42.7428V304.425C98.7997 318.125 109.935 329.23 123.672 329.23H304.241C317.978 329.23 329.113 318.125 329.113 304.425V42.7428C329.113 29.0436 317.978 17.9383 304.241 17.9383Z" fill="#DCD8D8"/>
<path d="M304.929 17.2707H124.36C110.623 17.2707 99.4878 28.376 99.4878 42.0751V303.758C99.4878 317.457 110.623 328.562 124.36 328.562H304.929C318.666 328.562 329.801 317.457 329.801 303.758V42.0751C329.801 28.376 318.666 17.2707 304.929 17.2707Z" fill="#DCD8D8"/>
<path d="M305.62 16.6031H125.051C111.315 16.6031 100.179 27.7084 100.179 41.4075V303.09C100.179 316.789 111.315 327.895 125.051 327.895H305.62C319.357 327.895 330.493 316.789 330.493 303.09V41.4075C330.493 27.7084 319.357 16.6031 305.62 16.6031Z" fill="#DBD7D7"/>
<path d="M306.05 16.2025H125.481C111.744 16.2025 100.609 27.3078 100.609 41.0069V302.69C100.609 316.389 111.744 327.494 125.481 327.494H306.05C319.787 327.494 330.922 316.389 330.922 302.69V41.0069C330.922 27.3078 319.787 16.2025 306.05 16.2025Z" fill="#DAD6D6"/>
<path d="M306.48 15.8019H125.911C112.174 15.8019 101.038 26.9073 101.038 40.6064V302.289C101.038 315.988 112.174 327.093 125.911 327.093H306.48C320.216 327.093 331.352 315.988 331.352 302.289V40.6064C331.352 26.9073 320.216 15.8019 306.48 15.8019Z" fill="#D9D5D5"/>
<path d="M306.906 15.4014H126.337C112.601 15.4014 101.465 26.5067 101.465 40.2058V301.888C101.465 315.588 112.601 326.693 126.337 326.693H306.906C320.643 326.693 331.779 315.588 331.779 301.888V40.2058C331.779 26.5067 320.643 15.4014 306.906 15.4014Z" fill="#D8D4D4"/>
<path d="M307.336 15.0008H126.767C113.03 15.0008 101.895 26.1061 101.895 39.8052V301.488C101.895 315.187 113.03 326.292 126.767 326.292H307.336C321.073 326.292 332.208 315.187 332.208 301.488V39.8052C332.208 26.1061 321.073 15.0008 307.336 15.0008Z" fill="#D7D3D2"/>
<path d="M307.766 14.6002H127.197C113.46 14.6002 102.324 25.7055 102.324 39.4047V301.087C102.324 314.786 113.46 325.892 127.197 325.892H307.766C321.502 325.892 332.638 314.786 332.638 301.087V39.4047C332.638 25.7055 321.502 14.6002 307.766 14.6002Z" fill="#D6D2D1"/>
<path d="M308.195 14.1997H127.626C113.89 14.1997 102.754 25.305 102.754 39.0041V300.687C102.754 314.386 113.89 325.491 127.626 325.491H308.195C321.932 325.491 333.068 314.386 333.068 300.687V39.0041C333.068 25.305 321.932 14.1997 308.195 14.1997Z" fill="#D5D1D0"/>
<path d="M308.622 13.7991H128.053C114.316 13.7991 103.181 24.9044 103.181 38.6035V300.286C103.181 313.985 114.316 325.091 128.053 325.091H308.622C322.359 325.091 333.494 313.985 333.494 300.286V38.6035C333.494 24.9044 322.359 13.7991 308.622 13.7991Z" fill="#D4D0CF"/>
<path d="M309.052 13.3985H128.483C114.746 13.3985 103.61 24.5038 103.61 38.203V299.886C103.61 313.585 114.746 324.69 128.483 324.69H309.052C322.788 324.69 333.924 313.585 333.924 299.886V38.203C333.924 24.5038 322.788 13.3985 309.052 13.3985Z" fill="#D3CFCE"/>
<path d="M309.481 12.9979H128.912C115.176 12.9979 104.04 24.1032 104.04 37.8023V299.485C104.04 313.184 115.176 324.289 128.912 324.289H309.481C323.218 324.289 334.354 313.184 334.354 299.485V37.8023C334.354 24.1032 323.218 12.9979 309.481 12.9979Z" fill="#D2CECD"/>
<path d="M309.911 12.5973H129.342C115.605 12.5973 104.47 23.7027 104.47 37.4018V299.084C104.47 312.784 115.605 323.889 129.342 323.889H309.911C323.648 323.889 334.783 312.784 334.783 299.084V37.4018C334.783 23.7027 323.648 12.5973 309.911 12.5973Z" fill="#D1CDCC"/>
<path d="M310.338 12.1968H129.768C116.032 12.1968 104.896 23.3021 104.896 37.0012V298.684C104.896 312.383 116.032 323.488 129.768 323.488H310.338C324.074 323.488 335.21 312.383 335.21 298.684V37.0012C335.21 23.3021 324.074 12.1968 310.338 12.1968Z" fill="#D1CBCA"/>
<path d="M310.767 11.7962H130.198C116.462 11.7962 105.326 22.9015 105.326 36.6006V298.283C105.326 311.982 116.462 323.088 130.198 323.088H310.767C324.504 323.088 335.64 311.982 335.64 298.283V36.6006C335.64 22.9015 324.504 11.7962 310.767 11.7962Z" fill="#D0CAC9"/>
<path d="M311.197 11.3956H130.628C116.891 11.3956 105.756 22.501 105.756 36.2001V297.883C105.756 311.582 116.891 322.687 130.628 322.687H311.197C324.934 322.687 336.069 311.582 336.069 297.883V36.2001C336.069 22.501 324.934 11.3956 311.197 11.3956Z" fill="#CFC9C8"/>
<path d="M311.627 10.9951H131.058C117.321 10.9951 106.185 22.1004 106.185 35.7995V297.482C106.185 311.181 117.321 322.287 131.058 322.287H311.627C325.363 322.287 336.499 311.181 336.499 297.482V35.7995C336.499 22.1004 325.363 10.9951 311.627 10.9951Z" fill="#CEC8C7"/>
<path d="M312.053 10.5945H131.484C117.748 10.5945 106.612 21.6998 106.612 35.3989V297.082C106.612 310.781 117.748 321.886 131.484 321.886H312.053C325.79 321.886 336.925 310.781 336.925 297.082V35.3989C336.925 21.6998 325.79 10.5945 312.053 10.5945Z" fill="#CDC7C6"/>
<path d="M312.483 10.1939H131.914C118.177 10.1939 107.042 21.2992 107.042 34.9984V296.681C107.042 310.38 118.177 321.485 131.914 321.485H312.483C326.22 321.485 337.355 310.38 337.355 296.681V34.9984C337.355 21.2992 326.22 10.1939 312.483 10.1939Z" fill="#CCC6C5"/>
<path d="M312.913 9.79335H132.343C118.607 9.79335 107.471 20.8987 107.471 34.5978V296.28C107.471 309.98 118.607 321.085 132.343 321.085H312.913C326.649 321.085 337.785 309.98 337.785 296.28V34.5978C337.785 20.8987 326.649 9.79335 312.913 9.79335Z" fill="#CBC5C4"/>
<path d="M313.342 9.39589H132.773C119.037 9.39589 107.901 20.5012 107.901 34.2003V295.883C107.901 309.582 119.037 320.687 132.773 320.687H313.342C327.079 320.687 338.215 309.582 338.215 295.883V34.2003C338.215 20.5012 327.079 9.39589 313.342 9.39589Z" fill="#CAC4C2"/>
<path d="M313.769 8.99529H133.2C119.463 8.99529 108.328 20.1006 108.328 33.7997V295.482C108.328 309.182 119.463 320.287 133.2 320.287H313.769C327.506 320.287 338.641 309.182 338.641 295.482V33.7997C338.641 20.1006 327.506 8.99529 313.769 8.99529Z" fill="#C9C3C1"/>
<path d="M314.199 8.59473H133.629C119.893 8.59473 108.757 19.7001 108.757 33.3992V295.082C108.757 308.781 119.893 319.886 133.629 319.886H314.199C327.935 319.886 339.071 308.781 339.071 295.082V33.3992C339.071 19.7001 327.935 8.59473 314.199 8.59473Z" fill="#C8C2C0"/>
<path d="M314.628 8.19417H134.059C120.323 8.19417 109.187 19.2995 109.187 32.9986V294.681C109.187 308.38 120.323 319.486 134.059 319.486H314.628C328.365 319.486 339.501 308.38 339.501 294.681V32.9986C339.501 19.2995 328.365 8.19417 314.628 8.19417Z" fill="#C7C1BF"/>
<path d="M315.002 7.89293H134.433C120.696 7.89293 109.561 18.9983 109.561 32.6974V294.38C109.561 308.079 120.696 319.184 134.433 319.184H315.002C328.739 319.184 339.874 308.079 339.874 294.38V32.6974C339.874 18.9983 328.739 7.89293 315.002 7.89293Z" fill="#C5BFBD"/>
<path d="M315.379 7.58862H134.81C121.073 7.58862 109.937 18.694 109.937 32.3931V294.076C109.937 307.775 121.073 318.88 134.81 318.88H315.379C329.115 318.88 340.251 307.775 340.251 294.076V32.3931C340.251 18.694 329.115 7.58862 315.379 7.58862Z" fill="#C2BCBA"/>
<path d="M315.752 7.28743H135.183C121.447 7.28743 110.311 18.3928 110.311 32.0919V293.775C110.311 307.474 121.447 318.579 135.183 318.579H315.752C329.489 318.579 340.625 307.474 340.625 293.775V32.0919C340.625 18.3928 329.489 7.28743 315.752 7.28743Z" fill="#C0BAB8"/>
<path d="M316.129 6.98624H135.56C121.823 6.98624 110.688 18.0916 110.688 31.7907V293.473C110.688 307.172 121.823 318.278 135.56 318.278H316.129C329.866 318.278 341.001 307.172 341.001 293.473V31.7907C341.001 18.0916 329.866 6.98624 316.129 6.98624Z" fill="#BDB7B5"/>
<path d="M316.503 6.68501H135.934C122.197 6.68501 111.061 17.7903 111.061 31.4895V293.172C111.061 306.871 122.197 317.977 135.934 317.977H316.503C330.239 317.977 341.375 306.871 341.375 293.172V31.4895C341.375 17.7903 330.239 6.68501 316.503 6.68501Z" fill="#BBB5B3"/>
<path d="M316.876 6.38382H136.307C122.571 6.38382 111.435 17.4892 111.435 31.1883V292.871C111.435 306.57 122.571 317.675 136.307 317.675H316.876C330.613 317.675 341.749 306.57 341.749 292.871V31.1883C341.749 17.4892 330.613 6.38382 316.876 6.38382Z" fill="#B8B2B0"/>
<path d="M317.253 6.08258H136.684C122.947 6.08258 111.812 17.1879 111.812 30.887V292.57C111.812 306.269 122.947 317.374 136.684 317.374H317.253C330.99 317.374 342.125 306.269 342.125 292.57V30.887C342.125 17.1879 330.99 6.08258 317.253 6.08258Z" fill="#B6B0AE"/>
<path d="M317.627 5.7814H137.058C123.321 5.7814 112.185 16.8867 112.185 30.5859V292.268C112.185 305.968 123.321 317.073 137.058 317.073H317.627C331.363 317.073 342.499 305.968 342.499 292.268V30.5859C342.499 16.8867 331.363 5.7814 317.627 5.7814Z" fill="#B4ADAB"/>
<path d="M318.004 5.48021H137.434C123.698 5.48021 112.562 16.5855 112.562 30.2847V291.967C112.562 305.666 123.698 316.772 137.434 316.772H318.004C331.74 316.772 342.876 305.666 342.876 291.967V30.2847C342.876 16.5855 331.74 5.48021 318.004 5.48021Z" fill="#B1ABA9"/>
<path d="M318.377 5.17897H137.808C124.072 5.17897 112.936 16.2843 112.936 29.9834V291.666C112.936 305.365 124.072 316.471 137.808 316.471H318.377C332.114 316.471 343.249 305.365 343.249 291.666V29.9834C343.249 16.2843 332.114 5.17897 318.377 5.17897Z" fill="#AFA8A6"/>
<path d="M318.754 4.87779H138.185C124.448 4.87779 113.313 15.9831 113.313 29.6822V291.365C113.313 305.064 124.448 316.169 138.185 316.169H318.754C332.49 316.169 343.626 305.064 343.626 291.365V29.6822C343.626 15.9831 332.49 4.87779 318.754 4.87779Z" fill="#ACA6A4"/>
<path d="M319.128 4.57347H138.558C124.822 4.57347 113.686 15.6788 113.686 29.3779V291.061C113.686 304.76 124.822 315.865 138.558 315.865H319.128C332.864 315.865 344 304.76 344 291.061V29.3779C344 15.6788 332.864 4.57347 319.128 4.57347Z" fill="#AAA3A1"/>
<path d="M319.504 4.27228H138.935C125.199 4.27228 114.063 15.3776 114.063 29.0767V290.759C114.063 304.459 125.199 315.564 138.935 315.564H319.504C333.241 315.564 344.377 304.459 344.377 290.759V29.0767C344.377 15.3776 333.241 4.27228 319.504 4.27228Z" fill="#A7A19F"/>
<path d="M319.878 3.97105H139.309C125.572 3.97105 114.437 15.0764 114.437 28.7755V290.458C114.437 304.157 125.572 315.263 139.309 315.263H319.878C333.615 315.263 344.75 304.157 344.75 290.458V28.7755C344.75 15.0764 333.615 3.97105 319.878 3.97105Z" fill="#A59E9C"/>
<path d="M320.255 3.66986H139.686C125.949 3.66986 114.813 14.7752 114.813 28.4743V290.157C114.813 303.856 125.949 314.961 139.686 314.961H320.255C333.991 314.961 345.127 303.856 345.127 290.157V28.4743C345.127 14.7752 333.991 3.66986 320.255 3.66986Z" fill="#A39C9A"/>
<path d="M320.628 3.36862H140.059C126.323 3.36862 115.187 14.474 115.187 28.1731V289.856C115.187 303.555 126.323 314.66 140.059 314.66H320.628C334.365 314.66 345.501 303.555 345.501 289.856V28.1731C345.501 14.474 334.365 3.36862 320.628 3.36862Z" fill="#A09997"/>
<path d="M321.002 3.06744H140.433C126.696 3.06744 115.561 14.1728 115.561 27.8719V289.555C115.561 303.254 126.696 314.359 140.433 314.359H321.002C334.739 314.359 345.874 303.254 345.874 289.555V27.8719C345.874 14.1728 334.739 3.06744 321.002 3.06744Z" fill="#9E9795"/>
<path d="M321.379 2.76625H140.81C127.073 2.76625 115.938 13.8716 115.938 27.5707V289.253C115.938 302.952 127.073 314.058 140.81 314.058H321.379C335.115 314.058 346.251 302.952 346.251 289.253V27.5707C346.251 13.8716 335.115 2.76625 321.379 2.76625Z" fill="#9B9492"/>
<path d="M321.752 2.46501H141.183C127.447 2.46501 116.311 13.5703 116.311 27.2695V288.952C116.311 302.651 127.447 313.757 141.183 313.757H321.752C335.489 313.757 346.625 302.651 346.625 288.952V27.2695C346.625 13.5703 335.489 2.46501 321.752 2.46501Z" fill="#999290"/>
<path d="M322.129 2.16383H141.56C127.824 2.16383 116.688 13.2692 116.688 26.9683V288.651C116.688 302.35 127.824 313.455 141.56 313.455H322.129C335.866 313.455 347.001 302.35 347.001 288.651V26.9683C347.001 13.2692 335.866 2.16383 322.129 2.16383Z" fill="#968F8D"/>
<path d="M322.503 1.85951H141.934C128.197 1.85951 117.062 12.9648 117.062 26.664V288.347C117.062 302.046 128.197 313.151 141.934 313.151H322.503C336.239 313.151 347.375 302.046 347.375 288.347V26.664C347.375 12.9648 336.239 1.85951 322.503 1.85951Z" fill="#948D8B"/>
</g>
<path d="M453.711 172.73H452.313C446.907 172.73 442.529 176.978 442.529 182.22C442.529 187.461 446.907 191.712 452.313 191.712H453.711C459.113 191.712 463.494 187.461 463.494 182.22C463.494 176.978 459.113 172.73 453.711 172.73Z" fill="#08C7D1"/>
<path d="M403.954 162.21C403.979 162.011 404.007 161.809 404.047 161.613C404.072 161.489 404.106 161.368 404.138 161.247C404.178 161.076 404.219 160.905 404.271 160.741C404.324 160.576 404.359 160.48 404.405 160.35C404.452 160.219 404.514 160.039 404.573 159.902C404.633 159.766 404.695 159.635 404.757 159.502C404.819 159.368 404.882 159.238 404.953 159.108C405.025 158.977 405.103 158.834 405.184 158.701C405.265 158.567 405.324 158.471 405.399 158.359C405.473 158.247 405.585 158.083 405.682 157.949C405.778 157.816 405.828 157.757 405.903 157.664C406.015 157.524 406.13 157.384 406.249 157.251C406.317 157.173 406.389 157.098 406.46 157.024C406.597 156.881 406.734 156.741 406.878 156.608L407.055 156.453C407.22 156.304 407.388 156.161 407.566 156.027L407.659 155.956C409.046 154.917 410.683 154.259 412.404 154.049H455.109C460.511 154.049 464.892 149.798 464.892 144.557C464.892 139.315 460.511 135.064 455.109 135.064H386.38C385.627 134.903 384.896 134.655 384.201 134.325C384.129 134.291 384.057 134.263 383.989 134.225C383.815 134.139 383.646 134.045 383.481 133.949L383.226 133.8C383.07 133.704 382.915 133.604 382.771 133.49L382.507 133.297C382.37 133.195 382.233 133.089 382.099 132.987C381.965 132.884 381.924 132.834 381.837 132.757C381.75 132.679 381.588 132.533 381.47 132.415C381.352 132.297 381.296 132.229 381.208 132.139C381.121 132.049 380.99 131.909 380.897 131.788C380.723 131.581 380.558 131.367 380.402 131.145C380.33 131.046 380.271 130.943 380.206 130.835C380.14 130.726 380.019 130.552 379.935 130.403C379.851 130.254 379.817 130.182 379.757 130.071C379.698 129.959 379.605 129.776 379.536 129.624C379.468 129.471 379.437 129.394 379.39 129.279C379.343 129.164 379.265 128.968 379.209 128.801C379.153 128.633 379.131 128.568 379.097 128.45C379.044 128.279 379.001 128.108 378.96 127.934C378.932 127.819 378.904 127.708 378.882 127.593C378.842 127.397 378.814 127.198 378.789 127C378.789 126.9 378.758 126.804 378.749 126.705C378.716 126.402 378.7 126.099 378.699 125.795C378.699 120.553 383.08 116.302 388.485 116.302H421.49V116.128H431.815C437.217 116.128 441.598 111.88 441.598 106.639C441.598 101.397 437.217 97.1461 431.815 97.1461H408.338C408.048 97.0995 407.762 97.0436 407.482 96.9722C405.595 96.5022 403.891 95.4854 402.584 94.0502L402.481 93.9415C402.35 93.7925 402.232 93.631 402.111 93.4851C402.048 93.4043 401.986 93.3267 401.927 93.246C401.824 93.1062 401.731 92.9634 401.637 92.8174C401.544 92.6715 401.5 92.6063 401.438 92.5069C401.376 92.4076 401.282 92.2368 401.208 92.097C401.133 91.9573 401.08 91.8424 401.018 91.7151C400.955 91.5878 400.896 91.448 400.84 91.3145C400.784 91.181 400.728 91.0226 400.675 90.8736C400.622 90.7245 400.585 90.619 400.544 90.4854C400.504 90.3519 400.454 90.1532 400.414 89.9855C400.382 89.8644 400.351 89.7433 400.326 89.6222C400.286 89.4266 400.258 89.2309 400.233 89.0322C400.233 88.9297 400.199 88.8272 400.189 88.7217C400.157 88.4122 400.14 88.1013 400.14 87.7901C400.14 87.4796 400.158 87.1877 400.186 86.8927C400.186 86.7964 400.211 86.7033 400.224 86.607C400.252 86.4083 400.28 86.2127 400.317 86.017C400.339 85.9083 400.364 85.7997 400.389 85.6879C400.432 85.514 400.476 85.337 400.529 85.1662C400.56 85.0544 400.594 84.9426 400.632 84.8339C400.688 84.6663 400.753 84.4986 400.818 84.334C400.862 84.2315 400.899 84.126 400.946 84.0235C401.033 83.8279 401.133 83.6353 401.232 83.4459C401.332 83.2565 401.407 83.1354 401.5 82.9801C401.594 82.8249 401.659 82.7162 401.746 82.5889C401.833 82.4616 401.927 82.3342 402.023 82.21C402.12 82.0858 402.163 82.0206 402.238 81.9306C402.313 81.8405 402.456 81.6697 402.571 81.5424L402.774 81.3251C402.905 81.1915 403.035 81.0611 403.169 80.9338L403.319 80.8034C404.04 80.161 404.853 79.6293 405.732 79.2259L405.816 79.1856C406.031 79.0893 406.249 78.9992 406.473 78.9185L406.569 78.8844C406.8 78.8036 407.033 78.726 407.273 78.6608C407.584 78.58 407.896 78.5148 408.207 78.4589H204.26V248.314H390.668C385.773 247.792 381.968 243.768 381.968 238.884C381.968 233.642 386.349 229.391 391.751 229.391H393.149C398.552 229.391 402.933 233.642 402.933 238.884C402.933 243.768 399.125 247.792 394.233 248.314H420.077C415.615 247.432 412.258 243.616 412.258 239.03C412.258 233.965 416.349 229.838 421.499 229.562V229.537H448.589C453.991 229.537 458.372 225.286 458.372 220.044C458.372 214.803 453.991 210.555 448.589 210.555H384.758C379.353 210.555 374.972 206.304 374.972 201.062C374.972 200.751 374.989 200.44 375.021 200.131C375.021 200.028 375.049 199.929 375.065 199.82C375.09 199.621 375.118 199.423 375.155 199.23C375.18 199.109 375.211 198.991 375.243 198.873C375.283 198.702 375.323 198.531 375.376 198.367C375.429 198.202 375.457 198.112 375.501 197.988C375.545 197.864 375.61 197.677 375.672 197.541C375.734 197.404 375.781 197.28 375.84 197.153C375.899 197.025 375.971 196.886 376.036 196.755C376.102 196.625 376.18 196.491 376.254 196.361C376.329 196.23 376.395 196.134 376.466 196.025C376.538 195.917 376.644 195.749 376.74 195.616C376.802 195.529 376.871 195.445 376.936 195.361C377.052 195.212 377.164 195.05 377.288 194.923L377.372 194.833C378.081 194.044 378.914 193.374 379.838 192.852L379.876 192.83C380.1 192.703 380.333 192.588 380.57 192.479L380.645 192.445C380.878 192.34 381.118 192.243 381.361 192.153L381.442 192.125C381.691 192.038 381.943 191.961 382.198 191.896H382.261C382.525 191.827 382.796 191.768 383.07 191.722H422.496C427.898 191.722 432.279 187.471 432.279 182.229C432.279 176.987 427.898 172.739 422.496 172.739H411.573C411.096 172.637 410.626 172.5 410.169 172.33C410.097 172.302 410.022 172.28 409.954 172.252C409.78 172.184 409.611 172.106 409.446 172.028L409.135 171.889C408.979 171.811 408.824 171.727 408.68 171.64C408.537 171.553 408.472 171.522 408.369 171.46C408.266 171.398 408.089 171.28 407.952 171.187L407.64 170.966C407.513 170.867 407.385 170.771 407.261 170.656C407.136 170.541 407.061 170.482 406.949 170.392C406.837 170.302 406.722 170.19 406.613 170.081C406.504 169.973 406.407 169.864 406.302 169.752C406.196 169.64 406.115 169.557 406.028 169.442C405.85 169.231 405.682 169.013 405.523 168.787C405.458 168.693 405.399 168.594 405.336 168.498C405.24 168.352 405.146 168.206 405.056 168.051C404.997 167.945 404.941 167.836 404.885 167.74C404.829 167.644 404.729 167.43 404.658 167.284C404.586 167.138 404.561 167.057 404.514 166.942C404.468 166.827 404.387 166.631 404.331 166.461C404.275 166.29 404.253 166.231 404.219 166.113C404.166 165.942 404.122 165.768 404.082 165.591C404.054 165.479 404.025 165.368 404.004 165.253C403.963 165.057 403.935 164.858 403.91 164.66C403.91 164.56 403.879 164.464 403.87 164.349C403.837 164.046 403.821 163.741 403.82 163.436C403.821 163.125 403.838 162.814 403.87 162.505C403.916 162.415 403.938 162.315 403.954 162.21Z" fill="#08C7D1"/>
<path d="M322.503 1.85951H141.934C128.197 1.85951 117.061 12.9648 117.061 26.664V288.347C117.061 302.046 128.197 313.151 141.934 313.151H322.503C336.239 313.151 347.375 302.046 347.375 288.347V26.664C347.375 12.9648 336.239 1.85951 322.503 1.85951Z" fill="#FCFCFC"/>
<path d="M323.546 9.7747C327.635 9.77963 331.554 11.4016 334.446 14.2849C337.337 17.1681 338.963 21.0773 338.968 25.1548V289.859C338.963 293.936 337.337 297.846 334.446 300.729C331.554 303.612 327.635 305.234 323.546 305.239H140.891C136.802 305.234 132.883 303.612 129.992 300.729C127.101 297.845 125.476 293.936 125.472 289.859V25.1548C125.476 21.0776 127.101 17.1684 129.992 14.2851C132.883 11.4017 136.802 9.77963 140.891 9.7747H323.546ZM323.546 0.0615845H140.891C137.586 0.0615844 134.315 0.710663 131.262 1.97175C128.209 3.23285 125.436 5.08125 123.1 7.41141C120.763 9.74158 118.91 12.5079 117.646 15.5523C116.382 18.5967 115.731 21.8597 115.732 25.1548V289.859C115.731 293.154 116.382 296.417 117.646 299.461C118.91 302.506 120.763 305.272 123.1 307.602C125.436 309.932 128.209 311.781 131.262 313.042C134.315 314.303 137.586 314.952 140.891 314.952H323.546C330.219 314.952 336.619 312.308 341.338 307.602C346.057 302.897 348.708 296.514 348.708 289.859V25.1548C348.708 18.4997 346.057 12.1171 341.338 7.41122C336.619 2.70533 330.219 0.0615845 323.546 0.0615845Z" fill="url(#paint0_linear_1096_2)"/>
<path d="M133.633 99.444C138.558 93.8391 144.655 91.0133 152.053 91.0133C159.361 91.0133 165.308 93.3423 169.947 97.997C174.587 102.652 176.891 108.555 176.891 115.678C176.891 122.559 174.652 130.257 170.175 138.772C165.697 147.286 156.786 158.549 143.241 172.559L126.023 190.604V247.799H212.814V214.977H148.049L168.36 193.206C184.625 175.92 195.821 160.963 201.947 148.336C208.064 135.668 211.124 123.85 211.126 112.88C211.126 103.652 208.602 94.575 203.554 85.6506C198.505 76.7262 191.773 69.8948 183.358 65.1562C174.951 60.4177 165.333 58.0515 154.332 58.0515C143.724 58.0515 134.093 60.0885 126.035 64.147V119.553C126.346 111.228 129.192 104.512 133.633 99.444Z" fill="#08C7D1"/>
<path d="M126.023 190.604L115.698 200.891V247.796H126.023V190.604Z" fill="#07898F"/>
<path d="M126.023 119.553V64.1346C122.797 65.8393 118.923 67.9012 115.698 70.3202V122.308H125.661C125.683 121.665 126.023 120.466 126.023 119.553Z" fill="#07898F"/>
<path d="M247.563 242.043L247.563 233.559C247.563 231.819 247.823 230.324 248.344 229.074C248.865 227.814 249.636 226.845 250.657 226.168C251.677 225.491 252.933 225.152 254.422 225.152C255.641 225.152 256.688 225.361 257.563 225.777C258.427 226.184 259.151 226.762 259.735 227.512C260.308 228.251 260.766 229.121 261.11 230.121L261.891 231.606L261.891 238.981L258.235 239.012L258.235 233.527C258.235 232.705 258.089 232.022 257.797 231.481C257.506 230.939 257.099 230.533 256.578 230.262C256.058 229.981 255.453 229.84 254.766 229.84C254.037 229.84 253.407 229.975 252.875 230.246C252.344 230.517 251.938 230.929 251.657 231.481C251.375 232.033 251.235 232.725 251.235 233.559L251.235 237.356L270.313 237.356L270.313 242.043L247.563 242.043ZM270.313 229.324L260.172 234.512L260.141 229.559L270.094 224.309L270.313 224.309L270.313 229.324ZM270.625 214.043C270.625 215.356 270.417 216.533 270 217.574C269.573 218.616 268.985 219.501 268.235 220.231C267.485 220.949 266.615 221.501 265.625 221.887C264.625 222.272 263.563 222.465 262.438 222.465L261.813 222.465C260.532 222.465 259.36 222.283 258.297 221.918C257.235 221.554 256.313 221.033 255.532 220.356C254.75 219.668 254.151 218.835 253.735 217.856C253.308 216.876 253.094 215.772 253.094 214.543C253.094 213.345 253.292 212.283 253.688 211.356C254.084 210.429 254.646 209.652 255.375 209.027C256.105 208.392 256.98 207.913 258 207.59C259.011 207.267 260.136 207.106 261.375 207.106L263.25 207.106L263.25 220.543L260.25 220.543L260.25 211.527L259.907 211.527C259.282 211.527 258.724 211.642 258.235 211.871C257.735 212.09 257.339 212.423 257.047 212.871C256.756 213.319 256.61 213.892 256.61 214.59C256.61 215.184 256.74 215.694 257 216.121C257.261 216.548 257.625 216.897 258.094 217.168C258.563 217.429 259.115 217.626 259.75 217.762C260.375 217.887 261.063 217.949 261.813 217.949L262.438 217.949C263.115 217.949 263.74 217.856 264.313 217.668C264.886 217.47 265.381 217.194 265.797 216.84C266.214 216.475 266.537 216.038 266.766 215.527C266.995 215.007 267.11 214.418 267.11 213.762C267.11 212.949 266.953 212.194 266.641 211.496C266.318 210.788 265.834 210.179 265.188 209.668L267.563 207.481C268.073 207.835 268.563 208.319 269.032 208.934C269.5 209.538 269.886 210.267 270.188 211.121C270.48 211.975 270.625 212.949 270.625 214.043ZM265.641 195.402C265.318 195.402 265.026 195.496 264.766 195.684C264.506 195.871 264.266 196.22 264.047 196.731C263.818 197.231 263.61 197.955 263.422 198.902C263.235 199.757 263 200.554 262.719 201.293C262.427 202.022 262.078 202.658 261.672 203.199C261.266 203.731 260.787 204.147 260.235 204.449C259.672 204.751 259.032 204.902 258.313 204.902C257.605 204.902 256.938 204.751 256.313 204.449C255.688 204.137 255.136 203.694 254.657 203.121C254.167 202.538 253.787 201.83 253.516 200.996C253.235 200.152 253.094 199.205 253.094 198.152C253.094 196.684 253.328 195.423 253.797 194.371C254.266 193.309 254.912 192.496 255.735 191.934C256.547 191.361 257.474 191.074 258.516 191.074L258.516 195.574C258.078 195.574 257.688 195.668 257.344 195.856C256.99 196.033 256.714 196.314 256.516 196.699C256.308 197.074 256.203 197.564 256.203 198.168C256.203 198.668 256.292 199.1 256.469 199.465C256.636 199.83 256.865 200.111 257.157 200.309C257.438 200.496 257.75 200.59 258.094 200.59C258.355 200.59 258.589 200.538 258.797 200.434C258.995 200.319 259.177 200.137 259.344 199.887C259.511 199.637 259.667 199.314 259.813 198.918C259.948 198.512 260.073 198.012 260.188 197.418C260.438 196.199 260.766 195.111 261.172 194.152C261.568 193.194 262.11 192.434 262.797 191.871C263.474 191.309 264.365 191.027 265.469 191.027C266.219 191.027 266.907 191.194 267.532 191.527C268.157 191.861 268.703 192.34 269.172 192.965C269.631 193.59 269.99 194.34 270.25 195.215C270.5 196.08 270.625 197.054 270.625 198.137C270.625 199.71 270.344 201.043 269.782 202.137C269.219 203.22 268.506 204.043 267.641 204.606C266.766 205.158 265.87 205.434 264.953 205.434L264.953 201.168C265.568 201.147 266.063 200.991 266.438 200.699C266.813 200.397 267.084 200.017 267.25 199.559C267.417 199.09 267.5 198.585 267.5 198.043C267.5 197.46 267.422 196.975 267.266 196.59C267.099 196.205 266.881 195.913 266.61 195.715C266.328 195.507 266.006 195.402 265.641 195.402ZM262.032 188.824L261.703 188.824C260.464 188.824 259.323 188.647 258.282 188.293C257.23 187.939 256.318 187.423 255.547 186.746C254.776 186.069 254.177 185.236 253.75 184.246C253.313 183.257 253.094 182.121 253.094 180.84C253.094 179.559 253.313 178.418 253.75 177.418C254.177 176.418 254.776 175.58 255.547 174.902C256.318 174.215 257.23 173.694 258.282 173.34C259.323 172.986 260.464 172.809 261.703 172.809L262.032 172.809C263.261 172.809 264.401 172.986 265.453 173.34C266.495 173.694 267.407 174.215 268.188 174.902C268.959 175.58 269.558 176.413 269.985 177.402C270.412 178.392 270.625 179.527 270.625 180.809C270.625 182.09 270.412 183.231 269.985 184.231C269.558 185.22 268.959 186.059 268.188 186.746C267.407 187.423 266.495 187.939 265.453 188.293C264.401 188.647 263.261 188.824 262.032 188.824ZM261.703 184.324L262.032 184.324C262.74 184.324 263.401 184.262 264.016 184.137C264.631 184.012 265.172 183.814 265.641 183.543C266.099 183.262 266.459 182.897 266.719 182.449C266.98 182.001 267.11 181.455 267.11 180.809C267.11 180.184 266.98 179.647 266.719 179.199C266.459 178.751 266.099 178.392 265.641 178.121C265.172 177.85 264.631 177.652 264.016 177.527C263.401 177.392 262.74 177.324 262.032 177.324L261.703 177.324C261.016 177.324 260.37 177.392 259.766 177.527C259.151 177.652 258.61 177.856 258.141 178.137C257.662 178.408 257.287 178.767 257.016 179.215C256.745 179.663 256.61 180.205 256.61 180.84C256.61 181.475 256.745 182.017 257.016 182.465C257.287 182.902 257.662 183.262 258.141 183.543C258.61 183.814 259.151 184.012 259.766 184.137C260.37 184.262 261.016 184.324 261.703 184.324ZM246.313 165.293L270.313 165.293L270.313 169.809L246.313 169.809L246.313 165.293ZM267.032 155.824L253.407 152.074L253.407 147.371L270.313 153.074L270.313 155.918L267.032 155.824ZM253.407 158.402L267.047 154.637L270.313 154.559L270.313 157.418L253.407 163.121L253.407 158.402ZM270.625 137.793C270.625 139.106 270.417 140.283 270 141.324C269.573 142.366 268.985 143.251 268.235 143.981C267.485 144.699 266.615 145.251 265.625 145.637C264.625 146.022 263.563 146.215 262.438 146.215L261.813 146.215C260.532 146.215 259.36 146.033 258.297 145.668C257.235 145.304 256.313 144.783 255.532 144.106C254.75 143.418 254.151 142.585 253.735 141.606C253.308 140.626 253.094 139.522 253.094 138.293C253.094 137.095 253.292 136.033 253.688 135.106C254.084 134.179 254.646 133.402 255.375 132.777C256.105 132.142 256.98 131.663 258 131.34C259.011 131.017 260.136 130.856 261.375 130.856L263.25 130.856L263.25 144.293L260.25 144.293L260.25 135.277L259.907 135.277C259.282 135.277 258.724 135.392 258.235 135.621C257.735 135.84 257.339 136.173 257.047 136.621C256.756 137.069 256.61 137.642 256.61 138.34C256.61 138.934 256.74 139.444 257 139.871C257.261 140.298 257.625 140.647 258.094 140.918C258.563 141.179 259.115 141.376 259.75 141.512C260.375 141.637 261.063 141.699 261.813 141.699L262.438 141.699C263.115 141.699 263.74 141.606 264.313 141.418C264.886 141.22 265.381 140.944 265.797 140.59C266.214 140.225 266.537 139.788 266.766 139.277C266.995 138.757 267.11 138.168 267.11 137.512C267.11 136.699 266.953 135.944 266.641 135.246C266.318 134.538 265.834 133.929 265.188 133.418L267.563 131.231C268.073 131.585 268.563 132.069 269.032 132.684C269.5 133.288 269.886 134.017 270.188 134.871C270.48 135.725 270.625 136.699 270.625 137.793ZM256.907 123.793L270.313 123.793L270.313 128.309L253.407 128.309L253.407 124.074L256.907 123.793ZM261.266 124.418L261.266 125.668C260.089 125.668 259.006 125.527 258.016 125.246C257.016 124.955 256.151 124.533 255.422 123.981C254.683 123.418 254.11 122.725 253.703 121.902C253.297 121.08 253.094 120.126 253.094 119.043C253.094 118.293 253.209 117.606 253.438 116.981C253.657 116.356 254.006 115.819 254.485 115.371C254.953 114.913 255.568 114.559 256.328 114.309C257.078 114.059 257.98 113.934 259.032 113.934L270.313 113.934L270.313 118.434L259.532 118.434C258.761 118.434 258.167 118.538 257.75 118.746C257.334 118.955 257.042 119.251 256.875 119.637C256.709 120.012 256.625 120.465 256.625 120.996C256.625 121.58 256.745 122.09 256.985 122.527C257.224 122.955 257.558 123.309 257.985 123.59C258.401 123.871 258.891 124.08 259.453 124.215C260.016 124.35 260.62 124.418 261.266 124.418ZM260.75 114.356L260.953 115.965C259.849 115.965 258.823 115.83 257.875 115.559C256.927 115.277 256.094 114.866 255.375 114.324C254.657 113.772 254.099 113.09 253.703 112.277C253.297 111.465 253.094 110.527 253.094 109.465C253.094 108.652 253.214 107.913 253.453 107.246C253.683 106.58 254.052 106.012 254.563 105.543C255.063 105.064 255.719 104.699 256.532 104.449C257.344 104.189 258.339 104.059 259.516 104.059L270.313 104.059L270.313 108.574L259.516 108.574C258.735 108.574 258.141 108.679 257.735 108.887C257.318 109.085 257.032 109.376 256.875 109.762C256.709 110.137 256.625 110.585 256.625 111.106C256.625 111.647 256.735 112.121 256.953 112.527C257.162 112.934 257.453 113.272 257.828 113.543C258.203 113.814 258.641 114.017 259.141 114.152C259.631 114.288 260.167 114.356 260.75 114.356ZM262.032 101.293L261.703 101.293C260.464 101.293 259.323 101.116 258.282 100.762C257.23 100.408 256.318 99.8921 255.547 99.215C254.776 98.5379 254.177 97.7046 253.75 96.715C253.313 95.7254 253.094 94.59 253.094 93.3087C253.094 92.0275 253.313 90.8869 253.75 89.8869C254.177 88.8869 254.776 88.0483 255.547 87.3712C256.318 86.6837 257.23 86.1629 258.282 85.8087C259.323 85.4546 260.464 85.2775 261.703 85.2775L262.032 85.2775C263.261 85.2775 264.401 85.4546 265.453 85.8087C266.495 86.1629 267.407 86.6837 268.188 87.3712C268.959 88.0483 269.558 88.8816 269.985 89.8712C270.412 90.8608 270.625 91.9962 270.625 93.2775C270.625 94.5587 270.412 95.6994 269.985 96.6994C269.558 97.6889 268.959 98.5275 268.188 99.215C267.407 99.8921 266.495 100.408 265.453 100.762C264.401 101.116 263.261 101.293 262.032 101.293ZM261.703 96.7931L262.032 96.7931C262.74 96.7931 263.401 96.7306 264.016 96.6056C264.631 96.4806 265.172 96.2827 265.641 96.0119C266.099 95.7306 266.459 95.366 266.719 94.9181C266.98 94.4702 267.11 93.9233 267.11 93.2775C267.11 92.6525 266.98 92.116 266.719 91.6681C266.459 91.2202 266.099 90.8608 265.641 90.59C265.172 90.3191 264.631 90.1212 264.016 89.9962C263.401 89.8608 262.74 89.7931 262.032 89.7931L261.703 89.7931C261.016 89.7931 260.37 89.8608 259.766 89.9962C259.151 90.1212 258.61 90.3244 258.141 90.6056C257.662 90.8764 257.287 91.2358 257.016 91.6837C256.745 92.1316 256.61 92.6733 256.61 93.3087C256.61 93.9441 256.745 94.4858 257.016 94.9337C257.287 95.3712 257.662 95.7306 258.141 96.0119C258.61 96.2827 259.151 96.4806 259.766 96.6056C260.37 96.7306 261.016 96.7931 261.703 96.7931ZM265.641 73.3712C265.318 73.3712 265.026 73.465 264.766 73.6525C264.506 73.84 264.266 74.1889 264.047 74.6994C263.818 75.1994 263.61 75.9233 263.422 76.8712C263.235 77.7254 263 78.5223 262.719 79.2619C262.427 79.991 262.078 80.6264 261.672 81.1681C261.266 81.6994 260.787 82.116 260.235 82.4181C259.672 82.7202 259.032 82.8712 258.313 82.8712C257.605 82.8712 256.938 82.7202 256.313 82.4181C255.688 82.1056 255.136 81.6629 254.657 81.09C254.167 80.5066 253.787 79.7983 253.516 78.965C253.235 78.1212 253.094 77.1733 253.094 76.1212C253.094 74.6525 253.328 73.3921 253.797 72.34C254.266 71.2775 254.912 70.465 255.735 69.9025C256.547 69.3296 257.474 69.0431 258.516 69.0431L258.516 73.5431C258.078 73.5431 257.688 73.6369 257.344 73.8244C256.99 74.0014 256.714 74.2827 256.516 74.6681C256.308 75.0431 256.203 75.5327 256.203 76.1369C256.203 76.6369 256.292 77.0691 256.469 77.4337C256.636 77.7983 256.865 78.0796 257.157 78.2775C257.438 78.465 257.75 78.5587 258.094 78.5587C258.355 78.5587 258.589 78.5066 258.797 78.4025C258.995 78.2879 259.177 78.1056 259.344 77.8556C259.511 77.6056 259.667 77.2827 259.813 76.8869C259.948 76.4806 260.073 75.9806 260.188 75.3869C260.438 74.1681 260.766 73.0796 261.172 72.1212C261.568 71.1629 262.11 70.4025 262.797 69.84C263.474 69.2775 264.365 68.9962 265.469 68.9962C266.219 68.9962 266.907 69.1629 267.532 69.4962C268.157 69.8296 268.703 70.3087 269.172 70.9337C269.631 71.5587 269.99 72.3087 270.25 73.1837C270.5 74.0483 270.625 75.0223 270.625 76.1056C270.625 77.6785 270.344 79.0119 269.782 80.1056C269.219 81.1889 268.506 82.0119 267.641 82.5744C266.766 83.1264 265.87 83.4025 264.953 83.4025L264.953 79.1369C265.568 79.116 266.063 78.9598 266.438 78.6681C266.813 78.366 267.084 77.9858 267.25 77.5275C267.417 77.0587 267.5 76.5535 267.5 76.0119C267.5 75.4285 267.422 74.9441 267.266 74.5587C267.099 74.1733 266.881 73.8816 266.61 73.6837C266.328 73.4754 266.006 73.3712 265.641 73.3712ZM308.625 234.543C308.625 235.856 308.417 237.033 308 238.074C307.573 239.116 306.985 240.001 306.235 240.731C305.485 241.449 304.615 242.001 303.625 242.387C302.625 242.772 301.563 242.965 300.438 242.965L299.813 242.965C298.532 242.965 297.36 242.783 296.297 242.418C295.235 242.054 294.313 241.533 293.532 240.856C292.75 240.168 292.151 239.335 291.735 238.356C291.308 237.376 291.094 236.272 291.094 235.043C291.094 233.845 291.292 232.783 291.688 231.856C292.084 230.929 292.646 230.152 293.375 229.527C294.105 228.892 294.98 228.413 296 228.09C297.011 227.767 298.136 227.606 299.375 227.606L301.25 227.606L301.25 241.043L298.25 241.043L298.25 232.027L297.907 232.027C297.282 232.027 296.724 232.142 296.235 232.371C295.735 232.59 295.339 232.923 295.047 233.371C294.756 233.819 294.61 234.392 294.61 235.09C294.61 235.684 294.74 236.194 295 236.621C295.261 237.048 295.625 237.397 296.094 237.668C296.563 237.929 297.115 238.126 297.75 238.262C298.375 238.387 299.063 238.449 299.813 238.449L300.438 238.449C301.115 238.449 301.74 238.356 302.313 238.168C302.886 237.97 303.381 237.694 303.797 237.34C304.214 236.975 304.537 236.538 304.766 236.027C304.995 235.507 305.11 234.918 305.11 234.262C305.11 233.449 304.953 232.694 304.641 231.996C304.318 231.288 303.834 230.679 303.188 230.168L305.563 227.981C306.073 228.335 306.563 228.819 307.032 229.434C307.5 230.038 307.886 230.767 308.188 231.621C308.48 232.475 308.625 233.449 308.625 234.543ZM284.313 220.293L308.313 220.293L308.313 224.809L284.313 224.809L284.313 220.293ZM294.657 204.106L314.813 204.106L314.813 208.606L291.407 208.606L291.407 204.434L294.657 204.106ZM299.672 193.402L300 193.402C301.23 193.402 302.37 193.548 303.422 193.84C304.474 194.121 305.391 194.538 306.172 195.09C306.943 195.642 307.547 196.33 307.985 197.152C308.412 197.965 308.625 198.902 308.625 199.965C308.625 200.996 308.417 201.892 308 202.652C307.584 203.413 307 204.054 306.25 204.574C305.49 205.085 304.61 205.496 303.61 205.809C302.61 206.121 301.537 206.361 300.391 206.527L299.532 206.527C298.302 206.361 297.177 206.121 296.157 205.809C295.125 205.496 294.235 205.085 293.485 204.574C292.724 204.054 292.136 203.418 291.719 202.668C291.302 201.908 291.094 201.017 291.094 199.996C291.094 198.923 291.297 197.981 291.703 197.168C292.11 196.345 292.693 195.658 293.453 195.106C294.214 194.543 295.12 194.121 296.172 193.84C297.224 193.548 298.391 193.402 299.672 193.402ZM300 197.918L299.672 197.918C298.953 197.918 298.292 197.981 297.688 198.106C297.073 198.22 296.537 198.408 296.078 198.668C295.62 198.918 295.266 199.251 295.016 199.668C294.756 200.074 294.625 200.569 294.625 201.152C294.625 201.767 294.724 202.293 294.922 202.731C295.12 203.158 295.407 203.507 295.782 203.777C296.157 204.048 296.605 204.251 297.125 204.387C297.646 204.522 298.235 204.606 298.891 204.637L301.063 204.637C301.834 204.585 302.526 204.439 303.141 204.199C303.745 203.96 304.224 203.59 304.578 203.09C304.933 202.59 305.11 201.934 305.11 201.121C305.11 200.527 304.98 200.027 304.719 199.621C304.448 199.215 304.078 198.887 303.61 198.637C303.141 198.376 302.599 198.194 301.985 198.09C301.37 197.975 300.709 197.918 300 197.918ZM295.094 186.106L308.313 186.106L308.313 190.606L291.407 190.606L291.407 186.371L295.094 186.106ZM291.297 181.012L295.469 181.09C295.438 181.309 295.412 181.574 295.391 181.887C295.36 182.189 295.344 182.465 295.344 182.715C295.344 183.35 295.427 183.902 295.594 184.371C295.75 184.83 295.985 185.215 296.297 185.527C296.61 185.83 296.99 186.059 297.438 186.215C297.886 186.361 298.396 186.444 298.969 186.465L298.688 187.371C297.594 187.371 296.589 187.262 295.672 187.043C294.745 186.824 293.938 186.507 293.25 186.09C292.563 185.663 292.032 185.142 291.657 184.527C291.282 183.913 291.094 183.21 291.094 182.418C291.094 182.168 291.115 181.913 291.157 181.652C291.188 181.392 291.235 181.179 291.297 181.012ZM300.032 180.074L299.703 180.074C298.464 180.074 297.323 179.897 296.282 179.543C295.23 179.189 294.318 178.673 293.547 177.996C292.776 177.319 292.177 176.486 291.75 175.496C291.313 174.507 291.094 173.371 291.094 172.09C291.094 170.809 291.313 169.668 291.75 168.668C292.177 167.668 292.776 166.83 293.547 166.152C294.318 165.465 295.23 164.944 296.282 164.59C297.323 164.236 298.464 164.059 299.703 164.059L300.032 164.059C301.261 164.059 302.401 164.236 303.453 164.59C304.495 164.944 305.407 165.465 306.188 166.152C306.959 166.83 307.558 167.663 307.985 168.652C308.412 169.642 308.625 170.777 308.625 172.059C308.625 173.34 308.412 174.481 307.985 175.481C307.558 176.47 306.959 177.309 306.188 177.996C305.407 178.673 304.495 179.189 303.453 179.543C302.401 179.897 301.261 180.074 300.032 180.074ZM299.703 175.574L300.032 175.574C300.74 175.574 301.401 175.512 302.016 175.387C302.631 175.262 303.172 175.064 303.641 174.793C304.099 174.512 304.459 174.147 304.719 173.699C304.98 173.251 305.11 172.705 305.11 172.059C305.11 171.434 304.98 170.897 304.719 170.449C304.459 170.001 304.099 169.642 303.641 169.371C303.172 169.1 302.631 168.902 302.016 168.777C301.401 168.642 300.74 168.574 300.032 168.574L299.703 168.574C299.016 168.574 298.37 168.642 297.766 168.777C297.151 168.902 296.61 169.106 296.141 169.387C295.662 169.658 295.287 170.017 295.016 170.465C294.745 170.913 294.61 171.455 294.61 172.09C294.61 172.725 294.745 173.267 295.016 173.715C295.287 174.152 295.662 174.512 296.141 174.793C296.61 175.064 297.151 175.262 297.766 175.387C298.37 175.512 299.016 175.574 299.703 175.574ZM284.313 161.293L284.313 156.793L304.438 156.793L308.313 157.246L308.313 161.293L284.313 161.293ZM299.688 146.09L300.016 146.09C301.276 146.09 302.433 146.225 303.485 146.496C304.537 146.757 305.448 147.163 306.219 147.715C306.98 148.267 307.573 148.955 308 149.777C308.417 150.59 308.625 151.548 308.625 152.652C308.625 153.684 308.417 154.58 308 155.34C307.584 156.09 306.995 156.72 306.235 157.231C305.474 157.741 304.584 158.152 303.563 158.465C302.542 158.777 301.427 159.012 300.219 159.168L299.5 159.168C298.292 159.012 297.177 158.777 296.157 158.465C295.136 158.152 294.245 157.741 293.485 157.231C292.724 156.72 292.136 156.09 291.719 155.34C291.302 154.59 291.094 153.705 291.094 152.684C291.094 151.569 291.308 150.6 291.735 149.777C292.151 148.944 292.745 148.257 293.516 147.715C294.276 147.163 295.183 146.757 296.235 146.496C297.276 146.225 298.427 146.09 299.688 146.09ZM300.016 150.59L299.688 150.59C299 150.59 298.355 150.642 297.75 150.746C297.136 150.84 296.599 151.007 296.141 151.246C295.672 151.486 295.302 151.814 295.032 152.231C294.761 152.637 294.625 153.163 294.625 153.809C294.625 154.423 294.73 154.944 294.938 155.371C295.146 155.798 295.438 156.152 295.813 156.434C296.188 156.705 296.636 156.908 297.157 157.043C297.667 157.179 298.23 157.262 298.844 157.293L300.891 157.293C301.714 157.262 302.443 157.126 303.078 156.887C303.703 156.637 304.198 156.262 304.563 155.762C304.917 155.251 305.094 154.59 305.094 153.777C305.094 153.142 304.969 152.616 304.719 152.199C304.469 151.783 304.115 151.46 303.657 151.231C303.198 150.991 302.662 150.824 302.047 150.731C301.422 150.637 300.745 150.59 300.016 150.59ZM284.313 138.543L308.313 138.543L308.313 143.059L284.313 143.059L284.313 138.543ZM308.625 127.043C308.625 128.356 308.417 129.533 308 130.574C307.573 131.616 306.985 132.501 306.235 133.231C305.485 133.949 304.615 134.501 303.625 134.887C302.625 135.272 301.563 135.465 300.438 135.465L299.813 135.465C298.532 135.465 297.36 135.283 296.297 134.918C295.235 134.554 294.313 134.033 293.532 133.356C292.75 132.668 292.151 131.835 291.735 130.856C291.308 129.876 291.094 128.772 291.094 127.543C291.094 126.345 291.292 125.283 291.688 124.356C292.084 123.429 292.646 122.652 293.375 122.027C294.105 121.392 294.98 120.913 296 120.59C297.011 120.267 298.136 120.106 299.375 120.106L301.25 120.106L301.25 133.543L298.25 133.543L298.25 124.527L297.907 124.527C297.282 124.527 296.724 124.642 296.235 124.871C295.735 125.09 295.339 125.423 295.047 125.871C294.756 126.319 294.61 126.892 294.61 127.59C294.61 128.184 294.74 128.694 295 129.121C295.261 129.548 295.625 129.897 296.094 130.168C296.563 130.429 297.115 130.626 297.75 130.762C298.375 130.887 299.063 130.949 299.813 130.949L300.438 130.949C301.115 130.949 301.74 130.856 302.313 130.668C302.886 130.47 303.381 130.194 303.797 129.84C304.214 129.475 304.537 129.038 304.766 128.527C304.995 128.007 305.11 127.418 305.11 126.762C305.11 125.949 304.953 125.194 304.641 124.496C304.318 123.788 303.834 123.179 303.188 122.668L305.563 120.481C306.073 120.835 306.563 121.319 307.032 121.934C307.5 122.538 307.886 123.267 308.188 124.121C308.48 124.975 308.625 125.949 308.625 127.043ZM294.907 113.043L308.313 113.043L308.313 117.559L291.407 117.559L291.407 113.324L294.907 113.043ZM299.266 113.668L299.266 114.918C298.089 114.918 297.006 114.777 296.016 114.496C295.016 114.205 294.151 113.783 293.422 113.231C292.683 112.668 292.11 111.975 291.703 111.152C291.297 110.33 291.094 109.376 291.094 108.293C291.094 107.543 291.209 106.856 291.438 106.231C291.657 105.606 292.006 105.069 292.485 104.621C292.953 104.163 293.568 103.809 294.328 103.559C295.078 103.309 295.98 103.184 297.032 103.184L308.313 103.184L308.313 107.684L297.532 107.684C296.761 107.684 296.167 107.788 295.75 107.996C295.334 108.205 295.042 108.501 294.875 108.887C294.709 109.262 294.625 109.715 294.625 110.246C294.625 110.83 294.745 111.34 294.985 111.777C295.224 112.205 295.558 112.559 295.985 112.84C296.401 113.121 296.891 113.33 297.453 113.465C298.016 113.6 298.62 113.668 299.266 113.668ZM298.75 103.606L298.953 105.215C297.849 105.215 296.823 105.08 295.875 104.809C294.927 104.527 294.094 104.116 293.375 103.574C292.657 103.022 292.099 102.34 291.703 101.527C291.297 100.715 291.094 99.7775 291.094 98.715C291.094 97.9025 291.214 97.1629 291.453 96.4962C291.683 95.8296 292.052 95.2619 292.563 94.7931C293.063 94.3139 293.719 93.9494 294.532 93.6994C295.344 93.4389 296.339 93.3087 297.516 93.3087L308.313 93.3087L308.313 97.8244L297.516 97.8244C296.735 97.8244 296.141 97.9285 295.735 98.1369C295.318 98.3348 295.032 98.6264 294.875 99.0119C294.709 99.3869 294.625 99.8348 294.625 100.356C294.625 100.897 294.735 101.371 294.953 101.777C295.162 102.184 295.453 102.522 295.828 102.793C296.203 103.064 296.641 103.267 297.141 103.402C297.631 103.538 298.167 103.606 298.75 103.606ZM304.5 80.6994L296.969 80.6994C296.427 80.6994 295.964 80.7879 295.578 80.965C295.183 81.1421 294.875 81.4181 294.657 81.7931C294.438 82.1577 294.328 82.6316 294.328 83.215C294.328 83.715 294.417 84.1473 294.594 84.5119C294.761 84.8764 295.006 85.1577 295.328 85.3556C295.641 85.5535 296.011 85.6525 296.438 85.6525L296.438 90.1525C295.719 90.1525 295.037 89.9858 294.391 89.6525C293.745 89.3191 293.177 88.8348 292.688 88.1994C292.188 87.5639 291.797 86.8087 291.516 85.9337C291.235 85.0483 291.094 84.0587 291.094 82.965C291.094 81.6525 291.313 80.4858 291.75 79.465C292.188 78.4441 292.844 77.6421 293.719 77.0587C294.594 76.465 295.688 76.1681 297 76.1681L304.235 76.1681C305.162 76.1681 305.922 76.1108 306.516 75.9962C307.099 75.8816 307.61 75.715 308.047 75.4962L308.313 75.4962L308.313 80.0431C307.855 80.2619 307.282 80.4285 306.594 80.5431C305.896 80.6473 305.198 80.6994 304.5 80.6994ZM298.016 80.1056L300.563 80.0744L300.563 82.59C300.563 83.1837 300.631 83.6994 300.766 84.1369C300.901 84.5744 301.094 84.9337 301.344 85.215C301.584 85.4962 301.865 85.7046 302.188 85.84C302.511 85.965 302.865 86.0275 303.25 86.0275C303.636 86.0275 303.985 85.9389 304.297 85.7619C304.599 85.5848 304.839 85.3296 305.016 84.9962C305.183 84.6629 305.266 84.2723 305.266 83.8244C305.266 83.1473 305.131 82.5587 304.86 82.0587C304.589 81.5587 304.256 81.1733 303.86 80.9025C303.464 80.6212 303.089 80.4754 302.735 80.465L304.641 79.2775C305.068 79.4441 305.511 79.6733 305.969 79.965C306.427 80.2462 306.86 80.6056 307.266 81.0431C307.662 81.4806 307.99 82.0066 308.25 82.6212C308.5 83.2358 308.625 83.965 308.625 84.8087C308.625 85.8816 308.412 86.8556 307.985 87.7306C307.547 88.5952 306.948 89.2827 306.188 89.7931C305.417 90.2931 304.542 90.5431 303.563 90.5431C302.677 90.5431 301.891 90.3764 301.203 90.0431C300.516 89.7098 299.938 89.2202 299.469 88.5744C298.99 87.9181 298.631 87.1004 298.391 86.1212C298.141 85.1421 298.016 84.0066 298.016 82.715L298.016 80.1056Z" fill="#08C7D1"/>
<defs>
<linearGradient id="paint0_linear_1096_2" x1="86.7808" y1="267.206" x2="366.68" y2="54.9324" gradientUnits="userSpaceOnUse">
<stop offset="0.41" stop-color="#E0E0E0"/>
<stop offset="0.61" stop-color="white"/>
</linearGradient>
</defs>
</svg>
