<svg width="464" height="431" viewBox="0 0 464 431" fill="none" xmlns="http://www.w3.org/2000/svg">
<path d="M27.7119 89.896H29.1053C34.4926 89.896 38.8558 85.4431 38.8558 79.9593C38.8558 74.4755 34.4926 70.0226 29.1053 70.0226H27.7119C22.3277 70.0226 17.9614 74.4755 17.9614 79.9593C17.9614 85.4431 22.3277 89.896 27.7119 89.896Z" fill="#9665FD" fill-opacity="0.8"/>
<path d="M103.87 70.004H57.6648V70.032C55.1541 70.1953 52.801 71.3138 51.0883 73.1581C49.3756 75.0023 48.4331 77.4325 48.4543 79.95C48.4543 85.2568 52.532 89.5762 57.6648 89.8681V89.896H84.6633C90.0475 89.896 94.4138 94.3489 94.4138 99.8327C94.4138 105.317 90.0475 109.769 84.6633 109.769H21.0461C15.6589 109.769 11.2925 114.222 11.2925 119.706C11.2925 120.032 11.3112 120.355 11.3422 120.672C11.3422 120.78 11.3701 120.883 11.3856 120.982C11.4105 121.19 11.4384 121.398 11.4756 121.603C11.5005 121.731 11.5315 121.855 11.5625 121.979C11.6029 122.156 11.6432 122.336 11.696 122.51C11.7487 122.684 11.7767 122.774 11.8201 122.904C11.8635 123.035 11.9287 123.215 11.9908 123.376C12.0528 123.538 12.0994 123.647 12.1584 123.78C12.2173 123.914 12.2887 124.06 12.3539 124.196C12.419 124.333 12.4966 124.476 12.5711 124.609C12.6456 124.743 12.7107 124.845 12.7821 124.963C12.8535 125.081 12.959 125.252 13.0552 125.389C13.1514 125.525 13.1855 125.569 13.2507 125.659C13.3655 125.814 13.4772 125.969 13.6014 126.118L13.6852 126.212C14.3861 127.033 15.2163 127.735 16.143 128.289L16.1802 128.311C16.4036 128.441 16.6364 128.565 16.8722 128.677L16.9467 128.714C17.1795 128.826 17.4184 128.925 17.6605 129.025L17.7412 129.053C17.9894 129.143 18.2408 129.227 18.4952 129.295L18.5573 129.314C18.8211 129.382 19.0911 129.444 19.3642 129.494H58.6703C64.0545 129.494 68.4208 133.947 68.4208 139.43C68.4208 144.914 64.0545 149.367 58.6703 149.367H47.784C47.3074 149.475 46.8395 149.618 46.3844 149.796L46.1703 149.876C45.9965 149.948 45.8289 150.029 45.6645 150.112L45.3541 150.255C45.199 150.339 45.0438 150.426 44.901 150.516C44.7583 150.606 44.6931 150.64 44.5907 150.709C44.4883 150.777 44.3114 150.895 44.1749 150.994L43.8645 151.224C43.7373 151.326 43.6101 151.429 43.4859 151.535C43.3618 151.64 43.2873 151.718 43.1756 151.811C43.0639 151.904 42.9491 152.025 42.8405 152.121C42.7319 152.218 42.6356 152.351 42.5301 152.469C42.4246 152.587 42.3439 152.674 42.257 152.78C42.0802 153 41.9126 153.23 41.7543 153.466C41.6892 153.562 41.6302 153.668 41.5681 153.777C41.4719 153.932 41.3788 154.087 41.2888 154.245C41.1988 154.404 41.174 154.472 41.1181 154.587C41.0623 154.702 40.963 154.897 40.8916 155.062C40.8202 155.227 40.7954 155.301 40.7489 155.422C40.7023 155.543 40.6216 155.755 40.5658 155.925C40.5285 156.046 40.4882 156.168 40.454 156.292C40.4013 156.469 40.3578 156.652 40.3175 156.835C40.2896 156.953 40.2616 157.071 40.2399 157.192C40.1996 157.397 40.1716 157.605 40.1468 157.813C40.1468 157.916 40.1158 158.018 40.1065 158.124C40.0754 158.434 40.0568 158.745 40.0568 159.077C40.0568 159.409 40.0754 159.735 40.1065 160.058C40.1065 160.167 40.1375 160.276 40.1499 160.369C40.1779 160.577 40.2058 160.788 40.2461 160.99C40.271 161.12 40.3051 161.248 40.333 161.375C40.3765 161.552 40.4168 161.732 40.4696 161.906C40.5223 162.08 40.5565 162.179 40.603 162.316C40.6496 162.452 40.7116 162.626 40.7706 162.782C40.8295 162.937 40.8885 163.064 40.9537 163.204C41.0188 163.344 41.0778 163.48 41.1492 163.617C41.2206 163.754 41.2981 163.903 41.3788 164.042C41.4595 164.182 41.5185 164.281 41.5929 164.399C41.6674 164.517 41.7791 164.688 41.8753 164.831L42.0957 165.142C42.2074 165.288 42.3222 165.433 42.4401 165.573C42.5084 165.654 42.5798 165.732 42.6512 165.809C42.7877 165.958 42.9243 166.12 43.067 166.247L43.2439 166.412C43.4084 166.564 43.5759 166.722 43.7497 166.859L43.8459 166.93C45.2122 168.013 46.8469 168.704 48.5753 168.93H91.174C96.5582 168.93 100.925 173.383 100.925 178.867C100.925 184.35 96.5582 188.803 91.174 188.803H22.6754C21.9224 188.971 21.1928 189.231 20.5031 189.577L20.2889 189.682C20.1183 189.772 19.9507 189.872 19.7862 189.971C19.6993 190.024 19.6155 190.073 19.5317 190.129C19.3766 190.229 19.2214 190.334 19.0787 190.44L18.8149 190.642C18.6783 190.75 18.5387 190.862 18.4084 190.977L18.1477 191.219C18.0236 191.337 17.8994 191.455 17.7815 191.576C17.6636 191.697 17.6077 191.769 17.5208 191.868C17.4339 191.968 17.3036 192.107 17.2105 192.235C17.0367 192.449 16.8722 192.676 16.7171 192.905C16.6457 193.011 16.5867 193.12 16.5185 193.216C16.4502 193.312 16.3354 193.526 16.2516 193.663C16.1678 193.8 16.1337 193.896 16.0747 194.014C16.0157 194.132 15.9226 194.324 15.8544 194.483C15.7861 194.641 15.7551 194.722 15.7085 194.846C15.662 194.97 15.5844 195.175 15.5285 195.343C15.4727 195.511 15.4509 195.588 15.4168 195.712C15.364 195.889 15.3206 196.073 15.2803 196.253C15.2523 196.374 15.2244 196.492 15.1996 196.613C15.1623 196.815 15.1344 197.023 15.1096 197.234C15.1096 197.34 15.0785 197.439 15.0692 197.544C15.0382 197.855 15.0196 198.166 15.0196 198.498C15.0196 203.991 19.3859 208.434 24.7732 208.434H57.6679V208.615H67.9553C73.3395 208.615 77.7058 213.071 77.7058 218.551C77.7058 224.032 73.3395 228.488 67.9553 228.488H44.5566C44.268 228.538 43.9825 228.597 43.7032 228.671C41.8049 229.175 40.1032 230.241 38.8217 231.73L38.7193 231.845C38.589 232 38.4711 232.155 38.35 232.323C38.288 232.407 38.2259 232.487 38.1669 232.574C38.0645 232.72 37.9714 232.885 37.8783 233.022C37.7852 233.158 37.7418 233.242 37.6797 233.357C37.6176 233.472 37.5245 233.643 37.4501 233.789C37.3756 233.935 37.3228 234.053 37.2608 234.189C37.1987 234.326 37.1397 234.466 37.0839 234.608C37.028 234.751 36.9722 234.919 36.9194 235.068C36.8667 235.217 36.8294 235.338 36.7891 235.475C36.7487 235.611 36.6991 235.822 36.6556 235.999C36.6277 236.127 36.5967 236.251 36.5718 236.381C36.5315 236.583 36.5036 236.791 36.4787 237.002C36.4787 237.108 36.4446 237.217 36.4353 237.313C36.4043 237.624 36.3856 237.953 36.3856 238.282C36.3856 238.611 36.4043 238.903 36.4322 239.213C36.4322 239.316 36.457 239.415 36.4694 239.524C36.4974 239.732 36.5253 239.937 36.5625 240.145C36.5843 240.26 36.6091 240.375 36.6339 240.49C36.6743 240.673 36.7208 240.856 36.7736 241.036C36.8046 241.154 36.8387 241.269 36.876 241.384C36.9318 241.561 36.997 241.735 37.0622 241.909C37.1056 242.017 37.1428 242.126 37.1894 242.219C37.2763 242.424 37.3756 242.626 37.4749 242.84C37.5742 243.055 37.6487 243.151 37.7418 243.328C37.8349 243.505 37.9 243.604 37.9869 243.738C38.0738 243.871 38.1669 244.002 38.2631 244.135C38.3593 244.269 38.4028 244.331 38.4773 244.427C38.5517 244.523 38.6945 244.7 38.8093 244.834C38.8745 244.911 38.9427 244.986 39.011 245.06C39.1414 245.2 39.2717 245.34 39.4051 245.47L39.5541 245.61C40.2689 246.278 41.0796 246.835 41.9591 247.262L42.0429 247.302C42.257 247.405 42.4743 247.498 42.6977 247.582L42.7939 247.619C43.0236 247.706 43.2563 247.784 43.4953 247.852C44.3543 248.103 45.2444 248.231 46.1393 248.234H106.001C106.896 248.231 107.786 248.103 108.645 247.852H274.298V70.004H103.87ZM89.7807 149.414H88.3873C83 149.414 78.6368 144.961 78.6368 139.477C78.6368 133.993 83 129.54 88.3873 129.54H89.7807C95.1648 129.54 99.5311 133.993 99.5311 139.477C99.5311 144.961 95.1648 149.414 89.7807 149.414Z" fill="#9665FD" fill-opacity="0.8"/>
<g style="mix-blend-mode:multiply">
<path d="M182.674 91.6504H67.8125C30.5164 91.6504 0.282043 121.904 0.282043 159.223V363.006C0.282043 400.325 30.5164 430.578 67.8125 430.578H182.674C219.97 430.578 250.204 400.325 250.204 363.006V159.223C250.204 121.904 219.97 91.6504 182.674 91.6504Z" fill="white"/>
<path d="M187.791 88.7408H69.8296C33.6579 88.7408 4.33496 118.082 4.33496 154.276V360.817C4.33496 397.011 33.6579 426.352 69.8296 426.352H187.791C223.963 426.352 253.286 397.011 253.286 360.817V154.276C253.286 118.082 223.963 88.7408 187.791 88.7408Z" fill="#FEFEFE"/>
<path d="M192.909 85.8343H71.8467C36.7993 85.8343 8.38782 114.264 8.38782 149.333V358.631C8.38782 393.7 36.7993 422.129 71.8467 422.129H192.909C227.956 422.129 256.368 393.7 256.368 358.631V149.333C256.368 114.264 227.956 85.8343 192.909 85.8343Z" fill="#FDFCFC"/>
<path d="M198.029 82.9248H73.8639C39.9408 82.9248 12.4407 110.442 12.4407 144.386V356.441C12.4407 390.386 39.9408 417.903 73.8639 417.903H198.029C231.952 417.903 259.452 390.386 259.452 356.441V144.386C259.452 110.442 231.952 82.9248 198.029 82.9248Z" fill="#FBFBFB"/>
<path d="M203.146 80.0183H75.8811C43.0823 80.0183 16.4937 106.624 16.4937 139.443V354.255C16.4937 387.075 43.0823 413.68 75.8811 413.68H203.146C235.945 413.68 262.534 387.075 262.534 354.255V139.443C262.534 106.624 235.945 80.0183 203.146 80.0183Z" fill="#FAFAFA"/>
<path d="M208.264 77.1087H77.8981C46.2236 77.1087 20.5464 102.802 20.5464 134.496V352.069C20.5464 383.763 46.2236 409.457 77.8981 409.457H208.264C239.938 409.457 265.615 383.763 265.615 352.069V134.496C265.615 102.802 239.938 77.1087 208.264 77.1087Z" fill="#F9F9F9"/>
<path d="M213.381 74.1991H79.9183C49.3665 74.1991 24.5993 98.9817 24.5993 129.553V349.877C24.5993 380.448 49.3665 405.231 79.9183 405.231H213.381C243.933 405.231 268.7 380.448 268.7 349.877V129.553C268.7 98.9817 243.933 74.1991 213.381 74.1991Z" fill="#F8F7F7"/>
<path d="M218.498 71.2926H81.9355C52.508 71.2926 28.6522 95.1632 28.6522 124.609V347.691C28.6522 377.137 52.508 401.007 81.9355 401.007H218.498C247.926 401.007 271.782 377.137 271.782 347.691V124.609C271.782 95.1632 247.926 71.2926 218.498 71.2926Z" fill="#F7F6F6"/>
<path d="M223.616 68.3831H83.9526C55.6494 68.3831 32.7051 91.3417 32.7051 119.663V345.502C32.7051 373.823 55.6494 396.781 83.9526 396.781H223.616C251.919 396.781 274.863 373.823 274.863 345.502V119.663C274.863 91.3417 251.919 68.3831 223.616 68.3831Z" fill="#F5F5F5"/>
<path d="M228.733 65.4765H85.9698C58.7909 65.4765 36.758 87.5231 36.758 114.719V343.316C36.758 370.511 58.7909 392.558 85.9698 392.558H228.733C255.912 392.558 277.945 370.511 277.945 343.316V114.719C277.945 87.5231 255.912 65.4765 228.733 65.4765Z" fill="#F4F3F3"/>
<path d="M233.857 62.567H87.9901C61.9355 62.567 40.814 83.7016 40.814 109.772V341.13C40.814 367.2 61.9355 388.335 87.9901 388.335H233.857C259.911 388.335 281.033 367.2 281.033 341.13V109.772C281.033 83.7016 259.911 62.567 233.857 62.567Z" fill="#F3F2F2"/>
<path d="M238.974 59.6574H90.0072C65.0769 59.6574 44.8669 79.88 44.8669 104.826V338.94C44.8669 363.886 65.0769 384.109 90.0072 384.109H238.974C263.904 384.109 284.114 363.886 284.114 338.94V104.826C284.114 79.88 263.904 59.6574 238.974 59.6574Z" fill="#F2F1F1"/>
<path d="M244.088 56.7509H92.0273C68.2196 56.7509 48.9197 76.0629 48.9197 99.8855V336.751C48.9197 360.574 68.2196 379.886 92.0273 379.886H244.088C267.896 379.886 287.196 360.574 287.196 336.751V99.8855C287.196 76.0629 267.896 56.7509 244.088 56.7509Z" fill="#F1F0F0"/>
<path d="M249.208 53.8413H94.0445C71.3611 53.8413 52.9726 72.2413 52.9726 94.9388V334.562C52.9726 357.26 71.3611 375.66 94.0445 375.66H249.208C271.892 375.66 290.28 357.26 290.28 334.562V94.9388C290.28 72.2413 271.892 53.8413 249.208 53.8413Z" fill="#F0EEEE"/>
<path d="M254.326 50.9348H96.0616C74.5025 50.9348 57.0255 68.4228 57.0255 89.9953V332.376C57.0255 353.948 74.5025 371.436 96.0616 371.436H254.326C275.885 371.436 293.362 353.948 293.362 332.376V89.9953C293.362 68.4228 275.885 50.9348 254.326 50.9348Z" fill="#EEEDED"/>
<path d="M259.443 48.0253H98.0788C77.644 48.0253 61.0784 64.6012 61.0784 85.0487V330.19C61.0784 350.637 77.644 367.213 98.0788 367.213H259.443C279.878 367.213 296.443 350.637 296.443 330.19V85.0487C296.443 64.6012 279.878 48.0253 259.443 48.0253Z" fill="#EDECEC"/>
<path d="M264.56 45.1157H100.096C80.7854 45.1157 65.1312 60.7796 65.1312 80.1021V328.001C65.1312 347.323 80.7854 362.987 100.096 362.987H264.56C283.871 362.987 299.525 347.323 299.525 328.001V80.1021C299.525 60.7796 283.871 45.1157 264.56 45.1157Z" fill="#ECEAEA"/>
<path d="M269.681 42.2092H102.113C83.9269 42.2092 69.1841 56.9612 69.1841 75.1587V325.815C69.1841 344.012 83.9269 358.764 102.113 358.764H269.681C287.867 358.764 302.61 344.012 302.61 325.815V75.1587C302.61 56.9612 287.867 42.2092 269.681 42.2092Z" fill="#EBE9E9"/>
<path d="M274.795 39.2996H104.133C87.0698 39.2996 73.2371 53.1409 73.2371 70.2151V323.622C73.2371 340.696 87.0698 354.538 104.133 354.538H274.795C291.858 354.538 305.691 340.696 305.691 323.622V70.2151C305.691 53.1409 291.858 39.2996 274.795 39.2996Z" fill="#EAE8E8"/>
<path d="M279.912 36.3931H106.15C90.2112 36.3931 77.2899 49.3225 77.2899 65.2716V321.436C77.2899 337.385 90.2112 350.315 106.15 350.315H279.912C295.851 350.315 308.773 337.385 308.773 321.436V65.2716C308.773 49.3225 295.851 36.3931 279.912 36.3931Z" fill="#E8E7E7"/>
<path d="M285.033 33.4835H108.168C93.3527 33.4835 81.3428 45.5009 81.3428 60.325V319.25C81.3428 334.074 93.3527 346.092 108.168 346.092H285.033C299.848 346.092 311.857 334.074 311.857 319.25V60.325C311.857 45.5009 299.848 33.4835 285.033 33.4835Z" fill="#E7E5E5"/>
<path d="M290.153 30.574H110.188C96.4972 30.574 85.3987 41.6793 85.3987 55.3784V317.061C85.3987 330.76 96.4972 341.866 110.188 341.866H290.153C303.844 341.866 314.942 330.76 314.942 317.061V55.3784C314.942 41.6793 303.844 30.574 290.153 30.574Z" fill="#E6E4E4"/>
<path d="M290.839 29.9063H110.874C97.183 29.9063 86.0846 41.0116 86.0846 54.7108V316.393C86.0846 330.093 97.183 341.198 110.874 341.198H290.839C304.529 341.198 315.628 330.093 315.628 316.393V54.7108C315.628 41.0116 304.529 29.9063 290.839 29.9063Z" fill="#E5E3E3"/>
<path d="M291.528 29.2387H111.562C97.8719 29.2387 86.7735 40.344 86.7735 54.0432V315.726C86.7735 329.425 97.8719 340.53 111.562 340.53H291.528C305.218 340.53 316.317 329.425 316.317 315.726V54.0432C316.317 40.344 305.218 29.2387 291.528 29.2387Z" fill="#E5E3E3"/>
<path d="M292.217 28.571H112.251C98.5609 28.571 87.4625 39.6764 87.4625 53.3755V315.058C87.4625 328.757 98.5609 339.863 112.251 339.863H292.217C305.907 339.863 317.006 328.757 317.006 315.058V53.3755C317.006 39.6764 305.907 28.571 292.217 28.571Z" fill="#E4E2E2"/>
<path d="M292.903 27.9034H112.937C99.2467 27.9034 88.1483 39.0088 88.1483 52.7079V314.391C88.1483 328.09 99.2467 339.195 112.937 339.195H292.903C306.593 339.195 317.692 328.09 317.692 314.391V52.7079C317.692 39.0088 306.593 27.9034 292.903 27.9034Z" fill="#E4E2E2"/>
<path d="M293.591 27.2327H113.626C99.9356 27.2327 88.8372 38.3381 88.8372 52.0372V313.72C88.8372 327.419 99.9356 338.524 113.626 338.524H293.591C307.282 338.524 318.38 327.419 318.38 313.72V52.0372C318.38 38.3381 307.282 27.2327 293.591 27.2327Z" fill="#E3E1E1"/>
<path d="M294.28 26.5651H114.315C100.625 26.5651 89.5261 37.6705 89.5261 51.3696V313.052C89.5261 326.751 100.625 337.857 114.315 337.857H294.28C307.971 337.857 319.069 326.751 319.069 313.052V51.3696C319.069 37.6705 307.971 26.5651 294.28 26.5651Z" fill="#E3E0E0"/>
<path d="M294.966 25.8975H115.001C101.31 25.8975 90.212 37.0028 90.212 50.7019V312.385C90.212 326.084 101.31 337.189 115.001 337.189H294.966C308.657 337.189 319.755 326.084 319.755 312.385V50.7019C319.755 37.0028 308.657 25.8975 294.966 25.8975Z" fill="#E2E0E0"/>
<path d="M295.655 25.2299H115.69C101.999 25.2299 90.9008 36.3353 90.9008 50.0344V311.717C90.9008 325.416 101.999 336.521 115.69 336.521H295.655C309.346 336.521 320.444 325.416 320.444 311.717V50.0344C320.444 36.3353 309.346 25.2299 295.655 25.2299Z" fill="#E2DFDF"/>
<path d="M296.344 24.5591H116.379C102.688 24.5591 91.5898 35.6645 91.5898 49.3636V311.046C91.5898 324.745 102.688 335.851 116.379 335.851H296.344C310.035 335.851 321.133 324.745 321.133 311.046V49.3636C321.133 35.6645 310.035 24.5591 296.344 24.5591Z" fill="#E1DEDE"/>
<path d="M297.03 23.8915H117.065C103.374 23.8915 92.2756 34.9968 92.2756 48.6959V310.379C92.2756 324.078 103.374 335.183 117.065 335.183H297.03C310.72 335.183 321.819 324.078 321.819 310.379V48.6959C321.819 34.9968 310.72 23.8915 297.03 23.8915Z" fill="#E1DEDE"/>
<path d="M297.719 23.2239H117.754C104.063 23.2239 92.9645 34.3292 92.9645 48.0283V309.711C92.9645 323.41 104.063 334.515 117.754 334.515H297.719C311.409 334.515 322.508 323.41 322.508 309.711V48.0283C322.508 34.3292 311.409 23.2239 297.719 23.2239Z" fill="#E0DDDD"/>
<path d="M298.408 22.5563H118.442C104.752 22.5563 93.6534 33.6617 93.6534 47.3608V309.043C93.6534 322.743 104.752 333.848 118.442 333.848H298.408C312.098 333.848 323.197 322.743 323.197 309.043V47.3608C323.197 33.6617 312.098 22.5563 298.408 22.5563Z" fill="#E0DDDD"/>
<path d="M299.097 21.8856H119.131C105.441 21.8856 94.3424 32.9909 94.3424 46.69V308.373C94.3424 322.072 105.441 333.177 119.131 333.177H299.097C312.787 333.177 323.886 322.072 323.886 308.373V46.69C323.886 32.9909 312.787 21.8856 299.097 21.8856Z" fill="#DFDCDC"/>
<path d="M299.783 21.2179H119.817C106.127 21.2179 95.0283 32.3232 95.0283 46.0224V307.705C95.0283 321.404 106.127 332.509 119.817 332.509H299.783C313.473 332.509 324.572 321.404 324.572 307.705V46.0224C324.572 32.3232 313.473 21.2179 299.783 21.2179Z" fill="#DFDBDB"/>
<path d="M300.471 20.5503H120.506C106.816 20.5503 95.7172 31.6556 95.7172 45.3547V307.037C95.7172 320.737 106.816 331.842 120.506 331.842H300.471C314.162 331.842 325.26 320.737 325.26 307.037V45.3547C325.26 31.6556 314.162 20.5503 300.471 20.5503Z" fill="#DEDBDB"/>
<path d="M301.16 19.8828H121.195C107.504 19.8828 96.4061 30.9881 96.4061 44.6872V306.37C96.4061 320.069 107.504 331.174 121.195 331.174H301.16C314.851 331.174 325.949 320.069 325.949 306.37V44.6872C325.949 30.9881 314.851 19.8828 301.16 19.8828Z" fill="#DEDADA"/>
<path d="M301.846 19.2151H121.881C108.19 19.2151 97.0919 30.3204 97.0919 44.0195V305.702C97.0919 319.401 108.19 330.507 121.881 330.507H301.846C315.537 330.507 326.635 319.401 326.635 305.702V44.0195C326.635 30.3204 315.537 19.2151 301.846 19.2151Z" fill="#DDD9D9"/>
<path d="M302.535 18.5443H122.57C108.879 18.5443 97.7808 29.6496 97.7808 43.3488V305.031C97.7808 318.731 108.879 329.836 122.57 329.836H302.535C316.226 329.836 327.324 318.731 327.324 305.031V43.3488C327.324 29.6496 316.226 18.5443 302.535 18.5443Z" fill="#DDD9D9"/>
<path d="M303.224 17.8767H123.259C109.568 17.8767 98.4698 28.982 98.4698 42.6812V304.364C98.4698 318.063 109.568 329.168 123.259 329.168H303.224C316.915 329.168 328.013 318.063 328.013 304.364V42.6812C328.013 28.982 316.915 17.8767 303.224 17.8767Z" fill="#DCD8D8"/>
<path d="M303.91 17.2091H123.945C110.254 17.2091 99.1556 28.3144 99.1556 42.0136V303.696C99.1556 317.395 110.254 328.501 123.945 328.501H303.91C317.6 328.501 328.699 317.395 328.699 303.696V42.0136C328.699 28.3144 317.6 17.2091 303.91 17.2091Z" fill="#DCD8D8"/>
<path d="M304.599 16.5415H124.634C110.943 16.5415 99.8445 27.6468 99.8445 41.346V303.029C99.8445 316.728 110.943 327.833 124.634 327.833H304.599C318.289 327.833 329.388 316.728 329.388 303.029V41.346C329.388 27.6468 318.289 16.5415 304.599 16.5415Z" fill="#DBD7D7"/>
<path d="M305.027 16.1409H125.062C111.371 16.1409 100.273 27.2462 100.273 40.9453V302.628C100.273 316.327 111.371 327.432 125.062 327.432H305.027C318.718 327.432 329.816 316.327 329.816 302.628V40.9453C329.816 27.2462 318.718 16.1409 305.027 16.1409Z" fill="#DAD6D6"/>
<path d="M305.455 15.7404H125.49C111.799 15.7404 100.701 26.8457 100.701 40.5448V302.227C100.701 315.927 111.799 327.032 125.49 327.032H305.455C319.146 327.032 330.244 315.927 330.244 302.227V40.5448C330.244 26.8457 319.146 15.7404 305.455 15.7404Z" fill="#D9D5D5"/>
<path d="M305.881 15.3398H125.915C112.225 15.3398 101.126 26.4451 101.126 40.1442V301.827C101.126 315.526 112.225 326.631 125.915 326.631H305.881C319.571 326.631 330.669 315.526 330.669 301.827V40.1442C330.669 26.4451 319.571 15.3398 305.881 15.3398Z" fill="#D8D4D4"/>
<path d="M306.309 14.9391H126.343C112.653 14.9391 101.554 26.0445 101.554 39.7436V301.426C101.554 315.125 112.653 326.231 126.343 326.231H306.309C319.999 326.231 331.098 315.125 331.098 301.426V39.7436C331.098 26.0445 319.999 14.9391 306.309 14.9391Z" fill="#D7D3D2"/>
<path d="M306.737 14.5386H126.772C113.081 14.5386 101.983 25.6439 101.983 39.343V301.026C101.983 314.725 113.081 325.83 126.772 325.83H306.737C320.428 325.83 331.526 314.725 331.526 301.026V39.343C331.526 25.6439 320.428 14.5386 306.737 14.5386Z" fill="#D6D2D1"/>
<path d="M307.165 14.1381H127.2C113.509 14.1381 102.411 25.2434 102.411 38.9425V300.625C102.411 314.324 113.509 325.43 127.2 325.43H307.165C320.856 325.43 331.954 314.324 331.954 300.625V38.9425C331.954 25.2434 320.856 14.1381 307.165 14.1381Z" fill="#D5D1D0"/>
<path d="M307.59 13.7375H127.625C113.935 13.7375 102.836 24.8428 102.836 38.5419V300.225C102.836 313.924 113.935 325.029 127.625 325.029H307.59C321.281 325.029 332.379 313.924 332.379 300.225V38.5419C332.379 24.8428 321.281 13.7375 307.59 13.7375Z" fill="#D4D0CF"/>
<path d="M308.019 13.3369H128.053C114.363 13.3369 103.264 24.4422 103.264 38.1413V299.824C103.264 313.523 114.363 324.628 128.053 324.628H308.019C321.709 324.628 332.808 313.523 332.808 299.824V38.1413C332.808 24.4422 321.709 13.3369 308.019 13.3369Z" fill="#D3CFCE"/>
<path d="M308.447 12.9363H128.482C114.791 12.9363 103.693 24.0417 103.693 37.7408V299.423C103.693 313.123 114.791 324.228 128.482 324.228H308.447C322.137 324.228 333.236 313.123 333.236 299.423V37.7408C333.236 24.0417 322.137 12.9363 308.447 12.9363Z" fill="#D2CECD"/>
<path d="M308.875 12.5358H128.91C115.219 12.5358 104.121 23.6411 104.121 37.3402V299.023C104.121 312.722 115.219 323.827 128.91 323.827H308.875C322.566 323.827 333.664 312.722 333.664 299.023V37.3402C333.664 23.6411 322.566 12.5358 308.875 12.5358Z" fill="#D1CDCC"/>
<path d="M309.3 12.1351H129.335C115.644 12.1351 104.546 23.2405 104.546 36.9396V298.622C104.546 312.321 115.644 323.427 129.335 323.427H309.3C322.991 323.427 334.089 312.321 334.089 298.622V36.9396C334.089 23.2405 322.991 12.1351 309.3 12.1351Z" fill="#D1CBCA"/>
<path d="M309.728 11.7346H129.763C116.073 11.7346 104.974 22.84 104.974 36.5391V298.222C104.974 311.921 116.073 323.026 129.763 323.026H309.728C323.419 323.026 334.517 311.921 334.517 298.222V36.5391C334.517 22.84 323.419 11.7346 309.728 11.7346Z" fill="#D0CAC9"/>
<path d="M310.157 11.334H130.192C116.501 11.334 105.403 22.4394 105.403 36.1385V297.821C105.403 311.52 116.501 322.626 130.192 322.626H310.157C323.847 322.626 334.946 311.52 334.946 297.821V36.1385C334.946 22.4394 323.847 11.334 310.157 11.334Z" fill="#CFC9C8"/>
<path d="M310.585 10.9334H130.62C116.929 10.9334 105.831 22.0387 105.831 35.7379V297.421C105.831 311.12 116.929 322.225 130.62 322.225H310.585C324.276 322.225 335.374 311.12 335.374 297.421V35.7379C335.374 22.0387 324.276 10.9334 310.585 10.9334Z" fill="#CEC8C7"/>
<path d="M311.01 10.5329H131.045C117.354 10.5329 106.256 21.6382 106.256 35.3374V297.02C106.256 310.719 117.354 321.824 131.045 321.824H311.01C324.701 321.824 335.799 310.719 335.799 297.02V35.3374C335.799 21.6382 324.701 10.5329 311.01 10.5329Z" fill="#CDC7C6"/>
<path d="M311.438 10.1323H131.473C117.783 10.1323 106.684 21.2377 106.684 34.9368V296.619C106.684 310.319 117.783 321.424 131.473 321.424H311.438C325.129 321.424 336.227 310.319 336.227 296.619V34.9368C336.227 21.2377 325.129 10.1323 311.438 10.1323Z" fill="#CCC6C5"/>
<path d="M311.867 9.73169H131.901C118.211 9.73169 107.112 20.837 107.112 34.5361V296.219C107.112 309.918 118.211 321.023 131.901 321.023H311.867C325.557 321.023 336.656 309.918 336.656 296.219V34.5361C336.656 20.837 325.557 9.73169 311.867 9.73169Z" fill="#CBC5C4"/>
<path d="M312.295 9.33423H132.33C118.639 9.33423 107.541 20.4396 107.541 34.1387V295.821C107.541 309.52 118.639 320.626 132.33 320.626H312.295C325.985 320.626 337.084 309.52 337.084 295.821V34.1387C337.084 20.4396 325.985 9.33423 312.295 9.33423Z" fill="#CAC4C2"/>
<path d="M312.72 8.93372H132.755C119.064 8.93372 107.966 20.0391 107.966 33.7382V295.421C107.966 309.12 119.064 320.225 132.755 320.225H312.72C326.411 320.225 337.509 309.12 337.509 295.421V33.7382C337.509 20.0391 326.411 8.93372 312.72 8.93372Z" fill="#C9C3C1"/>
<path d="M313.148 8.53314H133.183C119.493 8.53314 108.394 19.6385 108.394 33.3376V295.02C108.394 308.719 119.493 319.825 133.183 319.825H313.148C326.839 319.825 337.937 308.719 337.937 295.02V33.3376C337.937 19.6385 326.839 8.53314 313.148 8.53314Z" fill="#C8C2C0"/>
<path d="M313.577 8.13251H133.611C119.921 8.13251 108.822 19.2378 108.822 32.937V294.62C108.822 308.319 119.921 319.424 133.611 319.424H313.577C327.267 319.424 338.366 308.319 338.366 294.62V32.937C338.366 19.2378 327.267 8.13251 313.577 8.13251Z" fill="#C7C1BF"/>
<path d="M313.949 7.83136H133.984C120.293 7.83136 109.195 18.9367 109.195 32.6358V294.318C109.195 308.018 120.293 319.123 133.984 319.123H313.949C327.64 319.123 338.738 308.018 338.738 294.318V32.6358C338.738 18.9367 327.64 7.83136 313.949 7.83136Z" fill="#C5BFBD"/>
<path d="M314.324 7.52704H134.359C120.669 7.52704 109.57 18.6324 109.57 32.3315V294.014C109.57 307.713 120.669 318.819 134.359 318.819H314.324C328.015 318.819 339.113 307.713 339.113 294.014V32.3315C339.113 18.6324 328.015 7.52704 314.324 7.52704Z" fill="#C2BCBA"/>
<path d="M314.697 7.22583H134.732C121.041 7.22583 109.943 18.3312 109.943 32.0303V293.713C109.943 307.412 121.041 318.517 134.732 318.517H314.697C328.387 318.517 339.486 307.412 339.486 293.713V32.0303C339.486 18.3312 328.387 7.22583 314.697 7.22583Z" fill="#C0BAB8"/>
<path d="M315.072 6.92468H135.107C121.416 6.92468 110.318 18.03 110.318 31.7291V293.412C110.318 307.111 121.416 318.216 135.107 318.216H315.072C328.763 318.216 339.861 307.111 339.861 293.412V31.7291C339.861 18.03 328.763 6.92468 315.072 6.92468Z" fill="#BDB7B5"/>
<path d="M315.445 6.62347H135.479C121.789 6.62347 110.69 17.7288 110.69 31.4279V293.111C110.69 306.81 121.789 317.915 135.479 317.915H315.445C329.135 317.915 340.234 306.81 340.234 293.111V31.4279C340.234 17.7288 329.135 6.62347 315.445 6.62347Z" fill="#BBB5B3"/>
<path d="M315.817 6.3222H135.852C122.161 6.3222 111.063 17.4275 111.063 31.1267V292.809C111.063 306.508 122.161 317.614 135.852 317.614H315.817C329.508 317.614 340.606 306.508 340.606 292.809V31.1267C340.606 17.4275 329.508 6.3222 315.817 6.3222Z" fill="#B8B2B0"/>
<path d="M316.193 6.021H136.227C122.537 6.021 111.438 17.1263 111.438 30.8255V292.508C111.438 306.207 122.537 317.313 136.227 317.313H316.193C329.883 317.313 340.982 306.207 340.982 292.508V30.8255C340.982 17.1263 329.883 6.021 316.193 6.021Z" fill="#B6B0AE"/>
<path d="M316.565 5.71979H136.6C122.909 5.71979 111.811 16.8251 111.811 30.5242V292.207C111.811 305.906 122.909 317.011 136.6 317.011H316.565C330.256 317.011 341.354 305.906 341.354 292.207V30.5242C341.354 16.8251 330.256 5.71979 316.565 5.71979Z" fill="#B4ADAB"/>
<path d="M316.941 5.41864H136.975C123.285 5.41864 112.186 16.524 112.186 30.2231V291.906C112.186 305.605 123.285 316.71 136.975 316.71H316.941C330.631 316.71 341.73 305.605 341.73 291.906V30.2231C341.73 16.524 330.631 5.41864 316.941 5.41864Z" fill="#B1ABA9"/>
<path d="M317.313 5.11743H137.348C123.657 5.11743 112.559 16.2228 112.559 29.9219V291.605C112.559 305.304 123.657 316.409 137.348 316.409H317.313C331.003 316.409 342.102 305.304 342.102 291.605V29.9219C342.102 16.2228 331.003 5.11743 317.313 5.11743Z" fill="#AFA8A6"/>
<path d="M317.688 4.81616H137.723C124.033 4.81616 112.934 15.9215 112.934 29.6206V291.303C112.934 305.002 124.033 316.108 137.723 316.108H317.688C331.379 316.108 342.477 305.002 342.477 291.303V29.6206C342.477 15.9215 331.379 4.81616 317.688 4.81616Z" fill="#ACA6A4"/>
<path d="M318.061 4.51184H138.096C124.405 4.51184 113.307 15.6172 113.307 29.3163V290.999C113.307 304.698 124.405 315.803 138.096 315.803H318.061C331.751 315.803 342.85 304.698 342.85 290.999V29.3163C342.85 15.6172 331.751 4.51184 318.061 4.51184Z" fill="#AAA3A1"/>
<path d="M318.436 4.21063H138.471C124.78 4.21063 113.682 15.316 113.682 29.0151V290.698C113.682 304.397 124.78 315.502 138.471 315.502H318.436C332.127 315.502 343.225 304.397 343.225 290.698V29.0151C343.225 15.316 332.127 4.21063 318.436 4.21063Z" fill="#A7A19F"/>
<path d="M318.809 3.90948H138.843C125.153 3.90948 114.054 15.0148 114.054 28.7139V290.397C114.054 304.096 125.153 315.201 138.843 315.201H318.809C332.499 315.201 343.598 304.096 343.598 290.397V28.7139C343.598 15.0148 332.499 3.90948 318.809 3.90948Z" fill="#A59E9C"/>
<path d="M319.184 3.60828H139.219C125.528 3.60828 114.43 14.7136 114.43 28.4127V290.095C114.43 303.795 125.528 314.9 139.219 314.9H319.184C332.875 314.9 343.973 303.795 343.973 290.095V28.4127C343.973 14.7136 332.875 3.60828 319.184 3.60828Z" fill="#A39C9A"/>
<path d="M319.557 3.30707H139.591C125.901 3.30707 114.802 14.4124 114.802 28.1115V289.794C114.802 303.493 125.901 314.599 139.591 314.599H319.557C333.247 314.599 344.346 303.493 344.346 289.794V28.1115C344.346 14.4124 333.247 3.30707 319.557 3.30707Z" fill="#A09997"/>
<path d="M319.929 3.00592H139.964C126.273 3.00592 115.175 14.1113 115.175 27.8104V289.493C115.175 303.192 126.273 314.297 139.964 314.297H319.929C333.62 314.297 344.718 303.192 344.718 289.493V27.8104C344.718 14.1113 333.62 3.00592 319.929 3.00592Z" fill="#9E9795"/>
<path d="M320.304 2.70459H140.339C126.649 2.70459 115.55 13.8099 115.55 27.509V289.192C115.55 302.891 126.649 313.996 140.339 313.996H320.304C333.995 313.996 345.093 302.891 345.093 289.192V27.509C345.093 13.8099 333.995 2.70459 320.304 2.70459Z" fill="#9B9492"/>
<path d="M320.677 2.40344H140.712C127.021 2.40344 115.923 13.5088 115.923 27.2079V288.891C115.923 302.59 127.021 313.695 140.712 313.695H320.677C334.367 313.695 345.466 302.59 345.466 288.891V27.2079C345.466 13.5088 334.367 2.40344 320.677 2.40344Z" fill="#999290"/>
<path d="M321.052 2.10223H141.087C127.397 2.10223 116.298 13.2076 116.298 26.9067V288.589C116.298 302.288 127.397 313.394 141.087 313.394H321.052C334.743 313.394 345.841 302.288 345.841 288.589V26.9067C345.841 13.2076 334.743 2.10223 321.052 2.10223Z" fill="#968F8D"/>
<path d="M321.425 1.79791H141.46C127.769 1.79791 116.671 12.9032 116.671 26.6024V288.285C116.671 301.984 127.769 313.089 141.46 313.089H321.425C335.115 313.089 346.214 301.984 346.214 288.285V26.6024C346.214 12.9032 335.115 1.79791 321.425 1.79791Z" fill="#948D8B"/>
</g>
<path d="M452.194 172.669H450.8C445.413 172.669 441.05 176.916 441.05 182.158C441.05 187.4 445.413 191.651 450.8 191.651H452.194C457.578 191.651 461.944 187.4 461.944 182.158C461.944 176.916 457.578 172.669 452.194 172.669Z" fill="#9665FD" fill-opacity="0.8"/>
<path d="M402.603 162.148C402.628 161.949 402.656 161.748 402.697 161.552C402.721 161.428 402.755 161.307 402.787 161.185C402.827 161.015 402.867 160.844 402.92 160.679C402.973 160.515 403.007 160.418 403.053 160.288C403.1 160.158 403.162 159.978 403.221 159.841C403.28 159.704 403.342 159.574 403.404 159.44C403.466 159.307 403.528 159.176 403.6 159.046C403.671 158.916 403.749 158.773 403.829 158.639C403.91 158.506 403.969 158.409 404.043 158.298C404.118 158.186 404.23 158.021 404.326 157.888C404.422 157.754 404.472 157.695 404.546 157.602C404.658 157.462 404.773 157.323 404.891 157.189C404.959 157.111 405.03 157.037 405.102 156.962C405.238 156.82 405.375 156.68 405.517 156.546L405.694 156.391C405.859 156.242 406.026 156.099 406.203 155.966L406.296 155.894C407.679 154.855 409.31 154.198 411.026 153.988H453.587C458.971 153.988 463.338 149.737 463.338 144.495C463.338 139.253 458.971 135.002 453.587 135.002H385.089C384.338 134.841 383.609 134.593 382.916 134.263C382.845 134.229 382.773 134.201 382.705 134.164C382.531 134.077 382.364 133.984 382.199 133.888L381.945 133.738C381.79 133.642 381.635 133.543 381.492 133.428L381.228 133.235C381.092 133.133 380.955 133.027 380.822 132.925C380.688 132.822 380.648 132.773 380.561 132.695C380.474 132.617 380.313 132.472 380.195 132.354C380.077 132.236 380.021 132.167 379.934 132.077C379.847 131.987 379.717 131.847 379.624 131.726C379.45 131.519 379.285 131.305 379.13 131.084C379.059 130.984 379 130.882 378.935 130.773C378.87 130.664 378.749 130.49 378.665 130.341C378.581 130.192 378.547 130.121 378.488 130.009C378.429 129.897 378.336 129.714 378.268 129.562C378.199 129.41 378.168 129.332 378.122 129.217C378.075 129.102 377.998 128.907 377.942 128.739C377.886 128.571 377.864 128.506 377.83 128.388C377.777 128.217 377.734 128.047 377.693 127.873C377.665 127.758 377.638 127.646 377.616 127.531C377.576 127.336 377.548 127.137 377.523 126.938C377.523 126.839 377.492 126.742 377.482 126.643C377.45 126.341 377.434 126.037 377.433 125.733C377.433 120.492 381.799 116.241 387.186 116.241H420.081V116.067H430.372C435.756 116.067 440.122 111.819 440.122 106.577C440.122 101.336 435.756 97.0845 430.372 97.0845H406.973C406.684 97.0379 406.399 96.982 406.119 96.9106C404.24 96.4406 402.541 95.4238 401.238 93.9886L401.136 93.8799C401.005 93.7309 400.887 93.5694 400.766 93.4235C400.704 93.3427 400.642 93.2651 400.583 93.1844C400.481 93.0446 400.388 92.9018 400.295 92.7558C400.201 92.6099 400.158 92.5447 400.096 92.4453C400.034 92.346 399.941 92.1752 399.866 92.0354C399.792 91.8957 399.739 91.7808 399.677 91.6535C399.615 91.5262 399.556 91.3865 399.5 91.2529C399.444 91.1194 399.388 90.961 399.336 90.812C399.283 90.6629 399.246 90.5574 399.205 90.4238C399.165 90.2903 399.115 90.0916 399.075 89.9239C399.044 89.8028 399.013 89.6817 398.988 89.5606C398.948 89.365 398.92 89.1693 398.895 88.9706C398.895 88.8681 398.861 88.7656 398.852 88.6601C398.819 88.3506 398.803 88.0397 398.802 87.7285C398.802 87.418 398.821 87.1261 398.848 86.8311C398.848 86.7348 398.873 86.6417 398.886 86.5454C398.914 86.3467 398.942 86.1511 398.979 85.9554C399.001 85.8467 399.025 85.7381 399.05 85.6263C399.094 85.4524 399.137 85.2754 399.19 85.1046C399.221 84.9928 399.255 84.881 399.292 84.7723C399.348 84.6047 399.413 84.437 399.478 84.2724C399.522 84.1699 399.559 84.0644 399.606 83.9619C399.693 83.7663 399.792 83.5737 399.891 83.3843C399.99 83.1949 400.065 83.0738 400.158 82.9185C400.251 82.7633 400.316 82.6546 400.403 82.5273C400.49 82.4 400.583 82.2726 400.679 82.1484C400.776 82.0242 400.819 81.959 400.894 81.869C400.968 81.7789 401.111 81.6081 401.226 81.4808L401.427 81.2635C401.558 81.1299 401.688 80.9995 401.821 80.8722L401.97 80.7418C402.689 80.0994 403.5 79.5677 404.375 79.1643L404.459 79.124C404.673 79.0277 404.891 78.9376 405.114 78.8569L405.21 78.8228C405.44 78.742 405.673 78.6644 405.912 78.5992C406.222 78.5184 406.532 78.4532 406.843 78.3973H203.578V248.253H389.362C384.483 247.731 380.691 243.707 380.691 238.822C380.691 233.58 385.057 229.329 390.442 229.329H391.835C397.219 229.329 401.586 233.58 401.586 238.822C401.586 243.707 397.79 247.731 392.915 248.253H418.672C414.225 247.371 410.88 243.554 410.88 238.968C410.88 233.903 414.958 229.777 420.09 229.5V229.475H447.089C452.473 229.475 456.839 225.224 456.839 219.983C456.839 214.741 452.473 210.493 447.089 210.493H383.472C378.084 210.493 373.718 206.242 373.718 201.001C373.719 200.689 373.735 200.378 373.768 200.069C373.768 199.966 373.796 199.867 373.811 199.758C373.836 199.56 373.864 199.361 373.901 199.168C373.926 199.047 373.957 198.929 373.988 198.811C374.028 198.641 374.069 198.47 374.122 198.305C374.174 198.141 374.202 198.051 374.246 197.926C374.289 197.802 374.354 197.616 374.416 197.479C374.478 197.343 374.525 197.218 374.584 197.091C374.643 196.964 374.714 196.824 374.779 196.694C374.845 196.563 374.922 196.43 374.997 196.299C375.071 196.169 375.136 196.073 375.208 195.964C375.279 195.855 375.385 195.688 375.481 195.554C375.543 195.467 375.611 195.383 375.676 195.299C375.791 195.15 375.903 194.989 376.027 194.862L376.111 194.771C376.817 193.982 377.647 193.313 378.569 192.79L378.606 192.769C378.829 192.641 379.062 192.526 379.298 192.418L379.372 192.384C379.605 192.278 379.844 192.182 380.086 192.092L380.167 192.064C380.415 191.977 380.666 191.899 380.921 191.834H380.983C381.247 191.766 381.517 191.707 381.79 191.66H421.083C426.468 191.66 430.834 187.409 430.834 182.167C430.834 176.926 426.468 172.678 421.083 172.678H410.197C409.721 172.575 409.254 172.438 408.798 172.268C408.726 172.24 408.652 172.218 408.583 172.19C408.41 172.122 408.242 172.044 408.078 171.967L407.767 171.827C407.612 171.749 407.457 171.666 407.314 171.579C407.171 171.492 407.106 171.461 407.004 171.399C406.901 171.336 406.725 171.218 406.588 171.125L406.278 170.905C406.15 170.805 406.023 170.709 405.899 170.594C405.775 170.479 405.701 170.42 405.589 170.33C405.477 170.24 405.362 170.128 405.254 170.02C405.145 169.911 405.049 169.802 404.943 169.691C404.838 169.579 404.757 169.495 404.67 169.38C404.493 169.169 404.326 168.952 404.168 168.725C404.102 168.632 404.043 168.532 403.981 168.436C403.885 168.29 403.792 168.144 403.702 167.989C403.643 167.883 403.587 167.775 403.531 167.678C403.475 167.582 403.376 167.368 403.305 167.222C403.233 167.076 403.209 166.995 403.162 166.88C403.115 166.766 403.035 166.57 402.979 166.399C402.923 166.228 402.901 166.169 402.867 166.051C402.814 165.881 402.771 165.707 402.731 165.53C402.703 165.418 402.675 165.306 402.653 165.191C402.613 164.996 402.585 164.797 402.56 164.598C402.56 164.499 402.529 164.402 402.52 164.288C402.487 163.984 402.471 163.68 402.47 163.375C402.471 163.063 402.488 162.753 402.52 162.443C402.566 162.353 402.588 162.254 402.603 162.148Z" fill="#9665FD" fill-opacity="0.8"/>
<path d="M321.425 1.79791H141.46C127.769 1.79791 116.671 12.9032 116.671 26.6024V288.285C116.671 301.984 127.769 313.089 141.46 313.089H321.425C335.115 313.089 346.214 301.984 346.214 288.285V26.6024C346.214 12.9032 335.115 1.79791 321.425 1.79791Z" fill="#FCFCFC"/>
<path d="M322.464 9.71311C326.539 9.71804 330.446 11.34 333.328 14.2233C336.209 17.1066 337.83 21.0157 337.835 25.0932V289.797C337.83 293.875 336.209 297.784 333.328 300.667C330.446 303.55 326.539 305.172 322.464 305.177H140.42C136.345 305.172 132.439 303.55 129.558 300.667C126.677 297.784 125.057 293.875 125.052 289.797V25.0932C125.057 21.016 126.677 17.1068 129.558 14.2235C132.439 11.3401 136.345 9.71804 140.42 9.71311H322.464ZM322.464 0H140.42C137.127 -2.52361e-08 133.866 0.649078 130.824 1.91017C127.781 3.17126 125.017 5.01966 122.688 7.34983C120.36 9.67999 118.513 12.4463 117.253 15.4907C115.993 18.5351 115.345 21.7981 115.345 25.0932V289.797C115.345 293.092 115.993 296.355 117.253 299.4C118.513 302.444 120.36 305.211 122.688 307.541C125.017 309.871 127.781 311.719 130.824 312.98C133.866 314.241 137.127 314.89 140.42 314.89H322.464C329.115 314.89 335.494 312.247 340.197 307.541C344.9 302.835 347.542 296.452 347.542 289.797V25.0932C347.542 18.4381 344.9 12.0555 340.197 7.34964C335.494 2.64374 329.115 0 322.464 0Z" fill="url(#paint0_linear_1096_104)"/>
<path d="M136.103 248.554H170.239V70.004H125.242V101.988H136.103V248.554Z" fill="#9665FD" fill-opacity="0.8"/>
<path d="M125.242 70.004H115.311V101.988H125.242V70.004Z" fill="#805097"/>
<path d="M191.196 216.26H115.345V248.243H191.196V216.26Z" fill="#9665FD" fill-opacity="0.8"/>
<path d="M125.242 216.26H115.311V248.243H125.242V216.26Z" fill="#805097"/>
<path d="M263.458 247.244L267 247.244L267 258.975L263.458 258.975L263.458 247.244ZM244.961 257.491L267 257.491L267 262.032L244.961 262.032L244.961 257.491ZM253.937 248.772L257.388 248.772L257.388 258.975L253.937 258.975L253.937 248.772ZM244.961 247.259L248.518 247.259L248.518 258.975L244.961 258.975L244.961 247.259ZM262.474 236.012C262.161 236.012 261.879 236.103 261.626 236.285C261.374 236.466 261.142 236.804 260.93 237.299C260.708 237.783 260.506 238.485 260.325 239.403C260.143 240.23 259.916 241.002 259.644 241.719C259.361 242.425 259.023 243.041 258.629 243.565C258.236 244.08 257.772 244.484 257.237 244.776C256.692 245.069 256.071 245.215 255.375 245.215C254.689 245.215 254.043 245.069 253.437 244.776C252.832 244.474 252.297 244.045 251.833 243.49C251.359 242.925 250.99 242.238 250.728 241.431C250.456 240.614 250.319 239.695 250.319 238.676C250.319 237.253 250.546 236.032 251 235.013C251.455 233.984 252.08 233.197 252.877 232.652C253.665 232.097 254.563 231.819 255.572 231.819L255.572 236.179C255.148 236.179 254.77 236.27 254.437 236.451C254.093 236.623 253.826 236.895 253.634 237.269C253.432 237.632 253.332 238.106 253.332 238.691C253.332 239.176 253.417 239.595 253.589 239.948C253.75 240.301 253.972 240.573 254.255 240.765C254.527 240.947 254.83 241.038 255.163 241.038C255.415 241.038 255.642 240.987 255.844 240.886C256.036 240.775 256.213 240.599 256.374 240.356C256.535 240.114 256.687 239.801 256.828 239.418C256.959 239.024 257.08 238.54 257.191 237.965C257.434 236.784 257.751 235.73 258.145 234.801C258.528 233.873 259.053 233.136 259.719 232.591C260.375 232.046 261.238 231.774 262.308 231.774C263.034 231.774 263.7 231.935 264.306 232.258C264.911 232.581 265.441 233.045 265.895 233.651C266.339 234.256 266.687 234.983 266.939 235.831C267.182 236.668 267.303 237.612 267.303 238.661C267.303 240.185 267.03 241.477 266.485 242.536C265.94 243.586 265.249 244.383 264.412 244.928C263.564 245.463 262.696 245.73 261.808 245.73L261.808 241.598C262.403 241.577 262.883 241.426 263.246 241.144C263.609 240.851 263.872 240.483 264.033 240.039C264.195 239.584 264.275 239.095 264.275 238.57C264.275 238.005 264.2 237.536 264.048 237.163C263.887 236.789 263.675 236.507 263.413 236.315C263.14 236.113 262.827 236.012 262.474 236.012ZM263.897 222.177C263.897 221.642 263.796 221.168 263.594 220.754C263.382 220.341 263.09 220.018 262.716 219.786C262.333 219.543 261.884 219.417 261.369 219.407L261.369 215.305C262.52 215.315 263.544 215.623 264.442 216.229C265.33 216.834 266.031 217.646 266.546 218.666C267.05 219.685 267.303 220.825 267.303 222.086C267.303 223.358 267.091 224.468 266.667 225.417C266.243 226.355 265.658 227.137 264.911 227.763C264.154 228.388 263.276 228.858 262.277 229.17C261.268 229.483 260.188 229.64 259.038 229.64L258.599 229.64C257.439 229.64 256.359 229.483 255.36 229.17C254.351 228.858 253.473 228.388 252.726 227.763C251.969 227.137 251.379 226.355 250.955 225.417C250.531 224.478 250.319 223.378 250.319 222.117C250.319 220.775 250.577 219.599 251.091 218.59C251.606 217.571 252.343 216.773 253.301 216.198C254.25 215.613 255.375 215.315 256.677 215.305L256.677 219.407C256.132 219.417 255.637 219.533 255.193 219.755C254.749 219.967 254.396 220.28 254.134 220.694C253.861 221.097 253.725 221.597 253.725 222.192C253.725 222.828 253.861 223.348 254.134 223.751C254.396 224.155 254.759 224.468 255.224 224.69C255.678 224.912 256.197 225.068 256.783 225.159C257.358 225.24 257.963 225.28 258.599 225.28L259.038 225.28C259.674 225.28 260.284 225.24 260.87 225.159C261.455 225.078 261.975 224.927 262.429 224.705C262.883 224.473 263.241 224.155 263.503 223.751C263.766 223.348 263.897 222.823 263.897 222.177ZM263.08 203.09L250.622 203.09L250.622 198.73L267 198.73L267 202.833L263.08 203.09ZM259.719 202.605L259.689 201.319C260.779 201.319 261.793 201.445 262.731 201.697C263.66 201.95 264.467 202.328 265.153 202.833C265.829 203.337 266.359 203.973 266.743 204.74C267.116 205.507 267.303 206.41 267.303 207.449C267.303 208.246 267.192 208.983 266.97 209.659C266.738 210.325 266.379 210.9 265.895 211.385C265.401 211.859 264.77 212.232 264.003 212.505C263.226 212.767 262.292 212.898 261.203 212.898L250.622 212.898L250.622 208.539L261.233 208.539C261.717 208.539 262.126 208.484 262.459 208.373C262.792 208.251 263.064 208.085 263.276 207.873C263.488 207.661 263.64 207.414 263.73 207.131C263.821 206.839 263.867 206.516 263.867 206.163C263.867 205.264 263.685 204.558 263.322 204.043C262.958 203.519 262.464 203.15 261.838 202.938C261.203 202.716 260.496 202.605 259.719 202.605ZM263.897 188.634C263.897 188.099 263.796 187.625 263.594 187.211C263.382 186.798 263.09 186.475 262.716 186.243C262.333 186 261.884 185.874 261.369 185.864L261.369 181.762C262.52 181.772 263.544 182.08 264.442 182.686C265.33 183.291 266.031 184.103 266.546 185.123C267.05 186.142 267.303 187.282 267.303 188.543C267.303 189.815 267.091 190.925 266.667 191.874C266.243 192.812 265.658 193.594 264.911 194.22C264.154 194.845 263.276 195.315 262.277 195.627C261.268 195.94 260.188 196.097 259.038 196.097L258.599 196.097C257.439 196.097 256.359 195.94 255.36 195.627C254.351 195.315 253.473 194.845 252.726 194.22C251.969 193.594 251.379 192.812 250.955 191.874C250.531 190.935 250.319 189.835 250.319 188.574C250.319 187.232 250.577 186.056 251.091 185.047C251.606 184.028 252.343 183.23 253.301 182.655C254.25 182.07 255.375 181.772 256.677 181.762L256.677 185.864C256.132 185.874 255.637 185.99 255.193 186.212C254.749 186.424 254.396 186.737 254.134 187.151C253.861 187.555 253.725 188.054 253.725 188.649C253.725 189.285 253.861 189.805 254.134 190.208C254.396 190.612 254.759 190.925 255.224 191.147C255.678 191.369 256.197 191.525 256.783 191.616C257.358 191.697 257.963 191.737 258.599 191.737L259.038 191.737C259.674 191.737 260.284 191.697 260.87 191.616C261.455 191.535 261.975 191.384 262.429 191.162C262.883 190.93 263.241 190.612 263.503 190.208C263.766 189.805 263.897 189.28 263.897 188.634ZM243.75 174.981L267 174.981L267 179.34L243.75 179.34L243.75 174.981ZM258.236 175.602L258.236 176.797C257.096 176.787 256.046 176.636 255.087 176.343C254.119 176.051 253.281 175.632 252.575 175.087C251.858 174.542 251.303 173.891 250.91 173.134C250.516 172.367 250.319 171.52 250.319 170.591C250.319 169.784 250.435 169.052 250.667 168.396C250.889 167.73 251.253 167.16 251.757 166.686C252.252 166.202 252.903 165.828 253.71 165.566C254.517 165.304 255.496 165.172 256.646 165.172L267 165.172L267 169.562L256.616 169.562C255.89 169.562 255.319 169.668 254.906 169.88C254.482 170.082 254.184 170.379 254.013 170.773C253.831 171.156 253.74 171.631 253.74 172.196C253.74 172.821 253.856 173.356 254.088 173.8C254.32 174.234 254.643 174.582 255.057 174.845C255.461 175.107 255.935 175.299 256.48 175.42C257.025 175.541 257.61 175.602 258.236 175.602ZM263.307 153.018L256.011 153.018C255.486 153.018 255.037 153.103 254.664 153.275C254.28 153.446 253.982 153.714 253.771 154.077C253.559 154.43 253.453 154.889 253.453 155.455C253.453 155.939 253.538 156.358 253.71 156.711C253.871 157.064 254.109 157.337 254.421 157.528C254.724 157.72 255.082 157.816 255.496 157.816L255.496 162.175C254.8 162.175 254.139 162.014 253.513 161.691C252.888 161.368 252.338 160.899 251.863 160.283C251.379 159.668 251 158.936 250.728 158.088C250.456 157.231 250.319 156.272 250.319 155.212C250.319 153.941 250.531 152.811 250.955 151.822C251.379 150.833 252.015 150.056 252.862 149.491C253.71 148.916 254.77 148.628 256.041 148.628L263.049 148.628C263.947 148.628 264.684 148.572 265.259 148.461C265.824 148.35 266.319 148.189 266.743 147.977L267 147.977L267 152.382C266.556 152.594 266.001 152.755 265.335 152.866C264.659 152.967 263.983 153.018 263.307 153.018ZM257.025 152.442L259.492 152.412L259.492 154.849C259.492 155.424 259.558 155.924 259.689 156.348C259.82 156.771 260.007 157.12 260.249 157.392C260.481 157.665 260.754 157.866 261.066 157.998C261.379 158.119 261.722 158.179 262.096 158.179C262.469 158.179 262.807 158.093 263.11 157.922C263.403 157.75 263.635 157.503 263.806 157.18C263.968 156.857 264.048 156.479 264.048 156.045C264.048 155.389 263.917 154.819 263.655 154.334C263.392 153.85 263.069 153.477 262.686 153.214C262.303 152.942 261.939 152.801 261.596 152.791L263.443 151.64C263.857 151.802 264.285 152.024 264.729 152.306C265.173 152.579 265.592 152.927 265.986 153.351C266.369 153.774 266.687 154.284 266.939 154.879C267.182 155.475 267.303 156.181 267.303 156.999C267.303 158.038 267.096 158.981 266.682 159.829C266.258 160.667 265.678 161.333 264.941 161.827C264.195 162.312 263.347 162.554 262.398 162.554C261.541 162.554 260.779 162.392 260.113 162.069C259.447 161.746 258.887 161.272 258.433 160.646C257.968 160.011 257.62 159.219 257.388 158.27C257.146 157.321 257.025 156.222 257.025 154.97L257.025 152.442ZM254.013 140.908L267 140.908L267 145.283L250.622 145.283L250.622 141.181L254.013 140.908ZM258.236 141.514L258.236 142.725C257.096 142.725 256.046 142.588 255.087 142.316C254.119 142.033 253.281 141.625 252.575 141.09C251.858 140.545 251.303 139.874 250.91 139.077C250.516 138.279 250.319 137.356 250.319 136.307C250.319 135.58 250.43 134.914 250.652 134.309C250.864 133.703 251.202 133.183 251.666 132.75C252.121 132.306 252.716 131.962 253.453 131.72C254.179 131.478 255.052 131.357 256.071 131.357L267 131.357L267 135.716L256.556 135.716C255.809 135.716 255.234 135.817 254.83 136.019C254.426 136.221 254.144 136.508 253.982 136.882C253.821 137.245 253.74 137.684 253.74 138.199C253.74 138.764 253.856 139.258 254.088 139.682C254.32 140.096 254.643 140.439 255.057 140.711C255.461 140.984 255.935 141.186 256.48 141.317C257.025 141.448 257.61 141.514 258.236 141.514ZM257.736 131.766L257.933 133.325C256.863 133.325 255.869 133.194 254.951 132.931C254.033 132.659 253.226 132.26 252.529 131.735C251.833 131.201 251.293 130.54 250.91 129.752C250.516 128.965 250.319 128.057 250.319 127.028C250.319 126.241 250.435 125.524 250.667 124.878C250.889 124.233 251.248 123.683 251.742 123.229C252.227 122.764 252.862 122.411 253.649 122.169C254.437 121.917 255.4 121.791 256.541 121.791L267 121.791L267 126.165L256.541 126.165C255.784 126.165 255.208 126.266 254.815 126.468C254.411 126.66 254.134 126.942 253.982 127.315C253.821 127.679 253.74 128.113 253.74 128.617C253.74 129.142 253.846 129.601 254.058 129.995C254.26 130.388 254.542 130.716 254.906 130.979C255.269 131.241 255.693 131.438 256.177 131.569C256.652 131.7 257.171 131.766 257.736 131.766ZM258.978 119.111L258.66 119.111C257.459 119.111 256.354 118.94 255.345 118.597C254.326 118.254 253.443 117.754 252.696 117.098C251.949 116.442 251.369 115.635 250.955 114.676C250.531 113.718 250.319 112.618 250.319 111.376C250.319 110.135 250.531 109.03 250.955 108.062C251.369 107.093 251.949 106.28 252.696 105.625C253.443 104.958 254.326 104.454 255.345 104.111C256.354 103.768 257.459 103.596 258.66 103.596L258.978 103.596C260.168 103.596 261.273 103.768 262.292 104.111C263.302 104.454 264.185 104.958 264.941 105.625C265.688 106.28 266.268 107.088 266.682 108.046C267.096 109.005 267.303 110.105 267.303 111.346C267.303 112.587 267.096 113.692 266.682 114.661C266.268 115.62 265.688 116.432 264.941 117.098C264.185 117.754 263.302 118.254 262.292 118.597C261.273 118.94 260.168 119.111 258.978 119.111ZM258.66 114.752L258.978 114.752C259.664 114.752 260.305 114.691 260.9 114.57C261.495 114.449 262.02 114.257 262.474 113.995C262.918 113.723 263.266 113.369 263.519 112.936C263.771 112.502 263.897 111.972 263.897 111.346C263.897 110.741 263.771 110.221 263.519 109.787C263.266 109.353 262.918 109.005 262.474 108.743C262.02 108.48 261.495 108.289 260.9 108.167C260.305 108.036 259.664 107.971 258.978 107.971L258.66 107.971C257.994 107.971 257.368 108.036 256.783 108.167C256.187 108.289 255.663 108.485 255.208 108.758C254.744 109.02 254.381 109.368 254.119 109.802C253.856 110.236 253.725 110.761 253.725 111.376C253.725 111.992 253.856 112.517 254.119 112.951C254.381 113.375 254.744 113.723 255.208 113.995C255.663 114.257 256.187 114.449 256.783 114.57C257.368 114.691 257.994 114.752 258.66 114.752ZM262.474 92.062C262.161 92.062 261.879 92.1528 261.626 92.3345C261.374 92.5161 261.142 92.8542 260.93 93.3486C260.708 93.833 260.506 94.5343 260.325 95.4526C260.143 96.2801 259.916 97.0521 259.644 97.7686C259.361 98.4749 259.023 99.0905 258.629 99.6152C258.236 100.13 257.772 100.534 257.237 100.826C256.692 101.119 256.071 101.265 255.375 101.265C254.689 101.265 254.043 101.119 253.437 100.826C252.832 100.523 252.297 100.095 251.833 99.5396C251.359 98.9744 250.99 98.2882 250.728 97.481C250.456 96.6636 250.319 95.7453 250.319 94.7261C250.319 93.3032 250.546 92.0822 251 91.063C251.455 90.0337 252.08 89.2466 252.877 88.7017C253.665 88.1466 254.563 87.8691 255.572 87.8691L255.572 92.2285C255.148 92.2285 254.77 92.3193 254.437 92.501C254.093 92.6725 253.826 92.945 253.634 93.3184C253.432 93.6816 253.332 94.1559 253.332 94.7412C253.332 95.2256 253.417 95.6444 253.589 95.9976C253.75 96.3507 253.972 96.6232 254.255 96.8149C254.527 96.9966 254.83 97.0874 255.163 97.0874C255.415 97.0874 255.642 97.0369 255.844 96.936C256.036 96.825 256.213 96.6484 256.374 96.4062C256.535 96.1641 256.687 95.8512 256.828 95.4678C256.959 95.0742 257.08 94.5898 257.191 94.0146C257.434 92.834 257.751 91.7795 258.145 90.8511C258.528 89.9227 259.053 89.186 259.719 88.6411C260.375 88.0962 261.238 87.8237 262.308 87.8237C263.034 87.8237 263.7 87.9852 264.306 88.3081C264.911 88.631 265.441 89.0952 265.895 89.7007C266.339 90.3062 266.687 91.0327 266.939 91.8804C267.182 92.7179 267.303 93.6615 267.303 94.7109C267.303 96.2347 267.03 97.5264 266.485 98.5859C265.94 99.6354 265.249 100.433 264.412 100.978C263.564 101.512 262.696 101.78 261.808 101.78L261.808 97.6475C262.403 97.6273 262.883 97.4759 263.246 97.1934C263.609 96.9007 263.872 96.5324 264.033 96.0884C264.195 95.6343 264.275 95.1449 264.275 94.6201C264.275 94.055 264.2 93.5858 264.048 93.2124C263.887 92.839 263.675 92.5565 263.413 92.3647C263.14 92.1629 262.827 92.062 262.474 92.062ZM286.622 254.282L289.71 254.282L289.71 263.818L286.622 263.818L286.622 254.282ZM282.581 261.457L282.581 257.098L298.065 257.098C298.54 257.098 298.903 257.037 299.155 256.916C299.408 256.785 299.584 256.593 299.685 256.341C299.776 256.089 299.821 255.771 299.821 255.387C299.821 255.115 299.811 254.873 299.791 254.661C299.761 254.439 299.73 254.252 299.7 254.101L302.909 254.085C303.03 254.459 303.126 254.862 303.197 255.296C303.267 255.73 303.303 256.21 303.303 256.734C303.303 257.693 303.146 258.531 302.833 259.247C302.511 259.953 301.996 260.498 301.29 260.882C300.583 261.265 299.655 261.457 298.504 261.457L282.581 261.457ZM299.08 242.112L286.622 242.112L286.622 237.753L303 237.753L303 241.855L299.08 242.112ZM295.719 241.628L295.689 240.341C296.779 240.341 297.793 240.467 298.731 240.72C299.66 240.972 300.467 241.35 301.153 241.855C301.829 242.36 302.359 242.995 302.743 243.762C303.116 244.529 303.303 245.432 303.303 246.472C303.303 247.269 303.192 248.006 302.97 248.682C302.738 249.348 302.379 249.923 301.895 250.407C301.401 250.882 300.77 251.255 300.003 251.527C299.226 251.79 298.292 251.921 297.203 251.921L286.622 251.921L286.622 247.562L297.233 247.562C297.717 247.562 298.126 247.506 298.459 247.395C298.792 247.274 299.064 247.107 299.276 246.896C299.488 246.684 299.64 246.436 299.73 246.154C299.821 245.861 299.867 245.538 299.867 245.185C299.867 244.287 299.685 243.581 299.322 243.066C298.958 242.541 298.464 242.173 297.838 241.961C297.203 241.739 296.496 241.628 295.719 241.628ZM298.474 225.568C298.161 225.568 297.879 225.659 297.626 225.84C297.374 226.022 297.142 226.36 296.93 226.854C296.708 227.339 296.506 228.04 296.325 228.958C296.143 229.786 295.916 230.558 295.644 231.274C295.361 231.981 295.023 232.596 294.629 233.121C294.236 233.636 293.772 234.039 293.237 234.332C292.692 234.625 292.071 234.771 291.375 234.771C290.689 234.771 290.043 234.625 289.437 234.332C288.832 234.029 288.297 233.6 287.833 233.045C287.359 232.48 286.99 231.794 286.728 230.987C286.456 230.169 286.319 229.251 286.319 228.232C286.319 226.809 286.546 225.588 287 224.569C287.455 223.54 288.08 222.752 288.877 222.208C289.665 221.653 290.563 221.375 291.572 221.375L291.572 225.734C291.148 225.734 290.77 225.825 290.437 226.007C290.093 226.178 289.826 226.451 289.634 226.824C289.432 227.187 289.332 227.662 289.332 228.247C289.332 228.731 289.417 229.15 289.589 229.503C289.75 229.857 289.972 230.129 290.255 230.321C290.527 230.502 290.83 230.593 291.163 230.593C291.415 230.593 291.642 230.543 291.844 230.442C292.036 230.331 292.213 230.154 292.374 229.912C292.535 229.67 292.687 229.357 292.828 228.974C292.959 228.58 293.08 228.096 293.191 227.521C293.434 226.34 293.751 225.285 294.145 224.357C294.528 223.429 295.053 222.692 295.719 222.147C296.375 221.602 297.238 221.33 298.308 221.33C299.034 221.33 299.7 221.491 300.306 221.814C300.911 222.137 301.441 222.601 301.895 223.207C302.339 223.812 302.687 224.539 302.939 225.386C303.182 226.224 303.303 227.167 303.303 228.217C303.303 229.741 303.03 231.032 302.485 232.092C301.94 233.141 301.249 233.938 300.412 234.483C299.564 235.018 298.696 235.286 297.808 235.286L297.808 231.153C298.403 231.133 298.883 230.982 299.246 230.699C299.609 230.407 299.872 230.038 300.033 229.594C300.195 229.14 300.275 228.651 300.275 228.126C300.275 227.561 300.2 227.092 300.048 226.718C299.887 226.345 299.675 226.062 299.413 225.871C299.14 225.669 298.827 225.568 298.474 225.568ZM290.119 206.511L303 206.511L303 210.87L286.622 210.87L286.622 206.783L290.119 206.511ZM294.236 207.146L294.236 208.327C293.025 208.327 291.935 208.171 290.966 207.858C289.987 207.545 289.155 207.106 288.469 206.541C287.772 205.976 287.243 205.305 286.879 204.528C286.506 203.741 286.319 202.863 286.319 201.894C286.319 201.127 286.43 200.426 286.652 199.79C286.874 199.154 287.228 198.609 287.712 198.155C288.196 197.691 288.837 197.338 289.634 197.096C290.431 196.843 291.405 196.717 292.556 196.717L303 196.717L303 201.107L292.541 201.107C291.814 201.107 291.249 201.208 290.845 201.41C290.442 201.611 290.159 201.909 289.998 202.303C289.826 202.686 289.74 203.16 289.74 203.726C289.74 204.311 289.856 204.82 290.088 205.254C290.32 205.678 290.643 206.031 291.057 206.314C291.461 206.586 291.935 206.793 292.48 206.935C293.025 207.076 293.61 207.146 294.236 207.146ZM303.303 185.864C303.303 187.136 303.101 188.276 302.697 189.285C302.284 190.294 301.713 191.152 300.987 191.858C300.26 192.555 299.418 193.09 298.459 193.463C297.49 193.836 296.461 194.023 295.371 194.023L294.766 194.023C293.524 194.023 292.389 193.846 291.36 193.493C290.331 193.14 289.437 192.635 288.681 191.979C287.924 191.313 287.344 190.506 286.94 189.558C286.526 188.609 286.319 187.539 286.319 186.349C286.319 185.188 286.511 184.159 286.895 183.261C287.278 182.363 287.823 181.611 288.529 181.005C289.236 180.39 290.083 179.926 291.072 179.613C292.051 179.3 293.141 179.144 294.342 179.144L296.158 179.144L296.158 192.161L293.252 192.161L293.252 183.427L292.919 183.427C292.313 183.427 291.774 183.538 291.299 183.76C290.815 183.972 290.431 184.295 290.149 184.729C289.866 185.163 289.725 185.718 289.725 186.394C289.725 186.969 289.851 187.464 290.104 187.877C290.356 188.291 290.709 188.629 291.163 188.892C291.617 189.144 292.152 189.336 292.768 189.467C293.373 189.588 294.039 189.648 294.766 189.648L295.371 189.648C296.027 189.648 296.632 189.558 297.187 189.376C297.743 189.184 298.222 188.917 298.625 188.574C299.029 188.221 299.342 187.797 299.564 187.302C299.786 186.798 299.897 186.228 299.897 185.592C299.897 184.805 299.746 184.073 299.443 183.397C299.13 182.711 298.661 182.12 298.035 181.626L300.336 179.507C300.83 179.85 301.305 180.319 301.759 180.915C302.213 181.5 302.586 182.206 302.879 183.034C303.161 183.861 303.303 184.805 303.303 185.864ZM299.897 169.895C299.897 169.36 299.796 168.886 299.594 168.472C299.382 168.058 299.09 167.736 298.716 167.503C298.333 167.261 297.884 167.135 297.369 167.125L297.369 163.023C298.52 163.033 299.544 163.341 300.442 163.946C301.33 164.552 302.031 165.364 302.546 166.383C303.05 167.403 303.303 168.543 303.303 169.804C303.303 171.076 303.091 172.186 302.667 173.134C302.243 174.073 301.658 174.855 300.911 175.48C300.154 176.106 299.276 176.575 298.277 176.888C297.268 177.201 296.188 177.357 295.038 177.357L294.599 177.357C293.439 177.357 292.359 177.201 291.36 176.888C290.351 176.575 289.473 176.106 288.726 175.48C287.969 174.855 287.379 174.073 286.955 173.134C286.531 172.196 286.319 171.096 286.319 169.834C286.319 168.492 286.577 167.317 287.091 166.308C287.606 165.288 288.343 164.491 289.301 163.916C290.25 163.331 291.375 163.033 292.677 163.023L292.677 167.125C292.132 167.135 291.637 167.251 291.193 167.473C290.749 167.685 290.396 167.998 290.134 168.412C289.861 168.815 289.725 169.315 289.725 169.91C289.725 170.546 289.861 171.066 290.134 171.469C290.396 171.873 290.759 172.186 291.224 172.408C291.678 172.63 292.197 172.786 292.783 172.877C293.358 172.958 293.963 172.998 294.599 172.998L295.038 172.998C295.674 172.998 296.284 172.958 296.87 172.877C297.455 172.796 297.975 172.645 298.429 172.423C298.883 172.191 299.241 171.873 299.503 171.469C299.766 171.066 299.897 170.541 299.897 169.895ZM303.303 152.957C303.303 154.229 303.101 155.369 302.697 156.378C302.284 157.387 301.713 158.245 300.987 158.951C300.26 159.647 299.418 160.182 298.459 160.556C297.49 160.929 296.461 161.116 295.371 161.116L294.766 161.116C293.524 161.116 292.389 160.939 291.36 160.586C290.331 160.233 289.437 159.728 288.681 159.072C287.924 158.406 287.344 157.599 286.94 156.65C286.526 155.702 286.319 154.632 286.319 153.441C286.319 152.281 286.511 151.252 286.895 150.354C287.278 149.455 287.823 148.704 288.529 148.098C289.236 147.483 290.083 147.018 291.072 146.706C292.051 146.393 293.141 146.236 294.342 146.236L296.158 146.236L296.158 159.254L293.252 159.254L293.252 150.52L292.919 150.52C292.313 150.52 291.774 150.631 291.299 150.853C290.815 151.065 290.431 151.388 290.149 151.822C289.866 152.256 289.725 152.811 289.725 153.487C289.725 154.062 289.851 154.556 290.104 154.97C290.356 155.384 290.709 155.722 291.163 155.984C291.617 156.237 292.152 156.428 292.768 156.56C293.373 156.681 294.039 156.741 294.766 156.741L295.371 156.741C296.027 156.741 296.632 156.65 297.187 156.469C297.743 156.277 298.222 156.01 298.625 155.667C299.029 155.313 299.342 154.889 299.564 154.395C299.786 153.89 299.897 153.32 299.897 152.685C299.897 151.897 299.746 151.166 299.443 150.49C299.13 149.804 298.661 149.213 298.035 148.719L300.336 146.6C300.83 146.943 301.305 147.412 301.759 148.007C302.213 148.593 302.586 149.299 302.879 150.126C303.161 150.954 303.303 151.897 303.303 152.957ZM298.474 134.899C298.161 134.899 297.879 134.99 297.626 135.171C297.374 135.353 297.142 135.691 296.93 136.186C296.708 136.67 296.506 137.371 296.325 138.29C296.143 139.117 295.916 139.889 295.644 140.605C295.361 141.312 295.023 141.927 294.629 142.452C294.236 142.967 293.772 143.37 293.237 143.663C292.692 143.956 292.071 144.102 291.375 144.102C290.689 144.102 290.043 143.956 289.437 143.663C288.832 143.36 288.297 142.931 287.833 142.376C287.359 141.811 286.99 141.125 286.728 140.318C286.456 139.5 286.319 138.582 286.319 137.563C286.319 136.14 286.546 134.919 287 133.9C287.455 132.871 288.08 132.083 288.877 131.539C289.665 130.984 290.563 130.706 291.572 130.706L291.572 135.065C291.148 135.065 290.77 135.156 290.437 135.338C290.093 135.509 289.826 135.782 289.634 136.155C289.432 136.519 289.332 136.993 289.332 137.578C289.332 138.062 289.417 138.481 289.589 138.834C289.75 139.188 289.972 139.46 290.255 139.652C290.527 139.833 290.83 139.924 291.163 139.924C291.415 139.924 291.642 139.874 291.844 139.773C292.036 139.662 292.213 139.485 292.374 139.243C292.535 139.001 292.687 138.688 292.828 138.305C292.959 137.911 293.08 137.427 293.191 136.852C293.434 135.671 293.751 134.616 294.145 133.688C294.528 132.76 295.053 132.023 295.719 131.478C296.375 130.933 297.238 130.661 298.308 130.661C299.034 130.661 299.7 130.822 300.306 131.145C300.911 131.468 301.441 131.932 301.895 132.538C302.339 133.143 302.687 133.87 302.939 134.717C303.182 135.555 303.303 136.498 303.303 137.548C303.303 139.072 303.03 140.363 302.485 141.423C301.94 142.472 301.249 143.27 300.412 143.814C299.564 144.349 298.696 144.617 297.808 144.617L297.808 140.484C298.403 140.464 298.883 140.313 299.246 140.03C299.609 139.738 299.872 139.369 300.033 138.925C300.195 138.471 300.275 137.982 300.275 137.457C300.275 136.892 300.2 136.423 300.048 136.049C299.887 135.676 299.675 135.393 299.413 135.202C299.14 135 298.827 134.899 298.474 134.899ZM286.622 123.229L303 123.229L303 127.603L286.622 127.603L286.622 123.229ZM282.354 127.875C281.718 127.875 281.193 127.653 280.779 127.209C280.366 126.765 280.159 126.17 280.159 125.423C280.159 124.687 280.366 124.096 280.779 123.652C281.193 123.198 281.718 122.971 282.354 122.971C282.989 122.971 283.514 123.198 283.928 123.652C284.341 124.096 284.548 124.687 284.548 125.423C284.548 126.17 284.341 126.765 283.928 127.209C283.514 127.653 282.989 127.875 282.354 127.875ZM299.428 109.954L279.75 109.954L279.75 105.564L303 105.564L303 109.515L299.428 109.954ZM295.008 120.307L294.69 120.307C293.439 120.307 292.303 120.166 291.284 119.883C290.255 119.601 289.372 119.187 288.635 118.642C287.899 118.097 287.328 117.426 286.925 116.629C286.521 115.832 286.319 114.924 286.319 113.904C286.319 112.946 286.521 112.108 286.925 111.392C287.328 110.665 287.904 110.049 288.65 109.545C289.387 109.03 290.26 108.617 291.269 108.304C292.268 107.991 293.363 107.764 294.554 107.623L295.25 107.623C296.39 107.764 297.45 107.991 298.429 108.304C299.408 108.617 300.265 109.03 301.002 109.545C301.729 110.049 302.294 110.665 302.697 111.392C303.101 112.118 303.303 112.966 303.303 113.935C303.303 114.954 303.096 115.862 302.682 116.659C302.268 117.446 301.688 118.112 300.941 118.657C300.195 119.192 299.317 119.601 298.308 119.883C297.298 120.166 296.199 120.307 295.008 120.307ZM294.69 115.948L295.008 115.948C295.684 115.948 296.315 115.897 296.9 115.796C297.485 115.685 298.005 115.509 298.459 115.267C298.903 115.014 299.251 114.691 299.503 114.298C299.746 113.894 299.867 113.405 299.867 112.83C299.867 112.083 299.7 111.467 299.367 110.983C299.024 110.499 298.555 110.13 297.959 109.878C297.364 109.616 296.678 109.464 295.901 109.424L293.918 109.424C293.282 109.454 292.712 109.545 292.208 109.696C291.693 109.838 291.254 110.049 290.891 110.332C290.527 110.604 290.245 110.948 290.043 111.361C289.841 111.765 289.74 112.244 289.74 112.799C289.74 113.364 289.871 113.849 290.134 114.252C290.386 114.656 290.734 114.984 291.178 115.236C291.622 115.479 292.147 115.66 292.752 115.781C293.348 115.892 293.994 115.948 294.69 115.948ZM299.307 93.3184L292.011 93.3184C291.486 93.3184 291.037 93.4041 290.664 93.5757C290.28 93.7472 289.982 94.0146 289.771 94.3779C289.559 94.7311 289.453 95.1903 289.453 95.7554C289.453 96.2397 289.538 96.6585 289.71 97.0117C289.871 97.3649 290.109 97.6374 290.421 97.8291C290.724 98.0208 291.082 98.1167 291.496 98.1167L291.496 102.476C290.8 102.476 290.139 102.315 289.513 101.992C288.888 101.669 288.338 101.2 287.863 100.584C287.379 99.9684 287 99.2368 286.728 98.3892C286.456 97.5314 286.319 96.5728 286.319 95.5132C286.319 94.2417 286.531 93.1115 286.955 92.1226C287.379 91.1336 288.015 90.3566 288.862 89.7915C289.71 89.2163 290.77 88.9287 292.041 88.9287L299.049 88.9287C299.947 88.9287 300.684 88.8732 301.259 88.7622C301.824 88.6512 302.319 88.4897 302.743 88.2778L303 88.2778L303 92.6826C302.556 92.8945 302.001 93.056 301.335 93.167C300.659 93.2679 299.983 93.3184 299.307 93.3184ZM293.025 92.7432L295.492 92.7129L295.492 95.1499C295.492 95.7251 295.558 96.2246 295.689 96.6484C295.82 97.0723 296.007 97.4204 296.249 97.6929C296.481 97.9653 296.754 98.1672 297.066 98.2983C297.379 98.4194 297.722 98.48 298.096 98.48C298.469 98.48 298.807 98.3942 299.11 98.2227C299.402 98.0511 299.635 97.8039 299.806 97.481C299.968 97.158 300.048 96.7796 300.048 96.3457C300.048 95.6898 299.917 95.1196 299.655 94.6353C299.392 94.1509 299.069 93.7775 298.686 93.5151C298.303 93.2427 297.939 93.1014 297.596 93.0913L299.443 91.9409C299.857 92.1024 300.285 92.3244 300.729 92.6069C301.173 92.8794 301.592 93.2275 301.986 93.6514C302.369 94.0752 302.687 94.5848 302.939 95.1802C303.182 95.7756 303.303 96.4819 303.303 97.2993C303.303 98.3387 303.096 99.2822 302.682 100.13C302.258 100.967 301.678 101.633 300.941 102.128C300.195 102.612 299.347 102.854 298.398 102.854C297.541 102.854 296.779 102.693 296.113 102.37C295.447 102.047 294.887 101.573 294.433 100.947C293.968 100.312 293.62 99.5194 293.388 98.5708C293.146 97.6222 293.025 96.5223 293.025 95.271L293.025 92.7432ZM299.428 75.896L279.75 75.896L279.75 71.5063L303 71.5063L303 75.457L299.428 75.896ZM295.008 86.2495L294.69 86.2495C293.439 86.2495 292.303 86.1082 291.284 85.8257C290.255 85.5431 289.372 85.1294 288.635 84.5845C287.899 84.0395 287.328 83.3685 286.925 82.5713C286.521 81.7741 286.319 80.8659 286.319 79.8467C286.319 78.888 286.521 78.0505 286.925 77.334C287.328 76.6074 287.904 75.9919 288.65 75.4873C289.387 74.9727 290.26 74.5589 291.269 74.2461C292.268 73.9333 293.363 73.7062 294.554 73.5649L295.25 73.5649C296.39 73.7062 297.45 73.9333 298.429 74.2461C299.408 74.5589 300.265 74.9727 301.002 75.4873C301.729 75.9919 302.294 76.6074 302.697 77.334C303.101 78.0605 303.303 78.9082 303.303 79.877C303.303 80.8962 303.096 81.8044 302.682 82.6016C302.268 83.3887 301.688 84.0547 300.941 84.5996C300.195 85.1344 299.317 85.5431 298.308 85.8257C297.298 86.1082 296.199 86.2495 295.008 86.2495ZM294.69 81.8901L295.008 81.8901C295.684 81.8901 296.315 81.8397 296.9 81.7388C297.485 81.6278 298.005 81.4512 298.459 81.209C298.903 80.9567 299.251 80.6338 299.503 80.2402C299.746 79.8366 299.867 79.3472 299.867 78.772C299.867 78.0252 299.7 77.4097 299.367 76.9253C299.024 76.4409 298.555 76.0726 297.959 75.8203C297.364 75.5579 296.678 75.4066 295.901 75.3662L293.918 75.3662C293.282 75.3965 292.712 75.4873 292.208 75.6387C291.693 75.7799 291.254 75.9919 290.891 76.2744C290.527 76.5469 290.245 76.89 290.043 77.3037C289.841 77.7074 289.74 78.1867 289.74 78.7417C289.74 79.3068 289.871 79.7912 290.134 80.1948C290.386 80.5985 290.734 80.9264 291.178 81.1787C291.622 81.4209 292.147 81.6025 292.752 81.7236C293.348 81.8346 293.994 81.8901 294.69 81.8901ZM303.303 60.5625C303.303 61.834 303.101 62.9743 302.697 63.9834C302.284 64.9925 301.713 65.8503 300.987 66.5566C300.26 67.2529 299.418 67.7878 298.459 68.1611C297.49 68.5345 296.461 68.7212 295.371 68.7212L294.766 68.7212C293.524 68.7212 292.389 68.5446 291.36 68.1914C290.331 67.8382 289.437 67.3337 288.681 66.6777C287.924 66.0117 287.344 65.2044 286.94 64.2559C286.526 63.3073 286.319 62.2376 286.319 61.0469C286.319 59.8864 286.511 58.8571 286.895 57.959C287.278 57.0609 287.823 56.3091 288.529 55.7036C289.236 55.0881 290.083 54.6239 291.072 54.311C292.051 53.9982 293.141 53.8418 294.342 53.8418L296.158 53.8418L296.158 66.8594L293.252 66.8594L293.252 58.1255L292.919 58.1255C292.313 58.1255 291.774 58.2365 291.299 58.4585C290.815 58.6704 290.431 58.9933 290.149 59.4272C289.866 59.8612 289.725 60.4162 289.725 61.0923C289.725 61.6675 289.851 62.1619 290.104 62.5757C290.356 62.9894 290.709 63.3275 291.163 63.5898C291.617 63.8421 292.152 64.0339 292.768 64.165C293.373 64.2861 294.039 64.3467 294.766 64.3467L295.371 64.3467C296.027 64.3467 296.632 64.2559 297.187 64.0742C297.743 63.8825 298.222 63.6151 298.625 63.272C299.029 62.9188 299.342 62.495 299.564 62.0005C299.786 61.4959 299.897 60.9258 299.897 60.29C299.897 59.5029 299.746 58.7713 299.443 58.0952C299.13 57.409 298.661 56.8187 298.035 56.3242L300.336 54.2051C300.83 54.5482 301.305 55.0174 301.759 55.6128C302.213 56.1981 302.586 56.9045 302.879 57.7319C303.161 58.5594 303.303 59.5029 303.303 60.5625ZM298.474 42.5044C298.161 42.5044 297.879 42.5952 297.626 42.7769C297.374 42.9585 297.142 43.2965 296.93 43.791C296.708 44.2754 296.506 44.9767 296.325 45.895C296.143 46.7225 295.916 47.4945 295.644 48.2109C295.361 48.9173 295.023 49.5329 294.629 50.0576C294.236 50.5723 293.772 50.9759 293.237 51.2686C292.692 51.5612 292.071 51.7075 291.375 51.7075C290.689 51.7075 290.043 51.5612 289.437 51.2686C288.832 50.9658 288.297 50.5369 287.833 49.9819C287.359 49.4168 286.99 48.7306 286.728 47.9233C286.456 47.106 286.319 46.1877 286.319 45.1685C286.319 43.7456 286.546 42.5246 287 41.5054C287.455 40.4761 288.08 39.689 288.877 39.144C289.665 38.589 290.563 38.3115 291.572 38.3115L291.572 42.6709C291.148 42.6709 290.77 42.7617 290.437 42.9434C290.093 43.1149 289.826 43.3874 289.634 43.7607C289.432 44.124 289.332 44.5983 289.332 45.1836C289.332 45.668 289.417 46.0867 289.589 46.4399C289.75 46.7931 289.972 47.0656 290.255 47.2573C290.527 47.439 290.83 47.5298 291.163 47.5298C291.415 47.5298 291.642 47.4793 291.844 47.3784C292.036 47.2674 292.213 47.0908 292.374 46.8486C292.535 46.6064 292.687 46.2936 292.828 45.9102C292.959 45.5166 293.08 45.0322 293.191 44.457C293.434 43.2764 293.751 42.2218 294.145 41.2935C294.528 40.3651 295.053 39.6284 295.719 39.0835C296.375 38.5386 297.238 38.2661 298.308 38.2661C299.034 38.2661 299.7 38.4276 300.306 38.7505C300.911 39.0734 301.441 39.5376 301.895 40.1431C302.339 40.7485 302.687 41.4751 302.939 42.3228C303.182 43.1603 303.303 44.1038 303.303 45.1533C303.303 46.6771 303.03 47.9687 302.485 49.0283C301.94 50.0778 301.249 50.875 300.412 51.4199C299.564 51.9547 298.696 52.2222 297.808 52.2222L297.808 48.0898C298.403 48.0697 298.883 47.9183 299.246 47.6357C299.609 47.3431 299.872 46.9748 300.033 46.5308C300.195 46.0767 300.275 45.5872 300.275 45.0625C300.275 44.4974 300.2 44.0282 300.048 43.6548C299.887 43.2814 299.675 42.9989 299.413 42.8071C299.14 42.6053 298.827 42.5044 298.474 42.5044Z" fill="#9665FD" fill-opacity="0.8"/>
<defs>
<linearGradient id="paint0_linear_1096_104" x1="86.4911" y1="267.145" x2="366.136" y2="55.773" gradientUnits="userSpaceOnUse">
<stop offset="0.41" stop-color="#E0E0E0"/>
<stop offset="0.61" stop-color="white"/>
</linearGradient>
</defs>
</svg>
