<svg width="500" height="465" viewBox="0 0 500 465" fill="none" xmlns="http://www.w3.org/2000/svg">
<path d="M29.6819 97.4235H31.1863C37.0026 97.4235 41.7133 92.6245 41.7133 86.7146C41.7133 80.8046 37.0026 76.0057 31.1863 76.0057H29.6819C23.8689 76.0057 19.1549 80.8046 19.1549 86.7146C19.1549 92.6245 23.8689 97.4235 29.6819 97.4235Z" fill="#9665FD" fill-opacity="0.8"/>
<path d="M111.905 75.9857H62.0202V76.0158C59.3095 76.1918 56.769 77.3972 54.9199 79.3848C53.0708 81.3724 52.0533 83.9914 52.0761 86.7046C52.0761 92.4238 56.4786 97.0788 62.0202 97.3933V97.4235H91.1688C96.9818 97.4235 101.696 102.222 101.696 108.132C101.696 114.042 96.9818 118.841 91.1688 118.841H22.4852C16.6689 118.841 11.9548 123.64 11.9548 129.55C11.9548 129.901 11.9749 130.249 12.0084 130.591C12.0084 130.708 12.0386 130.818 12.0553 130.925C12.0821 131.15 12.1123 131.374 12.1525 131.595C12.1793 131.732 12.2128 131.866 12.2463 132C12.2899 132.19 12.3334 132.385 12.3904 132.572C12.4473 132.759 12.4775 132.856 12.5244 132.997C12.5713 133.137 12.6417 133.332 12.7087 133.506C12.7757 133.68 12.8259 133.797 12.8896 133.941C12.9533 134.085 13.0303 134.242 13.1007 134.389C13.171 134.536 13.2548 134.69 13.3352 134.834C13.4156 134.978 13.486 135.089 13.563 135.216C13.6401 135.343 13.754 135.527 13.8579 135.674C13.9617 135.821 13.9986 135.868 14.0689 135.965C14.1929 136.133 14.3135 136.3 14.4475 136.461L14.538 136.561C15.2948 137.446 16.1911 138.203 17.1915 138.8L17.2317 138.823C17.473 138.964 17.7243 139.098 17.9789 139.218L18.0593 139.258C18.3106 139.379 18.5686 139.486 18.8299 139.593L18.917 139.623C19.185 139.72 19.4564 139.81 19.7312 139.884L19.7982 139.904C20.083 139.978 20.3744 140.045 20.6693 140.098H63.1057C68.9187 140.098 73.6327 144.897 73.6327 150.807C73.6327 156.717 68.9187 161.516 63.1057 161.516H51.3524C50.8378 161.632 50.3327 161.786 49.8414 161.978L49.6102 162.065C49.4226 162.142 49.2417 162.229 49.0641 162.319L48.729 162.473C48.5615 162.563 48.394 162.657 48.2399 162.754C48.0858 162.851 48.0154 162.888 47.9048 162.962C47.7943 163.035 47.6033 163.162 47.4559 163.27L47.1208 163.517C46.9835 163.628 46.8461 163.738 46.7121 163.852C46.5781 163.966 46.4977 164.049 46.377 164.15C46.2564 164.25 46.1325 164.381 46.0152 164.484C45.8979 164.588 45.7941 164.732 45.6802 164.859C45.5662 164.986 45.4791 165.08 45.3853 165.194C45.1943 165.431 45.0134 165.679 44.8426 165.933C44.7722 166.037 44.7085 166.151 44.6415 166.268C44.5377 166.435 44.4372 166.603 44.34 166.773C44.2428 166.944 44.216 167.018 44.1557 167.141C44.0954 167.265 43.9882 167.476 43.9111 167.653C43.8341 167.831 43.8073 167.911 43.757 168.042C43.7068 168.172 43.6196 168.4 43.5593 168.584C43.5191 168.714 43.4756 168.845 43.4387 168.979C43.3818 169.169 43.3349 169.367 43.2913 169.564C43.2612 169.692 43.231 169.819 43.2075 169.949C43.164 170.17 43.1338 170.394 43.107 170.619C43.107 170.729 43.0735 170.839 43.0635 170.953C43.03 171.288 43.0099 171.622 43.0099 171.981C43.0099 172.339 43.03 172.69 43.0635 173.038C43.0635 173.155 43.097 173.272 43.1104 173.373C43.1405 173.597 43.1707 173.824 43.2142 174.042C43.2411 174.183 43.2779 174.32 43.3081 174.457C43.355 174.648 43.3985 174.842 43.4555 175.029C43.5124 175.217 43.5493 175.324 43.5995 175.471C43.6498 175.618 43.7168 175.806 43.7805 175.973C43.8441 176.14 43.9078 176.277 43.9781 176.428C44.0485 176.579 44.1122 176.726 44.1892 176.873C44.2663 177.02 44.35 177.181 44.4371 177.332C44.5243 177.482 44.5879 177.589 44.6683 177.716C44.7487 177.844 44.8694 178.028 44.9732 178.182L45.2111 178.516C45.3317 178.674 45.4557 178.831 45.583 178.981C45.6567 179.068 45.7338 179.152 45.8108 179.236C45.9582 179.396 46.1057 179.57 46.2598 179.708L46.4508 179.885C46.6283 180.049 46.8092 180.22 46.9969 180.367L47.1007 180.444C48.5758 181.611 50.3407 182.356 52.2068 182.599H98.198C104.011 182.599 108.725 187.398 108.725 193.308C108.725 199.218 104.011 204.017 98.198 204.017H24.2442C23.4312 204.198 22.6435 204.477 21.8989 204.85L21.6677 204.964C21.4834 205.061 21.3025 205.168 21.1249 205.275C21.0311 205.332 20.9407 205.385 20.8502 205.446C20.6827 205.553 20.5152 205.667 20.361 205.78L20.0762 205.998C19.9288 206.115 19.7781 206.236 19.6373 206.359L19.3559 206.62C19.2219 206.748 19.0879 206.875 18.9606 207.005C18.8332 207.136 18.7729 207.213 18.6791 207.32C18.5853 207.427 18.4446 207.577 18.3441 207.715C18.1565 207.946 17.9789 208.19 17.8114 208.438C17.7343 208.551 17.6706 208.668 17.5969 208.772C17.5232 208.876 17.3993 209.107 17.3088 209.254C17.2183 209.401 17.1815 209.505 17.1178 209.632C17.0542 209.759 16.9537 209.967 16.8799 210.138C16.8062 210.308 16.7727 210.395 16.7225 210.529C16.6722 210.663 16.5885 210.884 16.5282 211.065C16.4678 211.245 16.4444 211.329 16.4075 211.463C16.3506 211.654 16.3037 211.851 16.2601 212.045C16.23 212.176 16.1998 212.303 16.173 212.433C16.1328 212.651 16.1027 212.875 16.0758 213.103C16.0758 213.216 16.0423 213.323 16.0323 213.437C15.9988 213.772 15.9787 214.107 15.9787 214.465C15.9787 220.385 20.6927 225.173 26.5091 225.173H62.0235V225.368H73.1301C78.9431 225.368 83.6572 230.17 83.6572 236.076C83.6572 241.983 78.9431 246.785 73.1301 246.785H47.868C47.5564 246.839 47.2482 246.902 46.9466 246.983C44.8971 247.525 43.0599 248.674 41.6764 250.279L41.5658 250.403C41.4251 250.57 41.2978 250.738 41.1671 250.918C41.1001 251.009 41.0331 251.096 40.9695 251.189C40.8589 251.347 40.7584 251.524 40.6579 251.671C40.5574 251.818 40.5105 251.909 40.4434 252.033C40.3764 252.156 40.2759 252.34 40.1955 252.498C40.1151 252.655 40.0581 252.782 39.9911 252.929C39.9241 253.077 39.8605 253.227 39.8002 253.381C39.7399 253.535 39.6796 253.716 39.6226 253.877C39.5656 254.037 39.5254 254.168 39.4819 254.315C39.4383 254.462 39.3847 254.69 39.3378 254.881C39.3077 255.018 39.2742 255.152 39.2473 255.292C39.2038 255.51 39.1736 255.734 39.1468 255.961C39.1468 256.075 39.11 256.192 39.0999 256.296C39.0664 256.631 39.0463 256.985 39.0463 257.34C39.0463 257.695 39.0664 258.009 39.0966 258.344C39.0966 258.455 39.1234 258.562 39.1368 258.679C39.1669 258.903 39.1971 259.124 39.2373 259.348C39.2607 259.472 39.2876 259.596 39.3144 259.72C39.3579 259.917 39.4082 260.114 39.4651 260.309C39.4986 260.436 39.5355 260.56 39.5757 260.683C39.636 260.874 39.7064 261.062 39.7767 261.249C39.8236 261.366 39.8638 261.483 39.9141 261.584C40.0079 261.804 40.1151 262.022 40.2223 262.253C40.3295 262.484 40.4099 262.588 40.5105 262.778C40.611 262.969 40.6813 263.076 40.7751 263.22C40.869 263.364 40.9695 263.504 41.0733 263.648C41.1772 263.792 41.2241 263.859 41.3045 263.963C41.3849 264.067 41.539 264.257 41.663 264.401C41.7334 264.485 41.8071 264.565 41.8808 264.646C42.0215 264.796 42.1622 264.947 42.3063 265.087L42.4671 265.238C43.2389 265.957 44.1141 266.558 45.0637 267.018L45.1541 267.062C45.3853 267.172 45.6198 267.273 45.8611 267.363L45.9649 267.403C46.2129 267.497 46.4642 267.581 46.7221 267.654C47.6496 267.924 48.6106 268.063 49.5767 268.066H114.206C115.172 268.063 116.133 267.924 117.061 267.654H295.906V75.9857H111.905ZM96.6936 161.566H95.1893C89.373 161.566 84.6623 156.767 84.6623 150.857C84.6623 144.947 89.373 140.148 95.1893 140.148H96.6936C102.507 140.148 107.221 144.947 107.221 150.857C107.221 156.767 102.507 161.566 96.6936 161.566Z" fill="#9665FD" fill-opacity="0.8"/>
<g style="mix-blend-mode:multiply">
<path d="M196.985 99.3143H72.976C32.7098 99.3143 0.0675659 131.919 0.0675659 172.138V391.757C0.0675659 431.976 32.7098 464.58 72.976 464.58H196.985C237.251 464.58 269.894 431.976 269.894 391.757V172.138C269.894 131.919 237.251 99.3143 196.985 99.3143Z" fill="white"/>
<path d="M202.51 96.1786H75.1538C36.1014 96.1786 4.44318 127.8 4.44318 166.807V389.397C4.44318 428.404 36.1014 460.025 75.1538 460.025H202.51C241.562 460.025 273.221 428.404 273.221 389.397V166.807C273.221 127.8 241.562 96.1786 202.51 96.1786Z" fill="#FEFEFE"/>
<path d="M208.035 93.0462H77.3316C39.493 93.0462 8.81885 123.685 8.81885 161.479V387.041C8.81885 424.836 39.493 455.474 77.3316 455.474H208.035C245.873 455.474 276.548 424.836 276.548 387.041V161.479C276.548 123.685 245.873 93.0462 208.035 93.0462Z" fill="#FDFCFC"/>
<path d="M213.563 89.9105H79.5093C42.8846 89.9105 13.1945 119.566 13.1945 156.148V384.682C13.1945 421.264 42.8846 450.92 79.5093 450.92H213.563C250.188 450.92 279.878 421.264 279.878 384.682V156.148C279.878 119.566 250.188 89.9105 213.563 89.9105Z" fill="#FBFBFB"/>
<path d="M219.088 86.7782H81.6872C46.2763 86.7782 17.5702 115.451 17.5702 150.821V382.326C17.5702 417.696 46.2763 446.368 81.6872 446.368H219.088C254.499 446.368 283.205 417.696 283.205 382.326V150.821C283.205 115.451 254.499 86.7782 219.088 86.7782Z" fill="#FAFAFA"/>
<path d="M224.613 83.6425H83.8648C49.6679 83.6425 21.9457 111.332 21.9457 145.49V379.97C21.9457 414.127 49.6679 441.817 83.8648 441.817H224.613C258.81 441.817 286.532 414.127 286.532 379.97V145.49C286.532 111.332 258.81 83.6425 224.613 83.6425Z" fill="#F9F9F9"/>
<path d="M230.138 80.5068H86.0461C53.0611 80.5068 26.3215 107.215 26.3215 140.162V377.607C26.3215 410.554 53.0611 437.262 86.0461 437.262H230.138C263.123 437.262 289.862 410.554 289.862 377.607V140.162C289.862 107.215 263.123 80.5068 230.138 80.5068Z" fill="#F8F7F7"/>
<path d="M235.662 77.3745H88.2238C56.4527 77.3745 30.6971 103.1 30.6971 134.834V375.251C30.6971 406.986 56.4527 432.711 88.2238 432.711H235.662C267.434 432.711 293.189 406.986 293.189 375.251V134.834C293.189 103.1 267.434 77.3745 235.662 77.3745Z" fill="#F7F6F6"/>
<path d="M241.187 74.2388H90.4016C59.8443 74.2388 35.0728 98.9815 35.0728 129.503V372.892C35.0728 403.414 59.8443 428.157 90.4016 428.157H241.187C271.744 428.157 296.516 403.414 296.516 372.892V129.503C296.516 98.9815 271.744 74.2388 241.187 74.2388Z" fill="#F5F5F5"/>
<path d="M246.712 71.1064H92.5793C63.2359 71.1064 39.4484 94.8663 39.4484 124.176V370.536C39.4484 399.845 63.2359 423.605 92.5793 423.605H246.712C276.055 423.605 299.843 399.845 299.843 370.536V124.176C299.843 94.8663 276.055 71.1064 246.712 71.1064Z" fill="#F4F3F3"/>
<path d="M252.244 67.9708H94.7605C66.6309 67.9708 43.8274 90.7477 43.8274 118.845V368.18C43.8274 396.277 66.6309 419.054 94.7605 419.054H252.244C280.373 419.054 303.177 396.277 303.177 368.18V118.845C303.177 90.7477 280.373 67.9708 252.244 67.9708Z" fill="#F3F2F2"/>
<path d="M257.768 64.8351H96.9383C70.0226 64.8351 48.2031 86.6292 48.2031 113.514V365.821C48.2031 392.705 70.0226 414.499 96.9383 414.499H257.768C284.684 414.499 306.504 392.705 306.504 365.821V113.514C306.504 86.6292 284.684 64.8351 257.768 64.8351Z" fill="#F2F1F1"/>
<path d="M263.29 61.7027H99.1193C73.4156 61.7027 52.5787 82.5154 52.5787 108.189V363.462C52.5787 389.135 73.4156 409.948 99.1193 409.948H263.29C288.994 409.948 309.831 389.135 309.831 363.462V108.189C309.831 82.5154 288.994 61.7027 263.29 61.7027Z" fill="#F1F0F0"/>
<path d="M268.818 58.567H101.297C76.8073 58.567 56.9543 78.3969 56.9543 102.858V361.102C56.9543 385.564 76.8073 405.394 101.297 405.394H268.818C293.308 405.394 313.161 385.564 313.161 361.102V102.858C313.161 78.3969 293.308 58.567 268.818 58.567Z" fill="#F0EEEE"/>
<path d="M274.343 55.4347H103.475C80.1989 55.4347 61.33 74.2817 61.33 97.5306V358.746C61.33 381.995 80.1989 400.842 103.475 400.842H274.343C297.619 400.842 316.488 381.995 316.488 358.746V97.5306C316.488 74.2817 297.619 55.4347 274.343 55.4347Z" fill="#EEEDED"/>
<path d="M279.868 52.299H105.653C83.5906 52.299 65.7057 70.1631 65.7057 92.1996V356.39C65.7057 378.427 83.5906 396.291 105.653 396.291H279.868C301.93 396.291 319.815 378.427 319.815 356.39V92.1996C319.815 70.1631 301.93 52.299 279.868 52.299Z" fill="#EDECEC"/>
<path d="M285.393 49.1633H107.83C86.9821 49.1633 70.0812 66.0445 70.0812 86.8686V354.031C70.0812 374.855 86.9821 391.736 107.83 391.736H285.393C306.241 391.736 323.142 374.855 323.142 354.031V86.8686C323.142 66.0445 306.241 49.1633 285.393 49.1633Z" fill="#ECEAEA"/>
<path d="M290.921 46.031H110.008C90.3738 46.031 74.457 61.9293 74.457 81.5409V351.675C74.457 371.287 90.3738 387.185 110.008 387.185H290.921C310.555 387.185 326.472 371.287 326.472 351.675V81.5409C326.472 61.9293 310.555 46.031 290.921 46.031Z" fill="#EBE9E9"/>
<path d="M296.442 42.8953H112.189C93.7669 42.8953 78.8326 57.8122 78.8326 76.2132V349.313C78.8326 367.714 93.7669 382.631 112.189 382.631H296.442C314.865 382.631 329.799 367.714 329.799 349.313V76.2132C329.799 57.8122 314.865 42.8953 296.442 42.8953Z" fill="#EAE8E8"/>
<path d="M301.967 39.763H114.367C97.1585 39.763 83.2081 53.697 83.2081 70.8856V346.957C83.2081 364.145 97.1585 378.079 114.367 378.079H301.967C319.176 378.079 333.126 364.145 333.126 346.957V70.8856C333.126 53.697 319.176 39.763 301.967 39.763Z" fill="#E8E7E7"/>
<path d="M307.495 36.6273H116.545C100.55 36.6273 87.5839 49.5785 87.5839 65.5546V344.601C87.5839 360.577 100.55 373.528 116.545 373.528H307.495C323.49 373.528 336.456 360.577 336.456 344.601V65.5546C336.456 49.5785 323.49 36.6273 307.495 36.6273Z" fill="#E7E5E5"/>
<path d="M313.024 33.4916H118.726C103.945 33.4916 91.9629 45.4599 91.9629 60.2236V342.241C91.9629 357.005 103.945 368.973 118.726 368.973H313.024C327.804 368.973 339.787 357.005 339.787 342.241V60.2236C339.787 45.4599 327.804 33.4916 313.024 33.4916Z" fill="#E6E4E4"/>
<path d="M313.764 32.7721H119.467C104.686 32.7721 92.7034 44.7404 92.7034 59.5041V341.522C92.7034 356.286 104.686 368.254 119.467 368.254H313.764C328.545 368.254 340.527 356.286 340.527 341.522V59.5041C340.527 44.7404 328.545 32.7721 313.764 32.7721Z" fill="#E5E3E3"/>
<path d="M314.508 32.0526H120.21C105.429 32.0526 93.4471 44.0209 93.4471 58.7846V340.802C93.4471 355.566 105.429 367.534 120.21 367.534H314.508C329.289 367.534 341.271 355.566 341.271 340.802V58.7846C341.271 44.0209 329.289 32.0526 314.508 32.0526Z" fill="#E5E3E3"/>
<path d="M315.252 31.3331H120.954C106.173 31.3331 94.1909 43.3014 94.1909 58.0651V340.083C94.1909 354.847 106.173 366.815 120.954 366.815H315.252C330.032 366.815 342.015 354.847 342.015 340.083V58.0651C342.015 43.3014 330.032 31.3331 315.252 31.3331Z" fill="#E4E2E2"/>
<path d="M315.992 30.6136H121.694C106.914 30.6136 94.9313 42.5819 94.9313 57.3456V339.363C94.9313 354.127 106.914 366.095 121.694 366.095H315.992C330.773 366.095 342.755 354.127 342.755 339.363V57.3456C342.755 42.5819 330.773 30.6136 315.992 30.6136Z" fill="#E4E2E2"/>
<path d="M316.736 29.8907H122.438C107.657 29.8907 95.6751 41.8591 95.6751 56.6227V338.641C95.6751 353.404 107.657 365.373 122.438 365.373H316.736C331.517 365.373 343.499 353.404 343.499 338.641V56.6227C343.499 41.8591 331.517 29.8907 316.736 29.8907Z" fill="#E3E1E1"/>
<path d="M317.48 29.1712H123.182C108.401 29.1712 96.4189 41.1396 96.4189 55.9032V337.921C96.4189 352.685 108.401 364.653 123.182 364.653H317.48C332.261 364.653 344.243 352.685 344.243 337.921V55.9032C344.243 41.1396 332.261 29.1712 317.48 29.1712Z" fill="#E3E0E0"/>
<path d="M318.22 28.4517H123.923C109.142 28.4517 97.1594 40.42 97.1594 55.1837V337.202C97.1594 351.965 109.142 363.934 123.923 363.934H318.22C333.001 363.934 344.983 351.965 344.983 337.202V55.1837C344.983 40.42 333.001 28.4517 318.22 28.4517Z" fill="#E2E0E0"/>
<path d="M318.964 27.7322H124.666C109.885 27.7322 97.9032 39.7005 97.9032 54.4642V336.482C97.9032 351.246 109.885 363.214 124.666 363.214H318.964C333.745 363.214 345.727 351.246 345.727 336.482V54.4642C345.727 39.7005 333.745 27.7322 318.964 27.7322Z" fill="#E2DFDF"/>
<path d="M319.708 27.0094H125.41C110.629 27.0094 98.647 38.9777 98.647 53.7414V335.759C98.647 350.523 110.629 362.491 125.41 362.491H319.708C334.489 362.491 346.471 350.523 346.471 335.759V53.7414C346.471 38.9777 334.489 27.0094 319.708 27.0094Z" fill="#E1DEDE"/>
<path d="M320.448 26.2899H126.151C111.37 26.2899 99.3874 38.2582 99.3874 53.0219V335.04C99.3874 349.803 111.37 361.772 126.151 361.772H320.448C335.229 361.772 347.211 349.803 347.211 335.04V53.0219C347.211 38.2582 335.229 26.2899 320.448 26.2899Z" fill="#E1DEDE"/>
<path d="M321.192 25.5704H126.894C112.113 25.5704 100.131 37.5387 100.131 52.3024V334.32C100.131 349.084 112.113 361.052 126.894 361.052H321.192C335.973 361.052 347.955 349.084 347.955 334.32V52.3024C347.955 37.5387 335.973 25.5704 321.192 25.5704Z" fill="#E0DDDD"/>
<path d="M321.936 24.8509H127.638C112.857 24.8509 100.875 36.8192 100.875 51.5829V333.601C100.875 348.364 112.857 360.333 127.638 360.333H321.936C336.717 360.333 348.699 348.364 348.699 333.601V51.5829C348.699 36.8192 336.717 24.8509 321.936 24.8509Z" fill="#E0DDDD"/>
<path d="M322.679 24.128H128.382C113.601 24.128 101.619 36.0963 101.619 50.86V332.878C101.619 347.642 113.601 359.61 128.382 359.61H322.679C337.46 359.61 349.443 347.642 349.443 332.878V50.86C349.443 36.0963 337.46 24.128 322.679 24.128Z" fill="#DFDCDC"/>
<path d="M323.42 23.4085H129.122C114.342 23.4085 102.359 35.3768 102.359 50.1405V332.158C102.359 346.922 114.342 358.89 129.122 358.89H323.42C338.201 358.89 350.183 346.922 350.183 332.158V50.1405C350.183 35.3768 338.201 23.4085 323.42 23.4085Z" fill="#DFDBDB"/>
<path d="M324.164 22.689H129.866C115.085 22.689 103.103 34.6573 103.103 49.421V331.439C103.103 346.203 115.085 358.171 129.866 358.171H324.164C338.945 358.171 350.927 346.203 350.927 331.439V49.421C350.927 34.6573 338.945 22.689 324.164 22.689Z" fill="#DEDBDB"/>
<path d="M324.908 21.9695H130.61C115.829 21.9695 103.847 33.9378 103.847 48.7015V330.719C103.847 345.483 115.829 357.451 130.61 357.451H324.908C339.688 357.451 351.671 345.483 351.671 330.719V48.7015C351.671 33.9378 339.688 21.9695 324.908 21.9695Z" fill="#DEDADA"/>
<path d="M325.648 21.25H131.35C116.569 21.25 104.587 33.2183 104.587 47.982V330C104.587 344.764 116.569 356.732 131.35 356.732H325.648C340.429 356.732 352.411 344.764 352.411 330V47.982C352.411 33.2183 340.429 21.25 325.648 21.25Z" fill="#DDD9D9"/>
<path d="M326.392 20.5272H132.094C117.313 20.5272 105.331 32.4955 105.331 47.2592V329.277C105.331 344.041 117.313 356.009 132.094 356.009H326.392C341.173 356.009 353.155 344.041 353.155 329.277V47.2592C353.155 32.4955 341.173 20.5272 326.392 20.5272Z" fill="#DDD9D9"/>
<path d="M327.135 19.8077H132.838C118.057 19.8077 106.075 31.776 106.075 46.5397V328.557C106.075 343.321 118.057 355.289 132.838 355.289H327.135C341.916 355.289 353.899 343.321 353.899 328.557V46.5397C353.899 31.776 341.916 19.8077 327.135 19.8077Z" fill="#DCD8D8"/>
<path d="M327.876 19.0882H133.578C118.798 19.0882 106.815 31.0565 106.815 45.8202V327.838C106.815 342.602 118.798 354.57 133.578 354.57H327.876C342.657 354.57 354.639 342.602 354.639 327.838V45.8202C354.639 31.0565 342.657 19.0882 327.876 19.0882Z" fill="#DCD8D8"/>
<path d="M328.62 18.3687H134.322C119.541 18.3687 107.559 30.337 107.559 45.1007V327.118C107.559 341.882 119.541 353.85 134.322 353.85H328.62C343.401 353.85 355.383 341.882 355.383 327.118V45.1007C355.383 30.337 343.401 18.3687 328.62 18.3687Z" fill="#DBD7D7"/>
<path d="M329.082 17.937H134.785C120.004 17.937 108.021 29.9053 108.021 44.669V326.687C108.021 341.45 120.004 353.419 134.785 353.419H329.082C343.863 353.419 355.845 341.45 355.845 326.687V44.669C355.845 29.9053 343.863 17.937 329.082 17.937Z" fill="#DAD6D6"/>
<path d="M329.544 17.5053H135.247C120.466 17.5053 108.484 29.4736 108.484 44.2373V326.255C108.484 341.019 120.466 352.987 135.247 352.987H329.544C344.325 352.987 356.308 341.019 356.308 326.255V44.2373C356.308 29.4736 344.325 17.5053 329.544 17.5053Z" fill="#D9D5D5"/>
<path d="M330.004 17.0736H135.706C120.925 17.0736 108.943 29.0419 108.943 43.8056V325.823C108.943 340.587 120.925 352.555 135.706 352.555H330.004C344.784 352.555 356.767 340.587 356.767 325.823V43.8056C356.767 29.0419 344.784 17.0736 330.004 17.0736Z" fill="#D8D4D4"/>
<path d="M330.466 16.6419H136.168C121.387 16.6419 109.405 28.6102 109.405 43.3739V325.392C109.405 340.155 121.387 352.124 136.168 352.124H330.466C345.247 352.124 357.229 340.155 357.229 325.392V43.3739C357.229 28.6102 345.247 16.6419 330.466 16.6419Z" fill="#D7D3D2"/>
<path d="M330.928 16.2102H136.631C121.85 16.2102 109.868 28.1785 109.868 42.9421V324.96C109.868 339.724 121.85 351.692 136.631 351.692H330.928C345.709 351.692 357.691 339.724 357.691 324.96V42.9421C357.691 28.1785 345.709 16.2102 330.928 16.2102Z" fill="#D6D2D1"/>
<path d="M331.391 15.7785H137.093C122.312 15.7785 110.33 27.7468 110.33 42.5105V324.528C110.33 339.292 122.312 351.26 137.093 351.26H331.391C346.171 351.26 358.154 339.292 358.154 324.528V42.5105C358.154 27.7468 346.171 15.7785 331.391 15.7785Z" fill="#D5D1D0"/>
<path d="M331.849 15.3468H137.552C122.771 15.3468 110.789 27.3151 110.789 42.0788V324.097C110.789 338.86 122.771 350.829 137.552 350.829H331.849C346.63 350.829 358.613 338.86 358.613 324.097V42.0788C358.613 27.3151 346.63 15.3468 331.849 15.3468Z" fill="#D4D0CF"/>
<path d="M332.312 14.9151H138.014C123.233 14.9151 111.251 26.8834 111.251 41.647V323.665C111.251 338.429 123.233 350.397 138.014 350.397H332.312C347.093 350.397 359.075 338.429 359.075 323.665V41.647C359.075 26.8834 347.093 14.9151 332.312 14.9151Z" fill="#D3CFCE"/>
<path d="M332.774 14.4834H138.477C123.696 14.4834 111.714 26.4517 111.714 41.2153V323.233C111.714 337.997 123.696 349.965 138.477 349.965H332.774C347.555 349.965 359.537 337.997 359.537 323.233V41.2153C359.537 26.4517 347.555 14.4834 332.774 14.4834Z" fill="#D2CECD"/>
<path d="M333.237 14.0517H138.939C124.158 14.0517 112.176 26.02 112.176 40.7836V322.801C112.176 337.565 124.158 349.533 138.939 349.533H333.237C348.018 349.533 360 337.565 360 322.801V40.7836C360 26.02 348.018 14.0517 333.237 14.0517Z" fill="#D1CDCC"/>
<path d="M333.696 13.6199H139.398C124.617 13.6199 112.635 25.5883 112.635 40.3519V322.37C112.635 337.133 124.617 349.102 139.398 349.102H333.696C348.477 349.102 360.459 337.133 360.459 322.37V40.3519C360.459 25.5883 348.477 13.6199 333.696 13.6199Z" fill="#D1CBCA"/>
<path d="M334.158 13.1882H139.86C125.08 13.1882 113.097 25.1566 113.097 39.9202V321.938C113.097 336.702 125.08 348.67 139.86 348.67H334.158C348.939 348.67 360.921 336.702 360.921 321.938V39.9202C360.921 25.1566 348.939 13.1882 334.158 13.1882Z" fill="#D0CAC9"/>
<path d="M334.62 12.7565H140.323C125.542 12.7565 113.56 24.7249 113.56 39.4885V321.506C113.56 336.27 125.542 348.238 140.323 348.238H334.62C349.401 348.238 361.384 336.27 361.384 321.506V39.4885C361.384 24.7249 349.401 12.7565 334.62 12.7565Z" fill="#CFC9C8"/>
<path d="M335.083 12.3248H140.785C126.004 12.3248 114.022 24.2932 114.022 39.0568V321.075C114.022 335.838 126.004 347.807 140.785 347.807H335.083C349.864 347.807 361.846 335.838 361.846 321.075V39.0568C361.846 24.2932 349.864 12.3248 335.083 12.3248Z" fill="#CEC8C7"/>
<path d="M335.542 11.8932H141.244C126.463 11.8932 114.481 23.8615 114.481 38.6252V320.643C114.481 335.407 126.463 347.375 141.244 347.375H335.542C350.323 347.375 362.305 335.407 362.305 320.643V38.6252C362.305 23.8615 350.323 11.8932 335.542 11.8932Z" fill="#CDC7C6"/>
<path d="M336.004 11.4615H141.707C126.926 11.4615 114.943 23.4298 114.943 38.1935V320.211C114.943 334.975 126.926 346.943 141.707 346.943H336.004C350.785 346.943 362.767 334.975 362.767 320.211V38.1935C362.767 23.4298 350.785 11.4615 336.004 11.4615Z" fill="#CCC6C5"/>
<path d="M336.466 11.0298H142.169C127.388 11.0298 115.406 22.9981 115.406 37.7617V319.78C115.406 334.543 127.388 346.512 142.169 346.512H336.466C351.247 346.512 363.23 334.543 363.23 319.78V37.7617C363.23 22.9981 351.247 11.0298 336.466 11.0298Z" fill="#CBC5C4"/>
<path d="M336.929 10.6014H142.631C127.85 10.6014 115.868 22.5697 115.868 37.3334V319.351C115.868 334.115 127.85 346.083 142.631 346.083H336.929C351.71 346.083 363.692 334.115 363.692 319.351V37.3334C363.692 22.5697 351.71 10.6014 336.929 10.6014Z" fill="#CAC4C2"/>
<path d="M337.388 10.1697H143.09C128.309 10.1697 116.327 22.138 116.327 36.9017V318.92C116.327 333.683 128.309 345.652 143.09 345.652H337.388C352.169 345.652 364.151 333.683 364.151 318.92V36.9017C364.151 22.138 352.169 10.1697 337.388 10.1697Z" fill="#C9C3C1"/>
<path d="M337.85 9.73799H143.553C128.772 9.73799 116.789 21.7063 116.789 36.47V318.488C116.789 333.252 128.772 345.22 143.553 345.22H337.85C352.631 345.22 364.613 333.252 364.613 318.488V36.47C364.613 21.7063 352.631 9.73799 337.85 9.73799Z" fill="#C8C2C0"/>
<path d="M338.312 9.30629H144.015C129.234 9.30629 117.252 21.2746 117.252 36.0383V318.056C117.252 332.82 129.234 344.788 144.015 344.788H338.312C353.093 344.788 365.076 332.82 365.076 318.056V36.0383C365.076 21.2746 353.093 9.30629 338.312 9.30629Z" fill="#C7C1BF"/>
<path d="M338.715 8.98167H144.417C129.636 8.98167 117.654 20.95 117.654 35.7137V317.732C117.654 332.495 129.636 344.463 144.417 344.463H338.715C353.495 344.463 365.478 332.495 365.478 317.732V35.7137C365.478 20.95 353.495 8.98167 338.715 8.98167Z" fill="#C5BFBD"/>
<path d="M339.12 8.65372H144.822C130.042 8.65372 118.059 20.622 118.059 35.3857V317.404C118.059 332.167 130.042 344.136 144.822 344.136H339.12C353.901 344.136 365.883 332.167 365.883 317.404V35.3857C365.883 20.622 353.901 8.65372 339.12 8.65372Z" fill="#C2BCBA"/>
<path d="M339.522 8.3291H145.224C130.444 8.3291 118.461 20.2974 118.461 35.0611V317.079C118.461 331.843 130.444 343.811 145.224 343.811H339.522C354.303 343.811 366.285 331.843 366.285 317.079V35.0611C366.285 20.2974 354.303 8.3291 339.522 8.3291Z" fill="#C0BAB8"/>
<path d="M339.928 8.0045H145.63C130.849 8.0045 118.867 19.9728 118.867 34.7365V316.754C118.867 331.518 130.849 343.486 145.63 343.486H339.928C354.708 343.486 366.691 331.518 366.691 316.754V34.7365C366.691 19.9728 354.708 8.0045 339.928 8.0045Z" fill="#BDB7B5"/>
<path d="M340.329 7.67989H146.032C131.251 7.67989 119.269 19.6482 119.269 34.4119V316.43C119.269 331.193 131.251 343.162 146.032 343.162H340.329C355.11 343.162 367.093 331.193 367.093 316.43V34.4119C367.093 19.6482 355.11 7.67989 340.329 7.67989Z" fill="#BBB5B3"/>
<path d="M340.732 7.35527H146.434C131.653 7.35527 119.671 19.3236 119.671 34.0873V316.105C119.671 330.869 131.653 342.837 146.434 342.837H340.732C355.512 342.837 367.495 330.869 367.495 316.105V34.0873C367.495 19.3236 355.512 7.35527 340.732 7.35527Z" fill="#B8B2B0"/>
<path d="M341.137 7.03065H146.839C132.058 7.03065 120.076 18.999 120.076 33.7626V315.78C120.076 330.544 132.058 342.512 146.839 342.512H341.137C355.918 342.512 367.9 330.544 367.9 315.78V33.7626C367.9 18.999 355.918 7.03065 341.137 7.03065Z" fill="#B6B0AE"/>
<path d="M341.539 6.70604H147.241C132.461 6.70604 120.478 18.6744 120.478 33.438V315.456C120.478 330.22 132.461 342.188 147.241 342.188H341.539C356.32 342.188 368.302 330.22 368.302 315.456V33.438C368.302 18.6744 356.32 6.70604 341.539 6.70604Z" fill="#B4ADAB"/>
<path d="M341.944 6.38144H147.647C132.866 6.38144 120.884 18.3498 120.884 33.1134V315.131C120.884 329.895 132.866 341.863 147.647 341.863H341.944C356.725 341.863 368.708 329.895 368.708 315.131V33.1134C368.708 18.3498 356.725 6.38144 341.944 6.38144Z" fill="#B1ABA9"/>
<path d="M342.346 6.05682H148.049C133.268 6.05682 121.286 18.0251 121.286 32.7888V314.807C121.286 329.57 133.268 341.539 148.049 341.539H342.346C357.127 341.539 369.11 329.57 369.11 314.807V32.7888C369.11 18.0251 357.127 6.05682 342.346 6.05682Z" fill="#AFA8A6"/>
<path d="M342.752 5.73221H148.454C133.673 5.73221 121.691 17.7005 121.691 32.4642V314.482C121.691 329.246 133.673 341.214 148.454 341.214H342.752C357.533 341.214 369.515 329.246 369.515 314.482V32.4642C369.515 17.7005 357.533 5.73221 342.752 5.73221Z" fill="#ACA6A4"/>
<path d="M343.154 5.40425H148.856C134.076 5.40425 122.093 17.3726 122.093 32.1362V314.154C122.093 328.918 134.076 340.886 148.856 340.886H343.154C357.935 340.886 369.917 328.918 369.917 314.154V32.1362C369.917 17.3726 357.935 5.40425 343.154 5.40425Z" fill="#AAA3A1"/>
<path d="M343.559 5.07964H149.262C134.481 5.07964 122.499 17.048 122.499 31.8116V313.829C122.499 328.593 134.481 340.561 149.262 340.561H343.559C358.34 340.561 370.322 328.593 370.322 313.829V31.8116C370.322 17.048 358.34 5.07964 343.559 5.07964Z" fill="#A7A19F"/>
<path d="M343.961 4.75502H149.664C134.883 4.75502 122.901 16.7233 122.901 31.487V313.505C122.901 328.269 134.883 340.237 149.664 340.237H343.961C358.742 340.237 370.725 328.269 370.725 313.505V31.487C370.725 16.7233 358.742 4.75502 343.961 4.75502Z" fill="#A59E9C"/>
<path d="M344.367 4.43042H150.069C135.288 4.43042 123.306 16.3987 123.306 31.1624V313.18C123.306 327.944 135.288 339.912 150.069 339.912H344.367C359.148 339.912 371.13 327.944 371.13 313.18V31.1624C371.13 16.3987 359.148 4.43042 344.367 4.43042Z" fill="#A39C9A"/>
<path d="M344.769 4.1058H150.471C135.69 4.1058 123.708 16.0741 123.708 30.8378V312.856C123.708 327.619 135.69 339.588 150.471 339.588H344.769C359.55 339.588 371.532 327.619 371.532 312.856V30.8378C371.532 16.0741 359.55 4.1058 344.769 4.1058Z" fill="#A09997"/>
<path d="M345.171 3.78119H150.873C136.092 3.78119 124.11 15.7495 124.11 30.5132V312.531C124.11 327.295 136.092 339.263 150.873 339.263H345.171C359.952 339.263 371.934 327.295 371.934 312.531V30.5132C371.934 15.7495 359.952 3.78119 345.171 3.78119Z" fill="#9E9795"/>
<path d="M345.576 3.45657H151.279C136.498 3.45657 124.516 15.4249 124.516 30.1886V312.206C124.516 326.97 136.498 338.938 151.279 338.938H345.576C360.357 338.938 372.339 326.97 372.339 312.206V30.1886C372.339 15.4249 360.357 3.45657 345.576 3.45657Z" fill="#9B9492"/>
<path d="M345.978 3.13196H151.681C136.9 3.13196 124.918 15.1003 124.918 29.864V311.882C124.918 326.645 136.9 338.614 151.681 338.614H345.978C360.759 338.614 372.741 326.645 372.741 311.882V29.864C372.741 15.1003 360.759 3.13196 345.978 3.13196Z" fill="#999290"/>
<path d="M346.384 2.80736H152.086C137.305 2.80736 125.323 14.7757 125.323 29.5394V311.557C125.323 326.321 137.305 338.289 152.086 338.289H346.384C361.165 338.289 373.147 326.321 373.147 311.557V29.5394C373.147 14.7757 361.165 2.80736 346.384 2.80736Z" fill="#968F8D"/>
<path d="M346.786 2.4794H152.488C137.707 2.4794 125.725 14.4477 125.725 29.2114V311.229C125.725 325.993 137.707 337.961 152.488 337.961H346.786C361.567 337.961 373.549 325.993 373.549 311.229V29.2114C373.549 14.4477 361.567 2.4794 346.786 2.4794Z" fill="#948D8B"/>
</g>
<path d="M487.969 186.628H486.465C480.648 186.628 475.938 191.206 475.938 196.855C475.938 202.504 480.648 207.086 486.465 207.086H487.969C493.782 207.086 498.496 202.504 498.496 196.855C498.496 191.206 493.782 186.628 487.969 186.628Z" fill="#9665FD" fill-opacity="0.8"/>
<path d="M434.429 175.29C434.456 175.076 434.486 174.859 434.53 174.648C434.557 174.514 434.593 174.383 434.627 174.253C434.671 174.069 434.714 173.885 434.771 173.707C434.828 173.53 434.865 173.426 434.915 173.286C434.965 173.145 435.032 172.951 435.096 172.804C435.16 172.657 435.227 172.516 435.294 172.372C435.361 172.228 435.428 172.088 435.505 171.947C435.582 171.807 435.666 171.653 435.753 171.509C435.84 171.365 435.904 171.261 435.984 171.141C436.064 171.02 436.185 170.843 436.289 170.699C436.393 170.555 436.446 170.491 436.527 170.391C436.647 170.24 436.771 170.09 436.899 169.946C436.972 169.862 437.049 169.782 437.126 169.702C437.274 169.548 437.421 169.397 437.575 169.253L437.766 169.086C437.944 168.925 438.125 168.771 438.316 168.627L438.416 168.55C439.909 167.431 441.67 166.722 443.522 166.496H489.473C495.286 166.496 500 161.914 500 156.265C500 150.616 495.286 146.035 489.473 146.035H415.52C414.709 145.862 413.922 145.594 413.174 145.239C413.097 145.202 413.02 145.172 412.946 145.131C412.759 145.038 412.578 144.937 412.4 144.834L412.126 144.673C411.958 144.569 411.791 144.462 411.636 144.338L411.352 144.131C411.204 144.02 411.057 143.907 410.913 143.796C410.769 143.686 410.725 143.632 410.631 143.549C410.537 143.465 410.363 143.308 410.236 143.18C410.109 143.053 410.048 142.98 409.954 142.883C409.861 142.786 409.72 142.635 409.619 142.504C409.432 142.281 409.254 142.05 409.087 141.812C409.01 141.705 408.946 141.594 408.876 141.477C408.805 141.36 408.675 141.173 408.584 141.012C408.494 140.851 408.457 140.774 408.393 140.654C408.33 140.533 408.229 140.336 408.155 140.172C408.082 140.008 408.048 139.924 407.998 139.8C407.948 139.677 407.864 139.466 407.804 139.285C407.743 139.104 407.72 139.034 407.683 138.907C407.626 138.723 407.579 138.539 407.535 138.351C407.505 138.228 407.475 138.107 407.452 137.983C407.408 137.772 407.378 137.558 407.351 137.344C407.351 137.237 407.318 137.133 407.308 137.026C407.273 136.7 407.255 136.373 407.254 136.046C407.254 130.397 411.968 125.815 417.784 125.815H453.299V125.628H464.409C470.222 125.628 474.936 121.05 474.936 115.401C474.936 109.752 470.222 105.171 464.409 105.171H439.147C438.835 105.12 438.527 105.06 438.225 104.983C436.196 104.477 434.362 103.381 432.955 101.834L432.845 101.717C432.704 101.556 432.577 101.382 432.446 101.225C432.379 101.138 432.312 101.054 432.248 100.967C432.138 100.817 432.037 100.663 431.937 100.506C431.836 100.348 431.789 100.278 431.722 100.171C431.655 100.064 431.555 99.8798 431.474 99.7292C431.394 99.5786 431.337 99.4548 431.27 99.3176C431.203 99.1804 431.139 99.0298 431.079 98.8859C431.019 98.742 430.958 98.5713 430.901 98.4107C430.844 98.2501 430.804 98.1363 430.761 97.9924C430.717 97.8485 430.663 97.6343 430.62 97.4536C430.586 97.3231 430.553 97.1926 430.526 97.062C430.483 96.8512 430.452 96.6404 430.426 96.4262C430.426 96.3158 430.389 96.2053 430.379 96.0916C430.344 95.758 430.326 95.4229 430.325 95.0876C430.325 94.7529 430.345 94.4384 430.375 94.1205C430.375 94.0167 430.402 93.9163 430.416 93.8126C430.446 93.5984 430.476 93.3876 430.516 93.1767C430.539 93.0596 430.566 92.9425 430.593 92.822C430.64 92.6346 430.687 92.4439 430.744 92.2598C430.777 92.1393 430.814 92.0188 430.854 91.9017C430.915 91.721 430.985 91.5403 431.055 91.3629C431.102 91.2525 431.143 91.1387 431.193 91.0283C431.287 90.8174 431.394 90.61 431.501 90.4058C431.608 90.2017 431.689 90.0712 431.789 89.9038C431.89 89.7365 431.96 89.6194 432.054 89.4822C432.148 89.345 432.248 89.2078 432.352 89.0739C432.456 88.94 432.503 88.8698 432.583 88.7727C432.664 88.6757 432.818 88.4916 432.942 88.3544L433.159 88.1202C433.3 87.9763 433.441 87.8357 433.585 87.6985L433.746 87.5579C434.522 86.8656 435.397 86.2926 436.342 85.8579L436.433 85.8144C436.664 85.7107 436.899 85.6136 437.14 85.5266L437.244 85.4898C437.492 85.4028 437.743 85.3191 438.001 85.2488C438.336 85.1618 438.671 85.0915 439.006 85.0313H219.553V268.086H420.133C414.866 267.524 410.772 263.187 410.772 257.923C410.772 252.274 415.486 247.692 421.299 247.692H422.803C428.616 247.692 433.33 252.274 433.33 257.923C433.33 263.187 429.233 267.524 423.969 268.086H451.778C446.977 267.135 443.365 263.023 443.365 258.08C443.365 252.622 447.767 248.174 453.309 247.876V247.849H482.458C488.271 247.849 492.985 243.268 492.985 237.619C492.985 231.97 488.271 227.392 482.458 227.392H413.774C407.958 227.392 403.244 222.811 403.244 217.162C403.244 216.827 403.262 216.491 403.297 216.158C403.297 216.048 403.327 215.94 403.344 215.823C403.371 215.609 403.401 215.395 403.441 215.187C403.468 215.057 403.502 214.93 403.535 214.803C403.579 214.619 403.622 214.434 403.679 214.257C403.736 214.08 403.766 213.983 403.813 213.849C403.86 213.715 403.93 213.514 403.997 213.367C404.064 213.22 404.115 213.086 404.178 212.949C404.242 212.811 404.319 212.661 404.389 212.52C404.46 212.38 404.544 212.236 404.624 212.095C404.704 211.955 404.775 211.851 404.852 211.734C404.929 211.617 405.043 211.436 405.147 211.292C405.214 211.198 405.287 211.108 405.358 211.018C405.482 210.857 405.602 210.683 405.736 210.546L405.827 210.449C406.589 209.598 407.486 208.877 408.48 208.314L408.52 208.29C408.762 208.153 409.013 208.029 409.268 207.912L409.348 207.875C409.599 207.762 409.857 207.658 410.119 207.561L410.206 207.531C410.474 207.437 410.745 207.353 411.02 207.283H411.087C411.372 207.209 411.663 207.146 411.958 207.096H454.381C460.194 207.096 464.908 202.514 464.908 196.865C464.908 191.216 460.194 186.638 454.381 186.638H442.628C442.114 186.528 441.609 186.38 441.117 186.197C441.04 186.166 440.959 186.143 440.886 186.113C440.698 186.039 440.517 185.956 440.339 185.872L440.004 185.721C439.837 185.638 439.669 185.547 439.515 185.454C439.361 185.36 439.291 185.326 439.18 185.26C439.07 185.193 438.879 185.065 438.731 184.965L438.396 184.727C438.259 184.62 438.121 184.517 437.987 184.393C437.853 184.269 437.773 184.205 437.652 184.108C437.532 184.011 437.408 183.891 437.291 183.774C437.173 183.657 437.069 183.539 436.956 183.419C436.842 183.298 436.755 183.208 436.661 183.084C436.47 182.857 436.289 182.622 436.118 182.378C436.048 182.278 435.984 182.171 435.917 182.067C435.813 181.91 435.713 181.752 435.615 181.585C435.552 181.471 435.491 181.354 435.431 181.25C435.371 181.147 435.264 180.916 435.187 180.758C435.109 180.601 435.083 180.514 435.032 180.39C434.982 180.267 434.895 180.056 434.835 179.872C434.774 179.688 434.751 179.624 434.714 179.497C434.657 179.313 434.61 179.125 434.567 178.935C434.537 178.814 434.506 178.694 434.483 178.57C434.439 178.359 434.409 178.145 434.382 177.931C434.382 177.824 434.349 177.72 434.339 177.596C434.304 177.269 434.286 176.941 434.285 176.612C434.286 176.277 434.304 175.942 434.339 175.608C434.389 175.511 434.413 175.404 434.429 175.29Z" fill="#9665FD" fill-opacity="0.8"/>
<path d="M346.786 2.47939H152.488C137.707 2.47939 125.725 14.4477 125.725 29.2114V311.229C125.725 325.993 137.707 337.961 152.488 337.961H346.786C361.567 337.961 373.549 325.993 373.549 311.229V29.2114C373.549 14.4477 361.567 2.47939 346.786 2.47939Z" fill="#FCFCFC"/>
<path d="M347.908 11.0097C352.308 11.015 356.526 12.763 359.636 15.8703C362.747 18.9776 364.497 23.1906 364.503 27.585V312.859C364.497 317.253 362.747 321.466 359.636 324.574C356.526 327.681 352.308 329.429 347.908 329.434H151.366C146.967 329.429 142.749 327.681 139.639 324.573C136.528 321.466 134.779 317.253 134.775 312.859V27.585C134.779 23.1909 136.528 18.9779 139.639 15.8705C142.749 12.7631 146.967 11.015 151.366 11.0097H347.908ZM347.908 0.541748H151.366C147.81 0.541748 144.29 1.24127 141.005 2.60036C137.721 3.95945 134.736 5.95149 132.222 8.46273C129.708 10.974 127.714 13.9552 126.354 17.2362C124.994 20.5172 124.294 24.0338 124.294 27.585V312.859C124.294 316.41 124.994 319.927 126.354 323.208C127.714 326.489 129.708 329.47 132.222 331.981C134.736 334.492 137.721 336.485 141.005 337.844C144.29 339.203 147.81 339.902 151.366 339.902H347.908C355.089 339.902 361.975 337.053 367.053 331.981C372.13 326.91 374.983 320.031 374.983 312.859V27.585C374.983 20.4127 372.13 13.5341 367.053 8.46252C361.975 3.39094 355.089 0.541748 347.908 0.541748Z" fill="url(#paint0_linear_485_446)"/>
<path d="M143.375 107.794C147.571 104.577 152.72 102.847 158.01 102.875C164.128 102.875 169.039 104.649 172.818 108.196C176.598 111.743 178.467 116.228 178.467 121.605C178.467 125.739 177.228 129.644 174.748 133.318C172.204 137.109 168.658 140.121 164.503 142.019C160.05 144.131 153.312 145.546 144.343 146.266V178.61C159.179 178.791 170.235 181.977 178.059 188.178C185.882 194.379 189.721 201.969 189.721 210.934C189.721 219.113 186.783 226.03 180.983 231.682C175.184 237.335 167.853 240.173 159.038 240.173C150.582 240.173 143.72 237.679 138.189 232.693C136.867 231.487 135.691 230.131 134.684 228.654V271.687C141.583 273.782 148.964 274.832 157.132 274.832C177.459 274.832 194.12 268.658 207.254 256.303C220.388 243.947 226.918 228.861 226.918 211.091C226.918 198.961 223.516 188.426 216.712 179.487C209.909 170.547 200.484 164.281 188.438 160.689C197.614 156.198 204.606 150.313 209.415 143.033C214.185 135.896 216.7 127.493 216.632 118.911C216.632 104.716 211.122 92.4516 200.101 82.1198C189.081 71.7891 175.569 66.6221 159.293 66.6221C150.287 66.6221 141.924 68.1314 134.681 71.1466V119.889C136.064 114.973 139.147 110.937 143.375 107.794Z" fill="#9665FD" fill-opacity="0.8"/>
<path d="M134.684 119.889V71.1533C130.543 72.6826 127.441 74.6002 123.99 76.9026V120.28H134.195C134.262 120.28 134.684 120.103 134.684 119.889Z" fill="#70229A"/>
<path d="M123.99 228.48V267.259C127.441 269.053 130.543 270.526 134.684 271.683V228.681C133.994 228.627 134.349 228.48 134.292 228.48H123.99Z" fill="#70229A"/>
<defs>
<linearGradient id="paint0_linear_485_446" x1="93.1422" y1="288.446" x2="394.665" y2="60.1299" gradientUnits="userSpaceOnUse">
<stop offset="0.41" stop-color="#E0E0E0"/>
<stop offset="0.61" stop-color="white"/>
</linearGradient>
</defs>
</svg>
