<svg width="488" height="454" viewBox="0 0 488 454" fill="none" xmlns="http://www.w3.org/2000/svg">
<g clip-path="url(#clip0_485_241)">
<path d="M29.009 94.7989H30.4771C36.1534 94.7989 40.7506 90.1032 40.7506 84.3203C40.7506 78.5374 36.1534 73.8417 30.4771 73.8417H29.009C23.336 73.8417 18.7355 78.5374 18.7355 84.3203C18.7355 90.1032 23.336 94.7989 29.009 94.7989Z" fill="#9665FD" fill-opacity="0.8"/>
<path d="M109.251 73.822H60.5684V73.8515C57.923 74.0237 55.4437 75.2032 53.6392 77.1481C51.8346 79.0929 50.8416 81.6557 50.8639 84.3105C50.8639 89.9067 55.1603 94.4617 60.5684 94.7695V94.7989H89.015C94.688 94.7989 99.2885 99.4947 99.2885 105.278C99.2885 111.06 94.688 115.756 89.015 115.756H21.9857C16.3094 115.756 11.7089 120.452 11.7089 126.235C11.7089 126.579 11.7285 126.919 11.7612 127.253C11.7612 127.368 11.7907 127.476 11.807 127.581C11.8332 127.8 11.8626 128.019 11.9018 128.236C11.928 128.37 11.9607 128.501 11.9934 128.632C12.0359 128.818 12.0784 129.008 12.134 129.192C12.1896 129.375 12.219 129.47 12.2648 129.608C12.3106 129.745 12.3792 129.935 12.4446 130.105C12.51 130.276 12.5591 130.39 12.6212 130.531C12.6833 130.672 12.7585 130.826 12.8272 130.97C12.8958 131.114 12.9776 131.265 13.056 131.405C13.1345 131.546 13.2032 131.654 13.2784 131.779C13.3536 131.903 13.4648 132.083 13.5661 132.227C13.6675 132.371 13.7035 132.417 13.7721 132.512C13.8931 132.676 14.0108 132.84 14.1416 132.997L14.2299 133.095C14.9685 133.961 15.8431 134.701 16.8195 135.286L16.8587 135.309C17.0942 135.446 17.3394 135.577 17.5879 135.695L17.6664 135.734C17.9116 135.852 18.1634 135.957 18.4184 136.062L18.5034 136.091C18.765 136.186 19.0298 136.275 19.298 136.347L19.3634 136.366C19.6413 136.438 19.9257 136.504 20.2135 136.556H61.6278C67.3008 136.556 71.9013 141.252 71.9013 147.035C71.9013 152.818 67.3008 157.514 61.6278 157.514H50.1576C49.6555 157.627 49.1625 157.778 48.683 157.965L48.4574 158.051C48.2743 158.126 48.0977 158.211 47.9244 158.299L47.5974 158.45C47.4339 158.539 47.2705 158.63 47.1201 158.725C46.9696 158.82 46.901 158.856 46.7931 158.928C46.6852 159 46.4988 159.125 46.3549 159.229L46.028 159.472C45.8939 159.58 45.7598 159.688 45.6291 159.799C45.4983 159.911 45.4198 159.992 45.3021 160.091C45.1844 160.189 45.0634 160.317 44.949 160.418C44.8345 160.52 44.7332 160.66 44.622 160.785C44.5108 160.909 44.4258 161.001 44.3342 161.112C44.1479 161.345 43.9713 161.587 43.8046 161.836C43.7359 161.938 43.6738 162.049 43.6084 162.163C43.507 162.327 43.4089 162.491 43.3141 162.658C43.2193 162.825 43.1931 162.897 43.1343 163.018C43.0754 163.139 42.9708 163.346 42.8956 163.519C42.8204 163.693 42.7942 163.771 42.7452 163.899C42.6961 164.027 42.6111 164.249 42.5522 164.429C42.513 164.557 42.4705 164.685 42.4345 164.816C42.3789 165.003 42.3332 165.196 42.2907 165.389C42.2612 165.513 42.2318 165.638 42.2089 165.766C42.1664 165.982 42.137 166.201 42.1108 166.42C42.1108 166.528 42.0781 166.637 42.0683 166.748C42.0356 167.075 42.016 167.403 42.016 167.753C42.016 168.104 42.0356 168.447 42.0683 168.788C42.0683 168.903 42.101 169.017 42.1141 169.115C42.1435 169.335 42.173 169.557 42.2155 169.77C42.2416 169.908 42.2776 170.042 42.307 170.176C42.3528 170.363 42.3953 170.553 42.4509 170.736C42.5065 170.92 42.5424 171.024 42.5915 171.169C42.6405 171.313 42.7059 171.496 42.7681 171.66C42.8302 171.823 42.8923 171.958 42.961 172.105C43.0296 172.252 43.0918 172.397 43.167 172.541C43.2422 172.685 43.3239 172.842 43.4089 172.989C43.4939 173.137 43.5561 173.241 43.6345 173.366C43.713 173.49 43.8307 173.67 43.9321 173.821L44.1642 174.148C44.2819 174.302 44.4029 174.456 44.5272 174.604C44.5991 174.689 44.6743 174.771 44.7495 174.852C44.8934 175.01 45.0372 175.18 45.1876 175.314L45.374 175.488C45.5473 175.648 45.7239 175.815 45.907 175.959L46.0083 176.035C47.4479 177.177 49.1703 177.906 50.9914 178.143H95.8749C101.548 178.143 106.148 182.839 106.148 188.622C106.148 194.405 101.548 199.101 95.8749 199.101H23.7023C22.9089 199.278 22.1402 199.551 21.4135 199.916L21.1879 200.027C21.008 200.122 20.8315 200.227 20.6582 200.332C20.5666 200.388 20.4783 200.44 20.39 200.499C20.2266 200.604 20.0631 200.715 19.9127 200.826L19.6347 201.039C19.4909 201.154 19.3437 201.272 19.2064 201.393L18.9317 201.648C18.801 201.773 18.6702 201.897 18.5459 202.025C18.4217 202.153 18.3628 202.228 18.2713 202.333C18.1797 202.437 18.0424 202.585 17.9443 202.719C17.7612 202.945 17.5879 203.184 17.4244 203.426C17.3492 203.538 17.2871 203.652 17.2151 203.754C17.1432 203.855 17.0222 204.081 16.9339 204.225C16.8457 204.369 16.8097 204.471 16.7476 204.595C16.6854 204.72 16.5874 204.923 16.5154 205.09C16.4435 205.257 16.4108 205.342 16.3617 205.473C16.3127 205.604 16.231 205.82 16.1721 205.997C16.1132 206.174 16.0904 206.256 16.0544 206.387C15.9988 206.573 15.953 206.766 15.9105 206.956C15.8811 207.084 15.8517 207.209 15.8255 207.336C15.7863 207.549 15.7568 207.768 15.7307 207.991C15.7307 208.102 15.698 208.207 15.6882 208.319C15.6555 208.646 15.6359 208.974 15.6359 209.324C15.6359 215.117 20.2364 219.803 25.9126 219.803H60.5717V219.992H71.4108C77.0838 219.992 81.6843 224.691 81.6843 230.471C81.6843 236.251 77.0838 240.95 71.4108 240.95H46.7571C46.453 241.002 46.1522 241.064 45.8579 241.143C43.8578 241.674 42.0649 242.798 40.7147 244.368L40.6068 244.49C40.4694 244.653 40.3452 244.817 40.2177 244.994C40.1523 245.082 40.0869 245.167 40.0247 245.259C39.9168 245.413 39.8188 245.587 39.7207 245.731C39.6226 245.875 39.5768 245.963 39.5114 246.084C39.446 246.205 39.3479 246.386 39.2694 246.539C39.191 246.693 39.1354 246.818 39.07 246.962C39.0046 247.106 38.9425 247.253 38.8836 247.404C38.8248 247.555 38.7659 247.731 38.7103 247.889C38.6547 248.046 38.6155 248.173 38.573 248.318C38.5305 248.462 38.4782 248.684 38.4324 248.871C38.403 249.005 38.3703 249.136 38.3441 249.274C38.3016 249.487 38.2722 249.706 38.246 249.929C38.246 250.04 38.2101 250.155 38.2002 250.256C38.1675 250.584 38.1479 250.931 38.1479 251.278C38.1479 251.625 38.1675 251.933 38.197 252.26C38.197 252.368 38.2231 252.473 38.2362 252.588C38.2656 252.807 38.2951 253.023 38.3343 253.242C38.3572 253.364 38.3833 253.485 38.4095 253.606C38.452 253.799 38.5011 253.992 38.5566 254.182C38.5893 254.307 38.6253 254.428 38.6645 254.549C38.7234 254.736 38.7921 254.919 38.8607 255.102C38.9065 255.217 38.9457 255.332 38.9948 255.43C39.0863 255.646 39.191 255.859 39.2956 256.085C39.4002 256.311 39.4787 256.412 39.5768 256.599C39.6749 256.786 39.7436 256.89 39.8351 257.031C39.9267 257.172 40.0247 257.31 40.1261 257.45C40.2275 257.591 40.2732 257.657 40.3517 257.758C40.4302 257.86 40.5806 258.046 40.7016 258.187C40.7702 258.269 40.8422 258.348 40.9141 258.426C41.0514 258.573 41.1888 258.721 41.3294 258.858L41.4863 259.006C42.2395 259.71 43.0936 260.297 44.0204 260.748L44.1086 260.79C44.3342 260.898 44.5631 260.997 44.7985 261.085L44.8999 261.124C45.1419 261.216 45.3871 261.298 45.6389 261.37C46.544 261.634 47.4818 261.77 48.4247 261.773H111.498C112.441 261.77 113.378 261.634 114.283 261.37H288.821V73.822H109.251ZM94.4068 157.563H92.9387C87.2625 157.563 82.6652 152.867 82.6652 147.084C82.6652 141.301 87.2625 136.605 92.9387 136.605H94.4068C100.08 136.605 104.68 141.301 104.68 147.084C104.68 152.867 100.08 157.563 94.4068 157.563Z" fill="#9665FD" fill-opacity="0.8"/>
<g style="mix-blend-mode:multiply">
<path d="M192.283 96.649H71.2604C31.964 96.649 0.10791 128.552 0.10791 167.907V382.804C0.10791 422.159 31.964 454.062 71.2604 454.062H192.283C231.579 454.062 263.435 422.159 263.435 382.804V167.907C263.435 128.552 231.579 96.649 192.283 96.649Z" fill="white"/>
<path d="M197.675 93.5808H73.3857C35.2739 93.5808 4.37817 124.522 4.37817 162.691V380.496C4.37817 418.664 35.2739 449.606 73.3857 449.606H197.675C235.786 449.606 266.682 418.664 266.682 380.496V162.691C266.682 124.522 235.786 93.5808 197.675 93.5808Z" fill="#FEFEFE"/>
<path d="M203.066 90.5158H75.5111C38.5839 90.5158 8.64844 120.496 8.64844 157.478V378.19C8.64844 415.172 38.5839 445.152 75.5111 445.152H203.066C239.993 445.152 269.929 415.172 269.929 378.19V157.478C269.929 120.496 239.993 90.5158 203.066 90.5158Z" fill="#FDFCFC"/>
<path d="M208.461 87.4475H77.6364C41.8938 87.4475 12.9187 116.466 12.9187 152.261V375.882C12.9187 411.677 41.8938 440.695 77.6364 440.695H208.461C244.204 440.695 273.179 411.677 273.179 375.882V152.261C273.179 116.466 244.204 87.4475 208.461 87.4475Z" fill="#FBFBFB"/>
<path d="M213.853 84.3825H79.7617C45.2037 84.3825 17.189 112.439 17.189 147.048V373.576C17.189 408.186 45.2037 436.242 79.7617 436.242H213.853C248.411 436.242 276.426 408.186 276.426 373.576V147.048C276.426 112.439 248.411 84.3825 213.853 84.3825Z" fill="#FAFAFA"/>
<path d="M219.245 81.3142H81.887C48.5137 81.3142 21.4592 108.409 21.4592 141.832V371.271C21.4592 404.694 48.5137 431.789 81.887 431.789H219.245C252.618 431.789 279.673 404.694 279.673 371.271V141.832C279.673 108.409 252.618 81.3142 219.245 81.3142Z" fill="#F9F9F9"/>
<path d="M224.637 78.246H84.0156C51.8251 78.246 25.7295 104.38 25.7295 136.619V368.959C25.7295 401.198 51.8251 427.332 84.0156 427.332H224.637C256.827 427.332 282.923 401.198 282.923 368.959V136.619C282.923 104.38 256.827 78.246 224.637 78.246Z" fill="#F8F7F7"/>
<path d="M230.028 75.181H86.1409C55.135 75.181 29.9998 100.354 29.9998 131.405V366.654C29.9998 397.706 55.135 422.879 86.1409 422.879H230.028C261.034 422.879 286.17 397.706 286.17 366.654V131.405C286.17 100.354 261.034 75.181 230.028 75.181Z" fill="#F7F6F6"/>
<path d="M235.42 72.1127H88.2663C58.445 72.1127 34.27 96.3235 34.27 126.189V364.345C34.27 394.211 58.445 418.422 88.2663 418.422H235.42C265.242 418.422 289.417 394.211 289.417 364.345V126.189C289.417 96.3235 265.242 72.1127 235.42 72.1127Z" fill="#F5F5F5"/>
<path d="M240.812 69.0477H90.3916C61.7549 69.0477 38.5403 92.2967 38.5403 120.976V362.04C38.5403 390.719 61.7549 413.968 90.3916 413.968H240.812C269.449 413.968 292.663 390.719 292.663 362.04V120.976C292.663 92.2967 269.449 69.0477 240.812 69.0477Z" fill="#F4F3F3"/>
<path d="M246.21 65.9794H92.5201C65.0681 65.9794 42.8138 88.2667 42.8138 115.76V359.735C42.8138 387.228 65.0681 409.515 92.5201 409.515H246.21C273.662 409.515 295.917 387.228 295.917 359.735V115.76C295.917 88.2667 273.662 65.9794 246.21 65.9794Z" fill="#F3F2F2"/>
<path d="M251.602 62.9111H94.6455C68.378 62.9111 47.084 84.2367 47.084 110.543V357.426C47.084 383.733 68.378 405.058 94.6455 405.058H251.602C277.87 405.058 299.164 383.733 299.164 357.426V110.543C299.164 84.2367 277.87 62.9111 251.602 62.9111Z" fill="#F2F1F1"/>
<path d="M256.991 59.8461H96.7741C71.6894 59.8461 51.3543 80.2114 51.3543 105.333V355.118C51.3543 380.24 71.6894 400.605 96.7741 400.605H256.991C282.075 400.605 302.41 380.24 302.41 355.118V105.333C302.41 80.2114 282.075 59.8461 256.991 59.8461Z" fill="#F1F0F0"/>
<path d="M262.386 56.7778H98.8994C74.9994 56.7778 55.6246 76.1814 55.6246 100.117V352.809C55.6246 376.745 74.9994 396.148 98.8994 396.148H262.386C286.286 396.148 305.66 376.745 305.66 352.809V100.117C305.66 76.1814 286.286 56.7778 262.386 56.7778Z" fill="#F0EEEE"/>
<path d="M267.777 53.7128H101.025C78.3093 53.7128 59.8948 72.1546 59.8948 94.9037V350.504C59.8948 373.253 78.3093 391.695 101.025 391.695H267.777C290.493 391.695 308.907 373.253 308.907 350.504V94.9037C308.907 72.1546 290.493 53.7128 267.777 53.7128Z" fill="#EEEDED"/>
<path d="M273.169 50.6446H103.15C81.6193 50.6446 64.1651 68.1246 64.1651 89.6873V348.199C64.1651 369.761 81.6193 387.241 103.15 387.241H273.169C294.7 387.241 312.154 369.761 312.154 348.199V89.6873C312.154 68.1246 294.7 50.6446 273.169 50.6446Z" fill="#EDECEC"/>
<path d="M278.561 47.5763H105.275C84.9292 47.5763 68.4354 64.0946 68.4354 84.4709V345.89C68.4354 366.266 84.9292 382.785 105.275 382.785H278.561C298.907 382.785 315.401 366.266 315.401 345.89V84.4709C315.401 64.0946 298.907 47.5763 278.561 47.5763Z" fill="#ECEAEA"/>
<path d="M283.956 44.5113H107.401C88.2391 44.5113 72.7056 60.0678 72.7056 79.2578V343.585C72.7056 362.775 88.2391 378.331 107.401 378.331H283.956C303.118 378.331 318.651 362.775 318.651 343.585V79.2578C318.651 60.0678 303.118 44.5113 283.956 44.5113Z" fill="#EBE9E9"/>
<path d="M289.345 41.443H109.529C91.5505 41.443 76.9759 56.0393 76.9759 74.0446V341.273C76.9759 359.278 91.5505 373.874 109.529 373.874H289.345C307.323 373.874 321.898 359.278 321.898 341.273V74.0446C321.898 56.0393 307.323 41.443 289.345 41.443Z" fill="#EAE8E8"/>
<path d="M294.736 38.3781H111.655C94.8605 38.3781 81.2462 52.0126 81.2462 68.8316V338.968C81.2462 355.787 94.8605 369.421 111.655 369.421H294.736C311.53 369.421 325.145 355.787 325.145 338.968V68.8316C325.145 52.0126 311.53 38.3781 294.736 38.3781Z" fill="#E8E7E7"/>
<path d="M300.131 35.3098H113.78C98.1704 35.3098 85.5164 47.9825 85.5164 63.6152V336.662C85.5164 352.295 98.1704 364.968 113.78 364.968H300.131C315.741 364.968 328.395 352.295 328.395 336.662V63.6152C328.395 47.9825 315.741 35.3098 300.131 35.3098Z" fill="#E7E5E5"/>
<path d="M305.526 32.2415H115.908C101.484 32.2415 89.7899 43.9525 89.7899 58.3987V334.354C89.7899 348.8 101.484 360.511 115.908 360.511H305.526C319.951 360.511 331.645 348.8 331.645 334.354V58.3987C331.645 43.9525 319.951 32.2415 305.526 32.2415Z" fill="#E6E4E4"/>
<path d="M306.249 31.5374H116.631C102.206 31.5374 90.5126 43.2484 90.5126 57.6947V333.65C90.5126 348.096 102.206 359.807 116.631 359.807H306.249C320.674 359.807 332.368 348.096 332.368 333.65V57.6947C332.368 43.2484 320.674 31.5374 306.249 31.5374Z" fill="#E5E3E3"/>
<path d="M306.975 30.8334H117.357C102.932 30.8334 91.2385 42.5445 91.2385 56.9907V332.946C91.2385 347.392 102.932 359.103 117.357 359.103H306.975C321.4 359.103 333.094 347.392 333.094 332.946V56.9907C333.094 42.5445 321.4 30.8334 306.975 30.8334Z" fill="#E5E3E3"/>
<path d="M307.701 30.1294H118.083C103.658 30.1294 91.9643 41.8404 91.9643 56.2867V332.242C91.9643 346.688 103.658 358.399 118.083 358.399H307.701C322.126 358.399 333.819 346.688 333.819 332.242V56.2867C333.819 41.8404 322.126 30.1294 307.701 30.1294Z" fill="#E4E2E2"/>
<path d="M308.423 29.4254H118.805C104.381 29.4254 92.6869 41.1364 92.6869 55.5827V331.538C92.6869 345.984 104.381 357.695 118.805 357.695H308.423C322.848 357.695 334.542 345.984 334.542 331.538V55.5827C334.542 41.1364 322.848 29.4254 308.423 29.4254Z" fill="#E4E2E2"/>
<path d="M309.149 28.718H119.531C105.106 28.718 93.4128 40.429 93.4128 54.8753V330.83C93.4128 345.276 105.106 356.988 119.531 356.988H309.149C323.574 356.988 335.268 345.276 335.268 330.83V54.8753C335.268 40.429 323.574 28.718 309.149 28.718Z" fill="#E3E1E1"/>
<path d="M309.875 28.014H120.257C105.832 28.014 94.1387 39.725 94.1387 54.1713V330.126C94.1387 344.572 105.832 356.283 120.257 356.283H309.875C324.3 356.283 335.994 344.572 335.994 330.126V54.1713C335.994 39.725 324.3 28.014 309.875 28.014Z" fill="#E3E0E0"/>
<path d="M310.598 27.3099H120.98C106.555 27.3099 94.8613 39.021 94.8613 53.4672V329.422C94.8613 343.868 106.555 355.579 120.98 355.579H310.598C325.023 355.579 336.716 343.868 336.716 329.422V53.4672C336.716 39.021 325.023 27.3099 310.598 27.3099Z" fill="#E2E0E0"/>
<path d="M311.324 26.606H121.706C107.281 26.606 95.5872 38.317 95.5872 52.7633V328.718C95.5872 343.164 107.281 354.875 121.706 354.875H311.324C325.749 354.875 337.442 343.164 337.442 328.718V52.7633C337.442 38.317 325.749 26.606 311.324 26.606Z" fill="#E2DFDF"/>
<path d="M312.05 25.8986H122.432C108.007 25.8986 96.313 37.6096 96.313 52.0559V328.011C96.313 342.457 108.007 354.168 122.432 354.168H312.05C326.474 354.168 338.168 342.457 338.168 328.011V52.0559C338.168 37.6096 326.474 25.8986 312.05 25.8986Z" fill="#E1DEDE"/>
<path d="M312.772 25.1946H123.154C108.729 25.1946 97.0356 36.9056 97.0356 51.3519V327.307C97.0356 341.753 108.729 353.464 123.154 353.464H312.772C327.197 353.464 338.891 341.753 338.891 327.307V51.3519C338.891 36.9056 327.197 25.1946 312.772 25.1946Z" fill="#E1DEDE"/>
<path d="M313.498 24.4905H123.88C109.455 24.4905 97.7615 36.2016 97.7615 50.6478V326.603C97.7615 341.049 109.455 352.76 123.88 352.76H313.498C327.923 352.76 339.617 341.049 339.617 326.603V50.6478C339.617 36.2016 327.923 24.4905 313.498 24.4905Z" fill="#E0DDDD"/>
<path d="M314.224 23.7865H124.606C110.181 23.7865 98.4874 35.4975 98.4874 49.9438V325.899C98.4874 340.345 110.181 352.056 124.606 352.056H314.224C328.649 352.056 340.342 340.345 340.342 325.899V49.9438C340.342 35.4975 328.649 23.7865 314.224 23.7865Z" fill="#E0DDDD"/>
<path d="M314.95 23.0792H125.332C110.907 23.0792 99.2133 34.7902 99.2133 49.2365V325.191C99.2133 339.638 110.907 351.349 125.332 351.349H314.95C329.375 351.349 341.068 339.638 341.068 325.191V49.2365C341.068 34.7902 329.375 23.0792 314.95 23.0792Z" fill="#DFDCDC"/>
<path d="M315.672 22.3752H126.054C111.63 22.3752 99.9359 34.0862 99.9359 48.5325V324.487C99.9359 338.934 111.63 350.645 126.054 350.645H315.672C330.097 350.645 341.791 338.934 341.791 324.487V48.5325C341.791 34.0862 330.097 22.3752 315.672 22.3752Z" fill="#DFDBDB"/>
<path d="M316.398 21.6711H126.78C112.355 21.6711 100.662 33.3822 100.662 47.8284V323.783C100.662 338.23 112.355 349.941 126.78 349.941H316.398C330.823 349.941 342.517 338.23 342.517 323.783V47.8284C342.517 33.3822 330.823 21.6711 316.398 21.6711Z" fill="#DEDBDB"/>
<path d="M317.124 20.9671H127.506C113.081 20.9671 101.388 32.6781 101.388 47.1244V323.079C101.388 337.526 113.081 349.237 127.506 349.237H317.124C331.549 349.237 343.243 337.526 343.243 323.079V47.1244C343.243 32.6781 331.549 20.9671 317.124 20.9671Z" fill="#DEDADA"/>
<path d="M317.847 20.2631H128.229C113.804 20.2631 102.11 31.9741 102.11 46.4204V322.375C102.11 336.822 113.804 348.533 128.229 348.533H317.847C332.272 348.533 343.965 336.822 343.965 322.375V46.4204C343.965 31.9741 332.272 20.2631 317.847 20.2631Z" fill="#DDD9D9"/>
<path d="M318.573 19.5558H128.955C114.53 19.5558 102.836 31.2668 102.836 45.7131V321.668C102.836 336.114 114.53 347.825 128.955 347.825H318.573C332.998 347.825 344.691 336.114 344.691 321.668V45.7131C344.691 31.2668 332.998 19.5558 318.573 19.5558Z" fill="#DDD9D9"/>
<path d="M319.299 18.8517H129.681C115.256 18.8517 103.562 30.5628 103.562 45.009V320.964C103.562 335.41 115.256 347.121 129.681 347.121H319.299C333.723 347.121 345.417 335.41 345.417 320.964V45.009C345.417 30.5628 333.723 18.8517 319.299 18.8517Z" fill="#DCD8D8"/>
<path d="M320.021 18.1477H130.403C115.978 18.1477 104.285 29.8587 104.285 44.305V320.26C104.285 334.706 115.978 346.417 130.403 346.417H320.021C334.446 346.417 346.14 334.706 346.14 320.26V44.305C346.14 29.8587 334.446 18.1477 320.021 18.1477Z" fill="#DCD8D8"/>
<path d="M320.747 17.4437H131.129C116.704 17.4437 105.01 29.1547 105.01 43.601V319.556C105.01 334.002 116.704 345.713 131.129 345.713H320.747C335.172 345.713 346.866 334.002 346.866 319.556V43.601C346.866 29.1547 335.172 17.4437 320.747 17.4437Z" fill="#DBD7D7"/>
<path d="M321.198 17.0212H131.58C117.155 17.0212 105.462 28.7323 105.462 43.1785V319.133C105.462 333.58 117.155 345.291 131.58 345.291H321.198C335.623 345.291 347.317 333.58 347.317 319.133V43.1785C347.317 28.7323 335.623 17.0212 321.198 17.0212Z" fill="#DAD6D6"/>
<path d="M321.649 16.5988H132.032C117.607 16.5988 105.913 28.3098 105.913 42.7561V318.711C105.913 333.157 117.607 344.868 132.032 344.868H321.649C336.074 344.868 347.768 333.157 347.768 318.711V42.7561C347.768 28.3098 336.074 16.5988 321.649 16.5988Z" fill="#D9D5D5"/>
<path d="M322.097 16.1764H132.479C118.055 16.1764 106.361 27.8874 106.361 42.3337V318.289C106.361 332.735 118.055 344.446 132.479 344.446H322.097C336.522 344.446 348.216 332.735 348.216 318.289V42.3337C348.216 27.8874 336.522 16.1764 322.097 16.1764Z" fill="#D8D4D4"/>
<path d="M322.549 15.754H132.931C118.506 15.754 106.812 27.465 106.812 41.9113V317.866C106.812 332.312 118.506 344.023 132.931 344.023H322.549C336.973 344.023 348.667 332.312 348.667 317.866V41.9113C348.667 27.465 336.973 15.754 322.549 15.754Z" fill="#D7D3D2"/>
<path d="M323 15.3315H133.382C118.957 15.3315 107.263 27.0426 107.263 41.4888V317.444C107.263 331.89 118.957 343.601 133.382 343.601H323C337.425 343.601 349.118 331.89 349.118 317.444V41.4888C349.118 27.0426 337.425 15.3315 323 15.3315Z" fill="#D6D2D1"/>
<path d="M323.451 14.9092H133.833C119.408 14.9092 107.715 26.6202 107.715 41.0665V317.021C107.715 331.468 119.408 343.179 133.833 343.179H323.451C337.876 343.179 349.57 331.468 349.57 317.021V41.0665C349.57 26.6202 337.876 14.9092 323.451 14.9092Z" fill="#D5D1D0"/>
<path d="M323.899 14.4868H134.281C119.856 14.4868 108.163 26.1978 108.163 40.6441V316.599C108.163 331.045 119.856 342.756 134.281 342.756H323.899C338.324 342.756 350.018 331.045 350.018 316.599V40.6441C350.018 26.1978 338.324 14.4868 323.899 14.4868Z" fill="#D4D0CF"/>
<path d="M324.35 14.0643H134.732C120.307 14.0643 108.614 25.7754 108.614 40.2216V316.177C108.614 330.623 120.307 342.334 134.732 342.334H324.35C338.775 342.334 350.469 330.623 350.469 316.177V40.2216C350.469 25.7754 338.775 14.0643 324.35 14.0643Z" fill="#D3CFCE"/>
<path d="M324.801 13.6419H135.184C120.759 13.6419 109.065 25.3529 109.065 39.7992V315.754C109.065 330.2 120.759 341.911 135.184 341.911H324.801C339.226 341.911 350.92 330.2 350.92 315.754V39.7992C350.92 25.3529 339.226 13.6419 324.801 13.6419Z" fill="#D2CECD"/>
<path d="M325.253 13.2195H135.635C121.21 13.2195 109.516 24.9305 109.516 39.3768V315.332C109.516 329.778 121.21 341.489 135.635 341.489H325.253C339.678 341.489 351.371 329.778 351.371 315.332V39.3768C351.371 24.9305 339.678 13.2195 325.253 13.2195Z" fill="#D1CDCC"/>
<path d="M325.701 12.7971H136.083C121.658 12.7971 109.964 24.5081 109.964 38.9544V314.909C109.964 329.356 121.658 341.067 136.083 341.067H325.701C340.126 341.067 351.819 329.356 351.819 314.909V38.9544C351.819 24.5081 340.126 12.7971 325.701 12.7971Z" fill="#D1CBCA"/>
<path d="M326.152 12.3746H136.534C122.109 12.3746 110.415 24.0857 110.415 38.5319V314.487C110.415 328.933 122.109 340.644 136.534 340.644H326.152C340.577 340.644 352.27 328.933 352.27 314.487V38.5319C352.27 24.0857 340.577 12.3746 326.152 12.3746Z" fill="#D0CAC9"/>
<path d="M326.603 11.9522H136.985C122.56 11.9522 110.867 23.6632 110.867 38.1095V314.064C110.867 328.511 122.56 340.222 136.985 340.222H326.603C341.028 340.222 352.722 328.511 352.722 314.064V38.1095C352.722 23.6632 341.028 11.9522 326.603 11.9522Z" fill="#CFC9C8"/>
<path d="M327.054 11.5298H137.436C123.011 11.5298 111.318 23.2408 111.318 37.6871V313.642C111.318 328.088 123.011 339.799 137.436 339.799H327.054C341.479 339.799 353.173 328.088 353.173 313.642V37.6871C353.173 23.2408 341.479 11.5298 327.054 11.5298Z" fill="#CEC8C7"/>
<path d="M327.502 11.1074H137.884C123.459 11.1074 111.766 22.8184 111.766 37.2647V313.22C111.766 327.666 123.459 339.377 137.884 339.377H327.502C341.927 339.377 353.621 327.666 353.621 313.22V37.2647C353.621 22.8184 341.927 11.1074 327.502 11.1074Z" fill="#CDC7C6"/>
<path d="M327.953 10.6849H138.336C123.911 10.6849 112.217 22.396 112.217 36.8422V312.797C112.217 327.243 123.911 338.954 138.336 338.954H327.953C342.378 338.954 354.072 327.243 354.072 312.797V36.8422C354.072 22.396 342.378 10.6849 327.953 10.6849Z" fill="#CCC6C5"/>
<path d="M328.405 10.2625H138.787C124.362 10.2625 112.668 21.9735 112.668 36.4198V312.375C112.668 326.821 124.362 338.532 138.787 338.532H328.405C342.83 338.532 354.523 326.821 354.523 312.375V36.4198C354.523 21.9735 342.83 10.2625 328.405 10.2625Z" fill="#CBC5C4"/>
<path d="M328.856 9.84338H139.238C124.813 9.84338 113.119 21.5544 113.119 36.0007V311.956C113.119 326.402 124.813 338.113 139.238 338.113H328.856C343.281 338.113 354.975 326.402 354.975 311.956V36.0007C354.975 21.5544 343.281 9.84338 328.856 9.84338Z" fill="#CAC4C2"/>
<path d="M329.304 9.42096H139.686C125.261 9.42096 113.567 21.132 113.567 35.5783V311.533C113.567 325.979 125.261 337.69 139.686 337.69H329.304C343.729 337.69 355.422 325.979 355.422 311.533V35.5783C355.422 21.132 343.729 9.42096 329.304 9.42096Z" fill="#C9C3C1"/>
<path d="M329.755 8.99854H140.137C125.712 8.99854 114.019 20.7096 114.019 35.1558V311.111C114.019 325.557 125.712 337.268 140.137 337.268H329.755C344.18 337.268 355.874 325.557 355.874 311.111V35.1558C355.874 20.7096 344.18 8.99854 329.755 8.99854Z" fill="#C8C2C0"/>
<path d="M330.206 8.57611H140.588C126.164 8.57611 114.47 20.2871 114.47 34.7334V310.688C114.47 325.135 126.164 336.846 140.588 336.846H330.206C344.631 336.846 356.325 325.135 356.325 310.688V34.7334C356.325 20.2871 344.631 8.57611 330.206 8.57611Z" fill="#C7C1BF"/>
<path d="M330.599 8.25848H140.981C126.556 8.25848 114.862 19.9695 114.862 34.4158V310.371C114.862 324.817 126.556 336.528 140.981 336.528H330.599C345.024 336.528 356.717 324.817 356.717 310.371V34.4158C356.717 19.9695 345.024 8.25848 330.599 8.25848Z" fill="#C5BFBD"/>
<path d="M330.994 7.93756H141.376C126.951 7.93756 115.258 19.6486 115.258 34.0949V310.05C115.258 324.496 126.951 336.207 141.376 336.207H330.994C345.419 336.207 357.113 324.496 357.113 310.05V34.0949C357.113 19.6486 345.419 7.93756 330.994 7.93756Z" fill="#C2BCBA"/>
<path d="M331.387 7.61993H141.769C127.344 7.61993 115.65 19.331 115.65 33.7772V309.732C115.65 324.178 127.344 335.889 141.769 335.889H331.387C345.812 335.889 357.505 324.178 357.505 309.732V33.7772C357.505 19.331 345.812 7.61993 331.387 7.61993Z" fill="#C0BAB8"/>
<path d="M331.782 7.30231H142.164C127.74 7.30231 116.046 19.0133 116.046 33.4596V309.415C116.046 323.861 127.74 335.572 142.164 335.572H331.782C346.207 335.572 357.901 323.861 357.901 309.415V33.4596C357.901 19.0133 346.207 7.30231 331.782 7.30231Z" fill="#BDB7B5"/>
<path d="M332.175 6.98468H142.557C128.132 6.98468 116.438 18.6957 116.438 33.142V309.097C116.438 323.543 128.132 335.254 142.557 335.254H332.175C346.6 335.254 358.293 323.543 358.293 309.097V33.142C358.293 18.6957 346.6 6.98468 332.175 6.98468Z" fill="#BBB5B3"/>
<path d="M332.567 6.66705H142.949C128.524 6.66705 116.831 18.3781 116.831 32.8243V308.779C116.831 323.226 128.524 334.937 142.949 334.937H332.567C346.992 334.937 358.686 323.226 358.686 308.779V32.8243C358.686 18.3781 346.992 6.66705 332.567 6.66705Z" fill="#B8B2B0"/>
<path d="M332.963 6.34943H143.345C128.92 6.34943 117.226 18.0604 117.226 32.5067V308.462C117.226 322.908 128.92 334.619 143.345 334.619H332.963C347.388 334.619 359.081 322.908 359.081 308.462V32.5067C359.081 18.0604 347.388 6.34943 332.963 6.34943Z" fill="#B6B0AE"/>
<path d="M333.355 6.0318H143.737C129.312 6.0318 117.619 17.7428 117.619 32.1891V308.144C117.619 322.59 129.312 334.301 143.737 334.301H333.355C347.78 334.301 359.474 322.59 359.474 308.144V32.1891C359.474 17.7428 347.78 6.0318 333.355 6.0318Z" fill="#B4ADAB"/>
<path d="M333.751 5.71417H144.133C129.708 5.71417 118.014 17.4252 118.014 31.8715V307.826C118.014 322.273 129.708 333.984 144.133 333.984H333.751C348.176 333.984 359.869 322.273 359.869 307.826V31.8715C359.869 17.4252 348.176 5.71417 333.751 5.71417Z" fill="#B1ABA9"/>
<path d="M334.143 5.39655H144.525C130.1 5.39655 118.407 17.1076 118.407 31.5538V307.509C118.407 321.955 130.1 333.666 144.525 333.666H334.143C348.568 333.666 360.262 321.955 360.262 307.509V31.5538C360.262 17.1076 348.568 5.39655 334.143 5.39655Z" fill="#AFA8A6"/>
<path d="M334.539 5.07886H144.921C130.496 5.07886 118.802 16.7899 118.802 31.2362V307.191C118.802 321.637 130.496 333.348 144.921 333.348H334.539C348.964 333.348 360.657 321.637 360.657 307.191V31.2362C360.657 16.7899 348.964 5.07886 334.539 5.07886Z" fill="#ACA6A4"/>
<path d="M334.931 4.758H145.313C130.888 4.758 119.195 16.469 119.195 30.9153V306.87C119.195 321.316 130.888 333.027 145.313 333.027H334.931C349.356 333.027 361.05 321.316 361.05 306.87V30.9153C361.05 16.469 349.356 4.758 334.931 4.758Z" fill="#AAA3A1"/>
<path d="M335.327 4.44037H145.709C131.284 4.44037 119.59 16.1514 119.59 30.5977V306.553C119.59 320.999 131.284 332.71 145.709 332.71H335.327C349.752 332.71 361.445 320.999 361.445 306.553V30.5977C361.445 16.1514 349.752 4.44037 335.327 4.44037Z" fill="#A7A19F"/>
<path d="M335.719 4.12268H146.101C131.676 4.12268 119.983 15.8337 119.983 30.28V306.235C119.983 320.681 131.676 332.392 146.101 332.392H335.719C350.144 332.392 361.838 320.681 361.838 306.235V30.28C361.838 15.8337 350.144 4.12268 335.719 4.12268Z" fill="#A59E9C"/>
<path d="M336.115 3.80505H146.497C132.072 3.80505 120.378 15.5161 120.378 29.9623V305.917C120.378 320.363 132.072 332.075 146.497 332.075H336.115C350.54 332.075 362.233 320.363 362.233 305.917V29.9623C362.233 15.5161 350.54 3.80505 336.115 3.80505Z" fill="#A39C9A"/>
<path d="M336.507 3.48743H146.889C132.464 3.48743 120.771 15.1984 120.771 29.6447V305.6C120.771 320.046 132.464 331.757 146.889 331.757H336.507C350.932 331.757 362.626 320.046 362.626 305.6V29.6447C362.626 15.1984 350.932 3.48743 336.507 3.48743Z" fill="#A09997"/>
<path d="M336.899 3.1698H147.282C132.857 3.1698 121.163 14.8808 121.163 29.3271V305.282C121.163 319.728 132.857 331.439 147.282 331.439H336.899C351.324 331.439 363.018 319.728 363.018 305.282V29.3271C363.018 14.8808 351.324 3.1698 336.899 3.1698Z" fill="#9E9795"/>
<path d="M337.295 2.85217H147.677C133.252 2.85217 121.559 14.5632 121.559 29.0095V304.964C121.559 319.411 133.252 331.122 147.677 331.122H337.295C351.72 331.122 363.414 319.411 363.414 304.964V29.0095C363.414 14.5632 351.72 2.85217 337.295 2.85217Z" fill="#9B9492"/>
<path d="M337.687 2.53455H148.07C133.645 2.53455 121.951 14.2456 121.951 28.6918V304.647C121.951 319.093 133.645 330.804 148.07 330.804H337.687C352.112 330.804 363.806 319.093 363.806 304.647V28.6918C363.806 14.2456 352.112 2.53455 337.687 2.53455Z" fill="#999290"/>
<path d="M338.083 2.21692H148.465C134.04 2.21692 122.347 13.9279 122.347 28.3742V304.329C122.347 318.775 134.04 330.486 148.465 330.486H338.083C352.508 330.486 364.202 318.775 364.202 304.329V28.3742C364.202 13.9279 352.508 2.21692 338.083 2.21692Z" fill="#968F8D"/>
<path d="M338.475 1.896H148.858C134.433 1.896 122.739 13.607 122.739 28.0533V304.008C122.739 318.454 134.433 330.165 148.858 330.165H338.475C352.9 330.165 364.594 318.454 364.594 304.008V28.0533C364.594 13.607 352.9 1.896 338.475 1.896Z" fill="#948D8B"/>
</g>
<path d="M476.258 182.086H474.79C469.114 182.086 464.517 186.566 464.517 192.093C464.517 197.621 469.114 202.103 474.79 202.103H476.258C481.931 202.103 486.532 197.621 486.532 192.093C486.532 186.566 481.931 182.086 476.258 182.086Z" fill="#9665FD" fill-opacity="0.8"/>
<path d="M424.008 170.992C424.034 170.782 424.064 170.569 424.106 170.363C424.132 170.232 424.168 170.104 424.201 169.977C424.244 169.796 424.286 169.616 424.342 169.443C424.397 169.269 424.433 169.168 424.482 169.03C424.531 168.893 424.597 168.703 424.659 168.559C424.721 168.415 424.786 168.277 424.852 168.136C424.917 167.995 424.983 167.858 425.058 167.72C425.133 167.583 425.215 167.432 425.3 167.291C425.385 167.151 425.447 167.049 425.525 166.931C425.604 166.813 425.722 166.64 425.823 166.499C425.924 166.358 425.977 166.296 426.055 166.198C426.173 166.05 426.294 165.903 426.418 165.762C426.49 165.68 426.565 165.602 426.64 165.523C426.784 165.373 426.928 165.225 427.078 165.084L427.265 164.921C427.438 164.763 427.615 164.613 427.801 164.472L427.899 164.397C429.356 163.301 431.074 162.608 432.882 162.386H477.727C483.4 162.386 488 157.903 488 152.376C488 146.848 483.4 142.365 477.727 142.365H405.554C404.763 142.196 403.995 141.934 403.265 141.586C403.19 141.55 403.115 141.521 403.043 141.481C402.86 141.39 402.683 141.291 402.51 141.19L402.242 141.033C402.078 140.931 401.915 140.826 401.764 140.705L401.486 140.502C401.342 140.394 401.199 140.283 401.058 140.175C400.917 140.067 400.875 140.014 400.783 139.932C400.692 139.85 400.522 139.697 400.398 139.572C400.273 139.448 400.214 139.376 400.123 139.281C400.031 139.186 399.894 139.038 399.796 138.911C399.613 138.692 399.44 138.466 399.276 138.233C399.201 138.128 399.139 138.02 399.07 137.905C399.001 137.791 398.874 137.607 398.786 137.45C398.697 137.293 398.661 137.218 398.599 137.1C398.537 136.982 398.439 136.789 398.367 136.628C398.295 136.468 398.262 136.386 398.213 136.265C398.164 136.144 398.083 135.937 398.024 135.761C397.965 135.584 397.942 135.515 397.906 135.391C397.85 135.21 397.805 135.03 397.762 134.847C397.733 134.726 397.703 134.608 397.68 134.487C397.638 134.28 397.608 134.071 397.582 133.861C397.582 133.757 397.55 133.655 397.54 133.55C397.506 133.232 397.488 132.911 397.487 132.591C397.487 127.063 402.088 122.58 407.764 122.58H442.423V122.397H453.266C458.939 122.397 463.539 117.917 463.539 112.39C463.539 106.862 458.939 102.38 453.266 102.38H428.612C428.308 102.33 428.007 102.271 427.713 102.196C425.732 101.701 423.942 100.628 422.57 99.1148L422.462 99.0002C422.324 98.843 422.2 98.6727 422.073 98.5188C422.007 98.4337 421.942 98.3518 421.88 98.2667C421.772 98.1193 421.674 97.9687 421.576 97.8148C421.477 97.6609 421.432 97.5921 421.366 97.4873C421.301 97.3825 421.203 97.2024 421.124 97.0551C421.046 96.9077 420.99 96.7866 420.925 96.6523C420.859 96.5181 420.797 96.3707 420.739 96.2299C420.68 96.0891 420.621 95.9221 420.565 95.7649C420.51 95.6077 420.47 95.4964 420.428 95.3556C420.385 95.2148 420.333 95.0052 420.291 94.8284C420.258 94.7007 420.225 94.573 420.199 94.4453C420.156 94.239 420.127 94.0326 420.101 93.8231C420.101 93.715 420.065 93.607 420.055 93.4956C420.021 93.1693 420.003 92.8414 420.003 92.5132C420.003 92.1858 420.022 91.878 420.052 91.5669C420.052 91.4654 420.078 91.3671 420.091 91.2656C420.121 91.0561 420.15 90.8498 420.189 90.6435C420.212 90.5289 420.238 90.4142 420.264 90.2964C420.31 90.113 420.356 89.9263 420.412 89.7462C420.444 89.6284 420.48 89.5105 420.519 89.3959C420.578 89.219 420.647 89.0422 420.716 88.8687C420.761 88.7606 420.801 88.6493 420.85 88.5412C420.941 88.3349 421.046 88.1319 421.15 87.9321C421.255 87.7324 421.334 87.6047 421.432 87.4409C421.53 87.2772 421.598 87.1626 421.69 87.0283C421.782 86.8941 421.88 86.7598 421.981 86.6288C422.082 86.4979 422.128 86.4291 422.207 86.3341C422.285 86.2392 422.435 86.0591 422.556 85.9248L422.769 85.6956C422.906 85.5548 423.044 85.4173 423.184 85.283L423.341 85.1455C424.099 84.468 424.953 83.9074 425.875 83.482L425.964 83.4394C426.189 83.3379 426.418 83.2429 426.653 83.1578L426.755 83.1218C426.997 83.0366 427.242 82.9548 427.494 82.886C427.821 82.8009 428.148 82.7321 428.475 82.6732H214.308V261.792H410.056C404.916 261.242 400.921 256.998 400.921 251.847C400.921 246.32 405.521 241.837 411.194 241.837H412.662C418.335 241.837 422.936 246.32 422.936 251.847C422.936 256.998 418.937 261.242 413.8 261.792H440.939C436.253 260.862 432.729 256.838 432.729 252.001C432.729 246.661 437.025 242.309 442.433 242.017V241.991H470.88C476.553 241.991 481.153 237.508 481.153 231.981C481.153 226.453 476.553 221.974 470.88 221.974H403.85C398.174 221.974 393.574 217.491 393.574 211.963C393.574 211.635 393.592 211.307 393.626 210.981C393.626 210.873 393.655 210.768 393.672 210.653C393.698 210.444 393.727 210.234 393.767 210.031C393.793 209.903 393.825 209.779 393.858 209.655C393.901 209.474 393.943 209.294 393.999 209.121C394.054 208.947 394.084 208.852 394.129 208.721C394.175 208.59 394.244 208.394 394.309 208.25C394.375 208.106 394.424 207.975 394.486 207.84C394.548 207.706 394.623 207.559 394.692 207.421C394.761 207.284 394.842 207.143 394.921 207.005C394.999 206.868 395.068 206.766 395.143 206.652C395.218 206.537 395.329 206.36 395.431 206.22C395.496 206.128 395.568 206.039 395.637 205.951C395.758 205.794 395.875 205.624 396.006 205.489L396.095 205.394C396.839 204.562 397.713 203.856 398.684 203.305L398.723 203.282C398.959 203.148 399.204 203.027 399.453 202.912L399.531 202.876C399.776 202.765 400.028 202.663 400.283 202.568L400.368 202.539C400.63 202.447 400.895 202.365 401.163 202.297H401.228C401.506 202.225 401.79 202.162 402.078 202.113H443.479C449.152 202.113 453.753 197.63 453.753 192.103C453.753 186.575 449.152 182.096 443.479 182.096H432.009C431.508 181.988 431.015 181.843 430.535 181.664C430.459 181.634 430.381 181.611 430.309 181.582C430.126 181.51 429.949 181.428 429.776 181.346L429.449 181.199C429.286 181.117 429.122 181.028 428.972 180.937C428.821 180.845 428.753 180.812 428.645 180.747C428.537 180.681 428.35 180.557 428.207 180.458L427.88 180.226C427.746 180.121 427.611 180.02 427.481 179.899C427.35 179.777 427.271 179.715 427.154 179.62C427.036 179.525 426.915 179.407 426.801 179.293C426.686 179.178 426.585 179.064 426.474 178.946C426.362 178.828 426.277 178.739 426.186 178.618C426 178.395 425.823 178.166 425.656 177.927C425.588 177.829 425.525 177.724 425.46 177.623C425.359 177.469 425.261 177.315 425.166 177.151C425.104 177.04 425.045 176.925 424.986 176.824C424.927 176.722 424.822 176.496 424.747 176.342C424.672 176.188 424.646 176.103 424.597 175.982C424.548 175.861 424.463 175.655 424.404 175.475C424.345 175.294 424.322 175.232 424.286 175.108C424.231 174.928 424.185 174.744 424.142 174.558C424.113 174.44 424.083 174.322 424.061 174.201C424.018 173.994 423.989 173.785 423.962 173.575C423.962 173.471 423.93 173.369 423.92 173.248C423.886 172.928 423.869 172.607 423.868 172.285C423.869 171.957 423.886 171.629 423.92 171.303C423.969 171.208 423.992 171.103 424.008 170.992Z" fill="#9665FD" fill-opacity="0.8"/>
<path d="M338.475 1.896H148.858C134.433 1.896 122.739 13.607 122.739 28.0533V304.008C122.739 318.454 134.433 330.165 148.858 330.165H338.475C352.9 330.165 364.594 318.454 364.594 304.008V28.0533C364.594 13.607 352.9 1.896 338.475 1.896Z" fill="#FCFCFC"/>
<path d="M339.571 10.2429C343.864 10.2481 347.981 11.9585 351.017 14.999C354.053 18.0396 355.761 22.1619 355.766 26.4618V305.603C355.761 309.903 354.053 314.025 351.017 317.066C347.981 320.106 343.864 321.817 339.571 321.822H147.762C143.469 321.817 139.353 320.106 136.317 317.065C133.282 314.025 131.575 309.903 131.57 305.603V26.4618C131.575 22.1622 133.282 18.0398 136.317 14.9992C139.353 11.9586 143.469 10.2481 147.762 10.2429H339.571ZM339.571 0H147.762C144.292 -2.66125e-08 140.857 0.684479 137.651 2.01435C134.446 3.34422 131.533 5.29344 129.08 7.75069C126.626 10.2079 124.68 13.1251 123.353 16.3356C122.025 19.5461 121.342 22.987 121.343 26.4618V305.603C121.342 309.078 122.025 312.519 123.353 315.729C124.68 318.94 126.626 321.857 129.08 324.314C131.533 326.771 134.446 328.721 137.651 330.05C140.857 331.38 144.292 332.065 147.762 332.065H339.571C346.579 332.065 353.299 329.277 358.254 324.314C363.21 319.352 365.993 312.621 365.993 305.603V26.4618C365.993 19.4437 363.21 12.713 358.254 7.75049C353.299 2.78794 346.579 0 339.571 0Z" fill="url(#paint0_linear_485_241)"/>
<path d="M143.214 262.11H179.181V73.822H131.77V107.55H143.214V262.11Z" fill="#9665FD" fill-opacity="0.8"/>
<path d="M131.77 73.822H121.307V107.55H131.77V73.822Z" fill="#805097"/>
<path d="M201.261 228.054H121.343V261.783H201.261V228.054Z" fill="#9665FD" fill-opacity="0.8"/>
<path d="M131.77 228.054H121.307V261.783H131.77V228.054Z" fill="#805097"/>
</g>
<defs>
<linearGradient id="paint0_linear_485_241" x1="90.9409" y1="281.715" x2="385.769" y2="59.0582" gradientUnits="userSpaceOnUse">
<stop offset="0.41" stop-color="#E0E0E0"/>
<stop offset="0.61" stop-color="white"/>
</linearGradient>
<clipPath id="clip0_485_241">
<rect width="488" height="454" fill="white"/>
</clipPath>
</defs>
</svg>
