<svg width="474" height="440" viewBox="0 0 474 440" fill="none" xmlns="http://www.w3.org/2000/svg">
<path d="M28.1418 91.8459H29.5679C35.0817 91.8459 39.5474 87.2966 39.5474 81.694C39.5474 76.0914 35.0817 71.5421 29.5679 71.5421H28.1418C22.6311 71.5421 18.1622 76.0914 18.1622 81.694C18.1622 87.2966 22.6311 91.8459 28.1418 91.8459Z" fill="#9665FD" fill-opacity="0.8"/>
<path d="M106.088 71.523H58.7982V71.5516C56.2285 71.7184 53.8201 72.8612 52.0672 74.7454C50.3142 76.6296 49.3496 79.1124 49.3713 81.6844C49.3713 87.1062 53.5448 91.5191 58.7982 91.8173V91.8459H86.4309C91.9415 91.8459 96.4104 96.3952 96.4104 101.998C96.4104 107.6 91.9415 112.15 86.4309 112.15H21.3193C15.8055 112.15 11.3366 116.699 11.3366 122.302C11.3366 122.635 11.3557 122.965 11.3874 123.288C11.3874 123.399 11.416 123.504 11.4319 123.606C11.4573 123.818 11.4859 124.031 11.524 124.24C11.5494 124.37 11.5812 124.497 11.6129 124.624C11.6542 124.805 11.6955 124.989 11.7495 125.166C11.8035 125.344 11.8321 125.436 11.8766 125.569C11.921 125.703 11.9877 125.887 12.0512 126.052C12.1148 126.216 12.1624 126.328 12.2228 126.464C12.2831 126.6 12.3562 126.749 12.4229 126.889C12.4896 127.029 12.569 127.175 12.6452 127.311C12.7214 127.447 12.7881 127.552 12.8612 127.673C12.9342 127.793 13.0422 127.968 13.1407 128.107C13.2391 128.247 13.2741 128.291 13.3408 128.383C13.4583 128.542 13.5726 128.701 13.6997 128.853L13.7854 128.948C14.5029 129.787 15.3525 130.504 16.301 131.07L16.3391 131.093C16.5678 131.226 16.806 131.353 17.0474 131.467L17.1236 131.505C17.3618 131.619 17.6064 131.721 17.8541 131.822L17.9367 131.851C18.1908 131.943 18.4481 132.028 18.7085 132.098L18.772 132.117C19.042 132.187 19.3183 132.251 19.5978 132.301H59.8272C65.3379 132.301 69.8068 136.851 69.8068 142.453C69.8068 148.056 65.3379 152.605 59.8272 152.605H48.6852C48.1974 152.715 47.7186 152.861 47.2528 153.043L47.0336 153.125C46.8558 153.198 46.6842 153.281 46.5159 153.367L46.1983 153.512C46.0395 153.598 45.8807 153.687 45.7346 153.779C45.5885 153.871 45.5218 153.906 45.4169 153.976C45.3121 154.045 45.1311 154.166 44.9913 154.268L44.6737 154.502C44.5435 154.607 44.4133 154.712 44.2862 154.82C44.1592 154.927 44.083 155.007 43.9686 155.102C43.8543 155.197 43.7368 155.321 43.6256 155.419C43.5144 155.517 43.416 155.654 43.308 155.774C43.2 155.895 43.1174 155.984 43.0285 156.092C42.8474 156.317 42.6759 156.552 42.5139 156.793C42.4472 156.891 42.3869 156.999 42.3234 157.11C42.2249 157.269 42.1296 157.427 42.0375 157.589C41.9454 157.751 41.92 157.821 41.8628 157.938C41.8056 158.055 41.704 158.255 41.631 158.423C41.5579 158.592 41.5325 158.668 41.4848 158.791C41.4372 158.915 41.3546 159.131 41.2975 159.305C41.2593 159.429 41.218 159.553 41.1831 159.68C41.1291 159.861 41.0846 160.048 41.0434 160.235C41.0148 160.356 40.9862 160.476 40.964 160.6C40.9227 160.809 40.8941 161.022 40.8687 161.234C40.8687 161.339 40.8369 161.444 40.8274 161.552C40.7956 161.869 40.7766 162.186 40.7766 162.525C40.7766 162.865 40.7956 163.198 40.8274 163.528C40.8274 163.639 40.8591 163.75 40.8718 163.845C40.9004 164.058 40.929 164.274 40.9703 164.48C40.9957 164.613 41.0307 164.743 41.0592 164.873C41.1037 165.054 41.145 165.238 41.199 165.416C41.253 165.593 41.2879 165.695 41.3356 165.834C41.3832 165.974 41.4467 166.152 41.5071 166.31C41.5674 166.469 41.6278 166.599 41.6945 166.742C41.7612 166.884 41.8215 167.024 41.8946 167.164C41.9676 167.303 42.047 167.456 42.1296 167.598C42.2122 167.741 42.2725 167.843 42.3488 167.963C42.425 168.084 42.5393 168.258 42.6378 168.404L42.8633 168.721C42.9777 168.87 43.0952 169.02 43.2159 169.162C43.2857 169.245 43.3588 169.324 43.4318 169.403C43.5716 169.556 43.7113 169.721 43.8574 169.851L44.0385 170.019C44.2068 170.174 44.3783 170.336 44.5562 170.476L44.6547 170.549C46.0531 171.655 47.7261 172.361 49.4952 172.592H93.0945C98.6051 172.592 103.074 177.141 103.074 182.744C103.074 188.346 98.6051 192.896 93.0945 192.896H22.9868C22.2161 193.067 21.4694 193.332 20.7635 193.686L20.5443 193.793C20.3696 193.885 20.1981 193.987 20.0298 194.088C19.9409 194.142 19.8551 194.193 19.7693 194.25C19.6105 194.352 19.4517 194.46 19.3056 194.567L19.0357 194.774C18.8959 194.885 18.753 194.999 18.6196 195.116L18.3528 195.364C18.2257 195.484 18.0987 195.605 17.978 195.729C17.8573 195.852 17.8001 195.925 17.7112 196.027C17.6223 196.128 17.4889 196.271 17.3936 196.401C17.2157 196.62 17.0474 196.852 16.8886 197.086C16.8155 197.194 16.7552 197.305 16.6853 197.404C16.6154 197.502 16.4979 197.721 16.4121 197.861C16.3264 198 16.2914 198.098 16.2311 198.219C16.1707 198.34 16.0755 198.536 16.0056 198.698C15.9357 198.86 15.9039 198.942 15.8563 199.069C15.8087 199.196 15.7293 199.406 15.6721 199.577C15.6149 199.748 15.5927 199.827 15.5577 199.954C15.5037 200.135 15.4593 200.322 15.418 200.506C15.3894 200.63 15.3608 200.751 15.3354 200.874C15.2973 201.081 15.2687 201.293 15.2433 201.509C15.2433 201.617 15.2115 201.718 15.202 201.826C15.1702 202.143 15.1512 202.461 15.1512 202.8C15.1512 208.412 19.6201 212.952 25.1339 212.952H58.8013V213.136H69.3304C74.841 213.136 79.3099 217.688 79.3099 223.288C79.3099 228.887 74.841 233.44 69.3304 233.44H45.382C45.0866 233.491 44.7944 233.551 44.5086 233.627C42.5657 234.141 40.824 235.231 39.5124 236.752L39.4076 236.869C39.2742 237.028 39.1535 237.187 39.0297 237.358C38.9661 237.443 38.9026 237.526 38.8423 237.615C38.7375 237.764 38.6422 237.932 38.5469 238.072C38.4516 238.211 38.4071 238.297 38.3436 238.414C38.2801 238.532 38.1848 238.706 38.1086 238.855C38.0323 239.004 37.9783 239.125 37.9148 239.264C37.8513 239.404 37.791 239.547 37.7338 239.693C37.6766 239.839 37.6194 240.01 37.5654 240.162C37.5115 240.315 37.4733 240.438 37.432 240.578C37.3908 240.717 37.3399 240.933 37.2955 241.114C37.2669 241.244 37.2351 241.371 37.2097 241.504C37.1684 241.71 37.1398 241.923 37.1144 242.139C37.1144 242.247 37.0795 242.358 37.07 242.456C37.0382 242.773 37.0191 243.11 37.0191 243.446C37.0191 243.782 37.0382 244.08 37.0668 244.398C37.0668 244.502 37.0922 244.604 37.1049 244.715C37.1335 244.927 37.1621 245.137 37.2002 245.349C37.2224 245.467 37.2478 245.584 37.2732 245.701C37.3145 245.889 37.3622 246.076 37.4162 246.26C37.4479 246.38 37.4829 246.498 37.521 246.615C37.5782 246.796 37.6448 246.974 37.7115 247.151C37.756 247.262 37.7941 247.373 37.8418 247.469C37.9307 247.678 38.0323 247.884 38.134 248.103C38.2356 248.322 38.3118 248.42 38.4071 248.601C38.5024 248.782 38.5691 248.883 38.6581 249.02C38.747 249.156 38.8423 249.29 38.9407 249.426C39.0392 249.562 39.0837 249.626 39.1599 249.724C39.2361 249.822 39.3822 250.003 39.4997 250.14C39.5664 250.219 39.6363 250.295 39.7062 250.371C39.8396 250.514 39.973 250.657 40.1096 250.79L40.262 250.933C40.9936 251.615 41.8233 252.184 42.7236 252.621L42.8093 252.662C43.0285 252.767 43.2508 252.862 43.4795 252.947L43.5779 252.985C43.813 253.074 44.0512 253.154 44.2958 253.223C45.175 253.48 46.086 253.611 47.0019 253.614H108.27C109.186 253.611 110.097 253.48 110.976 253.223H280.52V71.523H106.088ZM91.6684 152.653H90.2423C84.7284 152.653 80.2627 148.103 80.2627 142.501C80.2627 136.898 84.7284 132.349 90.2423 132.349H91.6684C97.179 132.349 101.648 136.898 101.648 142.501C101.648 148.103 97.179 152.653 91.6684 152.653Z" fill="#9665FD" fill-opacity="0.8"/>
<g style="mix-blend-mode:multiply">
<path d="M186.744 93.6383H69.1843C31.0122 93.6383 0.0675659 124.547 0.0675659 162.675V370.871C0.0675659 408.999 31.0122 439.908 69.1843 439.908H186.744C224.916 439.908 255.861 408.999 255.861 370.871V162.675C255.861 124.547 224.916 93.6383 186.744 93.6383Z" fill="white"/>
<path d="M191.981 90.6657H71.2487C34.2273 90.6657 4.21558 120.643 4.21558 157.621V368.635C4.21558 405.613 34.2273 435.59 71.2487 435.59H191.981C229.003 435.59 259.015 405.613 259.015 368.635V157.621C259.015 120.643 229.003 90.6657 191.981 90.6657Z" fill="#FEFEFE"/>
<path d="M197.219 87.6963H73.3133C37.4426 87.6963 8.36371 116.741 8.36371 152.57V366.401C8.36371 402.23 37.4426 431.275 73.3133 431.275H197.219C233.09 431.275 262.169 402.23 262.169 366.401V152.57C262.169 116.741 233.09 87.6963 197.219 87.6963Z" fill="#FDFCFC"/>
<path d="M202.46 84.7236H75.3778C40.6579 84.7236 12.5118 112.837 12.5118 147.516V364.165C12.5118 398.844 40.6579 426.958 75.3778 426.958H202.46C237.18 426.958 265.326 398.844 265.326 364.165V147.516C265.326 112.837 237.18 84.7236 202.46 84.7236Z" fill="#FBFBFB"/>
<path d="M207.697 81.7542H77.4423C43.8731 81.7542 16.6599 108.936 16.6599 142.466V361.931C16.6599 395.462 43.8731 422.643 77.4423 422.643H207.697C241.266 422.643 268.48 395.462 268.48 361.931V142.466C268.48 108.936 241.266 81.7542 207.697 81.7542Z" fill="#FAFAFA"/>
<path d="M212.935 78.7816H79.5068C47.0883 78.7816 20.8079 105.031 20.8079 137.412V359.698C20.8079 392.079 47.0883 418.329 79.5068 418.329H212.935C245.353 418.329 271.634 392.079 271.634 359.698V137.412C271.634 105.031 245.353 78.7816 212.935 78.7816Z" fill="#F9F9F9"/>
<path d="M218.172 75.809H81.5745C50.305 75.809 24.9561 101.128 24.9561 132.362V357.458C24.9561 388.691 50.305 414.011 81.5745 414.011H218.172C249.442 414.011 274.791 388.691 274.791 357.458V132.362C274.791 101.128 249.442 75.809 218.172 75.809Z" fill="#F8F7F7"/>
<path d="M223.41 72.8396H83.639C53.5202 72.8396 29.1041 97.2272 29.1041 127.311V355.225C29.1041 385.309 53.5202 409.696 83.639 409.696H223.41C253.528 409.696 277.945 385.309 277.945 355.225V127.311C277.945 97.2272 253.528 72.8396 223.41 72.8396Z" fill="#F7F6F6"/>
<path d="M228.647 69.8669H85.7035C56.7355 69.8669 33.2522 93.3229 33.2522 122.257V352.988C33.2522 381.923 56.7355 405.378 85.7035 405.378H228.647C257.615 405.378 281.099 381.923 281.099 352.988V122.257C281.099 93.3229 257.615 69.8669 228.647 69.8669Z" fill="#F5F5F5"/>
<path d="M233.885 66.8975H87.768C59.9507 66.8975 37.4003 89.4217 37.4003 117.207V350.755C37.4003 378.54 59.9507 401.064 87.768 401.064H233.885C261.702 401.064 284.252 378.54 284.252 350.755V117.207C284.252 89.4217 261.702 66.8975 233.885 66.8975Z" fill="#F4F3F3"/>
<path d="M239.129 63.9249H89.8357C63.1691 63.9249 41.5515 85.5173 41.5515 112.153V348.521C41.5515 375.157 63.1691 396.749 89.8357 396.749H239.129C265.795 396.749 287.413 375.157 287.413 348.521V112.153C287.413 85.5173 265.795 63.9249 239.129 63.9249Z" fill="#F3F2F2"/>
<path d="M244.366 60.9523H91.9003C66.3844 60.9523 45.6996 81.6129 45.6996 107.099V346.285C45.6996 371.771 66.3844 392.432 91.9003 392.432H244.366C269.882 392.432 290.567 371.771 290.567 346.285V107.099C290.567 81.6129 269.882 60.9523 244.366 60.9523Z" fill="#F2F1F1"/>
<path d="M249.6 57.9828H93.9679C69.601 57.9828 49.8477 77.7132 49.8477 102.052V344.048C49.8477 368.387 69.601 388.117 93.9679 388.117H249.6C273.967 388.117 293.721 368.387 293.721 344.048V102.052C293.721 77.7132 273.967 57.9828 249.6 57.9828Z" fill="#F1F0F0"/>
<path d="M254.841 55.0103H96.0325C72.8163 55.0103 53.9958 73.8088 53.9958 96.998V341.812C53.9958 365.001 72.8163 383.799 96.0325 383.799H254.841C278.057 383.799 296.878 365.001 296.878 341.812V96.998C296.878 73.8088 278.057 55.0103 254.841 55.0103Z" fill="#F0EEEE"/>
<path d="M260.079 52.0408H98.097C76.0315 52.0408 58.1439 69.9076 58.1439 91.9474V339.578C58.1439 361.618 76.0315 379.485 98.097 379.485H260.079C282.144 379.485 300.032 361.618 300.032 339.578V91.9474C300.032 69.9076 282.144 52.0408 260.079 52.0408Z" fill="#EEEDED"/>
<path d="M265.316 49.0682H100.162C79.2468 49.0682 62.292 66.0032 62.292 86.8936V337.345C62.292 358.235 79.2468 375.17 100.162 375.17H265.316C286.231 375.17 303.186 358.235 303.186 337.345V86.8936C303.186 66.0032 286.231 49.0682 265.316 49.0682Z" fill="#EDECEC"/>
<path d="M270.554 46.0956H102.226C82.462 46.0956 66.4401 62.0989 66.4401 81.8399V335.108C66.4401 354.849 82.462 370.852 102.226 370.852H270.554C290.318 370.852 306.34 354.849 306.34 335.108V81.8399C306.34 62.0989 290.318 46.0956 270.554 46.0956Z" fill="#ECEAEA"/>
<path d="M275.794 43.1262H104.291C85.6772 43.1262 70.5881 58.1977 70.5881 76.7893V332.875C70.5881 351.466 85.6772 366.538 104.291 366.538H275.794C294.408 366.538 309.497 351.466 309.497 332.875V76.7893C309.497 58.1977 294.408 43.1262 275.794 43.1262Z" fill="#EBE9E9"/>
<path d="M281.029 40.1536H106.358C88.8939 40.1536 74.7362 54.2947 74.7362 71.7387V330.635C74.7362 348.079 88.8939 362.22 106.358 362.22H281.029C298.493 362.22 312.651 348.079 312.651 330.635V71.7387C312.651 54.2947 298.493 40.1536 281.029 40.1536Z" fill="#EAE8E8"/>
<path d="M286.266 37.1841H108.423C92.109 37.1841 78.8842 50.3935 78.8842 66.6881V328.402C78.8842 344.696 92.109 357.906 108.423 357.906H286.266C302.58 357.906 315.805 344.696 315.805 328.402V66.6881C315.805 50.3935 302.58 37.1841 286.266 37.1841Z" fill="#E8E7E7"/>
<path d="M291.507 34.2115H110.487C95.3243 34.2115 83.0323 46.4892 83.0323 61.6344V326.168C83.0323 341.313 95.3243 353.591 110.487 353.591H291.507C306.67 353.591 318.962 341.313 318.962 326.168V61.6344C318.962 46.4892 306.67 34.2115 291.507 34.2115Z" fill="#E7E5E5"/>
<path d="M296.748 31.2389H112.555C98.5428 31.2389 87.1837 42.5848 87.1837 56.5806V323.931C87.1837 337.927 98.5428 349.273 112.555 349.273H296.748C310.76 349.273 322.119 337.927 322.119 323.931V56.5806C322.119 42.5848 310.76 31.2389 296.748 31.2389Z" fill="#E6E4E4"/>
<path d="M297.45 30.5568H113.257C99.2447 30.5568 87.8856 41.9027 87.8856 55.8986V323.249C87.8856 337.245 99.2447 348.591 113.257 348.591H297.45C311.462 348.591 322.821 337.245 322.821 323.249V55.8986C322.821 41.9027 311.462 30.5568 297.45 30.5568Z" fill="#E5E3E3"/>
<path d="M298.155 29.8747H113.962C99.9498 29.8747 88.5907 41.2206 88.5907 55.2165V322.567C88.5907 336.563 99.9498 347.909 113.962 347.909H298.155C312.167 347.909 323.526 336.563 323.526 322.567V55.2165C323.526 41.2206 312.167 29.8747 298.155 29.8747Z" fill="#E5E3E3"/>
<path d="M298.86 29.1927H114.667C100.655 29.1927 89.2958 40.5385 89.2958 54.5344V321.885C89.2958 335.881 100.655 347.227 114.667 347.227H298.86C312.872 347.227 324.231 335.881 324.231 321.885V54.5344C324.231 40.5385 312.872 29.1927 298.86 29.1927Z" fill="#E4E2E2"/>
<path d="M299.562 28.5106H115.369C101.357 28.5106 89.9977 39.8564 89.9977 53.8523V321.203C89.9977 335.199 101.357 346.545 115.369 346.545H299.562C313.574 346.545 324.933 335.199 324.933 321.203V53.8523C324.933 39.8564 313.574 28.5106 299.562 28.5106Z" fill="#E4E2E2"/>
<path d="M300.267 27.8253H116.074C102.062 27.8253 90.7028 39.1712 90.7028 53.1671V320.518C90.7028 334.514 102.062 345.86 116.074 345.86H300.267C314.279 345.86 325.638 334.514 325.638 320.518V53.1671C325.638 39.1712 314.279 27.8253 300.267 27.8253Z" fill="#E3E1E1"/>
<path d="M300.972 27.1432H116.779C102.767 27.1432 91.408 38.4891 91.408 52.485V319.836C91.408 333.832 102.767 345.178 116.779 345.178H300.972C314.984 345.178 326.343 333.832 326.343 319.836V52.485C326.343 38.4891 314.984 27.1432 300.972 27.1432Z" fill="#E3E0E0"/>
<path d="M301.674 26.4612H117.481C103.469 26.4612 92.1099 37.807 92.1099 51.8029V319.154C92.1099 333.15 103.469 344.496 117.481 344.496H301.674C315.686 344.496 327.045 333.15 327.045 319.154V51.8029C327.045 37.807 315.686 26.4612 301.674 26.4612Z" fill="#E2E0E0"/>
<path d="M302.379 25.7791H118.186C104.174 25.7791 92.8151 37.1249 92.8151 51.1208V318.472C92.8151 332.468 104.174 343.813 118.186 343.813H302.379C316.391 343.813 327.75 332.468 327.75 318.472V51.1208C327.75 37.1249 316.391 25.7791 302.379 25.7791Z" fill="#E2DFDF"/>
<path d="M303.084 25.0938H118.891C104.879 25.0938 93.5201 36.4397 93.5201 50.4356V317.786C93.5201 331.782 104.879 343.128 118.891 343.128H303.084C317.096 343.128 328.455 331.782 328.455 317.786V50.4356C328.455 36.4397 317.096 25.0938 303.084 25.0938Z" fill="#E1DEDE"/>
<path d="M303.786 24.4117H119.593C105.581 24.4117 94.222 35.7576 94.222 49.7535V317.104C94.222 331.1 105.581 342.446 119.593 342.446H303.786C317.798 342.446 329.157 331.1 329.157 317.104V49.7535C329.157 35.7576 317.798 24.4117 303.786 24.4117Z" fill="#E1DEDE"/>
<path d="M304.491 23.7296H120.298C106.286 23.7296 94.9271 35.0755 94.9271 49.0714V316.422C94.9271 330.418 106.286 341.764 120.298 341.764H304.491C318.503 341.764 329.862 330.418 329.862 316.422V49.0714C329.862 35.0755 318.503 23.7296 304.491 23.7296Z" fill="#E0DDDD"/>
<path d="M305.196 23.0475H121.004C106.991 23.0475 95.6323 34.3934 95.6323 48.3893V315.74C95.6323 329.736 106.991 341.082 121.004 341.082H305.196C319.208 341.082 330.567 329.736 330.567 315.74V48.3893C330.567 34.3934 319.208 23.0475 305.196 23.0475Z" fill="#E0DDDD"/>
<path d="M305.901 22.3623H121.709C107.696 22.3623 96.3373 33.7082 96.3373 47.704V315.055C96.3373 329.051 107.696 340.397 121.709 340.397H305.901C319.913 340.397 331.273 329.051 331.273 315.055V47.704C331.273 33.7082 319.913 22.3623 305.901 22.3623Z" fill="#DFDCDC"/>
<path d="M306.603 21.6802H122.411C108.398 21.6802 97.0393 33.0261 97.0393 47.022V314.373C97.0393 328.369 108.398 339.715 122.411 339.715H306.603C320.615 339.715 331.975 328.369 331.975 314.373V47.022C331.975 33.0261 320.615 21.6802 306.603 21.6802Z" fill="#DFDBDB"/>
<path d="M307.308 20.9981H123.116C109.104 20.9981 97.7444 32.344 97.7444 46.3399V313.691C97.7444 327.687 109.104 339.033 123.116 339.033H307.308C321.321 339.033 332.68 327.687 332.68 313.691V46.3399C332.68 32.344 321.321 20.9981 307.308 20.9981Z" fill="#DEDBDB"/>
<path d="M308.014 20.3161H123.821C109.809 20.3161 98.4496 31.662 98.4496 45.6578V313.009C98.4496 327.005 109.809 338.35 123.821 338.35H308.014C322.026 338.35 333.385 327.005 333.385 313.009V45.6578C333.385 31.662 322.026 20.3161 308.014 20.3161Z" fill="#DEDADA"/>
<path d="M308.715 19.634H124.523C110.511 19.634 99.1514 30.9799 99.1514 44.9757V312.327C99.1514 326.322 110.511 337.668 124.523 337.668H308.715C322.728 337.668 334.087 326.322 334.087 312.327V44.9757C334.087 30.9799 322.728 19.634 308.715 19.634Z" fill="#DDD9D9"/>
<path d="M309.421 18.9487H125.228C111.216 18.9487 99.8566 30.2946 99.8566 44.2905V311.641C99.8566 325.637 111.216 336.983 125.228 336.983H309.421C323.433 336.983 334.792 325.637 334.792 311.641V44.2905C334.792 30.2946 323.433 18.9487 309.421 18.9487Z" fill="#DDD9D9"/>
<path d="M310.126 18.2666H125.933C111.921 18.2666 100.562 29.6125 100.562 43.6084V310.959C100.562 324.955 111.921 336.301 125.933 336.301H310.126C324.138 336.301 335.497 324.955 335.497 310.959V43.6084C335.497 29.6125 324.138 18.2666 310.126 18.2666Z" fill="#DCD8D8"/>
<path d="M310.828 17.5846H126.635C112.623 17.5846 101.264 28.9304 101.264 42.9263V310.277C101.264 324.273 112.623 335.619 126.635 335.619H310.828C324.84 335.619 336.199 324.273 336.199 310.277V42.9263C336.199 28.9304 324.84 17.5846 310.828 17.5846Z" fill="#DCD8D8"/>
<path d="M311.533 16.9025H127.34C113.328 16.9025 101.969 28.2483 101.969 42.2442V309.595C101.969 323.591 113.328 334.937 127.34 334.937H311.533C325.545 334.937 336.904 323.591 336.904 309.595V42.2442C336.904 28.2483 325.545 16.9025 311.533 16.9025Z" fill="#DBD7D7"/>
<path d="M311.971 16.4932H127.778C113.766 16.4932 102.407 27.8391 102.407 41.835V309.186C102.407 323.182 113.766 334.528 127.778 334.528H311.971C325.983 334.528 337.342 323.182 337.342 309.186V41.835C337.342 27.8391 325.983 16.4932 311.971 16.4932Z" fill="#DAD6D6"/>
<path d="M312.409 16.084H128.217C114.204 16.084 102.845 27.4299 102.845 41.4257V308.777C102.845 322.772 114.204 334.118 128.217 334.118H312.409C326.421 334.118 337.781 322.772 337.781 308.777V41.4257C337.781 27.4299 326.421 16.084 312.409 16.084Z" fill="#D9D5D5"/>
<path d="M312.844 15.6747H128.652C114.64 15.6747 103.281 27.0206 103.281 41.0165V308.367C103.281 322.363 114.64 333.709 128.652 333.709H312.844C326.857 333.709 338.216 322.363 338.216 308.367V41.0165C338.216 27.0206 326.857 15.6747 312.844 15.6747Z" fill="#D8D4D4"/>
<path d="M313.283 15.2655H129.09C115.078 15.2655 103.719 26.6114 103.719 40.6072V307.958C103.719 321.954 115.078 333.3 129.09 333.3H313.283C327.295 333.3 338.654 321.954 338.654 307.958V40.6072C338.654 26.6114 327.295 15.2655 313.283 15.2655Z" fill="#D7D3D2"/>
<path d="M313.721 14.8562H129.528C115.516 14.8562 104.157 26.2021 104.157 40.198V307.549C104.157 321.545 115.516 332.891 129.528 332.891H313.721C327.733 332.891 339.092 321.545 339.092 307.549V40.198C339.092 26.2021 327.733 14.8562 313.721 14.8562Z" fill="#D6D2D1"/>
<path d="M314.159 14.447H129.967C115.955 14.447 104.595 25.7929 104.595 39.7887V307.14C104.595 321.135 115.955 332.481 129.967 332.481H314.159C328.171 332.481 339.531 321.135 339.531 307.14V39.7887C339.531 25.7929 328.171 14.447 314.159 14.447Z" fill="#D5D1D0"/>
<path d="M314.594 14.0377H130.402C116.39 14.0377 105.031 25.3836 105.031 39.3795V306.73C105.031 320.726 116.39 332.072 130.402 332.072H314.594C328.607 332.072 339.966 320.726 339.966 306.73V39.3795C339.966 25.3836 328.607 14.0377 314.594 14.0377Z" fill="#D4D0CF"/>
<path d="M315.033 13.6285H130.84C116.828 13.6285 105.469 24.9744 105.469 38.9702V306.321C105.469 320.317 116.828 331.663 130.84 331.663H315.033C329.045 331.663 340.404 320.317 340.404 306.321V38.9702C340.404 24.9744 329.045 13.6285 315.033 13.6285Z" fill="#D3CFCE"/>
<path d="M315.471 13.2192H131.279C117.266 13.2192 105.907 24.5651 105.907 38.561V305.912C105.907 319.908 117.266 331.254 131.279 331.254H315.471C329.483 331.254 340.842 319.908 340.842 305.912V38.561C340.842 24.5651 329.483 13.2192 315.471 13.2192Z" fill="#D2CECD"/>
<path d="M315.909 12.81H131.717C117.705 12.81 106.346 24.1559 106.346 38.1517V305.503C106.346 319.498 117.705 330.844 131.717 330.844H315.909C329.922 330.844 341.281 319.498 341.281 305.503V38.1517C341.281 24.1559 329.922 12.81 315.909 12.81Z" fill="#D1CDCC"/>
<path d="M316.345 12.4007H132.152C118.14 12.4007 106.781 23.7466 106.781 37.7425V305.093C106.781 319.089 118.14 330.435 132.152 330.435H316.345C330.357 330.435 341.716 319.089 341.716 305.093V37.7425C341.716 23.7466 330.357 12.4007 316.345 12.4007Z" fill="#D1CBCA"/>
<path d="M316.783 11.9915H132.59C118.578 11.9915 107.219 23.3374 107.219 37.3332V304.684C107.219 318.68 118.578 330.026 132.59 330.026H316.783C330.795 330.026 342.154 318.68 342.154 304.684V37.3332C342.154 23.3374 330.795 11.9915 316.783 11.9915Z" fill="#D0CAC9"/>
<path d="M317.221 11.5822H133.029C119.016 11.5822 107.657 22.9281 107.657 36.924V304.275C107.657 318.271 119.016 329.617 133.029 329.617H317.221C331.233 329.617 342.592 318.271 342.592 304.275V36.924C342.592 22.9281 331.233 11.5822 317.221 11.5822Z" fill="#CFC9C8"/>
<path d="M317.659 11.173H133.467C119.455 11.173 108.096 22.5189 108.096 36.5147V303.866C108.096 317.861 119.455 329.207 133.467 329.207H317.659C331.672 329.207 343.031 317.861 343.031 303.866V36.5147C343.031 22.5189 331.672 11.173 317.659 11.173Z" fill="#CEC8C7"/>
<path d="M318.095 10.7637H133.902C119.89 10.7637 108.531 22.1096 108.531 36.1055V303.456C108.531 317.452 119.89 328.798 133.902 328.798H318.095C332.107 328.798 343.466 317.452 343.466 303.456V36.1055C343.466 22.1096 332.107 10.7637 318.095 10.7637Z" fill="#CDC7C6"/>
<path d="M318.533 10.3545H134.34C120.328 10.3545 108.969 21.7004 108.969 35.6962V303.047C108.969 317.043 120.328 328.389 134.34 328.389H318.533C332.545 328.389 343.904 317.043 343.904 303.047V35.6962C343.904 21.7004 332.545 10.3545 318.533 10.3545Z" fill="#CCC6C5"/>
<path d="M318.971 9.94525H134.779C120.766 9.94525 109.407 21.2911 109.407 35.287V302.638C109.407 316.634 120.766 327.98 134.779 327.98H318.971C332.983 327.98 344.342 316.634 344.342 302.638V35.287C344.342 21.2911 332.983 9.94525 318.971 9.94525Z" fill="#CBC5C4"/>
<path d="M319.41 9.53915H135.217C121.205 9.53915 109.846 20.885 109.846 34.8809V302.232C109.846 316.228 121.205 327.574 135.217 327.574H319.41C333.422 327.574 344.781 316.228 344.781 302.232V34.8809C344.781 20.885 333.422 9.53915 319.41 9.53915Z" fill="#CAC4C2"/>
<path d="M319.845 9.12991H135.652C121.64 9.12991 110.281 20.4758 110.281 34.4717V301.823C110.281 315.818 121.64 327.164 135.652 327.164H319.845C333.857 327.164 345.216 315.818 345.216 301.823V34.4717C345.216 20.4758 333.857 9.12991 319.845 9.12991Z" fill="#C9C3C1"/>
<path d="M320.283 8.72067H136.09C122.078 8.72067 110.719 20.0666 110.719 34.0624V301.413C110.719 315.409 122.078 326.755 136.09 326.755H320.283C334.295 326.755 345.654 315.409 345.654 301.413V34.0624C345.654 20.0666 334.295 8.72067 320.283 8.72067Z" fill="#C8C2C0"/>
<path d="M320.721 8.3114H136.529C122.517 8.3114 111.157 19.6573 111.157 33.6531V301.004C111.157 315 122.517 326.346 136.529 326.346H320.721C334.734 326.346 346.093 315 346.093 301.004V33.6531C346.093 19.6573 334.734 8.3114 320.721 8.3114Z" fill="#C7C1BF"/>
<path d="M321.103 8.00369H136.91C122.898 8.00369 111.539 19.3496 111.539 33.3454V300.696C111.539 314.692 122.898 326.038 136.91 326.038H321.103C335.115 326.038 346.474 314.692 346.474 300.696V33.3454C346.474 19.3496 335.115 8.00369 321.103 8.00369Z" fill="#C5BFBD"/>
<path d="M321.487 7.69278H137.294C123.282 7.69278 111.923 19.0387 111.923 33.0345V300.385C111.923 314.381 123.282 325.727 137.294 325.727H321.487C335.499 325.727 346.858 314.381 346.858 300.385V33.0345C346.858 19.0387 335.499 7.69278 321.487 7.69278Z" fill="#C2BCBA"/>
<path d="M321.868 7.38504H137.675C123.663 7.38504 112.304 18.7309 112.304 32.7268V300.078C112.304 314.074 123.663 325.419 137.675 325.419H321.868C335.88 325.419 347.239 314.074 347.239 300.078V32.7268C347.239 18.7309 335.88 7.38504 321.868 7.38504Z" fill="#C0BAB8"/>
<path d="M322.252 7.07733H138.06C124.047 7.07733 112.688 18.4232 112.688 32.4191V299.77C112.688 313.766 124.047 325.112 138.06 325.112H322.252C336.264 325.112 347.624 313.766 347.624 299.77V32.4191C347.624 18.4232 336.264 7.07733 322.252 7.07733Z" fill="#BDB7B5"/>
<path d="M322.633 6.76959H138.441C124.429 6.76959 113.069 18.1155 113.069 32.1113V299.462C113.069 313.458 124.429 324.804 138.441 324.804H322.633C336.646 324.804 348.005 313.458 348.005 299.462V32.1113C348.005 18.1155 336.646 6.76959 322.633 6.76959Z" fill="#BBB5B3"/>
<path d="M323.014 6.46185H138.822C124.81 6.46185 113.451 17.8077 113.451 31.8036V299.154C113.451 313.15 124.81 324.496 138.822 324.496H323.014C337.027 324.496 348.386 313.15 348.386 299.154V31.8036C348.386 17.8077 337.027 6.46185 323.014 6.46185Z" fill="#B8B2B0"/>
<path d="M323.399 6.15414H139.206C125.194 6.15414 113.835 17.5 113.835 31.4959V298.847C113.835 312.843 125.194 324.189 139.206 324.189H323.399C337.411 324.189 348.77 312.843 348.77 298.847V31.4959C348.77 17.5 337.411 6.15414 323.399 6.15414Z" fill="#B6B0AE"/>
<path d="M323.78 5.84641H139.587C125.575 5.84641 114.216 17.1923 114.216 31.1881V298.539C114.216 312.535 125.575 323.881 139.587 323.881H323.78C337.792 323.881 349.151 312.535 349.151 298.539V31.1881C349.151 17.1923 337.792 5.84641 323.78 5.84641Z" fill="#B4ADAB"/>
<path d="M324.164 5.53867H139.972C125.96 5.53867 114.6 16.8846 114.6 30.8804V298.231C114.6 312.227 125.96 323.573 139.972 323.573H324.164C338.176 323.573 349.536 312.227 349.536 298.231V30.8804C349.536 16.8846 338.176 5.53867 324.164 5.53867Z" fill="#B1ABA9"/>
<path d="M324.545 5.23093H140.353C126.341 5.23093 114.982 16.5768 114.982 30.5727V297.924C114.982 311.919 126.341 323.265 140.353 323.265H324.545C338.558 323.265 349.917 311.919 349.917 297.924V30.5727C349.917 16.5768 338.558 5.23093 324.545 5.23093Z" fill="#AFA8A6"/>
<path d="M324.93 4.92322H140.737C126.725 4.92322 115.366 16.2691 115.366 30.265V297.616C115.366 311.612 126.725 322.958 140.737 322.958H324.93C338.942 322.958 350.301 311.612 350.301 297.616V30.265C350.301 16.2691 338.942 4.92322 324.93 4.92322Z" fill="#ACA6A4"/>
<path d="M325.311 4.6123H141.118C127.106 4.6123 115.747 15.9582 115.747 29.954V297.305C115.747 311.301 127.106 322.647 141.118 322.647H325.311C339.323 322.647 350.682 311.301 350.682 297.305V29.954C350.682 15.9582 339.323 4.6123 325.311 4.6123Z" fill="#AAA3A1"/>
<path d="M325.695 4.30457H141.503C127.49 4.30457 116.131 15.6504 116.131 29.6463V296.997C116.131 310.993 127.49 322.339 141.503 322.339H325.695C339.707 322.339 351.066 310.993 351.066 296.997V29.6463C351.066 15.6504 339.707 4.30457 325.695 4.30457Z" fill="#A7A19F"/>
<path d="M326.076 3.99686H141.884C127.872 3.99686 116.512 15.3427 116.512 29.3386V296.689C116.512 310.685 127.872 322.031 141.884 322.031H326.076C340.089 322.031 351.448 310.685 351.448 296.689V29.3386C351.448 15.3427 340.089 3.99686 326.076 3.99686Z" fill="#A59E9C"/>
<path d="M326.461 3.68912H142.268C128.256 3.68912 116.897 15.035 116.897 29.0309V296.382C116.897 310.378 128.256 321.723 142.268 321.723H326.461C340.473 321.723 351.832 310.378 351.832 296.382V29.0309C351.832 15.035 340.473 3.68912 326.461 3.68912Z" fill="#A39C9A"/>
<path d="M326.842 3.38138H142.649C128.637 3.38138 117.278 14.7273 117.278 28.7231V296.074C117.278 310.07 128.637 321.416 142.649 321.416H326.842C340.854 321.416 352.213 310.07 352.213 296.074V28.7231C352.213 14.7273 340.854 3.38138 326.842 3.38138Z" fill="#A09997"/>
<path d="M327.223 3.07367H143.03C129.018 3.07367 117.659 14.4196 117.659 28.4154V295.766C117.659 309.762 129.018 321.108 143.03 321.108H327.223C341.235 321.108 352.594 309.762 352.594 295.766V28.4154C352.594 14.4196 341.235 3.07367 327.223 3.07367Z" fill="#9E9795"/>
<path d="M327.607 2.76593H143.415C129.402 2.76593 118.043 14.1118 118.043 28.1077V295.459C118.043 309.454 129.402 320.8 143.415 320.8H327.607C341.619 320.8 352.979 309.454 352.979 295.459V28.1077C352.979 14.1118 341.619 2.76593 327.607 2.76593Z" fill="#9B9492"/>
<path d="M327.988 2.45819H143.796C129.784 2.45819 118.424 13.8041 118.424 27.7999V295.151C118.424 309.147 129.784 320.493 143.796 320.493H327.988C342.001 320.493 353.36 309.147 353.36 295.151V27.7999C353.36 13.8041 342.001 2.45819 327.988 2.45819Z" fill="#999290"/>
<path d="M328.373 2.15045H144.18C130.168 2.15045 118.809 13.4963 118.809 27.4922V294.843C118.809 308.839 130.168 320.185 144.18 320.185H328.373C342.385 320.185 353.744 308.839 353.744 294.843V27.4922C353.744 13.4963 342.385 2.15045 328.373 2.15045Z" fill="#968F8D"/>
<path d="M328.754 1.83957H144.561C130.549 1.83957 119.19 13.1855 119.19 27.1813V294.532C119.19 308.528 130.549 319.874 144.561 319.874H328.754C342.766 319.874 354.125 308.528 354.125 294.532V27.1813C354.125 13.1855 342.766 1.83957 328.754 1.83957Z" fill="#948D8B"/>
</g>
<path d="M462.595 176.411H461.168C455.655 176.411 451.189 180.751 451.189 186.106C451.189 191.462 455.655 195.805 461.168 195.805H462.595C468.105 195.805 472.574 191.462 472.574 186.106C472.574 180.751 468.105 176.411 462.595 176.411Z" fill="#9665FD" fill-opacity="0.8"/>
<path d="M411.839 165.663C411.865 165.46 411.893 165.254 411.935 165.054C411.96 164.927 411.995 164.803 412.027 164.68C412.068 164.505 412.109 164.331 412.163 164.162C412.217 163.994 412.252 163.896 412.3 163.763C412.348 163.629 412.411 163.445 412.471 163.306C412.532 163.166 412.595 163.033 412.659 162.897C412.722 162.76 412.786 162.627 412.859 162.494C412.932 162.36 413.011 162.215 413.094 162.078C413.177 161.942 413.237 161.843 413.313 161.729C413.389 161.615 413.504 161.447 413.602 161.31C413.701 161.174 413.751 161.114 413.828 161.019C413.942 160.876 414.06 160.733 414.18 160.597C414.25 160.517 414.323 160.441 414.396 160.365C414.536 160.219 414.676 160.076 414.822 159.94L415.003 159.781C415.171 159.629 415.343 159.483 415.524 159.347L415.619 159.274C417.034 158.212 418.703 157.54 420.46 157.326H464.021C469.531 157.326 474 152.983 474 147.628C474 142.272 469.531 137.929 464.021 137.929H393.913C393.145 137.765 392.399 137.512 391.69 137.174C391.617 137.139 391.544 137.111 391.474 137.073C391.296 136.984 391.124 136.889 390.956 136.79L390.696 136.638C390.537 136.54 390.378 136.438 390.232 136.321L389.962 136.124C389.822 136.019 389.682 135.912 389.546 135.807C389.409 135.702 389.368 135.651 389.279 135.572C389.19 135.493 389.025 135.344 388.904 135.223C388.784 135.103 388.726 135.033 388.637 134.941C388.549 134.849 388.415 134.706 388.32 134.582C388.142 134.371 387.974 134.152 387.815 133.926C387.742 133.824 387.681 133.719 387.615 133.608C387.548 133.497 387.424 133.32 387.338 133.167C387.253 133.015 387.218 132.942 387.157 132.828C387.097 132.714 387.002 132.527 386.932 132.371C386.862 132.216 386.83 132.136 386.783 132.019C386.735 131.902 386.656 131.702 386.598 131.53C386.541 131.359 386.519 131.292 386.484 131.172C386.43 130.997 386.386 130.823 386.344 130.645C386.316 130.528 386.287 130.414 386.265 130.296C386.224 130.096 386.195 129.893 386.17 129.69C386.17 129.589 386.138 129.49 386.128 129.389C386.095 129.08 386.078 128.77 386.077 128.459C386.077 123.104 390.546 118.761 396.06 118.761H429.728V118.584H440.26C445.771 118.584 450.239 114.244 450.239 108.888C450.239 103.533 445.771 99.1902 440.26 99.1902H416.311C416.016 99.1426 415.724 99.0855 415.438 99.0125C413.514 98.5323 411.775 97.4935 410.442 96.0272L410.337 95.9162C410.204 95.7639 410.083 95.5989 409.959 95.4498C409.896 95.3673 409.832 95.288 409.772 95.2055C409.667 95.0628 409.572 94.9168 409.476 94.7677C409.381 94.6186 409.337 94.552 409.273 94.4505C409.21 94.349 409.114 94.1745 409.038 94.0317C408.962 93.889 408.908 93.7716 408.844 93.6415C408.781 93.5114 408.72 93.3687 408.663 93.2323C408.606 93.0958 408.549 92.934 408.495 92.7818C408.441 92.6295 408.403 92.5216 408.361 92.3852C408.32 92.2488 408.269 92.0457 408.228 91.8744C408.196 91.7507 408.165 91.627 408.139 91.5033C408.098 91.3034 408.069 91.1035 408.044 90.9005C408.044 90.7958 408.009 90.6911 407.999 90.5832C407.966 90.2671 407.949 89.9494 407.949 89.6315C407.949 89.3142 407.968 89.016 407.996 88.7146C407.996 88.6163 408.022 88.5211 408.034 88.4228C408.063 88.2197 408.092 88.0199 408.13 87.82C408.152 87.709 408.177 87.5979 408.203 87.4837C408.247 87.3061 408.292 87.1252 408.346 86.9508C408.377 86.8365 408.412 86.7223 408.45 86.6113C408.508 86.44 408.574 86.2687 408.641 86.1005C408.685 85.9958 408.724 85.888 408.771 85.7833C408.86 85.5834 408.962 85.3867 409.063 85.1932C409.165 84.9997 409.241 84.876 409.337 84.7173C409.432 84.5587 409.499 84.4477 409.588 84.3176C409.676 84.1875 409.772 84.0575 409.87 83.9306C409.969 83.8037 410.013 83.737 410.089 83.645C410.166 83.553 410.312 83.3785 410.429 83.2485L410.636 83.0264C410.769 82.89 410.902 82.7567 411.039 82.6267L411.191 82.4934C411.927 81.8371 412.757 81.2939 413.653 80.8818L413.739 80.8406C413.958 80.7422 414.18 80.6502 414.409 80.5677L414.507 80.5328C414.742 80.4503 414.981 80.371 415.225 80.3044C415.543 80.2219 415.86 80.1553 416.178 80.0982H208.139V253.633H398.287C393.294 253.1 389.412 248.988 389.412 243.998C389.412 238.643 393.881 234.3 399.392 234.3H400.818C406.329 234.3 410.798 238.643 410.798 243.998C410.798 248.988 406.913 253.1 401.923 253.633H428.286C423.734 252.732 420.31 248.833 420.31 244.147C420.31 238.973 424.484 234.756 429.737 234.474V234.449H457.37C462.881 234.449 467.349 230.106 467.349 224.75C467.349 219.395 462.881 215.055 457.37 215.055H392.258C386.744 215.055 382.276 210.712 382.276 205.357C382.276 205.039 382.293 204.721 382.326 204.405C382.326 204.301 382.355 204.199 382.371 204.088C382.396 203.885 382.425 203.682 382.463 203.485C382.488 203.362 382.52 203.241 382.552 203.12C382.593 202.946 382.635 202.771 382.688 202.603C382.742 202.435 382.771 202.343 382.816 202.216C382.86 202.089 382.927 201.899 382.99 201.759C383.054 201.62 383.101 201.493 383.162 201.363C383.222 201.233 383.295 201.09 383.362 200.957C383.429 200.824 383.508 200.687 383.584 200.554C383.66 200.421 383.727 200.322 383.8 200.211C383.873 200.1 383.981 199.929 384.08 199.793C384.143 199.704 384.213 199.618 384.28 199.532C384.397 199.38 384.512 199.215 384.639 199.085L384.724 198.993C385.447 198.186 386.297 197.503 387.24 196.969L387.278 196.947C387.507 196.817 387.745 196.699 387.986 196.588L388.063 196.553C388.301 196.446 388.545 196.347 388.793 196.255L388.876 196.227C389.13 196.138 389.387 196.059 389.647 195.992H389.711C389.981 195.922 390.257 195.862 390.537 195.814H430.754C436.264 195.814 440.733 191.471 440.733 186.116C440.733 180.761 436.264 176.421 430.754 176.421H419.612C419.125 176.316 418.646 176.176 418.179 176.002C418.106 175.974 418.03 175.951 417.96 175.923C417.782 175.853 417.611 175.774 417.442 175.694L417.125 175.552C416.966 175.472 416.807 175.387 416.661 175.298C416.515 175.209 416.448 175.177 416.343 175.114C416.238 175.05 416.057 174.93 415.918 174.835L415.6 174.609C415.47 174.508 415.34 174.41 415.213 174.292C415.085 174.175 415.009 174.115 414.895 174.023C414.781 173.931 414.663 173.816 414.552 173.705C414.441 173.594 414.342 173.483 414.234 173.369C414.126 173.255 414.044 173.169 413.955 173.052C413.774 172.836 413.602 172.614 413.44 172.382C413.374 172.287 413.313 172.186 413.25 172.087C413.151 171.938 413.056 171.789 412.964 171.63C412.903 171.523 412.846 171.412 412.789 171.313C412.732 171.215 412.63 170.996 412.557 170.847C412.484 170.698 412.459 170.615 412.411 170.498C412.363 170.381 412.281 170.181 412.224 170.006C412.167 169.832 412.144 169.771 412.109 169.651C412.055 169.476 412.011 169.299 411.97 169.118C411.941 169.004 411.913 168.889 411.89 168.772C411.849 168.572 411.82 168.369 411.795 168.166C411.795 168.065 411.763 167.966 411.754 167.849C411.721 167.539 411.704 167.228 411.703 166.916C411.704 166.598 411.721 166.281 411.754 165.964C411.801 165.872 411.824 165.771 411.839 165.663Z" fill="#9665FD" fill-opacity="0.8"/>
<path d="M328.754 1.83957H144.561C130.549 1.83957 119.19 13.1855 119.19 27.1813V294.532C119.19 308.528 130.549 319.874 144.561 319.874H328.754C342.766 319.874 354.125 308.528 354.125 294.532V27.1813C354.125 13.1855 342.766 1.83957 328.754 1.83957Z" fill="#FCFCFC"/>
<path d="M329.818 9.92622C333.989 9.93126 337.987 11.5884 340.936 14.5341C343.885 17.4798 345.544 21.4736 345.55 25.6395V296.077C345.544 300.243 343.885 304.237 340.936 307.183C337.987 310.128 333.989 311.785 329.818 311.79H143.497C139.327 311.785 135.329 310.128 132.38 307.182C129.431 304.237 127.773 300.243 127.769 296.077V25.6395C127.773 21.4739 129.431 17.4801 132.38 14.5343C135.329 11.5885 139.327 9.93126 143.497 9.92622H329.818ZM329.818 0.00271606H143.497C140.127 0.00271604 136.789 0.665854 133.676 1.95426C130.562 3.24267 127.732 5.13111 125.349 7.51175C122.966 9.89238 121.076 12.7186 119.786 15.829C118.497 18.9393 117.833 22.273 117.834 25.6395V296.077C117.833 299.444 118.497 302.777 119.786 305.888C121.076 308.998 122.966 311.824 125.349 314.205C127.732 316.586 130.562 318.474 133.676 319.762C136.789 321.051 140.127 321.714 143.497 321.714H329.818C336.625 321.714 343.154 319.013 347.967 314.205C352.78 309.397 355.485 302.877 355.485 296.077V25.6395C355.485 18.8402 352.78 12.3194 347.967 7.51155C343.154 2.70373 336.625 0.00271606 329.818 0.00271606Z" fill="url(#paint0_linear_1096_207)"/>
<path d="M135.922 101.677C139.9 98.6276 144.781 96.9869 149.796 97.0138C155.595 97.0138 160.251 98.6953 163.834 102.058C167.417 105.421 169.189 109.672 169.189 114.77C169.189 118.689 168.014 122.39 165.664 125.874C163.252 129.467 159.89 132.323 155.951 134.122C151.73 136.124 145.343 137.466 136.84 138.148V168.81C150.904 168.981 161.385 172.002 168.802 177.88C176.218 183.759 179.858 190.954 179.858 199.453C179.858 207.207 177.072 213.764 171.575 219.122C166.077 224.481 159.127 227.171 150.771 227.171C142.754 227.171 136.249 224.808 131.005 220.081C129.753 218.937 128.638 217.652 127.683 216.251V257.046C134.223 259.032 141.22 260.028 148.963 260.028C168.233 260.028 184.028 254.175 196.479 242.462C208.93 230.75 215.12 216.448 215.12 199.602C215.12 188.103 211.895 178.116 205.445 169.641C198.996 161.167 190.061 155.227 178.642 151.822C187.34 147.564 193.969 141.985 198.528 135.084C203.05 128.318 205.433 120.351 205.369 112.216C205.369 98.7587 200.145 87.1326 189.698 77.3382C179.251 67.5447 166.442 62.6464 151.012 62.6464C142.474 62.6464 134.547 64.0772 127.68 66.9356V113.143C128.992 108.482 131.914 104.656 135.922 101.677Z" fill="#9665FD" fill-opacity="0.8"/>
<path d="M127.683 113.143V66.942C123.757 68.3918 120.816 70.2096 117.545 72.3923V113.514H127.219C127.283 113.514 127.683 113.346 127.683 113.143Z" fill="#70229A"/>
<path d="M117.545 216.086V252.849C120.816 254.55 123.757 255.945 127.683 257.043V216.277C127.029 216.226 127.365 216.086 127.311 216.086H117.545Z" fill="#70229A"/>
<path d="M267.954 277.622L252.158 277.091L252.158 273.341L267.954 272.825L267.954 277.622ZM247.314 272.7C247.97 272.7 248.522 272.929 248.97 273.388C249.408 273.846 249.626 274.46 249.626 275.231C249.626 275.992 249.408 276.606 248.97 277.075C248.522 277.533 247.97 277.763 247.314 277.763C246.658 277.763 246.105 277.533 245.658 277.075C245.21 276.606 244.986 275.992 244.986 275.231C244.986 274.46 245.21 273.846 245.658 273.388C246.105 272.929 246.658 272.7 247.314 272.7ZM243.345 259.419L262.204 265.606L262.204 270.591L239.454 262.138L239.454 258.966L243.345 259.419ZM262.204 254.278L243.345 260.481L239.454 260.981L239.454 257.778L262.204 249.278L262.204 254.278ZM253.736 254.559L257.408 254.559L257.408 266.575L253.736 266.575L253.736 254.559ZM238.204 242.7L262.204 242.7L262.204 247.216L238.204 247.216L238.204 242.7ZM259.001 231.997C259.001 231.445 258.897 230.955 258.689 230.528C258.47 230.101 258.168 229.768 257.783 229.528C257.387 229.278 256.923 229.148 256.392 229.138L256.392 224.903C257.579 224.914 258.637 225.231 259.564 225.856C260.48 226.481 261.204 227.32 261.736 228.372C262.256 229.424 262.517 230.601 262.517 231.903C262.517 233.216 262.298 234.362 261.861 235.341C261.423 236.309 260.819 237.117 260.048 237.763C259.267 238.408 258.361 238.893 257.329 239.216C256.288 239.539 255.173 239.7 253.986 239.7L253.533 239.7C252.335 239.7 251.22 239.539 250.189 239.216C249.147 238.893 248.241 238.408 247.47 237.763C246.689 237.117 246.079 236.309 245.642 235.341C245.204 234.372 244.986 233.237 244.986 231.934C244.986 230.549 245.251 229.335 245.783 228.294C246.314 227.242 247.074 226.419 248.064 225.825C249.043 225.221 250.204 224.914 251.548 224.903L251.548 229.138C250.986 229.148 250.475 229.268 250.017 229.497C249.559 229.716 249.194 230.039 248.923 230.466C248.642 230.882 248.501 231.398 248.501 232.013C248.501 232.669 248.642 233.205 248.923 233.622C249.194 234.039 249.569 234.362 250.048 234.591C250.517 234.82 251.053 234.981 251.658 235.075C252.251 235.158 252.876 235.2 253.533 235.2L253.986 235.2C254.642 235.2 255.272 235.158 255.876 235.075C256.48 234.992 257.017 234.835 257.486 234.606C257.954 234.367 258.324 234.039 258.595 233.622C258.866 233.205 259.001 232.664 259.001 231.997ZM258.392 213.169L250.861 213.169C250.319 213.169 249.855 213.257 249.47 213.434C249.074 213.612 248.767 213.888 248.548 214.263C248.329 214.627 248.22 215.101 248.22 215.684C248.22 216.184 248.309 216.617 248.486 216.981C248.652 217.346 248.897 217.627 249.22 217.825C249.533 218.023 249.902 218.122 250.329 218.122L250.329 222.622C249.611 222.622 248.928 222.455 248.283 222.122C247.637 221.789 247.069 221.304 246.579 220.669C246.079 220.033 245.689 219.278 245.408 218.403C245.126 217.518 244.986 216.528 244.986 215.434C244.986 214.122 245.204 212.955 245.642 211.934C246.079 210.914 246.736 210.112 247.611 209.528C248.486 208.934 249.579 208.638 250.892 208.638L258.126 208.638C259.053 208.638 259.814 208.58 260.408 208.466C260.991 208.351 261.501 208.184 261.939 207.966L262.204 207.966L262.204 212.513C261.746 212.731 261.173 212.898 260.486 213.013C259.788 213.117 259.09 213.169 258.392 213.169ZM251.908 212.575L254.454 212.544L254.454 215.059C254.454 215.653 254.522 216.169 254.658 216.606C254.793 217.044 254.986 217.403 255.236 217.684C255.475 217.966 255.756 218.174 256.079 218.309C256.402 218.434 256.756 218.497 257.142 218.497C257.527 218.497 257.876 218.408 258.189 218.231C258.491 218.054 258.73 217.799 258.908 217.466C259.074 217.132 259.158 216.742 259.158 216.294C259.158 215.617 259.022 215.028 258.751 214.528C258.48 214.028 258.147 213.643 257.751 213.372C257.355 213.091 256.98 212.945 256.626 212.934L258.533 211.747C258.96 211.914 259.402 212.143 259.861 212.434C260.319 212.716 260.751 213.075 261.158 213.513C261.553 213.95 261.881 214.476 262.142 215.091C262.392 215.705 262.517 216.434 262.517 217.278C262.517 218.351 262.303 219.325 261.876 220.2C261.439 221.065 260.84 221.752 260.079 222.263C259.309 222.763 258.434 223.013 257.454 223.013C256.569 223.013 255.783 222.846 255.095 222.513C254.408 222.179 253.829 221.69 253.361 221.044C252.881 220.388 252.522 219.57 252.283 218.591C252.033 217.612 251.908 216.476 251.908 215.184L251.908 212.575ZM248.908 200.763L262.204 200.763L262.204 205.263L245.298 205.263L245.298 201.044L248.908 200.763ZM253.158 201.419L253.158 202.638C251.908 202.638 250.783 202.476 249.783 202.153C248.772 201.83 247.913 201.377 247.204 200.794C246.486 200.21 245.939 199.518 245.564 198.716C245.178 197.903 244.986 196.997 244.986 195.997C244.986 195.205 245.1 194.481 245.329 193.825C245.559 193.169 245.923 192.606 246.423 192.138C246.923 191.658 247.585 191.294 248.408 191.044C249.23 190.783 250.236 190.653 251.423 190.653L262.204 190.653L262.204 195.184L251.408 195.184C250.658 195.184 250.074 195.289 249.658 195.497C249.241 195.705 248.949 196.013 248.783 196.419C248.605 196.815 248.517 197.304 248.517 197.888C248.517 198.492 248.637 199.018 248.876 199.466C249.116 199.903 249.449 200.268 249.876 200.559C250.293 200.841 250.783 201.054 251.345 201.2C251.908 201.346 252.512 201.419 253.158 201.419ZM258.689 173.778L262.204 173.778L262.204 186.622L258.689 186.622L258.689 173.778ZM247.892 174.028L262.204 184.809L262.204 187.825L259.533 187.825L245.298 177.091L245.298 174.028L247.892 174.028ZM245.298 175.622L248.829 175.622L248.829 187.575L245.298 187.575L245.298 175.622ZM258.392 161.825L250.861 161.825C250.319 161.825 249.855 161.914 249.47 162.091C249.074 162.268 248.767 162.544 248.548 162.919C248.329 163.283 248.22 163.757 248.22 164.341C248.22 164.841 248.309 165.273 248.486 165.638C248.652 166.002 248.897 166.283 249.22 166.481C249.533 166.679 249.902 166.778 250.329 166.778L250.329 171.278C249.611 171.278 248.928 171.112 248.283 170.778C247.637 170.445 247.069 169.96 246.579 169.325C246.079 168.69 245.689 167.934 245.408 167.059C245.126 166.174 244.986 165.184 244.986 164.091C244.986 162.778 245.204 161.612 245.642 160.591C246.079 159.57 246.736 158.768 247.611 158.184C248.486 157.591 249.579 157.294 250.892 157.294L258.126 157.294C259.053 157.294 259.814 157.237 260.408 157.122C260.991 157.007 261.501 156.841 261.939 156.622L262.204 156.622L262.204 161.169C261.746 161.388 261.173 161.554 260.486 161.669C259.788 161.773 259.09 161.825 258.392 161.825ZM251.908 161.231L254.454 161.2L254.454 163.716C254.454 164.309 254.522 164.825 254.658 165.263C254.793 165.7 254.986 166.059 255.236 166.341C255.475 166.622 255.756 166.83 256.079 166.966C256.402 167.091 256.756 167.153 257.142 167.153C257.527 167.153 257.876 167.065 258.189 166.888C258.491 166.71 258.73 166.455 258.908 166.122C259.074 165.789 259.158 165.398 259.158 164.95C259.158 164.273 259.022 163.684 258.751 163.184C258.48 162.684 258.147 162.299 257.751 162.028C257.355 161.747 256.98 161.601 256.626 161.591L258.533 160.403C258.96 160.57 259.402 160.799 259.861 161.091C260.319 161.372 260.751 161.731 261.158 162.169C261.553 162.606 261.881 163.132 262.142 163.747C262.392 164.362 262.517 165.091 262.517 165.934C262.517 167.007 262.303 167.981 261.876 168.856C261.439 169.721 260.84 170.408 260.079 170.919C259.309 171.419 258.434 171.669 257.454 171.669C256.569 171.669 255.783 171.502 255.095 171.169C254.408 170.835 253.829 170.346 253.361 169.7C252.881 169.044 252.522 168.226 252.283 167.247C252.033 166.268 251.908 165.132 251.908 163.841L251.908 161.231ZM248.798 149.325L262.204 149.325L262.204 153.841L245.298 153.841L245.298 149.606L248.798 149.325ZM253.158 149.95L253.158 151.2C251.98 151.2 250.897 151.059 249.908 150.778C248.908 150.487 248.043 150.065 247.314 149.513C246.574 148.95 246.001 148.257 245.595 147.434C245.189 146.612 244.986 145.658 244.986 144.575C244.986 143.825 245.1 143.138 245.329 142.513C245.548 141.888 245.897 141.351 246.376 140.903C246.845 140.445 247.46 140.091 248.22 139.841C248.97 139.591 249.871 139.466 250.923 139.466L262.204 139.466L262.204 143.966L251.423 143.966C250.652 143.966 250.059 144.07 249.642 144.278C249.225 144.487 248.934 144.783 248.767 145.169C248.6 145.544 248.517 145.997 248.517 146.528C248.517 147.112 248.637 147.622 248.876 148.059C249.116 148.487 249.449 148.841 249.876 149.122C250.293 149.403 250.783 149.612 251.345 149.747C251.908 149.882 252.512 149.95 253.158 149.95ZM252.642 139.888L252.845 141.497C251.741 141.497 250.715 141.362 249.767 141.091C248.819 140.809 247.986 140.398 247.267 139.856C246.548 139.304 245.991 138.622 245.595 137.809C245.189 136.997 244.986 136.059 244.986 134.997C244.986 134.184 245.105 133.445 245.345 132.778C245.574 132.112 245.944 131.544 246.454 131.075C246.954 130.596 247.611 130.231 248.423 129.981C249.236 129.721 250.23 129.591 251.408 129.591L262.204 129.591L262.204 134.106L251.408 134.106C250.626 134.106 250.033 134.21 249.626 134.419C249.21 134.617 248.923 134.908 248.767 135.294C248.6 135.669 248.517 136.117 248.517 136.638C248.517 137.179 248.626 137.653 248.845 138.059C249.053 138.466 249.345 138.804 249.72 139.075C250.095 139.346 250.533 139.549 251.033 139.684C251.522 139.82 252.059 139.888 252.642 139.888ZM253.923 126.825L253.595 126.825C252.355 126.825 251.215 126.648 250.173 126.294C249.121 125.94 248.21 125.424 247.439 124.747C246.668 124.07 246.069 123.237 245.642 122.247C245.204 121.257 244.986 120.122 244.986 118.841C244.986 117.559 245.204 116.419 245.642 115.419C246.069 114.419 246.668 113.58 247.439 112.903C248.21 112.216 249.121 111.695 250.173 111.341C251.215 110.987 252.355 110.809 253.595 110.809L253.923 110.809C255.152 110.809 256.293 110.987 257.345 111.341C258.387 111.695 259.298 112.216 260.079 112.903C260.85 113.58 261.449 114.414 261.876 115.403C262.303 116.393 262.517 117.528 262.517 118.809C262.517 120.091 262.303 121.231 261.876 122.231C261.449 123.221 260.85 124.059 260.079 124.747C259.298 125.424 258.387 125.94 257.345 126.294C256.293 126.648 255.152 126.825 253.923 126.825ZM253.595 122.325L253.923 122.325C254.631 122.325 255.293 122.263 255.908 122.138C256.522 122.013 257.064 121.815 257.533 121.544C257.991 121.263 258.35 120.898 258.611 120.45C258.871 120.002 259.001 119.455 259.001 118.809C259.001 118.184 258.871 117.648 258.611 117.2C258.35 116.752 257.991 116.393 257.533 116.122C257.064 115.851 256.522 115.653 255.908 115.528C255.293 115.393 254.631 115.325 253.923 115.325L253.595 115.325C252.908 115.325 252.262 115.393 251.658 115.528C251.043 115.653 250.501 115.856 250.033 116.138C249.553 116.408 249.178 116.768 248.908 117.216C248.637 117.664 248.501 118.205 248.501 118.841C248.501 119.476 248.637 120.018 248.908 120.466C249.178 120.903 249.553 121.263 250.033 121.544C250.501 121.815 251.043 122.013 251.658 122.138C252.262 122.263 252.908 122.325 253.595 122.325ZM257.533 98.9032C257.21 98.9032 256.918 98.9969 256.658 99.1844C256.397 99.3719 256.158 99.7209 255.939 100.231C255.71 100.731 255.501 101.455 255.314 102.403C255.126 103.257 254.892 104.054 254.611 104.794C254.319 105.523 253.97 106.158 253.564 106.7C253.158 107.231 252.678 107.648 252.126 107.95C251.564 108.252 250.923 108.403 250.204 108.403C249.496 108.403 248.829 108.252 248.204 107.95C247.579 107.638 247.027 107.195 246.548 106.622C246.059 106.039 245.678 105.33 245.408 104.497C245.126 103.653 244.986 102.705 244.986 101.653C244.986 100.184 245.22 98.924 245.689 97.8719C246.158 96.8094 246.803 95.9969 247.626 95.4344C248.439 94.8615 249.366 94.5751 250.408 94.5751L250.408 99.0751C249.97 99.0751 249.579 99.1688 249.236 99.3563C248.881 99.5334 248.605 99.8147 248.408 100.2C248.199 100.575 248.095 101.065 248.095 101.669C248.095 102.169 248.184 102.601 248.361 102.966C248.527 103.33 248.756 103.612 249.048 103.809C249.329 103.997 249.642 104.091 249.986 104.091C250.246 104.091 250.48 104.039 250.689 103.934C250.887 103.82 251.069 103.638 251.236 103.388C251.402 103.138 251.559 102.815 251.704 102.419C251.84 102.013 251.965 101.513 252.079 100.919C252.329 99.7001 252.658 98.6115 253.064 97.6532C253.46 96.6949 254.001 95.9344 254.689 95.3719C255.366 94.8094 256.256 94.5282 257.361 94.5282C258.111 94.5282 258.798 94.6949 259.423 95.0282C260.048 95.3615 260.595 95.8407 261.064 96.4657C261.522 97.0907 261.881 97.8407 262.142 98.7157C262.392 99.5803 262.517 100.554 262.517 101.638C262.517 103.21 262.236 104.544 261.673 105.638C261.111 106.721 260.397 107.544 259.533 108.106C258.658 108.658 257.762 108.934 256.845 108.934L256.845 104.669C257.46 104.648 257.954 104.492 258.329 104.2C258.704 103.898 258.975 103.518 259.142 103.059C259.309 102.591 259.392 102.085 259.392 101.544C259.392 100.96 259.314 100.476 259.158 100.091C258.991 99.7053 258.772 99.4136 258.501 99.2157C258.22 99.0074 257.897 98.9032 257.533 98.9032ZM262.517 75.8563C262.517 77.1688 262.309 78.3459 261.892 79.3876C261.465 80.4292 260.876 81.3147 260.126 82.0438C259.376 82.7626 258.506 83.3147 257.517 83.7001C256.517 84.0855 255.454 84.2782 254.329 84.2782L253.704 84.2782C252.423 84.2782 251.251 84.0959 250.189 83.7313C249.126 83.3667 248.204 82.8459 247.423 82.1688C246.642 81.4813 246.043 80.648 245.626 79.6688C245.199 78.6897 244.986 77.5855 244.986 76.3563C244.986 75.1584 245.184 74.0959 245.579 73.1688C245.975 72.2417 246.538 71.4657 247.267 70.8407C247.996 70.2053 248.871 69.7261 249.892 69.4032C250.902 69.0803 252.027 68.9188 253.267 68.9188L255.142 68.9188L255.142 82.3563L252.142 82.3563L252.142 73.3407L251.798 73.3407C251.173 73.3407 250.616 73.4553 250.126 73.6844C249.626 73.9032 249.23 74.2365 248.939 74.6844C248.647 75.1324 248.501 75.7053 248.501 76.4032C248.501 76.9969 248.631 77.5074 248.892 77.9344C249.152 78.3615 249.517 78.7105 249.986 78.9813C250.454 79.2417 251.006 79.4397 251.642 79.5751C252.267 79.7001 252.954 79.7626 253.704 79.7626L254.329 79.7626C255.006 79.7626 255.631 79.6688 256.204 79.4813C256.777 79.2834 257.272 79.0074 257.689 78.6532C258.105 78.2886 258.428 77.8511 258.658 77.3407C258.887 76.8199 259.001 76.2313 259.001 75.5751C259.001 74.7626 258.845 74.0074 258.533 73.3094C258.21 72.6011 257.725 71.9917 257.079 71.4813L259.454 69.2938C259.965 69.648 260.454 70.1324 260.923 70.7469C261.392 71.3511 261.777 72.0803 262.079 72.9344C262.371 73.7886 262.517 74.7626 262.517 75.8563ZM238.204 61.6063L262.204 61.6063L262.204 66.1219L238.204 66.1219L238.204 61.6063ZM315.864 240.304L324.204 240.304L324.204 267.929L315.864 267.929L315.864 240.304ZM272.306 264.435L324.204 264.435L324.204 275.129L272.306 275.129L272.306 264.435ZM293.443 243.904L301.57 243.904L301.57 267.929L293.443 267.929L293.443 243.904ZM272.306 240.34L280.682 240.34L280.682 267.929L272.306 267.929L272.306 240.34ZM272.306 225.262L290.413 215.495L272.306 205.729L272.306 193.503L298.041 208.58L324.204 193.111L324.204 205.444L305.741 215.495L324.204 225.547L324.204 237.952L298.041 222.446L272.306 237.559L272.306 225.262ZM272.306 176.358L324.204 176.358L324.204 187.015L272.306 187.016L272.306 176.358ZM272.306 144.206L324.204 144.206L324.204 154.864L272.306 154.864L272.306 144.206ZM272.306 128.238L280.682 128.238L280.682 170.583L272.306 170.583L272.306 128.238ZM297.043 80.5096L299.503 80.5096C303.447 80.5096 306.988 81.0443 310.125 82.1136C313.262 83.183 315.935 84.6919 318.145 86.6405C320.331 88.5891 322.006 90.9178 323.171 93.6268C324.335 96.312 324.917 99.2943 324.917 102.574C324.917 105.829 324.335 108.811 323.171 111.52C322.006 114.206 320.331 116.534 318.145 118.507C315.935 120.479 313.262 122.012 310.125 123.105C306.988 124.174 303.447 124.709 299.503 124.709L297.043 124.709C293.075 124.709 289.534 124.174 286.421 123.105C283.284 122.036 280.611 120.527 278.401 118.578C276.191 116.606 274.504 114.277 273.34 111.592C272.175 108.883 271.593 105.9 271.593 102.645C271.593 99.3656 272.175 96.3833 273.34 93.6981C274.504 90.9891 276.191 88.6604 278.401 86.7118C280.611 84.7395 283.284 83.2186 286.421 82.1493C289.534 81.0562 293.075 80.5096 297.043 80.5096ZM299.503 91.3099L296.972 91.3099C294.215 91.3099 291.792 91.5594 289.7 92.0585C287.609 92.5575 285.851 93.2941 284.425 94.2684C282.999 95.2427 281.93 96.4309 281.217 97.8329C280.48 99.2349 280.112 100.839 280.112 102.645C280.112 104.451 280.48 106.055 281.217 107.457C281.93 108.835 282.999 110.011 284.425 110.986C285.851 111.936 287.609 112.661 289.7 113.16C291.792 113.659 294.215 113.909 296.972 113.909L299.503 113.909C302.235 113.909 304.659 113.659 306.774 113.16C308.865 112.661 310.636 111.924 312.085 110.95C313.511 109.976 314.592 108.788 315.329 107.386C316.066 105.984 316.434 104.38 316.434 102.574C316.434 100.768 316.066 99.1636 315.329 97.7616C314.592 96.3596 313.511 95.1833 312.085 94.2328C310.636 93.2823 308.865 92.5575 306.774 92.0585C304.659 91.5594 302.235 91.3099 299.503 91.3099ZM272.306 61.8676L308.343 63.0438L308.343 71.5985L272.306 72.8104L272.306 61.8676ZM319.499 73.0956C317.978 73.0956 316.719 72.5728 315.721 71.5272C314.699 70.4579 314.188 69.0559 314.188 67.3212C314.188 65.5627 314.699 64.1607 315.721 63.1151C316.719 62.0695 317.978 61.5468 319.499 61.5467C320.973 61.5467 322.22 62.0695 323.242 63.1151C324.264 64.1607 324.775 65.5627 324.775 67.3212C324.775 69.0559 324.264 70.4579 323.242 71.5272C322.22 72.5728 320.973 73.0956 319.499 73.0956Z" fill="#9665FD" fill-opacity="0.8"/>
<defs>
<linearGradient id="paint0_linear_1096_207" x1="88.3017" y1="272.934" x2="374.143" y2="56.4919" gradientUnits="userSpaceOnUse">
<stop offset="0.41" stop-color="#E0E0E0"/>
<stop offset="0.61" stop-color="white"/>
</linearGradient>
</defs>
</svg>
