<svg width="490" height="454" viewBox="0 0 490 454" fill="none" xmlns="http://www.w3.org/2000/svg">
<g clip-path="url(#clip0_485_344)">
<path d="M29.1279 94.7989H30.602C36.3015 94.7989 40.9176 90.1032 40.9176 84.3203C40.9176 78.5374 36.3015 73.8416 30.602 73.8416H29.1279C23.4317 73.8416 18.8123 78.5374 18.8123 84.3203C18.8123 90.1032 23.4317 94.7989 29.1279 94.7989Z" fill="#08C7D1"/>
<path d="M109.699 73.822H60.8167V73.8515C58.1604 74.0237 55.6709 75.2032 53.859 77.1481C52.047 79.0929 51.05 81.6556 51.0723 84.3105C51.0723 89.9067 55.3864 94.4616 60.8167 94.7694V94.7989H89.3798C95.0761 94.7989 99.6954 99.4947 99.6954 105.278C99.6954 111.06 95.0761 115.756 89.3798 115.756H22.0758C16.3763 115.756 11.7569 120.452 11.7569 126.235C11.7569 126.579 11.7766 126.919 11.8094 127.253C11.8094 127.368 11.839 127.476 11.8554 127.581C11.8817 127.8 11.9112 128.019 11.9506 128.236C11.9769 128.37 12.0097 128.501 12.0425 128.632C12.0852 128.818 12.1279 129.008 12.1837 129.192C12.2395 129.375 12.2691 129.47 12.315 129.608C12.361 129.745 12.4299 129.935 12.4956 130.105C12.5613 130.276 12.6105 130.39 12.6729 130.531C12.7353 130.672 12.8108 130.826 12.8797 130.97C12.9487 131.114 13.0307 131.265 13.1095 131.405C13.1883 131.546 13.2573 131.654 13.3328 131.779C13.4083 131.903 13.5199 132.083 13.6217 132.227C13.7235 132.371 13.7596 132.417 13.8285 132.512C13.95 132.676 14.0682 132.84 14.1995 132.997L14.2882 133.095C15.0298 133.961 15.9081 134.701 16.8884 135.286L16.9278 135.309C17.1642 135.446 17.4104 135.577 17.66 135.695L17.7388 135.734C17.985 135.852 18.2378 135.957 18.4939 136.062L18.5792 136.091C18.8419 136.186 19.1078 136.275 19.377 136.347L19.4427 136.366C19.7218 136.438 20.0074 136.504 20.2963 136.556H61.8804C67.5766 136.556 72.196 141.252 72.196 147.035C72.196 152.818 67.5766 157.514 61.8804 157.514H50.3632C49.8589 157.627 49.364 157.778 48.8825 157.965L48.656 158.051C48.4721 158.126 48.2948 158.211 48.1208 158.299L47.7925 158.45C47.6283 158.538 47.4642 158.63 47.3132 158.725C47.1621 158.82 47.0932 158.856 46.9848 158.928C46.8765 159 46.6894 159.125 46.5449 159.229L46.2166 159.472C46.082 159.58 45.9474 159.688 45.816 159.799C45.6847 159.911 45.6059 159.992 45.4877 160.091C45.3695 160.189 45.2481 160.317 45.1332 160.418C45.0182 160.52 44.9165 160.66 44.8048 160.785C44.6932 160.909 44.6079 161.001 44.5159 161.112C44.3288 161.345 44.1515 161.587 43.9841 161.836C43.9151 161.938 43.8527 162.049 43.7871 162.163C43.6853 162.327 43.5868 162.491 43.4916 162.658C43.3964 162.825 43.3701 162.897 43.311 163.018C43.2519 163.139 43.1469 163.346 43.0714 163.519C42.9958 163.693 42.9696 163.771 42.9203 163.899C42.8711 164.027 42.7857 164.249 42.7266 164.429C42.6872 164.557 42.6445 164.685 42.6084 164.816C42.5526 165.003 42.5067 165.196 42.464 165.389C42.4344 165.513 42.4049 165.638 42.3819 165.765C42.3392 165.982 42.3097 166.201 42.2834 166.42C42.2834 166.528 42.2506 166.637 42.2407 166.748C42.2079 167.075 42.1882 167.403 42.1882 167.753C42.1882 168.104 42.2079 168.447 42.2407 168.788C42.2407 168.903 42.2736 169.017 42.2867 169.115C42.3162 169.335 42.3458 169.557 42.3885 169.77C42.4147 169.908 42.4508 170.042 42.4804 170.176C42.5264 170.363 42.569 170.553 42.6248 170.736C42.6807 170.92 42.7168 171.024 42.766 171.169C42.8153 171.313 42.8809 171.496 42.9433 171.66C43.0057 171.823 43.0681 171.958 43.137 172.105C43.206 172.252 43.2683 172.396 43.3439 172.541C43.4194 172.685 43.5014 172.842 43.5868 172.989C43.6722 173.137 43.7345 173.241 43.8133 173.366C43.8921 173.49 44.0103 173.67 44.1121 173.821L44.3452 174.148C44.4634 174.302 44.5849 174.456 44.7096 174.604C44.7819 174.689 44.8574 174.771 44.9329 174.852C45.0773 175.01 45.2218 175.18 45.3728 175.314L45.56 175.488C45.734 175.648 45.9113 175.815 46.0951 175.959L46.1969 176.035C47.6424 177.177 49.3718 177.906 51.2004 178.143H96.2678C101.964 178.143 106.583 182.839 106.583 188.622C106.583 194.405 101.964 199.101 96.2678 199.101H23.7994C23.0028 199.278 22.2309 199.551 21.5012 199.916L21.2747 200.027C21.0941 200.122 20.9168 200.227 20.7428 200.332C20.6509 200.388 20.5622 200.44 20.4736 200.499C20.3094 200.604 20.1453 200.715 19.9943 200.826L19.7152 201.039C19.5707 201.154 19.423 201.272 19.2851 201.393L19.0093 201.648C18.878 201.773 18.7467 201.897 18.6219 202.025C18.4972 202.153 18.4381 202.228 18.3461 202.333C18.2542 202.437 18.1163 202.585 18.0178 202.719C17.834 202.945 17.66 203.184 17.4958 203.426C17.4203 203.538 17.3579 203.652 17.2857 203.754C17.2135 203.855 17.092 204.081 17.0033 204.225C16.9147 204.369 16.8786 204.471 16.8162 204.595C16.7538 204.72 16.6553 204.923 16.5831 205.09C16.5109 205.257 16.478 205.342 16.4288 205.473C16.3795 205.604 16.2975 205.82 16.2384 205.997C16.1793 206.174 16.1563 206.256 16.1202 206.387C16.0644 206.573 16.0184 206.766 15.9757 206.956C15.9462 207.084 15.9166 207.208 15.8904 207.336C15.851 207.549 15.8214 207.768 15.7951 207.991C15.7951 208.102 15.7623 208.207 15.7525 208.319C15.7196 208.646 15.6999 208.973 15.6999 209.324C15.6999 215.117 20.3193 219.802 26.0188 219.802H60.8199V219.992H71.7035C77.3997 219.992 82.0191 224.691 82.0191 230.471C82.0191 236.251 77.3997 240.95 71.7035 240.95H46.9487C46.6434 241.002 46.3413 241.064 46.0459 241.143C44.0376 241.674 42.2372 242.798 40.8815 244.368L40.7732 244.49C40.6353 244.653 40.5105 244.817 40.3825 244.994C40.3168 245.082 40.2512 245.167 40.1888 245.259C40.0804 245.413 39.9819 245.586 39.8834 245.731C39.7849 245.875 39.739 245.963 39.6733 246.084C39.6077 246.205 39.5092 246.385 39.4304 246.539C39.3516 246.693 39.2958 246.818 39.2301 246.962C39.1644 247.106 39.1021 247.253 39.043 247.404C38.9839 247.555 38.9248 247.731 38.869 247.889C38.8131 248.046 38.7737 248.173 38.7311 248.317C38.6884 248.462 38.6358 248.684 38.5899 248.871C38.5603 249.005 38.5275 249.136 38.5012 249.274C38.4586 249.487 38.429 249.706 38.4027 249.929C38.4027 250.04 38.3666 250.155 38.3568 250.256C38.324 250.583 38.3043 250.931 38.3043 251.278C38.3043 251.625 38.324 251.933 38.3535 252.26C38.3535 252.368 38.3798 252.473 38.3929 252.588C38.4224 252.807 38.452 253.023 38.4914 253.242C38.5144 253.364 38.5406 253.485 38.5669 253.606C38.6096 253.799 38.6588 253.992 38.7146 254.182C38.7475 254.307 38.7836 254.428 38.823 254.549C38.8821 254.736 38.951 254.919 39.02 255.102C39.0659 255.217 39.1053 255.332 39.1546 255.43C39.2465 255.646 39.3516 255.859 39.4566 256.085C39.5617 256.311 39.6405 256.412 39.739 256.599C39.8375 256.786 39.9064 256.89 39.9983 257.031C40.0903 257.172 40.1888 257.309 40.2905 257.45C40.3923 257.591 40.4383 257.657 40.5171 257.758C40.5959 257.86 40.7469 258.046 40.8684 258.187C40.9373 258.269 41.0095 258.348 41.0818 258.426C41.2197 258.573 41.3576 258.721 41.4987 258.858L41.6563 259.006C42.4126 259.71 43.2702 260.297 44.2008 260.748L44.2894 260.79C44.5159 260.898 44.7457 260.997 44.9821 261.085L45.0839 261.124C45.3269 261.216 45.5731 261.298 45.8259 261.37C46.7347 261.634 47.6764 261.77 48.6231 261.773H111.955C112.901 261.77 113.843 261.634 114.752 261.37H290.005V73.822H109.699ZM94.7937 157.563H93.3196C87.6201 157.563 83.004 152.867 83.004 147.084C83.004 141.301 87.6201 136.605 93.3196 136.605H94.7937C100.49 136.605 105.109 141.301 105.109 147.084C105.109 152.867 100.49 157.563 94.7937 157.563Z" fill="#08C7D1"/>
<g style="mix-blend-mode:multiply">
<path d="M193.071 96.649H71.5525C32.095 96.649 0.108337 128.552 0.108337 167.907V382.804C0.108337 422.159 32.095 454.062 71.5525 454.062H193.071C232.528 454.062 264.515 422.159 264.515 382.804V167.907C264.515 128.552 232.528 96.649 193.071 96.649Z" fill="white"/>
<path d="M198.485 93.5808H73.6865C35.4185 93.5808 4.39612 124.522 4.39612 162.691V380.496C4.39612 418.664 35.4185 449.606 73.6865 449.606H198.485C236.753 449.606 267.775 418.664 267.775 380.496V162.691C267.775 124.522 236.753 93.5808 198.485 93.5808Z" fill="#FEFEFE"/>
<path d="M203.898 90.5157H75.8205C38.7419 90.5157 8.68384 120.496 8.68384 157.478V378.19C8.68384 415.172 38.7419 445.152 75.8205 445.152H203.898C240.977 445.152 271.035 415.172 271.035 378.19V157.478C271.035 120.496 240.977 90.5157 203.898 90.5157Z" fill="#FDFCFC"/>
<path d="M209.316 87.4475H77.9545C42.0655 87.4475 12.9716 116.466 12.9716 152.261V375.882C12.9716 411.677 42.0655 440.695 77.9545 440.695H209.316C245.205 440.695 274.299 411.677 274.299 375.882V152.261C274.299 116.466 245.205 87.4475 209.316 87.4475Z" fill="#FBFBFB"/>
<path d="M214.73 84.3825H80.0886C45.389 84.3825 17.2594 112.439 17.2594 147.048V373.576C17.2594 408.186 45.389 436.242 80.0886 436.242H214.73C249.429 436.242 277.559 408.186 277.559 373.576V147.048C277.559 112.439 249.429 84.3825 214.73 84.3825Z" fill="#FAFAFA"/>
<path d="M220.143 81.3142H82.2226C48.7124 81.3142 21.5471 108.409 21.5471 141.832V371.271C21.5471 404.694 48.7124 431.789 82.2226 431.789H220.143C253.654 431.789 280.819 404.694 280.819 371.271V141.832C280.819 108.409 253.654 81.3142 220.143 81.3142Z" fill="#F9F9F9"/>
<path d="M225.557 78.2459H84.3599C52.0374 78.2459 25.8349 104.38 25.8349 136.618V368.959C25.8349 401.198 52.0374 427.332 84.3599 427.332H225.557C257.88 427.332 284.082 401.198 284.082 368.959V136.618C284.082 104.38 257.88 78.2459 225.557 78.2459Z" fill="#F8F7F7"/>
<path d="M230.971 75.1809H86.494C55.361 75.1809 30.1227 100.353 30.1227 131.405V366.654C30.1227 397.706 55.361 422.879 86.494 422.879H230.971C262.104 422.879 287.342 397.706 287.342 366.654V131.405C287.342 100.353 262.104 75.1809 230.971 75.1809Z" fill="#F7F6F6"/>
<path d="M236.385 72.1127H88.628C58.6845 72.1127 34.4105 96.3234 34.4105 126.189V364.345C34.4105 394.211 58.6845 418.422 88.628 418.422H236.385C266.329 418.422 290.603 394.211 290.603 364.345V126.189C290.603 96.3234 266.329 72.1127 236.385 72.1127Z" fill="#F5F5F5"/>
<path d="M241.799 69.0477H90.762C62.008 69.0477 38.6982 92.2967 38.6982 120.976V362.04C38.6982 390.719 62.008 413.968 90.762 413.968H241.799C270.553 413.968 293.863 390.719 293.863 362.04V120.976C293.863 92.2967 270.553 69.0477 241.799 69.0477Z" fill="#F4F3F3"/>
<path d="M247.219 65.9794H92.8993C65.3348 65.9794 42.9893 88.2667 42.9893 115.759V359.735C42.9893 387.228 65.3348 409.515 92.8993 409.515H247.219C274.784 409.515 297.129 387.228 297.129 359.735V115.759C297.129 88.2667 274.784 65.9794 247.219 65.9794Z" fill="#F3F2F2"/>
<path d="M252.633 62.9111H95.0334C68.6583 62.9111 47.277 84.2367 47.277 110.543V357.426C47.277 383.733 68.6583 405.058 95.0334 405.058H252.633C279.008 405.058 300.39 383.733 300.39 357.426V110.543C300.39 84.2367 279.008 62.9111 252.633 62.9111Z" fill="#F2F1F1"/>
<path d="M258.044 59.8461H97.1707C71.9832 59.8461 51.5648 80.2114 51.5648 105.333V355.118C51.5648 380.24 71.9832 400.605 97.1707 400.605H258.044C283.231 400.605 303.65 380.24 303.65 355.118V105.333C303.65 80.2114 283.231 59.8461 258.044 59.8461Z" fill="#F1F0F0"/>
<path d="M263.461 56.7778H99.3047C75.3067 56.7778 55.8525 76.1813 55.8525 100.117V352.809C55.8525 376.745 75.3067 396.148 99.3047 396.148H263.461C287.459 396.148 306.913 376.745 306.913 352.809V100.117C306.913 76.1813 287.459 56.7778 263.461 56.7778Z" fill="#F0EEEE"/>
<path d="M268.875 53.7128H101.439C78.6303 53.7128 60.1403 72.1546 60.1403 94.9037V350.504C60.1403 373.253 78.6303 391.695 101.439 391.695H268.875C291.683 391.695 310.173 373.253 310.173 350.504V94.9037C310.173 72.1546 291.683 53.7128 268.875 53.7128Z" fill="#EEEDED"/>
<path d="M274.289 50.6445H103.573C81.9537 50.6445 64.428 68.1246 64.428 89.6873V348.198C64.428 369.761 81.9537 387.241 103.573 387.241H274.289C295.908 387.241 313.433 369.761 313.433 348.198V89.6873C313.433 68.1246 295.908 50.6445 274.289 50.6445Z" fill="#EDECEC"/>
<path d="M279.703 47.5763H105.707C85.2772 47.5763 68.7158 64.0945 68.7158 84.4709V345.89C68.7158 366.266 85.2772 382.785 105.707 382.785H279.703C300.132 382.785 316.694 366.266 316.694 345.89V84.4709C316.694 64.0945 300.132 47.5763 279.703 47.5763Z" fill="#ECEAEA"/>
<path d="M285.12 44.5113H107.841C88.6008 44.5113 73.0036 60.0678 73.0036 79.2578V343.585C73.0036 362.775 88.6008 378.331 107.841 378.331H285.12C304.36 378.331 319.957 362.775 319.957 343.585V79.2578C319.957 60.0678 304.36 44.5113 285.12 44.5113Z" fill="#EBE9E9"/>
<path d="M290.53 41.443H109.978C91.9258 41.443 77.2914 56.0393 77.2914 74.0447V341.273C77.2914 359.278 91.9258 373.874 109.978 373.874H290.53C308.583 373.874 323.217 359.278 323.217 341.273V74.0447C323.217 56.0393 308.583 41.443 290.53 41.443Z" fill="#EAE8E8"/>
<path d="M295.944 38.378H112.112C95.2492 38.378 81.5791 52.0125 81.5791 68.8315V338.967C81.5791 355.787 95.2492 369.421 112.112 369.421H295.944C312.807 369.421 326.477 355.787 326.477 338.967V68.8315C326.477 52.0125 312.807 38.378 295.944 38.378Z" fill="#E8E7E7"/>
<path d="M301.361 35.3097H114.246C98.5727 35.3097 85.8669 47.9825 85.8669 63.6151V336.662C85.8669 352.295 98.5727 364.968 114.246 364.968H301.361C317.035 364.968 329.741 352.295 329.741 336.662V63.6151C329.741 47.9825 317.035 35.3097 301.361 35.3097Z" fill="#E7E5E5"/>
<path d="M306.779 32.2415H116.384C101.9 32.2415 90.1579 43.9525 90.1579 58.3988V334.354C90.1579 348.8 101.9 360.511 116.384 360.511H306.779C321.263 360.511 333.004 348.8 333.004 334.354V58.3988C333.004 43.9525 321.263 32.2415 306.779 32.2415Z" fill="#E6E4E4"/>
<path d="M307.504 31.5374H117.109C102.625 31.5374 90.8835 43.2484 90.8835 57.6947V333.65C90.8835 348.096 102.625 359.807 117.109 359.807H307.504C321.988 359.807 333.73 348.096 333.73 333.65V57.6947C333.73 43.2484 321.988 31.5374 307.504 31.5374Z" fill="#E5E3E3"/>
<path d="M308.233 30.8334H117.838C103.354 30.8334 91.6124 42.5444 91.6124 56.9907V332.946C91.6124 347.392 103.354 359.103 117.838 359.103H308.233C322.717 359.103 334.459 347.392 334.459 332.946V56.9907C334.459 42.5444 322.717 30.8334 308.233 30.8334Z" fill="#E5E3E3"/>
<path d="M308.962 30.1293H118.567C104.083 30.1293 92.3412 41.8404 92.3412 56.2866V332.241C92.3412 346.688 104.083 358.399 118.567 358.399H308.962C323.446 358.399 335.187 346.688 335.187 332.241V56.2866C335.187 41.8404 323.446 30.1293 308.962 30.1293Z" fill="#E4E2E2"/>
<path d="M309.687 29.4253H119.292C104.808 29.4253 93.0668 41.1363 93.0668 55.5826V331.537C93.0668 345.984 104.808 357.695 119.292 357.695H309.687C324.171 357.695 335.913 345.984 335.913 331.537V55.5826C335.913 41.1363 324.171 29.4253 309.687 29.4253Z" fill="#E4E2E2"/>
<path d="M310.416 28.718H120.021C105.537 28.718 93.7957 40.429 93.7957 54.8753V330.83C93.7957 345.276 105.537 356.987 120.021 356.987H310.416C324.9 356.987 336.642 345.276 336.642 330.83V54.8753C336.642 40.429 324.9 28.718 310.416 28.718Z" fill="#E3E1E1"/>
<path d="M311.145 28.014H120.75C106.266 28.014 94.5245 39.725 94.5245 54.1713V330.126C94.5245 344.572 106.266 356.283 120.75 356.283H311.145C325.629 356.283 337.371 344.572 337.371 330.126V54.1713C337.371 39.725 325.629 28.014 311.145 28.014Z" fill="#E3E0E0"/>
<path d="M311.871 27.3099H121.476C106.992 27.3099 95.2501 39.021 95.2501 53.4672V329.422C95.2501 343.868 106.992 355.579 121.476 355.579H311.871C326.355 355.579 338.096 343.868 338.096 329.422V53.4672C338.096 39.021 326.355 27.3099 311.871 27.3099Z" fill="#E2E0E0"/>
<path d="M312.6 26.6059H122.204C107.72 26.6059 95.9789 38.3169 95.9789 52.7632V328.718C95.9789 343.164 107.72 354.875 122.204 354.875H312.6C327.084 354.875 338.825 343.164 338.825 328.718V52.7632C338.825 38.3169 327.084 26.6059 312.6 26.6059Z" fill="#E2DFDF"/>
<path d="M313.328 25.8986H122.933C108.449 25.8986 96.7078 37.6096 96.7078 52.0559V328.011C96.7078 342.457 108.449 354.168 122.933 354.168H313.328C327.812 354.168 339.554 342.457 339.554 328.011V52.0559C339.554 37.6096 327.812 25.8986 313.328 25.8986Z" fill="#E1DEDE"/>
<path d="M314.054 25.1945H123.659C109.175 25.1945 97.4333 36.9056 97.4333 51.3518V327.307C97.4333 341.753 109.175 353.464 123.659 353.464H314.054C328.538 353.464 340.28 341.753 340.28 327.307V51.3518C340.28 36.9056 328.538 25.1945 314.054 25.1945Z" fill="#E1DEDE"/>
<path d="M314.783 24.4905H124.388C109.904 24.4905 98.1622 36.2016 98.1622 50.6478V326.603C98.1622 341.049 109.904 352.76 124.388 352.76H314.783C329.267 352.76 341.008 341.049 341.008 326.603V50.6478C341.008 36.2016 329.267 24.4905 314.783 24.4905Z" fill="#E0DDDD"/>
<path d="M315.512 23.7865H125.117C110.633 23.7865 98.8911 35.4975 98.8911 49.9438V325.899C98.8911 340.345 110.633 352.056 125.117 352.056H315.512C329.996 352.056 341.737 340.345 341.737 325.899V49.9438C341.737 35.4975 329.996 23.7865 315.512 23.7865Z" fill="#E0DDDD"/>
<path d="M316.241 23.0792H125.845C111.361 23.0792 99.6199 34.7902 99.6199 49.2365V325.191C99.6199 339.638 111.361 351.349 125.845 351.349H316.241C330.725 351.349 342.466 339.638 342.466 325.191V49.2365C342.466 34.7902 330.725 23.0792 316.241 23.0792Z" fill="#DFDCDC"/>
<path d="M316.966 22.3752H126.571C112.087 22.3752 100.345 34.0862 100.345 48.5325V324.487C100.345 338.934 112.087 350.645 126.571 350.645H316.966C331.45 350.645 343.192 338.934 343.192 324.487V48.5325C343.192 34.0862 331.45 22.3752 316.966 22.3752Z" fill="#DFDBDB"/>
<path d="M317.695 21.6711H127.3C112.816 21.6711 101.074 33.3821 101.074 47.8284V323.783C101.074 338.23 112.816 349.941 127.3 349.941H317.695C332.179 349.941 343.921 338.23 343.921 323.783V47.8284C343.921 33.3821 332.179 21.6711 317.695 21.6711Z" fill="#DEDBDB"/>
<path d="M318.424 20.9671H128.029C113.545 20.9671 101.803 32.6781 101.803 47.1244V323.079C101.803 337.526 113.545 349.237 128.029 349.237H318.424C332.908 349.237 344.649 337.526 344.649 323.079V47.1244C344.649 32.6781 332.908 20.9671 318.424 20.9671Z" fill="#DEDADA"/>
<path d="M319.149 20.2631H128.754C114.27 20.2631 102.529 31.9741 102.529 46.4204V322.375C102.529 336.822 114.27 348.533 128.754 348.533H319.149C333.633 348.533 345.375 336.822 345.375 322.375V46.4204C345.375 31.9741 333.633 20.2631 319.149 20.2631Z" fill="#DDD9D9"/>
<path d="M319.878 19.5557H129.483C114.999 19.5557 103.258 31.2667 103.258 45.713V321.668C103.258 336.114 114.999 347.825 129.483 347.825H319.878C334.362 347.825 346.104 336.114 346.104 321.668V45.713C346.104 31.2667 334.362 19.5557 319.878 19.5557Z" fill="#DDD9D9"/>
<path d="M320.607 18.8517H130.212C115.728 18.8517 103.986 30.5627 103.986 45.009V320.964C103.986 335.41 115.728 347.121 130.212 347.121H320.607C335.091 347.121 346.833 335.41 346.833 320.964V45.009C346.833 30.5627 335.091 18.8517 320.607 18.8517Z" fill="#DCD8D8"/>
<path d="M321.333 18.1477H130.938C116.454 18.1477 104.712 29.8587 104.712 44.305V320.26C104.712 334.706 116.454 346.417 130.938 346.417H321.333C335.817 346.417 347.558 334.706 347.558 320.26V44.305C347.558 29.8587 335.817 18.1477 321.333 18.1477Z" fill="#DCD8D8"/>
<path d="M322.062 17.4436H131.666C117.182 17.4436 105.441 29.1547 105.441 43.6009V319.556C105.441 334.002 117.182 345.713 131.666 345.713H322.062C336.546 345.713 348.287 334.002 348.287 319.556V43.6009C348.287 29.1547 336.546 17.4436 322.062 17.4436Z" fill="#DBD7D7"/>
<path d="M322.515 17.0212H132.12C117.636 17.0212 105.894 28.7322 105.894 43.1785V319.133C105.894 333.58 117.636 345.291 132.12 345.291H322.515C336.999 345.291 348.74 333.58 348.74 319.133V43.1785C348.74 28.7322 336.999 17.0212 322.515 17.0212Z" fill="#DAD6D6"/>
<path d="M322.968 16.5988H132.573C118.089 16.5988 106.347 28.3098 106.347 42.7561V318.711C106.347 333.157 118.089 344.868 132.573 344.868H322.968C337.452 344.868 349.193 333.157 349.193 318.711V42.7561C349.193 28.3098 337.452 16.5988 322.968 16.5988Z" fill="#D9D5D5"/>
<path d="M323.417 16.1764H133.022C118.538 16.1764 106.797 27.8874 106.797 42.3337V318.289C106.797 332.735 118.538 344.446 133.022 344.446H323.417C337.901 344.446 349.643 332.735 349.643 318.289V42.3337C349.643 27.8874 337.901 16.1764 323.417 16.1764Z" fill="#D8D4D4"/>
<path d="M323.871 15.754H133.475C118.991 15.754 107.25 27.465 107.25 41.9113V317.866C107.25 332.312 118.991 344.023 133.475 344.023H323.871C338.355 344.023 350.096 332.312 350.096 317.866V41.9113C350.096 27.465 338.355 15.754 323.871 15.754Z" fill="#D7D3D2"/>
<path d="M324.324 15.3315H133.929C119.445 15.3315 107.703 27.0426 107.703 41.4888V317.444C107.703 331.89 119.445 343.601 133.929 343.601H324.324C338.808 343.601 350.549 331.89 350.549 317.444V41.4888C350.549 27.0426 338.808 15.3315 324.324 15.3315Z" fill="#D6D2D1"/>
<path d="M324.777 14.9091H134.382C119.898 14.9091 108.156 26.6201 108.156 41.0664V317.021C108.156 331.468 119.898 343.179 134.382 343.179H324.777C339.261 343.179 351.002 331.468 351.002 317.021V41.0664C351.002 26.6201 339.261 14.9091 324.777 14.9091Z" fill="#D5D1D0"/>
<path d="M325.227 14.4867H134.831C120.347 14.4867 108.606 26.1977 108.606 40.644V316.599C108.606 331.045 120.347 342.756 134.831 342.756H325.227C339.711 342.756 351.452 331.045 351.452 316.599V40.644C351.452 26.1977 339.711 14.4867 325.227 14.4867Z" fill="#D4D0CF"/>
<path d="M325.68 14.0643H135.285C120.801 14.0643 109.059 25.7753 109.059 40.2216V316.176C109.059 330.623 120.801 342.334 135.285 342.334H325.68C340.164 342.334 351.905 330.623 351.905 316.176V40.2216C351.905 25.7753 340.164 14.0643 325.68 14.0643Z" fill="#D3CFCE"/>
<path d="M326.133 13.6418H135.738C121.254 13.6418 109.512 25.3529 109.512 39.7991V315.754C109.512 330.2 121.254 341.911 135.738 341.911H326.133C340.617 341.911 352.358 330.2 352.358 315.754V39.7991C352.358 25.3529 340.617 13.6418 326.133 13.6418Z" fill="#D2CECD"/>
<path d="M326.586 13.2195H136.191C121.707 13.2195 109.965 24.9305 109.965 39.3767V315.332C109.965 329.778 121.707 341.489 136.191 341.489H326.586C341.07 341.489 352.811 329.778 352.811 315.332V39.3767C352.811 24.9305 341.07 13.2195 326.586 13.2195Z" fill="#D1CDCC"/>
<path d="M327.035 12.797H136.64C122.156 12.797 110.415 24.508 110.415 38.9543V314.909C110.415 329.355 122.156 341.067 136.64 341.067H327.035C341.519 341.067 353.261 329.355 353.261 314.909V38.9543C353.261 24.508 341.519 12.797 327.035 12.797Z" fill="#D1CBCA"/>
<path d="M327.489 12.3746H137.094C122.61 12.3746 110.868 24.0856 110.868 38.5319V314.487C110.868 328.933 122.61 340.644 137.094 340.644H327.489C341.973 340.644 353.714 328.933 353.714 314.487V38.5319C353.714 24.0856 341.973 12.3746 327.489 12.3746Z" fill="#D0CAC9"/>
<path d="M327.942 11.9522H137.547C123.063 11.9522 111.321 23.6632 111.321 38.1095V314.064C111.321 328.511 123.063 340.222 137.547 340.222H327.942C342.426 340.222 354.167 328.511 354.167 314.064V38.1095C354.167 23.6632 342.426 11.9522 327.942 11.9522Z" fill="#CFC9C8"/>
<path d="M328.395 11.5298H138C123.516 11.5298 111.774 23.2408 111.774 37.687V313.642C111.774 328.088 123.516 339.799 138 339.799H328.395C342.879 339.799 354.62 328.088 354.62 313.642V37.687C354.62 23.2408 342.879 11.5298 328.395 11.5298Z" fill="#CEC8C7"/>
<path d="M328.844 11.1073H138.449C123.965 11.1073 112.224 22.8184 112.224 37.2646V313.22C112.224 327.666 123.965 339.377 138.449 339.377H328.844C343.328 339.377 355.07 327.666 355.07 313.22V37.2646C355.07 22.8184 343.328 11.1073 328.844 11.1073Z" fill="#CDC7C6"/>
<path d="M329.298 10.6849H138.902C124.418 10.6849 112.677 22.396 112.677 36.8422V312.797C112.677 327.243 124.418 338.954 138.902 338.954H329.298C343.782 338.954 355.523 327.243 355.523 312.797V36.8422C355.523 22.396 343.782 10.6849 329.298 10.6849Z" fill="#CCC6C5"/>
<path d="M329.751 10.2625H139.356C124.872 10.2625 113.13 21.9735 113.13 36.4198V312.375C113.13 326.821 124.872 338.532 139.356 338.532H329.751C344.235 338.532 355.976 326.821 355.976 312.375V36.4198C355.976 21.9735 344.235 10.2625 329.751 10.2625Z" fill="#CBC5C4"/>
<path d="M330.204 9.84335H139.809C125.325 9.84335 113.583 21.5544 113.583 36.0007V311.956C113.583 326.402 125.325 338.113 139.809 338.113H330.204C344.688 338.113 356.429 326.402 356.429 311.956V36.0007C356.429 21.5544 344.688 9.84335 330.204 9.84335Z" fill="#CAC4C2"/>
<path d="M330.654 9.42093H140.258C125.774 9.42093 114.033 21.132 114.033 35.5782V311.533C114.033 325.979 125.774 337.69 140.258 337.69H330.654C345.138 337.69 356.879 325.979 356.879 311.533V35.5782C356.879 21.132 345.138 9.42093 330.654 9.42093Z" fill="#C9C3C1"/>
<path d="M331.107 8.9985H140.712C126.228 8.9985 114.486 20.7095 114.486 35.1558V311.111C114.486 325.557 126.228 337.268 140.712 337.268H331.107C345.591 337.268 357.332 325.557 357.332 311.111V35.1558C357.332 20.7095 345.591 8.9985 331.107 8.9985Z" fill="#C8C2C0"/>
<path d="M331.56 8.57611H141.165C126.681 8.57611 114.939 20.2871 114.939 34.7334V310.688C114.939 325.135 126.681 336.846 141.165 336.846H331.56C346.044 336.846 357.785 325.135 357.785 310.688V34.7334C357.785 20.2871 346.044 8.57611 331.56 8.57611Z" fill="#C7C1BF"/>
<path d="M331.954 8.25845H141.559C127.075 8.25845 115.333 19.9695 115.333 34.4157V310.371C115.333 324.817 127.075 336.528 141.559 336.528H331.954C346.438 336.528 358.179 324.817 358.179 310.371V34.4157C358.179 19.9695 346.438 8.25845 331.954 8.25845Z" fill="#C5BFBD"/>
<path d="M332.351 7.93756H141.956C127.472 7.93756 115.73 19.6486 115.73 34.0949V310.05C115.73 324.496 127.472 336.207 141.956 336.207H332.351C346.835 336.207 358.576 324.496 358.576 310.05V34.0949C358.576 19.6486 346.835 7.93756 332.351 7.93756Z" fill="#C2BCBA"/>
<path d="M332.745 7.61993H142.35C127.866 7.61993 116.124 19.331 116.124 33.7772V309.732C116.124 324.178 127.866 335.889 142.35 335.889H332.745C347.229 335.889 358.97 324.178 358.97 309.732V33.7772C358.97 19.331 347.229 7.61993 332.745 7.61993Z" fill="#C0BAB8"/>
<path d="M333.142 7.30228H142.747C128.263 7.30228 116.521 19.0133 116.521 33.4596V309.414C116.521 323.861 128.263 335.572 142.747 335.572H333.142C347.626 335.572 359.368 323.861 359.368 309.414V33.4596C359.368 19.0133 347.626 7.30228 333.142 7.30228Z" fill="#BDB7B5"/>
<path d="M333.536 6.98465H143.141C128.657 6.98465 116.915 18.6957 116.915 33.1419V309.097C116.915 323.543 128.657 335.254 143.141 335.254H333.536C348.02 335.254 359.762 323.543 359.762 309.097V33.1419C359.762 18.6957 348.02 6.98465 333.536 6.98465Z" fill="#BBB5B3"/>
<path d="M333.93 6.66702H143.535C129.051 6.66702 117.309 18.378 117.309 32.8243V308.779C117.309 323.225 129.051 334.937 143.535 334.937H333.93C348.414 334.937 360.156 323.225 360.156 308.779V32.8243C360.156 18.378 348.414 6.66702 333.93 6.66702Z" fill="#B8B2B0"/>
<path d="M334.327 6.3494H143.932C129.448 6.3494 117.707 18.0604 117.707 32.5067V308.462C117.707 322.908 129.448 334.619 143.932 334.619H334.327C348.811 334.619 360.553 322.908 360.553 308.462V32.5067C360.553 18.0604 348.811 6.3494 334.327 6.3494Z" fill="#B6B0AE"/>
<path d="M334.721 6.03174H144.326C129.842 6.03174 118.101 17.7428 118.101 32.189V308.144C118.101 322.59 129.842 334.301 144.326 334.301H334.721C349.205 334.301 360.947 322.59 360.947 308.144V32.189C360.947 17.7428 349.205 6.03174 334.721 6.03174Z" fill="#B4ADAB"/>
<path d="M335.119 5.71411H144.723C130.239 5.71411 118.498 17.4251 118.498 31.8714V307.826C118.498 322.273 130.239 333.984 144.723 333.984H335.119C349.603 333.984 361.344 322.273 361.344 307.826V31.8714C361.344 17.4251 349.603 5.71411 335.119 5.71411Z" fill="#B1ABA9"/>
<path d="M335.512 5.39648H145.117C130.633 5.39648 118.892 17.1075 118.892 31.5538V307.509C118.892 321.955 130.633 333.666 145.117 333.666H335.512C349.997 333.666 361.738 321.955 361.738 307.509V31.5538C361.738 17.1075 349.997 5.39648 335.512 5.39648Z" fill="#AFA8A6"/>
<path d="M335.91 5.07886H145.515C131.031 5.07886 119.289 16.7899 119.289 31.2362V307.191C119.289 321.637 131.031 333.348 145.515 333.348H335.91C350.394 333.348 362.135 321.637 362.135 307.191V31.2362C362.135 16.7899 350.394 5.07886 335.91 5.07886Z" fill="#ACA6A4"/>
<path d="M336.304 4.75793H145.909C131.425 4.75793 119.683 16.469 119.683 30.9152V306.87C119.683 321.316 131.425 333.027 145.909 333.027H336.304C350.788 333.027 362.529 321.316 362.529 306.87V30.9152C362.529 16.469 350.788 4.75793 336.304 4.75793Z" fill="#AAA3A1"/>
<path d="M336.701 4.44031H146.306C131.822 4.44031 120.08 16.1513 120.08 30.5976V306.552C120.08 320.999 131.822 332.71 146.306 332.71H336.701C351.185 332.71 362.927 320.999 362.927 306.552V30.5976C362.927 16.1513 351.185 4.44031 336.701 4.44031Z" fill="#A7A19F"/>
<path d="M337.095 4.12268H146.7C132.216 4.12268 120.474 15.8337 120.474 30.28V306.235C120.474 320.681 132.216 332.392 146.7 332.392H337.095C351.579 332.392 363.321 320.681 363.321 306.235V30.28C363.321 15.8337 351.579 4.12268 337.095 4.12268Z" fill="#A59E9C"/>
<path d="M337.492 3.80505H147.097C132.613 3.80505 120.872 15.5161 120.872 29.9623V305.917C120.872 320.363 132.613 332.075 147.097 332.075H337.492C351.976 332.075 363.718 320.363 363.718 305.917V29.9623C363.718 15.5161 351.976 3.80505 337.492 3.80505Z" fill="#A39C9A"/>
<path d="M337.886 3.4874H147.491C133.007 3.4874 121.266 15.1984 121.266 29.6447V305.6C121.266 320.046 133.007 331.757 147.491 331.757H337.886C352.37 331.757 364.112 320.046 364.112 305.6V29.6447C364.112 15.1984 352.37 3.4874 337.886 3.4874Z" fill="#A09997"/>
<path d="M338.28 3.16977H147.885C133.401 3.16977 121.66 14.8808 121.66 29.3271V305.282C121.66 319.728 133.401 331.439 147.885 331.439H338.28C352.764 331.439 364.506 319.728 364.506 305.282V29.3271C364.506 14.8808 352.764 3.16977 338.28 3.16977Z" fill="#9E9795"/>
<path d="M338.677 2.85214H148.282C133.798 2.85214 122.057 14.5632 122.057 29.0094V304.964C122.057 319.411 133.798 331.122 148.282 331.122H338.677C353.161 331.122 364.903 319.411 364.903 304.964V29.0094C364.903 14.5632 353.161 2.85214 338.677 2.85214Z" fill="#9B9492"/>
<path d="M339.071 2.53452H148.676C134.192 2.53452 122.451 14.2455 122.451 28.6918V304.647C122.451 319.093 134.192 330.804 148.676 330.804H339.071C353.555 330.804 365.297 319.093 365.297 304.647V28.6918C365.297 14.2455 353.555 2.53452 339.071 2.53452Z" fill="#999290"/>
<path d="M339.469 2.21689H149.074C134.59 2.21689 122.848 13.9279 122.848 28.3742V304.329C122.848 318.775 134.59 330.486 149.074 330.486H339.469C353.953 330.486 365.694 318.775 365.694 304.329V28.3742C365.694 13.9279 353.953 2.21689 339.469 2.21689Z" fill="#968F8D"/>
<path d="M339.863 1.89597H149.468C134.984 1.89597 123.242 13.607 123.242 28.0533V304.008C123.242 318.454 134.984 330.165 149.468 330.165H339.863C354.347 330.165 366.088 318.454 366.088 304.008V28.0533C366.088 13.607 354.347 1.89597 339.863 1.89597Z" fill="#948D8B"/>
</g>
<path d="M478.21 182.086H476.736C471.037 182.086 466.421 186.566 466.421 192.093C466.421 197.621 471.037 202.103 476.736 202.103H478.21C483.907 202.103 488.526 197.621 488.526 192.093C488.526 186.566 483.907 182.086 478.21 182.086Z" fill="#08C7D1"/>
<path d="M425.746 170.992C425.772 170.782 425.802 170.569 425.844 170.363C425.871 170.232 425.907 170.104 425.94 169.977C425.982 169.796 426.025 169.616 426.081 169.443C426.137 169.269 426.173 169.168 426.222 169.03C426.271 168.893 426.337 168.703 426.399 168.559C426.462 168.415 426.527 168.277 426.593 168.136C426.659 167.995 426.724 167.858 426.8 167.72C426.875 167.583 426.957 167.432 427.043 167.291C427.128 167.151 427.191 167.049 427.269 166.931C427.348 166.813 427.466 166.64 427.568 166.499C427.67 166.358 427.722 166.296 427.801 166.198C427.919 166.05 428.041 165.903 428.166 165.762C428.238 165.68 428.313 165.602 428.389 165.523C428.533 165.373 428.678 165.225 428.829 165.084L429.016 164.921C429.19 164.763 429.367 164.613 429.554 164.472L429.653 164.397C431.115 163.301 432.841 162.608 434.656 162.386H479.684C485.381 162.386 490 157.903 490 152.376C490 146.848 485.381 142.365 479.684 142.365H407.216C406.422 142.196 405.651 141.934 404.918 141.586C404.842 141.55 404.767 141.521 404.695 141.481C404.511 141.39 404.333 141.291 404.159 141.19L403.89 141.033C403.726 140.931 403.562 140.826 403.411 140.705L403.132 140.502C402.987 140.394 402.843 140.283 402.702 140.175C402.56 140.067 402.518 140.014 402.426 139.932C402.334 139.85 402.163 139.697 402.038 139.572C401.914 139.448 401.855 139.376 401.763 139.281C401.671 139.186 401.533 139.038 401.434 138.911C401.251 138.692 401.077 138.466 400.912 138.233C400.837 138.128 400.774 138.02 400.706 137.905C400.637 137.791 400.509 137.607 400.42 137.45C400.331 137.293 400.295 137.218 400.233 137.1C400.17 136.982 400.072 136.789 400 136.628C399.927 136.468 399.895 136.386 399.845 136.265C399.796 136.144 399.714 135.937 399.655 135.761C399.596 135.584 399.573 135.515 399.537 135.391C399.481 135.21 399.435 135.03 399.392 134.847C399.363 134.726 399.333 134.608 399.31 134.487C399.268 134.28 399.238 134.071 399.212 133.861C399.212 133.757 399.179 133.655 399.169 133.55C399.135 133.232 399.117 132.911 399.116 132.591C399.116 127.063 403.736 122.58 409.435 122.58H444.236V122.397H455.123C460.82 122.397 465.439 117.917 465.439 112.39C465.439 106.862 460.82 102.38 455.123 102.38H430.369C430.063 102.33 429.761 102.271 429.466 102.196C427.477 101.701 425.68 100.628 424.301 99.1148L424.193 99.0002C424.055 98.843 423.93 98.6727 423.802 98.5188C423.737 98.4337 423.671 98.3518 423.609 98.2667C423.5 98.1193 423.402 97.9687 423.303 97.8148C423.205 97.6609 423.159 97.5921 423.093 97.4873C423.027 97.3826 422.929 97.2025 422.85 97.0551C422.771 96.9077 422.716 96.7866 422.65 96.6523C422.584 96.5181 422.522 96.3707 422.463 96.2299C422.404 96.0891 422.345 95.9221 422.289 95.7649C422.233 95.6077 422.194 95.4964 422.151 95.3556C422.108 95.2148 422.056 95.0052 422.013 94.8284C421.98 94.7007 421.947 94.573 421.921 94.4453C421.878 94.239 421.849 94.0327 421.823 93.8231C421.823 93.715 421.786 93.607 421.777 93.4956C421.742 93.1693 421.725 92.8414 421.724 92.5133C421.724 92.1858 421.744 91.878 421.773 91.5669C421.773 91.4654 421.8 91.3672 421.813 91.2656C421.842 91.0561 421.872 90.8498 421.911 90.6435C421.934 90.5289 421.96 90.4143 421.987 90.2964C422.033 90.113 422.079 89.9264 422.134 89.7463C422.167 89.6284 422.203 89.5105 422.243 89.3959C422.302 89.219 422.371 89.0422 422.44 88.8687C422.486 88.7606 422.525 88.6493 422.574 88.5412C422.666 88.3349 422.771 88.1319 422.876 87.9321C422.982 87.7324 423.06 87.6047 423.159 87.441C423.257 87.2772 423.326 87.1626 423.418 87.0284C423.51 86.8941 423.609 86.7598 423.71 86.6289C423.812 86.4979 423.858 86.4291 423.937 86.3341C424.016 86.2392 424.167 86.0591 424.288 85.9248L424.502 85.6956C424.64 85.5548 424.777 85.4173 424.919 85.283L425.076 85.1455C425.837 84.468 426.694 83.9074 427.621 83.482L427.709 83.4394C427.936 83.3379 428.166 83.2429 428.402 83.1578L428.504 83.1218C428.747 83.0366 428.993 82.9548 429.246 82.886C429.574 82.8009 429.902 82.7321 430.231 82.6732H215.186V261.792H411.737C406.576 261.242 402.564 256.998 402.564 251.847C402.564 246.32 407.183 241.837 412.879 241.837H414.353C420.05 241.837 424.669 246.32 424.669 251.847C424.669 256.998 420.654 261.242 415.496 261.792H442.746C438.041 260.862 434.502 256.838 434.502 252.001C434.502 246.661 438.816 242.309 444.246 242.017V241.991H472.81C478.506 241.991 483.125 237.508 483.125 231.981C483.125 226.453 478.506 221.974 472.81 221.974H405.505C399.806 221.974 395.187 217.491 395.187 211.963C395.187 211.635 395.205 211.307 395.239 210.981C395.239 210.873 395.269 210.768 395.285 210.653C395.311 210.444 395.341 210.234 395.38 210.031C395.407 209.903 395.439 209.779 395.472 209.655C395.515 209.474 395.558 209.294 395.613 209.121C395.669 208.947 395.699 208.852 395.745 208.721C395.791 208.59 395.86 208.394 395.925 208.25C395.991 208.106 396.04 207.975 396.103 207.84C396.165 207.706 396.24 207.559 396.309 207.421C396.378 207.284 396.46 207.143 396.539 207.005C396.618 206.868 396.687 206.766 396.762 206.652C396.838 206.537 396.95 206.36 397.051 206.22C397.117 206.128 397.189 206.039 397.258 205.951C397.38 205.794 397.498 205.624 397.629 205.489L397.718 205.394C398.465 204.562 399.343 203.856 400.318 203.305L400.357 203.282C400.594 203.148 400.84 203.027 401.09 202.912L401.168 202.876C401.415 202.765 401.667 202.663 401.924 202.568L402.009 202.539C402.272 202.447 402.538 202.365 402.807 202.297H402.872C403.151 202.225 403.437 202.162 403.726 202.113H445.297C450.993 202.113 455.613 197.63 455.613 192.103C455.613 186.575 450.993 182.096 445.297 182.096H433.78C433.276 181.988 432.781 181.843 432.299 181.664C432.224 181.634 432.145 181.611 432.073 181.582C431.889 181.51 431.711 181.428 431.537 181.346L431.209 181.199C431.045 181.117 430.881 181.028 430.73 180.937C430.579 180.845 430.51 180.812 430.401 180.747C430.293 180.681 430.106 180.557 429.961 180.458L429.633 180.226C429.499 180.121 429.364 180.02 429.233 179.899C429.101 179.777 429.022 179.715 428.904 179.62C428.786 179.525 428.665 179.407 428.55 179.293C428.435 179.178 428.333 179.064 428.221 178.946C428.11 178.828 428.024 178.739 427.933 178.618C427.745 178.395 427.568 178.166 427.401 177.927C427.332 177.829 427.269 177.724 427.204 177.623C427.102 177.469 427.003 177.315 426.908 177.151C426.846 177.04 426.787 176.925 426.728 176.824C426.668 176.722 426.563 176.496 426.488 176.342C426.412 176.188 426.386 176.103 426.337 175.982C426.288 175.861 426.202 175.655 426.143 175.475C426.084 175.294 426.061 175.232 426.025 175.108C425.969 174.928 425.923 174.744 425.881 174.558C425.851 174.44 425.821 174.322 425.798 174.201C425.756 173.994 425.726 173.785 425.7 173.575C425.7 173.471 425.667 173.369 425.657 173.248C425.623 172.928 425.606 172.607 425.605 172.285C425.606 171.957 425.623 171.629 425.657 171.303C425.707 171.208 425.73 171.103 425.746 170.992Z" fill="#08C7D1"/>
<path d="M339.863 1.89597H149.468C134.984 1.89597 123.242 13.607 123.242 28.0533V304.008C123.242 318.454 134.984 330.165 149.468 330.165H339.863C354.347 330.165 366.088 318.454 366.088 304.008V28.0533C366.088 13.607 354.347 1.89597 339.863 1.89597Z" fill="#FCFCFC"/>
<path d="M340.963 10.2429C345.274 10.2481 349.407 11.9585 352.455 14.999C355.504 18.0396 357.219 22.1619 357.224 26.4618V305.603C357.219 309.903 355.504 314.025 352.455 317.066C349.407 320.106 345.274 321.817 340.963 321.822H148.368C144.057 321.817 139.924 320.106 136.876 317.065C133.828 314.025 132.114 309.903 132.11 305.603V26.4618C132.114 22.1622 133.828 18.0398 136.876 14.9992C139.924 11.9586 144.057 10.2481 148.368 10.2429H340.963ZM340.963 0H148.368C144.884 -2.66125e-08 141.434 0.684479 138.215 2.01435C134.997 3.34422 132.072 5.29344 129.609 7.75069C127.145 10.2079 125.191 13.1251 123.858 16.3356C122.526 19.5461 121.84 22.987 121.84 26.4618V305.603C121.84 309.078 122.526 312.519 123.858 315.729C125.191 318.94 127.145 321.857 129.609 324.314C132.072 326.771 134.997 328.721 138.215 330.05C141.434 331.38 144.884 332.065 148.368 332.065H340.963C347.999 332.065 354.747 329.277 359.723 324.314C364.698 319.352 367.493 312.621 367.493 305.603V26.4618C367.493 19.4437 364.698 12.713 359.723 7.75049C354.747 2.78794 347.999 0 340.963 0Z" fill="url(#paint0_linear_485_344)"/>
<path d="M140.715 104.803C145.909 98.8921 152.337 95.9123 160.138 95.9123C167.843 95.9123 174.114 98.3682 179.006 103.277C183.898 108.185 186.327 114.41 186.327 121.922C186.327 129.179 183.967 137.296 179.246 146.275C174.524 155.254 165.128 167.131 150.847 181.906L132.691 200.934V261.249H224.205V226.637H155.916L177.332 203.678C194.483 185.45 206.288 169.677 212.747 156.361C219.197 143.003 222.423 130.54 222.425 118.972C222.425 109.24 219.764 99.6682 214.441 90.2571C209.118 80.846 202.02 73.6419 193.146 68.6449C184.282 63.6479 174.14 61.1527 162.541 61.1527C151.355 61.1527 141.201 63.3008 132.704 67.5807V126.009C133.032 117.23 136.033 110.147 140.715 104.803Z" fill="#08C7D1"/>
<path d="M132.691 200.934L121.804 211.783V261.245H132.691V200.934Z" fill="#07898F"/>
<path d="M132.691 126.009V67.5676C129.289 69.3653 125.205 71.5396 121.804 74.0905V128.913H132.31C132.333 128.236 132.691 126.972 132.691 126.009Z" fill="#07898F"/>
</g>
<defs>
<linearGradient id="paint0_linear_485_344" x1="91.3136" y1="281.715" x2="386.47" y2="57.897" gradientUnits="userSpaceOnUse">
<stop offset="0.41" stop-color="#E0E0E0"/>
<stop offset="0.61" stop-color="white"/>
</linearGradient>
<clipPath id="clip0_485_344">
<rect width="490" height="454" fill="white"/>
</clipPath>
</defs>
</svg>
