<?xml version="1.0" encoding="utf-8"?>
<!-- Generator: Adobe Illustrator 24.1.2, SVG Export Plug-In . SVG Version: 6.00 Build 0)  -->
<svg version="1.1" xmlns="http://www.w3.org/2000/svg" xmlns:xlink="http://www.w3.org/1999/xlink" x="0px" y="0px"
	 viewBox="0 0 2300 2100" style="enable-background:new 0 0 2300 2100;" xml:space="preserve">
<style type="text/css">
	.st0{clip-path:url(#SVGID_2_);}
	.st1{clip-path:url(#SVGID_4_);}
	.st2{fill:#F0F2F5;}
	.st3{fill:#E1E6EB;}
	.st4{fill:#D2D9E1;}
	.st5{fill:#08C7D1;}
	.st6{fill:#9665FD;}
	.st7{fill:#FFC89F;}
	.st8{fill:#FF9A6C;}
	.st9{fill:#1B1B2F;}
	.st10{fill:#E43F5A;}
	.st11{fill:#FFFFFF;}
	.st12{fill:#1B1A2E;}
	.st13{fill:#1F4168;}
	.st14{opacity:0.4;}
	.st15{fill:#A65B3C;}
	.st16{display:none;}
	.st17{display:inline;fill:#1F4168;}
	.st18{display:inline;fill:#112E4C;}
</style>
<g id="BACK">
	<g>
		<defs>
			<rect id="SVGID_1_" width="2300" height="2100"/>
		</defs>
		<clipPath id="SVGID_2_">
			<use xlink:href="#SVGID_1_"  style="overflow:visible;"/>
		</clipPath>
		<g class="st0">
			<g>
				<g>
					<defs>
						<rect id="SVGID_3_" x="329.4" y="280" width="1672.9" height="1475.7"/>
					</defs>
					<clipPath id="SVGID_4_">
						<use xlink:href="#SVGID_3_"  style="overflow:visible;"/>
					</clipPath>
					<g class="st1">
						<g>
							<polygon class="st2" points="2002.2,1037 1285.2,1092.7 1969,869.8 1908.2,723 1267.1,1048.8 1813.4,581.2 1701.1,468.8 
								1233.5,1015.2 1559.3,374.1 1412.5,313.3 1189.6,997 1245.2,280 1086.4,280 1142,997 919.1,313.3 772.3,374.1 1098.1,1015.2 
								630.5,468.8 518.2,581.2 1064.5,1048.8 423.4,723 362.6,869.8 1046.3,1092.7 329.4,1037 329.4,1195.9 1046.3,1140.2 
								362.6,1363.2 423.4,1509.9 1064.5,1184.1 518.2,1651.8 630.5,1764.1 1098.1,1217.7 772.3,1858.8 919.1,1919.6 1142,1235.9 
								1086.4,1952.9 1245.2,1952.9 1189.6,1235.9 1412.5,1919.6 1559.3,1858.8 1233.5,1217.7 1701.1,1764.1 1813.4,1651.8 
								1267.1,1184.1 1908.2,1509.9 1969,1363.2 1285.2,1140.2 2002.2,1195.9 							"/>
						</g>
					</g>
				</g>
			</g>
			<g>
				<g>
					<g>
						<g>
							
								<rect x="1658.3" y="1387.4" transform="matrix(0.9235 0.3836 -0.3836 0.9235 683.2351 -533.1568)" class="st3" width="40.5" height="118.5"/>
						</g>
					</g>
					<g>
						<g>
							<path class="st3" d="M1916,1194l-226.1-93.9l-47.4,114c-25.9,62.4,3.7,134.1,66.1,160l0,0c62.4,25.9,134.1-3.7,160-66.1
								L1916,1194z"/>
						</g>
					</g>
					<g>
						<g>
							
								<rect x="1482" y="1615.9" transform="matrix(0.9235 0.3836 -0.3836 0.9235 748.0128 -489.744)" class="st4" width="240" height="29.6"/>
						</g>
					</g>
					<g>
						<g>
							<path class="st4" d="M1689.8,1547.5l-90.8-37.7l0,0c6.3-15.1,23.6-22.3,38.7-16l36.1,15
								C1688.9,1515.1,1696.1,1532.4,1689.8,1547.5L1689.8,1547.5z"/>
						</g>
					</g>
					<g>
						<g>
							<path class="st4" d="M1719.3,1399.4l-36.1-15c-15.1-6.3-22.3-23.6-16-38.7l0,0l90.8,37.7l0,0
								C1751.7,1398.5,1734.4,1405.7,1719.3,1399.4z"/>
						</g>
					</g>
					<g>
						<g>
							
								<rect x="1656.3" y="1118.6" transform="matrix(0.9235 0.3836 -0.3836 0.9235 573.0392 -607.0169)" class="st4" width="304.6" height="29.6"/>
						</g>
					</g>
					<g>
						<g>
							
								<rect x="1527" y="1525" transform="matrix(0.9235 0.3836 -0.3836 0.9235 727.658 -503.387)" class="st3" width="198.1" height="95.7"/>
						</g>
					</g>
					<g>
						<g>
							<g>
								
									<ellipse transform="matrix(0.9242 -0.3818 0.3818 0.9242 -321.2807 819.8239)" class="st4" cx="1905.2" cy="1219.5" rx="16.1" ry="16.1"/>
							</g>
						</g>
						<g>
							<g>
								
									<ellipse transform="matrix(0.111 -0.9938 0.9938 0.111 264.4195 3020.9048)" class="st4" cx="1820.8" cy="1362.6" rx="16.1" ry="16.1"/>
							</g>
						</g>
						<g>
							<g>
								<path class="st4" d="M1818.2,1368.9l5.2-12.4c46.3,19.2,99.6-2.8,118.9-49.1l23.1-55.6l-62.7-26l5.2-12.4l75.1,31.2
									l-28.2,68C1932.6,1365.6,1871.4,1390.9,1818.2,1368.9z"/>
							</g>
						</g>
						<g>
							<g>
								
									<ellipse transform="matrix(6.741238e-02 -0.9977 0.9977 6.741238e-02 443.0211 2725.3691)" class="st4" cx="1679.4" cy="1125.7" rx="16.1" ry="16.1"/>
							</g>
						</g>
						<g>
							<g>
								<path class="st4" d="M1622.7,1280.4c-3.4,8.2,0.5,17.7,8.7,21.1c8.2,3.4,17.7-0.5,21.1-8.7c3.4-8.2-0.5-17.7-8.7-21.1
									C1635.5,1268.2,1626.1,1272.1,1622.7,1280.4z"/>
							</g>
						</g>
						<g>
							<g>
								<path class="st4" d="M1635,1292.7c-53.2-22.1-78.4-83.3-56.4-136.4l28.2-68l75.1,31.2l-5.2,12.4l-62.7-26l-23.1,55.6
									c-19.2,46.3,2.8,99.6,49.1,118.9L1635,1292.7z"/>
							</g>
						</g>
					</g>
					<g>
						<g>
							<path class="st4" d="M1737.7,1304.1c-34.3-14.3-50.7-53.8-36.4-88.2c14.3-34.3,53.8-50.7,88.2-36.4s50.7,53.8,36.4,88.2
								C1811.6,1302.1,1772,1318.4,1737.7,1304.1z M1786.8,1185.8c-30.9-12.8-66.5,1.9-79.4,32.8c-12.8,30.9,1.9,66.5,32.8,79.4
								s66.5-1.9,79.4-32.8C1832.5,1234.2,1817.8,1198.6,1786.8,1185.8z"/>
						</g>
					</g>
					<g>
						<g>
							<g>
								<path class="st4" d="M1737.2,1252.5l12.8,5.3l14.1-33.9l-11-4.6l3.5-8.4c6.8,1.4,11.6,1.5,16.8,0.7l10,4.2l-19.8,47.7
									l11,4.6l-4.5,10.9l-37.4-15.5L1737.2,1252.5z"/>
							</g>
						</g>
					</g>
				</g>
				<g>
					<g>
						<g>
							
								<rect x="513.7" y="618.8" transform="matrix(0.9317 -0.3632 0.3632 0.9317 -202.9401 236.3322)" class="st3" width="26.7" height="78.2"/>
						</g>
					</g>
					<g>
						<g>
							<path class="st3" d="M524.6,429.3l-150.4,58.6l29.6,75.8c16.2,41.5,63,62.1,104.5,45.9l0,0c41.5-16.2,62.1-63,45.9-104.5
								L524.6,429.3z"/>
						</g>
					</g>
					<g>
						<g>
							
								<rect x="495.7" y="770.6" transform="matrix(0.9317 -0.3632 0.3632 0.9317 -244.162 262.0323)" class="st4" width="158.3" height="19.5"/>
						</g>
					</g>
					<g>
						<g>
							<path class="st4" d="M578.5,700.7l-60.4,23.5l0,0c-3.9-10,1.1-21.4,11.1-25.3l24-9.4C563.3,685.7,574.6,690.7,578.5,700.7
								L578.5,700.7z"/>
						</g>
					</g>
					<g>
						<g>
							<path class="st4" d="M524.9,616.8l-24,9.4c-10,3.9-21.4-1.1-25.3-11.1l0,0l60.4-23.5v0C539.9,601.6,534.9,612.9,524.9,616.8z
								"/>
						</g>
					</g>
					<g>
						<g>
							
								<rect x="345.4" y="439.8" transform="matrix(0.9317 -0.3632 0.3632 0.9317 -132.8107 192.6089)" class="st4" width="200.8" height="19.5"/>
						</g>
					</g>
					<g>
						<g>
							
								<rect x="494.5" y="710.3" transform="matrix(0.9317 -0.3632 0.3632 0.9317 -231.2081 253.9561)" class="st3" width="130.6" height="63.1"/>
						</g>
					</g>
					<g>
						<g>
							<g>
								<path class="st4" d="M541.1,442.5c2.1,5.5-0.6,11.6-6,13.8s-11.6-0.6-13.8-6c-2.1-5.5,0.6-11.6,6-13.8
									C532.8,434.3,538.9,437,541.1,442.5z"/>
							</g>
						</g>
						<g>
							<g>
								
									<ellipse transform="matrix(0.4276 -0.904 0.904 0.4276 -181.3924 819.4733)" class="st4" cx="556.4" cy="553" rx="10.6" ry="10.6"/>
							</g>
						</g>
						<g>
							<g>
								<path class="st4" d="M558,557.1l-3.2-8.3c30.8-12,46.1-46.8,34.1-77.6l-14.4-37l-41.7,16.3l-3.2-8.3l49.9-19.5l17.6,45.2
									C610.9,503.3,593.3,543.3,558,557.1z"/>
							</g>
						</g>
						<g>
							<g>
								
									<ellipse transform="matrix(0.2866 -0.958 0.958 0.2866 -211.9965 725.0965)" class="st4" cx="380.9" cy="504.9" rx="10.6" ry="10.6"/>
							</g>
						</g>
						<g>
							<g>
								<path class="st4" d="M424.6,604.3c2.1,5.5,8.3,8.2,13.8,6s8.2-8.3,6-13.8c-2.1-5.5-8.3-8.2-13.8-6
									C425.2,592.7,422.4,598.9,424.6,604.3z"/>
							</g>
						</g>
						<g>
							<g>
								<path class="st4" d="M436.1,604.6c-35.4,13.8-75.3-3.8-89.1-39.1l-17.6-45.2l49.9-19.5l3.2,8.3l-41.7,16.3l14.4,37
									c12,30.8,46.8,46.1,77.6,34.1L436.1,604.6z"/>
							</g>
						</g>
					</g>
					<g>
						<g>
							<path class="st4" d="M490.1,563.1c-22.8,8.9-48.7-2.4-57.6-25.3c-8.9-22.8,2.4-48.7,25.3-57.6c22.8-8.9,48.7,2.4,57.6,25.3
								C524.3,528.4,513,554.2,490.1,563.1z M459.4,484.4c-20.6,8-30.8,31.3-22.8,51.8c8,20.6,31.3,30.8,51.8,22.8
								c20.6-8,30.8-31.3,22.8-51.8C503.3,486.6,480,476.4,459.4,484.4z"/>
						</g>
					</g>
					<g>
						<g>
							<g>
								<path class="st4" d="M466.3,538.7l8.5-3.3l-8.8-22.6l-7.3,2.8l-2.2-5.6c3.9-2.4,6.2-4.6,8.3-7.3l6.7-2.6l12.4,31.7l7.3-2.8
									l2.8,7.3l-24.9,9.7L466.3,538.7z"/>
							</g>
						</g>
					</g>
				</g>
			</g>
		</g>
	</g>
</g>
<g id="CHARACTER">
	<g>
		<g>
			<path class="st5" d="M1411.3,1755.7l-47.7-402.2l-2.4-89.3l53,25.5c11.8,5.7,25.8,3.8,35.6-4.8c28.8-25.3,77.3-92.1,38.8-238.6
				l-119.8-34.6l-56.3-30.6c-20.2-11-42.5-17.9-65.4-20.3l-104.3-11l-17.3-17.7c-12.4-12.7-29.3-20-47-20.3L831,907.7
				c-17.7,0.4-33,12.7-37.1,30l-5.1,21.4l-196.6,95.4l-71.5,314.2c0,0,56.8,67.7,217.1,83.7l-22.5,303.5H1411.3z"/>
		</g>
		<g>
			<path class="st6" d="M1261.6,1755.7h-249.9c0,0,5.6-632.8-182.3-812.6l274.2,4.3c0,0,71.2,184.5,127.1,560.2
				C1241.9,1582.7,1252.4,1665.4,1261.6,1755.7z"/>
		</g>
		<g>
			<path class="st7" d="M1103.6,947.4c0,0-141.8,80.6-274.2-4.3c18.4-15.4,28.5-38.6,27.3-62.6l-4.1-80.1l200.6,15.6l10.1,75.2
				l3.3,24.2l0.3,1.9c0.8,5.8,4.2,10.9,9.2,13.9L1103.6,947.4z"/>
		</g>
		<g>
			<g>
				<g>
					<g>
						<polygon class="st7" points="1045.7,761 1069.7,923.1 866.5,930.3 845.8,790.6 						"/>
					</g>
					<g>
						<path class="st7" d="M997.6,911L997.6,911c-73.5,10.9-141.9-39.9-152.8-113.4L820.7,635c-10.9-73.5,39.9-141.9,113.4-152.8h0
							c73.5-10.9,141.9,39.9,152.8,113.4l24.1,162.6C1121.8,831.7,1071.1,900.1,997.6,911z"/>
					</g>
					<g>
						<path class="st8" d="M1063.5,881.7l4,26.9c-13.8,2.1-40.6,2.9-66-6.2C1027.3,904.1,1047,895,1063.5,881.7z"/>
					</g>
				</g>
				<g>
					<g>
						<g>
							<path class="st9" d="M1069.9,665.6c-1.9-1.1-4-2.1-6.1-2.8c-2.1-0.8-4.3-1.4-6.5-1.8c-4.4-0.8-8.9-1-13.3-0.2
								c-4.4,0.7-8.7,2.2-12.6,4.3c-3.9,2.1-7.6,4.8-11,7.8c0.8-0.8,1.6-1.6,2.4-2.4c0.9-0.7,1.7-1.5,2.6-2.2c0.9-0.7,1.8-1.4,2.7-2
								l1.4-1l1.5-0.9c2-1.2,4-2.1,6.2-2.9c2.1-0.8,4.4-1.4,6.6-1.8c4.5-0.7,9.2-0.6,13.6,0.4C1061.9,661.3,1066.2,663,1069.9,665.6
								z"/>
						</g>
					</g>
					<g>
						<g>
							<path class="st9" d="M944.1,684.2c-1.9-1.1-4-2.1-6.1-2.8c-2.1-0.8-4.3-1.4-6.5-1.8c-4.4-0.8-8.9-1-13.3-0.2
								c-4.4,0.7-8.7,2.2-12.6,4.3c-3.9,2.1-7.6,4.8-11,7.8c0.8-0.8,1.6-1.6,2.4-2.4c0.9-0.7,1.7-1.5,2.6-2.2c0.9-0.7,1.8-1.4,2.7-2
								l1.4-1l1.5-0.9c2-1.2,4-2.1,6.2-2.9c2.1-0.8,4.4-1.4,6.6-1.8c4.5-0.7,9.2-0.6,13.6,0.4C936.2,679.9,940.4,681.6,944.1,684.2z
								"/>
						</g>
					</g>
					<g>
						<path class="st9" d="M1001.7,713.7c1.7,5,3.3,10,4.8,15c1.6,5,3,10,4.6,15c0.4,1.3,0.7,2.5,1.1,3.8c0.3,1.3,0.5,2.6,0.6,4
							c0.2,2.7,0,5.4-0.8,7.9c-0.8,2.5-2.2,5-4.3,6.7c-2.1,1.6-4.2,3.2-6.3,4.7c2-1.7,4-3.4,6-5.1c1.9-1.7,3.2-4.1,3.9-6.5
							c0.7-2.5,0.9-5.1,0.7-7.6c-0.2-2.6-1-5-1.7-7.5c-1.4-5-2.9-10.1-4.3-15.1C1004.3,723.9,1002.9,718.8,1001.7,713.7z"/>
					</g>
					<g>
						<path class="st10" d="M1020.3,789.8c-0.5,1.7-1.1,3.2-1.9,4.7c-0.8,1.4-1.7,2.8-2.7,4.2c-1.1,1.2-2.1,2.6-3.4,3.7
							c-0.6,0.6-1.3,1.1-1.9,1.7c-0.7,0.5-1.4,1-2.1,1.5c-1.4,1-3.1,1.7-4.7,2.5c-1.7,0.6-3.4,1.3-5.2,1.6
							c-3.6,0.8-7.5,0.9-11.2,0.2c-3.7-0.6-7.2-2-10.3-3.9c-3.1-1.8-5.8-4.2-8-6.8c-2.2-2.6-3.9-5.5-5.1-8.6
							c-0.6-1.6-1.1-3.1-1.4-4.8c-0.3-1.6-0.5-3.3-0.4-5.1c1.6,0.7,3,1.4,4.4,2.1l4,2c1,0.5,1.9,0.9,2.8,1.3
							c0.6,0.3,1.3,0.6,1.9,0.9c0.9,0.4,1.8,0.8,2.6,1.2c4.6,2,8.7,3.3,12.6,4c2,0.4,3.9,0.5,6,0.6c1.1,0.1,2.1,0,3.3,0
							c1.1-0.1,2.3-0.1,3.5-0.3c0.6-0.1,1.2-0.1,1.7-0.2c0.4-0.1,0.8-0.1,1.3-0.2c1.6-0.2,3.2-0.5,4.9-0.7c1.4-0.2,2.9-0.5,4.4-0.7
							C1016.9,790.2,1018.5,789.9,1020.3,789.8z"/>
					</g>
					<g>
						<path class="st11" d="M1006.1,792c-0.1,0.2-0.3,0.3-0.4,0.5c-0.5,0.4-1,0.9-1.5,1.3c-4,3.3-10.1,4.9-15.9,3.9
							c-5.8-1-10.7-4.4-13.5-8.6c-0.6-0.9-1.2-1.9-1.6-2.9c0.6,0.3,1.3,0.6,1.9,0.9c0.9,0.4,1.8,0.8,2.6,1.2c4.6,2,8.7,3.3,12.6,4
							c2,0.4,3.9,0.5,6,0.6c1.1,0.1,2.1,0,3.3,0c1.1-0.1,2.3-0.1,3.5-0.3c0.6-0.1,1.2-0.1,1.7-0.2
							C1005.2,792.1,1005.7,792.1,1006.1,792z"/>
					</g>
					<g>
						<path class="st9" d="M1062.6,619.4l-7.4,0.5c-2.2,0.1-4.3,0.4-6.3,0.5c-4,0.4-7.4,0.8-10.9,1.4c-1.7,0.3-3.5,0.6-5.3,1
							c-0.9,0.1-1.8,0.4-2.8,0.5c-0.9,0.2-1.9,0.4-2.9,0.6c-0.5,0.1-1,0.2-1.5,0.3c-0.5,0.1-1,0.2-1.5,0.4c-1.1,0.2-2.1,0.5-3.3,0.7
							c-1.1,0.2-2.3,0.5-3.5,0.7c-1.2,0.3-2.5,0.5-3.9,0.6c0.2-1.4,0.6-2.7,1.1-3.9c0.5-1.2,1.1-2.4,1.7-3.6
							c0.7-1.1,1.4-2.2,2.3-3.2c0.4-0.5,0.9-1,1.3-1.5c0.5-0.5,0.9-0.9,1.4-1.4c1-0.9,2.1-1.7,3.1-2.5c0.6-0.4,1.1-0.7,1.7-1
							l0.9-0.5l0.9-0.4c2.4-1.2,5.1-2,7.8-2.4c5.4-0.9,11.1-0.2,16,2c2.4,1.1,4.7,2.6,6.6,4.4c1,0.9,1.9,1.9,2.7,3
							C1061.5,616.8,1062.1,618,1062.6,619.4z"/>
					</g>
					<g>
						<path class="st9" d="M936.9,638l-7.4,0.5c-2.2,0.1-4.3,0.4-6.3,0.5c-4,0.4-7.4,0.8-10.9,1.4c-1.7,0.3-3.5,0.6-5.3,1
							c-0.9,0.1-1.8,0.4-2.8,0.5c-0.9,0.2-1.9,0.4-2.9,0.6c-0.5,0.1-1,0.2-1.5,0.3c-0.5,0.1-1,0.2-1.5,0.4c-1.1,0.2-2.1,0.5-3.3,0.7
							c-1.1,0.2-2.3,0.5-3.5,0.7c-1.2,0.3-2.5,0.5-3.9,0.6c0.2-1.4,0.6-2.7,1.1-3.9c0.5-1.2,1.1-2.4,1.7-3.6
							c0.7-1.1,1.4-2.2,2.3-3.2c0.4-0.5,0.9-1,1.3-1.5c0.5-0.5,0.9-0.9,1.4-1.4c1-0.9,2.1-1.7,3.1-2.5c0.6-0.4,1.1-0.7,1.7-1
							l0.9-0.5l0.9-0.4c2.4-1.2,5.1-2,7.8-2.4c5.4-0.9,11.1-0.2,16,2c2.4,1.1,4.7,2.6,6.6,4.4c1,0.9,1.9,1.9,2.7,3
							C935.7,635.4,936.4,636.6,936.9,638z"/>
					</g>
				</g>
			</g>
			<g>
				<path class="st12" d="M1097.8,669.4c0,0,19.4-36,54.1-22.9c0,0,2-63.3-46.2-77.3c52.7-12.4,120-104.5-12.7-173.6
					c0,0,23.2,89.8-243.7,4.1c0,0-36.7,85-124.4,119.3c0,0,3.2,29.4,22.8,59.2c0,0-64.5,32.7-53,120.6c0,0,86.1,40.4,128.7,129.6
					l29.1,7.3l-24.6-152.1l14.5-19.1c9.3-12.3,13.3-27.9,11.1-43.2l-5.9-39.8c0,0,81.1-39.7,171.2-35.5
					c32.4,1.5,59.6,24.9,66.4,56.6C1089,620.6,1093.4,643.2,1097.8,669.4z"/>
			</g>
			<g>
				<g>
					<g>
						<g>
							<path class="st7" d="M831,794.2l6.9-1c13.7-2,23.1-14.7,21.1-28.4l-6.5-44.2c-2-13.7-14.7-23.1-28.4-21.1l-6.9,1
								c-13.7,2-23.1,14.7-21.1,28.4l6.5,44.2C804.6,786.8,817.3,796.2,831,794.2z"/>
						</g>
					</g>
					<g>
						<g>
							<path class="st8" d="M830.4,713.5c-2.3,0.6-4.6,1.4-6.6,2.6c-2.1,1.1-3.9,2.6-5.6,4.2c-1.6,1.6-3,3.6-4.1,5.6
								c-0.6,1-1,2.1-1.4,3.2l-0.5,1.7c-0.2,0.5-0.2,1.1-0.4,1.7c-0.4,2.3-0.6,4.6-0.3,6.9c0.2,2.3,0.6,4.8,0.9,7.1
								c0.6,4.8,1.1,9.6,1.3,14.4c-1.1-4.7-2-9.4-2.9-14.2c-0.2-1.2-0.4-2.4-0.6-3.6c-0.2-1.2-0.4-2.3-0.6-3.6
								c-0.4-2.5-0.2-5,0.2-7.5c0.5-2.5,1.3-4.8,2.6-7c1.3-2.2,2.8-4.2,4.6-5.8c1.9-1.7,3.9-3,6.2-4
								C825.6,714.3,828,713.7,830.4,713.5z"/>
						</g>
					</g>
					<g>
						<g>
							<path class="st8" d="M828.7,765.6l1.2-4c0.4-1.3,0.7-2.6,1-3.9c0.3-1.3,0.5-2.6,0.7-3.9l0.5-4.1c0.6,1.3,0.9,2.7,1,4.2
								c0.1,1.4,0,2.9-0.3,4.3c-0.3,1.4-0.8,2.8-1.5,4C830.6,763.5,829.8,764.7,828.7,765.6z"/>
						</g>
					</g>
				</g>
			</g>
			<g>
				<path class="st12" d="M1105.8,569.2c0,0,74.6-6.7,52,48.4C1157.7,617.6,1145.2,579.6,1105.8,569.2z"/>
			</g>
			<g>
				<path class="st12" d="M757.4,575.9c0,0-88.3,8.8-67.8,61.4C689.6,637.3,702.4,593.5,757.4,575.9z"/>
			</g>
			<g>
				<path class="st12" d="M947.1,426.5c0,0-55.1-15.8-69.9-52.3C877.3,374.1,848.6,436.5,947.1,426.5z"/>
			</g>
			<g>
				<path class="st12" d="M1037.8,436.4c0,0,44.3-4.9,41.4-37C1079.2,399.4,1115.6,442.1,1037.8,436.4z"/>
			</g>
			<g>
				<path class="st13" d="M837.9,577.9c-3.1-1.7-6.4-3.2-9.7-4.5c-3.3-1.3-6.6-2.5-10-3.5c-6.8-2-13.8-3.6-20.8-4.1
					c-7-0.7-14.2-0.5-21.2,0.6c-1.8,0.2-3.5,0.7-5.2,1c-1.7,0.5-3.4,0.8-5.1,1.4c-3.4,1-6.7,2.4-9.9,3.8c6.3-3.3,13.1-5.8,20.2-7
					c3.5-0.7,7.1-1,10.7-1.1c3.6-0.2,7.2,0,10.7,0.3c3.6,0.3,7.1,0.9,10.6,1.6c3.5,0.7,7,1.6,10.4,2.8
					C825.1,571.4,831.8,574.2,837.9,577.9z"/>
			</g>
			<g>
				<path class="st13" d="M986.8,478.1c-7.4-2.1-15.1-2.9-22.8-3.2c-7.7-0.2-15.3,0.5-22.9,2c-7.5,1.5-14.9,3.8-21.8,7
					c-7,3.2-13.6,7.1-19.7,11.7l-4.5,3.6c-1.5,1.2-2.9,2.6-4.3,3.8c-0.7,0.7-1.5,1.3-2.1,2l-2,2.1l-2,2.1l-1,1
					c-0.3,0.4-0.6,0.7-0.9,1.1l-3.7,4.4l-0.9,1.1l-0.9,1.1l-1.7,2.3l-1.7,2.3c-0.6,0.8-1.2,1.5-1.7,2.3l-3.2,4.8
					c-8.4,12.9-14.9,26.9-20.2,41.3l4-10.8c1.5-3.5,3-7.1,4.5-10.6c1.7-3.4,3.4-6.9,5.2-10.3l2.9-5l1.4-2.5c0.5-0.8,1-1.6,1.6-2.4
					l3.2-4.8c0.5-0.8,1.1-1.6,1.7-2.4l1.7-2.3l1.7-2.3l0.9-1.2l0.9-1.1l3.7-4.4c0.3-0.4,0.6-0.7,0.9-1.1l1-1l2-2.1l2-2.1
					c0.7-0.7,1.4-1.3,2.1-2c1.4-1.3,2.8-2.6,4.3-3.9l4.5-3.6c6.2-4.6,12.9-8.6,19.9-11.8c7-3.2,14.5-5.5,22-6.9
					C956.2,473.4,972.1,473.8,986.8,478.1z"/>
			</g>
			<g>
				<path class="st13" d="M1106.6,569c-6.5,1.3-13.3,1.4-19.9,0.7c-6.6-0.7-13.2-2.4-19.3-5.1c-3-1.4-6-3-8.8-4.9
					c-2.7-1.9-5.3-4-7.7-6.4c-4.7-4.8-8.5-10.4-11.4-16.4l1.3,2.2c0.4,0.7,0.8,1.5,1.3,2.1c0.9,1.4,1.8,2.8,2.8,4.1
					c1.9,2.7,4.2,5.1,6.5,7.5c2.4,2.3,5,4.4,7.7,6.2c2.8,1.8,5.6,3.4,8.7,4.8c6,2.7,12.5,4.4,19,5.3c3.3,0.4,6.6,0.6,9.9,0.6
					C1100,569.6,1103.3,569.4,1106.6,569z"/>
			</g>
			<g>
				<path class="st13" d="M848.8,570.8c0.8-9.3,2.4-18.6,4.4-27.8c2.1-9.2,4.8-18.2,8-27c1.7-4.4,3.5-8.7,5.5-13
					c2.1-4.2,4.3-8.4,6.7-12.4c2.5-4,5.2-7.8,8.1-11.5c3-3.6,6.2-7,9.7-10.2c-3.3,3.3-6.5,6.8-9.3,10.5c-2.8,3.7-5.4,7.6-7.8,11.6
					c-2.3,4-4.5,8.2-6.5,12.4c-2,4.2-3.8,8.5-5.4,12.9c-3.3,8.7-6,17.7-8.2,26.8c-1.1,4.5-2.1,9.1-3,13.7
					C850.1,561.6,849.4,566.2,848.8,570.8z"/>
			</g>
			<g>
				<path class="st13" d="M979.2,476.3c5.6,0.6,11.2,0.7,16.8,0.7c5.6,0,11.2-0.4,16.8-1c11.1-1.3,22.2-3.5,32.6-7.7
					c5.2-2,10.2-4.5,15-7.5c4.7-3,9-6.6,13-10.6c7.8-8,13.3-18.1,16.6-28.8l-1.2,4l-0.6,2l-0.8,2l-1.6,3.9l-1.9,3.8
					c-0.6,1.3-1.4,2.4-2.1,3.6c-0.8,1.2-1.4,2.4-2.3,3.5l-2.6,3.4l-2.8,3.2c-3.9,4.1-8.3,7.7-13,10.8c-4.8,3-9.8,5.6-15.1,7.7
					c-5.2,2.1-10.7,3.6-16.2,4.9c-5.5,1.2-11.1,2.1-16.7,2.6C1001.7,477.8,990.4,477.8,979.2,476.3z"/>
			</g>
			<g>
				<path class="st13" d="M1127.4,443.5c1.9,8.5,2.6,17.3,2.4,26c-0.1,4.4-0.5,8.7-1.2,13c-0.7,4.3-1.7,8.6-3.1,12.7
					c-1.4,4.1-3.3,8.1-5.6,11.9c-2.3,3.8-5.1,7.2-8.3,10.2c-6.3,6.1-14.5,10-22.9,12.2c4.1-1.4,8.2-2.8,12-5.1l1.4-0.8l1.4-0.9
					c0.9-0.6,1.8-1.2,2.7-1.8l2.5-2c0.8-0.7,1.6-1.5,2.4-2.2c3-3,5.8-6.4,8-10.1c2.2-3.7,4-7.7,5.4-11.7c2.8-8.2,4.1-16.8,4.5-25.5
					c0.2-4.3,0.1-8.7-0.2-13C1128.6,452.1,1128.2,447.8,1127.4,443.5z"/>
			</g>
			<g>
				<path class="st13" d="M1125.7,433.8c1.7,7.8,2.9,15.7,2.8,23.6c-0.1,4-0.4,8-1.3,11.9c-0.9,3.9-2.3,7.7-4.5,11.1
					c-1,1.7-2.3,3.3-3.7,4.8c-1.4,1.5-2.9,2.8-4.5,4c-3.3,2.3-7,4.1-10.8,5.3c-3.8,1.2-7.8,2-11.7,2.4c-4,0.5-8,0.6-12,0.6
					c-8-0.1-15.9-1-23.8-2.2c-7.9-1.2-15.7-2.8-23.4-4.6c-7.7-1.8-15.4-3.8-23.1-5.9c-7.7-2.1-15.3-4.4-22.9-6.6
					c7.7,2.1,15.3,4.2,23,6.2c7.7,2,15.4,3.9,23.1,5.6c7.8,1.7,15.5,3.3,23.4,4.5c7.8,1.2,15.7,2,23.7,2.1c4,0.1,7.9-0.1,11.8-0.5
					c3.9-0.4,7.8-1.2,11.6-2.4c3.8-1.2,7.3-2.9,10.6-5.1c3.2-2.3,6-5.1,8.1-8.5c2.1-3.3,3.5-7,4.5-10.8c1-3.8,1.4-7.8,1.5-11.7
					C1128.3,449.5,1127.2,441.6,1125.7,433.8z"/>
			</g>
		</g>
		<g class="st14">
			<path class="st15" d="M1482,1234.9c0,0-55.3,92.4-77.1-6.3L1482,1234.9z"/>
		</g>
		<g class="st14">
			<path class="st15" d="M1011.7,1755.7h-67c0,0,55.4-424-21.2-650.9C1015.2,1359.3,1011.7,1755.7,1011.7,1755.7z"/>
		</g>
		<g class="st14">
			<path class="st15" d="M1335.3,1755.7h-73.6c-32.6-319.3-81.6-542.6-116.3-672.4C1219.2,1344.7,1335.3,1755.7,1335.3,1755.7z"/>
		</g>
		<g class="st14">
			<path class="st15" d="M1361.2,1264.2l20.7,10l-7.8-11.5c-3.1-4.5-5.2-9.6-6.1-15l-7.9-44.1L1361.2,1264.2z"/>
		</g>
		<g class="st14">
			<path class="st15" d="M759.7,1274c0,0,8.4,72.5,0.5,117.8l-22.5,60.5l9.9,107.2C747.7,1559.5,831.9,1517.7,759.7,1274z"/>
		</g>
		<g class="st14">
			<path class="st15" d="M879.2,1060c0,0,7.5,14.2,19.3,23.5l-14.5-8.2c-3.5-2-7.7-2.8-11.7-2.3l-13.8,1.8
				C858.5,1074.8,866.6,1065.1,879.2,1060z"/>
		</g>
		<g class="st14">
			<path class="st15" d="M1165.8,1042.7c0,0,11.8,9.6,24.9,14.1l-20.3-1.7c-5.8-0.5-11.4,1.4-15.8,5.2l-7.8,6.9
				C1146.8,1067.2,1149.8,1047.4,1165.8,1042.7z"/>
		</g>
		<g class="st14">
			<path class="st13" d="M1261.6,1755.7h-67.7l32.9-95.2c6.7-19.5,9.6-40.1,8.5-60.7l-5.1-93.5l0.4,1.3
				C1241.9,1582.7,1252.4,1665.4,1261.6,1755.7z"/>
		</g>
		<g>
			<path class="st15" d="M760.8,1122.9c2.9,0,5.9,0.1,8.8,0.1l4.4-0.1l2.2,0l2.2-0.1l4.4-0.3l4.4-0.5l2.2-0.2l2.2-0.3
				c1.4-0.2,2.9-0.4,4.3-0.7c5.8-1.1,11.4-2.6,16.8-4.8c5.4-2.2,10.6-5,15.2-8.5c4.7-3.5,8.9-7.5,12.8-11.9
				c3.9-4.4,7.4-9.1,11.2-13.6c3.8-4.5,7.6-9,12.2-12.8c4.5-3.8,9.6-6.9,15.1-9.1c-5.4,2.4-10.4,5.6-14.8,9.4
				c-4.4,3.8-8.2,8.3-11.9,12.9c-3.6,4.6-7.2,9.3-11.1,13.7c-3.9,4.5-8.1,8.6-12.9,12.1c-9.5,7.1-20.9,11.3-32.5,13.3
				C784.4,1123.4,772.6,1123.6,760.8,1122.9z"/>
		</g>
		<g>
			<polygon class="st15" points="788.7,959 785.5,979.5 782.1,1000 775.3,1041 768.2,1082 764.6,1102.4 760.8,1122.9 764.1,1102.3 
				767.4,1081.8 774.3,1040.8 781.4,999.9 785,979.4 			"/>
		</g>
		<g>
			<path class="st15" d="M879.2,1060c1.2,2,2.4,3.9,3.8,5.8c1.3,1.9,2.7,3.7,4.2,5.5c2.9,3.5,6,6.9,9.5,9.9
				c3.3,3.1,7.1,5.8,10.9,8.2l3,1.7l3.1,1.5l1.5,0.8l1.6,0.6l3.2,1.3c-4.4-1.3-8.8-2.8-12.8-5.2c-4-2.3-7.8-5-11.2-8.1
				c-3.4-3.1-6.6-6.5-9.4-10.2C883.8,1068,881.2,1064.1,879.2,1060z"/>
		</g>
		<g>
			<path class="st15" d="M1142.7,949.8c3.8,4.4,7.4,8.8,11.1,13.3c3.6,4.5,7.3,9,10.8,13.5c7.2,9,14.2,18.2,21.1,27.4
				c6.9,9.3,13.7,18.6,20.3,28c6.7,9.4,13.1,19,19.5,28.6c-3.4-4.7-6.6-9.5-10-14.1c-3.3-4.7-6.7-9.4-10.1-14.1l-10.2-14
				c-3.4-4.6-6.8-9.3-10.3-13.9c-6.9-9.3-13.9-18.4-20.9-27.6C1157,967.9,1149.9,958.8,1142.7,949.8z"/>
		</g>
		<g>
			<path class="st15" d="M1165.8,1042.7c2.1,1.7,4.3,3.2,6.6,4.6c1.1,0.7,2.3,1.4,3.4,2.1l3.5,1.9c4.7,2.5,9.7,4.5,14.7,6
				c2.5,0.9,5.1,1.4,7.7,2.1c2.6,0.4,5.2,1,7.9,1.2c1.3,0.1,2.6,0.3,4,0.4l4,0.1c0.7,0,1.3,0.1,2,0l2-0.1l4-0.2
				c-5.3,0.8-10.7,1.2-16,0.7l-2-0.1c-0.7,0-1.3-0.2-2-0.3l-4-0.6c-2.6-0.6-5.3-1.1-7.8-2c-5.1-1.6-10.1-3.7-14.8-6.3
				C1174.2,1049.4,1169.8,1046.3,1165.8,1042.7z"/>
		</g>
		<g>
			<path class="st15" d="M1145.3,1083.3c-0.3-4.1-0.1-8.2,0.4-12.3c0.5-4.1,1.5-8.1,2.9-12c0.7-1.9,1.7-3.8,2.7-5.6
				c1.1-1.8,2.3-3.5,3.8-4.9c1.5-1.5,3.1-2.8,4.9-3.8c1.8-1,3.8-1.7,5.8-2.1c-1.9,0.6-3.8,1.4-5.5,2.5c-1.7,1.1-3.2,2.4-4.6,3.9
				c-2.7,3-4.7,6.6-6.1,10.3c-1.5,3.8-2.4,7.7-3.1,11.7c-0.3,2-0.6,4-0.8,6C1145.5,1079.2,1145.4,1081.3,1145.3,1083.3z"/>
		</g>
		<g>
			<polygon class="st12" points="1090.9,1755.7 1100.1,1732.3 1109.3,1708.9 1127.9,1662.1 1146.7,1615.4 1156.2,1592.1 
				1165.8,1568.9 1156.7,1592.3 1147.4,1615.7 1128.8,1662.5 1110,1709.2 1100.5,1732.5 			"/>
		</g>
		<g>
			<path class="st12" d="M903.3,1017.9l6.6,1.4c2.2,0.4,4.4,1,6.6,1.3l6.6,1.1c1.1,0.2,2.2,0.4,3.3,0.5l3.3,0.4l6.6,0.9
				c2.2,0.2,4.4,0.4,6.7,0.7c4.4,0.5,8.9,0.7,13.4,1c8.9,0.4,17.9,0.6,26.8,0.2c4.5-0.1,8.9-0.5,13.4-0.8c4.4-0.5,8.9-0.8,13.3-1.4
				c17.7-2.2,35.2-6.2,52.2-11.6c8.5-2.7,16.9-5.8,25.1-9.4c8.2-3.6,16.3-7.4,23.9-12.1c-15.1,9.6-31.8,16.6-48.7,22.3
				c-8.5,2.8-17.2,5.2-25.9,7.1c-2.2,0.5-4.4,1-6.6,1.4l-6.6,1.3c-4.4,0.7-8.8,1.5-13.3,2c-4.4,0.6-8.9,1-13.4,1.4
				c-4.5,0.3-8.9,0.6-13.4,0.7c-8.9,0.4-17.9,0.2-26.9-0.3c-4.5-0.3-8.9-0.6-13.4-1.1c-2.2-0.2-4.5-0.5-6.7-0.7l-6.6-1l-3.3-0.5
				c-1.1-0.2-2.2-0.4-3.3-0.6l-6.6-1.2c-2.2-0.4-4.4-0.9-6.6-1.4L903.3,1017.9z"/>
		</g>
		<g>
			<path class="st15" d="M732.1,1138.9c6.6,20.3,11.9,41,16.3,61.9c4.4,20.9,8,42,10.7,63.2c1.2,10.6,2.3,21.2,3,31.9l0.3,4l0.2,4
				c0.1,2.7,0.3,5.3,0.4,8c0.2,5.3,0.4,10.7,0.4,16c0.1,5.3,0,10.7,0,16c0,2.7-0.1,5.3-0.2,8c-0.1,2.7-0.1,5.3-0.3,8l-0.5,8l-0.7,8
				l-0.3,4l-0.4,4l-0.9,8l0.8-8l0.4-4l0.3-4l0.5-8l0.3-8c0.1-2.7,0.2-5.3,0.3-8c0.1-2.7,0.2-5.3,0.2-8c0-5.3,0.1-10.7-0.1-16
				c-0.1-5.3-0.3-10.7-0.5-16c-0.1-2.7-0.3-5.3-0.5-8l-0.2-4l-0.3-4c-0.8-10.6-1.9-21.3-3.2-31.8c-2.5-21.2-6-42.3-10.3-63.2
				c-2.2-10.4-4.6-20.8-7.2-31.2C738,1159.4,735.3,1149,732.1,1138.9z"/>
		</g>
		<g>
			<path class="st15" d="M1361.2,1264.2c-0.4-8.7-0.7-17.3-0.9-26l-0.7-26l-0.4-26l-0.1-13l0-13l0.5,13l0.4,13l0.7,26l0.4,26
				C1361.1,1246.9,1361.2,1255.6,1361.2,1264.2z"/>
		</g>
		<g>
			<path class="st15" d="M944.7,1755.7c3.3-27.1,5.9-54.3,8.3-81.5c2.4-27.2,4.4-54.4,6-81.7c3.2-54.5,4.9-109.1,4.6-163.8
				c0-27.3-0.8-54.6-2-81.9c-1.2-27.3-3.3-54.5-6.1-81.7l-1.1-10.2l-0.6-5.1c-0.2-1.7-0.4-3.4-0.7-5.1l-2.7-20.3
				c-2.1-13.5-4.1-27-6.8-40.4c-5.1-26.8-11.5-53.4-20-79.4c8.7,25.9,15.3,52.5,20.5,79.3c2.7,13.4,4.8,26.9,6.9,40.4l2.7,20.3
				c0.2,1.7,0.5,3.4,0.7,5.1l0.6,5.1l1.1,10.2c2.9,27.2,5,54.4,6.3,81.7c1.3,27.3,2.1,54.6,2.2,81.9c0.2,54.6-1.6,109.3-4.9,163.8
				C956.3,1647.1,951.5,1701.5,944.7,1755.7z"/>
		</g>
		<g>
			<polygon class="st15" points="1335.2,1755.7 1311.3,1671.8 1287.4,1587.7 1239.8,1419.7 1192.5,1251.5 1168.8,1167.4 
				1145.3,1083.3 1169.3,1167.3 1193.1,1251.3 1240.8,1419.4 1288.1,1587.5 1311.7,1671.6 			"/>
		</g>
		<g class="st16">
			<path class="st17" d="M1768.6,643l-149.9-91.7c-11.2-6.8-16.3-20.4-12.4-32.9l36.7-118c3.7-12,18.1-16.9,28.4-9.5l126.7,90.6
				c8.4,6,12.9,16.1,11.8,26.4l-13.4,121.4C1795.1,642.7,1780.1,650.1,1768.6,643z"/>
		</g>
		<g class="st16">
			<path class="st18" d="M1788.5,642.6c-5.7,3.8-13.3,4.4-19.9,0.4l-149.9-91.6c-11.2-6.8-16.3-20.4-12.4-32.9l36.7-118
				c3.7-12,18.1-16.9,28.4-9.5l4,2.9c-6.2,1.1-11.8,5.5-13.9,12.3L1626,520c-3.8,12.1,1.2,25.2,12,31.8l144.8,88.6
				C1784.6,641.5,1786.5,642.2,1788.5,642.6z"/>
		</g>
		<g>
			<path class="st7" d="M760.2,1391.8l-2.8,35.8c0,0,27.2,93.2-9.5,132.6c0,0-72.8,138.9-165-7.6c-86.8-112.9-18.1-225.9-34-448.8
				c-1-14-6.6-27.3-15.9-37.8l-27.2-30.7c-5.5-6.3-8.9-14.1-9.7-22.4l-5.5-61.8c-0.6-6.6,2.5-13,8.1-16.7l33.8-22.2
				c6.7-4.4,14.9-6.1,22.8-4.6l2.1,0.4l6.8-4.7c13.8-9.5,32.9-6.6,42.6,7.1c0.3,0.4,0.6,0.9,0.9,1.3l11.4,0.2
				c8,0.1,15.5,4,20.3,10.5l5.9,8.2l10.5,4.8c9.1,4.2,16,12.1,18.7,21.7c6.1,21.9,12.6,64.7-8,118.1c-6.3,16.2-8,33.9-4.8,51
				c7.9,42.3,24.5,125.2,47.4,206.7C709.2,1332.6,751.7,1347,760.2,1391.8z"/>
		</g>
		<path class="st7" d="M1798.1,570.4l-29.2-19.2c-5.8-3.8-12.9-5.2-19.7-4l-1.8,0.3l-5.9-4.1c-11.9-8.2-28.4-5.7-36.8,6.1
			c-0.3,0.4-0.5,0.8-0.8,1.1l-9.9,0.1c-6.9,0.1-13.4,3.5-17.5,9.1l-5.1,7l-9.1,4.1c-7.9,3.6-13.8,10.4-16.1,18.7
			c-5.1,18-10.4,52.7,4.8,96l1,2.7c0.4,1.1,0.8,2.2,1.2,3.3c0.7,1.8,1.3,3.6,1.9,5.4l0,0l0,0c1.1,3.4,1.9,6.9,2.5,10.4l0,0l0,0
			c0.6,3.5,0.9,7,1.1,10.5l0,0.1v0.2c0.1,1.8,0.1,3.7,0,5.5v0.6c-17.3,178.8-85.9,343.6-85.9,343.6l-93-24
			c-100.5,47.2-74.9,184.3-74.9,184.3c104.7,20.2,227.4-14.2,227.4-14.2c77-12,78.5-98,78.5-98c23.5-98,29.3-254.3,30.7-326.5
			c-0.2-3.4-0.1-7.3,0.2-11.5c0.1-1.9,0.2-3.7,0.4-5.5c0.1,0,0.2-0.1,0.3-0.1c1.8-11.8,7.7-47.4,13.1-62.1l0,0
			c0.7-4.1,1.9-8,3.5-11.8c2.3-5.4,5.5-10.4,9.4-14.9l23.5-26.5c4.8-5.4,7.7-12.2,8.3-19.4l4.7-53.4
			C1805.6,579.1,1802.9,573.6,1798.1,570.4z"/>
		<g>
			<g>
				<path class="st8" d="M1747.4,547.6c2.2,2,4.5,4,6.9,5.9c2.3,2,4.6,3.9,7,5.8c2.4,1.8,4,4.4,4.6,7.3c0.1,0.7,0.2,1.5,0.3,2.2
					l0.2,2.3c0.2,1.5,0.3,3,0.6,4.5c-0.1-3-0.1-6-0.4-9.1c-0.2-1.5-0.8-3-1.6-4.4c-0.8-1.3-1.9-2.5-3.1-3.4
					c-2.4-1.9-4.7-3.8-7.1-5.6C1752.3,551.2,1749.9,549.4,1747.4,547.6z"/>
			</g>
			<g>
				<path class="st8" d="M1703.9,550.8c1.9,1,3.8,1.9,5.7,2.8c1.9,0.9,3.8,1.8,5.7,2.6c1.9,0.8,3.9,1.6,5.8,2.4l2.9,1.1
					c1,0.4,2,0.7,3,1.1c-0.9-0.5-1.9-1-2.8-1.4l-2.8-1.4c-1.9-0.9-3.8-1.7-5.7-2.6c-1.9-0.8-3.9-1.6-5.8-2.4
					C1707.9,552.2,1705.9,551.5,1703.9,550.8z"/>
			</g>
			<g>
				<path class="st8" d="M1671.4,567c2.4-0.2,4.8-0.5,7.1-0.8c2.4-0.3,4.7-0.7,7.1-1c2.4-0.4,4.7-0.8,7-1.2l3.5-0.7
					c1.2-0.3,2.3-0.5,3.5-0.8c-1.2,0.1-2.4,0.2-3.6,0.4l-3.6,0.4c-2.4,0.3-4.7,0.7-7.1,1c-2.4,0.4-4.7,0.8-7,1.2
					C1676.1,566,1673.8,566.5,1671.4,567z"/>
			</g>
		</g>
		<g>
			<path class="st8" d="M1572.8,1068.3c-1.7,3.2-3.6,6.4-5.5,9.5c-1.9,3.1-3.9,6.2-5.9,9.3c-2,3.1-4.1,6.1-6.2,9.1
				c-2.1,3-4.3,5.9-6.6,8.8c1-1.6,2-3.1,3-4.6l3-4.6l6-9.2l6-9.1l3-4.6L1572.8,1068.3z"/>
		</g>
		<g class="st16">
			<path class="st18" d="M1676.1,553.5L1646,535c-2.2-1.4-3.3-4.1-2.5-6.6l7.4-23.7c0.8-2.4,3.6-3.4,5.7-1.9l25.5,18.2
				c1.7,1.2,2.6,3.2,2.4,5.3l-2.7,24.4C1681.4,553.4,1678.4,554.9,1676.1,553.5z"/>
		</g>
		<g>
			<path class="st8" d="M557.5,907.8c-2.6,2.4-5.3,4.6-7.9,6.9c-2.7,2.3-5.4,4.5-8.1,6.7c-2.8,2-4.6,5.1-5.3,8.4
				c-0.2,0.8-0.2,1.7-0.3,2.6l-0.3,2.6c-0.2,1.7-0.4,3.5-0.6,5.2c0.1-3.5,0.2-7,0.5-10.5c0.2-1.8,0.9-3.5,1.8-5.1
				c0.9-1.5,2.2-2.9,3.6-4c2.7-2.2,5.5-4.4,8.2-6.5C551.9,912,554.7,909.8,557.5,907.8z"/>
		</g>
		<g>
			<path class="st8" d="M607.9,911.5c-2.2,1.2-4.3,2.2-6.6,3.2c-2.2,1-4.4,2-6.7,3c-2.2,1-4.5,1.9-6.7,2.8l-3.4,1.3
				c-1.2,0.4-2.3,0.8-3.4,1.2c1.1-0.6,2.2-1.1,3.3-1.7l3.3-1.6c2.2-1,4.4-2,6.7-3c2.2-1,4.5-1.9,6.7-2.8
				C603.3,913.2,605.6,912.3,607.9,911.5z"/>
		</g>
		<g>
			<path class="st8" d="M645.5,930.3c-2.8-0.2-5.5-0.6-8.2-0.9c-2.7-0.3-5.5-0.8-8.2-1.2c-2.7-0.4-5.5-0.9-8.2-1.4l-4.1-0.8
				c-1.4-0.3-2.7-0.6-4.1-0.9c1.4,0.1,2.8,0.3,4.1,0.4l4.1,0.5c2.7,0.3,5.5,0.8,8.2,1.2c2.7,0.4,5.5,0.9,8.2,1.4
				C640.1,929.1,642.8,929.7,645.5,930.3z"/>
		</g>
		<g>
			<path class="st8" d="M728.3,1405.1c-1.8-6-3.5-12-5.1-18c-1.7-6-3.3-12.1-4.9-18.1c-1.6-6.1-3.2-12.1-4.7-18.2l-2.3-9.1
				c-0.7-3-1.5-6.1-2.2-9.1c0.9,3,1.7,6,2.6,9l2.5,9c1.7,6,3.3,12.1,4.9,18.1c1.6,6.1,3.2,12.1,4.7,18.2
				C725.5,1393,726.9,1399,728.3,1405.1z"/>
		</g>
	</g>
</g>
<g id="FRONT">
	<g>
		<g>
			<path class="st6" d="M1772.6,1757.2H559c-0.8,0-1.5-0.7-1.5-1.5s0.7-1.5,1.5-1.5h1213.6c0.8,0,1.5,0.7,1.5,1.5
				S1773.4,1757.2,1772.6,1757.2z"/>
		</g>
		<g>
			<g>
				<g>
					<g>
						<g>
							<g>
								<g>
									<g>
										<path class="st11" d="M1418.3,633.8c-31.7-54-101.2-72.1-155.2-40.5c-40.7,23.9-61,69.1-55,113.1l-18.4,31.3l33,10.8
											c31.7,54,101.2,72.1,155.2,40.5C1431.9,757.3,1450,687.8,1418.3,633.8z"/>
									</g>
								</g>
							</g>
						</g>
					</g>
				</g>
			</g>
			<g>
				<g>
					<g>
						<g>
							<g>
								<g>
									<g>
										<path class="st6" d="M1306.3,726.5l-30.5-30.6c-1.9-1.9-1.9-5,0-6.9l9.7-9.7c1.9-1.9,5-1.9,6.9,0l17.3,17.4l39.3-39.1
											c1.9-1.9,5-1.9,6.9,0l9.7,9.7c1.9,1.9,1.9,5,0,6.9l-52.4,52.2C1311.3,728.4,1308.2,728.4,1306.3,726.5z"/>
									</g>
								</g>
							</g>
						</g>
					</g>
				</g>
			</g>
			<g>
				<g>
					<g>
						<g>
							<g>
								<g>
									<g>
										<path class="st6" d="M1320.7,805.1c-9.6,0-19.3-1.2-28.9-3.7c-29.4-7.7-54-26.3-69.4-52.4l-33.4-10.9l18.6-31.7
											c-6.1-45.6,15.6-90.1,55.3-113.4c54.2-31.8,124.1-13.5,155.9,40.6c15.4,26.2,19.6,56.9,12,86.4
											c-7.7,29.4-26.4,54.1-52.6,69.5C1360.4,799.8,1340.7,805.1,1320.7,805.1z M1190.4,737.5l32.6,10.7l0.1,0.2
											c15.3,26,39.7,44.5,68.9,52.1c29.2,7.6,59.6,3.4,85.6-11.9c26-15.3,44.5-39.7,52.1-68.9c7.6-29.2,3.4-59.6-11.9-85.6
											c-31.5-53.7-100.8-71.8-154.5-40.3c-39.4,23.1-60.9,67.3-54.8,112.6l0,0.2L1190.4,737.5z"/>
									</g>
								</g>
							</g>
						</g>
					</g>
				</g>
			</g>
		</g>
	</g>
</g>
<g id="CONFETTI">
	<g>
		<g>
			<g>
				<path class="st6" d="M1280.4,340.8c-17.3-5.5-31.8-17.6-40.2-33.7c-6.9,8.2-13.7,16.4-20.6,24.6c8.4,16.1,22.8,28.2,40.2,33.7
					C1266.6,357.2,1273.5,349,1280.4,340.8z"/>
			</g>
		</g>
		<g>
			<g>
				<path class="st5" d="M492.8,1544.3c-13.1,12.6-30.6,19.5-48.8,19.2c3.9,9.9,7.8,19.9,11.7,29.8c18.2,0.3,35.7-6.6,48.8-19.2
					C500.6,1564.2,496.7,1554.3,492.8,1544.3z"/>
			</g>
		</g>
		<g>
			<g>
				<path class="st6" d="M1900.2,920.1c9.8,15.3,13.1,33.9,9.1,51.6c10.5-1.9,21.1-3.7,31.6-5.6c3.9-17.7,0.6-36.3-9.1-51.6
					C1921.3,916.4,1910.7,918.3,1900.2,920.1z"/>
			</g>
		</g>
		<g>
			<g>
				<path class="st6" d="M838.1,1235.1c18,2.8,34.1,12.5,44.8,27.2c5.5-9.1,11.1-18.3,16.6-27.4c-10.7-14.6-26.9-24.4-44.8-27.2
					C849.2,1216.8,843.7,1225.9,838.1,1235.1z"/>
			</g>
		</g>
		<g>
			<g>
				<path class="st5" d="M321.8,764c14.4-1,28.6,3.8,39.4,13.3c7.2-8.2,14.3-16.4,21.5-24.6c-17.4-15.2-40.1-22.8-63.1-21.2
					C320.3,742.3,321.1,753.2,321.8,764z"/>
			</g>
		</g>
		<g>
			<g>
				<path class="st5" d="M1661.2,274.6c25.3-7.6,36,28.2,61.3,20.6c3.2-9.7,6.5-19.3,9.7-29c-25.3,7.6-36-28.2-61.3-20.6
					C1667.7,255.3,1664.5,264.9,1661.2,274.6z"/>
			</g>
		</g>
		<g>
			<g>
				<path class="st5" d="M262.3,1233.4c25.3-7.6,36,28.2,61.3,20.6c3.2-9.7,6.5-19.3,9.7-29c-25.3,7.6-36-28.2-61.3-20.6
					C268.8,1214.1,265.5,1223.8,262.3,1233.4z"/>
			</g>
		</g>
		<g>
			<g>
				<path class="st5" d="M1637.6,1540.8c-3.8,26.1-40.8,20.6-44.7,46.7c7.4,7,14.7,14.1,22.1,21.1c3.8-26.1,40.8-20.6,44.7-46.7
					C1652.3,1554.9,1644.9,1547.8,1637.6,1540.8z"/>
			</g>
		</g>
		<g>
			<g>
				<path class="st6" d="M1953.3,1362.6c23.6,7.9,12.2,41.3,35.8,49.3c7.8-5.7,15.5-11.3,23.3-17c-23.6-7.9-12.2-41.3-35.8-49.3
					C1968.9,1351.3,1961.1,1357,1953.3,1362.6z"/>
			</g>
		</g>
		<g>
			<g>
				<path class="st5" d="M1402,887.5c14.3,4.5,26.2,14.4,33.1,27.7c5.6-6.8,11.3-13.5,16.9-20.3c-6.9-13.3-18.9-23.2-33.1-27.7
					C1413.3,874,1407.6,880.8,1402,887.5z"/>
			</g>
		</g>
		<g>
			<g>
				<path class="st5" d="M696.9,887.5c14.3,4.5,26.2,14.4,33.1,27.7c5.6-6.8,11.3-13.5,16.9-20.3c-6.9-13.3-18.9-23.2-33.1-27.7
					C708.2,874,702.5,880.8,696.9,887.5z"/>
			</g>
		</g>
		<g>
			<g>
				<path class="st5" d="M733.4,317.6c7.6-12.3,19.7-21.1,33.7-24.4c-2.5-10.6-5-21.2-7.6-31.8c-22.5,5.3-41.9,19.4-54,39
					C714.9,306.2,724.2,311.9,733.4,317.6z"/>
			</g>
		</g>
		<g>
			<g>
				<path class="st5" d="M1147,1534.4c7.6-12.3,19.7-21.1,33.7-24.4c-2.5-10.6-5-21.2-7.6-31.8c-22.5,5.3-41.9,19.4-54,39
					C1128.5,1523,1137.8,1528.7,1147,1534.4z"/>
			</g>
		</g>
	</g>
</g>
</svg>
